<svg width="2744px" height="562px"
 viewBox="0.00 0.00 2743.72 561.60" xmlns="http://www.w3.org/2000/svg" xmlns:xlink="http://www.w3.org/1999/xlink">
<g id="graph0" class="graph" transform="scale(1.0 1.0) rotate(0) translate(14.4 547.2)">
<title>org.owntracks.android.ui.preferences.PreferencesActivityModule</title>
<polygon fill="#ffffff" stroke="transparent" points="-14.4,14.4 -14.4,-547.2 2729.3234,-547.2 2729.3234,14.4 -14.4,14.4"/>
<text text-anchor="middle" x="85.3577" y="-8.2" font-family="Times,serif" font-size="14.00" fill="#000000">PreferencesActivityModule</text>
<g id="clust2" class="cluster">
<title>cluster_Dependency Graph</title>
<polygon fill="none" stroke="#000000" points="8,-32.8 8,-524.8 1988.9448,-524.8 1988.9448,-32.8 8,-32.8"/>
<text text-anchor="middle" x="70.2234" y="-508.2" font-family="Times,serif" font-size="14.00" fill="#000000">Dependency Graph</text>
</g>
<g id="clust3" class="cluster">
<title>cluster_Map&lt;Class&lt;?&gt;, AndroidInjector.Factory&lt;?&gt;&gt;</title>
<path fill="none" stroke="#000000" d="M116.8863,-252.8C116.8863,-252.8 1583.3016,-252.8 1583.3016,-252.8 1589.3016,-252.8 1595.3016,-258.8 1595.3016,-264.8 1595.3016,-264.8 1595.3016,-479.8 1595.3016,-479.8 1595.3016,-485.8 1589.3016,-491.8 1583.3016,-491.8 1583.3016,-491.8 116.8863,-491.8 116.8863,-491.8 110.8863,-491.8 104.8863,-485.8 104.8863,-479.8 104.8863,-479.8 104.8863,-264.8 104.8863,-264.8 104.8863,-258.8 110.8863,-252.8 116.8863,-252.8"/>
<text text-anchor="middle" x="850.0939" y="-475.2" font-family="Times,serif" font-size="14.00" fill="#000000">Map&lt;Class&lt;?&gt;, AndroidInjector.Factory&lt;?&gt;&gt;</text>
</g>
<g id="clust4" class="cluster">
<title>cluster_Subcomponents</title>
<polygon fill="none" stroke="#000000" points="2090.5998,-233.8 2090.5998,-496.8 2706.9234,-496.8 2706.9234,-233.8 2090.5998,-233.8"/>
<text text-anchor="middle" x="2143.3186" y="-480.2" font-family="Times,serif" font-size="14.00" fill="#000000">Subcomponents</text>
</g>
<!-- 61c84cb1&#45;2833&#45;4a1c&#45;a583&#45;4ebbdfef293b -->
<g id="node1" class="node">
<title>61c84cb1&#45;2833&#45;4a1c&#45;a583&#45;4ebbdfef293b</title>
<polygon fill="#7fffd4" stroke="#7fffd4" points="315.829,-244.4019 185.183,-244.4019 185.183,-203.1981 315.829,-203.1981 315.829,-244.4019"/>
<text text-anchor="middle" x="250.506" y="-228" font-family="Times,serif" font-size="14.00" fill="#000000">@PerActivity</text>
<text text-anchor="middle" x="250.506" y="-211.2" font-family="Times,serif" font-size="14.00" fill="#000000">AppCompatActivity</text>
</g>
<!-- 78890804&#45;9dcb&#45;46b1&#45;a5aa&#45;77633ca44b2b -->
<g id="node2" class="node">
<title>78890804&#45;9dcb&#45;46b1&#45;a5aa&#45;77633ca44b2b</title>
<polygon fill="#ff3030" stroke="#ff3030" points="950.1166,-241.8 611.0894,-241.8 611.0894,-205.8 950.1166,-205.8 950.1166,-241.8"/>
<text text-anchor="middle" x="780.603" y="-219.6" font-family="Times,serif" font-size="14.00" fill="#000000">org.owntracks.android.ui.preferences.PreferencesActivity</text>
</g>
<!-- 61c84cb1&#45;2833&#45;4a1c&#45;a583&#45;4ebbdfef293b&#45;&gt;78890804&#45;9dcb&#45;46b1&#45;a5aa&#45;77633ca44b2b -->
<g id="edge1" class="edge">
<title>61c84cb1&#45;2833&#45;4a1c&#45;a583&#45;4ebbdfef293b&#45;&gt;78890804&#45;9dcb&#45;46b1&#45;a5aa&#45;77633ca44b2b</title>
<path fill="none" stroke="#000000" stroke-dasharray="5,2" d="M315.7719,-223.8C386.5387,-223.8 502.5684,-223.8 600.9953,-223.8"/>
<polygon fill="#000000" stroke="#000000" points="601.0715,-227.3001 611.0714,-223.8 601.0714,-220.3001 601.0715,-227.3001"/>
<text text-anchor="middle" x="548.0541" y="-228" font-family="Times,serif" font-size="14.00" fill="#000000">delegates</text>
<text text-anchor="middle" x="565.3733" y="-211.2" font-family="Times,serif" font-size="14.00" fill="#000000">Missing binding</text>
</g>
<!-- 7cdef9d2&#45;5e4b&#45;4363&#45;926d&#45;0edd3658172a -->
<g id="node3" class="node">
<title>7cdef9d2&#45;5e4b&#45;4363&#45;926d&#45;0edd3658172a</title>
<polygon fill="#40e0d0" stroke="#40e0d0" points="1553.2483,-458.8 1059.1631,-458.8 1059.1631,-422.8 1553.2483,-422.8 1553.2483,-458.8"/>
<text text-anchor="middle" x="1306.2057" y="-436.6" font-family="Times,serif" font-size="14.00" fill="#000000">PreferencesActivityModule_BindPreferencesFragment.bindAndroidInjectorFactory()</text>
</g>
<!-- 28c59610&#45;f1d3&#45;4b29&#45;8f6e&#45;129c5eea2eca -->
<g id="node7" class="node">
<title>28c59610&#45;f1d3&#45;4b29&#45;8f6e&#45;129c5eea2eca</title>
<polygon fill="#40e0d0" stroke="#40e0d0" points="1979.857,-491.4014 1714.4736,-491.4014 1714.4736,-434.1986 1979.857,-434.1986 1979.857,-491.4014"/>
<text text-anchor="middle" x="1847.1653" y="-475" font-family="Times,serif" font-size="14.00" fill="#000000">PreferencesFragmentSubcomponent.Factory</text>
<text text-anchor="middle" x="1847.1653" y="-442.2" font-family="Times,serif" font-size="14.00" fill="#000000">Subcomponent Creator</text>
</g>
<!-- 7cdef9d2&#45;5e4b&#45;4363&#45;926d&#45;0edd3658172a&#45;&gt;28c59610&#45;f1d3&#45;4b29&#45;8f6e&#45;129c5eea2eca -->
<g id="edge6" class="edge">
<title>7cdef9d2&#45;5e4b&#45;4363&#45;926d&#45;0edd3658172a&#45;&gt;28c59610&#45;f1d3&#45;4b29&#45;8f6e&#45;129c5eea2eca</title>
<path fill="none" stroke="#000000" stroke-dasharray="1,5" d="M1553.3349,-450.8504C1605.085,-452.955 1657.9836,-455.1063 1704.3773,-456.993"/>
<polygon fill="#000000" stroke="#000000" points="1704.3477,-460.4946 1714.4817,-457.404 1704.6322,-453.5004 1704.3477,-460.4946"/>
<text text-anchor="middle" x="1650.3437" y="-460" font-family="Times,serif" font-size="14.00" fill="#000000">delegates</text>
</g>
<!-- e9006a6a&#45;965c&#45;4743&#45;9eb8&#45;73d945224309 -->
<g id="node4" class="node">
<title>e9006a6a&#45;965c&#45;4743&#45;9eb8&#45;73d945224309</title>
<polygon fill="#40e0d0" stroke="#40e0d0" points="1581.2413,-404.8 1031.1701,-404.8 1031.1701,-368.8 1581.2413,-368.8 1581.2413,-404.8"/>
<text text-anchor="middle" x="1306.2057" y="-382.6" font-family="Times,serif" font-size="14.00" fill="#000000">PreferencesActivityModule_BindReportingPreferencesFragment.bindAndroidInjectorFactory()</text>
</g>
<!-- 93b1415b&#45;6a32&#45;476a&#45;bac4&#45;103f3280491a -->
<g id="node8" class="node">
<title>93b1415b&#45;6a32&#45;476a&#45;bac4&#45;103f3280491a</title>
<polygon fill="#40e0d0" stroke="#40e0d0" points="1975.0679,-415.4014 1719.2627,-415.4014 1719.2627,-358.1986 1975.0679,-358.1986 1975.0679,-415.4014"/>
<text text-anchor="middle" x="1847.1653" y="-399" font-family="Times,serif" font-size="14.00" fill="#000000">ReportingFragmentSubcomponent.Factory</text>
<text text-anchor="middle" x="1847.1653" y="-366.2" font-family="Times,serif" font-size="14.00" fill="#000000">Subcomponent Creator</text>
</g>
<!-- e9006a6a&#45;965c&#45;4743&#45;9eb8&#45;73d945224309&#45;&gt;93b1415b&#45;6a32&#45;476a&#45;bac4&#45;103f3280491a -->
<g id="edge7" class="edge">
<title>e9006a6a&#45;965c&#45;4743&#45;9eb8&#45;73d945224309&#45;&gt;93b1415b&#45;6a32&#45;476a&#45;bac4&#45;103f3280491a</title>
<path fill="none" stroke="#000000" stroke-dasharray="1,5" d="M1581.4398,-386.8C1625.6457,-386.8 1669.6822,-386.8 1708.8242,-386.8"/>
<polygon fill="#000000" stroke="#000000" points="1709.197,-390.3001 1719.197,-386.8 1709.197,-383.3001 1709.197,-390.3001"/>
<text text-anchor="middle" x="1650.3437" y="-391" font-family="Times,serif" font-size="14.00" fill="#000000">delegates</text>
</g>
<!-- 217613d4&#45;f823&#45;46e7&#45;852f&#45;2dfba64e06d4 -->
<g id="node5" class="node">
<title>217613d4&#45;f823&#45;46e7&#45;852f&#45;2dfba64e06d4</title>
<polygon fill="#40e0d0" stroke="#40e0d0" points="1587.3975,-350.8 1025.0139,-350.8 1025.0139,-314.8 1587.3975,-314.8 1587.3975,-350.8"/>
<text text-anchor="middle" x="1306.2057" y="-328.6" font-family="Times,serif" font-size="14.00" fill="#000000">PreferencesActivityModule_BindNotificationPreferencesFragment.bindAndroidInjectorFactory()</text>
</g>
<!-- 59196fb8&#45;d442&#45;4dc5&#45;b2a5&#45;07bed5c09eaf -->
<g id="node9" class="node">
<title>59196fb8&#45;d442&#45;4dc5&#45;b2a5&#45;07bed5c09eaf</title>
<polygon fill="#40e0d0" stroke="#40e0d0" points="1980.7247,-339.4014 1713.6059,-339.4014 1713.6059,-282.1986 1980.7247,-282.1986 1980.7247,-339.4014"/>
<text text-anchor="middle" x="1847.1653" y="-323" font-family="Times,serif" font-size="14.00" fill="#000000">NotificationFragmentSubcomponent.Factory</text>
<text text-anchor="middle" x="1847.1653" y="-290.2" font-family="Times,serif" font-size="14.00" fill="#000000">Subcomponent Creator</text>
</g>
<!-- 217613d4&#45;f823&#45;46e7&#45;852f&#45;2dfba64e06d4&#45;&gt;59196fb8&#45;d442&#45;4dc5&#45;b2a5&#45;07bed5c09eaf -->
<g id="edge8" class="edge">
<title>217613d4&#45;f823&#45;46e7&#45;852f&#45;2dfba64e06d4&#45;&gt;59196fb8&#45;d442&#45;4dc5&#45;b2a5&#45;07bed5c09eaf</title>
<path fill="none" stroke="#000000" stroke-dasharray="1,5" d="M1587.3807,-321.365C1627.5505,-319.7314 1667.4053,-318.1106 1703.3937,-316.647"/>
<polygon fill="#000000" stroke="#000000" points="1703.5893,-320.142 1713.4388,-316.2385 1703.3048,-313.1478 1703.5893,-320.142"/>
<text text-anchor="middle" x="1650.3437" y="-323" font-family="Times,serif" font-size="14.00" fill="#000000">delegates</text>
</g>
<!-- 128cad13&#45;4adf&#45;4880&#45;b3f0&#45;91ecd50deb81 -->
<g id="node6" class="node">
<title>128cad13&#45;4adf&#45;4880&#45;b3f0&#45;91ecd50deb81</title>
<polygon fill="#40e0d0" stroke="#40e0d0" points="1581.9986,-296.8 1030.4128,-296.8 1030.4128,-260.8 1581.9986,-260.8 1581.9986,-296.8"/>
<text text-anchor="middle" x="1306.2057" y="-274.6" font-family="Times,serif" font-size="14.00" fill="#000000">PreferencesActivityModule_BindAdvancedPreferencesFragment.bindAndroidInjectorFactory()</text>
</g>
<!-- a4888ba1&#45;6ef1&#45;4929&#45;967c&#45;6c383246f6b8 -->
<g id="node10" class="node">
<title>a4888ba1&#45;6ef1&#45;4929&#45;967c&#45;6c383246f6b8</title>
<polygon fill="#40e0d0" stroke="#40e0d0" points="1975.3255,-263.4014 1719.0051,-263.4014 1719.0051,-206.1986 1975.3255,-206.1986 1975.3255,-263.4014"/>
<text text-anchor="middle" x="1847.1653" y="-247" font-family="Times,serif" font-size="14.00" fill="#000000">AdvancedFragmentSubcomponent.Factory</text>
<text text-anchor="middle" x="1847.1653" y="-214.2" font-family="Times,serif" font-size="14.00" fill="#000000">Subcomponent Creator</text>
</g>
<!-- 128cad13&#45;4adf&#45;4880&#45;b3f0&#45;91ecd50deb81&#45;&gt;a4888ba1&#45;6ef1&#45;4929&#45;967c&#45;6c383246f6b8 -->
<g id="edge9" class="edge">
<title>128cad13&#45;4adf&#45;4880&#45;b3f0&#45;91ecd50deb81&#45;&gt;a4888ba1&#45;6ef1&#45;4929&#45;967c&#45;6c383246f6b8</title>
<path fill="none" stroke="#000000" stroke-dasharray="1,5" d="M1527.7955,-260.7766C1589.0508,-255.7942 1653.7665,-250.5305 1708.8065,-246.0537"/>
<polygon fill="#000000" stroke="#000000" points="1709.2848,-249.5264 1718.9681,-245.2272 1708.7172,-242.5495 1709.2848,-249.5264"/>
<text text-anchor="middle" x="1650.3437" y="-256" font-family="Times,serif" font-size="14.00" fill="#000000">delegates</text>
</g>
<!-- 05ab57a3&#45;a605&#45;4013&#45;97e7&#45;8615e2978931 -->
<g id="node15" class="node">
<title>05ab57a3&#45;a605&#45;4013&#45;97e7&#45;8615e2978931</title>
<g id="a_node15"><a xlink:href="full_org.owntracks.android.ui.preferences.PreferencesActivityModule_BindPreferencesFragment.PreferencesFragmentSubcomponent.svg" xlink:title="@PerFragment\nPreferencesActivityModule_BindPreferencesFragment.PreferencesFragmentSubcomponent">
<polygon fill="#ffe4c4" stroke="#ffe4c4" points="2664.0685,-463.4019 2133.4547,-463.4019 2133.4547,-422.1981 2664.0685,-422.1981 2664.0685,-463.4019"/>
<text text-anchor="middle" x="2398.7616" y="-447" font-family="Times,serif" font-size="14.00" fill="#000000">@PerFragment</text>
<text text-anchor="middle" x="2398.7616" y="-430.2" font-family="Times,serif" font-size="14.00" fill="#000000">PreferencesActivityModule_BindPreferencesFragment.PreferencesFragmentSubcomponent</text>
</a>
</g>
</g>
<!-- 28c59610&#45;f1d3&#45;4b29&#45;8f6e&#45;129c5eea2eca&#45;&gt;05ab57a3&#45;a605&#45;4013&#45;97e7&#45;8615e2978931 -->
<g id="edge10" class="edge">
<title>28c59610&#45;f1d3&#45;4b29&#45;8f6e&#45;129c5eea2eca&#45;&gt;05ab57a3&#45;a605&#45;4013&#45;97e7&#45;8615e2978931:w</title>
<path fill="none" stroke="#000000" stroke-dasharray="5,2" d="M1980.0886,-449.6549C2025.2129,-446.1472 2076.2237,-443.2143 2123.69,-442.8403"/>
<polygon fill="#000000" stroke="#000000" points="2123.7757,-446.3401 2133.7616,-442.8 2123.7477,-439.3401 2123.7757,-446.3401"/>
<text text-anchor="middle" x="2039.7723" y="-452" font-family="Times,serif" font-size="14.00" fill="#000000">subcomponent</text>
</g>
<!-- add9f9c1&#45;3a81&#45;4349&#45;bb84&#45;ab20824591d4 -->
<g id="node16" class="node">
<title>add9f9c1&#45;3a81&#45;4349&#45;bb84&#45;ab20824591d4</title>
<g id="a_node16"><a xlink:href="full_org.owntracks.android.ui.preferences.PreferencesActivityModule_BindReportingPreferencesFragment.ReportingFragmentSubcomponent.svg" xlink:title="@PerFragment\nPreferencesActivityModule_BindReportingPreferencesFragment.ReportingFragmentSubcomponent">
<polygon fill="#ffe4c4" stroke="#ffe4c4" points="2687.2724,-403.4019 2110.2508,-403.4019 2110.2508,-362.1981 2687.2724,-362.1981 2687.2724,-403.4019"/>
<text text-anchor="middle" x="2398.7616" y="-387" font-family="Times,serif" font-size="14.00" fill="#000000">@PerFragment</text>
<text text-anchor="middle" x="2398.7616" y="-370.2" font-family="Times,serif" font-size="14.00" fill="#000000">PreferencesActivityModule_BindReportingPreferencesFragment.ReportingFragmentSubcomponent</text>
</a>
</g>
</g>
<!-- 93b1415b&#45;6a32&#45;476a&#45;bac4&#45;103f3280491a&#45;&gt;add9f9c1&#45;3a81&#45;4349&#45;bb84&#45;ab20824591d4 -->
<g id="edge11" class="edge">
<title>93b1415b&#45;6a32&#45;476a&#45;bac4&#45;103f3280491a&#45;&gt;add9f9c1&#45;3a81&#45;4349&#45;bb84&#45;ab20824591d4:w</title>
<path fill="none" stroke="#000000" stroke-dasharray="5,2" d="M1975.3802,-384.0656C2014.8645,-383.4161 2058.7275,-382.8865 2099.6919,-382.8096"/>
<polygon fill="#000000" stroke="#000000" points="2099.765,-386.3096 2109.7616,-382.8 2099.7582,-379.3096 2099.765,-386.3096"/>
<text text-anchor="middle" x="2039.7723" y="-387" font-family="Times,serif" font-size="14.00" fill="#000000">subcomponent</text>
</g>
<!-- 220c1de4&#45;db89&#45;4b10&#45;aff5&#45;4a3a5aca73f6 -->
<g id="node17" class="node">
<title>220c1de4&#45;db89&#45;4b10&#45;aff5&#45;4a3a5aca73f6</title>
<g id="a_node17"><a xlink:href="full_org.owntracks.android.ui.preferences.PreferencesActivityModule_BindNotificationPreferencesFragment.NotificationFragmentSubcomponent.svg" xlink:title="@PerFragment\nPreferencesActivityModule_BindNotificationPreferencesFragment.NotificationFragmentSubcomponent">
<polygon fill="#ffe4c4" stroke="#ffe4c4" points="2699.0853,-343.4019 2098.4379,-343.4019 2098.4379,-302.1981 2699.0853,-302.1981 2699.0853,-343.4019"/>
<text text-anchor="middle" x="2398.7616" y="-327" font-family="Times,serif" font-size="14.00" fill="#000000">@PerFragment</text>
<text text-anchor="middle" x="2398.7616" y="-310.2" font-family="Times,serif" font-size="14.00" fill="#000000">PreferencesActivityModule_BindNotificationPreferencesFragment.NotificationFragmentSubcomponent</text>
</a>
</g>
</g>
<!-- 59196fb8&#45;d442&#45;4dc5&#45;b2a5&#45;07bed5c09eaf&#45;&gt;220c1de4&#45;db89&#45;4b10&#45;aff5&#45;4a3a5aca73f6 -->
<g id="edge12" class="edge">
<title>59196fb8&#45;d442&#45;4dc5&#45;b2a5&#45;07bed5c09eaf&#45;&gt;220c1de4&#45;db89&#45;4b10&#45;aff5&#45;4a3a5aca73f6:w</title>
<path fill="none" stroke="#000000" stroke-dasharray="5,2" d="M1980.9453,-319.5526C2015.5798,-321.2323 2053.0691,-322.5445 2088.3749,-322.7667"/>
<polygon fill="#000000" stroke="#000000" points="2088.7504,-326.2679 2098.7616,-322.8 2088.7729,-319.2679 2088.7504,-326.2679"/>
<text text-anchor="middle" x="2039.7723" y="-326" font-family="Times,serif" font-size="14.00" fill="#000000">subcomponent</text>
</g>
<!-- 6626e75c&#45;bd35&#45;4698&#45;9eae&#45;7735b07c93aa -->
<g id="node18" class="node">
<title>6626e75c&#45;bd35&#45;4698&#45;9eae&#45;7735b07c93aa</title>
<g id="a_node18"><a xlink:href="full_org.owntracks.android.ui.preferences.PreferencesActivityModule_BindAdvancedPreferencesFragment.AdvancedFragmentSubcomponent.svg" xlink:title="@PerFragment\nPreferencesActivityModule_BindAdvancedPreferencesFragment.AdvancedFragmentSubcomponent">
<polygon fill="#ffe4c4" stroke="#ffe4c4" points="2687.7874,-283.4019 2109.7358,-283.4019 2109.7358,-242.1981 2687.7874,-242.1981 2687.7874,-283.4019"/>
<text text-anchor="middle" x="2398.7616" y="-267" font-family="Times,serif" font-size="14.00" fill="#000000">@PerFragment</text>
<text text-anchor="middle" x="2398.7616" y="-250.2" font-family="Times,serif" font-size="14.00" fill="#000000">PreferencesActivityModule_BindAdvancedPreferencesFragment.AdvancedFragmentSubcomponent</text>
</a>
</g>
</g>
<!-- a4888ba1&#45;6ef1&#45;4929&#45;967c&#45;6c383246f6b8&#45;&gt;6626e75c&#45;bd35&#45;4698&#45;9eae&#45;7735b07c93aa -->
<g id="edge13" class="edge">
<title>a4888ba1&#45;6ef1&#45;4929&#45;967c&#45;6c383246f6b8&#45;&gt;6626e75c&#45;bd35&#45;4698&#45;9eae&#45;7735b07c93aa:w</title>
<path fill="none" stroke="#000000" stroke-dasharray="5,2" d="M1975.4293,-253.9791C2014.8182,-258.5094 2058.6106,-262.1975 2099.666,-262.7331"/>
<polygon fill="#000000" stroke="#000000" points="2099.7386,-266.2336 2109.7616,-262.8 2099.785,-259.2337 2099.7386,-266.2336"/>
<text text-anchor="middle" x="2039.7723" y="-266" font-family="Times,serif" font-size="14.00" fill="#000000">subcomponent</text>
</g>
<!-- 7d8b9a12&#45;df1d&#45;4fb2&#45;914b&#45;4369c8dbb91b -->
<g id="node11" class="node">
<title>7d8b9a12&#45;df1d&#45;4fb2&#45;914b&#45;4369c8dbb91b</title>
<polygon fill="#ff3030" stroke="#ff3030" points="485.018,-184.8 15.994,-184.8 15.994,-148.8 485.018,-148.8 485.018,-184.8"/>
<text text-anchor="middle" x="250.506" y="-162.6" font-family="Times,serif" font-size="14.00" fill="#000000">@org.owntracks.android.injection.qualifier.AppContext android.content.Context</text>
</g>
<!-- 688b4333&#45;2069&#45;409e&#45;bd58&#45;fab6aff640a3 -->
<g id="node12" class="node">
<title>688b4333&#45;2069&#45;409e&#45;bd58&#45;fab6aff640a3</title>
<polygon fill="#ff3030" stroke="#ff3030" points="355.511,-130.8 145.501,-130.8 145.501,-94.8 355.511,-94.8 355.511,-130.8"/>
<text text-anchor="middle" x="250.506" y="-108.6" font-family="Times,serif" font-size="14.00" fill="#000000">org.greenrobot.eventbus.EventBus</text>
</g>
<!-- c1343921&#45;322e&#45;40ad&#45;8466&#45;cf56f5bedbb0 -->
<g id="node13" class="node">
<title>c1343921&#45;322e&#45;40ad&#45;8466&#45;cf56f5bedbb0</title>
<polygon fill="#ff3030" stroke="#ff3030" points="427.2897,-76.8 73.7223,-76.8 73.7223,-40.8 427.2897,-40.8 427.2897,-76.8"/>
<text text-anchor="middle" x="250.506" y="-54.6" font-family="Times,serif" font-size="14.00" fill="#000000">org.owntracks.android.support.preferences.PreferencesStore</text>
</g>
<!-- 94168326&#45;3efa&#45;458f&#45;8fa8&#45;319f8a1cd0e4 -->
<g id="node14" class="node">
<title>94168326&#45;3efa&#45;458f&#45;8fa8&#45;319f8a1cd0e4</title>
<polygon fill="#40e0d0" stroke="#40e0d0" points="388.2455,-376.8 124.7665,-376.8 124.7665,-380.8 112.7665,-380.8 112.7665,-340.8 388.2455,-340.8 388.2455,-376.8"/>
<polyline fill="none" stroke="#40e0d0" points="112.7665,-376.8 124.7665,-376.8 "/>
<text text-anchor="middle" x="250.506" y="-354.6" font-family="Times,serif" font-size="14.00" fill="#000000">Map&lt;Class&lt;?&gt;, AndroidInjector.Factory&lt;?&gt;&gt;</text>
</g>
<!-- 94168326&#45;3efa&#45;458f&#45;8fa8&#45;319f8a1cd0e4&#45;&gt;7cdef9d2&#45;5e4b&#45;4363&#45;926d&#45;0edd3658172a -->
<g id="edge2" class="edge">
<title>94168326&#45;3efa&#45;458f&#45;8fa8&#45;319f8a1cd0e4&#45;&gt;7cdef9d2&#45;5e4b&#45;4363&#45;926d&#45;0edd3658172a</title>
<path fill="none" stroke="#000000" d="M295.039,-376.8449C352.5018,-398.4623 456.0361,-431.8 548.0541,-431.8 548.0541,-431.8 548.0541,-431.8 987.6098,-431.8 1007.463,-431.8 1028.0093,-431.9768 1048.6644,-432.2808"/>
<polygon fill="#000000" stroke="#000000" points="1048.7567,-435.7826 1058.8104,-432.44 1048.8666,-428.7834 1048.7567,-435.7826"/>
</g>
<!-- 94168326&#45;3efa&#45;458f&#45;8fa8&#45;319f8a1cd0e4&#45;&gt;e9006a6a&#45;965c&#45;4743&#45;9eb8&#45;73d945224309 -->
<g id="edge3" class="edge">
<title>94168326&#45;3efa&#45;458f&#45;8fa8&#45;319f8a1cd0e4&#45;&gt;e9006a6a&#45;965c&#45;4743&#45;9eb8&#45;73d945224309</title>
<path fill="none" stroke="#000000" d="M388.158,-371.2613C438.4309,-374.8426 495.7736,-377.8 548.0541,-377.8 548.0541,-377.8 548.0541,-377.8 987.6098,-377.8 998.4129,-377.8 1009.4212,-377.8523 1020.5406,-377.9491"/>
<polygon fill="#000000" stroke="#000000" points="1020.7467,-381.4512 1030.7808,-378.0501 1020.8158,-374.4515 1020.7467,-381.4512"/>
</g>
<!-- 94168326&#45;3efa&#45;458f&#45;8fa8&#45;319f8a1cd0e4&#45;&gt;217613d4&#45;f823&#45;46e7&#45;852f&#45;2dfba64e06d4 -->
<g id="edge5" class="edge">
<title>94168326&#45;3efa&#45;458f&#45;8fa8&#45;319f8a1cd0e4&#45;&gt;217613d4&#45;f823&#45;46e7&#45;852f&#45;2dfba64e06d4</title>
<path fill="none" stroke="#000000" d="M388.17,-346.9946C438.444,-343.6018 495.7845,-340.8 548.0541,-340.8 548.0541,-340.8 548.0541,-340.8 987.6098,-340.8 996.4538,-340.8 1005.4355,-340.7688 1014.5032,-340.7103"/>
<polygon fill="#000000" stroke="#000000" points="1014.8014,-344.2083 1024.7747,-340.6329 1014.7486,-337.2085 1014.8014,-344.2083"/>
</g>
<!-- 94168326&#45;3efa&#45;458f&#45;8fa8&#45;319f8a1cd0e4&#45;&gt;128cad13&#45;4adf&#45;4880&#45;b3f0&#45;91ecd50deb81 -->
<g id="edge4" class="edge">
<title>94168326&#45;3efa&#45;458f&#45;8fa8&#45;319f8a1cd0e4&#45;&gt;128cad13&#45;4adf&#45;4880&#45;b3f0&#45;91ecd50deb81</title>
<path fill="none" stroke="#000000" d="M388.3551,-356.9945C420.7088,-353.546 454.6009,-347.3896 485.012,-336.8 516.5761,-325.8089 514.6311,-295.8 548.0541,-295.8 548.0541,-295.8 548.0541,-295.8 987.6098,-295.8 998.3179,-295.8 1009.2256,-295.7031 1020.2416,-295.5238"/>
<polygon fill="#000000" stroke="#000000" points="1020.4526,-299.0206 1030.3862,-295.3365 1020.3233,-292.0218 1020.4526,-299.0206"/>
</g>
</g>
</svg>
