<svg width="2079px" height="1058px"
 viewBox="0.00 0.00 2079.14 1057.60" xmlns="http://www.w3.org/2000/svg" xmlns:xlink="http://www.w3.org/1999/xlink">
<g id="graph0" class="graph" transform="scale(1.0 1.0) rotate(0) translate(14.4 1043.2)">
<title>org.owntracks.android.injection.modules.AndroidBindingModule → org.owntracks.android.injection.modules.AndroidBindingModule_BindEditorActivity.EditorActivitySubcomponent</title>
<polygon fill="#ffffff" stroke="transparent" points="-14.4,14.4 -14.4,-1043.2 2064.7362,-1043.2 2064.7362,14.4 -14.4,14.4"/>
<text text-anchor="middle" x="293.8135" y="-8.2" font-family="Times,serif" font-size="14.00" fill="#000000">AndroidBindingModule → AndroidBindingModule_BindEditorActivity.EditorActivitySubcomponent</text>
<g id="clust2" class="cluster">
<title>cluster_Dependency Graph</title>
<polygon fill="none" stroke="#000000" points="185.8002,-62.8 185.8002,-1020.8 2042.3362,-1020.8 2042.3362,-62.8 185.8002,-62.8"/>
<text text-anchor="middle" x="248.0236" y="-1004.2" font-family="Times,serif" font-size="14.00" fill="#000000">Dependency Graph</text>
</g>
<g id="clust3" class="cluster">
<title>cluster_Map&lt;Class&lt;?&gt;, Provider&lt;AndroidInjector.Factory&lt;?&gt;&gt;&gt;</title>
<path fill="none" stroke="#000000" d="M604.5194,-262.8C604.5194,-262.8 1708.2966,-262.8 1708.2966,-262.8 1714.2966,-262.8 1720.2966,-268.8 1720.2966,-274.8 1720.2966,-274.8 1720.2966,-975.8 1720.2966,-975.8 1720.2966,-981.8 1714.2966,-987.8 1708.2966,-987.8 1708.2966,-987.8 604.5194,-987.8 604.5194,-987.8 598.5194,-987.8 592.5194,-981.8 592.5194,-975.8 592.5194,-975.8 592.5194,-274.8 592.5194,-274.8 592.5194,-268.8 598.5194,-262.8 604.5194,-262.8"/>
<text text-anchor="middle" x="1156.408" y="-971.2" font-family="Times,serif" font-size="14.00" fill="#000000">Map&lt;Class&lt;?&gt;, Provider&lt;AndroidInjector.Factory&lt;?&gt;&gt;&gt;</text>
</g>
<g id="clust1" class="cluster">
<title>cluster_Entry Points</title>
<polygon fill="none" stroke="#000000" points="8,-116.8 8,-193.8 164.8002,-193.8 164.8002,-116.8 8,-116.8"/>
<text text-anchor="middle" x="50.8061" y="-177.2" font-family="Times,serif" font-size="14.00" fill="#000000">Entry Points</text>
</g>
<!-- 804d2b33&#45;3c0a&#45;4d4e&#45;a6ad&#45;abb1149626f1 -->
<g id="node1" class="node">
<title>804d2b33&#45;3c0a&#45;4d4e&#45;a6ad&#45;abb1149626f1</title>
<polygon fill="#40e0d0" stroke="#40e0d0" stroke-width="2" points="156.7004,-160.8 16.0998,-160.8 16.0998,-156.8 12.0998,-156.8 12.0998,-152.8 16.0998,-152.8 16.0998,-132.8 12.0998,-132.8 12.0998,-128.8 16.0998,-128.8 16.0998,-124.8 156.7004,-124.8 156.7004,-160.8"/>
<polyline fill="none" stroke="#40e0d0" stroke-width="2" points="16.0998,-156.8 20.0998,-156.8 20.0998,-152.8 16.0998,-152.8 "/>
<polyline fill="none" stroke="#40e0d0" stroke-width="2" points="16.0998,-132.8 20.0998,-132.8 20.0998,-128.8 16.0998,-128.8 "/>
<text text-anchor="middle" x="86.4001" y="-138.6" font-family="Times,serif" font-size="14.00" fill="#000000">inject (EditorActivity)</text>
</g>
<!-- 0ec30623&#45;5216&#45;4e3a&#45;bfa7&#45;9ca08b528bc2 -->
<g id="node2" class="node">
<title>0ec30623&#45;5216&#45;4e3a&#45;bfa7&#45;9ca08b528bc2</title>
<polygon fill="#40e0d0" stroke="#40e0d0" points="447.5655,-461.8 220.6699,-461.8 220.6699,-425.8 447.5655,-425.8 447.5655,-461.8"/>
<text text-anchor="middle" x="334.1177" y="-439.6" font-family="Times,serif" font-size="14.00" fill="#000000">DispatchingAndroidInjector&lt;Object&gt;</text>
</g>
<!-- 804d2b33&#45;3c0a&#45;4d4e&#45;a6ad&#45;abb1149626f1&#45;&gt;0ec30623&#45;5216&#45;4e3a&#45;bfa7&#45;9ca08b528bc2 -->
<g id="edge6" class="edge">
<title>804d2b33&#45;3c0a&#45;4d4e&#45;a6ad&#45;abb1149626f1&#45;&gt;0ec30623&#45;5216&#45;4e3a&#45;bfa7&#45;9ca08b528bc2</title>
<path fill="none" stroke="#000000" d="M101.523,-161.1758C143.8608,-212.6201 263.6752,-358.2058 312.7526,-417.8394"/>
<polygon fill="#000000" stroke="#000000" points="310.1356,-420.1674 319.1927,-425.6647 315.5406,-415.7192 310.1356,-420.1674"/>
</g>
<!-- 38438550&#45;f461&#45;491b&#45;93ee&#45;5f2406e47fb5 -->
<g id="node3" class="node">
<title>38438550&#45;f461&#45;491b&#45;93ee&#45;5f2406e47fb5</title>
<polygon fill="#40e0d0" stroke="#40e0d0" points="474.2529,-207.8 193.9825,-207.8 193.9825,-171.8 474.2529,-171.8 474.2529,-207.8"/>
<text text-anchor="middle" x="334.1177" y="-185.6" font-family="Times,serif" font-size="14.00" fill="#000000">EditorMvvm.ViewModel&lt;EditorMvvm.View&gt;</text>
</g>
<!-- 804d2b33&#45;3c0a&#45;4d4e&#45;a6ad&#45;abb1149626f1&#45;&gt;38438550&#45;f461&#45;491b&#45;93ee&#45;5f2406e47fb5 -->
<g id="edge3" class="edge">
<title>804d2b33&#45;3c0a&#45;4d4e&#45;a6ad&#45;abb1149626f1&#45;&gt;38438550&#45;f461&#45;491b&#45;93ee&#45;5f2406e47fb5</title>
<path fill="none" stroke="#000000" d="M156.7234,-156.1426C179.227,-160.4122 204.6501,-165.2358 229.0739,-169.8698"/>
<polygon fill="#000000" stroke="#000000" points="228.6247,-173.3469 239.1018,-171.7724 229.9296,-166.4696 228.6247,-173.3469"/>
</g>
<!-- 64c5caed&#45;3cd5&#45;4ea2&#45;981e&#45;6c9fb7bd39fe -->
<g id="node4" class="node">
<title>64c5caed&#45;3cd5&#45;4ea2&#45;981e&#45;6c9fb7bd39fe</title>
<polygon fill="#7fffd4" stroke="#7fffd4" points="1121.016,-172.4019 1014.6706,-172.4019 1014.6706,-131.1981 1121.016,-131.1981 1121.016,-172.4019"/>
<text text-anchor="middle" x="1067.8433" y="-156" font-family="Times,serif" font-size="14.00" fill="#000000">@PerActivity</text>
<text text-anchor="middle" x="1067.8433" y="-139.2" font-family="Times,serif" font-size="14.00" fill="#000000">DrawerProvider</text>
</g>
<!-- 804d2b33&#45;3c0a&#45;4d4e&#45;a6ad&#45;abb1149626f1&#45;&gt;64c5caed&#45;3cd5&#45;4ea2&#45;981e&#45;6c9fb7bd39fe -->
<g id="edge5" class="edge">
<title>804d2b33&#45;3c0a&#45;4d4e&#45;a6ad&#45;abb1149626f1&#45;&gt;64c5caed&#45;3cd5&#45;4ea2&#45;981e&#45;6c9fb7bd39fe</title>
<path fill="none" stroke="#000000" d="M156.8725,-142.8C206.445,-142.8 274.3386,-142.8 334.1177,-142.8 334.1177,-142.8 334.1177,-142.8 977.257,-142.8 985.9839,-142.8 995.1606,-143.2187 1004.1871,-143.8756"/>
<polygon fill="#000000" stroke="#000000" points="1004.0285,-147.3743 1014.2825,-144.7087 1004.6043,-140.398 1004.0285,-147.3743"/>
</g>
<!-- 15340aa5&#45;ad55&#45;4436&#45;8c54&#45;dd3a08f6ad1d -->
<g id="node5" class="node">
<title>15340aa5&#45;ad55&#45;4436&#45;8c54&#45;dd3a08f6ad1d</title>
<polygon fill="#76ee00" stroke="#76ee00" points="1977.4213,-112.4019 1895.2957,-112.4019 1895.2957,-71.1981 1977.4213,-71.1981 1977.4213,-112.4019"/>
<text text-anchor="middle" x="1936.3585" y="-96" font-family="Times,serif" font-size="14.00" fill="#000000">@Singleton</text>
<text text-anchor="middle" x="1936.3585" y="-79.2" font-family="Times,serif" font-size="14.00" fill="#000000">Preferences</text>
</g>
<!-- 804d2b33&#45;3c0a&#45;4d4e&#45;a6ad&#45;abb1149626f1&#45;&gt;15340aa5&#45;ad55&#45;4436&#45;8c54&#45;dd3a08f6ad1d -->
<g id="edge1" class="edge">
<title>804d2b33&#45;3c0a&#45;4d4e&#45;a6ad&#45;abb1149626f1&#45;&gt;15340aa5&#45;ad55&#45;4436&#45;8c54&#45;dd3a08f6ad1d</title>
<path fill="none" stroke="#000000" d="M103.2851,-124.726C141.8103,-91.3283 240.1461,-24.8 334.1177,-24.8 334.1177,-24.8 334.1177,-24.8 1775.3387,-24.8 1821.9888,-24.8 1871.9822,-46.6151 1903.6719,-65.5635"/>
<polygon fill="#000000" stroke="#000000" points="1902.1629,-68.7472 1912.5005,-71.0673 1905.866,-62.8069 1902.1629,-68.7472"/>
</g>
<!-- 804d2b33&#45;3c0a&#45;4d4e&#45;a6ad&#45;abb1149626f1&#45;&gt;15340aa5&#45;ad55&#45;4436&#45;8c54&#45;dd3a08f6ad1d -->
<g id="edge2" class="edge">
<title>804d2b33&#45;3c0a&#45;4d4e&#45;a6ad&#45;abb1149626f1&#45;&gt;15340aa5&#45;ad55&#45;4436&#45;8c54&#45;dd3a08f6ad1d</title>
<path fill="none" stroke="#000000" d="M118.0841,-124.584C163.3914,-95.4971 250.483,-42.8 334.1177,-42.8 334.1177,-42.8 334.1177,-42.8 1775.3387,-42.8 1813.9796,-42.8 1854.9144,-57.7675 1885.8408,-71.3157"/>
<polygon fill="#000000" stroke="#000000" points="1884.546,-74.5707 1895.1038,-75.4567 1887.4029,-68.1802 1884.546,-74.5707"/>
</g>
<!-- fe8b9e5f&#45;c723&#45;46a4&#45;8917&#45;a39738680ef7 -->
<g id="node6" class="node">
<title>fe8b9e5f&#45;c723&#45;46a4&#45;8917&#45;a39738680ef7</title>
<polygon fill="#76ee00" stroke="#76ee00" points="1108.9061,-112.4019 1026.7805,-112.4019 1026.7805,-71.1981 1108.9061,-71.1981 1108.9061,-112.4019"/>
<text text-anchor="middle" x="1067.8433" y="-96" font-family="Times,serif" font-size="14.00" fill="#000000">@Singleton</text>
<text text-anchor="middle" x="1067.8433" y="-79.2" font-family="Times,serif" font-size="14.00" fill="#000000">Parser</text>
</g>
<!-- 804d2b33&#45;3c0a&#45;4d4e&#45;a6ad&#45;abb1149626f1&#45;&gt;fe8b9e5f&#45;c723&#45;46a4&#45;8917&#45;a39738680ef7 -->
<g id="edge7" class="edge">
<title>804d2b33&#45;3c0a&#45;4d4e&#45;a6ad&#45;abb1149626f1&#45;&gt;fe8b9e5f&#45;c723&#45;46a4&#45;8917&#45;a39738680ef7</title>
<path fill="none" stroke="#000000" d="M151.5568,-124.7766C201.1915,-112.6254 271.4374,-98.8 334.1177,-98.8 334.1177,-98.8 334.1177,-98.8 977.257,-98.8 989.9523,-98.8 1003.6188,-98.1081 1016.391,-97.1594"/>
<polygon fill="#000000" stroke="#000000" points="1016.7203,-100.6443 1026.4066,-96.3517 1016.1576,-93.6669 1016.7203,-100.6443"/>
</g>
<!-- 0f6452ac&#45;137d&#45;4cf1&#45;8c0a&#45;f8266439ce7c -->
<g id="node7" class="node">
<title>0f6452ac&#45;137d&#45;4cf1&#45;8c0a&#45;f8266439ce7c</title>
<polygon fill="#7fffd4" stroke="#7fffd4" points="1114.7783,-252.4019 1020.9083,-252.4019 1020.9083,-211.1981 1114.7783,-211.1981 1114.7783,-252.4019"/>
<text text-anchor="middle" x="1067.8433" y="-236" font-family="Times,serif" font-size="14.00" fill="#000000">@PerActivity</text>
<text text-anchor="middle" x="1067.8433" y="-219.2" font-family="Times,serif" font-size="14.00" fill="#000000">Navigator</text>
</g>
<!-- 804d2b33&#45;3c0a&#45;4d4e&#45;a6ad&#45;abb1149626f1&#45;&gt;0f6452ac&#45;137d&#45;4cf1&#45;8c0a&#45;f8266439ce7c -->
<g id="edge4" class="edge">
<title>804d2b33&#45;3c0a&#45;4d4e&#45;a6ad&#45;abb1149626f1&#45;&gt;0f6452ac&#45;137d&#45;4cf1&#45;8c0a&#45;f8266439ce7c</title>
<path fill="none" stroke="#000000" d="M87.5334,-160.825C95.8013,-284.7547 151.7421,-1005.8 334.1177,-1005.8 334.1177,-1005.8 334.1177,-1005.8 977.257,-1005.8 1053.4044,-1005.8 1065.6784,-407.187 1067.5312,-262.8406"/>
<polygon fill="#000000" stroke="#000000" points="1071.0349,-262.5441 1067.6557,-252.5026 1064.0354,-262.4597 1071.0349,-262.5441"/>
</g>
<!-- 6dc912e5&#45;8368&#45;4d7c&#45;a4aa&#45;9a7f64e3ecc2 -->
<g id="node13" class="node">
<title>6dc912e5&#45;8368&#45;4d7c&#45;a4aa&#45;9a7f64e3ecc2</title>
<polygon fill="#40e0d0" stroke="#40e0d0" points="939.8759,-615.8 612.4005,-615.8 612.4005,-619.8 600.4005,-619.8 600.4005,-579.8 939.8759,-579.8 939.8759,-615.8"/>
<polyline fill="none" stroke="#40e0d0" points="600.4005,-615.8 612.4005,-615.8 "/>
<text text-anchor="middle" x="770.1382" y="-593.6" font-family="Times,serif" font-size="14.00" fill="#000000">Map&lt;Class&lt;?&gt;, Provider&lt;AndroidInjector.Factory&lt;?&gt;&gt;&gt;</text>
</g>
<!-- 0ec30623&#45;5216&#45;4e3a&#45;bfa7&#45;9ca08b528bc2&#45;&gt;6dc912e5&#45;8368&#45;4d7c&#45;a4aa&#45;9a7f64e3ecc2 -->
<g id="edge8" class="edge">
<title>0ec30623&#45;5216&#45;4e3a&#45;bfa7&#45;9ca08b528bc2&#45;&gt;6dc912e5&#45;8368&#45;4d7c&#45;a4aa&#45;9a7f64e3ecc2</title>
<path fill="none" stroke="#000000" d="M361.4203,-461.845C407.1241,-491.0851 502.9434,-548.3111 592.5194,-575.8 593.9582,-576.2415 595.4062,-576.6743 596.8625,-577.0983"/>
<polygon fill="#000000" stroke="#000000" points="596.0145,-580.495 606.5848,-579.7733 597.8715,-573.7458 596.0145,-580.495"/>
</g>
<!-- 8a6c9ce6&#45;998a&#45;4159&#45;a5de&#45;900ba701a6db -->
<g id="node8" class="node">
<title>8a6c9ce6&#45;998a&#45;4159&#45;a5de&#45;900ba701a6db</title>
<polygon fill="#7fffd4" stroke="#7fffd4" points="829.0009,-212.4019 711.2755,-212.4019 711.2755,-171.1981 829.0009,-171.1981 829.0009,-212.4019"/>
<text text-anchor="middle" x="770.1382" y="-196" font-family="Times,serif" font-size="14.00" fill="#000000">@PerActivity</text>
<text text-anchor="middle" x="770.1382" y="-179.2" font-family="Times,serif" font-size="14.00" fill="#000000">EditorViewModel</text>
</g>
<!-- 38438550&#45;f461&#45;491b&#45;93ee&#45;5f2406e47fb5&#45;&gt;8a6c9ce6&#45;998a&#45;4159&#45;a5de&#45;900ba701a6db -->
<g id="edge9" class="edge">
<title>38438550&#45;f461&#45;491b&#45;93ee&#45;5f2406e47fb5&#45;&gt;8a6c9ce6&#45;998a&#45;4159&#45;a5de&#45;900ba701a6db</title>
<path fill="none" stroke="#000000" stroke-dasharray="1,5" d="M474.4774,-190.4438C550.1379,-190.7909 640.1516,-191.2038 700.8197,-191.482"/>
<polygon fill="#000000" stroke="#000000" points="701.0298,-194.9829 711.0458,-191.5289 701.062,-187.983 701.0298,-194.9829"/>
<text text-anchor="middle" x="537.4773" y="-195" font-family="Times,serif" font-size="14.00" fill="#000000">delegates</text>
</g>
<!-- b12f9b74&#45;372b&#45;4569&#45;adff&#45;ce914cc0935d -->
<g id="node10" class="node">
<title>b12f9b74&#45;372b&#45;4569&#45;adff&#45;ce914cc0935d</title>
<polygon fill="#7fffd4" stroke="#7fffd4" points="1519.4361,-252.4019 1388.7901,-252.4019 1388.7901,-211.1981 1519.4361,-211.1981 1519.4361,-252.4019"/>
<text text-anchor="middle" x="1454.1131" y="-236" font-family="Times,serif" font-size="14.00" fill="#000000">@PerActivity</text>
<text text-anchor="middle" x="1454.1131" y="-219.2" font-family="Times,serif" font-size="14.00" fill="#000000">AppCompatActivity</text>
</g>
<!-- 64c5caed&#45;3cd5&#45;4ea2&#45;981e&#45;6c9fb7bd39fe&#45;&gt;b12f9b74&#45;372b&#45;4569&#45;adff&#45;ce914cc0935d -->
<g id="edge10" class="edge">
<title>64c5caed&#45;3cd5&#45;4ea2&#45;981e&#45;6c9fb7bd39fe&#45;&gt;b12f9b74&#45;372b&#45;4569&#45;adff&#45;ce914cc0935d</title>
<path fill="none" stroke="#000000" d="M1121.022,-164.7424C1144.0122,-170.2113 1171.2505,-176.5223 1195.9296,-181.8 1257.2492,-194.9135 1327.0863,-208.3478 1378.6519,-217.9842"/>
<polygon fill="#000000" stroke="#000000" points="1378.2414,-221.4679 1388.7134,-219.8596 1379.5241,-214.5864 1378.2414,-221.4679"/>
</g>
<!-- 29e4c3bd&#45;99e6&#45;40c0&#45;aa95&#45;28b8e817ead9 -->
<g id="node12" class="node">
<title>29e4c3bd&#45;99e6&#45;40c0&#45;aa95&#45;28b8e817ead9</title>
<polygon fill="#76ee00" stroke="#76ee00" points="1495.1759,-172.4019 1413.0503,-172.4019 1413.0503,-131.1981 1495.1759,-131.1981 1495.1759,-172.4019"/>
<text text-anchor="middle" x="1454.1131" y="-156" font-family="Times,serif" font-size="14.00" fill="#000000">@Singleton</text>
<text text-anchor="middle" x="1454.1131" y="-139.2" font-family="Times,serif" font-size="14.00" fill="#000000">Scheduler</text>
</g>
<!-- 64c5caed&#45;3cd5&#45;4ea2&#45;981e&#45;6c9fb7bd39fe&#45;&gt;29e4c3bd&#45;99e6&#45;40c0&#45;aa95&#45;28b8e817ead9 -->
<g id="edge11" class="edge">
<title>64c5caed&#45;3cd5&#45;4ea2&#45;981e&#45;6c9fb7bd39fe&#45;&gt;29e4c3bd&#45;99e6&#45;40c0&#45;aa95&#45;28b8e817ead9</title>
<path fill="none" stroke="#000000" d="M1121.1469,-151.8C1195.4151,-151.8 1329.1417,-151.8 1402.4968,-151.8"/>
<polygon fill="#000000" stroke="#000000" points="1402.8674,-155.3001 1412.8674,-151.8 1402.8673,-148.3001 1402.8674,-155.3001"/>
</g>
<!-- 25942f5b&#45;19cd&#45;48ab&#45;9eb4&#45;6a84d08489e2 -->
<g id="node9" class="node">
<title>25942f5b&#45;19cd&#45;48ab&#45;9eb4&#45;6a84d08489e2</title>
<polygon fill="#76ee00" stroke="#76ee00" points="1517.5318,-112.4019 1390.6944,-112.4019 1390.6944,-71.1981 1517.5318,-71.1981 1517.5318,-112.4019"/>
<text text-anchor="middle" x="1454.1131" y="-96" font-family="Times,serif" font-size="14.00" fill="#000000">@Singleton</text>
<text text-anchor="middle" x="1454.1131" y="-79.2" font-family="Times,serif" font-size="14.00" fill="#000000">EncryptionProvider</text>
</g>
<!-- fe8b9e5f&#45;c723&#45;46a4&#45;8917&#45;a39738680ef7&#45;&gt;25942f5b&#45;19cd&#45;48ab&#45;9eb4&#45;6a84d08489e2 -->
<g id="edge16" class="edge">
<title>fe8b9e5f&#45;c723&#45;46a4&#45;8917&#45;a39738680ef7&#45;&gt;25942f5b&#45;19cd&#45;48ab&#45;9eb4&#45;6a84d08489e2</title>
<path fill="none" stroke="#000000" d="M1109.1809,-91.8C1173.9452,-91.8 1300.2296,-91.8 1380.7081,-91.8"/>
<polygon fill="#000000" stroke="#000000" points="1380.7746,-95.3001 1390.7745,-91.8 1380.7745,-88.3001 1380.7746,-95.3001"/>
</g>
<!-- 0f6452ac&#45;137d&#45;4cf1&#45;8c0a&#45;f8266439ce7c&#45;&gt;b12f9b74&#45;372b&#45;4569&#45;adff&#45;ce914cc0935d -->
<g id="edge18" class="edge">
<title>0f6452ac&#45;137d&#45;4cf1&#45;8c0a&#45;f8266439ce7c&#45;&gt;b12f9b74&#45;372b&#45;4569&#45;adff&#45;ce914cc0935d</title>
<path fill="none" stroke="#000000" d="M1114.8214,-231.8C1180.4361,-231.8 1300.2515,-231.8 1378.5152,-231.8"/>
<polygon fill="#000000" stroke="#000000" points="1378.7969,-235.3001 1388.7968,-231.8 1378.7968,-228.3001 1378.7969,-235.3001"/>
</g>
<!-- 8a6c9ce6&#45;998a&#45;4159&#45;a5de&#45;900ba701a6db&#45;&gt;15340aa5&#45;ad55&#45;4436&#45;8c54&#45;dd3a08f6ad1d -->
<g id="edge14" class="edge">
<title>8a6c9ce6&#45;998a&#45;4159&#45;a5de&#45;900ba701a6db&#45;&gt;15340aa5&#45;ad55&#45;4436&#45;8c54&#45;dd3a08f6ad1d</title>
<path fill="none" stroke="#000000" d="M829.0608,-191.8C870.5088,-191.8 927.2752,-191.8 977.257,-191.8 977.257,-191.8 977.257,-191.8 1775.3387,-191.8 1830.2474,-191.8 1881.9847,-149.3164 1911.3577,-119.7304"/>
<polygon fill="#000000" stroke="#000000" points="1913.8951,-122.1412 1918.3318,-112.5201 1908.8637,-117.2745 1913.8951,-122.1412"/>
</g>
<!-- 8a6c9ce6&#45;998a&#45;4159&#45;a5de&#45;900ba701a6db&#45;&gt;fe8b9e5f&#45;c723&#45;46a4&#45;8917&#45;a39738680ef7 -->
<g id="edge15" class="edge">
<title>8a6c9ce6&#45;998a&#45;4159&#45;a5de&#45;900ba701a6db&#45;&gt;fe8b9e5f&#45;c723&#45;46a4&#45;8917&#45;a39738680ef7</title>
<path fill="none" stroke="#000000" d="M829.0587,-186.6076C867.0641,-181.8785 917.0096,-173.0421 958.757,-156.8 986.11,-146.1582 989.5303,-136.8015 1014.757,-121.8 1017.1881,-120.3543 1019.6901,-118.8836 1022.2215,-117.4088"/>
<polygon fill="#000000" stroke="#000000" points="1023.9713,-120.4401 1030.8823,-112.4095 1020.4718,-114.3776 1023.9713,-120.4401"/>
</g>
<!-- 8a6c9ce6&#45;998a&#45;4159&#45;a5de&#45;900ba701a6db&#45;&gt;0f6452ac&#45;137d&#45;4cf1&#45;8c0a&#45;f8266439ce7c -->
<g id="edge17" class="edge">
<title>8a6c9ce6&#45;998a&#45;4159&#45;a5de&#45;900ba701a6db&#45;&gt;0f6452ac&#45;137d&#45;4cf1&#45;8c0a&#45;f8266439ce7c</title>
<path fill="none" stroke="#000000" d="M829.3111,-199.7505C882.0897,-206.8419 958.8497,-217.1555 1010.9295,-224.153"/>
<polygon fill="#000000" stroke="#000000" points="1010.6249,-227.6434 1021.0019,-225.5063 1011.5571,-220.7058 1010.6249,-227.6434"/>
</g>
<!-- 25942f5b&#45;19cd&#45;48ab&#45;9eb4&#45;6a84d08489e2&#45;&gt;15340aa5&#45;ad55&#45;4436&#45;8c54&#45;dd3a08f6ad1d -->
<g id="edge13" class="edge">
<title>25942f5b&#45;19cd&#45;48ab&#45;9eb4&#45;6a84d08489e2&#45;&gt;15340aa5&#45;ad55&#45;4436&#45;8c54&#45;dd3a08f6ad1d</title>
<path fill="none" stroke="#000000" d="M1517.6542,-91.8C1614.2177,-91.8 1796.0455,-91.8 1884.8811,-91.8"/>
<polygon fill="#000000" stroke="#000000" points="1884.9848,-95.3001 1894.9847,-91.8 1884.9847,-88.3001 1884.9848,-95.3001"/>
</g>
<!-- 926c479b&#45;b2b0&#45;4bff&#45;9801&#45;515ec87d7b63 -->
<g id="node11" class="node">
<title>926c479b&#45;b2b0&#45;4bff&#45;9801&#45;515ec87d7b63</title>
<polygon fill="#40e0d0" stroke="#40e0d0" points="2034.3139,-249.8 1878.4888,-249.8 1838.4031,-213.8 1994.2282,-213.8 2034.3139,-249.8"/>
<text text-anchor="middle" x="1936.3585" y="-227.6" font-family="Times,serif" font-size="14.00" fill="#000000">EditorActivity</text>
</g>
<!-- b12f9b74&#45;372b&#45;4569&#45;adff&#45;ce914cc0935d&#45;&gt;926c479b&#45;b2b0&#45;4bff&#45;9801&#45;515ec87d7b63 -->
<g id="edge32" class="edge">
<title>b12f9b74&#45;372b&#45;4569&#45;adff&#45;ce914cc0935d&#45;&gt;926c479b&#45;b2b0&#45;4bff&#45;9801&#45;515ec87d7b63</title>
<path fill="none" stroke="#000000" stroke-dasharray="1,5" d="M1519.4016,-231.8C1604.3086,-231.8 1752.9608,-231.8 1847.9254,-231.8"/>
<polygon fill="#000000" stroke="#000000" points="1848.0867,-235.3001 1858.0866,-231.8 1848.0866,-228.3001 1848.0867,-235.3001"/>
<text text-anchor="middle" x="1775.3387" y="-236" font-family="Times,serif" font-size="14.00" fill="#000000">delegates</text>
</g>
<!-- 29e4c3bd&#45;99e6&#45;40c0&#45;aa95&#45;28b8e817ead9&#45;&gt;15340aa5&#45;ad55&#45;4436&#45;8c54&#45;dd3a08f6ad1d -->
<g id="edge12" class="edge">
<title>29e4c3bd&#45;99e6&#45;40c0&#45;aa95&#45;28b8e817ead9&#45;&gt;15340aa5&#45;ad55&#45;4436&#45;8c54&#45;dd3a08f6ad1d</title>
<path fill="none" stroke="#000000" d="M1495.1922,-147.5018C1547.5147,-141.9509 1640.7024,-131.8094 1720.2966,-121.8 1776.6498,-114.7133 1841.1302,-105.6335 1884.8739,-99.3283"/>
<polygon fill="#000000" stroke="#000000" points="1885.5833,-102.7622 1894.9799,-97.8678 1884.582,-95.8342 1885.5833,-102.7622"/>
</g>
<!-- 7e7ca28b&#45;4ed9&#45;43cb&#45;a125&#45;5fc9bf9c1061 -->
<g id="node14" class="node">
<title>7e7ca28b&#45;4ed9&#45;43cb&#45;a125&#45;5fc9bf9c1061</title>
<polygon fill="#40e0d0" stroke="#40e0d0" points="1672.7079,-900.8 1235.5183,-900.8 1235.5183,-864.8 1672.7079,-864.8 1672.7079,-900.8"/>
<text text-anchor="middle" x="1454.1131" y="-878.6" font-family="Times,serif" font-size="14.00" fill="#000000">AndroidBindingModule_BindEditorActivity.bindAndroidInjectorFactory()</text>
</g>
<!-- 6dc912e5&#45;8368&#45;4d7c&#45;a4aa&#45;9a7f64e3ecc2&#45;&gt;7e7ca28b&#45;4ed9&#45;43cb&#45;a125&#45;5fc9bf9c1061 -->
<g id="edge20" class="edge">
<title>6dc912e5&#45;8368&#45;4d7c&#45;a4aa&#45;9a7f64e3ecc2&#45;&gt;7e7ca28b&#45;4ed9&#45;43cb&#45;a125&#45;5fc9bf9c1061</title>
<path fill="none" stroke="#000000" d="M935.5913,-615.8236C937.0188,-617.0944 938.4083,-618.4193 939.757,-619.8 977.9363,-658.8869 922.6178,-862.8 977.257,-862.8 977.257,-862.8 977.257,-862.8 1158.4296,-862.8 1180.9395,-862.8 1204.3914,-863.3841 1227.8059,-864.3527"/>
<polygon fill="#000000" stroke="#000000" points="1227.6923,-867.851 1237.8356,-864.7908 1227.9979,-860.8577 1227.6923,-867.851"/>
</g>
<!-- f8c7f21c&#45;51a0&#45;4481&#45;9504&#45;e47b02d7fe06 -->
<g id="node15" class="node">
<title>f8c7f21c&#45;51a0&#45;4481&#45;9504&#45;e47b02d7fe06</title>
<polygon fill="#40e0d0" stroke="#40e0d0" points="1681.8532,-954.8 1226.373,-954.8 1226.373,-918.8 1681.8532,-918.8 1681.8532,-954.8"/>
<text text-anchor="middle" x="1454.1131" y="-932.6" font-family="Times,serif" font-size="14.00" fill="#000000">AndroidBindingModule_BindWelcomeActivity.bindAndroidInjectorFactory()</text>
</g>
<!-- 6dc912e5&#45;8368&#45;4d7c&#45;a4aa&#45;9a7f64e3ecc2&#45;&gt;f8c7f21c&#45;51a0&#45;4481&#45;9504&#45;e47b02d7fe06 -->
<g id="edge27" class="edge">
<title>6dc912e5&#45;8368&#45;4d7c&#45;a4aa&#45;9a7f64e3ecc2&#45;&gt;f8c7f21c&#45;51a0&#45;4481&#45;9504&#45;e47b02d7fe06</title>
<path fill="none" stroke="#000000" d="M935.9722,-616.0676C937.2679,-617.2643 938.5303,-618.5079 939.757,-619.8 985.5606,-668.0439 910.733,-916.8 977.257,-916.8 977.257,-916.8 977.257,-916.8 1158.4296,-916.8 1180.9395,-916.8 1204.3914,-917.3841 1227.8059,-918.3527"/>
<polygon fill="#000000" stroke="#000000" points="1227.6923,-921.851 1237.8356,-918.7908 1227.9979,-914.8577 1227.6923,-921.851"/>
</g>
<!-- 3f5de885&#45;364e&#45;466b&#45;a456&#45;dadd3f1e4973 -->
<g id="node16" class="node">
<title>3f5de885&#45;364e&#45;466b&#45;a456&#45;dadd3f1e4973</title>
<polygon fill="#40e0d0" stroke="#40e0d0" points="1687.2606,-306.8 1220.9656,-306.8 1220.9656,-270.8 1687.2606,-270.8 1687.2606,-306.8"/>
<text text-anchor="middle" x="1454.1131" y="-284.6" font-family="Times,serif" font-size="14.00" fill="#000000">AndroidBindingModule_BindConnectionActivity.bindAndroidInjectorFactory()</text>
</g>
<!-- 6dc912e5&#45;8368&#45;4d7c&#45;a4aa&#45;9a7f64e3ecc2&#45;&gt;3f5de885&#45;364e&#45;466b&#45;a456&#45;dadd3f1e4973 -->
<g id="edge25" class="edge">
<title>6dc912e5&#45;8368&#45;4d7c&#45;a4aa&#45;9a7f64e3ecc2&#45;&gt;3f5de885&#45;364e&#45;466b&#45;a456&#45;dadd3f1e4973</title>
<path fill="none" stroke="#000000" d="M935.9624,-579.5231C937.2612,-578.3293 938.5269,-577.0888 939.757,-575.8 982.7972,-530.7059 914.9197,-297.8 977.257,-297.8 977.257,-297.8 977.257,-297.8 1158.4296,-297.8 1175.3877,-297.8 1192.8903,-297.6503 1210.5149,-297.3894"/>
<polygon fill="#000000" stroke="#000000" points="1210.9601,-300.8829 1220.9029,-297.2233 1210.8481,-293.8838 1210.9601,-300.8829"/>
</g>
<!-- 801e36e6&#45;e74a&#45;4074&#45;b716&#45;2dc860fa4547 -->
<g id="node17" class="node">
<title>801e36e6&#45;e74a&#45;4074&#45;b716&#45;2dc860fa4547</title>
<polygon fill="#40e0d0" stroke="#40e0d0" points="1678.0999,-360.8 1230.1263,-360.8 1230.1263,-324.8 1678.0999,-324.8 1678.0999,-360.8"/>
<text text-anchor="middle" x="1454.1131" y="-338.6" font-family="Times,serif" font-size="14.00" fill="#000000">AndroidBindingModule_BindRegionsActivity.bindAndroidInjectorFactory()</text>
</g>
<!-- 6dc912e5&#45;8368&#45;4d7c&#45;a4aa&#45;9a7f64e3ecc2&#45;&gt;801e36e6&#45;e74a&#45;4074&#45;b716&#45;2dc860fa4547 -->
<g id="edge22" class="edge">
<title>6dc912e5&#45;8368&#45;4d7c&#45;a4aa&#45;9a7f64e3ecc2&#45;&gt;801e36e6&#45;e74a&#45;4074&#45;b716&#45;2dc860fa4547</title>
<path fill="none" stroke="#000000" d="M935.5137,-579.6991C936.9657,-578.4527 938.3811,-577.1536 939.757,-575.8 976.673,-539.4819 925.471,-345.8 977.257,-345.8 977.257,-345.8 977.257,-345.8 1158.4296,-345.8 1178.3927,-345.8 1199.1136,-345.7308 1219.9014,-345.6134"/>
<polygon fill="#000000" stroke="#000000" points="1220.1299,-349.1121 1230.1086,-345.5519 1220.0877,-342.1123 1220.1299,-349.1121"/>
</g>
<!-- 12003889&#45;8737&#45;484c&#45;a92f&#45;7a020fd06a0d -->
<g id="node18" class="node">
<title>12003889&#45;8737&#45;484c&#45;a92f&#45;7a020fd06a0d</title>
<polygon fill="#40e0d0" stroke="#40e0d0" points="1672.4366,-414.8 1235.7896,-414.8 1235.7896,-378.8 1672.4366,-378.8 1672.4366,-414.8"/>
<text text-anchor="middle" x="1454.1131" y="-392.6" font-family="Times,serif" font-size="14.00" fill="#000000">AndroidBindingModule_BindStatusActivity.bindAndroidInjectorFactory()</text>
</g>
<!-- 6dc912e5&#45;8368&#45;4d7c&#45;a4aa&#45;9a7f64e3ecc2&#45;&gt;12003889&#45;8737&#45;484c&#45;a92f&#45;7a020fd06a0d -->
<g id="edge29" class="edge">
<title>6dc912e5&#45;8368&#45;4d7c&#45;a4aa&#45;9a7f64e3ecc2&#45;&gt;12003889&#45;8737&#45;484c&#45;a92f&#45;7a020fd06a0d</title>
<path fill="none" stroke="#000000" d="M935.4146,-579.5957C936.8979,-578.382 938.3463,-577.1173 939.757,-575.8 982.1491,-536.2132 919.2553,-450.8 977.257,-450.8 977.257,-450.8 977.257,-450.8 1158.4296,-450.8 1178.9668,-450.8 1176.7388,-431.1137 1195.9296,-423.8 1205.6634,-420.0904 1215.7441,-416.8306 1226.0298,-413.9696"/>
<polygon fill="#000000" stroke="#000000" points="1227.1763,-417.2868 1235.9495,-411.347 1225.3871,-410.5193 1227.1763,-417.2868"/>
</g>
<!-- 6033323a&#45;099c&#45;4980&#45;bbb3&#45;a09f6087a0ae -->
<g id="node19" class="node">
<title>6033323a&#45;099c&#45;4980&#45;bbb3&#45;a09f6087a0ae</title>
<polygon fill="#40e0d0" stroke="#40e0d0" points="1712.4802,-468.8 1195.746,-468.8 1195.746,-432.8 1712.4802,-432.8 1712.4802,-468.8"/>
<text text-anchor="middle" x="1454.1131" y="-446.6" font-family="Times,serif" font-size="14.00" fill="#000000">AndroidBindingModule_BindBackgroundServiceReceiver.bindAndroidInjectorFactory()</text>
</g>
<!-- 6dc912e5&#45;8368&#45;4d7c&#45;a4aa&#45;9a7f64e3ecc2&#45;&gt;6033323a&#45;099c&#45;4980&#45;bbb3&#45;a09f6087a0ae -->
<g id="edge21" class="edge">
<title>6dc912e5&#45;8368&#45;4d7c&#45;a4aa&#45;9a7f64e3ecc2&#45;&gt;6033323a&#45;099c&#45;4980&#45;bbb3&#45;a09f6087a0ae</title>
<path fill="none" stroke="#000000" d="M934.3558,-579.7159C936.196,-578.4701 937.9978,-577.1656 939.757,-575.8 975.2879,-548.2189 932.2774,-481.8 977.257,-481.8 977.257,-481.8 977.257,-481.8 1158.4296,-481.8 1175.1908,-481.8 1179.2611,-479.5606 1195.9296,-477.8 1220.263,-475.2299 1245.8878,-472.5355 1271.1618,-469.8851"/>
<polygon fill="#000000" stroke="#000000" points="1271.6237,-473.356 1281.2042,-468.8324 1270.8938,-466.3941 1271.6237,-473.356"/>
</g>
<!-- d427e60e&#45;8b3c&#45;4104&#45;aafe&#45;1b67743a8742 -->
<g id="node20" class="node">
<title>d427e60e&#45;8b3c&#45;4104&#45;aafe&#45;1b67743a8742</title>
<polygon fill="#40e0d0" stroke="#40e0d0" points="1687.2341,-522.8 1220.9921,-522.8 1220.9921,-486.8 1687.2341,-486.8 1687.2341,-522.8"/>
<text text-anchor="middle" x="1454.1131" y="-500.6" font-family="Times,serif" font-size="14.00" fill="#000000">AndroidBindingModule_BindBackgroundService.bindAndroidInjectorFactory()</text>
</g>
<!-- 6dc912e5&#45;8368&#45;4d7c&#45;a4aa&#45;9a7f64e3ecc2&#45;&gt;d427e60e&#45;8b3c&#45;4104&#45;aafe&#45;1b67743a8742 -->
<g id="edge19" class="edge">
<title>6dc912e5&#45;8368&#45;4d7c&#45;a4aa&#45;9a7f64e3ecc2&#45;&gt;d427e60e&#45;8b3c&#45;4104&#45;aafe&#45;1b67743a8742</title>
<path fill="none" stroke="#000000" d="M930.2195,-579.72C933.4526,-578.4905 936.6357,-577.1853 939.757,-575.8 959.7833,-566.9119 955.347,-543.8 977.257,-543.8 977.257,-543.8 977.257,-543.8 1158.4296,-543.8 1175.9288,-543.8 1178.8038,-535.3957 1195.9296,-531.8 1208.9728,-529.0615 1222.4479,-526.5954 1236.0809,-524.3753"/>
<polygon fill="#000000" stroke="#000000" points="1236.7013,-527.8207 1246.0319,-522.8018 1235.6079,-520.9066 1236.7013,-527.8207"/>
</g>
<!-- b7f19be9&#45;87d8&#45;45ea&#45;bc0e&#45;649ff6768f69 -->
<g id="node21" class="node">
<title>b7f19be9&#45;87d8&#45;45ea&#45;bc0e&#45;649ff6768f69</title>
<polygon fill="#40e0d0" stroke="#40e0d0" points="1675.1555,-576.8 1233.0707,-576.8 1233.0707,-540.8 1675.1555,-540.8 1675.1555,-576.8"/>
<text text-anchor="middle" x="1454.1131" y="-554.6" font-family="Times,serif" font-size="14.00" fill="#000000">AndroidBindingModule_BindRegionActivity.bindAndroidInjectorFactory()</text>
</g>
<!-- 6dc912e5&#45;8368&#45;4d7c&#45;a4aa&#45;9a7f64e3ecc2&#45;&gt;b7f19be9&#45;87d8&#45;45ea&#45;bc0e&#45;649ff6768f69 -->
<g id="edge26" class="edge">
<title>6dc912e5&#45;8368&#45;4d7c&#45;a4aa&#45;9a7f64e3ecc2&#45;&gt;b7f19be9&#45;87d8&#45;45ea&#45;bc0e&#45;649ff6768f69</title>
<path fill="none" stroke="#000000" d="M939.9118,-585.4183C952.5438,-585.0259 965.0973,-584.8 977.257,-584.8 977.257,-584.8 977.257,-584.8 1158.4296,-584.8 1203.5835,-584.8 1252.4676,-581.754 1297.2383,-577.7472"/>
<polygon fill="#000000" stroke="#000000" points="1297.6838,-581.2211 1307.3224,-576.8224 1297.0446,-574.2503 1297.6838,-581.2211"/>
</g>
<!-- eeb7a6bc&#45;2d99&#45;4901&#45;b55a&#45;e76fdf7a6e1c -->
<g id="node22" class="node">
<title>eeb7a6bc&#45;2d99&#45;4901&#45;b55a&#45;e76fdf7a6e1c</title>
<polygon fill="#40e0d0" stroke="#40e0d0" points="1667.8728,-630.8 1240.3534,-630.8 1240.3534,-594.8 1667.8728,-594.8 1667.8728,-630.8"/>
<text text-anchor="middle" x="1454.1131" y="-608.6" font-family="Times,serif" font-size="14.00" fill="#000000">AndroidBindingModule_BindMapActivity.bindAndroidInjectorFactory()</text>
</g>
<!-- 6dc912e5&#45;8368&#45;4d7c&#45;a4aa&#45;9a7f64e3ecc2&#45;&gt;eeb7a6bc&#45;2d99&#45;4901&#45;b55a&#45;e76fdf7a6e1c -->
<g id="edge28" class="edge">
<title>6dc912e5&#45;8368&#45;4d7c&#45;a4aa&#45;9a7f64e3ecc2&#45;&gt;eeb7a6bc&#45;2d99&#45;4901&#45;b55a&#45;e76fdf7a6e1c</title>
<path fill="none" stroke="#000000" d="M939.9198,-609.2293C952.5499,-609.5914 965.1008,-609.8 977.257,-609.8 977.257,-609.8 977.257,-609.8 1158.4296,-609.8 1181.5631,-609.8 1205.7142,-609.893 1229.8079,-610.0461"/>
<polygon fill="#000000" stroke="#000000" points="1230.1038,-613.5481 1240.1271,-610.1154 1230.1508,-606.5483 1230.1038,-613.5481"/>
</g>
<!-- 7d205f24&#45;d0ff&#45;4207&#45;8a52&#45;bfbba18c618f -->
<g id="node23" class="node">
<title>7d205f24&#45;d0ff&#45;4207&#45;8a52&#45;bfbba18c618f</title>
<polygon fill="#40e0d0" stroke="#40e0d0" points="1687.9957,-684.8 1220.2305,-684.8 1220.2305,-648.8 1687.9957,-648.8 1687.9957,-684.8"/>
<text text-anchor="middle" x="1454.1131" y="-662.6" font-family="Times,serif" font-size="14.00" fill="#000000">AndroidBindingModule_BindPreferencesActivity.bindAndroidInjectorFactory()</text>
</g>
<!-- 6dc912e5&#45;8368&#45;4d7c&#45;a4aa&#45;9a7f64e3ecc2&#45;&gt;7d205f24&#45;d0ff&#45;4207&#45;8a52&#45;bfbba18c618f -->
<g id="edge23" class="edge">
<title>6dc912e5&#45;8368&#45;4d7c&#45;a4aa&#45;9a7f64e3ecc2&#45;&gt;7d205f24&#45;d0ff&#45;4207&#45;8a52&#45;bfbba18c618f</title>
<path fill="none" stroke="#000000" d="M929.2144,-615.9437C932.7861,-617.1514 936.3052,-618.4353 939.757,-619.8 958.8557,-627.3509 956.7198,-646.8 977.257,-646.8 977.257,-646.8 977.257,-646.8 1158.4296,-646.8 1180.9395,-646.8 1204.3914,-647.3841 1227.8059,-648.3527"/>
<polygon fill="#000000" stroke="#000000" points="1227.6923,-651.851 1237.8356,-648.7908 1227.9979,-644.8577 1227.6923,-651.851"/>
</g>
<!-- bf7d21d3&#45;f3e6&#45;4348&#45;a462&#45;343db194fa1d -->
<g id="node24" class="node">
<title>bf7d21d3&#45;f3e6&#45;4348&#45;a462&#45;343db194fa1d</title>
<polygon fill="#40e0d0" stroke="#40e0d0" points="1669.4807,-738.8 1238.7455,-738.8 1238.7455,-702.8 1669.4807,-702.8 1669.4807,-738.8"/>
<text text-anchor="middle" x="1454.1131" y="-716.6" font-family="Times,serif" font-size="14.00" fill="#000000">AndroidBindingModule_BindLoadActivity.bindAndroidInjectorFactory()</text>
</g>
<!-- 6dc912e5&#45;8368&#45;4d7c&#45;a4aa&#45;9a7f64e3ecc2&#45;&gt;bf7d21d3&#45;f3e6&#45;4348&#45;a462&#45;343db194fa1d -->
<g id="edge31" class="edge">
<title>6dc912e5&#45;8368&#45;4d7c&#45;a4aa&#45;9a7f64e3ecc2&#45;&gt;bf7d21d3&#45;f3e6&#45;4348&#45;a462&#45;343db194fa1d</title>
<path fill="none" stroke="#000000" d="M934.2534,-616.0198C936.1257,-617.223 937.9615,-618.4824 939.757,-619.8 971.7396,-643.2711 937.5861,-700.8 977.257,-700.8 977.257,-700.8 977.257,-700.8 1158.4296,-700.8 1181.1646,-700.8 1204.8606,-701.3959 1228.5084,-702.3819"/>
<polygon fill="#000000" stroke="#000000" points="1228.493,-705.8845 1238.6372,-702.8278 1228.8009,-698.8913 1228.493,-705.8845"/>
</g>
<!-- 822759f6&#45;e71d&#45;4ab2&#45;be49&#45;077320212d5b -->
<g id="node25" class="node">
<title>822759f6&#45;e71d&#45;4ab2&#45;be49&#45;077320212d5b</title>
<polygon fill="#40e0d0" stroke="#40e0d0" points="1679.7051,-792.8 1228.5211,-792.8 1228.5211,-756.8 1679.7051,-756.8 1679.7051,-792.8"/>
<text text-anchor="middle" x="1454.1131" y="-770.6" font-family="Times,serif" font-size="14.00" fill="#000000">AndroidBindingModule_BindContactsActivity.bindAndroidInjectorFactory()</text>
</g>
<!-- 6dc912e5&#45;8368&#45;4d7c&#45;a4aa&#45;9a7f64e3ecc2&#45;&gt;822759f6&#45;e71d&#45;4ab2&#45;be49&#45;077320212d5b -->
<g id="edge24" class="edge">
<title>6dc912e5&#45;8368&#45;4d7c&#45;a4aa&#45;9a7f64e3ecc2&#45;&gt;822759f6&#45;e71d&#45;4ab2&#45;be49&#45;077320212d5b</title>
<path fill="none" stroke="#000000" d="M934.9896,-615.8148C936.6186,-617.0853 938.2089,-618.4129 939.757,-619.8 986.1361,-661.3543 914.9852,-754.8 977.257,-754.8 977.257,-754.8 977.257,-754.8 1158.4296,-754.8 1180.9395,-754.8 1204.3914,-755.3841 1227.8059,-756.3527"/>
<polygon fill="#000000" stroke="#000000" points="1227.6923,-759.851 1237.8356,-756.7908 1227.9979,-752.8577 1227.6923,-759.851"/>
</g>
<!-- a901c1ef&#45;450b&#45;4287&#45;aff7&#45;159ae854af11 -->
<g id="node26" class="node">
<title>a901c1ef&#45;450b&#45;4287&#45;aff7&#45;159ae854af11</title>
<polygon fill="#40e0d0" stroke="#40e0d0" points="1686.9597,-846.8 1221.2665,-846.8 1221.2665,-810.8 1686.9597,-810.8 1686.9597,-846.8"/>
<text text-anchor="middle" x="1454.1131" y="-824.6" font-family="Times,serif" font-size="14.00" fill="#000000">AndroidBindingModule_BindLogViewerActivity.bindAndroidInjectorFactory()</text>
</g>
<!-- 6dc912e5&#45;8368&#45;4d7c&#45;a4aa&#45;9a7f64e3ecc2&#45;&gt;a901c1ef&#45;450b&#45;4287&#45;aff7&#45;159ae854af11 -->
<g id="edge30" class="edge">
<title>6dc912e5&#45;8368&#45;4d7c&#45;a4aa&#45;9a7f64e3ecc2&#45;&gt;a901c1ef&#45;450b&#45;4287&#45;aff7&#45;159ae854af11</title>
<path fill="none" stroke="#000000" d="M935.5365,-615.8779C936.9813,-617.1316 938.3891,-618.4383 939.757,-619.8 970.1032,-650.0085 934.4383,-808.8 977.257,-808.8 977.257,-808.8 977.257,-808.8 1158.4296,-808.8 1180.9395,-808.8 1204.3914,-809.3841 1227.8059,-810.3527"/>
<polygon fill="#000000" stroke="#000000" points="1227.6923,-813.851 1237.8356,-810.7908 1227.9979,-806.8577 1227.6923,-813.851"/>
</g>
</g>
</svg>
