<svg width="430px" height="169px"
 viewBox="0.00 0.00 430.04 168.60" xmlns="http://www.w3.org/2000/svg" xmlns:xlink="http://www.w3.org/1999/xlink">
<g id="graph0" class="graph" transform="scale(1.0 1.0) rotate(0) translate(14.4 154.2)">
<title>org.owntracks.android.services.BackgroundServiceModule</title>
<polygon fill="#ffffff" stroke="transparent" points="-14.4,14.4 -14.4,-154.2 415.6448,-154.2 415.6448,14.4 -14.4,14.4"/>
<text text-anchor="middle" x="84.9769" y="-8.2" font-family="Times,serif" font-size="14.00" fill="#000000">BackgroundServiceModule</text>
<g id="clust2" class="cluster">
<title>cluster_Dependency Graph</title>
<polygon fill="none" stroke="#000000" points="8,-32.8 8,-131.8 393.2448,-131.8 393.2448,-32.8 8,-32.8"/>
<text text-anchor="middle" x="70.2234" y="-115.2" font-family="Times,serif" font-size="14.00" fill="#000000">Dependency Graph</text>
</g>
<!-- d9e1b5d7&#45;aad8&#45;4d07&#45;973f&#45;edbbb06a8f82 -->
<g id="node1" class="node">
<title>d9e1b5d7&#45;aad8&#45;4d07&#45;973f&#45;edbbb06a8f82</title>
<polygon fill="#7fffd4" stroke="#7fffd4" points="131.3041,-99.2014 15.8985,-99.2014 15.8985,-40.3986 131.3041,-40.3986 131.3041,-99.2014"/>
<text text-anchor="middle" x="73.6013" y="-82.4" font-family="Times,serif" font-size="14.00" fill="#000000">@ServiceContext</text>
<text text-anchor="middle" x="73.6013" y="-65.6" font-family="Times,serif" font-size="14.00" fill="#000000">@PerService</text>
<text text-anchor="middle" x="73.6013" y="-48.8" font-family="Times,serif" font-size="14.00" fill="#000000">Context</text>
</g>
<!-- e9dd22c6&#45;d9f5&#45;4493&#45;8d04&#45;1db55e6670e2 -->
<g id="node2" class="node">
<title>e9dd22c6&#45;d9f5&#45;4493&#45;8d04&#45;1db55e6670e2</title>
<polygon fill="#ff3030" stroke="#ff3030" points="385.2238,-87.8 257.3078,-87.8 257.3078,-51.8 385.2238,-51.8 385.2238,-87.8"/>
<text text-anchor="middle" x="321.2658" y="-65.6" font-family="Times,serif" font-size="14.00" fill="#000000">android.app.Service</text>
</g>
<!-- d9e1b5d7&#45;aad8&#45;4d07&#45;973f&#45;edbbb06a8f82&#45;&gt;e9dd22c6&#45;d9f5&#45;4493&#45;8d04&#45;1db55e6670e2 -->
<g id="edge1" class="edge">
<title>d9e1b5d7&#45;aad8&#45;4d07&#45;973f&#45;edbbb06a8f82&#45;&gt;e9dd22c6&#45;d9f5&#45;4493&#45;8d04&#45;1db55e6670e2</title>
<path fill="none" stroke="#000000" stroke-dasharray="5,2" d="M131.3551,-69.8C165.7165,-69.8 209.6777,-69.8 246.6487,-69.8"/>
<polygon fill="#000000" stroke="#000000" points="246.8774,-73.3001 256.8773,-69.8 246.8773,-66.3001 246.8774,-73.3001"/>
<text text-anchor="middle" x="194.2447" y="-74" font-family="Times,serif" font-size="14.00" fill="#000000">delegates</text>
<text text-anchor="middle" x="211.1792" y="-57.2" font-family="Times,serif" font-size="14.00" fill="#000000">Missing binding</text>
</g>
</g>
</svg>
