<svg width="2132px" height="450px"
 viewBox="0.00 0.00 2131.89 449.60" xmlns="http://www.w3.org/2000/svg" xmlns:xlink="http://www.w3.org/1999/xlink">
<g id="graph0" class="graph" transform="scale(1.0 1.0) rotate(0) translate(14.4 435.2)">
<title>org.owntracks.android.injection.modules.AndroidBindingModule_BindEditorActivity</title>
<polygon fill="#ffffff" stroke="transparent" points="-14.4,14.4 -14.4,-435.2 2117.4898,-435.2 2117.4898,14.4 -14.4,14.4"/>
<text text-anchor="middle" x="133.2153" y="-8.2" font-family="Times,serif" font-size="14.00" fill="#000000">AndroidBindingModule_BindEditorActivity</text>
<g id="clust2" class="cluster">
<title>cluster_Dependency Graph</title>
<polygon fill="none" stroke="#000000" points="8,-32.8 8,-412.8 1542.6332,-412.8 1542.6332,-32.8 8,-32.8"/>
<text text-anchor="middle" x="70.2234" y="-396.2" font-family="Times,serif" font-size="14.00" fill="#000000">Dependency Graph</text>
</g>
<g id="clust3" class="cluster">
<title>cluster_Map&lt;Class&lt;?&gt;, AndroidInjector.Factory&lt;?&gt;&gt;</title>
<path fill="none" stroke="#000000" d="M171.0404,-302.8C171.0404,-302.8 1177.415,-302.8 1177.415,-302.8 1183.415,-302.8 1189.415,-308.8 1189.415,-314.8 1189.415,-314.8 1189.415,-367.8 1189.415,-367.8 1189.415,-373.8 1183.415,-379.8 1177.415,-379.8 1177.415,-379.8 171.0404,-379.8 171.0404,-379.8 165.0404,-379.8 159.0404,-373.8 159.0404,-367.8 159.0404,-367.8 159.0404,-314.8 159.0404,-314.8 159.0404,-308.8 165.0404,-302.8 171.0404,-302.8"/>
<text text-anchor="middle" x="674.2277" y="-363.2" font-family="Times,serif" font-size="14.00" fill="#000000">Map&lt;Class&lt;?&gt;, AndroidInjector.Factory&lt;?&gt;&gt;</text>
</g>
<g id="clust4" class="cluster">
<title>cluster_Subcomponents</title>
<polygon fill="none" stroke="#000000" points="1644.2882,-299.8 1644.2882,-382.8 2095.0898,-382.8 2095.0898,-299.8 1644.2882,-299.8"/>
<text text-anchor="middle" x="1697.007" y="-366.2" font-family="Times,serif" font-size="14.00" fill="#000000">Subcomponents</text>
</g>
<!-- c4e87d6e&#45;5ee2&#45;4608&#45;85b2&#45;7cc1a858cf6c -->
<g id="node1" class="node">
<title>c4e87d6e&#45;5ee2&#45;4608&#45;85b2&#45;7cc1a858cf6c</title>
<polygon fill="#40e0d0" stroke="#40e0d0" points="1181.4624,-346.8 744.2728,-346.8 744.2728,-310.8 1181.4624,-310.8 1181.4624,-346.8"/>
<text text-anchor="middle" x="962.8676" y="-324.6" font-family="Times,serif" font-size="14.00" fill="#000000">AndroidBindingModule_BindEditorActivity.bindAndroidInjectorFactory()</text>
</g>
<!-- 7873f219&#45;bc95&#45;4696&#45;ab5a&#45;6a56dabaf253 -->
<g id="node2" class="node">
<title>7873f219&#45;bc95&#45;4696&#45;ab5a&#45;6a56dabaf253</title>
<polygon fill="#40e0d0" stroke="#40e0d0" points="1534.7002,-357.4014 1307.4322,-357.4014 1307.4322,-300.1986 1534.7002,-300.1986 1534.7002,-357.4014"/>
<text text-anchor="middle" x="1421.0662" y="-341" font-family="Times,serif" font-size="14.00" fill="#000000">EditorActivitySubcomponent.Factory</text>
<text text-anchor="middle" x="1421.0662" y="-308.2" font-family="Times,serif" font-size="14.00" fill="#000000">Subcomponent Creator</text>
</g>
<!-- c4e87d6e&#45;5ee2&#45;4608&#45;85b2&#45;7cc1a858cf6c&#45;&gt;7873f219&#45;bc95&#45;4696&#45;ab5a&#45;6a56dabaf253 -->
<g id="edge2" class="edge">
<title>c4e87d6e&#45;5ee2&#45;4608&#45;85b2&#45;7cc1a858cf6c&#45;&gt;7873f219&#45;bc95&#45;4696&#45;ab5a&#45;6a56dabaf253</title>
<path fill="none" stroke="#000000" stroke-dasharray="1,5" d="M1181.5666,-328.8C1221.1813,-328.8 1261.2115,-328.8 1296.9062,-328.8"/>
<polygon fill="#000000" stroke="#000000" points="1297.3455,-332.3001 1307.3455,-328.8 1297.3455,-325.3001 1297.3455,-332.3001"/>
<text text-anchor="middle" x="1244.4571" y="-333" font-family="Times,serif" font-size="14.00" fill="#000000">delegates</text>
</g>
<!-- 2fab6c86&#45;de8e&#45;4638&#45;b26f&#45;fab9aa4d55bd -->
<g id="node9" class="node">
<title>2fab6c86&#45;de8e&#45;4638&#45;b26f&#45;fab9aa4d55bd</title>
<g id="a_node9"><a xlink:href="full_org.owntracks.android.injection.modules.AndroidBindingModule_BindEditorActivity.EditorActivitySubcomponent.svg" xlink:title="@PerActivity\nAndroidBindingModule_BindEditorActivity.EditorActivitySubcomponent">
<polygon fill="#7fffd4" stroke="#7fffd4" points="2086.9906,-349.4019 1652.3874,-349.4019 1652.3874,-308.1981 2086.9906,-308.1981 2086.9906,-349.4019"/>
<text text-anchor="middle" x="1869.689" y="-333" font-family="Times,serif" font-size="14.00" fill="#000000">@PerActivity</text>
<text text-anchor="middle" x="1869.689" y="-316.2" font-family="Times,serif" font-size="14.00" fill="#000000">AndroidBindingModule_BindEditorActivity.EditorActivitySubcomponent</text>
</a>
</g>
</g>
<!-- 7873f219&#45;bc95&#45;4696&#45;ab5a&#45;6a56dabaf253&#45;&gt;2fab6c86&#45;de8e&#45;4638&#45;b26f&#45;fab9aa4d55bd -->
<g id="edge3" class="edge">
<title>7873f219&#45;bc95&#45;4696&#45;ab5a&#45;6a56dabaf253&#45;&gt;2fab6c86&#45;de8e&#45;4638&#45;b26f&#45;fab9aa4d55bd:w</title>
<path fill="none" stroke="#000000" stroke-dasharray="5,2" d="M1534.7527,-328.8C1568.9284,-328.8 1606.778,-328.8 1642.2573,-328.8"/>
<polygon fill="#000000" stroke="#000000" points="1642.689,-332.3001 1652.689,-328.8 1642.689,-325.3001 1642.689,-332.3001"/>
<text text-anchor="middle" x="1593.4607" y="-333" font-family="Times,serif" font-size="14.00" fill="#000000">subcomponent</text>
</g>
<!-- 8dd767f1&#45;32e8&#45;4597&#45;8916&#45;bbf51494b92f -->
<g id="node3" class="node">
<title>8dd767f1&#45;32e8&#45;4597&#45;8916&#45;bbf51494b92f</title>
<polygon fill="#ff3030" stroke="#ff3030" points="409.6651,-292.8 199.6551,-292.8 199.6551,-256.8 409.6651,-256.8 409.6651,-292.8"/>
<text text-anchor="middle" x="304.6601" y="-270.6" font-family="Times,serif" font-size="14.00" fill="#000000">org.greenrobot.eventbus.EventBus</text>
</g>
<!-- 41d7812b&#45;3fd2&#45;4734&#45;a516&#45;8b08730d9020 -->
<g id="node4" class="node">
<title>41d7812b&#45;3fd2&#45;4734&#45;a516&#45;8b08730d9020</title>
<polygon fill="#ff3030" stroke="#ff3030" points="452.9641,-238.8 156.3561,-238.8 156.3561,-202.8 452.9641,-202.8 452.9641,-238.8"/>
<text text-anchor="middle" x="304.6601" y="-216.6" font-family="Times,serif" font-size="14.00" fill="#000000">org.owntracks.android.data.repos.WaypointsRepo</text>
</g>
<!-- 7b0ba004&#45;1889&#45;4f43&#45;bd2f&#45;af3067268049 -->
<g id="node5" class="node">
<title>7b0ba004&#45;1889&#45;4f43&#45;bd2f&#45;af3067268049</title>
<polygon fill="#ff3030" stroke="#ff3030" points="593.4804,-184.8 15.8398,-184.8 15.8398,-148.8 593.4804,-148.8 593.4804,-184.8"/>
<text text-anchor="middle" x="304.6601" y="-162.6" font-family="Times,serif" font-size="14.00" fill="#000000">java.util.Map&lt;java.lang.String,javax.inject.Provider&lt;dagger.android.AndroidInjector.Factory&lt;?&gt;&gt;&gt;</text>
</g>
<!-- 12e861c0&#45;fb01&#45;40fa&#45;b200&#45;0c3d4d1f1f47 -->
<g id="node6" class="node">
<title>12e861c0&#45;fb01&#45;40fa&#45;b200&#45;0c3d4d1f1f47</title>
<polygon fill="#ff3030" stroke="#ff3030" points="539.1721,-130.8 70.1481,-130.8 70.1481,-94.8 539.1721,-94.8 539.1721,-130.8"/>
<text text-anchor="middle" x="304.6601" y="-108.6" font-family="Times,serif" font-size="14.00" fill="#000000">@org.owntracks.android.injection.qualifier.AppContext android.content.Context</text>
</g>
<!-- 743fbd09&#45;5f47&#45;4e66&#45;b8d1&#45;3ad68467cd9e -->
<g id="node7" class="node">
<title>743fbd09&#45;5f47&#45;4e66&#45;b8d1&#45;3ad68467cd9e</title>
<polygon fill="#ff3030" stroke="#ff3030" points="481.4438,-76.8 127.8764,-76.8 127.8764,-40.8 481.4438,-40.8 481.4438,-76.8"/>
<text text-anchor="middle" x="304.6601" y="-54.6" font-family="Times,serif" font-size="14.00" fill="#000000">org.owntracks.android.support.preferences.PreferencesStore</text>
</g>
<!-- 1a8e1fef&#45;c9c4&#45;4bb6&#45;b2e2&#45;3ce31c732764 -->
<g id="node8" class="node">
<title>1a8e1fef&#45;c9c4&#45;4bb6&#45;b2e2&#45;3ce31c732764</title>
<polygon fill="#40e0d0" stroke="#40e0d0" points="442.3996,-346.8 178.9206,-346.8 178.9206,-350.8 166.9206,-350.8 166.9206,-310.8 442.3996,-310.8 442.3996,-346.8"/>
<polyline fill="none" stroke="#40e0d0" points="166.9206,-346.8 178.9206,-346.8 "/>
<text text-anchor="middle" x="304.6601" y="-324.6" font-family="Times,serif" font-size="14.00" fill="#000000">Map&lt;Class&lt;?&gt;, AndroidInjector.Factory&lt;?&gt;&gt;</text>
</g>
<!-- 1a8e1fef&#45;c9c4&#45;4bb6&#45;b2e2&#45;3ce31c732764&#45;&gt;c4e87d6e&#45;5ee2&#45;4608&#45;85b2&#45;7cc1a858cf6c -->
<g id="edge1" class="edge">
<title>1a8e1fef&#45;c9c4&#45;4bb6&#45;b2e2&#45;3ce31c732764&#45;&gt;c4e87d6e&#45;5ee2&#45;4608&#45;85b2&#45;7cc1a858cf6c</title>
<path fill="none" stroke="#000000" d="M442.3313,-328.8C500.4944,-328.8 568.9574,-328.8 630.8202,-328.8 630.8202,-328.8 630.8202,-328.8 706.8202,-328.8 715.7976,-328.8 724.952,-328.8 734.1996,-328.8"/>
<polygon fill="#000000" stroke="#000000" points="734.267,-332.3001 744.2669,-328.8 734.2669,-325.3001 734.267,-332.3001"/>
</g>
</g>
</svg>
