<svg width="2144px" height="287px"
 viewBox="0.00 0.00 2143.53 286.60" xmlns="http://www.w3.org/2000/svg" xmlns:xlink="http://www.w3.org/1999/xlink">
<g id="graph0" class="graph" transform="scale(1.0 1.0) rotate(0) translate(14.4 272.2)">
<title>org.owntracks.android.ui.preferences.load.LoadActivityModule</title>
<polygon fill="#ffffff" stroke="transparent" points="-14.4,14.4 -14.4,-272.2 2129.1268,-272.2 2129.1268,14.4 -14.4,14.4"/>
<text text-anchor="middle" x="67.1003" y="-8.2" font-family="Times,serif" font-size="14.00" fill="#000000">LoadActivityModule</text>
<g id="clust2" class="cluster">
<title>cluster_Dependency Graph</title>
<polygon fill="none" stroke="#000000" points="8,-32.8 8,-249.8 2106.7268,-249.8 2106.7268,-32.8 8,-32.8"/>
<text text-anchor="middle" x="70.2234" y="-233.2" font-family="Times,serif" font-size="14.00" fill="#000000">Dependency Graph</text>
</g>
<!-- f3432593&#45;dde7&#45;4ea0&#45;b630&#45;1cdca579e657 -->
<g id="node1" class="node">
<title>f3432593&#45;dde7&#45;4ea0&#45;b630&#45;1cdca579e657</title>
<polygon fill="#7fffd4" stroke="#7fffd4" points="1098.6883,-216.4019 968.0423,-216.4019 968.0423,-175.1981 1098.6883,-175.1981 1098.6883,-216.4019"/>
<text text-anchor="middle" x="1033.3653" y="-200" font-family="Times,serif" font-size="14.00" fill="#000000">@PerActivity</text>
<text text-anchor="middle" x="1033.3653" y="-183.2" font-family="Times,serif" font-size="14.00" fill="#000000">AppCompatActivity</text>
</g>
<!-- 034b6cdb&#45;9087&#45;402f&#45;a596&#45;57d8ebc0e214 -->
<g id="node2" class="node">
<title>034b6cdb&#45;9087&#45;402f&#45;a596&#45;57d8ebc0e214</title>
<polygon fill="#ff3030" stroke="#ff3030" points="1554.7668,-213.8 1224.5588,-213.8 1224.5588,-177.8 1554.7668,-177.8 1554.7668,-213.8"/>
<text text-anchor="middle" x="1389.6628" y="-191.6" font-family="Times,serif" font-size="14.00" fill="#000000">org.owntracks.android.ui.preferences.load.LoadActivity</text>
</g>
<!-- f3432593&#45;dde7&#45;4ea0&#45;b630&#45;1cdca579e657&#45;&gt;034b6cdb&#45;9087&#45;402f&#45;a596&#45;57d8ebc0e214 -->
<g id="edge2" class="edge">
<title>f3432593&#45;dde7&#45;4ea0&#45;b630&#45;1cdca579e657&#45;&gt;034b6cdb&#45;9087&#45;402f&#45;a596&#45;57d8ebc0e214</title>
<path fill="none" stroke="#000000" stroke-dasharray="5,2" d="M1098.7158,-195.8C1131.4734,-195.8 1172.8749,-195.8 1214.0924,-195.8"/>
<polygon fill="#000000" stroke="#000000" points="1214.2792,-199.3001 1224.2791,-195.8 1214.2791,-192.3001 1214.2792,-199.3001"/>
<text text-anchor="middle" x="1161.5687" y="-200" font-family="Times,serif" font-size="14.00" fill="#000000">delegates</text>
<text text-anchor="middle" x="1178.581" y="-183.2" font-family="Times,serif" font-size="14.00" fill="#000000">Missing binding</text>
</g>
<!-- 6fedeb5e&#45;6e40&#45;4cdc&#45;9bfc&#45;5e357411b074 -->
<g id="node3" class="node">
<title>6fedeb5e&#45;6e40&#45;4cdc&#45;9bfc&#45;5e357411b074</title>
<polygon fill="#40e0d0" stroke="#40e0d0" points="284.271,-127.8 15.9096,-127.8 15.9096,-91.8 284.271,-91.8 284.271,-127.8"/>
<text text-anchor="middle" x="150.0903" y="-105.6" font-family="Times,serif" font-size="14.00" fill="#000000">LoadMvvm.ViewModel&lt;LoadMvvm.View&gt;</text>
</g>
<!-- 233c61b7&#45;6699&#45;4309&#45;99e8&#45;2a7cc59de111 -->
<g id="node4" class="node">
<title>233c61b7&#45;6699&#45;4309&#45;99e8&#45;2a7cc59de111</title>
<polygon fill="#7fffd4" stroke="#7fffd4" points="521.7185,-130.4019 410.4465,-130.4019 410.4465,-89.1981 521.7185,-89.1981 521.7185,-130.4019"/>
<text text-anchor="middle" x="466.0825" y="-114" font-family="Times,serif" font-size="14.00" fill="#000000">@PerActivity</text>
<text text-anchor="middle" x="466.0825" y="-97.2" font-family="Times,serif" font-size="14.00" fill="#000000">LoadViewModel</text>
</g>
<!-- 6fedeb5e&#45;6e40&#45;4cdc&#45;9bfc&#45;5e357411b074&#45;&gt;233c61b7&#45;6699&#45;4309&#45;99e8&#45;2a7cc59de111 -->
<g id="edge3" class="edge">
<title>6fedeb5e&#45;6e40&#45;4cdc&#45;9bfc&#45;5e357411b074&#45;&gt;233c61b7&#45;6699&#45;4309&#45;99e8&#45;2a7cc59de111</title>
<path fill="none" stroke="#000000" stroke-dasharray="1,5" d="M284.5576,-109.8C324.5943,-109.8 366.6929,-109.8 400.2575,-109.8"/>
<polygon fill="#000000" stroke="#000000" points="400.3884,-113.3001 410.3884,-109.8 400.3884,-106.3001 400.3884,-113.3001"/>
<text text-anchor="middle" x="347.2227" y="-114" font-family="Times,serif" font-size="14.00" fill="#000000">delegates</text>
</g>
<!-- 5c709983&#45;b430&#45;4fd8&#45;99d2&#45;26a08567f74c -->
<g id="node5" class="node">
<title>5c709983&#45;b430&#45;4fd8&#45;99d2&#45;26a08567f74c</title>
<polygon fill="#ffe4c4" stroke="#ffe4c4" points="1430.7256,-102.4019 1348.6,-102.4019 1348.6,-61.1981 1430.7256,-61.1981 1430.7256,-102.4019"/>
<text text-anchor="middle" x="1389.6628" y="-86" font-family="Times,serif" font-size="14.00" fill="#000000">@Singleton</text>
<text text-anchor="middle" x="1389.6628" y="-69.2" font-family="Times,serif" font-size="14.00" fill="#000000">Preferences</text>
</g>
<!-- 233c61b7&#45;6699&#45;4309&#45;99e8&#45;2a7cc59de111&#45;&gt;5c709983&#45;b430&#45;4fd8&#45;99d2&#45;26a08567f74c -->
<g id="edge7" class="edge">
<title>233c61b7&#45;6699&#45;4309&#45;99e8&#45;2a7cc59de111&#45;&gt;5c709983&#45;b430&#45;4fd8&#45;99d2&#45;26a08567f74c</title>
<path fill="none" stroke="#000000" d="M481.4526,-89.0283C498.1825,-69.0307 526.9256,-41.8 559.4002,-41.8 559.4002,-41.8 559.4002,-41.8 1161.5687,-41.8 1223.1832,-41.8 1292.7718,-56.1354 1338.7053,-67.6423"/>
<polygon fill="#000000" stroke="#000000" points="1337.8669,-71.0404 1348.4219,-70.1228 1339.5984,-64.258 1337.8669,-71.0404"/>
</g>
<!-- b439a65b&#45;e816&#45;4f54&#45;b220&#45;a1262b58367f -->
<g id="node6" class="node">
<title>b439a65b&#45;e816&#45;4f54&#45;b220&#45;a1262b58367f</title>
<polygon fill="#ffe4c4" stroke="#ffe4c4" points="786.1149,-102.4019 703.9893,-102.4019 703.9893,-61.1981 786.1149,-61.1981 786.1149,-102.4019"/>
<text text-anchor="middle" x="745.0521" y="-86" font-family="Times,serif" font-size="14.00" fill="#000000">@Singleton</text>
<text text-anchor="middle" x="745.0521" y="-69.2" font-family="Times,serif" font-size="14.00" fill="#000000">Parser</text>
</g>
<!-- 233c61b7&#45;6699&#45;4309&#45;99e8&#45;2a7cc59de111&#45;&gt;b439a65b&#45;e816&#45;4f54&#45;b220&#45;a1262b58367f -->
<g id="edge6" class="edge">
<title>233c61b7&#45;6699&#45;4309&#45;99e8&#45;2a7cc59de111&#45;&gt;b439a65b&#45;e816&#45;4f54&#45;b220&#45;a1262b58367f</title>
<path fill="none" stroke="#000000" d="M521.8657,-104.2011C572.0404,-99.1651 645.1448,-91.8276 693.8562,-86.9385"/>
<polygon fill="#000000" stroke="#000000" points="694.263,-90.4154 703.8634,-85.9341 693.5638,-83.4503 694.263,-90.4154"/>
</g>
<!-- 7d85031a&#45;b87e&#45;4def&#45;a7fd&#45;33e79a522a2a -->
<g id="node7" class="node">
<title>7d85031a&#45;b87e&#45;4def&#45;a7fd&#45;33e79a522a2a</title>
<polygon fill="#ff3030" stroke="#ff3030" points="893.3561,-156.8 596.7481,-156.8 596.7481,-120.8 893.3561,-120.8 893.3561,-156.8"/>
<text text-anchor="middle" x="745.0521" y="-134.6" font-family="Times,serif" font-size="14.00" fill="#000000">org.owntracks.android.data.repos.WaypointsRepo</text>
</g>
<!-- 233c61b7&#45;6699&#45;4309&#45;99e8&#45;2a7cc59de111&#45;&gt;7d85031a&#45;b87e&#45;4def&#45;a7fd&#45;33e79a522a2a -->
<g id="edge4" class="edge">
<title>233c61b7&#45;6699&#45;4309&#45;99e8&#45;2a7cc59de111&#45;&gt;7d85031a&#45;b87e&#45;4def&#45;a7fd&#45;33e79a522a2a</title>
<path fill="none" stroke="#000000" stroke-dasharray="5,2" d="M521.8657,-115.5989C541.0655,-117.5948 563.6229,-119.9397 586.8862,-122.358"/>
<polygon fill="#000000" stroke="#000000" points="586.5834,-125.8453 596.8917,-123.3981 587.3072,-118.8828 586.5834,-125.8453"/>
<text text-anchor="middle" x="551.1936" y="-127.5981" font-family="Times,serif" font-size="14.00" fill="#000000">Missing binding</text>
</g>
<!-- 9b5c9944&#45;72fd&#45;4e64&#45;b383&#45;0ee73e00bd02 -->
<g id="node8" class="node">
<title>9b5c9944&#45;72fd&#45;4e64&#45;b383&#45;0ee73e00bd02</title>
<polygon fill="#7fffd4" stroke="#7fffd4" points="791.9871,-216.4019 698.1171,-216.4019 698.1171,-175.1981 791.9871,-175.1981 791.9871,-216.4019"/>
<text text-anchor="middle" x="745.0521" y="-200" font-family="Times,serif" font-size="14.00" fill="#000000">@PerActivity</text>
<text text-anchor="middle" x="745.0521" y="-183.2" font-family="Times,serif" font-size="14.00" fill="#000000">Navigator</text>
</g>
<!-- 233c61b7&#45;6699&#45;4309&#45;99e8&#45;2a7cc59de111&#45;&gt;9b5c9944&#45;72fd&#45;4e64&#45;b383&#45;0ee73e00bd02 -->
<g id="edge5" class="edge">
<title>233c61b7&#45;6699&#45;4309&#45;99e8&#45;2a7cc59de111&#45;&gt;9b5c9944&#45;72fd&#45;4e64&#45;b383&#45;0ee73e00bd02</title>
<path fill="none" stroke="#000000" d="M508.2607,-130.4704C533.4948,-142.1715 566.4745,-156.3171 596.9002,-165.8 626.4661,-175.015 660.2551,-182.1091 688.0913,-187.0795"/>
<polygon fill="#000000" stroke="#000000" points="687.6065,-190.5476 698.0586,-188.8146 688.8071,-183.6514 687.6065,-190.5476"/>
</g>
<!-- 17f428aa&#45;af41&#45;49f0&#45;b30a&#45;5790d15075d1 -->
<g id="node9" class="node">
<title>17f428aa&#45;af41&#45;49f0&#45;b30a&#45;5790d15075d1</title>
<polygon fill="#ff3030" stroke="#ff3030" points="2098.7328,-76.8 1629.7088,-76.8 1629.7088,-40.8 2098.7328,-40.8 2098.7328,-76.8"/>
<text text-anchor="middle" x="1864.2208" y="-54.6" font-family="Times,serif" font-size="14.00" fill="#000000">@org.owntracks.android.injection.qualifier.AppContext android.content.Context</text>
</g>
<!-- 5c709983&#45;b430&#45;4fd8&#45;99d2&#45;26a08567f74c&#45;&gt;17f428aa&#45;af41&#45;49f0&#45;b30a&#45;5790d15075d1 -->
<g id="edge11" class="edge">
<title>5c709983&#45;b430&#45;4fd8&#45;99d2&#45;26a08567f74c&#45;&gt;17f428aa&#45;af41&#45;49f0&#45;b30a&#45;5790d15075d1</title>
<path fill="none" stroke="#000000" stroke-dasharray="5,2" d="M1430.9465,-79.7991C1474.344,-77.6958 1546.3314,-74.2069 1619.2849,-70.6711"/>
<polygon fill="#000000" stroke="#000000" points="1619.7637,-74.1521 1629.5825,-70.172 1619.4248,-67.1603 1619.7637,-74.1521"/>
<text text-anchor="middle" x="1583.8844" y="-57.572" font-family="Times,serif" font-size="14.00" fill="#000000">Missing binding</text>
</g>
<!-- 417abe90&#45;6146&#45;4cd9&#45;8eea&#45;f2876317a375 -->
<g id="node10" class="node">
<title>417abe90&#45;6146&#45;4cd9&#45;8eea&#45;f2876317a375</title>
<polygon fill="#ff3030" stroke="#ff3030" points="1969.2258,-130.8 1759.2158,-130.8 1759.2158,-94.8 1969.2258,-94.8 1969.2258,-130.8"/>
<text text-anchor="middle" x="1864.2208" y="-108.6" font-family="Times,serif" font-size="14.00" fill="#000000">org.greenrobot.eventbus.EventBus</text>
</g>
<!-- 5c709983&#45;b430&#45;4fd8&#45;99d2&#45;26a08567f74c&#45;&gt;417abe90&#45;6146&#45;4cd9&#45;8eea&#45;f2876317a375 -->
<g id="edge9" class="edge">
<title>5c709983&#45;b430&#45;4fd8&#45;99d2&#45;26a08567f74c&#45;&gt;417abe90&#45;6146&#45;4cd9&#45;8eea&#45;f2876317a375</title>
<path fill="none" stroke="#000000" stroke-dasharray="5,2" d="M1430.9465,-84.4968C1501.1091,-89.0801 1646.0015,-98.5451 1748.8876,-105.266"/>
<polygon fill="#000000" stroke="#000000" points="1748.8149,-108.7686 1759.0218,-105.928 1749.2712,-101.7835 1748.8149,-108.7686"/>
<text text-anchor="middle" x="1713.3237" y="-93.328" font-family="Times,serif" font-size="14.00" fill="#000000">Missing binding</text>
</g>
<!-- 5fabb8a1&#45;644b&#45;4d9e&#45;92c5&#45;4b1657d91289 -->
<g id="node11" class="node">
<title>5fabb8a1&#45;644b&#45;4d9e&#45;92c5&#45;4b1657d91289</title>
<polygon fill="#ff3030" stroke="#ff3030" points="2041.0045,-184.8 1687.4371,-184.8 1687.4371,-148.8 2041.0045,-148.8 2041.0045,-184.8"/>
<text text-anchor="middle" x="1864.2208" y="-162.6" font-family="Times,serif" font-size="14.00" fill="#000000">org.owntracks.android.support.preferences.PreferencesStore</text>
</g>
<!-- 5c709983&#45;b430&#45;4fd8&#45;99d2&#45;26a08567f74c&#45;&gt;5fabb8a1&#45;644b&#45;4d9e&#45;92c5&#45;4b1657d91289 -->
<g id="edge10" class="edge">
<title>5c709983&#45;b430&#45;4fd8&#45;99d2&#45;26a08567f74c&#45;&gt;5fabb8a1&#45;644b&#45;4d9e&#45;92c5&#45;4b1657d91289</title>
<path fill="none" stroke="#000000" stroke-dasharray="5,2" d="M1430.9689,-93.4143C1478.5428,-106.4083 1559.2179,-127.2737 1629.7148,-139.8 1645.0855,-142.5312 1661.0744,-145.0474 1677.1571,-147.3521"/>
<polygon fill="#000000" stroke="#000000" points="1676.7886,-150.8346 1687.1782,-148.7598 1677.7624,-143.9027 1676.7886,-150.8346"/>
<text text-anchor="middle" x="1641.4801" y="-136.1598" font-family="Times,serif" font-size="14.00" fill="#000000">Missing binding</text>
</g>
<!-- b0b092bb&#45;dbd2&#45;4d7f&#45;bdf7&#45;027f7c0ffd29 -->
<g id="node12" class="node">
<title>b0b092bb&#45;dbd2&#45;4d7f&#45;bdf7&#45;027f7c0ffd29</title>
<polygon fill="#ffe4c4" stroke="#ffe4c4" points="1096.784,-102.4019 969.9466,-102.4019 969.9466,-61.1981 1096.784,-61.1981 1096.784,-102.4019"/>
<text text-anchor="middle" x="1033.3653" y="-86" font-family="Times,serif" font-size="14.00" fill="#000000">@Singleton</text>
<text text-anchor="middle" x="1033.3653" y="-69.2" font-family="Times,serif" font-size="14.00" fill="#000000">EncryptionProvider</text>
</g>
<!-- b439a65b&#45;e816&#45;4f54&#45;b220&#45;a1262b58367f&#45;&gt;b0b092bb&#45;dbd2&#45;4d7f&#45;bdf7&#45;027f7c0ffd29 -->
<g id="edge12" class="edge">
<title>b439a65b&#45;e816&#45;4f54&#45;b220&#45;a1262b58367f&#45;&gt;b0b092bb&#45;dbd2&#45;4d7f&#45;bdf7&#45;027f7c0ffd29</title>
<path fill="none" stroke="#000000" d="M786.3604,-81.8C831.5809,-81.8 904.9751,-81.8 960.031,-81.8"/>
<polygon fill="#000000" stroke="#000000" points="960.0868,-85.3001 970.0868,-81.8 960.0867,-78.3001 960.0868,-85.3001"/>
</g>
<!-- 9b5c9944&#45;72fd&#45;4e64&#45;b383&#45;0ee73e00bd02&#45;&gt;f3432593&#45;dde7&#45;4ea0&#45;b630&#45;1cdca579e657 -->
<g id="edge1" class="edge">
<title>9b5c9944&#45;72fd&#45;4e64&#45;b383&#45;0ee73e00bd02&#45;&gt;f3432593&#45;dde7&#45;4ea0&#45;b630&#45;1cdca579e657</title>
<path fill="none" stroke="#000000" d="M792.0163,-195.8C836.8938,-195.8 905.2941,-195.8 957.8326,-195.8"/>
<polygon fill="#000000" stroke="#000000" points="958.1171,-199.3001 968.1171,-195.8 958.1171,-192.3001 958.1171,-199.3001"/>
</g>
<!-- b0b092bb&#45;dbd2&#45;4d7f&#45;bdf7&#45;027f7c0ffd29&#45;&gt;5c709983&#45;b430&#45;4fd8&#45;99d2&#45;26a08567f74c -->
<g id="edge8" class="edge">
<title>b0b092bb&#45;dbd2&#45;4d7f&#45;bdf7&#45;027f7c0ffd29&#45;&gt;5c709983&#45;b430&#45;4fd8&#45;99d2&#45;26a08567f74c</title>
<path fill="none" stroke="#000000" d="M1096.6536,-81.8C1165.5102,-81.8 1274.2754,-81.8 1338.1277,-81.8"/>
<polygon fill="#000000" stroke="#000000" points="1338.3595,-85.3001 1348.3594,-81.8 1338.3594,-78.3001 1338.3595,-85.3001"/>
</g>
</g>
</svg>
