<svg width="1916px" height="315px"
 viewBox="0.00 0.00 1915.77 314.60" xmlns="http://www.w3.org/2000/svg" xmlns:xlink="http://www.w3.org/1999/xlink">
<g id="graph0" class="graph" transform="scale(1.0 1.0) rotate(0) translate(14.4 300.2)">
<title>org.owntracks.android.ui.preferences.connection.ConnectionActivityModule</title>
<polygon fill="#ffffff" stroke="transparent" points="-14.4,14.4 -14.4,-300.2 1901.3734,-300.2 1901.3734,14.4 -14.4,14.4"/>
<text text-anchor="middle" x="84.9902" y="-8.2" font-family="Times,serif" font-size="14.00" fill="#000000">ConnectionActivityModule</text>
<g id="clust2" class="cluster">
<title>cluster_Dependency Graph</title>
<polygon fill="none" stroke="#000000" points="8,-32.8 8,-277.8 1878.9734,-277.8 1878.9734,-32.8 8,-32.8"/>
<text text-anchor="middle" x="70.2234" y="-261.2" font-family="Times,serif" font-size="14.00" fill="#000000">Dependency Graph</text>
</g>
<!-- 4fa3570c&#45;6ccd&#45;457a&#45;8b3b&#45;8b84c3f5b1ec -->
<g id="node1" class="node">
<title>4fa3570c&#45;6ccd&#45;457a&#45;8b3b&#45;8b84c3f5b1ec</title>
<polygon fill="#7fffd4" stroke="#7fffd4" points="1172.5026,-244.4019 1041.8566,-244.4019 1041.8566,-203.1981 1172.5026,-203.1981 1172.5026,-244.4019"/>
<text text-anchor="middle" x="1107.1796" y="-228" font-family="Times,serif" font-size="14.00" fill="#000000">@PerActivity</text>
<text text-anchor="middle" x="1107.1796" y="-211.2" font-family="Times,serif" font-size="14.00" fill="#000000">AppCompatActivity</text>
</g>
<!-- 4b7c4887&#45;694f&#45;4353&#45;a3d8&#45;bf686951e7b8 -->
<g id="node2" class="node">
<title>4b7c4887&#45;694f&#45;4353&#45;a3d8&#45;bf686951e7b8</title>
<polygon fill="#ff3030" stroke="#ff3030" points="1871.0753,-241.8 1467.6679,-241.8 1467.6679,-205.8 1871.0753,-205.8 1871.0753,-241.8"/>
<text text-anchor="middle" x="1669.3716" y="-219.6" font-family="Times,serif" font-size="14.00" fill="#000000">org.owntracks.android.ui.preferences.connection.ConnectionActivity</text>
</g>
<!-- 4fa3570c&#45;6ccd&#45;457a&#45;8b3b&#45;8b84c3f5b1ec&#45;&gt;4b7c4887&#45;694f&#45;4353&#45;a3d8&#45;bf686951e7b8 -->
<g id="edge2" class="edge">
<title>4fa3570c&#45;6ccd&#45;457a&#45;8b3b&#45;8b84c3f5b1ec&#45;&gt;4b7c4887&#45;694f&#45;4353&#45;a3d8&#45;bf686951e7b8</title>
<path fill="none" stroke="#000000" stroke-dasharray="5,2" d="M1172.4947,-223.8C1242.1492,-223.8 1356.1486,-223.8 1457.3937,-223.8"/>
<polygon fill="#000000" stroke="#000000" points="1457.4635,-227.3001 1467.4635,-223.8 1457.4635,-220.3001 1457.4635,-227.3001"/>
<text text-anchor="middle" x="1404.7277" y="-228" font-family="Times,serif" font-size="14.00" fill="#000000">delegates</text>
<text text-anchor="middle" x="1421.7654" y="-211.2" font-family="Times,serif" font-size="14.00" fill="#000000">Missing binding</text>
</g>
<!-- b32d33df&#45;14b8&#45;411d&#45;b69f&#45;e60591a40c7b -->
<g id="node3" class="node">
<title>b32d33df&#45;14b8&#45;411d&#45;b69f&#45;e60591a40c7b</title>
<polygon fill="#40e0d0" stroke="#40e0d0" points="355.6104,-184.8 16.1298,-184.8 16.1298,-148.8 355.6104,-148.8 355.6104,-184.8"/>
<text text-anchor="middle" x="185.8701" y="-162.6" font-family="Times,serif" font-size="14.00" fill="#000000">ConnectionMvvm.ViewModel&lt;ConnectionMvvm.View&gt;</text>
</g>
<!-- 171cb39d&#45;abd7&#45;4ccf&#45;9df5&#45;e0c2c6892b4c -->
<g id="node4" class="node">
<title>171cb39d&#45;abd7&#45;4ccf&#45;9df5&#45;e0c2c6892b4c</title>
<polygon fill="#7fffd4" stroke="#7fffd4" points="629.4478,-187.4019 481.6162,-187.4019 481.6162,-146.1981 629.4478,-146.1981 629.4478,-187.4019"/>
<text text-anchor="middle" x="555.532" y="-171" font-family="Times,serif" font-size="14.00" fill="#000000">@PerActivity</text>
<text text-anchor="middle" x="555.532" y="-154.2" font-family="Times,serif" font-size="14.00" fill="#000000">ConnectionViewModel</text>
</g>
<!-- b32d33df&#45;14b8&#45;411d&#45;b69f&#45;e60591a40c7b&#45;&gt;171cb39d&#45;abd7&#45;4ccf&#45;9df5&#45;e0c2c6892b4c -->
<g id="edge3" class="edge">
<title>b32d33df&#45;14b8&#45;411d&#45;b69f&#45;e60591a40c7b&#45;&gt;171cb39d&#45;abd7&#45;4ccf&#45;9df5&#45;e0c2c6892b4c</title>
<path fill="none" stroke="#000000" stroke-dasharray="1,5" d="M355.8242,-166.8C395.8689,-166.8 436.8511,-166.8 471.1864,-166.8"/>
<polygon fill="#000000" stroke="#000000" points="471.6204,-170.3001 481.6203,-166.8 471.6203,-163.3001 471.6204,-170.3001"/>
<text text-anchor="middle" x="418.7823" y="-171" font-family="Times,serif" font-size="14.00" fill="#000000">delegates</text>
</g>
<!-- 9bb3e7a2&#45;0dcc&#45;44e7&#45;a209&#45;30694bd927b9 -->
<g id="node5" class="node">
<title>9bb3e7a2&#45;0dcc&#45;44e7&#45;a209&#45;30694bd927b9</title>
<polygon fill="#ffe4c4" stroke="#ffe4c4" points="792.0194,-141.4019 709.8938,-141.4019 709.8938,-100.1981 792.0194,-100.1981 792.0194,-141.4019"/>
<text text-anchor="middle" x="750.9566" y="-125" font-family="Times,serif" font-size="14.00" fill="#000000">@Singleton</text>
<text text-anchor="middle" x="750.9566" y="-108.2" font-family="Times,serif" font-size="14.00" fill="#000000">Preferences</text>
</g>
<!-- 171cb39d&#45;abd7&#45;4ccf&#45;9df5&#45;e0c2c6892b4c&#45;&gt;9bb3e7a2&#45;0dcc&#45;44e7&#45;a209&#45;30694bd927b9 -->
<g id="edge5" class="edge">
<title>171cb39d&#45;abd7&#45;4ccf&#45;9df5&#45;e0c2c6892b4c&#45;&gt;9bb3e7a2&#45;0dcc&#45;44e7&#45;a209&#45;30694bd927b9</title>
<path fill="none" stroke="#000000" d="M629.4137,-149.4094C652.9278,-143.8745 678.4027,-137.8781 699.9271,-132.8116"/>
<polygon fill="#000000" stroke="#000000" points="700.9008,-136.1781 709.8328,-130.4799 699.2969,-129.3643 700.9008,-136.1781"/>
</g>
<!-- 08bd7727&#45;6145&#45;4409&#45;87e5&#45;d3817ec64db8 -->
<g id="node6" class="node">
<title>08bd7727&#45;6145&#45;4409&#45;87e5&#45;d3817ec64db8</title>
<polygon fill="#ff3030" stroke="#ff3030" points="1341.6916,-184.8 872.6676,-184.8 872.6676,-148.8 1341.6916,-148.8 1341.6916,-184.8"/>
<text text-anchor="middle" x="1107.1796" y="-162.6" font-family="Times,serif" font-size="14.00" fill="#000000">@org.owntracks.android.injection.qualifier.AppContext android.content.Context</text>
</g>
<!-- 171cb39d&#45;abd7&#45;4ccf&#45;9df5&#45;e0c2c6892b4c&#45;&gt;08bd7727&#45;6145&#45;4409&#45;87e5&#45;d3817ec64db8 -->
<g id="edge4" class="edge">
<title>171cb39d&#45;abd7&#45;4ccf&#45;9df5&#45;e0c2c6892b4c&#45;&gt;08bd7727&#45;6145&#45;4409&#45;87e5&#45;d3817ec64db8</title>
<path fill="none" stroke="#000000" stroke-dasharray="5,2" d="M629.4086,-166.8C641.8695,-166.8 654.6728,-166.8 666.7396,-166.8 666.7396,-166.8 666.7396,-166.8 835.1736,-166.8 844.1036,-166.8 853.1985,-166.8 862.3852,-166.8"/>
<polygon fill="#000000" stroke="#000000" points="862.3864,-170.3001 872.3864,-166.8 862.3863,-163.3001 862.3864,-170.3001"/>
<text text-anchor="middle" x="826.6883" y="-154.2" font-family="Times,serif" font-size="14.00" fill="#000000">Missing binding</text>
</g>
<!-- a341f6c1&#45;6aea&#45;4546&#45;839c&#45;b3c4a7b3201e -->
<g id="node7" class="node">
<title>a341f6c1&#45;6aea&#45;4546&#45;839c&#45;b3c4a7b3201e</title>
<polygon fill="#7fffd4" stroke="#7fffd4" points="797.8916,-235.4019 704.0216,-235.4019 704.0216,-194.1981 797.8916,-194.1981 797.8916,-235.4019"/>
<text text-anchor="middle" x="750.9566" y="-219" font-family="Times,serif" font-size="14.00" fill="#000000">@PerActivity</text>
<text text-anchor="middle" x="750.9566" y="-202.2" font-family="Times,serif" font-size="14.00" fill="#000000">Navigator</text>
</g>
<!-- 171cb39d&#45;abd7&#45;4ccf&#45;9df5&#45;e0c2c6892b4c&#45;&gt;a341f6c1&#45;6aea&#45;4546&#45;839c&#45;b3c4a7b3201e -->
<g id="edge6" class="edge">
<title>171cb39d&#45;abd7&#45;4ccf&#45;9df5&#45;e0c2c6892b4c&#45;&gt;a341f6c1&#45;6aea&#45;4546&#45;839c&#45;b3c4a7b3201e</title>
<path fill="none" stroke="#000000" d="M629.4137,-184.9467C650.8657,-190.2158 673.9497,-195.8856 694.1771,-200.8539"/>
<polygon fill="#000000" stroke="#000000" points="693.6168,-204.3202 704.1631,-203.3066 695.2866,-197.5223 693.6168,-204.3202"/>
</g>
<!-- 9bb3e7a2&#45;0dcc&#45;44e7&#45;a209&#45;30694bd927b9&#45;&gt;08bd7727&#45;6145&#45;4409&#45;87e5&#45;d3817ec64db8 -->
<g id="edge7" class="edge">
<title>9bb3e7a2&#45;0dcc&#45;44e7&#45;a209&#45;30694bd927b9&#45;&gt;08bd7727&#45;6145&#45;4409&#45;87e5&#45;d3817ec64db8</title>
<path fill="none" stroke="#000000" stroke-dasharray="5,2" d="M792.0248,-127.6318C815.592,-131.4467 845.7579,-136.1513 872.6736,-139.8 892.3046,-142.4612 912.8833,-145.0801 933.352,-147.5778"/>
<polygon fill="#000000" stroke="#000000" points="933.0383,-151.0653 943.3867,-148.7938 933.8804,-144.1161 933.0383,-151.0653"/>
<text text-anchor="middle" x="897.6886" y="-136.1938" font-family="Times,serif" font-size="14.00" fill="#000000">Missing binding</text>
</g>
<!-- e5c350d8&#45;e4bc&#45;4464&#45;aa91&#45;2782a0d0bf5d -->
<g id="node8" class="node">
<title>e5c350d8&#45;e4bc&#45;4464&#45;aa91&#45;2782a0d0bf5d</title>
<polygon fill="#ff3030" stroke="#ff3030" points="1212.1846,-76.8 1002.1746,-76.8 1002.1746,-40.8 1212.1846,-40.8 1212.1846,-76.8"/>
<text text-anchor="middle" x="1107.1796" y="-54.6" font-family="Times,serif" font-size="14.00" fill="#000000">org.greenrobot.eventbus.EventBus</text>
</g>
<!-- 9bb3e7a2&#45;0dcc&#45;44e7&#45;a209&#45;30694bd927b9&#45;&gt;e5c350d8&#45;e4bc&#45;4464&#45;aa91&#45;2782a0d0bf5d -->
<g id="edge8" class="edge">
<title>9bb3e7a2&#45;0dcc&#45;44e7&#45;a209&#45;30694bd927b9&#45;&gt;e5c350d8&#45;e4bc&#45;4464&#45;aa91&#45;2782a0d0bf5d</title>
<path fill="none" stroke="#000000" stroke-dasharray="5,2" d="M792.2244,-107.0915C815.5964,-99.7947 845.5066,-91.2311 872.6736,-85.8 911.2237,-78.0932 953.8108,-72.371 991.9964,-68.2282"/>
<polygon fill="#000000" stroke="#000000" points="992.5465,-71.6896 1002.122,-67.1551 991.8088,-64.7286 992.5465,-71.6896"/>
<text text-anchor="middle" x="956.4239" y="-54.5551" font-family="Times,serif" font-size="14.00" fill="#000000">Missing binding</text>
</g>
<!-- c5a2351d&#45;364f&#45;4132&#45;b40f&#45;093faea5ae21 -->
<g id="node9" class="node">
<title>c5a2351d&#45;364f&#45;4132&#45;b40f&#45;093faea5ae21</title>
<polygon fill="#ff3030" stroke="#ff3030" points="1283.9633,-130.8 930.3959,-130.8 930.3959,-94.8 1283.9633,-94.8 1283.9633,-130.8"/>
<text text-anchor="middle" x="1107.1796" y="-108.6" font-family="Times,serif" font-size="14.00" fill="#000000">org.owntracks.android.support.preferences.PreferencesStore</text>
</g>
<!-- 9bb3e7a2&#45;0dcc&#45;44e7&#45;a209&#45;30694bd927b9&#45;&gt;c5a2351d&#45;364f&#45;4132&#45;b40f&#45;093faea5ae21 -->
<g id="edge9" class="edge">
<title>9bb3e7a2&#45;0dcc&#45;44e7&#45;a209&#45;30694bd927b9&#45;&gt;c5a2351d&#45;364f&#45;4132&#45;b40f&#45;093faea5ae21</title>
<path fill="none" stroke="#000000" stroke-dasharray="5,2" d="M792.1679,-119.8745C824.3977,-119.1507 871.6874,-118.0886 919.8767,-117.0064"/>
<polygon fill="#000000" stroke="#000000" points="920.2494,-120.499 930.1683,-116.7753 920.0922,-113.5008 920.2494,-120.499"/>
<text text-anchor="middle" x="884.4702" y="-104.1753" font-family="Times,serif" font-size="14.00" fill="#000000">Missing binding</text>
</g>
<!-- a341f6c1&#45;6aea&#45;4546&#45;839c&#45;b3c4a7b3201e&#45;&gt;4fa3570c&#45;6ccd&#45;457a&#45;8b3b&#45;8b84c3f5b1ec -->
<g id="edge1" class="edge">
<title>a341f6c1&#45;6aea&#45;4546&#45;839c&#45;b3c4a7b3201e&#45;&gt;4fa3570c&#45;6ccd&#45;457a&#45;8b3b&#45;8b84c3f5b1ec</title>
<path fill="none" stroke="#000000" d="M797.8928,-215.9858C857.4959,-217.4917 961.076,-220.1087 1031.8075,-221.8957"/>
<polygon fill="#000000" stroke="#000000" points="1031.9106,-225.3993 1041.9958,-222.1531 1032.0874,-218.4016 1031.9106,-225.3993"/>
</g>
</g>
</svg>
