<svg width="622px" height="153px"
 viewBox="0.00 0.00 622.07 152.60" xmlns="http://www.w3.org/2000/svg" xmlns:xlink="http://www.w3.org/1999/xlink">
<g id="graph0" class="graph" transform="scale(1.0 1.0) rotate(0) translate(14.4 138.2)">
<title>org.owntracks.android.ui.status.LogViewerActivityModule</title>
<polygon fill="#ffffff" stroke="transparent" points="-14.4,14.4 -14.4,-138.2 607.6702,-138.2 607.6702,14.4 -14.4,14.4"/>
<text text-anchor="middle" x="84.5898" y="-8.2" font-family="Times,serif" font-size="14.00" fill="#000000">LogViewerActivityModule</text>
<g id="clust2" class="cluster">
<title>cluster_Dependency Graph</title>
<polygon fill="none" stroke="#000000" points="8,-32.8 8,-115.8 585.2702,-115.8 585.2702,-32.8 8,-32.8"/>
<text text-anchor="middle" x="70.2234" y="-99.2" font-family="Times,serif" font-size="14.00" fill="#000000">Dependency Graph</text>
</g>
<!-- e00a9da4&#45;ccd2&#45;4496&#45;bbab&#45;79a446a0595f -->
<g id="node1" class="node">
<title>e00a9da4&#45;ccd2&#45;4496&#45;bbab&#45;79a446a0595f</title>
<polygon fill="#7fffd4" stroke="#7fffd4" points="146.4843,-82.4019 15.8383,-82.4019 15.8383,-41.1981 146.4843,-41.1981 146.4843,-82.4019"/>
<text text-anchor="middle" x="81.1613" y="-66" font-family="Times,serif" font-size="14.00" fill="#000000">@PerActivity</text>
<text text-anchor="middle" x="81.1613" y="-49.2" font-family="Times,serif" font-size="14.00" fill="#000000">AppCompatActivity</text>
</g>
<!-- e6118ec0&#45;aa22&#45;4bc8&#45;9e18&#45;af8660c57070 -->
<g id="node2" class="node">
<title>e6118ec0&#45;aa22&#45;4bc8&#45;9e18&#45;af8660c57070</title>
<polygon fill="#ff3030" stroke="#ff3030" points="577.2019,-79.8 272.4751,-79.8 272.4751,-43.8 577.2019,-43.8 577.2019,-79.8"/>
<text text-anchor="middle" x="424.8385" y="-57.6" font-family="Times,serif" font-size="14.00" fill="#000000">org.owntracks.android.ui.status.LogViewerActivity</text>
</g>
<!-- e00a9da4&#45;ccd2&#45;4496&#45;bbab&#45;79a446a0595f&#45;&gt;e6118ec0&#45;aa22&#45;4bc8&#45;9e18&#45;af8660c57070 -->
<g id="edge1" class="edge">
<title>e00a9da4&#45;ccd2&#45;4496&#45;bbab&#45;79a446a0595f&#45;&gt;e6118ec0&#45;aa22&#45;4bc8&#45;9e18&#45;af8660c57070</title>
<path fill="none" stroke="#000000" stroke-dasharray="5,2" d="M146.6133,-61.8C179.6287,-61.8 221.2822,-61.8 262.2343,-61.8"/>
<polygon fill="#000000" stroke="#000000" points="262.3446,-65.3001 272.3446,-61.8 262.3445,-58.3001 262.3446,-65.3001"/>
<text text-anchor="middle" x="209.3647" y="-66" font-family="Times,serif" font-size="14.00" fill="#000000">delegates</text>
<text text-anchor="middle" x="226.6465" y="-49.2" font-family="Times,serif" font-size="14.00" fill="#000000">Missing binding</text>
</g>
</g>
</svg>
