<svg width="1489px" height="423px"
 viewBox="0.00 0.00 1488.70 422.60" xmlns="http://www.w3.org/2000/svg" xmlns:xlink="http://www.w3.org/1999/xlink">
<g id="graph0" class="graph" transform="scale(1.0 1.0) rotate(0) translate(14.4 408.2)">
<title>org.owntracks.android.ui.welcome.WelcomeActivityModule → org.owntracks.android.ui.welcome.WelcomeActivityModule_BindPermissionFragment.PermissionFragmentSubcomponent</title>
<polygon fill="#ffffff" stroke="transparent" points="-14.4,14.4 -14.4,-408.2 1474.301,-408.2 1474.301,14.4 -14.4,14.4"/>
<text text-anchor="middle" x="336.5555" y="-8.2" font-family="Times,serif" font-size="14.00" fill="#000000">WelcomeActivityModule → WelcomeActivityModule_BindPermissionFragment.PermissionFragmentSubcomponent</text>
<g id="clust5" class="cluster">
<title>cluster_WelcomeActivityModule</title>
<g id="a_clust5"><a xlink:href="full_org.owntracks.android.ui.welcome.WelcomeActivityModule.svg" xlink:title="Inherited from WelcomeActivityModule">
<polygon fill="none" stroke="#000000" stroke-dasharray="5,2" points="956.0642,-32.8 956.0642,-385.8 1451.901,-385.8 1451.901,-32.8 956.0642,-32.8"/>
<text text-anchor="middle" x="1203.9826" y="-369.2" font-family="Times,serif" font-size="14.00" fill="#000000">Inherited from WelcomeActivityModule</text>
</a>
</g>
</g>
<g id="clust1" class="cluster">
<title>cluster_Entry Points</title>
<polygon fill="none" stroke="#000000" points="8,-95.8 8,-172.8 199.7946,-172.8 199.7946,-95.8 8,-95.8"/>
<text text-anchor="middle" x="50.8061" y="-156.2" font-family="Times,serif" font-size="14.00" fill="#000000">Entry Points</text>
</g>
<g id="clust2" class="cluster">
<title>cluster_Dependency Graph</title>
<polygon fill="none" stroke="#000000" points="220.7946,-92.8 220.7946,-283.8 937.0642,-283.8 937.0642,-92.8 220.7946,-92.8"/>
<text text-anchor="middle" x="283.018" y="-267.2" font-family="Times,serif" font-size="14.00" fill="#000000">Dependency Graph</text>
</g>
<g id="clust3" class="cluster">
<title>cluster_Map&lt;Class&lt;?&gt;, Provider&lt;AndroidInjector.Factory&lt;?&gt;&gt;&gt;</title>
<path fill="none" stroke="#000000" d="M585.8266,-173.8C585.8266,-173.8 917.0642,-173.8 917.0642,-173.8 923.0642,-173.8 929.0642,-179.8 929.0642,-185.8 929.0642,-185.8 929.0642,-238.8 929.0642,-238.8 929.0642,-244.8 923.0642,-250.8 917.0642,-250.8 917.0642,-250.8 585.8266,-250.8 585.8266,-250.8 579.8266,-250.8 573.8266,-244.8 573.8266,-238.8 573.8266,-238.8 573.8266,-185.8 573.8266,-185.8 573.8266,-179.8 579.8266,-173.8 585.8266,-173.8"/>
<text text-anchor="middle" x="751.4454" y="-234.2" font-family="Times,serif" font-size="14.00" fill="#000000">Map&lt;Class&lt;?&gt;, Provider&lt;AndroidInjector.Factory&lt;?&gt;&gt;&gt;</text>
</g>
<!-- 7570eba7&#45;ee1f&#45;4261&#45;abc0&#45;b8c4590c5a79 -->
<g id="node1" class="node">
<title>7570eba7&#45;ee1f&#45;4261&#45;abc0&#45;b8c4590c5a79</title>
<polygon fill="#40e0d0" stroke="#40e0d0" stroke-width="2" points="191.692,-139.8 16.1026,-139.8 16.1026,-135.8 12.1026,-135.8 12.1026,-131.8 16.1026,-131.8 16.1026,-111.8 12.1026,-111.8 12.1026,-107.8 16.1026,-107.8 16.1026,-103.8 191.692,-103.8 191.692,-139.8"/>
<polyline fill="none" stroke="#40e0d0" stroke-width="2" points="16.1026,-135.8 20.1026,-135.8 20.1026,-131.8 16.1026,-131.8 "/>
<polyline fill="none" stroke="#40e0d0" stroke-width="2" points="16.1026,-111.8 20.1026,-111.8 20.1026,-107.8 16.1026,-107.8 "/>
<text text-anchor="middle" x="103.8973" y="-117.6" font-family="Times,serif" font-size="14.00" fill="#000000">inject (PermissionFragment)</text>
</g>
<!-- fa7217d5&#45;a93b&#45;4288&#45;9924&#45;45747cd76c08 -->
<g id="node2" class="node">
<title>fa7217d5&#45;a93b&#45;4288&#45;9924&#45;45747cd76c08</title>
<polygon fill="#40e0d0" stroke="#40e0d0" points="455.7163,-250.8 228.8207,-250.8 228.8207,-214.8 455.7163,-214.8 455.7163,-250.8"/>
<text text-anchor="middle" x="342.2685" y="-228.6" font-family="Times,serif" font-size="14.00" fill="#000000">DispatchingAndroidInjector&lt;Object&gt;</text>
</g>
<!-- 7570eba7&#45;ee1f&#45;4261&#45;abc0&#45;b8c4590c5a79&#45;&gt;fa7217d5&#45;a93b&#45;4288&#45;9924&#45;45747cd76c08 -->
<g id="edge2" class="edge">
<title>7570eba7&#45;ee1f&#45;4261&#45;abc0&#45;b8c4590c5a79&#45;&gt;fa7217d5&#45;a93b&#45;4288&#45;9924&#45;45747cd76c08</title>
<path fill="none" stroke="#000000" d="M123.8443,-140.0603C145.9329,-159.2903 183.3866,-189.0542 220.7946,-205.8 225.2435,-207.7916 229.8519,-209.6418 234.5569,-211.3602"/>
<polygon fill="#000000" stroke="#000000" points="233.7357,-214.7784 244.3303,-214.7052 236.0025,-208.1556 233.7357,-214.7784"/>
</g>
<!-- c3e43b58&#45;c706&#45;4f11&#45;b0d4&#45;db85d85088b8 -->
<g id="node3" class="node">
<title>c3e43b58&#45;c706&#45;4f11&#45;b0d4&#45;db85d85088b8</title>
<polygon fill="#7fffd4" stroke="#7fffd4" points="441.5093,-142.4019 243.0277,-142.4019 243.0277,-101.1981 441.5093,-101.1981 441.5093,-142.4019"/>
<text text-anchor="middle" x="342.2685" y="-126" font-family="Times,serif" font-size="14.00" fill="#000000">@PerActivity</text>
<text text-anchor="middle" x="342.2685" y="-109.2" font-family="Times,serif" font-size="14.00" fill="#000000">PermissionFragmentViewModel</text>
</g>
<!-- 7570eba7&#45;ee1f&#45;4261&#45;abc0&#45;b8c4590c5a79&#45;&gt;c3e43b58&#45;c706&#45;4f11&#45;b0d4&#45;db85d85088b8 -->
<g id="edge1" class="edge">
<title>7570eba7&#45;ee1f&#45;4261&#45;abc0&#45;b8c4590c5a79&#45;&gt;c3e43b58&#45;c706&#45;4f11&#45;b0d4&#45;db85d85088b8</title>
<path fill="none" stroke="#000000" d="M191.9807,-121.8C205.1912,-121.8 218.9498,-121.8 232.5433,-121.8"/>
<polygon fill="#000000" stroke="#000000" points="232.8943,-125.3001 242.8943,-121.8 232.8943,-118.3001 232.8943,-125.3001"/>
</g>
<!-- 678e7a46&#45;a7a5&#45;4d29&#45;9fca&#45;bc5546ff33ad -->
<g id="node12" class="node">
<title>678e7a46&#45;a7a5&#45;4d29&#45;9fca&#45;bc5546ff33ad</title>
<polygon fill="#7fffd4" stroke="#7fffd4" points="1250.9176,-82.4019 1157.0476,-82.4019 1157.0476,-41.1981 1250.9176,-41.1981 1250.9176,-82.4019"/>
<text text-anchor="middle" x="1203.9826" y="-66" font-family="Times,serif" font-size="14.00" fill="#000000">@PerActivity</text>
<text text-anchor="middle" x="1203.9826" y="-49.2" font-family="Times,serif" font-size="14.00" fill="#000000">Navigator</text>
</g>
<!-- 7570eba7&#45;ee1f&#45;4261&#45;abc0&#45;b8c4590c5a79&#45;&gt;678e7a46&#45;a7a5&#45;4d29&#45;9fca&#45;bc5546ff33ad -->
<g id="edge3" class="edge">
<title>7570eba7&#45;ee1f&#45;4261&#45;abc0&#45;b8c4590c5a79&#45;&gt;678e7a46&#45;a7a5&#45;4d29&#45;9fca&#45;bc5546ff33ad</title>
<path fill="none" stroke="#000000" d="M147.8764,-103.798C195.0907,-86.1246 272.7087,-61.8 342.2685,-61.8 342.2685,-61.8 342.2685,-61.8 751.4454,-61.8 893.7563,-61.8 1061.2409,-61.8 1147.0273,-61.8"/>
<polygon fill="#000000" stroke="#000000" points="1147.0769,-65.3001 1157.0768,-61.8 1147.0768,-58.3001 1147.0769,-65.3001"/>
</g>
<!-- 912cb89a&#45;739e&#45;4dac&#45;b585&#45;5fb28597f94c -->
<g id="node6" class="node">
<title>912cb89a&#45;739e&#45;4dac&#45;b585&#45;5fb28597f94c</title>
<polygon fill="#40e0d0" stroke="#40e0d0" points="921.1831,-217.8 593.7077,-217.8 593.7077,-221.8 581.7077,-221.8 581.7077,-181.8 921.1831,-181.8 921.1831,-217.8"/>
<polyline fill="none" stroke="#40e0d0" points="581.7077,-217.8 593.7077,-217.8 "/>
<text text-anchor="middle" x="751.4454" y="-195.6" font-family="Times,serif" font-size="14.00" fill="#000000">Map&lt;Class&lt;?&gt;, Provider&lt;AndroidInjector.Factory&lt;?&gt;&gt;&gt;</text>
</g>
<!-- fa7217d5&#45;a93b&#45;4288&#45;9924&#45;45747cd76c08&#45;&gt;912cb89a&#45;739e&#45;4dac&#45;b585&#45;5fb28597f94c -->
<g id="edge4" class="edge">
<title>fa7217d5&#45;a93b&#45;4288&#45;9924&#45;45747cd76c08&#45;&gt;912cb89a&#45;739e&#45;4dac&#45;b585&#45;5fb28597f94c</title>
<path fill="none" stroke="#000000" d="M455.9753,-223.6296C491.6868,-220.7495 532.0349,-217.4954 571.1783,-214.3385"/>
<polygon fill="#000000" stroke="#000000" points="571.9527,-217.7875 581.639,-213.4948 571.39,-210.8101 571.9527,-217.7875"/>
</g>
<!-- c3e43b58&#45;c706&#45;4f11&#45;b0d4&#45;db85d85088b8&#45;&gt;678e7a46&#45;a7a5&#45;4d29&#45;9fca&#45;bc5546ff33ad -->
<g id="edge5" class="edge">
<title>c3e43b58&#45;c706&#45;4f11&#45;b0d4&#45;db85d85088b8&#45;&gt;678e7a46&#45;a7a5&#45;4d29&#45;9fca&#45;bc5546ff33ad</title>
<path fill="none" stroke="#000000" d="M441.5386,-114.888C622.8734,-102.2619 1002.2814,-75.8442 1146.5953,-65.7958"/>
<polygon fill="#000000" stroke="#000000" points="1147.2485,-69.2589 1156.9812,-65.0726 1146.7622,-62.2758 1147.2485,-69.2589"/>
</g>
<!-- 04a2389f&#45;8f65&#45;4156&#45;85ab&#45;d6cca2d64ea1 -->
<g id="node4" class="node">
<title>04a2389f&#45;8f65&#45;4156&#45;85ab&#45;d6cca2d64ea1</title>
<polygon fill="#40e0d0" stroke="#40e0d0" points="376.923,-196.8 307.614,-196.8 307.614,-160.8 376.923,-160.8 376.923,-196.8"/>
<text text-anchor="middle" x="342.2685" y="-174.6" font-family="Times,serif" font-size="14.00" fill="#000000">Fragment</text>
</g>
<!-- bd2ac057&#45;abce&#45;46ac&#45;a73a&#45;d4cc34109edd -->
<g id="node5" class="node">
<title>bd2ac057&#45;abce&#45;46ac&#45;a73a&#45;d4cc34109edd</title>
<polygon fill="#40e0d0" stroke="#40e0d0" points="884.6842,-163.8 672.7311,-163.8 618.2066,-127.8 830.1597,-127.8 884.6842,-163.8"/>
<text text-anchor="middle" x="751.4454" y="-141.6" font-family="Times,serif" font-size="14.00" fill="#000000">PermissionFragment</text>
</g>
<!-- 04a2389f&#45;8f65&#45;4156&#45;85ab&#45;d6cca2d64ea1&#45;&gt;bd2ac057&#45;abce&#45;46ac&#45;a73a&#45;d4cc34109edd -->
<g id="edge11" class="edge">
<title>04a2389f&#45;8f65&#45;4156&#45;85ab&#45;d6cca2d64ea1&#45;&gt;bd2ac057&#45;abce&#45;46ac&#45;a73a&#45;d4cc34109edd</title>
<path fill="none" stroke="#000000" stroke-dasharray="1,5" d="M377.1547,-175.9864C436.1454,-171.2289 557.8273,-161.4152 646.4858,-154.265"/>
<polygon fill="#000000" stroke="#000000" points="646.8975,-157.7432 656.5838,-153.4506 646.3347,-150.7659 646.8975,-157.7432"/>
<text text-anchor="middle" x="518.7845" y="-170" font-family="Times,serif" font-size="14.00" fill="#000000">delegates</text>
</g>
<!-- 07e4caf7&#45;2d9b&#45;454b&#45;a3fb&#45;0cfc8cbe2c61 -->
<g id="node7" class="node">
<title>07e4caf7&#45;2d9b&#45;454b&#45;a3fb&#45;0cfc8cbe2c61</title>
<polygon fill="#40e0d0" stroke="#40e0d0" points="1443.8194,-352.8 964.1458,-352.8 964.1458,-316.8 1443.8194,-316.8 1443.8194,-352.8"/>
<text text-anchor="middle" x="1203.9826" y="-330.6" font-family="Times,serif" font-size="14.00" fill="#000000">WelcomeActivityModule_BindPermissionFragment.bindAndroidInjectorFactory()</text>
</g>
<!-- 912cb89a&#45;739e&#45;4dac&#45;b585&#45;5fb28597f94c&#45;&gt;07e4caf7&#45;2d9b&#45;454b&#45;a3fb&#45;0cfc8cbe2c61 -->
<g id="edge7" class="edge">
<title>912cb89a&#45;739e&#45;4dac&#45;b585&#45;5fb28597f94c&#45;&gt;07e4caf7&#45;2d9b&#45;454b&#45;a3fb&#45;0cfc8cbe2c61</title>
<path fill="none" stroke="#000000" d="M777.8161,-217.9399C815.4772,-242.8327 887.6956,-286.8709 956.0642,-307.8 964.0239,-310.2366 972.1864,-312.4596 980.4763,-314.4872"/>
<polygon fill="#000000" stroke="#000000" points="979.7274,-317.9064 990.262,-316.7787 981.3235,-311.0908 979.7274,-317.9064"/>
</g>
<!-- a2ff2a74&#45;2935&#45;4157&#45;890d&#45;c0ae24359d76 -->
<g id="node8" class="node">
<title>a2ff2a74&#45;2935&#45;4157&#45;890d&#45;c0ae24359d76</title>
<polygon fill="#40e0d0" stroke="#40e0d0" points="1426.3124,-298.8 981.6528,-298.8 981.6528,-262.8 1426.3124,-262.8 1426.3124,-298.8"/>
<text text-anchor="middle" x="1203.9826" y="-276.6" font-family="Times,serif" font-size="14.00" fill="#000000">WelcomeActivityModule_BindIntroFragment.bindAndroidInjectorFactory()</text>
</g>
<!-- 912cb89a&#45;739e&#45;4dac&#45;b585&#45;5fb28597f94c&#45;&gt;a2ff2a74&#45;2935&#45;4157&#45;890d&#45;c0ae24359d76 -->
<g id="edge6" class="edge">
<title>912cb89a&#45;739e&#45;4dac&#45;b585&#45;5fb28597f94c&#45;&gt;a2ff2a74&#45;2935&#45;4157&#45;890d&#45;c0ae24359d76</title>
<path fill="none" stroke="#000000" d="M810.4564,-217.8822C851.0489,-229.6992 906.3921,-244.5943 956.0642,-253.8 970.9058,-256.5506 986.303,-259.0528 1001.8292,-261.3232"/>
<polygon fill="#000000" stroke="#000000" points="1001.6518,-264.8333 1012.0462,-262.7819 1002.6413,-257.9035 1001.6518,-264.8333"/>
</g>
<!-- 677562a6&#45;c01e&#45;44de&#45;8f76&#45;8b8fcd1f828c -->
<g id="node9" class="node">
<title>677562a6&#45;c01e&#45;44de&#45;8f76&#45;8b8fcd1f828c</title>
<polygon fill="#40e0d0" stroke="#40e0d0" points="1430.1092,-244.8 977.856,-244.8 977.856,-208.8 1430.1092,-208.8 1430.1092,-244.8"/>
<text text-anchor="middle" x="1203.9826" y="-222.6" font-family="Times,serif" font-size="14.00" fill="#000000">WelcomeActivityModule_BindFinishFragment.bindAndroidInjectorFactory()</text>
</g>
<!-- 912cb89a&#45;739e&#45;4dac&#45;b585&#45;5fb28597f94c&#45;&gt;677562a6&#45;c01e&#45;44de&#45;8f76&#45;8b8fcd1f828c -->
<g id="edge9" class="edge">
<title>912cb89a&#45;739e&#45;4dac&#45;b585&#45;5fb28597f94c&#45;&gt;677562a6&#45;c01e&#45;44de&#45;8f76&#45;8b8fcd1f828c</title>
<path fill="none" stroke="#000000" d="M921.2411,-209.9306C936.3625,-210.8328 951.8434,-211.7565 967.3895,-212.684"/>
<polygon fill="#000000" stroke="#000000" points="967.421,-216.192 977.6117,-213.2939 967.838,-209.2044 967.421,-216.192"/>
</g>
<!-- 989d34bb&#45;8d3a&#45;4787&#45;961a&#45;a6e52189329f -->
<g id="node10" class="node">
<title>989d34bb&#45;8d3a&#45;4787&#45;961a&#45;a6e52189329f</title>
<polygon fill="#40e0d0" stroke="#40e0d0" points="1434.9176,-190.8 973.0476,-190.8 973.0476,-154.8 1434.9176,-154.8 1434.9176,-190.8"/>
<text text-anchor="middle" x="1203.9826" y="-168.6" font-family="Times,serif" font-size="14.00" fill="#000000">WelcomeActivityModule_BindVersionFragment.bindAndroidInjectorFactory()</text>
</g>
<!-- 912cb89a&#45;739e&#45;4dac&#45;b585&#45;5fb28597f94c&#45;&gt;989d34bb&#45;8d3a&#45;4787&#45;961a&#45;a6e52189329f -->
<g id="edge8" class="edge">
<title>912cb89a&#45;739e&#45;4dac&#45;b585&#45;5fb28597f94c&#45;&gt;989d34bb&#45;8d3a&#45;4787&#45;961a&#45;a6e52189329f</title>
<path fill="none" stroke="#000000" d="M921.2411,-189.6694C934.8636,-188.8566 948.7778,-188.0264 962.7686,-187.1917"/>
<polygon fill="#000000" stroke="#000000" points="963.1928,-190.6727 972.9666,-186.5832 962.7758,-183.6851 963.1928,-190.6727"/>
</g>
<!-- 87941aaf&#45;1940&#45;4247&#45;af44&#45;0a11efc7b011 -->
<g id="node11" class="node">
<title>87941aaf&#45;1940&#45;4247&#45;af44&#45;0a11efc7b011</title>
<polygon fill="#40e0d0" stroke="#40e0d0" points="1424.9887,-136.8 982.9765,-136.8 982.9765,-100.8 1424.9887,-100.8 1424.9887,-136.8"/>
<text text-anchor="middle" x="1203.9826" y="-114.6" font-family="Times,serif" font-size="14.00" fill="#000000">WelcomeActivityModule_BindPlayFragment.bindAndroidInjectorFactory()</text>
</g>
<!-- 912cb89a&#45;739e&#45;4dac&#45;b585&#45;5fb28597f94c&#45;&gt;87941aaf&#45;1940&#45;4247&#45;af44&#45;0a11efc7b011 -->
<g id="edge10" class="edge">
<title>912cb89a&#45;739e&#45;4dac&#45;b585&#45;5fb28597f94c&#45;&gt;87941aaf&#45;1940&#45;4247&#45;af44&#45;0a11efc7b011</title>
<path fill="none" stroke="#000000" d="M921.3001,-186.5775C926.7559,-183.9866 932.031,-181.0723 937.0642,-177.8 950.9313,-168.7843 942.1544,-154.7498 956.0642,-145.8 961.6196,-142.2256 967.3935,-138.9813 973.34,-136.0405"/>
<polygon fill="#000000" stroke="#000000" points="975.2072,-139.0337 982.8202,-131.6653 972.2738,-132.6779 975.2072,-139.0337"/>
</g>
</g>
</svg>
