<svg width="866px" height="169px"
 viewBox="0.00 0.00 866.22 168.60" xmlns="http://www.w3.org/2000/svg" xmlns:xlink="http://www.w3.org/1999/xlink">
<g id="graph0" class="graph" transform="scale(1.0 1.0) rotate(0) translate(14.4 154.2)">
<title>org.owntracks.android.ui.preferences.PreferencesActivityModule → org.owntracks.android.ui.preferences.PreferencesActivityModule_BindPreferencesFragment.PreferencesFragmentSubcomponent</title>
<polygon fill="#ffffff" stroke="transparent" points="-14.4,14.4 -14.4,-154.2 851.8194,-154.2 851.8194,14.4 -14.4,14.4"/>
<text text-anchor="middle" x="351.2611" y="-8.2" font-family="Times,serif" font-size="14.00" fill="#000000">PreferencesActivityModule → PreferencesActivityModule_BindPreferencesFragment.PreferencesFragmentSubcomponent</text>
<g id="clust4" class="cluster">
<title>cluster_PreferencesActivityModule → PreferencesActivityModule_BindPreferencesFragment.PreferencesFragmentSubcomponent</title>
<g id="a_clust4"><a xlink:href="full_org.owntracks.android.ui.preferences.PreferencesActivityModule_BindPreferencesFragment.PreferencesFragmentSubcomponent.svg" xlink:title="Inherited from PreferencesActivityModule_BindPreferencesFragment.PreferencesFragmentSubcomponent\n@PerFragment">
<polygon fill="none" stroke="#ffe4c4" stroke-dasharray="5,2" points="222.8578,-32.8 222.8578,-131.8 837.4194,-131.8 837.4194,-32.8 222.8578,-32.8"/>
<text text-anchor="middle" x="530.1386" y="-115.2" font-family="Times,serif" font-size="14.00" fill="#000000">Inherited from PreferencesActivityModule_BindPreferencesFragment.PreferencesFragmentSubcomponent</text>
<text text-anchor="middle" x="530.1386" y="-98.4" font-family="Times,serif" font-size="14.00" fill="#000000">@PerFragment</text>
</a>
</g>
</g>
<g id="clust1" class="cluster">
<title>cluster_Entry Points</title>
<polygon fill="none" stroke="#000000" points="8,-35.8 8,-112.8 202.8578,-112.8 202.8578,-35.8 8,-35.8"/>
<text text-anchor="middle" x="50.8061" y="-96.2" font-family="Times,serif" font-size="14.00" fill="#000000">Entry Points</text>
</g>
<!-- 18cf592c&#45;043a&#45;4301&#45;b8bd&#45;79b3f3464d11 -->
<g id="node1" class="node">
<title>18cf592c&#45;043a&#45;4301&#45;b8bd&#45;79b3f3464d11</title>
<polygon fill="#40e0d0" stroke="#40e0d0" stroke-width="2" points="194.7868,-79.8 16.071,-79.8 16.071,-75.8 12.071,-75.8 12.071,-71.8 16.071,-71.8 16.071,-51.8 12.071,-51.8 12.071,-47.8 16.071,-47.8 16.071,-43.8 194.7868,-43.8 194.7868,-79.8"/>
<polyline fill="none" stroke="#40e0d0" stroke-width="2" points="16.071,-75.8 20.071,-75.8 20.071,-71.8 16.071,-71.8 "/>
<polyline fill="none" stroke="#40e0d0" stroke-width="2" points="16.071,-51.8 20.071,-51.8 20.071,-47.8 16.071,-47.8 "/>
<text text-anchor="middle" x="105.4289" y="-57.6" font-family="Times,serif" font-size="14.00" fill="#000000">inject (PreferencesFragment)</text>
</g>
<!-- d65bf95b&#45;d448&#45;4f35&#45;a465&#45;8246fc4c13a3 -->
<g id="node2" class="node">
<title>d65bf95b&#45;d448&#45;4f35&#45;a465&#45;8246fc4c13a3</title>
<polygon fill="#ffff00" stroke="#ffff00" points="571.2014,-82.4019 489.0758,-82.4019 489.0758,-41.1981 571.2014,-41.1981 571.2014,-82.4019"/>
<text text-anchor="middle" x="530.1386" y="-66" font-family="Times,serif" font-size="14.00" fill="#000000">@Singleton</text>
<text text-anchor="middle" x="530.1386" y="-49.2" font-family="Times,serif" font-size="14.00" fill="#000000">Preferences</text>
</g>
<!-- 18cf592c&#45;043a&#45;4301&#45;b8bd&#45;79b3f3464d11&#45;&gt;d65bf95b&#45;d448&#45;4f35&#45;a465&#45;8246fc4c13a3 -->
<g id="edge1" class="edge">
<title>18cf592c&#45;043a&#45;4301&#45;b8bd&#45;79b3f3464d11&#45;&gt;d65bf95b&#45;d448&#45;4f35&#45;a465&#45;8246fc4c13a3</title>
<path fill="none" stroke="#000000" d="M194.9799,-61.8C281.0927,-61.8 408.2545,-61.8 478.6011,-61.8"/>
<polygon fill="#000000" stroke="#000000" points="478.9724,-65.3001 488.9723,-61.8 478.9723,-58.3001 478.9724,-65.3001"/>
</g>
</g>
</svg>
