<svg width="2725px" height="589px"
 viewBox="0.00 0.00 2724.72 588.60" xmlns="http://www.w3.org/2000/svg" xmlns:xlink="http://www.w3.org/1999/xlink">
<g id="graph0" class="graph" transform="scale(1.0 1.0) rotate(0) translate(14.4 574.2)">
<title>org.owntracks.android.ui.regions.RegionsActivityModule</title>
<polygon fill="#ffffff" stroke="transparent" points="-14.4,14.4 -14.4,-574.2 2710.3188,-574.2 2710.3188,14.4 -14.4,14.4"/>
<text text-anchor="middle" x="75.6599" y="-8.2" font-family="Times,serif" font-size="14.00" fill="#000000">RegionsActivityModule</text>
<g id="clust2" class="cluster">
<title>cluster_Dependency Graph</title>
<polygon fill="none" stroke="#000000" points="8,-32.8 8,-551.8 2687.9188,-551.8 2687.9188,-32.8 8,-32.8"/>
<text text-anchor="middle" x="70.2234" y="-535.2" font-family="Times,serif" font-size="14.00" fill="#000000">Dependency Graph</text>
</g>
<!-- 6fe45713&#45;e90e&#45;4ff2&#45;9986&#45;1d2ae329d872 -->
<g id="node1" class="node">
<title>6fe45713&#45;e90e&#45;4ff2&#45;9986&#45;1d2ae329d872</title>
<polygon fill="#7fffd4" stroke="#7fffd4" points="973.9273,-510.4019 843.2813,-510.4019 843.2813,-469.1981 973.9273,-469.1981 973.9273,-510.4019"/>
<text text-anchor="middle" x="908.6043" y="-494" font-family="Times,serif" font-size="14.00" fill="#000000">@PerActivity</text>
<text text-anchor="middle" x="908.6043" y="-477.2" font-family="Times,serif" font-size="14.00" fill="#000000">AppCompatActivity</text>
</g>
<!-- 904f28a3&#45;11da&#45;4752&#45;837d&#45;d2d771d47b00 -->
<g id="node2" class="node">
<title>904f28a3&#45;11da&#45;4752&#45;837d&#45;d2d771d47b00</title>
<polygon fill="#ff3030" stroke="#ff3030" points="1595.4926,-518.8 1298.8342,-518.8 1298.8342,-482.8 1595.4926,-482.8 1595.4926,-518.8"/>
<text text-anchor="middle" x="1447.1634" y="-496.6" font-family="Times,serif" font-size="14.00" fill="#000000">org.owntracks.android.ui.regions.RegionsActivity</text>
</g>
<!-- 6fe45713&#45;e90e&#45;4ff2&#45;9986&#45;1d2ae329d872&#45;&gt;904f28a3&#45;11da&#45;4752&#45;837d&#45;d2d771d47b00 -->
<g id="edge2" class="edge">
<title>6fe45713&#45;e90e&#45;4ff2&#45;9986&#45;1d2ae329d872&#45;&gt;904f28a3&#45;11da&#45;4752&#45;837d&#45;d2d771d47b00</title>
<path fill="none" stroke="#000000" stroke-dasharray="5,2" d="M973.8352,-491.1323C1051.4257,-492.7171 1183.6466,-495.4177 1288.6519,-497.5624"/>
<polygon fill="#000000" stroke="#000000" points="1288.6566,-501.0632 1298.726,-497.7682 1288.7996,-494.0646 1288.6566,-501.0632"/>
<text text-anchor="middle" x="1204.0329" y="-500" font-family="Times,serif" font-size="14.00" fill="#000000">delegates</text>
<text text-anchor="middle" x="1253.0279" y="-485.1682" font-family="Times,serif" font-size="14.00" fill="#000000">Missing binding</text>
</g>
<!-- 0a328bb5&#45;0437&#45;45ef&#45;b8c7&#45;7b1139e24296 -->
<g id="node3" class="node">
<title>0a328bb5&#45;0437&#45;45ef&#45;b8c7&#45;7b1139e24296</title>
<polygon fill="#40e0d0" stroke="#40e0d0" points="318.6288,-238.8 15.7902,-238.8 15.7902,-202.8 318.6288,-202.8 318.6288,-238.8"/>
<text text-anchor="middle" x="167.2095" y="-216.6" font-family="Times,serif" font-size="14.00" fill="#000000">RegionsMvvm.ViewModel&lt;RegionsMvvm.View&gt;</text>
</g>
<!-- 4ff9dd79&#45;e891&#45;40a9&#45;bc40&#45;3a060e76a103 -->
<g id="node4" class="node">
<title>4ff9dd79&#45;e891&#45;40a9&#45;bc40&#45;3a060e76a103</title>
<polygon fill="#7fffd4" stroke="#7fffd4" points="573.1353,-241.4019 444.6257,-241.4019 444.6257,-200.1981 573.1353,-200.1981 573.1353,-241.4019"/>
<text text-anchor="middle" x="508.8805" y="-225" font-family="Times,serif" font-size="14.00" fill="#000000">@PerActivity</text>
<text text-anchor="middle" x="508.8805" y="-208.2" font-family="Times,serif" font-size="14.00" fill="#000000">RegionsViewModel</text>
</g>
<!-- 0a328bb5&#45;0437&#45;45ef&#45;b8c7&#45;7b1139e24296&#45;&gt;4ff9dd79&#45;e891&#45;40a9&#45;bc40&#45;3a060e76a103 -->
<g id="edge3" class="edge">
<title>0a328bb5&#45;0437&#45;45ef&#45;b8c7&#45;7b1139e24296&#45;&gt;4ff9dd79&#45;e891&#45;40a9&#45;bc40&#45;3a060e76a103</title>
<path fill="none" stroke="#000000" stroke-dasharray="1,5" d="M318.5635,-220.8C358.6808,-220.8 400.2502,-220.8 434.2666,-220.8"/>
<polygon fill="#000000" stroke="#000000" points="434.5709,-224.3001 444.5709,-220.8 434.5709,-217.3001 434.5709,-224.3001"/>
<text text-anchor="middle" x="381.4611" y="-225" font-family="Times,serif" font-size="14.00" fill="#000000">delegates</text>
</g>
<!-- f6f95012&#45;63db&#45;4197&#45;b8b5&#45;fe843ca32950 -->
<g id="node5" class="node">
<title>f6f95012&#45;63db&#45;4197&#45;b8b5&#45;fe843ca32950</title>
<polygon fill="#ff3030" stroke="#ff3030" points="1595.4674,-96.8 1298.8594,-96.8 1298.8594,-60.8 1595.4674,-60.8 1595.4674,-96.8"/>
<text text-anchor="middle" x="1447.1634" y="-74.6" font-family="Times,serif" font-size="14.00" fill="#000000">org.owntracks.android.data.repos.WaypointsRepo</text>
</g>
<!-- 4ff9dd79&#45;e891&#45;40a9&#45;bc40&#45;3a060e76a103&#45;&gt;f6f95012&#45;63db&#45;4197&#45;b8b5&#45;fe843ca32950 -->
<g id="edge4" class="edge">
<title>4ff9dd79&#45;e891&#45;40a9&#45;bc40&#45;3a060e76a103&#45;&gt;f6f95012&#45;63db&#45;4197&#45;b8b5&#45;fe843ca32950</title>
<path fill="none" stroke="#000000" stroke-dasharray="5,2" d="M510.97,-199.9161C516.9628,-152.6979 538.7072,-41.8 610.7578,-41.8 610.7578,-41.8 610.7578,-41.8 1065.0707,-41.8 1147.9774,-41.8 1240.5338,-50.5369 1313.7849,-59.5195"/>
<polygon fill="#000000" stroke="#000000" points="1313.6345,-63.0277 1323.9898,-60.7877 1314.4978,-56.0811 1313.6345,-63.0277"/>
<text text-anchor="middle" x="1278.2917" y="-48.1877" font-family="Times,serif" font-size="14.00" fill="#000000">Missing binding</text>
</g>
<!-- 657af0f5&#45;4b3d&#45;44c1&#45;a248&#45;ef1ebbf2e718 -->
<g id="node6" class="node">
<title>657af0f5&#45;4b3d&#45;44c1&#45;a248&#45;ef1ebbf2e718</title>
<polygon fill="#ffe4c4" stroke="#ffe4c4" points="768.5357,-241.4019 648.1651,-241.4019 648.1651,-200.1981 768.5357,-200.1981 768.5357,-241.4019"/>
<text text-anchor="middle" x="708.3504" y="-225" font-family="Times,serif" font-size="14.00" fill="#000000">@Singleton</text>
<text text-anchor="middle" x="708.3504" y="-208.2" font-family="Times,serif" font-size="14.00" fill="#000000">LocationProcessor</text>
</g>
<!-- 4ff9dd79&#45;e891&#45;40a9&#45;bc40&#45;3a060e76a103&#45;&gt;657af0f5&#45;4b3d&#45;44c1&#45;a248&#45;ef1ebbf2e718 -->
<g id="edge6" class="edge">
<title>4ff9dd79&#45;e891&#45;40a9&#45;bc40&#45;3a060e76a103&#45;&gt;657af0f5&#45;4b3d&#45;44c1&#45;a248&#45;ef1ebbf2e718</title>
<path fill="none" stroke="#000000" d="M573.3672,-220.8C594.0067,-220.8 616.9575,-220.8 637.9937,-220.8"/>
<polygon fill="#000000" stroke="#000000" points="638.1483,-224.3001 648.1483,-220.8 638.1483,-217.3001 638.1483,-224.3001"/>
</g>
<!-- c8f2b4c1&#45;986b&#45;40a8&#45;8725&#45;1bbfd19208b6 -->
<g id="node7" class="node">
<title>c8f2b4c1&#45;986b&#45;40a8&#45;8725&#45;1bbfd19208b6</title>
<polygon fill="#7fffd4" stroke="#7fffd4" points="755.2854,-395.4019 661.4154,-395.4019 661.4154,-354.1981 755.2854,-354.1981 755.2854,-395.4019"/>
<text text-anchor="middle" x="708.3504" y="-379" font-family="Times,serif" font-size="14.00" fill="#000000">@PerActivity</text>
<text text-anchor="middle" x="708.3504" y="-362.2" font-family="Times,serif" font-size="14.00" fill="#000000">Navigator</text>
</g>
<!-- 4ff9dd79&#45;e891&#45;40a9&#45;bc40&#45;3a060e76a103&#45;&gt;c8f2b4c1&#45;986b&#45;40a8&#45;8725&#45;1bbfd19208b6 -->
<g id="edge5" class="edge">
<title>4ff9dd79&#45;e891&#45;40a9&#45;bc40&#45;3a060e76a103&#45;&gt;c8f2b4c1&#45;986b&#45;40a8&#45;8725&#45;1bbfd19208b6</title>
<path fill="none" stroke="#000000" d="M535.7819,-241.5691C571.4233,-269.0859 634.3503,-317.6685 673.5672,-347.9457"/>
<polygon fill="#000000" stroke="#000000" points="671.503,-350.7739 681.5574,-354.1146 675.7808,-345.233 671.503,-350.7739"/>
</g>
<!-- 657af0f5&#45;4b3d&#45;44c1&#45;a248&#45;ef1ebbf2e718&#45;&gt;f6f95012&#45;63db&#45;4197&#45;b8b5&#45;fe843ca32950 -->
<g id="edge7" class="edge">
<title>657af0f5&#45;4b3d&#45;44c1&#45;a248&#45;ef1ebbf2e718&#45;&gt;f6f95012&#45;63db&#45;4197&#45;b8b5&#45;fe843ca32950</title>
<path fill="none" stroke="#000000" stroke-dasharray="5,2" d="M745.9315,-200.0812C798.9384,-171.9942 899.514,-122.8201 991.7656,-100.8 1055.2924,-85.6364 1073.7345,-100.1327 1138.3758,-90.8 1146.4869,-89.629 1148.2427,-87.8062 1156.3758,-86.8 1199.1548,-81.5077 1245.732,-78.8551 1288.8193,-77.6703"/>
<polygon fill="#000000" stroke="#000000" points="1288.9121,-81.1692 1298.8212,-77.4196 1288.7366,-74.1714 1288.9121,-81.1692"/>
<text text-anchor="middle" x="1253.1231" y="-64.8196" font-family="Times,serif" font-size="14.00" fill="#000000">Missing binding</text>
</g>
<!-- 2bd0af4e&#45;3276&#45;4e34&#45;9b3e&#45;25ba93133190 -->
<g id="node8" class="node">
<title>2bd0af4e&#45;3276&#45;4e34&#45;9b3e&#45;25ba93133190</title>
<polygon fill="#ffe4c4" stroke="#ffe4c4" points="968.5048,-241.4019 848.7038,-241.4019 848.7038,-200.1981 968.5048,-200.1981 968.5048,-241.4019"/>
<text text-anchor="middle" x="908.6043" y="-225" font-family="Times,serif" font-size="14.00" fill="#000000">@Singleton</text>
<text text-anchor="middle" x="908.6043" y="-208.2" font-family="Times,serif" font-size="14.00" fill="#000000">MessageProcessor</text>
</g>
<!-- 657af0f5&#45;4b3d&#45;44c1&#45;a248&#45;ef1ebbf2e718&#45;&gt;2bd0af4e&#45;3276&#45;4e34&#45;9b3e&#45;25ba93133190 -->
<g id="edge12" class="edge">
<title>657af0f5&#45;4b3d&#45;44c1&#45;a248&#45;ef1ebbf2e718&#45;&gt;2bd0af4e&#45;3276&#45;4e34&#45;9b3e&#45;25ba93133190</title>
<path fill="none" stroke="#000000" d="M768.7047,-214.5475C790.6756,-213.9687 815.6974,-213.8949 838.4458,-214.3262"/>
<polygon fill="#000000" stroke="#000000" points="838.6416,-217.8315 848.7186,-214.5599 838.8009,-210.8333 838.6416,-217.8315"/>
</g>
<!-- 16671e07&#45;d383&#45;4136&#45;a2f6&#45;f408f8f6467b -->
<g id="node9" class="node">
<title>16671e07&#45;d383&#45;4136&#45;a2f6&#45;f408f8f6467b</title>
<polygon fill="#ffe4c4" stroke="#ffe4c4" points="2135.6888,-340.4019 2053.5632,-340.4019 2053.5632,-299.1981 2135.6888,-299.1981 2135.6888,-340.4019"/>
<text text-anchor="middle" x="2094.626" y="-324" font-family="Times,serif" font-size="14.00" fill="#000000">@Singleton</text>
<text text-anchor="middle" x="2094.626" y="-307.2" font-family="Times,serif" font-size="14.00" fill="#000000">Preferences</text>
</g>
<!-- 657af0f5&#45;4b3d&#45;44c1&#45;a248&#45;ef1ebbf2e718&#45;&gt;16671e07&#45;d383&#45;4136&#45;a2f6&#45;f408f8f6467b -->
<g id="edge10" class="edge">
<title>657af0f5&#45;4b3d&#45;44c1&#45;a248&#45;ef1ebbf2e718&#45;&gt;16671e07&#45;d383&#45;4136&#45;a2f6&#45;f408f8f6467b</title>
<path fill="none" stroke="#000000" d="M718.1566,-241.5495C741.0531,-289.6701 796.7901,-404.8 805.943,-404.8 805.943,-404.8 805.943,-404.8 1065.0707,-404.8 1148.1316,-404.8 1171.5061,-393.1284 1251.69,-414.8 1269.5356,-419.6232 1270.7745,-429.2431 1288.69,-433.8 1379.404,-456.8734 1616.1796,-443.8 1709.782,-443.8 1709.782,-443.8 1709.782,-443.8 2015.8452,-443.8 2059.8351,-443.8 2080.3099,-387.5151 2088.9877,-350.7868"/>
<polygon fill="#000000" stroke="#000000" points="2092.508,-351.0715 2091.224,-340.5548 2085.6695,-349.5769 2092.508,-351.0715"/>
</g>
<!-- 6ed82d41&#45;bb73&#45;40a3&#45;bf78&#45;0c2748701e08 -->
<g id="node10" class="node">
<title>6ed82d41&#45;bb73&#45;40a3&#45;bf78&#45;0c2748701e08</title>
<polygon fill="#ffe4c4" stroke="#ffe4c4" points="1251.8476,-465.4019 1156.2182,-465.4019 1156.2182,-424.1981 1251.8476,-424.1981 1251.8476,-465.4019"/>
<text text-anchor="middle" x="1204.0329" y="-449" font-family="Times,serif" font-size="14.00" fill="#000000">@Singleton</text>
<text text-anchor="middle" x="1204.0329" y="-432.2" font-family="Times,serif" font-size="14.00" fill="#000000">LocationRepo</text>
</g>
<!-- 657af0f5&#45;4b3d&#45;44c1&#45;a248&#45;ef1ebbf2e718&#45;&gt;6ed82d41&#45;bb73&#45;40a3&#45;bf78&#45;0c2748701e08 -->
<g id="edge13" class="edge">
<title>657af0f5&#45;4b3d&#45;44c1&#45;a248&#45;ef1ebbf2e718&#45;&gt;6ed82d41&#45;bb73&#45;40a3&#45;bf78&#45;0c2748701e08</title>
<path fill="none" stroke="#000000" d="M719.9769,-241.7872C733.0665,-266.041 754.3429,-307.4203 768.443,-344.8 779.0227,-372.8471 763.3647,-390.6699 786.443,-409.8 839.7145,-453.9581 1044.3733,-451.8177 1146.0355,-447.8019"/>
<polygon fill="#000000" stroke="#000000" points="1146.2886,-451.2945 1156.1351,-447.3833 1145.9987,-444.3005 1146.2886,-451.2945"/>
</g>
<!-- 17815fa5&#45;e3b6&#45;4dec&#45;ab1a&#45;103ebc75048e -->
<g id="node11" class="node">
<title>17815fa5&#45;e3b6&#45;4dec&#45;ab1a&#45;103ebc75048e</title>
<polygon fill="#ffe4c4" stroke="#ffe4c4" points="1138.1814,-89.4019 991.96,-89.4019 991.96,-48.1981 1138.1814,-48.1981 1138.1814,-89.4019"/>
<text text-anchor="middle" x="1065.0707" y="-73" font-family="Times,serif" font-size="14.00" fill="#000000">@Singleton</text>
<text text-anchor="middle" x="1065.0707" y="-56.2" font-family="Times,serif" font-size="14.00" fill="#000000">DeviceMetricsProvider</text>
</g>
<!-- 657af0f5&#45;4b3d&#45;44c1&#45;a248&#45;ef1ebbf2e718&#45;&gt;17815fa5&#45;e3b6&#45;4dec&#45;ab1a&#45;103ebc75048e -->
<g id="edge11" class="edge">
<title>657af0f5&#45;4b3d&#45;44c1&#45;a248&#45;ef1ebbf2e718&#45;&gt;17815fa5&#45;e3b6&#45;4dec&#45;ab1a&#45;103ebc75048e</title>
<path fill="none" stroke="#000000" d="M714.2577,-199.826C723.9102,-169.8813 746.1482,-115.7453 786.443,-90.8 844.5546,-54.8248 923.0667,-51.7769 981.9388,-56.3135"/>
<polygon fill="#000000" stroke="#000000" points="981.6889,-59.8049 991.9514,-57.1721 982.287,-52.8305 981.6889,-59.8049"/>
</g>
<!-- c8f2b4c1&#45;986b&#45;40a8&#45;8725&#45;1bbfd19208b6&#45;&gt;6fe45713&#45;e90e&#45;4ff2&#45;9986&#45;1d2ae329d872 -->
<g id="edge1" class="edge">
<title>c8f2b4c1&#45;986b&#45;40a8&#45;8725&#45;1bbfd19208b6&#45;&gt;6fe45713&#45;e90e&#45;4ff2&#45;9986&#45;1d2ae329d872</title>
<path fill="none" stroke="#000000" d="M729.5328,-395.5043C744.5177,-409.3486 765.5806,-427.2569 786.443,-439.8 802.517,-449.4642 820.7993,-458.0595 838.2349,-465.2817"/>
<polygon fill="#000000" stroke="#000000" points="837.2318,-468.6512 847.8148,-469.1508 839.8532,-462.1605 837.2318,-468.6512"/>
</g>
<!-- 2bd0af4e&#45;3276&#45;4e34&#45;9b3e&#45;25ba93133190&#45;&gt;f6f95012&#45;63db&#45;4197&#45;b8b5&#45;fe843ca32950 -->
<g id="edge8" class="edge">
<title>2bd0af4e&#45;3276&#45;4e34&#45;9b3e&#45;25ba93133190&#45;&gt;f6f95012&#45;63db&#45;4197&#45;b8b5&#45;fe843ca32950</title>
<path fill="none" stroke="#000000" stroke-dasharray="5,2" d="M918.4828,-200.168C931.4948,-175.5523 956.8808,-135.3967 991.7656,-116.8 1005.047,-109.7198 1162.6306,-97.6793 1288.7547,-89.048"/>
<polygon fill="#000000" stroke="#000000" points="1289.1901,-92.5265 1298.9288,-88.3544 1288.7139,-85.5428 1289.1901,-92.5265"/>
<text text-anchor="middle" x="1253.2307" y="-92.5544" font-family="Times,serif" font-size="14.00" fill="#000000">Missing binding</text>
</g>
<!-- 2bd0af4e&#45;3276&#45;4e34&#45;9b3e&#45;25ba93133190&#45;&gt;657af0f5&#45;4b3d&#45;44c1&#45;a248&#45;ef1ebbf2e718 -->
<g id="edge9" class="edge">
<title>2bd0af4e&#45;3276&#45;4e34&#45;9b3e&#45;25ba93133190&#45;&gt;657af0f5&#45;4b3d&#45;44c1&#45;a248&#45;ef1ebbf2e718</title>
<path fill="none" stroke="#000000" d="M848.7186,-227.0401C826.7914,-227.6261 801.7755,-227.707 778.995,-227.2829"/>
<polygon fill="#000000" stroke="#000000" points="778.7806,-223.7773 768.7047,-227.0525 778.6239,-230.7756 778.7806,-223.7773"/>
</g>
<!-- 2bd0af4e&#45;3276&#45;4e34&#45;9b3e&#45;25ba93133190&#45;&gt;16671e07&#45;d383&#45;4136&#45;a2f6&#45;f408f8f6467b -->
<g id="edge22" class="edge">
<title>2bd0af4e&#45;3276&#45;4e34&#45;9b3e&#45;25ba93133190&#45;&gt;16671e07&#45;d383&#45;4136&#45;a2f6&#45;f408f8f6467b</title>
<path fill="none" stroke="#000000" d="M949.5039,-241.4421C1005.4735,-267.7336 1109.7557,-309.8 1204.0329,-309.8 1204.0329,-309.8 1204.0329,-309.8 2015.8452,-309.8 2024.7604,-309.8 2034.1983,-310.438 2043.3259,-311.3918"/>
<polygon fill="#000000" stroke="#000000" points="2043.1142,-314.891 2053.4551,-312.5856 2043.9336,-307.9391 2043.1142,-314.891"/>
</g>
<!-- 0a7e61b3&#45;da9d&#45;4574&#45;b3e6&#45;ddc4cb924771 -->
<g id="node12" class="node">
<title>0a7e61b3&#45;da9d&#45;4574&#45;b3e6&#45;ddc4cb924771</title>
<polygon fill="#ff3030" stroke="#ff3030" points="2679.9248,-153.8 2210.9008,-153.8 2210.9008,-117.8 2679.9248,-117.8 2679.9248,-153.8"/>
<text text-anchor="middle" x="2445.4128" y="-131.6" font-family="Times,serif" font-size="14.00" fill="#000000">@org.owntracks.android.injection.qualifier.AppContext android.content.Context</text>
</g>
<!-- 2bd0af4e&#45;3276&#45;4e34&#45;9b3e&#45;25ba93133190&#45;&gt;0a7e61b3&#45;da9d&#45;4574&#45;b3e6&#45;ddc4cb924771 -->
<g id="edge15" class="edge">
<title>2bd0af4e&#45;3276&#45;4e34&#45;9b3e&#45;25ba93133190&#45;&gt;0a7e61b3&#45;da9d&#45;4574&#45;b3e6&#45;ddc4cb924771</title>
<path fill="none" stroke="#000000" stroke-dasharray="5,2" d="M940.4743,-200C955.4372,-191.2883 973.8841,-181.9948 991.7656,-176.8 1062.2398,-156.3264 1083.1469,-168.6279 1156.3758,-163.8 1300.6497,-154.2883 1632.3383,-135.8 1709.782,-135.8 1709.782,-135.8 1709.782,-135.8 2173.4068,-135.8 2182.3368,-135.8 2191.4317,-135.8 2200.6184,-135.8"/>
<polygon fill="#000000" stroke="#000000" points="2200.6196,-139.3001 2210.6196,-135.8 2200.6195,-132.3001 2200.6196,-139.3001"/>
<text text-anchor="middle" x="2164.9215" y="-123.2" font-family="Times,serif" font-size="14.00" fill="#000000">Missing binding</text>
</g>
<!-- 9296a9ff&#45;46bf&#45;4bc9&#45;8a21&#45;2163d701ea15 -->
<g id="node13" class="node">
<title>9296a9ff&#45;46bf&#45;4bc9&#45;8a21&#45;2163d701ea15</title>
<polygon fill="#ff3030" stroke="#ff3030" points="2550.4178,-337.8 2340.4078,-337.8 2340.4078,-301.8 2550.4178,-301.8 2550.4178,-337.8"/>
<text text-anchor="middle" x="2445.4128" y="-315.6" font-family="Times,serif" font-size="14.00" fill="#000000">org.greenrobot.eventbus.EventBus</text>
</g>
<!-- 2bd0af4e&#45;3276&#45;4e34&#45;9b3e&#45;25ba93133190&#45;&gt;9296a9ff&#45;46bf&#45;4bc9&#45;8a21&#45;2163d701ea15 -->
<g id="edge20" class="edge">
<title>2bd0af4e&#45;3276&#45;4e34&#45;9b3e&#45;25ba93133190&#45;&gt;9296a9ff&#45;46bf&#45;4bc9&#45;8a21&#45;2163d701ea15</title>
<path fill="none" stroke="#000000" stroke-dasharray="5,2" d="M968.536,-225.6287C1028.1894,-230.0136 1122.3772,-235.8 1204.0329,-235.8 1204.0329,-235.8 1204.0329,-235.8 2154.4068,-235.8 2243.6341,-235.8 2342.4273,-272.7045 2398.9042,-297.5909"/>
<polygon fill="#000000" stroke="#000000" points="2397.7135,-300.8924 2408.2711,-301.7799 2400.5713,-294.5023 2397.7135,-300.8924"/>
<text text-anchor="middle" x="2362.573" y="-289.1799" font-family="Times,serif" font-size="14.00" fill="#000000">Missing binding</text>
</g>
<!-- e39398cf&#45;481c&#45;44b0&#45;bc02&#45;cd63a93afc52 -->
<g id="node14" class="node">
<title>e39398cf&#45;481c&#45;44b0&#45;bc02&#45;cd63a93afc52</title>
<polygon fill="#ff3030" stroke="#ff3030" points="1589.304,-424.8 1305.0228,-424.8 1305.0228,-388.8 1589.304,-388.8 1589.304,-424.8"/>
<text text-anchor="middle" x="1447.1634" y="-402.6" font-family="Times,serif" font-size="14.00" fill="#000000">org.owntracks.android.data.repos.ContactsRepo</text>
</g>
<!-- 2bd0af4e&#45;3276&#45;4e34&#45;9b3e&#45;25ba93133190&#45;&gt;e39398cf&#45;481c&#45;44b0&#45;bc02&#45;cd63a93afc52 -->
<g id="edge19" class="edge">
<title>2bd0af4e&#45;3276&#45;4e34&#45;9b3e&#45;25ba93133190&#45;&gt;e39398cf&#45;481c&#45;44b0&#45;bc02&#45;cd63a93afc52</title>
<path fill="none" stroke="#000000" stroke-dasharray="5,2" d="M916.8445,-241.649C928.8905,-269.1841 954.0562,-316.9645 991.7656,-340.8 1041.0925,-371.9787 1182.4263,-389.0657 1294.6925,-397.9907"/>
<polygon fill="#000000" stroke="#000000" points="1294.5328,-401.4888 1304.7746,-398.7766 1295.0769,-394.5099 1294.5328,-401.4888"/>
<text text-anchor="middle" x="1259.0765" y="-386.1766" font-family="Times,serif" font-size="14.00" fill="#000000">Missing binding</text>
</g>
<!-- 008dabfb&#45;a9ab&#45;4ddf&#45;bacb&#45;0afe6615664b -->
<g id="node15" class="node">
<title>008dabfb&#45;a9ab&#45;4ddf&#45;bacb&#45;0afe6615664b</title>
<polygon fill="#ffe4c4" stroke="#ffe4c4" points="1488.2262,-370.4019 1406.1006,-370.4019 1406.1006,-329.1981 1488.2262,-329.1981 1488.2262,-370.4019"/>
<text text-anchor="middle" x="1447.1634" y="-354" font-family="Times,serif" font-size="14.00" fill="#000000">@Singleton</text>
<text text-anchor="middle" x="1447.1634" y="-337.2" font-family="Times,serif" font-size="14.00" fill="#000000">Parser</text>
</g>
<!-- 2bd0af4e&#45;3276&#45;4e34&#45;9b3e&#45;25ba93133190&#45;&gt;008dabfb&#45;a9ab&#45;4ddf&#45;bacb&#45;0afe6615664b -->
<g id="edge17" class="edge">
<title>2bd0af4e&#45;3276&#45;4e34&#45;9b3e&#45;25ba93133190&#45;&gt;008dabfb&#45;a9ab&#45;4ddf&#45;bacb&#45;0afe6615664b</title>
<path fill="none" stroke="#000000" d="M920.2047,-241.5119C934.0283,-263.9486 959.381,-298.6904 991.7656,-314.8 1125.1062,-381.1299 1307.9094,-368.9727 1395.83,-357.7907"/>
<polygon fill="#000000" stroke="#000000" points="1396.3624,-361.2509 1405.8182,-356.472 1395.4461,-354.3111 1396.3624,-361.2509"/>
</g>
<!-- 7efb194b&#45;980e&#45;4a5c&#45;87e3&#45;eff3a17a29f3 -->
<g id="node16" class="node">
<title>7efb194b&#45;980e&#45;4a5c&#45;87e3&#45;eff3a17a29f3</title>
<polygon fill="#ffe4c4" stroke="#ffe4c4" points="1956.199,-196.4019 1874.0734,-196.4019 1874.0734,-155.1981 1956.199,-155.1981 1956.199,-196.4019"/>
<text text-anchor="middle" x="1915.1362" y="-180" font-family="Times,serif" font-size="14.00" fill="#000000">@Singleton</text>
<text text-anchor="middle" x="1915.1362" y="-163.2" font-family="Times,serif" font-size="14.00" fill="#000000">Scheduler</text>
</g>
<!-- 2bd0af4e&#45;3276&#45;4e34&#45;9b3e&#45;25ba93133190&#45;&gt;7efb194b&#45;980e&#45;4a5c&#45;87e3&#45;eff3a17a29f3 -->
<g id="edge18" class="edge">
<title>2bd0af4e&#45;3276&#45;4e34&#45;9b3e&#45;25ba93133190&#45;&gt;7efb194b&#45;980e&#45;4a5c&#45;87e3&#45;eff3a17a29f3</title>
<path fill="none" stroke="#000000" d="M968.5097,-209.6658C976.324,-208.3101 984.2297,-206.9866 991.7656,-205.8 1123.3033,-185.0876 1155.8299,-174.7088 1288.69,-165.8 1429.2396,-156.3755 1464.7899,-163.5252 1605.6368,-165.8 1696.3396,-167.2649 1801.9362,-171.1433 1863.386,-173.617"/>
<polygon fill="#000000" stroke="#000000" points="1863.4624,-177.1229 1873.5962,-174.0315 1863.7464,-170.1287 1863.4624,-177.1229"/>
</g>
<!-- 980162f6&#45;ed6d&#45;4e26&#45;97eb&#45;69651987e60f -->
<g id="node17" class="node">
<title>980162f6&#45;ed6d&#45;4e26&#45;97eb&#45;69651987e60f</title>
<polygon fill="#ffe4c4" stroke="#ffe4c4" points="1495.2434,-216.4019 1399.0834,-216.4019 1399.0834,-175.1981 1495.2434,-175.1981 1495.2434,-216.4019"/>
<text text-anchor="middle" x="1447.1634" y="-200" font-family="Times,serif" font-size="14.00" fill="#000000">@Singleton</text>
<text text-anchor="middle" x="1447.1634" y="-183.2" font-family="Times,serif" font-size="14.00" fill="#000000">ServiceBridge</text>
</g>
<!-- 2bd0af4e&#45;3276&#45;4e34&#45;9b3e&#45;25ba93133190&#45;&gt;980162f6&#45;ed6d&#45;4e26&#45;97eb&#45;69651987e60f -->
<g id="edge14" class="edge">
<title>2bd0af4e&#45;3276&#45;4e34&#45;9b3e&#45;25ba93133190&#45;&gt;980162f6&#45;ed6d&#45;4e26&#45;97eb&#45;69651987e60f</title>
<path fill="none" stroke="#000000" d="M968.5565,-218.017C1072.73,-213.1813 1285.86,-203.2877 1388.8666,-198.5061"/>
<polygon fill="#000000" stroke="#000000" points="1389.2539,-201.992 1399.0808,-198.032 1388.9292,-194.9996 1389.2539,-201.992"/>
</g>
<!-- 76c6be62&#45;b603&#45;44ec&#45;abcc&#45;caabd3f82f0e -->
<g id="node18" class="node">
<title>76c6be62&#45;b603&#45;44ec&#45;abcc&#45;caabd3f82f0e</title>
<polygon fill="#ffe4c4" stroke="#ffe4c4" points="1796.0726,-129.4019 1623.4914,-129.4019 1623.4914,-88.1981 1796.0726,-88.1981 1796.0726,-129.4019"/>
<text text-anchor="middle" x="1709.782" y="-113" font-family="Times,serif" font-size="14.00" fill="#000000">@Singleton</text>
<text text-anchor="middle" x="1709.782" y="-96.2" font-family="Times,serif" font-size="14.00" fill="#000000">RunThingsOnOtherThreads</text>
</g>
<!-- 2bd0af4e&#45;3276&#45;4e34&#45;9b3e&#45;25ba93133190&#45;&gt;76c6be62&#45;b603&#45;44ec&#45;abcc&#45;caabd3f82f0e -->
<g id="edge16" class="edge">
<title>2bd0af4e&#45;3276&#45;4e34&#45;9b3e&#45;25ba93133190&#45;&gt;76c6be62&#45;b603&#45;44ec&#45;abcc&#45;caabd3f82f0e</title>
<path fill="none" stroke="#000000" d="M921.9686,-200.1819C936.4306,-179.9039 961.5268,-150.1119 991.7656,-136.8 1047.1292,-112.4275 1430.7648,-108.9137 1613.462,-108.6421"/>
<polygon fill="#000000" stroke="#000000" points="1613.6091,-112.142 1623.6049,-108.63 1613.6008,-105.142 1613.6091,-112.142"/>
</g>
<!-- d06c7bf4&#45;cd8e&#45;4273&#45;b2bb&#45;4c9797f662f8 -->
<g id="node19" class="node">
<title>d06c7bf4&#45;cd8e&#45;4273&#45;b2bb&#45;4c9797f662f8</title>
<polygon fill="#ff3030" stroke="#ff3030" points="1605.6102,-290.8 1288.7166,-290.8 1288.7166,-254.8 1605.6102,-254.8 1605.6102,-290.8"/>
<text text-anchor="middle" x="1447.1634" y="-268.6" font-family="Times,serif" font-size="14.00" fill="#000000">androidx.test.espresso.idling.CountingIdlingResource</text>
</g>
<!-- 2bd0af4e&#45;3276&#45;4e34&#45;9b3e&#45;25ba93133190&#45;&gt;d06c7bf4&#45;cd8e&#45;4273&#45;b2bb&#45;4c9797f662f8 -->
<g id="edge21" class="edge">
<title>2bd0af4e&#45;3276&#45;4e34&#45;9b3e&#45;25ba93133190&#45;&gt;d06c7bf4&#45;cd8e&#45;4273&#45;b2bb&#45;4c9797f662f8</title>
<path fill="none" stroke="#000000" stroke-dasharray="5,2" d="M968.3279,-236.4166C976.1719,-238.0982 984.1342,-239.6225 991.7656,-240.8 1086.0434,-255.3462 1192.3344,-263.2879 1278.5029,-267.6201"/>
<polygon fill="#000000" stroke="#000000" points="1278.4819,-271.1231 1288.6415,-268.1178 1278.8252,-264.1316 1278.4819,-271.1231"/>
<text text-anchor="middle" x="1242.9434" y="-255.5178" font-family="Times,serif" font-size="14.00" fill="#000000">Missing binding</text>
</g>
<!-- 16671e07&#45;d383&#45;4136&#45;a2f6&#45;f408f8f6467b&#45;&gt;0a7e61b3&#45;da9d&#45;4574&#45;b3e6&#45;ddc4cb924771 -->
<g id="edge25" class="edge">
<title>16671e07&#45;d383&#45;4136&#45;a2f6&#45;f408f8f6467b&#45;&gt;0a7e61b3&#45;da9d&#45;4574&#45;b3e6&#45;ddc4cb924771</title>
<path fill="none" stroke="#000000" stroke-dasharray="5,2" d="M2134.1838,-299.0505C2200.3256,-264.3569 2332.8717,-194.8318 2401.6902,-158.734"/>
<polygon fill="#000000" stroke="#000000" points="2403.7344,-161.6141 2410.9643,-153.8694 2400.4828,-155.4151 2403.7344,-161.6141"/>
<text text-anchor="middle" x="2365.2662" y="-158.0694" font-family="Times,serif" font-size="14.00" fill="#000000">Missing binding</text>
</g>
<!-- 16671e07&#45;d383&#45;4136&#45;a2f6&#45;f408f8f6467b&#45;&gt;9296a9ff&#45;46bf&#45;4bc9&#45;8a21&#45;2163d701ea15 -->
<g id="edge26" class="edge">
<title>16671e07&#45;d383&#45;4136&#45;a2f6&#45;f408f8f6467b&#45;&gt;9296a9ff&#45;46bf&#45;4bc9&#45;8a21&#45;2163d701ea15</title>
<path fill="none" stroke="#000000" stroke-dasharray="5,2" d="M2135.8972,-319.8C2183.3564,-319.8 2263.3133,-319.8 2330.0705,-319.8"/>
<polygon fill="#000000" stroke="#000000" points="2330.2409,-323.3001 2340.2409,-319.8 2330.2408,-316.3001 2330.2409,-323.3001"/>
<text text-anchor="middle" x="2294.5428" y="-307.2" font-family="Times,serif" font-size="14.00" fill="#000000">Missing binding</text>
</g>
<!-- d8fde96b&#45;932a&#45;4dbc&#45;bb44&#45;ad0f4943aa6e -->
<g id="node20" class="node">
<title>d8fde96b&#45;932a&#45;4dbc&#45;bb44&#45;ad0f4943aa6e</title>
<polygon fill="#ff3030" stroke="#ff3030" points="2622.1965,-461.8 2268.6291,-461.8 2268.6291,-425.8 2622.1965,-425.8 2622.1965,-461.8"/>
<text text-anchor="middle" x="2445.4128" y="-439.6" font-family="Times,serif" font-size="14.00" fill="#000000">org.owntracks.android.support.preferences.PreferencesStore</text>
</g>
<!-- 16671e07&#45;d383&#45;4136&#45;a2f6&#45;f408f8f6467b&#45;&gt;d8fde96b&#45;932a&#45;4dbc&#45;bb44&#45;ad0f4943aa6e -->
<g id="edge27" class="edge">
<title>16671e07&#45;d383&#45;4136&#45;a2f6&#45;f408f8f6467b&#45;&gt;d8fde96b&#45;932a&#45;4dbc&#45;bb44&#45;ad0f4943aa6e</title>
<path fill="none" stroke="#000000" stroke-dasharray="5,2" d="M2135.8972,-334.389C2197.3891,-356.1258 2313.4379,-397.1481 2384.6436,-422.3186"/>
<polygon fill="#000000" stroke="#000000" points="2383.7883,-425.7285 2394.383,-425.7614 2386.1213,-419.1287 2383.7883,-425.7285"/>
<text text-anchor="middle" x="2348.6849" y="-413.1614" font-family="Times,serif" font-size="14.00" fill="#000000">Missing binding</text>
</g>
<!-- 6ed82d41&#45;bb73&#45;40a3&#45;bf78&#45;0c2748701e08&#45;&gt;9296a9ff&#45;46bf&#45;4bc9&#45;8a21&#45;2163d701ea15 -->
<g id="edge28" class="edge">
<title>6ed82d41&#45;bb73&#45;40a3&#45;bf78&#45;0c2748701e08&#45;&gt;9296a9ff&#45;46bf&#45;4bc9&#45;8a21&#45;2163d701ea15</title>
<path fill="none" stroke="#000000" stroke-dasharray="5,2" d="M1251.9236,-450.7596C1300.8961,-456.3317 1379.2095,-463.8 1447.1634,-463.8 1447.1634,-463.8 1447.1634,-463.8 2154.4068,-463.8 2187.0704,-463.8 2182.942,-433.6785 2210.9068,-416.8 2264.3697,-384.5317 2330.5164,-358.2607 2378.914,-341.2374"/>
<polygon fill="#000000" stroke="#000000" points="2380.3576,-344.4411 2388.6541,-337.8518 2378.0593,-337.8291 2380.3576,-344.4411"/>
<text text-anchor="middle" x="2342.956" y="-342.0518" font-family="Times,serif" font-size="14.00" fill="#000000">Missing binding</text>
</g>
<!-- 17815fa5&#45;e3b6&#45;4dec&#45;ab1a&#45;103ebc75048e&#45;&gt;0a7e61b3&#45;da9d&#45;4574&#45;b3e6&#45;ddc4cb924771 -->
<g id="edge29" class="edge">
<title>17815fa5&#45;e3b6&#45;4dec&#45;ab1a&#45;103ebc75048e&#45;&gt;0a7e61b3&#45;da9d&#45;4574&#45;b3e6&#45;ddc4cb924771</title>
<path fill="none" stroke="#000000" stroke-dasharray="5,2" d="M1138.212,-60.5524C1215.0384,-52.6122 1339.4319,-41.8 1447.1634,-41.8 1447.1634,-41.8 1447.1634,-41.8 2173.4068,-41.8 2260.1327,-41.8 2354.3028,-85.0153 2405.951,-112.8426"/>
<polygon fill="#000000" stroke="#000000" points="2404.3308,-115.9457 2414.7834,-117.6759 2407.6912,-109.805 2404.3308,-115.9457"/>
<text text-anchor="middle" x="2369.0853" y="-105.0759" font-family="Times,serif" font-size="14.00" fill="#000000">Missing binding</text>
</g>
<!-- dd476f5d&#45;60dc&#45;45e3&#45;a7e7&#45;f896c01b5f66 -->
<g id="node21" class="node">
<title>dd476f5d&#45;60dc&#45;45e3&#45;a7e7&#45;f896c01b5f66</title>
<polygon fill="#ffe4c4" stroke="#ffe4c4" points="1978.5549,-370.4019 1851.7175,-370.4019 1851.7175,-329.1981 1978.5549,-329.1981 1978.5549,-370.4019"/>
<text text-anchor="middle" x="1915.1362" y="-354" font-family="Times,serif" font-size="14.00" fill="#000000">@Singleton</text>
<text text-anchor="middle" x="1915.1362" y="-337.2" font-family="Times,serif" font-size="14.00" fill="#000000">EncryptionProvider</text>
</g>
<!-- 008dabfb&#45;a9ab&#45;4ddf&#45;bacb&#45;0afe6615664b&#45;&gt;dd476f5d&#45;60dc&#45;45e3&#45;a7e7&#45;f896c01b5f66 -->
<g id="edge32" class="edge">
<title>008dabfb&#45;a9ab&#45;4ddf&#45;bacb&#45;0afe6615664b&#45;&gt;dd476f5d&#45;60dc&#45;45e3&#45;a7e7&#45;f896c01b5f66</title>
<path fill="none" stroke="#000000" d="M1488.2827,-349.8C1567.4466,-349.8 1741.9894,-349.8 1841.6254,-349.8"/>
<polygon fill="#000000" stroke="#000000" points="1841.9145,-353.3001 1851.9145,-349.8 1841.9145,-346.3001 1841.9145,-353.3001"/>
</g>
<!-- 7efb194b&#45;980e&#45;4a5c&#45;87e3&#45;eff3a17a29f3&#45;&gt;16671e07&#45;d383&#45;4136&#45;a2f6&#45;f408f8f6467b -->
<g id="edge23" class="edge">
<title>7efb194b&#45;980e&#45;4a5c&#45;87e3&#45;eff3a17a29f3&#45;&gt;16671e07&#45;d383&#45;4136&#45;a2f6&#45;f408f8f6467b</title>
<path fill="none" stroke="#000000" d="M1940.8527,-196.4317C1972.3515,-221.7024 2025.808,-264.5891 2060.6627,-292.5522"/>
<polygon fill="#000000" stroke="#000000" points="2058.6757,-295.4452 2068.666,-298.9729 2063.0561,-289.9851 2058.6757,-295.4452"/>
</g>
<!-- 7efb194b&#45;980e&#45;4a5c&#45;87e3&#45;eff3a17a29f3&#45;&gt;0a7e61b3&#45;da9d&#45;4574&#45;b3e6&#45;ddc4cb924771 -->
<g id="edge31" class="edge">
<title>7efb194b&#45;980e&#45;4a5c&#45;87e3&#45;eff3a17a29f3&#45;&gt;0a7e61b3&#45;da9d&#45;4574&#45;b3e6&#45;ddc4cb924771</title>
<path fill="none" stroke="#000000" stroke-dasharray="5,2" d="M1956.2037,-169.8674C1974.4304,-167.7141 1996.1666,-165.8 2015.8452,-165.8 2015.8452,-165.8 2015.8452,-165.8 2173.4068,-165.8 2222.4268,-165.8 2276.1183,-160.9267 2322.7525,-155.1083"/>
<polygon fill="#000000" stroke="#000000" points="2323.4226,-158.5513 2332.8993,-153.8139 2322.5367,-151.6076 2323.4226,-158.5513"/>
<text text-anchor="middle" x="2287.2012" y="-158.0139" font-family="Times,serif" font-size="14.00" fill="#000000">Missing binding</text>
</g>
<!-- 76c6be62&#45;b603&#45;44ec&#45;abcc&#45;caabd3f82f0e&#45;&gt;0a7e61b3&#45;da9d&#45;4574&#45;b3e6&#45;ddc4cb924771 -->
<g id="edge30" class="edge">
<title>76c6be62&#45;b603&#45;44ec&#45;abcc&#45;caabd3f82f0e&#45;&gt;0a7e61b3&#45;da9d&#45;4574&#45;b3e6&#45;ddc4cb924771</title>
<path fill="none" stroke="#000000" stroke-dasharray="5,2" d="M1796.2482,-111.4321C1808.7221,-111.6564 1821.4026,-111.8 1833.4272,-111.8 1833.4272,-111.8 1833.4272,-111.8 2173.4068,-111.8 2209.5896,-111.8 2248.3754,-113.9333 2284.9958,-116.9279"/>
<polygon fill="#000000" stroke="#000000" points="2285.0043,-120.441 2295.2633,-117.7943 2285.593,-113.4658 2285.0043,-120.441"/>
<text text-anchor="middle" x="2249.5652" y="-105.1943" font-family="Times,serif" font-size="14.00" fill="#000000">Missing binding</text>
</g>
<!-- dd476f5d&#45;60dc&#45;45e3&#45;a7e7&#45;f896c01b5f66&#45;&gt;16671e07&#45;d383&#45;4136&#45;a2f6&#45;f408f8f6467b -->
<g id="edge24" class="edge">
<title>dd476f5d&#45;60dc&#45;45e3&#45;a7e7&#45;f896c01b5f66&#45;&gt;16671e07&#45;d383&#45;4136&#45;a2f6&#45;f408f8f6467b</title>
<path fill="none" stroke="#000000" d="M1978.4176,-339.2231C1999.7442,-335.6586 2023.2604,-331.7281 2043.5266,-328.3408"/>
<polygon fill="#000000" stroke="#000000" points="2044.2079,-331.7755 2053.494,-326.6748 2043.0538,-324.8713 2044.2079,-331.7755"/>
</g>
</g>
</svg>
