<svg width="2394px" height="342px"
 viewBox="0.00 0.00 2393.55 341.60" xmlns="http://www.w3.org/2000/svg" xmlns:xlink="http://www.w3.org/1999/xlink">
<g id="graph0" class="graph" transform="scale(1.0 1.0) rotate(0) translate(14.4 327.2)">
<title>org.owntracks.android.injection.modules.AndroidBindingModule_BindBackgroundServiceReceiver</title>
<polygon fill="#ffffff" stroke="transparent" points="-14.4,14.4 -14.4,-327.2 2379.1484,-327.2 2379.1484,14.4 -14.4,14.4"/>
<text text-anchor="middle" x="172.8514" y="-8.2" font-family="Times,serif" font-size="14.00" fill="#000000">AndroidBindingModule_BindBackgroundServiceReceiver</text>
<g id="clust2" class="cluster">
<title>cluster_Dependency Graph</title>
<polygon fill="none" stroke="#000000" points="8,-32.8 8,-304.8 1619.3084,-304.8 1619.3084,-32.8 8,-32.8"/>
<text text-anchor="middle" x="70.2234" y="-288.2" font-family="Times,serif" font-size="14.00" fill="#000000">Dependency Graph</text>
</g>
<g id="clust3" class="cluster">
<title>cluster_Map&lt;Class&lt;?&gt;, AndroidInjector.Factory&lt;?&gt;&gt;</title>
<path fill="none" stroke="#000000" d="M116.8863,-194.8C116.8863,-194.8 1148.379,-194.8 1148.379,-194.8 1154.379,-194.8 1160.379,-200.8 1160.379,-206.8 1160.379,-206.8 1160.379,-259.8 1160.379,-259.8 1160.379,-265.8 1154.379,-271.8 1148.379,-271.8 1148.379,-271.8 116.8863,-271.8 116.8863,-271.8 110.8863,-271.8 104.8863,-265.8 104.8863,-259.8 104.8863,-259.8 104.8863,-206.8 104.8863,-206.8 104.8863,-200.8 110.8863,-194.8 116.8863,-194.8"/>
<text text-anchor="middle" x="632.6326" y="-255.2" font-family="Times,serif" font-size="14.00" fill="#000000">Map&lt;Class&lt;?&gt;, AndroidInjector.Factory&lt;?&gt;&gt;</text>
</g>
<g id="clust4" class="cluster">
<title>cluster_Subcomponents</title>
<polygon fill="none" stroke="#000000" points="1720.9634,-191.8 1720.9634,-274.8 2356.7484,-274.8 2356.7484,-191.8 1720.9634,-191.8"/>
<text text-anchor="middle" x="1773.6822" y="-258.2" font-family="Times,serif" font-size="14.00" fill="#000000">Subcomponents</text>
</g>
<!-- e78ccfff&#45;0899&#45;4703&#45;b05d&#45;d970a48ff22a -->
<g id="node1" class="node">
<title>e78ccfff&#45;0899&#45;4703&#45;b05d&#45;d970a48ff22a</title>
<polygon fill="#40e0d0" stroke="#40e0d0" points="1152.5626,-238.8 635.8284,-238.8 635.8284,-202.8 1152.5626,-202.8 1152.5626,-238.8"/>
<text text-anchor="middle" x="894.1955" y="-216.6" font-family="Times,serif" font-size="14.00" fill="#000000">AndroidBindingModule_BindBackgroundServiceReceiver.bindAndroidInjectorFactory()</text>
</g>
<!-- 9e127db6&#45;45d4&#45;4d6c&#45;9d39&#45;38a0e2603a9a -->
<g id="node2" class="node">
<title>9e127db6&#45;45d4&#45;4d6c&#45;9d39&#45;38a0e2603a9a</title>
<polygon fill="#40e0d0" stroke="#40e0d0" points="1611.231,-249.4014 1278.5406,-249.4014 1278.5406,-192.1986 1611.231,-192.1986 1611.231,-249.4014"/>
<text text-anchor="middle" x="1444.8858" y="-233" font-family="Times,serif" font-size="14.00" fill="#000000">StartBackgroundServiceReceiverSubcomponent.Factory</text>
<text text-anchor="middle" x="1444.8858" y="-200.2" font-family="Times,serif" font-size="14.00" fill="#000000">Subcomponent Creator</text>
</g>
<!-- e78ccfff&#45;0899&#45;4703&#45;b05d&#45;d970a48ff22a&#45;&gt;9e127db6&#45;45d4&#45;4d6c&#45;9d39&#45;38a0e2603a9a -->
<g id="edge2" class="edge">
<title>e78ccfff&#45;0899&#45;4703&#45;b05d&#45;d970a48ff22a&#45;&gt;9e127db6&#45;45d4&#45;4d6c&#45;9d39&#45;38a0e2603a9a</title>
<path fill="none" stroke="#000000" stroke-dasharray="1,5" d="M1152.61,-220.8C1191.6914,-220.8 1231.2295,-220.8 1268.0588,-220.8"/>
<polygon fill="#000000" stroke="#000000" points="1268.3721,-224.3001 1278.3721,-220.8 1268.3721,-217.3001 1268.3721,-224.3001"/>
<text text-anchor="middle" x="1215.4211" y="-225" font-family="Times,serif" font-size="14.00" fill="#000000">delegates</text>
</g>
<!-- 8557e9d3&#45;9133&#45;456d&#45;80fd&#45;c811bf986a21 -->
<g id="node7" class="node">
<title>8557e9d3&#45;9133&#45;456d&#45;80fd&#45;c811bf986a21</title>
<g id="a_node7"><a xlink:href="full_org.owntracks.android.injection.modules.AndroidBindingModule_BindBackgroundServiceReceiver.StartBackgroundServiceReceiverSubcomponent.svg" xlink:title="@PerReceiver\nAndroidBindingModule_BindBackgroundServiceReceiver.StartBackgroundServiceReceiverSubcomponent">
<polygon fill="#7fffd4" stroke="#7fffd4" points="2348.6409,-241.4019 1729.0709,-241.4019 1729.0709,-200.1981 2348.6409,-200.1981 2348.6409,-241.4019"/>
<text text-anchor="middle" x="2038.8559" y="-225" font-family="Times,serif" font-size="14.00" fill="#000000">@PerReceiver</text>
<text text-anchor="middle" x="2038.8559" y="-208.2" font-family="Times,serif" font-size="14.00" fill="#000000">AndroidBindingModule_BindBackgroundServiceReceiver.StartBackgroundServiceReceiverSubcomponent</text>
</a>
</g>
</g>
<!-- 9e127db6&#45;45d4&#45;4d6c&#45;9d39&#45;38a0e2603a9a&#45;&gt;8557e9d3&#45;9133&#45;456d&#45;80fd&#45;c811bf986a21 -->
<g id="edge3" class="edge">
<title>9e127db6&#45;45d4&#45;4d6c&#45;9d39&#45;38a0e2603a9a&#45;&gt;8557e9d3&#45;9133&#45;456d&#45;80fd&#45;c811bf986a21:w</title>
<path fill="none" stroke="#000000" stroke-dasharray="5,2" d="M1611.56,-220.8C1646.6182,-220.8 1683.5791,-220.8 1718.5588,-220.8"/>
<polygon fill="#000000" stroke="#000000" points="1718.8559,-224.3001 1728.8559,-220.8 1718.8559,-217.3001 1718.8559,-224.3001"/>
<text text-anchor="middle" x="1670.1359" y="-225" font-family="Times,serif" font-size="14.00" fill="#000000">subcomponent</text>
</g>
<!-- 5741b833&#45;e3d3&#45;483b&#45;8fe8&#45;a921ac5be738 -->
<g id="node3" class="node">
<title>5741b833&#45;e3d3&#45;483b&#45;8fe8&#45;a921ac5be738</title>
<polygon fill="#ff3030" stroke="#ff3030" points="485.018,-184.8 15.994,-184.8 15.994,-148.8 485.018,-148.8 485.018,-184.8"/>
<text text-anchor="middle" x="250.506" y="-162.6" font-family="Times,serif" font-size="14.00" fill="#000000">@org.owntracks.android.injection.qualifier.AppContext android.content.Context</text>
</g>
<!-- 4682fe85&#45;3808&#45;4511&#45;9d9a&#45;8e5bb0c677d0 -->
<g id="node4" class="node">
<title>4682fe85&#45;3808&#45;4511&#45;9d9a&#45;8e5bb0c677d0</title>
<polygon fill="#ff3030" stroke="#ff3030" points="355.511,-130.8 145.501,-130.8 145.501,-94.8 355.511,-94.8 355.511,-130.8"/>
<text text-anchor="middle" x="250.506" y="-108.6" font-family="Times,serif" font-size="14.00" fill="#000000">org.greenrobot.eventbus.EventBus</text>
</g>
<!-- 7608c6be&#45;2388&#45;40a1&#45;b9c6&#45;c3a6a6f51245 -->
<g id="node5" class="node">
<title>7608c6be&#45;2388&#45;40a1&#45;b9c6&#45;c3a6a6f51245</title>
<polygon fill="#ff3030" stroke="#ff3030" points="427.2897,-76.8 73.7223,-76.8 73.7223,-40.8 427.2897,-40.8 427.2897,-76.8"/>
<text text-anchor="middle" x="250.506" y="-54.6" font-family="Times,serif" font-size="14.00" fill="#000000">org.owntracks.android.support.preferences.PreferencesStore</text>
</g>
<!-- f24e9448&#45;0bec&#45;49b2&#45;a57e&#45;f6cbc94c5967 -->
<g id="node6" class="node">
<title>f24e9448&#45;0bec&#45;49b2&#45;a57e&#45;f6cbc94c5967</title>
<polygon fill="#40e0d0" stroke="#40e0d0" points="388.2455,-238.8 124.7665,-238.8 124.7665,-242.8 112.7665,-242.8 112.7665,-202.8 388.2455,-202.8 388.2455,-238.8"/>
<polyline fill="none" stroke="#40e0d0" points="112.7665,-238.8 124.7665,-238.8 "/>
<text text-anchor="middle" x="250.506" y="-216.6" font-family="Times,serif" font-size="14.00" fill="#000000">Map&lt;Class&lt;?&gt;, AndroidInjector.Factory&lt;?&gt;&gt;</text>
</g>
<!-- f24e9448&#45;0bec&#45;49b2&#45;a57e&#45;f6cbc94c5967&#45;&gt;e78ccfff&#45;0899&#45;4703&#45;b05d&#45;d970a48ff22a -->
<g id="edge1" class="edge">
<title>f24e9448&#45;0bec&#45;49b2&#45;a57e&#45;f6cbc94c5967&#45;&gt;e78ccfff&#45;0899&#45;4703&#45;b05d&#45;d970a48ff22a</title>
<path fill="none" stroke="#000000" d="M388.1844,-220.8C431.2031,-220.8 478.8305,-220.8 522.512,-220.8 522.512,-220.8 522.512,-220.8 598.512,-220.8 607.4654,-220.8 616.5712,-220.8 625.7672,-220.8"/>
<polygon fill="#000000" stroke="#000000" points="625.7784,-224.3001 635.7783,-220.8 625.7783,-217.3001 625.7784,-224.3001"/>
</g>
</g>
</svg>
