<svg width="2247px" height="396px"
 viewBox="0.00 0.00 2246.90 395.60" xmlns="http://www.w3.org/2000/svg" xmlns:xlink="http://www.w3.org/1999/xlink">
<g id="graph0" class="graph" transform="scale(1.0 1.0) rotate(0) translate(14.4 381.2)">
<title>org.owntracks.android.injection.modules.AndroidBindingModule_BindLogViewerActivity</title>
<polygon fill="#ffffff" stroke="transparent" points="-14.4,14.4 -14.4,-381.2 2232.497,-381.2 2232.497,14.4 -14.4,14.4"/>
<text text-anchor="middle" x="147.5912" y="-8.2" font-family="Times,serif" font-size="14.00" fill="#000000">AndroidBindingModule_BindLogViewerActivity</text>
<g id="clust2" class="cluster">
<title>cluster_Dependency Graph</title>
<polygon fill="none" stroke="#000000" points="8,-32.8 8,-358.8 1600.1368,-358.8 1600.1368,-32.8 8,-32.8"/>
<text text-anchor="middle" x="70.2234" y="-342.2" font-family="Times,serif" font-size="14.00" fill="#000000">Dependency Graph</text>
</g>
<g id="clust3" class="cluster">
<title>cluster_Map&lt;Class&lt;?&gt;, AndroidInjector.Factory&lt;?&gt;&gt;</title>
<path fill="none" stroke="#000000" d="M171.0404,-248.8C171.0404,-248.8 1206.1668,-248.8 1206.1668,-248.8 1212.1668,-248.8 1218.1668,-254.8 1218.1668,-260.8 1218.1668,-260.8 1218.1668,-313.8 1218.1668,-313.8 1218.1668,-319.8 1212.1668,-325.8 1206.1668,-325.8 1206.1668,-325.8 171.0404,-325.8 171.0404,-325.8 165.0404,-325.8 159.0404,-319.8 159.0404,-313.8 159.0404,-313.8 159.0404,-260.8 159.0404,-260.8 159.0404,-254.8 165.0404,-248.8 171.0404,-248.8"/>
<text text-anchor="middle" x="688.6036" y="-309.2" font-family="Times,serif" font-size="14.00" fill="#000000">Map&lt;Class&lt;?&gt;, AndroidInjector.Factory&lt;?&gt;&gt;</text>
</g>
<g id="clust4" class="cluster">
<title>cluster_Subcomponents</title>
<polygon fill="none" stroke="#000000" points="1701.7918,-245.8 1701.7918,-328.8 2210.097,-328.8 2210.097,-245.8 1701.7918,-245.8"/>
<text text-anchor="middle" x="1754.5106" y="-312.2" font-family="Times,serif" font-size="14.00" fill="#000000">Subcomponents</text>
</g>
<!-- 7cad08cb&#45;47b9&#45;44aa&#45;800b&#45;bbba18fbe189 -->
<g id="node1" class="node">
<title>7cad08cb&#45;47b9&#45;44aa&#45;800b&#45;bbba18fbe189</title>
<polygon fill="#40e0d0" stroke="#40e0d0" points="1210.0901,-292.8 744.3969,-292.8 744.3969,-256.8 1210.0901,-256.8 1210.0901,-292.8"/>
<text text-anchor="middle" x="977.2435" y="-270.6" font-family="Times,serif" font-size="14.00" fill="#000000">AndroidBindingModule_BindLogViewerActivity.bindAndroidInjectorFactory()</text>
</g>
<!-- 23380803&#45;3527&#45;4f78&#45;8b96&#45;62be440bcac9 -->
<g id="node2" class="node">
<title>23380803&#45;3527&#45;4f78&#45;8b96&#45;62be440bcac9</title>
<polygon fill="#40e0d0" stroke="#40e0d0" points="1592.0797,-303.4014 1336.3081,-303.4014 1336.3081,-246.1986 1592.0797,-246.1986 1592.0797,-303.4014"/>
<text text-anchor="middle" x="1464.1939" y="-287" font-family="Times,serif" font-size="14.00" fill="#000000">LogViewerActivitySubcomponent.Factory</text>
<text text-anchor="middle" x="1464.1939" y="-254.2" font-family="Times,serif" font-size="14.00" fill="#000000">Subcomponent Creator</text>
</g>
<!-- 7cad08cb&#45;47b9&#45;44aa&#45;800b&#45;bbba18fbe189&#45;&gt;23380803&#45;3527&#45;4f78&#45;8b96&#45;62be440bcac9 -->
<g id="edge2" class="edge">
<title>7cad08cb&#45;47b9&#45;44aa&#45;800b&#45;bbba18fbe189&#45;&gt;23380803&#45;3527&#45;4f78&#45;8b96&#45;62be440bcac9</title>
<path fill="none" stroke="#000000" stroke-dasharray="1,5" d="M1210.3785,-274.8C1250.0163,-274.8 1290.0201,-274.8 1326.1777,-274.8"/>
<polygon fill="#000000" stroke="#000000" points="1326.2705,-278.3001 1336.2705,-274.8 1326.2705,-271.3001 1326.2705,-278.3001"/>
<text text-anchor="middle" x="1273.2089" y="-279" font-family="Times,serif" font-size="14.00" fill="#000000">delegates</text>
</g>
<!-- 5f9f4c4a&#45;c752&#45;417a&#45;9961&#45;be4e7b979989 -->
<g id="node8" class="node">
<title>5f9f4c4a&#45;c752&#45;417a&#45;9961&#45;be4e7b979989</title>
<g id="a_node8"><a xlink:href="full_org.owntracks.android.injection.modules.AndroidBindingModule_BindLogViewerActivity.LogViewerActivitySubcomponent.svg" xlink:title="@PerActivity\nAndroidBindingModule_BindLogViewerActivity.LogViewerActivitySubcomponent">
<polygon fill="#7fffd4" stroke="#7fffd4" points="2202.2497,-295.4019 1709.6391,-295.4019 1709.6391,-254.1981 2202.2497,-254.1981 2202.2497,-295.4019"/>
<text text-anchor="middle" x="1955.9444" y="-279" font-family="Times,serif" font-size="14.00" fill="#000000">@PerActivity</text>
<text text-anchor="middle" x="1955.9444" y="-262.2" font-family="Times,serif" font-size="14.00" fill="#000000">AndroidBindingModule_BindLogViewerActivity.LogViewerActivitySubcomponent</text>
</a>
</g>
</g>
<!-- 23380803&#45;3527&#45;4f78&#45;8b96&#45;62be440bcac9&#45;&gt;5f9f4c4a&#45;c752&#45;417a&#45;9961&#45;be4e7b979989 -->
<g id="edge3" class="edge">
<title>23380803&#45;3527&#45;4f78&#45;8b96&#45;62be440bcac9&#45;&gt;5f9f4c4a&#45;c752&#45;417a&#45;9961&#45;be4e7b979989:w</title>
<path fill="none" stroke="#000000" stroke-dasharray="5,2" d="M1592.3773,-274.8C1626.8351,-274.8 1664.3277,-274.8 1699.5766,-274.8"/>
<polygon fill="#000000" stroke="#000000" points="1699.9444,-278.3001 1709.9444,-274.8 1699.9444,-271.3001 1699.9444,-278.3001"/>
<text text-anchor="middle" x="1650.9643" y="-279" font-family="Times,serif" font-size="14.00" fill="#000000">subcomponent</text>
</g>
<!-- 0da7c608&#45;5435&#45;425c&#45;98ba&#45;c71f59e88650 -->
<g id="node3" class="node">
<title>0da7c608&#45;5435&#45;425c&#45;98ba&#45;c71f59e88650</title>
<polygon fill="#ff3030" stroke="#ff3030" points="409.6651,-238.8 199.6551,-238.8 199.6551,-202.8 409.6651,-202.8 409.6651,-238.8"/>
<text text-anchor="middle" x="304.6601" y="-216.6" font-family="Times,serif" font-size="14.00" fill="#000000">org.greenrobot.eventbus.EventBus</text>
</g>
<!-- 6a52d297&#45;0ff9&#45;4652&#45;a339&#45;4ac930c7a881 -->
<g id="node4" class="node">
<title>6a52d297&#45;0ff9&#45;4652&#45;a339&#45;4ac930c7a881</title>
<polygon fill="#ff3030" stroke="#ff3030" points="593.4804,-184.8 15.8398,-184.8 15.8398,-148.8 593.4804,-148.8 593.4804,-184.8"/>
<text text-anchor="middle" x="304.6601" y="-162.6" font-family="Times,serif" font-size="14.00" fill="#000000">java.util.Map&lt;java.lang.String,javax.inject.Provider&lt;dagger.android.AndroidInjector.Factory&lt;?&gt;&gt;&gt;</text>
</g>
<!-- 1435b051&#45;af1a&#45;4395&#45;8dd5&#45;409eb4127f22 -->
<g id="node5" class="node">
<title>1435b051&#45;af1a&#45;4395&#45;8dd5&#45;409eb4127f22</title>
<polygon fill="#ff3030" stroke="#ff3030" points="539.1721,-130.8 70.1481,-130.8 70.1481,-94.8 539.1721,-94.8 539.1721,-130.8"/>
<text text-anchor="middle" x="304.6601" y="-108.6" font-family="Times,serif" font-size="14.00" fill="#000000">@org.owntracks.android.injection.qualifier.AppContext android.content.Context</text>
</g>
<!-- cb15be2b&#45;42f4&#45;42e7&#45;965e&#45;56f53092ef5a -->
<g id="node6" class="node">
<title>cb15be2b&#45;42f4&#45;42e7&#45;965e&#45;56f53092ef5a</title>
<polygon fill="#ff3030" stroke="#ff3030" points="481.4438,-76.8 127.8764,-76.8 127.8764,-40.8 481.4438,-40.8 481.4438,-76.8"/>
<text text-anchor="middle" x="304.6601" y="-54.6" font-family="Times,serif" font-size="14.00" fill="#000000">org.owntracks.android.support.preferences.PreferencesStore</text>
</g>
<!-- b453f531&#45;9f89&#45;4871&#45;8146&#45;0d7a958b2b60 -->
<g id="node7" class="node">
<title>b453f531&#45;9f89&#45;4871&#45;8146&#45;0d7a958b2b60</title>
<polygon fill="#40e0d0" stroke="#40e0d0" points="442.3996,-292.8 178.9206,-292.8 178.9206,-296.8 166.9206,-296.8 166.9206,-256.8 442.3996,-256.8 442.3996,-292.8"/>
<polyline fill="none" stroke="#40e0d0" points="166.9206,-292.8 178.9206,-292.8 "/>
<text text-anchor="middle" x="304.6601" y="-270.6" font-family="Times,serif" font-size="14.00" fill="#000000">Map&lt;Class&lt;?&gt;, AndroidInjector.Factory&lt;?&gt;&gt;</text>
</g>
<!-- b453f531&#45;9f89&#45;4871&#45;8146&#45;0d7a958b2b60&#45;&gt;7cad08cb&#45;47b9&#45;44aa&#45;800b&#45;bbba18fbe189 -->
<g id="edge1" class="edge">
<title>b453f531&#45;9f89&#45;4871&#45;8146&#45;0d7a958b2b60&#45;&gt;7cad08cb&#45;47b9&#45;44aa&#45;800b&#45;bbba18fbe189</title>
<path fill="none" stroke="#000000" d="M442.3313,-274.8C500.4944,-274.8 568.9574,-274.8 630.8202,-274.8 630.8202,-274.8 630.8202,-274.8 706.8202,-274.8 715.7844,-274.8 724.9158,-274.8 734.1395,-274.8"/>
<polygon fill="#000000" stroke="#000000" points="734.181,-278.3001 744.181,-274.8 734.1809,-271.3001 734.181,-278.3001"/>
</g>
</g>
</svg>
