<svg width="626px" height="153px"
 viewBox="0.00 0.00 626.02 152.60" xmlns="http://www.w3.org/2000/svg" xmlns:xlink="http://www.w3.org/1999/xlink">
<g id="graph0" class="graph" transform="scale(1.0 1.0) rotate(0) translate(14.4 138.2)">
<title>org.owntracks.android.ui.welcome.finish.FinishFragmentModule</title>
<polygon fill="#ffffff" stroke="transparent" points="-14.4,14.4 -14.4,-138.2 611.6168,-138.2 611.6168,14.4 -14.4,14.4"/>
<text text-anchor="middle" x="74.1059" y="-8.2" font-family="Times,serif" font-size="14.00" fill="#000000">FinishFragmentModule</text>
<g id="clust2" class="cluster">
<title>cluster_Dependency Graph</title>
<polygon fill="none" stroke="#000000" points="8,-32.8 8,-115.8 589.2168,-115.8 589.2168,-32.8 8,-32.8"/>
<text text-anchor="middle" x="70.2234" y="-99.2" font-family="Times,serif" font-size="14.00" fill="#000000">Dependency Graph</text>
</g>
<!-- 76f6563d&#45;97b1&#45;497a&#45;a3b1&#45;88166ee4e0b8 -->
<g id="node1" class="node">
<title>76f6563d&#45;97b1&#45;497a&#45;a3b1&#45;88166ee4e0b8</title>
<polygon fill="#7fffd4" stroke="#7fffd4" points="117.3062,-82.4019 15.8978,-82.4019 15.8978,-41.1981 117.3062,-41.1981 117.3062,-82.4019"/>
<text text-anchor="middle" x="66.602" y="-66" font-family="Times,serif" font-size="14.00" fill="#000000">@PerFragment</text>
<text text-anchor="middle" x="66.602" y="-49.2" font-family="Times,serif" font-size="14.00" fill="#000000">Fragment</text>
</g>
<!-- 368648a9&#45;d3da&#45;40cc&#45;8eb3&#45;c1b4b620799a -->
<g id="node2" class="node">
<title>368648a9&#45;d3da&#45;40cc&#45;8eb3&#45;c1b4b620799a</title>
<polygon fill="#ff3030" stroke="#ff3030" points="581.1811,-79.8 243.3239,-79.8 243.3239,-43.8 581.1811,-43.8 581.1811,-79.8"/>
<text text-anchor="middle" x="412.2525" y="-57.6" font-family="Times,serif" font-size="14.00" fill="#000000">org.owntracks.android.ui.welcome.finish.FinishFragment</text>
</g>
<!-- 76f6563d&#45;97b1&#45;497a&#45;a3b1&#45;88166ee4e0b8&#45;&gt;368648a9&#45;d3da&#45;40cc&#45;8eb3&#45;c1b4b620799a -->
<g id="edge1" class="edge">
<title>76f6563d&#45;97b1&#45;497a&#45;a3b1&#45;88166ee4e0b8&#45;&gt;368648a9&#45;d3da&#45;40cc&#45;8eb3&#45;c1b4b620799a</title>
<path fill="none" stroke="#000000" stroke-dasharray="5,2" d="M117.2327,-61.8C148.3936,-61.8 190.4052,-61.8 232.9414,-61.8"/>
<polygon fill="#000000" stroke="#000000" points="233.1765,-65.3001 243.1765,-61.8 233.1764,-58.3001 233.1765,-65.3001"/>
<text text-anchor="middle" x="180.2461" y="-66" font-family="Times,serif" font-size="14.00" fill="#000000">delegates</text>
<text text-anchor="middle" x="197.4784" y="-49.2" font-family="Times,serif" font-size="14.00" fill="#000000">Missing binding</text>
</g>
</g>
</svg>
