<svg width="2129px" height="396px"
 viewBox="0.00 0.00 2128.80 395.60" xmlns="http://www.w3.org/2000/svg" xmlns:xlink="http://www.w3.org/1999/xlink">
<g id="graph0" class="graph" transform="scale(1.0 1.0) rotate(0) translate(14.4 381.2)">
<title>org.owntracks.android.injection.modules.AndroidBindingModule_BindStatusActivity</title>
<polygon fill="#ffffff" stroke="transparent" points="-14.4,14.4 -14.4,-381.2 2114.4042,-381.2 2114.4042,14.4 -14.4,14.4"/>
<text text-anchor="middle" x="132.8296" y="-8.2" font-family="Times,serif" font-size="14.00" fill="#000000">AndroidBindingModule_BindStatusActivity</text>
<g id="clust2" class="cluster">
<title>cluster_Dependency Graph</title>
<polygon fill="none" stroke="#000000" points="8,-32.8 8,-358.8 1541.0904,-358.8 1541.0904,-32.8 8,-32.8"/>
<text text-anchor="middle" x="70.2234" y="-342.2" font-family="Times,serif" font-size="14.00" fill="#000000">Dependency Graph</text>
</g>
<g id="clust3" class="cluster">
<title>cluster_Map&lt;Class&lt;?&gt;, AndroidInjector.Factory&lt;?&gt;&gt;</title>
<path fill="none" stroke="#000000" d="M171.0404,-248.8C171.0404,-248.8 1176.6436,-248.8 1176.6436,-248.8 1182.6436,-248.8 1188.6436,-254.8 1188.6436,-260.8 1188.6436,-260.8 1188.6436,-313.8 1188.6436,-313.8 1188.6436,-319.8 1182.6436,-325.8 1176.6436,-325.8 1176.6436,-325.8 171.0404,-325.8 171.0404,-325.8 165.0404,-325.8 159.0404,-319.8 159.0404,-313.8 159.0404,-313.8 159.0404,-260.8 159.0404,-260.8 159.0404,-254.8 165.0404,-248.8 171.0404,-248.8"/>
<text text-anchor="middle" x="673.842" y="-309.2" font-family="Times,serif" font-size="14.00" fill="#000000">Map&lt;Class&lt;?&gt;, AndroidInjector.Factory&lt;?&gt;&gt;</text>
</g>
<g id="clust4" class="cluster">
<title>cluster_Subcomponents</title>
<polygon fill="none" stroke="#000000" points="1642.7454,-245.8 1642.7454,-328.8 2092.0042,-328.8 2092.0042,-245.8 1642.7454,-245.8"/>
<text text-anchor="middle" x="1695.4642" y="-312.2" font-family="Times,serif" font-size="14.00" fill="#000000">Subcomponents</text>
</g>
<!-- efb22491&#45;eb48&#45;4b4c&#45;9621&#45;28355a12e70d -->
<g id="node1" class="node">
<title>efb22491&#45;eb48&#45;4b4c&#45;9621&#45;28355a12e70d</title>
<polygon fill="#40e0d0" stroke="#40e0d0" points="1180.8054,-292.8 744.1584,-292.8 744.1584,-256.8 1180.8054,-256.8 1180.8054,-292.8"/>
<text text-anchor="middle" x="962.4819" y="-270.6" font-family="Times,serif" font-size="14.00" fill="#000000">AndroidBindingModule_BindStatusActivity.bindAndroidInjectorFactory()</text>
</g>
<!-- 11e9dc64&#45;015d&#45;4a56&#45;955e&#45;bd1652827913 -->
<g id="node2" class="node">
<title>11e9dc64&#45;015d&#45;4a56&#45;955e&#45;bd1652827913</title>
<polygon fill="#40e0d0" stroke="#40e0d0" points="1533.272,-303.4014 1306.5462,-303.4014 1306.5462,-246.1986 1533.272,-246.1986 1533.272,-303.4014"/>
<text text-anchor="middle" x="1419.9091" y="-287" font-family="Times,serif" font-size="14.00" fill="#000000">StatusActivitySubcomponent.Factory</text>
<text text-anchor="middle" x="1419.9091" y="-254.2" font-family="Times,serif" font-size="14.00" fill="#000000">Subcomponent Creator</text>
</g>
<!-- efb22491&#45;eb48&#45;4b4c&#45;9621&#45;28355a12e70d&#45;&gt;11e9dc64&#45;015d&#45;4a56&#45;955e&#45;bd1652827913 -->
<g id="edge2" class="edge">
<title>efb22491&#45;eb48&#45;4b4c&#45;9621&#45;28355a12e70d&#45;&gt;11e9dc64&#45;015d&#45;4a56&#45;955e&#45;bd1652827913</title>
<path fill="none" stroke="#000000" stroke-dasharray="1,5" d="M1180.8128,-274.8C1220.4653,-274.8 1260.5349,-274.8 1296.2409,-274.8"/>
<polygon fill="#000000" stroke="#000000" points="1296.6826,-278.3001 1306.6826,-274.8 1296.6826,-271.3001 1296.6826,-278.3001"/>
<text text-anchor="middle" x="1243.6857" y="-279" font-family="Times,serif" font-size="14.00" fill="#000000">delegates</text>
</g>
<!-- 52e53e2c&#45;470c&#45;4420&#45;93c2&#45;ddc8c7b7bdd0 -->
<g id="node8" class="node">
<title>52e53e2c&#45;470c&#45;4420&#45;93c2&#45;ddc8c7b7bdd0</title>
<g id="a_node8"><a xlink:href="full_org.owntracks.android.injection.modules.AndroidBindingModule_BindStatusActivity.StatusActivitySubcomponent.svg" xlink:title="@PerActivity\nAndroidBindingModule_BindStatusActivity.StatusActivitySubcomponent">
<polygon fill="#7fffd4" stroke="#7fffd4" points="2084.1337,-295.4019 1650.6159,-295.4019 1650.6159,-254.1981 2084.1337,-254.1981 2084.1337,-295.4019"/>
<text text-anchor="middle" x="1867.3748" y="-279" font-family="Times,serif" font-size="14.00" fill="#000000">@PerActivity</text>
<text text-anchor="middle" x="1867.3748" y="-262.2" font-family="Times,serif" font-size="14.00" fill="#000000">AndroidBindingModule_BindStatusActivity.StatusActivitySubcomponent</text>
</a>
</g>
</g>
<!-- 11e9dc64&#45;015d&#45;4a56&#45;955e&#45;bd1652827913&#45;&gt;52e53e2c&#45;470c&#45;4420&#45;93c2&#45;ddc8c7b7bdd0 -->
<g id="edge3" class="edge">
<title>11e9dc64&#45;015d&#45;4a56&#45;955e&#45;bd1652827913&#45;&gt;52e53e2c&#45;470c&#45;4420&#45;93c2&#45;ddc8c7b7bdd0:w</title>
<path fill="none" stroke="#000000" stroke-dasharray="5,2" d="M1533.3212,-274.8C1567.2581,-274.8 1604.8142,-274.8 1640.0226,-274.8"/>
<polygon fill="#000000" stroke="#000000" points="1640.3748,-278.3001 1650.3748,-274.8 1640.3748,-271.3001 1640.3748,-278.3001"/>
<text text-anchor="middle" x="1591.9179" y="-279" font-family="Times,serif" font-size="14.00" fill="#000000">subcomponent</text>
</g>
<!-- 198408ba&#45;d317&#45;4a89&#45;9fe1&#45;ab5083b05f3f -->
<g id="node3" class="node">
<title>198408ba&#45;d317&#45;4a89&#45;9fe1&#45;ab5083b05f3f</title>
<polygon fill="#ff3030" stroke="#ff3030" points="409.6651,-238.8 199.6551,-238.8 199.6551,-202.8 409.6651,-202.8 409.6651,-238.8"/>
<text text-anchor="middle" x="304.6601" y="-216.6" font-family="Times,serif" font-size="14.00" fill="#000000">org.greenrobot.eventbus.EventBus</text>
</g>
<!-- ffe88994&#45;f8f4&#45;41e2&#45;a541&#45;88363a8a68ec -->
<g id="node4" class="node">
<title>ffe88994&#45;f8f4&#45;41e2&#45;a541&#45;88363a8a68ec</title>
<polygon fill="#ff3030" stroke="#ff3030" points="593.4804,-184.8 15.8398,-184.8 15.8398,-148.8 593.4804,-148.8 593.4804,-184.8"/>
<text text-anchor="middle" x="304.6601" y="-162.6" font-family="Times,serif" font-size="14.00" fill="#000000">java.util.Map&lt;java.lang.String,javax.inject.Provider&lt;dagger.android.AndroidInjector.Factory&lt;?&gt;&gt;&gt;</text>
</g>
<!-- 7dfb678f&#45;4b3f&#45;48c0&#45;a9b0&#45;0c89e84f2d98 -->
<g id="node5" class="node">
<title>7dfb678f&#45;4b3f&#45;48c0&#45;a9b0&#45;0c89e84f2d98</title>
<polygon fill="#ff3030" stroke="#ff3030" points="539.1721,-130.8 70.1481,-130.8 70.1481,-94.8 539.1721,-94.8 539.1721,-130.8"/>
<text text-anchor="middle" x="304.6601" y="-108.6" font-family="Times,serif" font-size="14.00" fill="#000000">@org.owntracks.android.injection.qualifier.AppContext android.content.Context</text>
</g>
<!-- 7c7bc101&#45;79d5&#45;496b&#45;bf8b&#45;fe11cf4e9db2 -->
<g id="node6" class="node">
<title>7c7bc101&#45;79d5&#45;496b&#45;bf8b&#45;fe11cf4e9db2</title>
<polygon fill="#ff3030" stroke="#ff3030" points="481.4438,-76.8 127.8764,-76.8 127.8764,-40.8 481.4438,-40.8 481.4438,-76.8"/>
<text text-anchor="middle" x="304.6601" y="-54.6" font-family="Times,serif" font-size="14.00" fill="#000000">org.owntracks.android.support.preferences.PreferencesStore</text>
</g>
<!-- bdf0bcb7&#45;91c2&#45;488f&#45;aa47&#45;4a6d4bb99732 -->
<g id="node7" class="node">
<title>bdf0bcb7&#45;91c2&#45;488f&#45;aa47&#45;4a6d4bb99732</title>
<polygon fill="#40e0d0" stroke="#40e0d0" points="442.3996,-292.8 178.9206,-292.8 178.9206,-296.8 166.9206,-296.8 166.9206,-256.8 442.3996,-256.8 442.3996,-292.8"/>
<polyline fill="none" stroke="#40e0d0" points="166.9206,-292.8 178.9206,-292.8 "/>
<text text-anchor="middle" x="304.6601" y="-270.6" font-family="Times,serif" font-size="14.00" fill="#000000">Map&lt;Class&lt;?&gt;, AndroidInjector.Factory&lt;?&gt;&gt;</text>
</g>
<!-- bdf0bcb7&#45;91c2&#45;488f&#45;aa47&#45;4a6d4bb99732&#45;&gt;efb22491&#45;eb48&#45;4b4c&#45;9621&#45;28355a12e70d -->
<g id="edge1" class="edge">
<title>bdf0bcb7&#45;91c2&#45;488f&#45;aa47&#45;4a6d4bb99732&#45;&gt;efb22491&#45;eb48&#45;4b4c&#45;9621&#45;28355a12e70d</title>
<path fill="none" stroke="#000000" d="M442.3313,-274.8C500.4944,-274.8 568.9574,-274.8 630.8202,-274.8 630.8202,-274.8 630.8202,-274.8 706.8202,-274.8 715.784,-274.8 724.9247,-274.8 734.1584,-274.8"/>
<polygon fill="#000000" stroke="#000000" points="734.2106,-278.3001 744.2105,-274.8 734.2105,-271.3001 734.2106,-278.3001"/>
</g>
</g>
</svg>
