<svg width="2107px" height="450px"
 viewBox="0.00 0.00 2106.98 449.60" xmlns="http://www.w3.org/2000/svg" xmlns:xlink="http://www.w3.org/1999/xlink">
<g id="graph0" class="graph" transform="scale(1.0 1.0) rotate(0) translate(14.4 435.2)">
<title>org.owntracks.android.injection.modules.AndroidBindingModule_BindLoadActivity</title>
<polygon fill="#ffffff" stroke="transparent" points="-14.4,14.4 -14.4,-435.2 2092.581,-435.2 2092.581,14.4 -14.4,14.4"/>
<text text-anchor="middle" x="130.1017" y="-8.2" font-family="Times,serif" font-size="14.00" fill="#000000">AndroidBindingModule_BindLoadActivity</text>
<g id="clust2" class="cluster">
<title>cluster_Dependency Graph</title>
<polygon fill="none" stroke="#000000" points="8,-32.8 8,-412.8 1530.1788,-412.8 1530.1788,-32.8 8,-32.8"/>
<text text-anchor="middle" x="70.2234" y="-396.2" font-family="Times,serif" font-size="14.00" fill="#000000">Dependency Graph</text>
</g>
<g id="clust3" class="cluster">
<title>cluster_Map&lt;Class&lt;?&gt;, AndroidInjector.Factory&lt;?&gt;&gt;</title>
<path fill="none" stroke="#000000" d="M171.0404,-302.8C171.0404,-302.8 1171.1878,-302.8 1171.1878,-302.8 1177.1878,-302.8 1183.1878,-308.8 1183.1878,-314.8 1183.1878,-314.8 1183.1878,-367.8 1183.1878,-367.8 1183.1878,-373.8 1177.1878,-379.8 1171.1878,-379.8 1171.1878,-379.8 171.0404,-379.8 171.0404,-379.8 165.0404,-379.8 159.0404,-373.8 159.0404,-367.8 159.0404,-367.8 159.0404,-314.8 159.0404,-314.8 159.0404,-308.8 165.0404,-302.8 171.0404,-302.8"/>
<text text-anchor="middle" x="671.1141" y="-363.2" font-family="Times,serif" font-size="14.00" fill="#000000">Map&lt;Class&lt;?&gt;, AndroidInjector.Factory&lt;?&gt;&gt;</text>
</g>
<g id="clust4" class="cluster">
<title>cluster_Subcomponents</title>
<polygon fill="none" stroke="#000000" points="1631.8338,-299.8 1631.8338,-382.8 2070.181,-382.8 2070.181,-299.8 1631.8338,-299.8"/>
<text text-anchor="middle" x="1684.5526" y="-366.2" font-family="Times,serif" font-size="14.00" fill="#000000">Subcomponents</text>
</g>
<!-- 30120ac3&#45;26f0&#45;44af&#45;81ad&#45;e4fdd2c4f914 -->
<g id="node1" class="node">
<title>30120ac3&#45;26f0&#45;44af&#45;81ad&#45;e4fdd2c4f914</title>
<polygon fill="#40e0d0" stroke="#40e0d0" points="1175.1216,-346.8 744.3864,-346.8 744.3864,-310.8 1175.1216,-310.8 1175.1216,-346.8"/>
<text text-anchor="middle" x="959.754" y="-324.6" font-family="Times,serif" font-size="14.00" fill="#000000">AndroidBindingModule_BindLoadActivity.bindAndroidInjectorFactory()</text>
</g>
<!-- 68ff1088&#45;80d9&#45;46ce&#45;a83d&#45;056d40845d33 -->
<g id="node2" class="node">
<title>68ff1088&#45;80d9&#45;46ce&#45;a83d&#45;056d40845d33</title>
<polygon fill="#40e0d0" stroke="#40e0d0" points="1522.1322,-357.4014 1301.3186,-357.4014 1301.3186,-300.1986 1522.1322,-300.1986 1522.1322,-357.4014"/>
<text text-anchor="middle" x="1411.7254" y="-341" font-family="Times,serif" font-size="14.00" fill="#000000">LoadActivitySubcomponent.Factory</text>
<text text-anchor="middle" x="1411.7254" y="-308.2" font-family="Times,serif" font-size="14.00" fill="#000000">Subcomponent Creator</text>
</g>
<!-- 30120ac3&#45;26f0&#45;44af&#45;81ad&#45;e4fdd2c4f914&#45;&gt;68ff1088&#45;80d9&#45;46ce&#45;a83d&#45;056d40845d33 -->
<g id="edge2" class="edge">
<title>30120ac3&#45;26f0&#45;44af&#45;81ad&#45;e4fdd2c4f914&#45;&gt;68ff1088&#45;80d9&#45;46ce&#45;a83d&#45;056d40845d33</title>
<path fill="none" stroke="#000000" stroke-dasharray="1,5" d="M1175.1501,-328.8C1214.8818,-328.8 1255.051,-328.8 1290.7307,-328.8"/>
<polygon fill="#000000" stroke="#000000" points="1291.1608,-332.3001 1301.1608,-328.8 1291.1607,-325.3001 1291.1608,-332.3001"/>
<text text-anchor="middle" x="1238.2299" y="-333" font-family="Times,serif" font-size="14.00" fill="#000000">delegates</text>
</g>
<!-- 68810bbc&#45;ed04&#45;4ba8&#45;b36e&#45;cc4d3ec3c489 -->
<g id="node9" class="node">
<title>68810bbc&#45;ed04&#45;4ba8&#45;b36e&#45;cc4d3ec3c489</title>
<g id="a_node9"><a xlink:href="full_org.owntracks.android.injection.modules.AndroidBindingModule_BindLoadActivity.LoadActivitySubcomponent.svg" xlink:title="@PerActivity\nAndroidBindingModule_BindLoadActivity.LoadActivitySubcomponent">
<polygon fill="#7fffd4" stroke="#7fffd4" points="2062.3547,-349.4019 1639.6601,-349.4019 1639.6601,-308.1981 2062.3547,-308.1981 2062.3547,-349.4019"/>
<text text-anchor="middle" x="1851.0074" y="-333" font-family="Times,serif" font-size="14.00" fill="#000000">@PerActivity</text>
<text text-anchor="middle" x="1851.0074" y="-316.2" font-family="Times,serif" font-size="14.00" fill="#000000">AndroidBindingModule_BindLoadActivity.LoadActivitySubcomponent</text>
</a>
</g>
</g>
<!-- 68ff1088&#45;80d9&#45;46ce&#45;a83d&#45;056d40845d33&#45;&gt;68810bbc&#45;ed04&#45;4ba8&#45;b36e&#45;cc4d3ec3c489 -->
<g id="edge3" class="edge">
<title>68ff1088&#45;80d9&#45;46ce&#45;a83d&#45;056d40845d33&#45;&gt;68810bbc&#45;ed04&#45;4ba8&#45;b36e&#45;cc4d3ec3c489:w</title>
<path fill="none" stroke="#000000" stroke-dasharray="5,2" d="M1522.3212,-328.8C1556.3382,-328.8 1594.1593,-328.8 1629.5907,-328.8"/>
<polygon fill="#000000" stroke="#000000" points="1630.0074,-332.3001 1640.0074,-328.8 1630.0074,-325.3001 1630.0074,-332.3001"/>
<text text-anchor="middle" x="1581.0063" y="-333" font-family="Times,serif" font-size="14.00" fill="#000000">subcomponent</text>
</g>
<!-- 919e1d93&#45;4b88&#45;495b&#45;bf20&#45;e9fc639d52fe -->
<g id="node3" class="node">
<title>919e1d93&#45;4b88&#45;495b&#45;bf20&#45;e9fc639d52fe</title>
<polygon fill="#ff3030" stroke="#ff3030" points="409.6651,-292.8 199.6551,-292.8 199.6551,-256.8 409.6651,-256.8 409.6651,-292.8"/>
<text text-anchor="middle" x="304.6601" y="-270.6" font-family="Times,serif" font-size="14.00" fill="#000000">org.greenrobot.eventbus.EventBus</text>
</g>
<!-- 488d71fe&#45;5f2f&#45;4a24&#45;b8e9&#45;d70dd406d104 -->
<g id="node4" class="node">
<title>488d71fe&#45;5f2f&#45;4a24&#45;b8e9&#45;d70dd406d104</title>
<polygon fill="#ff3030" stroke="#ff3030" points="593.4804,-238.8 15.8398,-238.8 15.8398,-202.8 593.4804,-202.8 593.4804,-238.8"/>
<text text-anchor="middle" x="304.6601" y="-216.6" font-family="Times,serif" font-size="14.00" fill="#000000">java.util.Map&lt;java.lang.String,javax.inject.Provider&lt;dagger.android.AndroidInjector.Factory&lt;?&gt;&gt;&gt;</text>
</g>
<!-- e21c0860&#45;04e8&#45;414c&#45;b044&#45;de91e1343671 -->
<g id="node5" class="node">
<title>e21c0860&#45;04e8&#45;414c&#45;b044&#45;de91e1343671</title>
<polygon fill="#ff3030" stroke="#ff3030" points="452.9641,-184.8 156.3561,-184.8 156.3561,-148.8 452.9641,-148.8 452.9641,-184.8"/>
<text text-anchor="middle" x="304.6601" y="-162.6" font-family="Times,serif" font-size="14.00" fill="#000000">org.owntracks.android.data.repos.WaypointsRepo</text>
</g>
<!-- d4ab25d2&#45;9905&#45;4e55&#45;88b7&#45;b1ae65eb8664 -->
<g id="node6" class="node">
<title>d4ab25d2&#45;9905&#45;4e55&#45;88b7&#45;b1ae65eb8664</title>
<polygon fill="#ff3030" stroke="#ff3030" points="539.1721,-130.8 70.1481,-130.8 70.1481,-94.8 539.1721,-94.8 539.1721,-130.8"/>
<text text-anchor="middle" x="304.6601" y="-108.6" font-family="Times,serif" font-size="14.00" fill="#000000">@org.owntracks.android.injection.qualifier.AppContext android.content.Context</text>
</g>
<!-- 9e4192ba&#45;4ae8&#45;4f84&#45;953c&#45;66c23a656734 -->
<g id="node7" class="node">
<title>9e4192ba&#45;4ae8&#45;4f84&#45;953c&#45;66c23a656734</title>
<polygon fill="#ff3030" stroke="#ff3030" points="481.4438,-76.8 127.8764,-76.8 127.8764,-40.8 481.4438,-40.8 481.4438,-76.8"/>
<text text-anchor="middle" x="304.6601" y="-54.6" font-family="Times,serif" font-size="14.00" fill="#000000">org.owntracks.android.support.preferences.PreferencesStore</text>
</g>
<!-- c1da0826&#45;7237&#45;433d&#45;9174&#45;34cefa595d52 -->
<g id="node8" class="node">
<title>c1da0826&#45;7237&#45;433d&#45;9174&#45;34cefa595d52</title>
<polygon fill="#40e0d0" stroke="#40e0d0" points="442.3996,-346.8 178.9206,-346.8 178.9206,-350.8 166.9206,-350.8 166.9206,-310.8 442.3996,-310.8 442.3996,-346.8"/>
<polyline fill="none" stroke="#40e0d0" points="166.9206,-346.8 178.9206,-346.8 "/>
<text text-anchor="middle" x="304.6601" y="-324.6" font-family="Times,serif" font-size="14.00" fill="#000000">Map&lt;Class&lt;?&gt;, AndroidInjector.Factory&lt;?&gt;&gt;</text>
</g>
<!-- c1da0826&#45;7237&#45;433d&#45;9174&#45;34cefa595d52&#45;&gt;30120ac3&#45;26f0&#45;44af&#45;81ad&#45;e4fdd2c4f914 -->
<g id="edge1" class="edge">
<title>c1da0826&#45;7237&#45;433d&#45;9174&#45;34cefa595d52&#45;&gt;30120ac3&#45;26f0&#45;44af&#45;81ad&#45;e4fdd2c4f914</title>
<path fill="none" stroke="#000000" d="M442.3313,-328.8C500.4944,-328.8 568.9574,-328.8 630.8202,-328.8 630.8202,-328.8 630.8202,-328.8 706.8202,-328.8 715.769,-328.8 724.8959,-328.8 734.1158,-328.8"/>
<polygon fill="#000000" stroke="#000000" points="734.153,-332.3001 744.1529,-328.8 734.1529,-325.3001 734.153,-332.3001"/>
</g>
</g>
</svg>
