<svg width="3031px" height="1026px"
 viewBox="0.00 0.00 3031.24 1025.60" xmlns="http://www.w3.org/2000/svg" xmlns:xlink="http://www.w3.org/1999/xlink">
<g id="graph0" class="graph" transform="scale(1.0 1.0) rotate(0) translate(14.4 1011.2)">
<title>org.owntracks.android.ui.welcome.WelcomeActivityModule</title>
<polygon fill="#ffffff" stroke="transparent" points="-14.4,14.4 -14.4,-1011.2 3016.8416,-1011.2 3016.8416,14.4 -14.4,14.4"/>
<text text-anchor="middle" x="79.5365" y="-8.2" font-family="Times,serif" font-size="14.00" fill="#000000">WelcomeActivityModule</text>
<g id="clust2" class="cluster">
<title>cluster_Dependency Graph</title>
<polygon fill="none" stroke="#000000" points="8,-363.8 8,-988.8 2994.4416,-988.8 2994.4416,-363.8 8,-363.8"/>
<text text-anchor="middle" x="70.2234" y="-972.2" font-family="Times,serif" font-size="14.00" fill="#000000">Dependency Graph</text>
</g>
<g id="clust3" class="cluster">
<title>cluster_Map&lt;Class&lt;?&gt;, AndroidInjector.Factory&lt;?&gt;&gt;</title>
<path fill="none" stroke="#000000" d="M171.0404,-580.8C171.0404,-580.8 1406.749,-580.8 1406.749,-580.8 1412.749,-580.8 1418.749,-586.8 1418.749,-592.8 1418.749,-592.8 1418.749,-861.8 1418.749,-861.8 1418.749,-867.8 1412.749,-873.8 1406.749,-873.8 1406.749,-873.8 171.0404,-873.8 171.0404,-873.8 165.0404,-873.8 159.0404,-867.8 159.0404,-861.8 159.0404,-861.8 159.0404,-592.8 159.0404,-592.8 159.0404,-586.8 165.0404,-580.8 171.0404,-580.8"/>
<text text-anchor="middle" x="788.8947" y="-857.2" font-family="Times,serif" font-size="14.00" fill="#000000">Map&lt;Class&lt;?&gt;, AndroidInjector.Factory&lt;?&gt;&gt;</text>
</g>
<g id="clust4" class="cluster">
<title>cluster_Subcomponents</title>
<polygon fill="none" stroke="#000000" points="2115.5002,-32.8 2115.5002,-355.8 2644.0382,-355.8 2644.0382,-32.8 2115.5002,-32.8"/>
<text text-anchor="middle" x="2168.219" y="-339.2" font-family="Times,serif" font-size="14.00" fill="#000000">Subcomponents</text>
</g>
<!-- 3a993c41&#45;a78d&#45;4f32&#45;b358&#45;45c750a409d5 -->
<g id="node1" class="node">
<title>3a993c41&#45;a78d&#45;4f32&#45;b358&#45;45c750a409d5</title>
<polygon fill="#7fffd4" stroke="#7fffd4" points="1836.6622,-879.4019 1706.0162,-879.4019 1706.0162,-838.1981 1836.6622,-838.1981 1836.6622,-879.4019"/>
<text text-anchor="middle" x="1771.3392" y="-863" font-family="Times,serif" font-size="14.00" fill="#000000">@PerActivity</text>
<text text-anchor="middle" x="1771.3392" y="-846.2" font-family="Times,serif" font-size="14.00" fill="#000000">AppCompatActivity</text>
</g>
<!-- ce0c0ca2&#45;f5dd&#45;4875&#45;ad87&#45;7ee9fe3640ab -->
<g id="node2" class="node">
<title>ce0c0ca2&#45;f5dd&#45;4875&#45;ad87&#45;7ee9fe3640ab</title>
<polygon fill="#ff3030" stroke="#ff3030" points="2986.6436,-876.8 2672.8362,-876.8 2672.8362,-840.8 2986.6436,-840.8 2986.6436,-876.8"/>
<text text-anchor="middle" x="2829.7399" y="-854.6" font-family="Times,serif" font-size="14.00" fill="#000000">org.owntracks.android.ui.welcome.WelcomeActivity</text>
</g>
<!-- 3a993c41&#45;a78d&#45;4f32&#45;b358&#45;45c750a409d5&#45;&gt;ce0c0ca2&#45;f5dd&#45;4875&#45;ad87&#45;7ee9fe3640ab -->
<g id="edge2" class="edge">
<title>3a993c41&#45;a78d&#45;4f32&#45;b358&#45;45c750a409d5&#45;&gt;ce0c0ca2&#45;f5dd&#45;4875&#45;ad87&#45;7ee9fe3640ab</title>
<path fill="none" stroke="#000000" stroke-dasharray="5,2" d="M1836.7482,-858.8C1999.1442,-858.8 2424.7703,-858.8 2662.6946,-858.8"/>
<polygon fill="#000000" stroke="#000000" points="2662.8295,-862.3001 2672.8294,-858.8 2662.8294,-855.3001 2662.8295,-862.3001"/>
<text text-anchor="middle" x="2379.7692" y="-863" font-family="Times,serif" font-size="14.00" fill="#000000">delegates</text>
<text text-anchor="middle" x="2627.1313" y="-846.2" font-family="Times,serif" font-size="14.00" fill="#000000">Missing binding</text>
</g>
<!-- e157d70c&#45;6976&#45;4d0a&#45;a48a&#45;fd1d9a8aadb9 -->
<g id="node3" class="node">
<title>e157d70c&#45;6976&#45;4d0a&#45;a48a&#45;fd1d9a8aadb9</title>
<polygon fill="#7fffd4" stroke="#7fffd4" points="429.8213,-490.4019 179.4989,-490.4019 179.4989,-449.1981 429.8213,-449.1981 429.8213,-490.4019"/>
<text text-anchor="middle" x="304.6601" y="-474" font-family="Times,serif" font-size="14.00" fill="#000000">@PerActivity</text>
<text text-anchor="middle" x="304.6601" y="-457.2" font-family="Times,serif" font-size="14.00" fill="#000000">BaseViewModel&lt;WelcomeMvvm.View&gt;</text>
</g>
<!-- 4c55e090&#45;553e&#45;442a&#45;81d4&#45;9f643d981114 -->
<g id="node4" class="node">
<title>4c55e090&#45;553e&#45;442a&#45;81d4&#45;9f643d981114</title>
<polygon fill="#7fffd4" stroke="#7fffd4" points="855.667,-490.4019 719.6496,-490.4019 719.6496,-449.1981 855.667,-449.1981 855.667,-490.4019"/>
<text text-anchor="middle" x="787.6583" y="-474" font-family="Times,serif" font-size="14.00" fill="#000000">@PerActivity</text>
<text text-anchor="middle" x="787.6583" y="-457.2" font-family="Times,serif" font-size="14.00" fill="#000000">WelcomeViewModel</text>
</g>
<!-- e157d70c&#45;6976&#45;4d0a&#45;a48a&#45;fd1d9a8aadb9&#45;&gt;4c55e090&#45;553e&#45;442a&#45;81d4&#45;9f643d981114 -->
<g id="edge3" class="edge">
<title>e157d70c&#45;6976&#45;4d0a&#45;a48a&#45;fd1d9a8aadb9&#45;&gt;4c55e090&#45;553e&#45;442a&#45;81d4&#45;9f643d981114</title>
<path fill="none" stroke="#000000" stroke-dasharray="1,5" d="M429.9867,-469.8C518.2158,-469.8 633.6022,-469.8 709.1259,-469.8"/>
<polygon fill="#000000" stroke="#000000" points="709.5111,-473.3001 719.511,-469.8 709.511,-466.3001 709.5111,-473.3001"/>
<text text-anchor="middle" x="656.3623" y="-474" font-family="Times,serif" font-size="14.00" fill="#000000">delegates</text>
</g>
<!-- 74b3f2d4&#45;f8a2&#45;4b59&#45;aa1b&#45;f65969f5edb9 -->
<g id="node5" class="node">
<title>74b3f2d4&#45;f8a2&#45;4b59&#45;aa1b&#45;f65969f5edb9</title>
<polygon fill="#ffe4c4" stroke="#ffe4c4" points="1211.8934,-474.4019 1129.7678,-474.4019 1129.7678,-433.1981 1211.8934,-433.1981 1211.8934,-474.4019"/>
<text text-anchor="middle" x="1170.8306" y="-458" font-family="Times,serif" font-size="14.00" fill="#000000">@Singleton</text>
<text text-anchor="middle" x="1170.8306" y="-441.2" font-family="Times,serif" font-size="14.00" fill="#000000">Preferences</text>
</g>
<!-- 4c55e090&#45;553e&#45;442a&#45;81d4&#45;9f643d981114&#45;&gt;74b3f2d4&#45;f8a2&#45;4b59&#45;aa1b&#45;f65969f5edb9 -->
<g id="edge5" class="edge">
<title>4c55e090&#45;553e&#45;442a&#45;81d4&#45;9f643d981114&#45;&gt;74b3f2d4&#45;f8a2&#45;4b59&#45;aa1b&#45;f65969f5edb9</title>
<path fill="none" stroke="#000000" d="M855.7203,-466.958C931.3033,-463.8019 1051.6002,-458.7787 1119.6093,-455.9388"/>
<polygon fill="#000000" stroke="#000000" points="1119.8112,-459.4335 1129.6564,-455.5193 1119.5191,-452.4396 1119.8112,-459.4335"/>
</g>
<!-- ad6a166a&#45;663b&#45;4a4c&#45;99dd&#45;1bb3cdf9570d -->
<g id="node6" class="node">
<title>ad6a166a&#45;663b&#45;4a4c&#45;99dd&#45;1bb3cdf9570d</title>
<polygon fill="#7fffd4" stroke="#7fffd4" points="1217.7656,-554.4019 1123.8956,-554.4019 1123.8956,-513.1981 1217.7656,-513.1981 1217.7656,-554.4019"/>
<text text-anchor="middle" x="1170.8306" y="-538" font-family="Times,serif" font-size="14.00" fill="#000000">@PerActivity</text>
<text text-anchor="middle" x="1170.8306" y="-521.2" font-family="Times,serif" font-size="14.00" fill="#000000">Navigator</text>
</g>
<!-- 4c55e090&#45;553e&#45;442a&#45;81d4&#45;9f643d981114&#45;&gt;ad6a166a&#45;663b&#45;4a4c&#45;99dd&#45;1bb3cdf9570d -->
<g id="edge4" class="edge">
<title>4c55e090&#45;553e&#45;442a&#45;81d4&#45;9f643d981114&#45;&gt;ad6a166a&#45;663b&#45;4a4c&#45;99dd&#45;1bb3cdf9570d</title>
<path fill="none" stroke="#000000" d="M855.7203,-481.1682C929.1555,-493.4338 1044.7994,-512.7494 1113.687,-524.2555"/>
<polygon fill="#000000" stroke="#000000" points="1113.4743,-527.7684 1123.9143,-525.9637 1114.6276,-520.864 1113.4743,-527.7684"/>
</g>
<!-- f1c21771&#45;3c0c&#45;479c&#45;9586&#45;37d0b73f5386 -->
<g id="node7" class="node">
<title>f1c21771&#45;3c0c&#45;479c&#45;9586&#45;37d0b73f5386</title>
<polygon fill="#ff3030" stroke="#ff3030" points="2005.8512,-461.8 1536.8272,-461.8 1536.8272,-425.8 2005.8512,-425.8 2005.8512,-461.8"/>
<text text-anchor="middle" x="1771.3392" y="-439.6" font-family="Times,serif" font-size="14.00" fill="#000000">@org.owntracks.android.injection.qualifier.AppContext android.content.Context</text>
</g>
<!-- 74b3f2d4&#45;f8a2&#45;4b59&#45;aa1b&#45;f65969f5edb9&#45;&gt;f1c21771&#45;3c0c&#45;479c&#45;9586&#45;37d0b73f5386 -->
<g id="edge8" class="edge">
<title>74b3f2d4&#45;f8a2&#45;4b59&#45;aa1b&#45;f65969f5edb9&#45;&gt;f1c21771&#45;3c0c&#45;479c&#45;9586&#45;37d0b73f5386</title>
<path fill="none" stroke="#000000" stroke-dasharray="5,2" d="M1212.106,-453.1127C1276.9909,-452.0322 1407.7224,-449.8551 1526.4777,-447.8776"/>
<polygon fill="#000000" stroke="#000000" points="1526.8886,-451.3713 1536.8289,-447.7052 1526.772,-444.3723 1526.8886,-451.3713"/>
<text text-anchor="middle" x="1491.1308" y="-435.1052" font-family="Times,serif" font-size="14.00" fill="#000000">Missing binding</text>
</g>
<!-- f46e5041&#45;7a4f&#45;43a3&#45;9758&#45;544a82acd7e4 -->
<g id="node8" class="node">
<title>f46e5041&#45;7a4f&#45;43a3&#45;9758&#45;544a82acd7e4</title>
<polygon fill="#ff3030" stroke="#ff3030" points="1876.3442,-515.8 1666.3342,-515.8 1666.3342,-479.8 1876.3442,-479.8 1876.3442,-515.8"/>
<text text-anchor="middle" x="1771.3392" y="-493.6" font-family="Times,serif" font-size="14.00" fill="#000000">org.greenrobot.eventbus.EventBus</text>
</g>
<!-- 74b3f2d4&#45;f8a2&#45;4b59&#45;aa1b&#45;f65969f5edb9&#45;&gt;f46e5041&#45;7a4f&#45;43a3&#45;9758&#45;544a82acd7e4 -->
<g id="edge6" class="edge">
<title>74b3f2d4&#45;f8a2&#45;4b59&#45;aa1b&#45;f65969f5edb9&#45;&gt;f46e5041&#45;7a4f&#45;43a3&#45;9758&#45;544a82acd7e4</title>
<path fill="none" stroke="#000000" stroke-dasharray="5,2" d="M1212.106,-456.8243C1302.457,-463.4444 1520.4845,-479.4196 1656.0658,-489.3538"/>
<polygon fill="#000000" stroke="#000000" points="1655.8573,-492.8478 1666.0863,-490.088 1656.3689,-485.8665 1655.8573,-492.8478"/>
<text text-anchor="middle" x="1620.3882" y="-477.488" font-family="Times,serif" font-size="14.00" fill="#000000">Missing binding</text>
</g>
<!-- ebb982f0&#45;91e5&#45;435a&#45;bacf&#45;b034c421e594 -->
<g id="node9" class="node">
<title>ebb982f0&#45;91e5&#45;435a&#45;bacf&#45;b034c421e594</title>
<polygon fill="#ff3030" stroke="#ff3030" points="1948.1229,-407.8 1594.5555,-407.8 1594.5555,-371.8 1948.1229,-371.8 1948.1229,-407.8"/>
<text text-anchor="middle" x="1771.3392" y="-385.6" font-family="Times,serif" font-size="14.00" fill="#000000">org.owntracks.android.support.preferences.PreferencesStore</text>
</g>
<!-- 74b3f2d4&#45;f8a2&#45;4b59&#45;aa1b&#45;f65969f5edb9&#45;&gt;ebb982f0&#45;91e5&#45;435a&#45;bacf&#45;b034c421e594 -->
<g id="edge7" class="edge">
<title>74b3f2d4&#45;f8a2&#45;4b59&#45;aa1b&#45;f65969f5edb9&#45;&gt;ebb982f0&#45;91e5&#45;435a&#45;bacf&#45;b034c421e594</title>
<path fill="none" stroke="#000000" stroke-dasharray="5,2" d="M1212.106,-449.401C1289.26,-441.1782 1459.5168,-423.0329 1592.0334,-408.9097"/>
<polygon fill="#000000" stroke="#000000" points="1592.7386,-412.3545 1602.3113,-407.8144 1591.9967,-405.3939 1592.7386,-412.3545"/>
<text text-anchor="middle" x="1556.6132" y="-412.0144" font-family="Times,serif" font-size="14.00" fill="#000000">Missing binding</text>
</g>
<!-- ad6a166a&#45;663b&#45;4a4c&#45;99dd&#45;1bb3cdf9570d&#45;&gt;3a993c41&#45;a78d&#45;4f32&#45;b358&#45;45c750a409d5 -->
<g id="edge1" class="edge">
<title>ad6a166a&#45;663b&#45;4a4c&#45;99dd&#45;1bb3cdf9570d&#45;&gt;3a993c41&#45;a78d&#45;4f32&#45;b358&#45;45c750a409d5</title>
<path fill="none" stroke="#000000" d="M1217.5907,-527.0277C1273.8281,-521.7825 1367.0911,-522.8417 1418.749,-576.8 1488.4752,-649.6312 1382.6135,-724.8358 1447.749,-801.8 1507.1414,-871.9782 1620.0076,-876.3848 1695.4763,-870.0196"/>
<polygon fill="#000000" stroke="#000000" points="1696.2336,-873.4645 1705.8676,-869.0557 1695.587,-866.4944 1696.2336,-873.4645"/>
</g>
<!-- 48483905&#45;6d13&#45;4bd4&#45;83b0&#45;e6577b918430 -->
<g id="node10" class="node">
<title>48483905&#45;6d13&#45;4bd4&#45;83b0&#45;e6577b918430</title>
<polygon fill="#40e0d0" stroke="#40e0d0" points="1391.8367,-732.8 949.8245,-732.8 949.8245,-696.8 1391.8367,-696.8 1391.8367,-732.8"/>
<text text-anchor="middle" x="1170.8306" y="-710.6" font-family="Times,serif" font-size="14.00" fill="#000000">WelcomeActivityModule_BindPlayFragment.bindAndroidInjectorFactory()</text>
</g>
<!-- 12a1213e&#45;e034&#45;4637&#45;acda&#45;5a4d3e367c5b -->
<g id="node15" class="node">
<title>12a1213e&#45;e034&#45;4637&#45;acda&#45;5a4d3e367c5b</title>
<polygon fill="#40e0d0" stroke="#40e0d0" points="1883.6367,-743.4014 1659.0417,-743.4014 1659.0417,-686.1986 1883.6367,-686.1986 1883.6367,-743.4014"/>
<text text-anchor="middle" x="1771.3392" y="-727" font-family="Times,serif" font-size="14.00" fill="#000000">PlayFragmentSubcomponent.Factory</text>
<text text-anchor="middle" x="1771.3392" y="-694.2" font-family="Times,serif" font-size="14.00" fill="#000000">Subcomponent Creator</text>
</g>
<!-- 48483905&#45;6d13&#45;4bd4&#45;83b0&#45;e6577b918430&#45;&gt;12a1213e&#45;e034&#45;4637&#45;acda&#45;5a4d3e367c5b -->
<g id="edge14" class="edge">
<title>48483905&#45;6d13&#45;4bd4&#45;83b0&#45;e6577b918430&#45;&gt;12a1213e&#45;e034&#45;4637&#45;acda&#45;5a4d3e367c5b</title>
<path fill="none" stroke="#000000" stroke-dasharray="1,5" d="M1391.8795,-714.8C1478.5967,-714.8 1574.8068,-714.8 1648.6519,-714.8"/>
<polygon fill="#000000" stroke="#000000" points="1648.9201,-718.3001 1658.92,-714.8 1648.92,-711.3001 1648.9201,-718.3001"/>
<text text-anchor="middle" x="1473.7911" y="-719" font-family="Times,serif" font-size="14.00" fill="#000000">delegates</text>
</g>
<!-- 98739f9c&#45;726c&#45;445b&#45;b1e1&#45;ca1046b6016a -->
<g id="node11" class="node">
<title>98739f9c&#45;726c&#45;445b&#45;b1e1&#45;ca1046b6016a</title>
<polygon fill="#40e0d0" stroke="#40e0d0" points="1393.1604,-678.8 948.5008,-678.8 948.5008,-642.8 1393.1604,-642.8 1393.1604,-678.8"/>
<text text-anchor="middle" x="1170.8306" y="-656.6" font-family="Times,serif" font-size="14.00" fill="#000000">WelcomeActivityModule_BindIntroFragment.bindAndroidInjectorFactory()</text>
</g>
<!-- 9caea6a3&#45;2557&#45;4f67&#45;92e7&#45;9e88a0c03bd3 -->
<g id="node16" class="node">
<title>9caea6a3&#45;2557&#45;4f67&#45;92e7&#45;9e88a0c03bd3</title>
<polygon fill="#40e0d0" stroke="#40e0d0" points="1884.9606,-667.4014 1657.7178,-667.4014 1657.7178,-610.1986 1884.9606,-610.1986 1884.9606,-667.4014"/>
<text text-anchor="middle" x="1771.3392" y="-651" font-family="Times,serif" font-size="14.00" fill="#000000">IntroFragmentSubcomponent.Factory</text>
<text text-anchor="middle" x="1771.3392" y="-618.2" font-family="Times,serif" font-size="14.00" fill="#000000">Subcomponent Creator</text>
</g>
<!-- 98739f9c&#45;726c&#45;445b&#45;b1e1&#45;ca1046b6016a&#45;&gt;9caea6a3&#45;2557&#45;4f67&#45;92e7&#45;9e88a0c03bd3 -->
<g id="edge15" class="edge">
<title>98739f9c&#45;726c&#45;445b&#45;b1e1&#45;ca1046b6016a&#45;&gt;9caea6a3&#45;2557&#45;4f67&#45;92e7&#45;9e88a0c03bd3</title>
<path fill="none" stroke="#000000" stroke-dasharray="1,5" d="M1393.5845,-652.6393C1479.3396,-649.4976 1574.1484,-646.0242 1647.3325,-643.3431"/>
<polygon fill="#000000" stroke="#000000" points="1647.6472,-646.834 1657.5123,-642.9701 1647.3909,-639.8387 1647.6472,-646.834"/>
<text text-anchor="middle" x="1473.7911" y="-654" font-family="Times,serif" font-size="14.00" fill="#000000">delegates</text>
</g>
<!-- 3dc80a3c&#45;87c1&#45;43e9&#45;bbc3&#45;2d13187428bb -->
<g id="node12" class="node">
<title>3dc80a3c&#45;87c1&#45;43e9&#45;bbc3&#45;2d13187428bb</title>
<polygon fill="#40e0d0" stroke="#40e0d0" points="1401.7656,-624.8 939.8956,-624.8 939.8956,-588.8 1401.7656,-588.8 1401.7656,-624.8"/>
<text text-anchor="middle" x="1170.8306" y="-602.6" font-family="Times,serif" font-size="14.00" fill="#000000">WelcomeActivityModule_BindVersionFragment.bindAndroidInjectorFactory()</text>
</g>
<!-- 2cc216a7&#45;f823&#45;40a2&#45;85b7&#45;a545d36431e5 -->
<g id="node17" class="node">
<title>2cc216a7&#45;f823&#45;40a2&#45;85b7&#45;a545d36431e5</title>
<polygon fill="#40e0d0" stroke="#40e0d0" points="1893.5659,-591.4014 1649.1125,-591.4014 1649.1125,-534.1986 1893.5659,-534.1986 1893.5659,-591.4014"/>
<text text-anchor="middle" x="1771.3392" y="-575" font-family="Times,serif" font-size="14.00" fill="#000000">VersionFragmentSubcomponent.Factory</text>
<text text-anchor="middle" x="1771.3392" y="-542.2" font-family="Times,serif" font-size="14.00" fill="#000000">Subcomponent Creator</text>
</g>
<!-- 3dc80a3c&#45;87c1&#45;43e9&#45;bbc3&#45;2d13187428bb&#45;&gt;2cc216a7&#45;f823&#45;40a2&#45;85b7&#45;a545d36431e5 -->
<g id="edge16" class="edge">
<title>3dc80a3c&#45;87c1&#45;43e9&#45;bbc3&#45;2d13187428bb&#45;&gt;2cc216a7&#45;f823&#45;40a2&#45;85b7&#45;a545d36431e5</title>
<path fill="none" stroke="#000000" stroke-dasharray="1,5" d="M1402.1439,-589.8514C1482.2896,-583.979 1569.3629,-577.5991 1638.8103,-572.5106"/>
<polygon fill="#000000" stroke="#000000" points="1639.2083,-575.9909 1648.9258,-571.7694 1638.6967,-569.0096 1639.2083,-575.9909"/>
<text text-anchor="middle" x="1473.7911" y="-590" font-family="Times,serif" font-size="14.00" fill="#000000">delegates</text>
</g>
<!-- e8d4f4b9&#45;2290&#45;42c8&#45;8b3b&#45;85df0159037b -->
<g id="node13" class="node">
<title>e8d4f4b9&#45;2290&#45;42c8&#45;8b3b&#45;85df0159037b</title>
<polygon fill="#40e0d0" stroke="#40e0d0" points="1410.6674,-840.8 930.9938,-840.8 930.9938,-804.8 1410.6674,-804.8 1410.6674,-840.8"/>
<text text-anchor="middle" x="1170.8306" y="-818.6" font-family="Times,serif" font-size="14.00" fill="#000000">WelcomeActivityModule_BindPermissionFragment.bindAndroidInjectorFactory()</text>
</g>
<!-- c11489ca&#45;9ec2&#45;44c0&#45;aa08&#45;4a4dd5eae888 -->
<g id="node18" class="node">
<title>c11489ca&#45;9ec2&#45;44c0&#45;aa08&#45;4a4dd5eae888</title>
<polygon fill="#40e0d0" stroke="#40e0d0" points="1902.4676,-955.4014 1640.2108,-955.4014 1640.2108,-898.1986 1902.4676,-898.1986 1902.4676,-955.4014"/>
<text text-anchor="middle" x="1771.3392" y="-939" font-family="Times,serif" font-size="14.00" fill="#000000">PermissionFragmentSubcomponent.Factory</text>
<text text-anchor="middle" x="1771.3392" y="-906.2" font-family="Times,serif" font-size="14.00" fill="#000000">Subcomponent Creator</text>
</g>
<!-- e8d4f4b9&#45;2290&#45;42c8&#45;8b3b&#45;85df0159037b&#45;&gt;c11489ca&#45;9ec2&#45;44c0&#45;aa08&#45;4a4dd5eae888 -->
<g id="edge17" class="edge">
<title>e8d4f4b9&#45;2290&#45;42c8&#45;8b3b&#45;85df0159037b&#45;&gt;c11489ca&#45;9ec2&#45;44c0&#45;aa08&#45;4a4dd5eae888</title>
<path fill="none" stroke="#000000" stroke-dasharray="1,5" d="M1268.2295,-840.8493C1341.9262,-854.3883 1445.6669,-873.195 1536.8332,-888.8 1567.0047,-893.9645 1599.3921,-899.3283 1630.1747,-904.3419"/>
<polygon fill="#000000" stroke="#000000" points="1629.6757,-907.8067 1640.1078,-905.9567 1630.799,-900.8974 1629.6757,-907.8067"/>
<text text-anchor="middle" x="1473.7911" y="-886" font-family="Times,serif" font-size="14.00" fill="#000000">delegates</text>
</g>
<!-- 973d32ea&#45;d62c&#45;4329&#45;b6df&#45;58cd705c8381 -->
<g id="node14" class="node">
<title>973d32ea&#45;d62c&#45;4329&#45;b6df&#45;58cd705c8381</title>
<polygon fill="#40e0d0" stroke="#40e0d0" points="1396.9572,-786.8 944.704,-786.8 944.704,-750.8 1396.9572,-750.8 1396.9572,-786.8"/>
<text text-anchor="middle" x="1170.8306" y="-764.6" font-family="Times,serif" font-size="14.00" fill="#000000">WelcomeActivityModule_BindFinishFragment.bindAndroidInjectorFactory()</text>
</g>
<!-- fbce6f97&#45;e9ac&#45;420a&#45;b670&#45;d5903a5e095e -->
<g id="node19" class="node">
<title>fbce6f97&#45;e9ac&#45;420a&#45;b670&#45;d5903a5e095e</title>
<polygon fill="#40e0d0" stroke="#40e0d0" points="1888.7572,-819.4014 1653.9212,-819.4014 1653.9212,-762.1986 1888.7572,-762.1986 1888.7572,-819.4014"/>
<text text-anchor="middle" x="1771.3392" y="-803" font-family="Times,serif" font-size="14.00" fill="#000000">FinishFragmentSubcomponent.Factory</text>
<text text-anchor="middle" x="1771.3392" y="-770.2" font-family="Times,serif" font-size="14.00" fill="#000000">Subcomponent Creator</text>
</g>
<!-- 973d32ea&#45;d62c&#45;4329&#45;b6df&#45;58cd705c8381&#45;&gt;fbce6f97&#45;e9ac&#45;420a&#45;b670&#45;d5903a5e095e -->
<g id="edge18" class="edge">
<title>973d32ea&#45;d62c&#45;4329&#45;b6df&#45;58cd705c8381&#45;&gt;fbce6f97&#45;e9ac&#45;420a&#45;b670&#45;d5903a5e095e</title>
<path fill="none" stroke="#000000" stroke-dasharray="1,5" d="M1397.0015,-777.0859C1480.343,-780.1392 1571.807,-783.49 1643.463,-786.1152"/>
<polygon fill="#000000" stroke="#000000" points="1643.7666,-789.6286 1653.8881,-786.4971 1644.023,-782.6333 1643.7666,-789.6286"/>
<text text-anchor="middle" x="1473.7911" y="-785" font-family="Times,serif" font-size="14.00" fill="#000000">delegates</text>
</g>
<!-- 4c8797b3&#45;48fe&#45;4dfb&#45;bb0e&#45;22a99de7e76f -->
<g id="node22" class="node">
<title>4c8797b3&#45;48fe&#45;4dfb&#45;bb0e&#45;22a99de7e76f</title>
<g id="a_node22"><a xlink:href="full_org.owntracks.android.ui.welcome.WelcomeActivityModule_BindPlayFragment.PlayFragmentSubcomponent.svg" xlink:title="@PerFragment\nWelcomeActivityModule_BindPlayFragment.PlayFragmentSubcomponent">
<polygon fill="#ffff00" stroke="#ffff00" points="2598.6452,-202.4019 2160.8932,-202.4019 2160.8932,-161.1981 2598.6452,-161.1981 2598.6452,-202.4019"/>
<text text-anchor="middle" x="2379.7692" y="-186" font-family="Times,serif" font-size="14.00" fill="#000000">@PerFragment</text>
<text text-anchor="middle" x="2379.7692" y="-169.2" font-family="Times,serif" font-size="14.00" fill="#000000">WelcomeActivityModule_BindPlayFragment.PlayFragmentSubcomponent</text>
</a>
</g>
</g>
<!-- 12a1213e&#45;e034&#45;4637&#45;acda&#45;5a4d3e367c5b&#45;&gt;4c8797b3&#45;48fe&#45;4dfb&#45;bb0e&#45;22a99de7e76f -->
<g id="edge19" class="edge">
<title>12a1213e&#45;e034&#45;4637&#45;acda&#45;5a4d3e367c5b&#45;&gt;4c8797b3&#45;48fe&#45;4dfb&#45;bb0e&#45;22a99de7e76f:w</title>
<path fill="none" stroke="#000000" stroke-dasharray="5,2" d="M1883.9147,-724.1767C1927.9484,-721.5426 1975.1531,-709.7895 2005.8452,-676.8 2036.6632,-643.6752 1998.8107,-511.6866 2023.8452,-474 2046.5631,-439.8009 2083.5209,-465.4785 2105.5002,-430.8 2131.5803,-389.6513 2091.4804,-254.1843 2115.5002,-211.8 2125.5412,-194.0822 2133.6825,-184.9058 2150.4798,-182.4707"/>
<polygon fill="#000000" stroke="#000000" points="2151.0181,-185.9431 2160.7692,-181.8 2150.5627,-178.9579 2151.0181,-185.9431"/>
<text text-anchor="middle" x="2064.6727" y="-478" font-family="Times,serif" font-size="14.00" fill="#000000">subcomponent</text>
</g>
<!-- 26b7c26f&#45;1d02&#45;4ea0&#45;9807&#45;8f6c8bfbb093 -->
<g id="node23" class="node">
<title>26b7c26f&#45;1d02&#45;4ea0&#45;9807&#45;8f6c8bfbb093</title>
<g id="a_node23"><a xlink:href="full_org.owntracks.android.ui.welcome.WelcomeActivityModule_BindIntroFragment.IntroFragmentSubcomponent.svg" xlink:title="@PerFragment\nWelcomeActivityModule_BindIntroFragment.IntroFragmentSubcomponent">
<polygon fill="#ffff00" stroke="#ffff00" points="2600.7935,-142.4019 2158.7449,-142.4019 2158.7449,-101.1981 2600.7935,-101.1981 2600.7935,-142.4019"/>
<text text-anchor="middle" x="2379.7692" y="-126" font-family="Times,serif" font-size="14.00" fill="#000000">@PerFragment</text>
<text text-anchor="middle" x="2379.7692" y="-109.2" font-family="Times,serif" font-size="14.00" fill="#000000">WelcomeActivityModule_BindIntroFragment.IntroFragmentSubcomponent</text>
</a>
</g>
</g>
<!-- 9caea6a3&#45;2557&#45;4f67&#45;92e7&#45;9e88a0c03bd3&#45;&gt;26b7c26f&#45;1d02&#45;4ea0&#45;9807&#45;8f6c8bfbb093 -->
<g id="edge20" class="edge">
<title>9caea6a3&#45;2557&#45;4f67&#45;92e7&#45;9e88a0c03bd3&#45;&gt;26b7c26f&#45;1d02&#45;4ea0&#45;9807&#45;8f6c8bfbb093:w</title>
<path fill="none" stroke="#000000" stroke-dasharray="5,2" d="M1885.0017,-647.9873C1928.6693,-645.1931 1975.3111,-633.3727 2005.8452,-600.8 2034.3665,-570.3746 2014.9001,-454.7328 2023.8452,-414 2053.778,-277.6973 2017.5794,-129.238 2148.6139,-122.0703"/>
<polygon fill="#000000" stroke="#000000" points="2148.8659,-125.5649 2158.7692,-121.8 2148.6796,-118.5674 2148.8659,-125.5649"/>
<text text-anchor="middle" x="2064.6727" y="-418" font-family="Times,serif" font-size="14.00" fill="#000000">subcomponent</text>
</g>
<!-- 7786f9ab&#45;a81c&#45;4cb9&#45;9354&#45;a04661ee38d6 -->
<g id="node24" class="node">
<title>7786f9ab&#45;a81c&#45;4cb9&#45;9354&#45;a04661ee38d6</title>
<g id="a_node24"><a xlink:href="full_org.owntracks.android.ui.welcome.WelcomeActivityModule_BindVersionFragment.VersionFragmentSubcomponent.svg" xlink:title="@PerFragment\nWelcomeActivityModule_BindVersionFragment.VersionFragmentSubcomponent">
<polygon fill="#ffff00" stroke="#ffff00" points="2618.0037,-82.4019 2141.5347,-82.4019 2141.5347,-41.1981 2618.0037,-41.1981 2618.0037,-82.4019"/>
<text text-anchor="middle" x="2379.7692" y="-66" font-family="Times,serif" font-size="14.00" fill="#000000">@PerFragment</text>
<text text-anchor="middle" x="2379.7692" y="-49.2" font-family="Times,serif" font-size="14.00" fill="#000000">WelcomeActivityModule_BindVersionFragment.VersionFragmentSubcomponent</text>
</a>
</g>
</g>
<!-- 2cc216a7&#45;f823&#45;40a2&#45;85b7&#45;a545d36431e5&#45;&gt;7786f9ab&#45;a81c&#45;4cb9&#45;9354&#45;a04661ee38d6 -->
<g id="edge21" class="edge">
<title>2cc216a7&#45;f823&#45;40a2&#45;85b7&#45;a545d36431e5&#45;&gt;7786f9ab&#45;a81c&#45;4cb9&#45;9354&#45;a04661ee38d6:w</title>
<path fill="none" stroke="#000000" stroke-dasharray="5,2" d="M1893.5009,-572.2406C1935.0093,-568.6785 1977.9117,-556.2564 2005.8452,-524.8 2037.3613,-489.3091 1994.8359,-135.5677 2023.8452,-98 2055.1932,-57.4036 2083.1138,-61.0829 2131.475,-61.7258"/>
<polygon fill="#000000" stroke="#000000" points="2131.7442,-65.2278 2141.7692,-61.8 2131.7947,-58.2279 2131.7442,-65.2278"/>
<text text-anchor="middle" x="2064.6727" y="-103" font-family="Times,serif" font-size="14.00" fill="#000000">subcomponent</text>
</g>
<!-- c876694b&#45;e970&#45;4d8b&#45;a2ea&#45;ba516b1c6aa0 -->
<g id="node25" class="node">
<title>c876694b&#45;e970&#45;4d8b&#45;a2ea&#45;ba516b1c6aa0</title>
<g id="a_node25"><a xlink:href="full_org.owntracks.android.ui.welcome.WelcomeActivityModule_BindPermissionFragment.PermissionFragmentSubcomponent.svg" xlink:title="@PerFragment\nWelcomeActivityModule_BindPermissionFragment.PermissionFragmentSubcomponent">
<polygon fill="#ffff00" stroke="#ffff00" points="2635.8074,-322.4019 2123.731,-322.4019 2123.731,-281.1981 2635.8074,-281.1981 2635.8074,-322.4019"/>
<text text-anchor="middle" x="2379.7692" y="-306" font-family="Times,serif" font-size="14.00" fill="#000000">@PerFragment</text>
<text text-anchor="middle" x="2379.7692" y="-289.2" font-family="Times,serif" font-size="14.00" fill="#000000">WelcomeActivityModule_BindPermissionFragment.PermissionFragmentSubcomponent</text>
</a>
</g>
</g>
<!-- c11489ca&#45;9ec2&#45;44c0&#45;aa08&#45;4a4dd5eae888&#45;&gt;c876694b&#45;e970&#45;4d8b&#45;a2ea&#45;ba516b1c6aa0 -->
<g id="edge22" class="edge">
<title>c11489ca&#45;9ec2&#45;44c0&#45;aa08&#45;4a4dd5eae888&#45;&gt;c876694b&#45;e970&#45;4d8b&#45;a2ea&#45;ba516b1c6aa0:w</title>
<path fill="none" stroke="#000000" stroke-dasharray="5,2" d="M1902.4353,-930.9374C1939.6261,-925.8623 1977.63,-913.8614 2005.8452,-888.8 2126.1307,-781.9595 2078.75,-699.444 2105.5002,-540.8 2109.4442,-517.4101 2099.7285,-346.1056 2116.371,-308.9125"/>
<polygon fill="#000000" stroke="#000000" points="2118.986,-311.2537 2123.7692,-301.8 2114.1346,-306.2075 2118.986,-311.2537"/>
<text text-anchor="middle" x="2064.6727" y="-874" font-family="Times,serif" font-size="14.00" fill="#000000">subcomponent</text>
</g>
<!-- f9906086&#45;833f&#45;4be0&#45;93df&#45;0818f4526e3c -->
<g id="node26" class="node">
<title>f9906086&#45;833f&#45;4be0&#45;93df&#45;0818f4526e3c</title>
<g id="a_node26"><a xlink:href="full_org.owntracks.android.ui.welcome.WelcomeActivityModule_BindFinishFragment.FinishFragmentSubcomponent.svg" xlink:title="@PerFragment\nWelcomeActivityModule_BindFinishFragment.FinishFragmentSubcomponent">
<polygon fill="#ffff00" stroke="#ffff00" points="2608.8864,-262.4019 2150.652,-262.4019 2150.652,-221.1981 2608.8864,-221.1981 2608.8864,-262.4019"/>
<text text-anchor="middle" x="2379.7692" y="-246" font-family="Times,serif" font-size="14.00" fill="#000000">@PerFragment</text>
<text text-anchor="middle" x="2379.7692" y="-229.2" font-family="Times,serif" font-size="14.00" fill="#000000">WelcomeActivityModule_BindFinishFragment.FinishFragmentSubcomponent</text>
</a>
</g>
</g>
<!-- fbce6f97&#45;e9ac&#45;420a&#45;b670&#45;d5903a5e095e&#45;&gt;f9906086&#45;833f&#45;4be0&#45;93df&#45;0818f4526e3c -->
<g id="edge23" class="edge">
<title>fbce6f97&#45;e9ac&#45;420a&#45;b670&#45;d5903a5e095e&#45;&gt;f9906086&#45;833f&#45;4be0&#45;93df&#45;0818f4526e3c:w</title>
<path fill="none" stroke="#000000" stroke-dasharray="5,2" d="M1888.9291,-800.0038C1931.5708,-796.8274 1976.4364,-784.7293 2005.8452,-752.8 2040.3977,-715.2862 1993.7334,-565.1635 2023.8452,-524 2046.9752,-492.3808 2082.8931,-522.7952 2105.5002,-490.8 2119.5567,-470.9063 2104.7782,-293.672 2115.5002,-271.8 2122.86,-256.7866 2127.958,-246.3653 2140.6489,-242.9851"/>
<polygon fill="#000000" stroke="#000000" points="2141.2442,-246.4394 2150.7692,-241.8 2140.43,-239.4869 2141.2442,-246.4394"/>
<text text-anchor="middle" x="2064.6727" y="-528" font-family="Times,serif" font-size="14.00" fill="#000000">subcomponent</text>
</g>
<!-- 214d0999&#45;402a&#45;4166&#45;8958&#45;30e3d8e9981c -->
<g id="node20" class="node">
<title>214d0999&#45;402a&#45;4166&#45;8958&#45;30e3d8e9981c</title>
<polygon fill="#ff3030" stroke="#ff3030" points="593.4804,-422.8 15.8398,-422.8 15.8398,-386.8 593.4804,-386.8 593.4804,-422.8"/>
<text text-anchor="middle" x="304.6601" y="-400.6" font-family="Times,serif" font-size="14.00" fill="#000000">java.util.Map&lt;java.lang.String,javax.inject.Provider&lt;dagger.android.AndroidInjector.Factory&lt;?&gt;&gt;&gt;</text>
</g>
<!-- 00090d9d&#45;61f6&#45;43e3&#45;89e2&#45;625e5267da9d -->
<g id="node21" class="node">
<title>00090d9d&#45;61f6&#45;43e3&#45;89e2&#45;625e5267da9d</title>
<polygon fill="#40e0d0" stroke="#40e0d0" points="442.3996,-732.8 178.9206,-732.8 178.9206,-736.8 166.9206,-736.8 166.9206,-696.8 442.3996,-696.8 442.3996,-732.8"/>
<polyline fill="none" stroke="#40e0d0" points="166.9206,-732.8 178.9206,-732.8 "/>
<text text-anchor="middle" x="304.6601" y="-710.6" font-family="Times,serif" font-size="14.00" fill="#000000">Map&lt;Class&lt;?&gt;, AndroidInjector.Factory&lt;?&gt;&gt;</text>
</g>
<!-- 00090d9d&#45;61f6&#45;43e3&#45;89e2&#45;625e5267da9d&#45;&gt;48483905&#45;6d13&#45;4bd4&#45;83b0&#45;e6577b918430 -->
<g id="edge9" class="edge">
<title>00090d9d&#45;61f6&#45;43e3&#45;89e2&#45;625e5267da9d&#45;&gt;48483905&#45;6d13&#45;4bd4&#45;83b0&#45;e6577b918430</title>
<path fill="none" stroke="#000000" d="M442.461,-714.8C507.3605,-714.8 585.8387,-714.8 656.3623,-714.8 656.3623,-714.8 656.3623,-714.8 893.4122,-714.8 908.4255,-714.8 923.8958,-714.8 939.4892,-714.8"/>
<polygon fill="#000000" stroke="#000000" points="939.7506,-718.3001 949.7506,-714.8 939.7505,-711.3001 939.7506,-718.3001"/>
</g>
<!-- 00090d9d&#45;61f6&#45;43e3&#45;89e2&#45;625e5267da9d&#45;&gt;98739f9c&#45;726c&#45;445b&#45;b1e1&#45;ca1046b6016a -->
<g id="edge12" class="edge">
<title>00090d9d&#45;61f6&#45;43e3&#45;89e2&#45;625e5267da9d&#45;&gt;98739f9c&#45;726c&#45;445b&#45;b1e1&#45;ca1046b6016a</title>
<path fill="none" stroke="#000000" d="M442.4585,-708.7338C490.3987,-705.4509 544.4064,-700.4344 593.3202,-692.8 621.7766,-688.3586 627.5614,-677.8 656.3623,-677.8 656.3623,-677.8 656.3623,-677.8 893.4122,-677.8 908.0578,-677.8 923.1302,-677.561 938.3223,-677.1398"/>
<polygon fill="#000000" stroke="#000000" points="938.4302,-680.6382 948.3197,-676.8373 938.2184,-673.6414 938.4302,-680.6382"/>
</g>
<!-- 00090d9d&#45;61f6&#45;43e3&#45;89e2&#45;625e5267da9d&#45;&gt;3dc80a3c&#45;87c1&#45;43e9&#45;bbc3&#45;2d13187428bb -->
<g id="edge10" class="edge">
<title>00090d9d&#45;61f6&#45;43e3&#45;89e2&#45;625e5267da9d&#45;&gt;3dc80a3c&#45;87c1&#45;43e9&#45;bbc3&#45;2d13187428bb</title>
<path fill="none" stroke="#000000" d="M442.3261,-724.8667C492.0448,-723.3024 547.232,-715.2498 593.3202,-692.8 630.6645,-674.6094 614.8233,-623.8 656.3623,-623.8 656.3623,-623.8 656.3623,-623.8 893.4122,-623.8 905.1928,-623.8 917.2495,-623.6454 929.4225,-623.3656"/>
<polygon fill="#000000" stroke="#000000" points="929.7651,-626.8581 939.6718,-623.1019 929.585,-619.8604 929.7651,-626.8581"/>
</g>
<!-- 00090d9d&#45;61f6&#45;43e3&#45;89e2&#45;625e5267da9d&#45;&gt;e8d4f4b9&#45;2290&#45;42c8&#45;8b3b&#45;85df0159037b -->
<g id="edge13" class="edge">
<title>00090d9d&#45;61f6&#45;43e3&#45;89e2&#45;625e5267da9d&#45;&gt;e8d4f4b9&#45;2290&#45;42c8&#45;8b3b&#45;85df0159037b</title>
<path fill="none" stroke="#000000" d="M351.3524,-732.8968C417.9667,-757.0449 544.6048,-796.8 656.3623,-796.8 656.3623,-796.8 656.3623,-796.8 893.4122,-796.8 935.6209,-796.8 981.2849,-799.8205 1023.1454,-803.8024"/>
<polygon fill="#000000" stroke="#000000" points="1022.8433,-807.2895 1033.136,-804.7776 1023.5233,-800.3226 1022.8433,-807.2895"/>
</g>
<!-- 00090d9d&#45;61f6&#45;43e3&#45;89e2&#45;625e5267da9d&#45;&gt;973d32ea&#45;d62c&#45;4329&#45;b6df&#45;58cd705c8381 -->
<g id="edge11" class="edge">
<title>00090d9d&#45;61f6&#45;43e3&#45;89e2&#45;625e5267da9d&#45;&gt;973d32ea&#45;d62c&#45;4329&#45;b6df&#45;58cd705c8381</title>
<path fill="none" stroke="#000000" d="M417.9884,-732.8123C486.7554,-742.2219 576.3935,-751.8 656.3623,-751.8 656.3623,-751.8 656.3623,-751.8 893.4122,-751.8 906.8081,-751.8 920.5611,-751.9999 934.4362,-752.3564"/>
<polygon fill="#000000" stroke="#000000" points="934.4625,-755.8585 944.5576,-752.643 934.6607,-748.8613 934.4625,-755.8585"/>
</g>
</g>
</svg>
