<svg width="1734px" height="207px"
 viewBox="0.00 0.00 1733.83 206.60" xmlns="http://www.w3.org/2000/svg" xmlns:xlink="http://www.w3.org/1999/xlink">
<g id="graph0" class="graph" transform="scale(1.0 1.0) rotate(0) translate(14.4 192.2)">
<title>org.owntracks.android.ui.welcome.StatusActivityModule</title>
<polygon fill="#ffffff" stroke="transparent" points="-14.4,14.4 -14.4,-192.2 1719.4266,-192.2 1719.4266,14.4 -14.4,14.4"/>
<text text-anchor="middle" x="69.8282" y="-8.2" font-family="Times,serif" font-size="14.00" fill="#000000">StatusActivityModule</text>
<g id="clust2" class="cluster">
<title>cluster_Dependency Graph</title>
<polygon fill="none" stroke="#000000" points="8,-32.8 8,-169.8 1697.0266,-169.8 1697.0266,-32.8 8,-32.8"/>
<text text-anchor="middle" x="70.2234" y="-153.2" font-family="Times,serif" font-size="14.00" fill="#000000">Dependency Graph</text>
</g>
<!-- 2c65d5b6&#45;1c59&#45;4613&#45;8840&#45;b3cf301e2587 -->
<g id="node1" class="node">
<title>2c65d5b6&#45;1c59&#45;4613&#45;8840&#45;b3cf301e2587</title>
<polygon fill="#7fffd4" stroke="#7fffd4" points="1287.7639,-136.4019 1157.1179,-136.4019 1157.1179,-95.1981 1287.7639,-95.1981 1287.7639,-136.4019"/>
<text text-anchor="middle" x="1222.4409" y="-120" font-family="Times,serif" font-size="14.00" fill="#000000">@PerActivity</text>
<text text-anchor="middle" x="1222.4409" y="-103.2" font-family="Times,serif" font-size="14.00" fill="#000000">AppCompatActivity</text>
</g>
<!-- c965f9cd&#45;fe8e&#45;4d2a&#45;afb4&#45;bcd6dbee58fa -->
<g id="node2" class="node">
<title>c965f9cd&#45;fe8e&#45;4d2a&#45;afb4&#45;bcd6dbee58fa</title>
<polygon fill="#ff3030" stroke="#ff3030" points="1689.1969,-133.8 1413.5161,-133.8 1413.5161,-97.8 1689.1969,-97.8 1689.1969,-133.8"/>
<text text-anchor="middle" x="1551.3565" y="-111.6" font-family="Times,serif" font-size="14.00" fill="#000000">org.owntracks.android.ui.status.StatusActivity</text>
</g>
<!-- 2c65d5b6&#45;1c59&#45;4613&#45;8840&#45;b3cf301e2587&#45;&gt;c965f9cd&#45;fe8e&#45;4d2a&#45;afb4&#45;bcd6dbee58fa -->
<g id="edge2" class="edge">
<title>2c65d5b6&#45;1c59&#45;4613&#45;8840&#45;b3cf301e2587&#45;&gt;c965f9cd&#45;fe8e&#45;4d2a&#45;afb4&#45;bcd6dbee58fa</title>
<path fill="none" stroke="#000000" stroke-dasharray="5,2" d="M1287.8173,-115.8C1320.9777,-115.8 1362.7066,-115.8 1403.1166,-115.8"/>
<polygon fill="#000000" stroke="#000000" points="1403.3559,-119.3001 1413.3558,-115.8 1403.3558,-112.3001 1403.3559,-119.3001"/>
<text text-anchor="middle" x="1350.6443" y="-120" font-family="Times,serif" font-size="14.00" fill="#000000">delegates</text>
<text text-anchor="middle" x="1367.6577" y="-103.2" font-family="Times,serif" font-size="14.00" fill="#000000">Missing binding</text>
</g>
<!-- 53641d36&#45;f00a&#45;4d8c&#45;83c9&#45;a12b3a8fd416 -->
<g id="node3" class="node">
<title>53641d36&#45;f00a&#45;4d8c&#45;83c9&#45;a12b3a8fd416</title>
<polygon fill="#40e0d0" stroke="#40e0d0" points="295.1383,-87.8 15.9539,-87.8 15.9539,-51.8 295.1383,-51.8 295.1383,-87.8"/>
<text text-anchor="middle" x="155.5461" y="-65.6" font-family="Times,serif" font-size="14.00" fill="#000000">StatusMvvm.ViewModel&lt;StatusMvvm.View&gt;</text>
</g>
<!-- b4bf6f39&#45;eed2&#45;4de1&#45;bd27&#45;e6af2501cfa9 -->
<g id="node4" class="node">
<title>b4bf6f39&#45;eed2&#45;4de1&#45;bd27&#45;e6af2501cfa9</title>
<polygon fill="#7fffd4" stroke="#7fffd4" points="538.3132,-90.4019 421.1308,-90.4019 421.1308,-49.1981 538.3132,-49.1981 538.3132,-90.4019"/>
<text text-anchor="middle" x="479.722" y="-74" font-family="Times,serif" font-size="14.00" fill="#000000">@PerActivity</text>
<text text-anchor="middle" x="479.722" y="-57.2" font-family="Times,serif" font-size="14.00" fill="#000000">StatusViewModel</text>
</g>
<!-- 53641d36&#45;f00a&#45;4d8c&#45;83c9&#45;a12b3a8fd416&#45;&gt;b4bf6f39&#45;eed2&#45;4de1&#45;bd27&#45;e6af2501cfa9 -->
<g id="edge3" class="edge">
<title>53641d36&#45;f00a&#45;4d8c&#45;83c9&#45;a12b3a8fd416&#45;&gt;b4bf6f39&#45;eed2&#45;4de1&#45;bd27&#45;e6af2501cfa9</title>
<path fill="none" stroke="#000000" stroke-dasharray="1,5" d="M295.378,-69.8C335.2895,-69.8 377.0362,-69.8 410.6895,-69.8"/>
<polygon fill="#000000" stroke="#000000" points="410.8628,-73.3001 420.8628,-69.8 410.8627,-66.3001 410.8628,-73.3001"/>
<text text-anchor="middle" x="358.1343" y="-74" font-family="Times,serif" font-size="14.00" fill="#000000">delegates</text>
</g>
<!-- 2c67e0ca&#45;9f15&#45;475f&#45;9754&#45;dc9a8a7ba077 -->
<g id="node5" class="node">
<title>2c67e0ca&#45;9f15&#45;475f&#45;9754&#45;dc9a8a7ba077</title>
<polygon fill="#ff3030" stroke="#ff3030" points="1082.2856,-76.8 613.2616,-76.8 613.2616,-40.8 1082.2856,-40.8 1082.2856,-76.8"/>
<text text-anchor="middle" x="847.7736" y="-54.6" font-family="Times,serif" font-size="14.00" fill="#000000">@org.owntracks.android.injection.qualifier.AppContext android.content.Context</text>
</g>
<!-- b4bf6f39&#45;eed2&#45;4de1&#45;bd27&#45;e6af2501cfa9&#45;&gt;2c67e0ca&#45;9f15&#45;475f&#45;9754&#45;dc9a8a7ba077 -->
<g id="edge4" class="edge">
<title>b4bf6f39&#45;eed2&#45;4de1&#45;bd27&#45;e6af2501cfa9&#45;&gt;2c67e0ca&#45;9f15&#45;475f&#45;9754&#45;dc9a8a7ba077</title>
<path fill="none" stroke="#000000" stroke-dasharray="5,2" d="M538.4478,-68.0449C557.1828,-67.4849 579.2173,-66.8264 602.7526,-66.123"/>
<polygon fill="#000000" stroke="#000000" points="603.0349,-69.6162 612.9258,-65.8189 602.8257,-62.6193 603.0349,-69.6162"/>
<text text-anchor="middle" x="567.2277" y="-70.0189" font-family="Times,serif" font-size="14.00" fill="#000000">Missing binding</text>
</g>
<!-- 8b184e58&#45;f2a9&#45;494c&#45;a469&#45;2e44009a580e -->
<g id="node6" class="node">
<title>8b184e58&#45;f2a9&#45;494c&#45;a469&#45;2e44009a580e</title>
<polygon fill="#7fffd4" stroke="#7fffd4" points="894.7086,-136.4019 800.8386,-136.4019 800.8386,-95.1981 894.7086,-95.1981 894.7086,-136.4019"/>
<text text-anchor="middle" x="847.7736" y="-120" font-family="Times,serif" font-size="14.00" fill="#000000">@PerActivity</text>
<text text-anchor="middle" x="847.7736" y="-103.2" font-family="Times,serif" font-size="14.00" fill="#000000">Navigator</text>
</g>
<!-- b4bf6f39&#45;eed2&#45;4de1&#45;bd27&#45;e6af2501cfa9&#45;&gt;8b184e58&#45;f2a9&#45;494c&#45;a469&#45;2e44009a580e -->
<g id="edge5" class="edge">
<title>b4bf6f39&#45;eed2&#45;4de1&#45;bd27&#45;e6af2501cfa9&#45;&gt;8b184e58&#45;f2a9&#45;494c&#45;a469&#45;2e44009a580e</title>
<path fill="none" stroke="#000000" d="M538.4478,-77.1397C607.7497,-85.8012 722.2007,-100.1056 790.7521,-108.6733"/>
<polygon fill="#000000" stroke="#000000" points="790.5772,-112.1786 800.9341,-109.9459 791.4454,-105.2326 790.5772,-112.1786"/>
</g>
<!-- 8b184e58&#45;f2a9&#45;494c&#45;a469&#45;2e44009a580e&#45;&gt;2c65d5b6&#45;1c59&#45;4613&#45;8840&#45;b3cf301e2587 -->
<g id="edge1" class="edge">
<title>8b184e58&#45;f2a9&#45;494c&#45;a469&#45;2e44009a580e&#45;&gt;2c65d5b6&#45;1c59&#45;4613&#45;8840&#45;b3cf301e2587</title>
<path fill="none" stroke="#000000" d="M894.8461,-115.8C958.1044,-115.8 1071.2896,-115.8 1146.6315,-115.8"/>
<polygon fill="#000000" stroke="#000000" points="1147.0023,-119.3001 1157.0023,-115.8 1147.0022,-112.3001 1147.0023,-119.3001"/>
</g>
</g>
</svg>
