<svg width="939px" height="169px"
 viewBox="0.00 0.00 938.59 168.60" xmlns="http://www.w3.org/2000/svg" xmlns:xlink="http://www.w3.org/1999/xlink">
<g id="graph0" class="graph" transform="scale(1.0 1.0) rotate(0) translate(14.4 154.2)">
<title>org.owntracks.android.ui.preferences.PreferencesActivityModule → org.owntracks.android.ui.preferences.PreferencesActivityModule_BindNotificationPreferencesFragment.NotificationFragmentSubcomponent</title>
<polygon fill="#ffffff" stroke="transparent" points="-14.4,14.4 -14.4,-154.2 924.1868,-154.2 924.1868,14.4 -14.4,14.4"/>
<text text-anchor="middle" x="386.2695" y="-8.2" font-family="Times,serif" font-size="14.00" fill="#000000">PreferencesActivityModule → PreferencesActivityModule_BindNotificationPreferencesFragment.NotificationFragmentSubcomponent</text>
<g id="clust1" class="cluster">
<title>cluster_Entry Points</title>
<polygon fill="none" stroke="#000000" points="8,-35.8 8,-112.8 205.2252,-112.8 205.2252,-35.8 8,-35.8"/>
<text text-anchor="middle" x="50.8061" y="-96.2" font-family="Times,serif" font-size="14.00" fill="#000000">Entry Points</text>
</g>
<g id="clust4" class="cluster">
<title>cluster_PreferencesActivityModule → PreferencesActivityModule_BindNotificationPreferencesFragment.NotificationFragmentSubcomponent</title>
<g id="a_clust4"><a xlink:href="full_org.owntracks.android.ui.preferences.PreferencesActivityModule_BindNotificationPreferencesFragment.NotificationFragmentSubcomponent.svg" xlink:title="Inherited from PreferencesActivityModule_BindNotificationPreferencesFragment.NotificationFragmentSubcomponent\n@PerFragment">
<polygon fill="none" stroke="#ffe4c4" stroke-dasharray="5,2" points="225.2252,-32.8 225.2252,-131.8 909.7868,-131.8 909.7868,-32.8 225.2252,-32.8"/>
<text text-anchor="middle" x="567.506" y="-115.2" font-family="Times,serif" font-size="14.00" fill="#000000">Inherited from PreferencesActivityModule_BindNotificationPreferencesFragment.NotificationFragmentSubcomponent</text>
<text text-anchor="middle" x="567.506" y="-98.4" font-family="Times,serif" font-size="14.00" fill="#000000">@PerFragment</text>
</a>
</g>
</g>
<!-- c8b4407a&#45;0c51&#45;4114&#45;bea8&#45;d2993c6c081f -->
<g id="node1" class="node">
<title>c8b4407a&#45;0c51&#45;4114&#45;bea8&#45;d2993c6c081f</title>
<polygon fill="#40e0d0" stroke="#40e0d0" stroke-width="2" points="197.3379,-79.8 15.8873,-79.8 15.8873,-75.8 11.8873,-75.8 11.8873,-71.8 15.8873,-71.8 15.8873,-51.8 11.8873,-51.8 11.8873,-47.8 15.8873,-47.8 15.8873,-43.8 197.3379,-43.8 197.3379,-79.8"/>
<polyline fill="none" stroke="#40e0d0" stroke-width="2" points="15.8873,-75.8 19.8873,-75.8 19.8873,-71.8 15.8873,-71.8 "/>
<polyline fill="none" stroke="#40e0d0" stroke-width="2" points="15.8873,-51.8 19.8873,-51.8 19.8873,-47.8 15.8873,-47.8 "/>
<text text-anchor="middle" x="106.6126" y="-57.6" font-family="Times,serif" font-size="14.00" fill="#000000">inject (NotificationFragment)</text>
</g>
<!-- f6e7d35c&#45;f4bc&#45;4023&#45;a245&#45;decc4894e4ea -->
<g id="node2" class="node">
<title>f6e7d35c&#45;f4bc&#45;4023&#45;a245&#45;decc4894e4ea</title>
<polygon fill="#ffff00" stroke="#ffff00" points="608.5688,-82.4019 526.4432,-82.4019 526.4432,-41.1981 608.5688,-41.1981 608.5688,-82.4019"/>
<text text-anchor="middle" x="567.506" y="-66" font-family="Times,serif" font-size="14.00" fill="#000000">@Singleton</text>
<text text-anchor="middle" x="567.506" y="-49.2" font-family="Times,serif" font-size="14.00" fill="#000000">Preferences</text>
</g>
<!-- c8b4407a&#45;0c51&#45;4114&#45;bea8&#45;d2993c6c081f&#45;&gt;f6e7d35c&#45;f4bc&#45;4023&#45;a245&#45;decc4894e4ea -->
<g id="edge1" class="edge">
<title>c8b4407a&#45;0c51&#45;4114&#45;bea8&#45;d2993c6c081f&#45;&gt;f6e7d35c&#45;f4bc&#45;4023&#45;a245&#45;decc4894e4ea</title>
<path fill="none" stroke="#000000" d="M197.3952,-61.8C292.5733,-61.8 438.7854,-61.8 515.8573,-61.8"/>
<polygon fill="#000000" stroke="#000000" points="516.2611,-65.3001 526.2611,-61.8 516.261,-58.3001 516.2611,-65.3001"/>
</g>
</g>
</svg>
