<svg width="2179px" height="288px"
 viewBox="0.00 0.00 2178.52 287.60" xmlns="http://www.w3.org/2000/svg" xmlns:xlink="http://www.w3.org/1999/xlink">
<g id="graph0" class="graph" transform="scale(1.0 1.0) rotate(0) translate(14.4 273.2)">
<title>org.owntracks.android.ui.welcome.WelcomeActivityModule_BindFinishFragment</title>
<polygon fill="#ffffff" stroke="transparent" points="-14.4,14.4 -14.4,-273.2 2164.121,-273.2 2164.121,14.4 -14.4,14.4"/>
<text text-anchor="middle" x="140.9811" y="-8.2" font-family="Times,serif" font-size="14.00" fill="#000000">WelcomeActivityModule_BindFinishFragment</text>
<g id="clust2" class="cluster">
<title>cluster_Dependency Graph</title>
<polygon fill="none" stroke="#000000" points="8,-32.8 8,-250.8 1565.9488,-250.8 1565.9488,-32.8 8,-32.8"/>
<text text-anchor="middle" x="70.2234" y="-234.2" font-family="Times,serif" font-size="14.00" fill="#000000">Dependency Graph</text>
</g>
<g id="clust3" class="cluster">
<title>cluster_Map&lt;Class&lt;?&gt;, AndroidInjector.Factory&lt;?&gt;&gt;</title>
<path fill="none" stroke="#000000" d="M171.0404,-140.8C171.0404,-140.8 1192.9466,-140.8 1192.9466,-140.8 1198.9466,-140.8 1204.9466,-146.8 1204.9466,-152.8 1204.9466,-152.8 1204.9466,-205.8 1204.9466,-205.8 1204.9466,-211.8 1198.9466,-217.8 1192.9466,-217.8 1192.9466,-217.8 171.0404,-217.8 171.0404,-217.8 165.0404,-217.8 159.0404,-211.8 159.0404,-205.8 159.0404,-205.8 159.0404,-152.8 159.0404,-152.8 159.0404,-146.8 165.0404,-140.8 171.0404,-140.8"/>
<text text-anchor="middle" x="681.9935" y="-201.2" font-family="Times,serif" font-size="14.00" fill="#000000">Map&lt;Class&lt;?&gt;, AndroidInjector.Factory&lt;?&gt;&gt;</text>
</g>
<g id="clust4" class="cluster">
<title>cluster_Subcomponents</title>
<polygon fill="none" stroke="#000000" points="1667.6038,-137.8 1667.6038,-220.8 2141.721,-220.8 2141.721,-137.8 1667.6038,-137.8"/>
<text text-anchor="middle" x="1720.3226" y="-204.2" font-family="Times,serif" font-size="14.00" fill="#000000">Subcomponents</text>
</g>
<!-- 93218920&#45;029e&#45;453b&#45;b20f&#45;fdf37425babf -->
<g id="node1" class="node">
<title>93218920&#45;029e&#45;453b&#45;b20f&#45;fdf37425babf</title>
<polygon fill="#40e0d0" stroke="#40e0d0" points="1196.76,-184.8 744.5068,-184.8 744.5068,-148.8 1196.76,-148.8 1196.76,-184.8"/>
<text text-anchor="middle" x="970.6334" y="-162.6" font-family="Times,serif" font-size="14.00" fill="#000000">WelcomeActivityModule_BindFinishFragment.bindAndroidInjectorFactory()</text>
</g>
<!-- 2d6782b1&#45;91a7&#45;4bc1&#45;8615&#45;138683af57e3 -->
<g id="node2" class="node">
<title>2d6782b1&#45;91a7&#45;4bc1&#45;8615&#45;138683af57e3</title>
<polygon fill="#40e0d0" stroke="#40e0d0" points="1557.9078,-195.4014 1323.0718,-195.4014 1323.0718,-138.1986 1557.9078,-138.1986 1557.9078,-195.4014"/>
<text text-anchor="middle" x="1440.4898" y="-179" font-family="Times,serif" font-size="14.00" fill="#000000">FinishFragmentSubcomponent.Factory</text>
<text text-anchor="middle" x="1440.4898" y="-146.2" font-family="Times,serif" font-size="14.00" fill="#000000">Subcomponent Creator</text>
</g>
<!-- 93218920&#45;029e&#45;453b&#45;b20f&#45;fdf37425babf&#45;&gt;2d6782b1&#45;91a7&#45;4bc1&#45;8615&#45;138683af57e3 -->
<g id="edge2" class="edge">
<title>93218920&#45;029e&#45;453b&#45;b20f&#45;fdf37425babf&#45;&gt;2d6782b1&#45;91a7&#45;4bc1&#45;8615&#45;138683af57e3</title>
<path fill="none" stroke="#000000" stroke-dasharray="1,5" d="M1196.96,-166.8C1236.7864,-166.8 1276.9429,-166.8 1312.843,-166.8"/>
<polygon fill="#000000" stroke="#000000" points="1312.852,-170.3001 1322.852,-166.8 1312.852,-163.3001 1312.852,-170.3001"/>
<text text-anchor="middle" x="1259.9887" y="-171" font-family="Times,serif" font-size="14.00" fill="#000000">delegates</text>
</g>
<!-- 4d73ff3a&#45;b538&#45;4f10&#45;b570&#45;f893e95960aa -->
<g id="node6" class="node">
<title>4d73ff3a&#45;b538&#45;4f10&#45;b570&#45;f893e95960aa</title>
<g id="a_node6"><a xlink:href="full_org.owntracks.android.ui.welcome.WelcomeActivityModule_BindFinishFragment.FinishFragmentSubcomponent.svg" xlink:title="@PerFragment\nWelcomeActivityModule_BindFinishFragment.FinishFragmentSubcomponent">
<polygon fill="#7fffd4" stroke="#7fffd4" points="2133.7796,-187.4019 1675.5452,-187.4019 1675.5452,-146.1981 2133.7796,-146.1981 2133.7796,-187.4019"/>
<text text-anchor="middle" x="1904.6624" y="-171" font-family="Times,serif" font-size="14.00" fill="#000000">@PerFragment</text>
<text text-anchor="middle" x="1904.6624" y="-154.2" font-family="Times,serif" font-size="14.00" fill="#000000">WelcomeActivityModule_BindFinishFragment.FinishFragmentSubcomponent</text>
</a>
</g>
</g>
<!-- 2d6782b1&#45;91a7&#45;4bc1&#45;8615&#45;138683af57e3&#45;&gt;4d73ff3a&#45;b538&#45;4f10&#45;b570&#45;f893e95960aa -->
<g id="edge3" class="edge">
<title>2d6782b1&#45;91a7&#45;4bc1&#45;8615&#45;138683af57e3&#45;&gt;4d73ff3a&#45;b538&#45;4f10&#45;b570&#45;f893e95960aa:w</title>
<path fill="none" stroke="#000000" stroke-dasharray="5,2" d="M1558.019,-166.8C1592.2277,-166.8 1629.9119,-166.8 1665.2663,-166.8"/>
<polygon fill="#000000" stroke="#000000" points="1665.6624,-170.3001 1675.6624,-166.8 1665.6624,-163.3001 1665.6624,-170.3001"/>
<text text-anchor="middle" x="1616.7763" y="-171" font-family="Times,serif" font-size="14.00" fill="#000000">subcomponent</text>
</g>
<!-- b0086f7d&#45;8b55&#45;42e8&#45;91ac&#45;119287eccc32 -->
<g id="node3" class="node">
<title>b0086f7d&#45;8b55&#45;42e8&#45;91ac&#45;119287eccc32</title>
<polygon fill="#ff3030" stroke="#ff3030" points="593.4804,-130.8 15.8398,-130.8 15.8398,-94.8 593.4804,-94.8 593.4804,-130.8"/>
<text text-anchor="middle" x="304.6601" y="-108.6" font-family="Times,serif" font-size="14.00" fill="#000000">java.util.Map&lt;java.lang.String,javax.inject.Provider&lt;dagger.android.AndroidInjector.Factory&lt;?&gt;&gt;&gt;</text>
</g>
<!-- 3d4260e5&#45;24be&#45;42e7&#45;b409&#45;5c00ac112b97 -->
<g id="node4" class="node">
<title>3d4260e5&#45;24be&#45;42e7&#45;b409&#45;5c00ac112b97</title>
<polygon fill="#ff3030" stroke="#ff3030" points="440.8882,-76.8 168.432,-76.8 168.432,-40.8 440.8882,-40.8 440.8882,-76.8"/>
<text text-anchor="middle" x="304.6601" y="-54.6" font-family="Times,serif" font-size="14.00" fill="#000000">androidx.appcompat.app.AppCompatActivity</text>
</g>
<!-- 421d3879&#45;7694&#45;4b58&#45;8e1f&#45;00b3b60c636c -->
<g id="node5" class="node">
<title>421d3879&#45;7694&#45;4b58&#45;8e1f&#45;00b3b60c636c</title>
<polygon fill="#40e0d0" stroke="#40e0d0" points="442.3996,-184.8 178.9206,-184.8 178.9206,-188.8 166.9206,-188.8 166.9206,-148.8 442.3996,-148.8 442.3996,-184.8"/>
<polyline fill="none" stroke="#40e0d0" points="166.9206,-184.8 178.9206,-184.8 "/>
<text text-anchor="middle" x="304.6601" y="-162.6" font-family="Times,serif" font-size="14.00" fill="#000000">Map&lt;Class&lt;?&gt;, AndroidInjector.Factory&lt;?&gt;&gt;</text>
</g>
<!-- 421d3879&#45;7694&#45;4b58&#45;8e1f&#45;00b3b60c636c&#45;&gt;93218920&#45;029e&#45;453b&#45;b20f&#45;fdf37425babf -->
<g id="edge1" class="edge">
<title>421d3879&#45;7694&#45;4b58&#45;8e1f&#45;00b3b60c636c&#45;&gt;93218920&#45;029e&#45;453b&#45;b20f&#45;fdf37425babf</title>
<path fill="none" stroke="#000000" d="M442.3313,-166.8C500.4944,-166.8 568.9574,-166.8 630.8202,-166.8 630.8202,-166.8 630.8202,-166.8 706.8202,-166.8 715.8176,-166.8 724.9876,-166.8 734.2507,-166.8"/>
<polygon fill="#000000" stroke="#000000" points="734.335,-170.3001 744.3349,-166.8 734.3349,-163.3001 734.335,-170.3001"/>
</g>
</g>
</svg>
