<svg width="2147px" height="288px"
 viewBox="0.00 0.00 2147.33 287.60" xmlns="http://www.w3.org/2000/svg" xmlns:xlink="http://www.w3.org/1999/xlink">
<g id="graph0" class="graph" transform="scale(1.0 1.0) rotate(0) translate(14.4 273.2)">
<title>org.owntracks.android.ui.welcome.WelcomeActivityModule_BindIntroFragment</title>
<polygon fill="#ffffff" stroke="transparent" points="-14.4,14.4 -14.4,-273.2 2132.9346,-273.2 2132.9346,14.4 -14.4,14.4"/>
<text text-anchor="middle" x="137.0828" y="-8.2" font-family="Times,serif" font-size="14.00" fill="#000000">WelcomeActivityModule_BindIntroFragment</text>
<g id="clust2" class="cluster">
<title>cluster_Dependency Graph</title>
<polygon fill="none" stroke="#000000" points="8,-32.8 8,-250.8 1550.3556,-250.8 1550.3556,-32.8 8,-32.8"/>
<text text-anchor="middle" x="70.2234" y="-234.2" font-family="Times,serif" font-size="14.00" fill="#000000">Dependency Graph</text>
</g>
<g id="clust3" class="cluster">
<title>cluster_Map&lt;Class&lt;?&gt;, AndroidInjector.Factory&lt;?&gt;&gt;</title>
<path fill="none" stroke="#000000" d="M171.0404,-140.8C171.0404,-140.8 1185.15,-140.8 1185.15,-140.8 1191.15,-140.8 1197.15,-146.8 1197.15,-152.8 1197.15,-152.8 1197.15,-205.8 1197.15,-205.8 1197.15,-211.8 1191.15,-217.8 1185.15,-217.8 1185.15,-217.8 171.0404,-217.8 171.0404,-217.8 165.0404,-217.8 159.0404,-211.8 159.0404,-205.8 159.0404,-205.8 159.0404,-152.8 159.0404,-152.8 159.0404,-146.8 165.0404,-140.8 171.0404,-140.8"/>
<text text-anchor="middle" x="678.0952" y="-201.2" font-family="Times,serif" font-size="14.00" fill="#000000">Map&lt;Class&lt;?&gt;, AndroidInjector.Factory&lt;?&gt;&gt;</text>
</g>
<g id="clust4" class="cluster">
<title>cluster_Subcomponents</title>
<polygon fill="none" stroke="#000000" points="1652.0106,-137.8 1652.0106,-220.8 2110.5346,-220.8 2110.5346,-137.8 1652.0106,-137.8"/>
<text text-anchor="middle" x="1704.7294" y="-204.2" font-family="Times,serif" font-size="14.00" fill="#000000">Subcomponents</text>
</g>
<!-- 47320cf7&#45;ccbd&#45;4d32&#45;a1d2&#45;c17dc351022a -->
<g id="node1" class="node">
<title>47320cf7&#45;ccbd&#45;4d32&#45;a1d2&#45;c17dc351022a</title>
<polygon fill="#40e0d0" stroke="#40e0d0" points="1189.0649,-184.8 744.4053,-184.8 744.4053,-148.8 1189.0649,-148.8 1189.0649,-184.8"/>
<text text-anchor="middle" x="966.7351" y="-162.6" font-family="Times,serif" font-size="14.00" fill="#000000">WelcomeActivityModule_BindIntroFragment.bindAndroidInjectorFactory()</text>
</g>
<!-- 48a5ad15&#45;ed85&#45;40ec&#45;afbd&#45;64bd78809ab1 -->
<g id="node2" class="node">
<title>48a5ad15&#45;ed85&#45;40ec&#45;afbd&#45;64bd78809ab1</title>
<polygon fill="#40e0d0" stroke="#40e0d0" points="1542.4163,-195.4014 1315.1735,-195.4014 1315.1735,-138.1986 1542.4163,-138.1986 1542.4163,-195.4014"/>
<text text-anchor="middle" x="1428.7949" y="-179" font-family="Times,serif" font-size="14.00" fill="#000000">IntroFragmentSubcomponent.Factory</text>
<text text-anchor="middle" x="1428.7949" y="-146.2" font-family="Times,serif" font-size="14.00" fill="#000000">Subcomponent Creator</text>
</g>
<!-- 47320cf7&#45;ccbd&#45;4d32&#45;a1d2&#45;c17dc351022a&#45;&gt;48a5ad15&#45;ed85&#45;40ec&#45;afbd&#45;64bd78809ab1 -->
<g id="edge2" class="edge">
<title>47320cf7&#45;ccbd&#45;4d32&#45;a1d2&#45;c17dc351022a&#45;&gt;48a5ad15&#45;ed85&#45;40ec&#45;afbd&#45;64bd78809ab1</title>
<path fill="none" stroke="#000000" stroke-dasharray="1,5" d="M1189.3061,-166.8C1228.935,-166.8 1268.8962,-166.8 1304.5174,-166.8"/>
<polygon fill="#000000" stroke="#000000" points="1304.9348,-170.3001 1314.9348,-166.8 1304.9348,-163.3001 1304.9348,-170.3001"/>
<text text-anchor="middle" x="1252.1921" y="-171" font-family="Times,serif" font-size="14.00" fill="#000000">delegates</text>
</g>
<!-- 6a502642&#45;dd1f&#45;48ea&#45;ac37&#45;83bb297d8c4f -->
<g id="node6" class="node">
<title>6a502642&#45;dd1f&#45;48ea&#45;ac37&#45;83bb297d8c4f</title>
<g id="a_node6"><a xlink:href="full_org.owntracks.android.ui.welcome.WelcomeActivityModule_BindIntroFragment.IntroFragmentSubcomponent.svg" xlink:title="@PerFragment\nWelcomeActivityModule_BindIntroFragment.IntroFragmentSubcomponent">
<polygon fill="#7fffd4" stroke="#7fffd4" points="2102.2969,-187.4019 1660.2483,-187.4019 1660.2483,-146.1981 2102.2969,-146.1981 2102.2969,-187.4019"/>
<text text-anchor="middle" x="1881.2726" y="-171" font-family="Times,serif" font-size="14.00" fill="#000000">@PerFragment</text>
<text text-anchor="middle" x="1881.2726" y="-154.2" font-family="Times,serif" font-size="14.00" fill="#000000">WelcomeActivityModule_BindIntroFragment.IntroFragmentSubcomponent</text>
</a>
</g>
</g>
<!-- 48a5ad15&#45;ed85&#45;40ec&#45;afbd&#45;64bd78809ab1&#45;&gt;6a502642&#45;dd1f&#45;48ea&#45;ac37&#45;83bb297d8c4f -->
<g id="edge3" class="edge">
<title>48a5ad15&#45;ed85&#45;40ec&#45;afbd&#45;64bd78809ab1&#45;&gt;6a502642&#45;dd1f&#45;48ea&#45;ac37&#45;83bb297d8c4f:w</title>
<path fill="none" stroke="#000000" stroke-dasharray="5,2" d="M1542.4102,-166.8C1576.5645,-166.8 1614.3904,-166.8 1649.8475,-166.8"/>
<polygon fill="#000000" stroke="#000000" points="1650.2726,-170.3001 1660.2726,-166.8 1650.2726,-163.3001 1650.2726,-170.3001"/>
<text text-anchor="middle" x="1601.1831" y="-171" font-family="Times,serif" font-size="14.00" fill="#000000">subcomponent</text>
</g>
<!-- 95c29a82&#45;82a3&#45;4961&#45;beda&#45;8b905b8330ea -->
<g id="node3" class="node">
<title>95c29a82&#45;82a3&#45;4961&#45;beda&#45;8b905b8330ea</title>
<polygon fill="#ff3030" stroke="#ff3030" points="593.4804,-130.8 15.8398,-130.8 15.8398,-94.8 593.4804,-94.8 593.4804,-130.8"/>
<text text-anchor="middle" x="304.6601" y="-108.6" font-family="Times,serif" font-size="14.00" fill="#000000">java.util.Map&lt;java.lang.String,javax.inject.Provider&lt;dagger.android.AndroidInjector.Factory&lt;?&gt;&gt;&gt;</text>
</g>
<!-- 9b9a2e60&#45;67fc&#45;4bd1&#45;acba&#45;ec21bf3539ec -->
<g id="node4" class="node">
<title>9b9a2e60&#45;67fc&#45;4bd1&#45;acba&#45;ec21bf3539ec</title>
<polygon fill="#ff3030" stroke="#ff3030" points="440.8882,-76.8 168.432,-76.8 168.432,-40.8 440.8882,-40.8 440.8882,-76.8"/>
<text text-anchor="middle" x="304.6601" y="-54.6" font-family="Times,serif" font-size="14.00" fill="#000000">androidx.appcompat.app.AppCompatActivity</text>
</g>
<!-- 74ac61b1&#45;7a67&#45;4b6a&#45;b247&#45;5b6ee41f4a12 -->
<g id="node5" class="node">
<title>74ac61b1&#45;7a67&#45;4b6a&#45;b247&#45;5b6ee41f4a12</title>
<polygon fill="#40e0d0" stroke="#40e0d0" points="442.3996,-184.8 178.9206,-184.8 178.9206,-188.8 166.9206,-188.8 166.9206,-148.8 442.3996,-148.8 442.3996,-184.8"/>
<polyline fill="none" stroke="#40e0d0" points="166.9206,-184.8 178.9206,-184.8 "/>
<text text-anchor="middle" x="304.6601" y="-162.6" font-family="Times,serif" font-size="14.00" fill="#000000">Map&lt;Class&lt;?&gt;, AndroidInjector.Factory&lt;?&gt;&gt;</text>
</g>
<!-- 74ac61b1&#45;7a67&#45;4b6a&#45;b247&#45;5b6ee41f4a12&#45;&gt;47320cf7&#45;ccbd&#45;4d32&#45;a1d2&#45;c17dc351022a -->
<g id="edge1" class="edge">
<title>74ac61b1&#45;7a67&#45;4b6a&#45;b247&#45;5b6ee41f4a12&#45;&gt;47320cf7&#45;ccbd&#45;4d32&#45;a1d2&#45;c17dc351022a</title>
<path fill="none" stroke="#000000" d="M442.3313,-166.8C500.4944,-166.8 568.9574,-166.8 630.8202,-166.8 630.8202,-166.8 630.8202,-166.8 706.8202,-166.8 715.7675,-166.8 724.888,-166.8 734.1012,-166.8"/>
<polygon fill="#000000" stroke="#000000" points="734.1312,-170.3001 744.1312,-166.8 734.1311,-163.3001 734.1312,-170.3001"/>
</g>
</g>
</svg>
