<svg width="2177px" height="287px"
 viewBox="0.00 0.00 2176.99 286.60" xmlns="http://www.w3.org/2000/svg" xmlns:xlink="http://www.w3.org/1999/xlink">
<g id="graph0" class="graph" transform="scale(1.0 1.0) rotate(0) translate(14.4 272.2)">
<title>org.owntracks.android.ui.preferences.editor.EditorActivityModule</title>
<polygon fill="#ffffff" stroke="transparent" points="-14.4,14.4 -14.4,-272.2 2162.5868,-272.2 2162.5868,14.4 -14.4,14.4"/>
<text text-anchor="middle" x="70.2139" y="-8.2" font-family="Times,serif" font-size="14.00" fill="#000000">EditorActivityModule</text>
<g id="clust2" class="cluster">
<title>cluster_Dependency Graph</title>
<polygon fill="none" stroke="#000000" points="8,-32.8 8,-249.8 2140.1868,-249.8 2140.1868,-32.8 8,-32.8"/>
<text text-anchor="middle" x="70.2234" y="-233.2" font-family="Times,serif" font-size="14.00" fill="#000000">Dependency Graph</text>
</g>
<!-- 96d0e143&#45;8f11&#45;4bb0&#45;8f4b&#45;91affdf8301a -->
<g id="node1" class="node">
<title>96d0e143&#45;8f11&#45;4bb0&#45;8f4b&#45;91affdf8301a</title>
<polygon fill="#7fffd4" stroke="#7fffd4" points="1117.3699,-162.4019 986.7239,-162.4019 986.7239,-121.1981 1117.3699,-121.1981 1117.3699,-162.4019"/>
<text text-anchor="middle" x="1052.0469" y="-146" font-family="Times,serif" font-size="14.00" fill="#000000">@PerActivity</text>
<text text-anchor="middle" x="1052.0469" y="-129.2" font-family="Times,serif" font-size="14.00" fill="#000000">AppCompatActivity</text>
</g>
<!-- 701a9fd5&#45;683e&#45;40ba&#45;822c&#45;b1bda8d87dd1 -->
<g id="node2" class="node">
<title>701a9fd5&#45;683e&#45;40ba&#45;822c&#45;b1bda8d87dd1</title>
<polygon fill="#ff3030" stroke="#ff3030" points="1588.116,-159.8 1243.3512,-159.8 1243.3512,-123.8 1588.116,-123.8 1588.116,-159.8"/>
<text text-anchor="middle" x="1415.7336" y="-137.6" font-family="Times,serif" font-size="14.00" fill="#000000">org.owntracks.android.ui.preferences.editor.EditorActivity</text>
</g>
<!-- 96d0e143&#45;8f11&#45;4bb0&#45;8f4b&#45;91affdf8301a&#45;&gt;701a9fd5&#45;683e&#45;40ba&#45;822c&#45;b1bda8d87dd1 -->
<g id="edge2" class="edge">
<title>96d0e143&#45;8f11&#45;4bb0&#45;8f4b&#45;91affdf8301a&#45;&gt;701a9fd5&#45;683e&#45;40ba&#45;822c&#45;b1bda8d87dd1</title>
<path fill="none" stroke="#000000" stroke-dasharray="5,2" d="M1117.4868,-141.8C1150.1716,-141.8 1191.5121,-141.8 1232.9197,-141.8"/>
<polygon fill="#000000" stroke="#000000" points="1233.1588,-145.3001 1243.1587,-141.8 1233.1587,-138.3001 1233.1588,-145.3001"/>
<text text-anchor="middle" x="1180.2503" y="-146" font-family="Times,serif" font-size="14.00" fill="#000000">delegates</text>
<text text-anchor="middle" x="1197.4606" y="-129.2" font-family="Times,serif" font-size="14.00" fill="#000000">Missing binding</text>
</g>
<!-- 810b83d7&#45;244d&#45;41b6&#45;9c9f&#45;c93b50e46bd4 -->
<g id="node3" class="node">
<title>810b83d7&#45;244d&#45;41b6&#45;9c9f&#45;c93b50e46bd4</title>
<polygon fill="#40e0d0" stroke="#40e0d0" points="296.4527,-129.8 16.1823,-129.8 16.1823,-93.8 296.4527,-93.8 296.4527,-129.8"/>
<text text-anchor="middle" x="156.3175" y="-107.6" font-family="Times,serif" font-size="14.00" fill="#000000">EditorMvvm.ViewModel&lt;EditorMvvm.View&gt;</text>
</g>
<!-- c9b3e2c0&#45;37d7&#45;4cac&#45;90d6&#45;4938699074c8 -->
<g id="node4" class="node">
<title>c9b3e2c0&#45;37d7&#45;4cac&#45;90d6&#45;4938699074c8</title>
<polygon fill="#7fffd4" stroke="#7fffd4" points="540.5132,-132.4019 422.7878,-132.4019 422.7878,-91.1981 540.5132,-91.1981 540.5132,-132.4019"/>
<text text-anchor="middle" x="481.6505" y="-116" font-family="Times,serif" font-size="14.00" fill="#000000">@PerActivity</text>
<text text-anchor="middle" x="481.6505" y="-99.2" font-family="Times,serif" font-size="14.00" fill="#000000">EditorViewModel</text>
</g>
<!-- 810b83d7&#45;244d&#45;41b6&#45;9c9f&#45;c93b50e46bd4&#45;&gt;c9b3e2c0&#45;37d7&#45;4cac&#45;90d6&#45;4938699074c8 -->
<g id="edge3" class="edge">
<title>810b83d7&#45;244d&#45;41b6&#45;9c9f&#45;c93b50e46bd4&#45;&gt;c9b3e2c0&#45;37d7&#45;4cac&#45;90d6&#45;4938699074c8</title>
<path fill="none" stroke="#000000" stroke-dasharray="1,5" d="M296.6485,-111.8C336.7025,-111.8 378.5981,-111.8 412.3716,-111.8"/>
<polygon fill="#000000" stroke="#000000" points="412.5812,-115.3001 422.5812,-111.8 412.5811,-108.3001 412.5812,-115.3001"/>
<text text-anchor="middle" x="359.6771" y="-116" font-family="Times,serif" font-size="14.00" fill="#000000">delegates</text>
</g>
<!-- a546fb91&#45;b480&#45;4ae9&#45;8efc&#45;f98273da2b80 -->
<g id="node5" class="node">
<title>a546fb91&#45;b480&#45;4ae9&#45;8efc&#45;f98273da2b80</title>
<polygon fill="#ffe4c4" stroke="#ffe4c4" points="1456.7964,-102.4019 1374.6708,-102.4019 1374.6708,-61.1981 1456.7964,-61.1981 1456.7964,-102.4019"/>
<text text-anchor="middle" x="1415.7336" y="-86" font-family="Times,serif" font-size="14.00" fill="#000000">@Singleton</text>
<text text-anchor="middle" x="1415.7336" y="-69.2" font-family="Times,serif" font-size="14.00" fill="#000000">Preferences</text>
</g>
<!-- c9b3e2c0&#45;37d7&#45;4cac&#45;90d6&#45;4938699074c8&#45;&gt;a546fb91&#45;b480&#45;4ae9&#45;8efc&#45;f98273da2b80 -->
<g id="edge6" class="edge">
<title>c9b3e2c0&#45;37d7&#45;4cac&#45;90d6&#45;4938699074c8&#45;&gt;a546fb91&#45;b480&#45;4ae9&#45;8efc&#45;f98273da2b80</title>
<path fill="none" stroke="#000000" d="M496.9163,-91.1763C514.1211,-70.528 544.1544,-41.8 578.0818,-41.8 578.0818,-41.8 578.0818,-41.8 1180.2503,-41.8 1244.5162,-41.8 1317.2721,-56.4593 1364.6865,-68.029"/>
<polygon fill="#000000" stroke="#000000" points="1363.8585,-71.4296 1374.4074,-70.4446 1365.5467,-64.6362 1363.8585,-71.4296"/>
</g>
<!-- 584e8317&#45;1924&#45;4cc8&#45;b88c&#45;c346c6ba6f05 -->
<g id="node6" class="node">
<title>584e8317&#45;1924&#45;4cc8&#45;b88c&#45;c346c6ba6f05</title>
<polygon fill="#ffe4c4" stroke="#ffe4c4" points="804.7965,-102.4019 722.6709,-102.4019 722.6709,-61.1981 804.7965,-61.1981 804.7965,-102.4019"/>
<text text-anchor="middle" x="763.7337" y="-86" font-family="Times,serif" font-size="14.00" fill="#000000">@Singleton</text>
<text text-anchor="middle" x="763.7337" y="-69.2" font-family="Times,serif" font-size="14.00" fill="#000000">Parser</text>
</g>
<!-- c9b3e2c0&#45;37d7&#45;4cac&#45;90d6&#45;4938699074c8&#45;&gt;584e8317&#45;1924&#45;4cc8&#45;b88c&#45;c346c6ba6f05 -->
<g id="edge7" class="edge">
<title>c9b3e2c0&#45;37d7&#45;4cac&#45;90d6&#45;4938699074c8&#45;&gt;584e8317&#45;1924&#45;4cc8&#45;b88c&#45;c346c6ba6f05</title>
<path fill="none" stroke="#000000" d="M540.7844,-105.511C591.5065,-100.1166 663.8566,-92.4221 712.237,-87.2768"/>
<polygon fill="#000000" stroke="#000000" points="712.9079,-90.7252 722.4816,-86.1872 712.1675,-83.7645 712.9079,-90.7252"/>
</g>
<!-- 207a9522&#45;7fa4&#45;4c88&#45;9372&#45;bb00179ca6ac -->
<g id="node7" class="node">
<title>207a9522&#45;7fa4&#45;4c88&#45;9372&#45;bb00179ca6ac</title>
<polygon fill="#7fffd4" stroke="#7fffd4" points="810.6687,-162.4019 716.7987,-162.4019 716.7987,-121.1981 810.6687,-121.1981 810.6687,-162.4019"/>
<text text-anchor="middle" x="763.7337" y="-146" font-family="Times,serif" font-size="14.00" fill="#000000">@PerActivity</text>
<text text-anchor="middle" x="763.7337" y="-129.2" font-family="Times,serif" font-size="14.00" fill="#000000">Navigator</text>
</g>
<!-- c9b3e2c0&#45;37d7&#45;4cac&#45;90d6&#45;4938699074c8&#45;&gt;207a9522&#45;7fa4&#45;4c88&#45;9372&#45;bb00179ca6ac -->
<g id="edge4" class="edge">
<title>c9b3e2c0&#45;37d7&#45;4cac&#45;90d6&#45;4938699074c8&#45;&gt;207a9522&#45;7fa4&#45;4c88&#45;9372&#45;bb00179ca6ac</title>
<path fill="none" stroke="#000000" d="M540.7844,-118.089C589.6521,-123.2861 658.5953,-130.6184 706.8367,-135.7489"/>
<polygon fill="#000000" stroke="#000000" points="706.488,-139.2315 716.8021,-136.8087 707.2283,-132.2707 706.488,-139.2315"/>
</g>
<!-- 0063a01a&#45;38cd&#45;4d98&#45;acd6&#45;10273fe59b1e -->
<g id="node8" class="node">
<title>0063a01a&#45;38cd&#45;4d98&#45;acd6&#45;10273fe59b1e</title>
<polygon fill="#ff3030" stroke="#ff3030" points="912.0377,-216.8 615.4297,-216.8 615.4297,-180.8 912.0377,-180.8 912.0377,-216.8"/>
<text text-anchor="middle" x="763.7337" y="-194.6" font-family="Times,serif" font-size="14.00" fill="#000000">org.owntracks.android.data.repos.WaypointsRepo</text>
</g>
<!-- c9b3e2c0&#45;37d7&#45;4cac&#45;90d6&#45;4938699074c8&#45;&gt;0063a01a&#45;38cd&#45;4d98&#45;acd6&#45;10273fe59b1e -->
<g id="edge5" class="edge">
<title>c9b3e2c0&#45;37d7&#45;4cac&#45;90d6&#45;4938699074c8&#45;&gt;0063a01a&#45;38cd&#45;4d98&#45;acd6&#45;10273fe59b1e</title>
<path fill="none" stroke="#000000" stroke-dasharray="5,2" d="M521.1102,-132.513C547.2807,-145.4831 582.7293,-161.6114 615.5818,-171.8 623.2156,-174.1675 631.1388,-176.3545 639.1735,-178.3705"/>
<polygon fill="#000000" stroke="#000000" points="638.4755,-181.8024 649.0174,-180.7453 640.1172,-174.9977 638.4755,-181.8024"/>
<text text-anchor="middle" x="603.3193" y="-168.1453" font-family="Times,serif" font-size="14.00" fill="#000000">Missing binding</text>
</g>
<!-- f4726e3c&#45;1fad&#45;485d&#45;89e7&#45;e2ed9a30965b -->
<g id="node9" class="node">
<title>f4726e3c&#45;1fad&#45;485d&#45;89e7&#45;e2ed9a30965b</title>
<polygon fill="#ff3030" stroke="#ff3030" points="2132.1928,-76.8 1663.1688,-76.8 1663.1688,-40.8 2132.1928,-40.8 2132.1928,-76.8"/>
<text text-anchor="middle" x="1897.6808" y="-54.6" font-family="Times,serif" font-size="14.00" fill="#000000">@org.owntracks.android.injection.qualifier.AppContext android.content.Context</text>
</g>
<!-- a546fb91&#45;b480&#45;4ae9&#45;8efc&#45;f98273da2b80&#45;&gt;f4726e3c&#45;1fad&#45;485d&#45;89e7&#45;e2ed9a30965b -->
<g id="edge9" class="edge">
<title>a546fb91&#45;b480&#45;4ae9&#45;8efc&#45;f98273da2b80&#45;&gt;f4726e3c&#45;1fad&#45;485d&#45;89e7&#45;e2ed9a30965b</title>
<path fill="none" stroke="#000000" stroke-dasharray="5,2" d="M1456.8241,-79.839C1501.5928,-77.7025 1577.0162,-74.1031 1652.9385,-70.4799"/>
<polygon fill="#000000" stroke="#000000" points="1653.3433,-73.9646 1663.1651,-69.9918 1653.0096,-66.9726 1653.3433,-73.9646"/>
<text text-anchor="middle" x="1617.467" y="-57.3918" font-family="Times,serif" font-size="14.00" fill="#000000">Missing binding</text>
</g>
<!-- 0836bdb0&#45;6233&#45;4078&#45;95d9&#45;96e62ca08c74 -->
<g id="node10" class="node">
<title>0836bdb0&#45;6233&#45;4078&#45;95d9&#45;96e62ca08c74</title>
<polygon fill="#ff3030" stroke="#ff3030" points="2002.6858,-130.8 1792.6758,-130.8 1792.6758,-94.8 2002.6858,-94.8 2002.6858,-130.8"/>
<text text-anchor="middle" x="1897.6808" y="-108.6" font-family="Times,serif" font-size="14.00" fill="#000000">org.greenrobot.eventbus.EventBus</text>
</g>
<!-- a546fb91&#45;b480&#45;4ae9&#45;8efc&#45;f98273da2b80&#45;&gt;0836bdb0&#45;6233&#45;4078&#45;95d9&#45;96e62ca08c74 -->
<g id="edge10" class="edge">
<title>a546fb91&#45;b480&#45;4ae9&#45;8efc&#45;f98273da2b80&#45;&gt;0836bdb0&#45;6233&#45;4078&#45;95d9&#45;96e62ca08c74</title>
<path fill="none" stroke="#000000" stroke-dasharray="5,2" d="M1456.8241,-84.443C1528.1623,-89.0317 1677.3389,-98.6271 1782.3383,-105.3809"/>
<polygon fill="#000000" stroke="#000000" points="1782.1535,-108.8761 1792.3576,-106.0254 1782.6029,-101.8906 1782.1535,-108.8761"/>
<text text-anchor="middle" x="1746.6595" y="-93.4254" font-family="Times,serif" font-size="14.00" fill="#000000">Missing binding</text>
</g>
<!-- 97ba5523&#45;7ebe&#45;42fe&#45;a961&#45;3dc87a10dc17 -->
<g id="node11" class="node">
<title>97ba5523&#45;7ebe&#45;42fe&#45;a961&#45;3dc87a10dc17</title>
<polygon fill="#ff3030" stroke="#ff3030" points="2074.4645,-184.8 1720.8971,-184.8 1720.8971,-148.8 2074.4645,-148.8 2074.4645,-184.8"/>
<text text-anchor="middle" x="1897.6808" y="-162.6" font-family="Times,serif" font-size="14.00" fill="#000000">org.owntracks.android.support.preferences.PreferencesStore</text>
</g>
<!-- a546fb91&#45;b480&#45;4ae9&#45;8efc&#45;f98273da2b80&#45;&gt;97ba5523&#45;7ebe&#45;42fe&#45;a961&#45;3dc87a10dc17 -->
<g id="edge11" class="edge">
<title>a546fb91&#45;b480&#45;4ae9&#45;8efc&#45;f98273da2b80&#45;&gt;97ba5523&#45;7ebe&#45;42fe&#45;a961&#45;3dc87a10dc17</title>
<path fill="none" stroke="#000000" stroke-dasharray="5,2" d="M1456.8398,-88.0891C1491.993,-93.842 1543.7892,-103.21 1588.1748,-114.8 1622.1713,-123.6772 1628.8714,-132.1942 1663.1748,-139.8 1678.499,-143.1977 1694.487,-146.1831 1710.5971,-148.8035"/>
<polygon fill="#000000" stroke="#000000" points="1710.2155,-152.2865 1720.6389,-150.3883 1711.3068,-145.3721 1710.2155,-152.2865"/>
<text text-anchor="middle" x="1674.9408" y="-137.7883" font-family="Times,serif" font-size="14.00" fill="#000000">Missing binding</text>
</g>
<!-- 16a0b852&#45;752f&#45;4434&#45;ac34&#45;e032cdcae3ee -->
<g id="node12" class="node">
<title>16a0b852&#45;752f&#45;4434&#45;ac34&#45;e032cdcae3ee</title>
<polygon fill="#ffe4c4" stroke="#ffe4c4" points="1115.4656,-102.4019 988.6282,-102.4019 988.6282,-61.1981 1115.4656,-61.1981 1115.4656,-102.4019"/>
<text text-anchor="middle" x="1052.0469" y="-86" font-family="Times,serif" font-size="14.00" fill="#000000">@Singleton</text>
<text text-anchor="middle" x="1052.0469" y="-69.2" font-family="Times,serif" font-size="14.00" fill="#000000">EncryptionProvider</text>
</g>
<!-- 584e8317&#45;1924&#45;4cc8&#45;b88c&#45;c346c6ba6f05&#45;&gt;16a0b852&#45;752f&#45;4434&#45;ac34&#45;e032cdcae3ee -->
<g id="edge12" class="edge">
<title>584e8317&#45;1924&#45;4cc8&#45;b88c&#45;c346c6ba6f05&#45;&gt;16a0b852&#45;752f&#45;4434&#45;ac34&#45;e032cdcae3ee</title>
<path fill="none" stroke="#000000" d="M805.042,-81.8C850.2625,-81.8 923.6567,-81.8 978.7126,-81.8"/>
<polygon fill="#000000" stroke="#000000" points="978.7684,-85.3001 988.7684,-81.8 978.7683,-78.3001 978.7684,-85.3001"/>
</g>
<!-- 207a9522&#45;7fa4&#45;4c88&#45;9372&#45;bb00179ca6ac&#45;&gt;96d0e143&#45;8f11&#45;4bb0&#45;8f4b&#45;91affdf8301a -->
<g id="edge1" class="edge">
<title>207a9522&#45;7fa4&#45;4c88&#45;9372&#45;bb00179ca6ac&#45;&gt;96d0e143&#45;8f11&#45;4bb0&#45;8f4b&#45;91affdf8301a</title>
<path fill="none" stroke="#000000" d="M810.6979,-141.8C855.5754,-141.8 923.9757,-141.8 976.5142,-141.8"/>
<polygon fill="#000000" stroke="#000000" points="976.7987,-145.3001 986.7987,-141.8 976.7987,-138.3001 976.7987,-145.3001"/>
</g>
<!-- 16a0b852&#45;752f&#45;4434&#45;ac34&#45;e032cdcae3ee&#45;&gt;a546fb91&#45;b480&#45;4ae9&#45;8efc&#45;f98273da2b80 -->
<g id="edge8" class="edge">
<title>16a0b852&#45;752f&#45;4434&#45;ac34&#45;e032cdcae3ee&#45;&gt;a546fb91&#45;b480&#45;4ae9&#45;8efc&#45;f98273da2b80</title>
<path fill="none" stroke="#000000" d="M1115.3963,-81.8C1186.0996,-81.8 1299.1339,-81.8 1364.4992,-81.8"/>
<polygon fill="#000000" stroke="#000000" points="1364.5669,-85.3001 1374.5668,-81.8 1364.5668,-78.3001 1364.5669,-85.3001"/>
</g>
</g>
</svg>
