<svg width="454px" height="169px"
 viewBox="0.00 0.00 453.78 168.60" xmlns="http://www.w3.org/2000/svg" xmlns:xlink="http://www.w3.org/1999/xlink">
<g id="graph0" class="graph" transform="scale(1.0 1.0) rotate(0) translate(14.4 154.2)">
<title>org.owntracks.android.AppContextModule</title>
<polygon fill="#ffffff" stroke="transparent" points="-14.4,14.4 -14.4,-154.2 439.3804,-154.2 439.3804,14.4 -14.4,14.4"/>
<text text-anchor="middle" x="63.9944" y="-8.2" font-family="Times,serif" font-size="14.00" fill="#000000">AppContextModule</text>
<g id="clust2" class="cluster">
<title>cluster_Dependency Graph</title>
<polygon fill="none" stroke="#000000" points="8,-32.8 8,-131.8 416.9804,-131.8 416.9804,-32.8 8,-32.8"/>
<text text-anchor="middle" x="70.2234" y="-115.2" font-family="Times,serif" font-size="14.00" fill="#000000">Dependency Graph</text>
</g>
<!-- d2cc93ca&#45;2821&#45;49fe&#45;a4f9&#45;3f604b09c206 -->
<g id="node1" class="node">
<title>d2cc93ca&#45;2821&#45;49fe&#45;a4f9&#45;3f604b09c206</title>
<polygon fill="#7fffd4" stroke="#7fffd4" points="113.498,-99.2014 15.8336,-99.2014 15.8336,-40.3986 113.498,-40.3986 113.498,-99.2014"/>
<text text-anchor="middle" x="64.6658" y="-82.4" font-family="Times,serif" font-size="14.00" fill="#000000">@AppContext</text>
<text text-anchor="middle" x="64.6658" y="-65.6" font-family="Times,serif" font-size="14.00" fill="#000000">@Singleton</text>
<text text-anchor="middle" x="64.6658" y="-48.8" font-family="Times,serif" font-size="14.00" fill="#000000">Context</text>
</g>
<!-- 5678d1e4&#45;25ce&#45;490c&#45;953f&#45;2d1470e57a95 -->
<g id="node2" class="node">
<title>5678d1e4&#45;25ce&#45;490c&#45;953f&#45;2d1470e57a95</title>
<polygon fill="#ff3030" stroke="#ff3030" points="408.7633,-87.8 239.6329,-87.8 239.6329,-51.8 408.7633,-51.8 408.7633,-87.8"/>
<text text-anchor="middle" x="324.1981" y="-65.6" font-family="Times,serif" font-size="14.00" fill="#000000">org.owntracks.android.App</text>
</g>
<!-- d2cc93ca&#45;2821&#45;49fe&#45;a4f9&#45;3f604b09c206&#45;&gt;5678d1e4&#45;25ce&#45;490c&#45;953f&#45;2d1470e57a95 -->
<g id="edge1" class="edge">
<title>d2cc93ca&#45;2821&#45;49fe&#45;a4f9&#45;3f604b09c206&#45;&gt;5678d1e4&#45;25ce&#45;490c&#45;953f&#45;2d1470e57a95</title>
<path fill="none" stroke="#000000" stroke-dasharray="5,2" d="M113.4818,-69.8C146.1032,-69.8 190.0881,-69.8 229.4332,-69.8"/>
<polygon fill="#000000" stroke="#000000" points="229.5921,-73.3001 239.5921,-69.8 229.592,-66.3001 229.5921,-73.3001"/>
<text text-anchor="middle" x="176.3737" y="-74" font-family="Times,serif" font-size="14.00" fill="#000000">delegates</text>
<text text-anchor="middle" x="193.894" y="-57.2" font-family="Times,serif" font-size="14.00" fill="#000000">Missing binding</text>
</g>
</g>
</svg>
