<svg width="904px" height="169px"
 viewBox="0.00 0.00 903.93 168.60" xmlns="http://www.w3.org/2000/svg" xmlns:xlink="http://www.w3.org/1999/xlink">
<g id="graph0" class="graph" transform="scale(1.0 1.0) rotate(0) translate(14.4 154.2)">
<title>org.owntracks.android.ui.preferences.PreferencesActivityModule → org.owntracks.android.ui.preferences.PreferencesActivityModule_BindReportingPreferencesFragment.ReportingFragmentSubcomponent</title>
<polygon fill="#ffffff" stroke="transparent" points="-14.4,14.4 -14.4,-154.2 889.5304,-154.2 889.5304,14.4 -14.4,14.4"/>
<text text-anchor="middle" x="374.6131" y="-8.2" font-family="Times,serif" font-size="14.00" fill="#000000">PreferencesActivityModule → PreferencesActivityModule_BindReportingPreferencesFragment.ReportingFragmentSubcomponent</text>
<g id="clust4" class="cluster">
<title>cluster_PreferencesActivityModule → PreferencesActivityModule_BindReportingPreferencesFragment.ReportingFragmentSubcomponent</title>
<g id="a_clust4"><a xlink:href="full_org.owntracks.android.ui.preferences.PreferencesActivityModule_BindReportingPreferencesFragment.ReportingFragmentSubcomponent.svg" xlink:title="Inherited from PreferencesActivityModule_BindReportingPreferencesFragment.ReportingFragmentSubcomponent\n@PerFragment">
<polygon fill="none" stroke="#ffe4c4" stroke-dasharray="5,2" points="213.5688,-32.8 213.5688,-131.8 875.1304,-131.8 875.1304,-32.8 213.5688,-32.8"/>
<text text-anchor="middle" x="544.3496" y="-115.2" font-family="Times,serif" font-size="14.00" fill="#000000">Inherited from PreferencesActivityModule_BindReportingPreferencesFragment.ReportingFragmentSubcomponent</text>
<text text-anchor="middle" x="544.3496" y="-98.4" font-family="Times,serif" font-size="14.00" fill="#000000">@PerFragment</text>
</a>
</g>
</g>
<g id="clust1" class="cluster">
<title>cluster_Entry Points</title>
<polygon fill="none" stroke="#000000" points="8,-35.8 8,-112.8 193.5688,-112.8 193.5688,-35.8 8,-35.8"/>
<text text-anchor="middle" x="50.8061" y="-96.2" font-family="Times,serif" font-size="14.00" fill="#000000">Entry Points</text>
</g>
<!-- 9d6d2043&#45;c138&#45;4098&#45;9e72&#45;0bf8d0742bc9 -->
<g id="node1" class="node">
<title>9d6d2043&#45;c138&#45;4098&#45;9e72&#45;0bf8d0742bc9</title>
<polygon fill="#40e0d0" stroke="#40e0d0" stroke-width="2" points="185.3537,-79.8 16.2151,-79.8 16.2151,-75.8 12.2151,-75.8 12.2151,-71.8 16.2151,-71.8 16.2151,-51.8 12.2151,-51.8 12.2151,-47.8 16.2151,-47.8 16.2151,-43.8 185.3537,-43.8 185.3537,-79.8"/>
<polyline fill="none" stroke="#40e0d0" stroke-width="2" points="16.2151,-75.8 20.2151,-75.8 20.2151,-71.8 16.2151,-71.8 "/>
<polyline fill="none" stroke="#40e0d0" stroke-width="2" points="16.2151,-51.8 20.2151,-51.8 20.2151,-47.8 16.2151,-47.8 "/>
<text text-anchor="middle" x="100.7844" y="-57.6" font-family="Times,serif" font-size="14.00" fill="#000000">inject (ReportingFragment)</text>
</g>
<!-- 2d7f3412&#45;d9e7&#45;4a48&#45;8a73&#45;e08d2c34d973 -->
<g id="node2" class="node">
<title>2d7f3412&#45;d9e7&#45;4a48&#45;8a73&#45;e08d2c34d973</title>
<polygon fill="#ffff00" stroke="#ffff00" points="584.9124,-82.4019 502.7868,-82.4019 502.7868,-41.1981 584.9124,-41.1981 584.9124,-82.4019"/>
<text text-anchor="middle" x="543.8496" y="-66" font-family="Times,serif" font-size="14.00" fill="#000000">@Singleton</text>
<text text-anchor="middle" x="543.8496" y="-49.2" font-family="Times,serif" font-size="14.00" fill="#000000">Preferences</text>
</g>
<!-- 9d6d2043&#45;c138&#45;4098&#45;9e72&#45;0bf8d0742bc9&#45;&gt;2d7f3412&#45;d9e7&#45;4a48&#45;8a73&#45;e08d2c34d973 -->
<g id="edge1" class="edge">
<title>9d6d2043&#45;c138&#45;4098&#45;9e72&#45;0bf8d0742bc9&#45;&gt;2d7f3412&#45;d9e7&#45;4a48&#45;8a73&#45;e08d2c34d973</title>
<path fill="none" stroke="#000000" d="M185.4259,-61.8C276.105,-61.8 417.1098,-61.8 492.3847,-61.8"/>
<polygon fill="#000000" stroke="#000000" points="492.558,-65.3001 502.558,-61.8 492.558,-58.3001 492.558,-65.3001"/>
</g>
</g>
</svg>
