<svg width="2287px" height="342px"
 viewBox="0.00 0.00 2287.36 341.60" xmlns="http://www.w3.org/2000/svg" xmlns:xlink="http://www.w3.org/1999/xlink">
<g id="graph0" class="graph" transform="scale(1.0 1.0) rotate(0) translate(14.4 327.2)">
<title>org.owntracks.android.ui.welcome.WelcomeActivityModule_BindPermissionFragment</title>
<polygon fill="#ffffff" stroke="transparent" points="-14.4,14.4 -14.4,-327.2 2272.9626,-327.2 2272.9626,14.4 -14.4,14.4"/>
<text text-anchor="middle" x="154.5863" y="-8.2" font-family="Times,serif" font-size="14.00" fill="#000000">WelcomeActivityModule_BindPermissionFragment</text>
<g id="clust2" class="cluster">
<title>cluster_Dependency Graph</title>
<polygon fill="none" stroke="#000000" points="8,-32.8 8,-304.8 1620.3696,-304.8 1620.3696,-32.8 8,-32.8"/>
<text text-anchor="middle" x="70.2234" y="-288.2" font-family="Times,serif" font-size="14.00" fill="#000000">Dependency Graph</text>
</g>
<g id="clust3" class="cluster">
<title>cluster_Map&lt;Class&lt;?&gt;, AndroidInjector.Factory&lt;?&gt;&gt;</title>
<path fill="none" stroke="#000000" d="M171.0404,-194.8C171.0404,-194.8 1220.157,-194.8 1220.157,-194.8 1226.157,-194.8 1232.157,-200.8 1232.157,-206.8 1232.157,-206.8 1232.157,-259.8 1232.157,-259.8 1232.157,-265.8 1226.157,-271.8 1220.157,-271.8 1220.157,-271.8 171.0404,-271.8 171.0404,-271.8 165.0404,-271.8 159.0404,-265.8 159.0404,-259.8 159.0404,-259.8 159.0404,-206.8 159.0404,-206.8 159.0404,-200.8 165.0404,-194.8 171.0404,-194.8"/>
<text text-anchor="middle" x="695.5987" y="-255.2" font-family="Times,serif" font-size="14.00" fill="#000000">Map&lt;Class&lt;?&gt;, AndroidInjector.Factory&lt;?&gt;&gt;</text>
</g>
<g id="clust4" class="cluster">
<title>cluster_Subcomponents</title>
<polygon fill="none" stroke="#000000" points="1722.0246,-191.8 1722.0246,-274.8 2250.5626,-274.8 2250.5626,-191.8 1722.0246,-191.8"/>
<text text-anchor="middle" x="1774.7434" y="-258.2" font-family="Times,serif" font-size="14.00" fill="#000000">Subcomponents</text>
</g>
<!-- 5c71964b&#45;e3cb&#45;459d&#45;af4b&#45;782d8b211ffa -->
<g id="node1" class="node">
<title>5c71964b&#45;e3cb&#45;459d&#45;af4b&#45;782d8b211ffa</title>
<polygon fill="#40e0d0" stroke="#40e0d0" points="1224.0754,-238.8 744.4018,-238.8 744.4018,-202.8 1224.0754,-202.8 1224.0754,-238.8"/>
<text text-anchor="middle" x="984.2386" y="-216.6" font-family="Times,serif" font-size="14.00" fill="#000000">WelcomeActivityModule_BindPermissionFragment.bindAndroidInjectorFactory()</text>
</g>
<!-- 90d403d6&#45;ce58&#45;4685&#45;b5a0&#45;a73eba0c155e -->
<g id="node2" class="node">
<title>90d403d6&#45;ce58&#45;4685&#45;b5a0&#45;a73eba0c155e</title>
<polygon fill="#40e0d0" stroke="#40e0d0" points="1612.4338,-249.4014 1350.177,-249.4014 1350.177,-192.1986 1612.4338,-192.1986 1612.4338,-249.4014"/>
<text text-anchor="middle" x="1481.3054" y="-233" font-family="Times,serif" font-size="14.00" fill="#000000">PermissionFragmentSubcomponent.Factory</text>
<text text-anchor="middle" x="1481.3054" y="-200.2" font-family="Times,serif" font-size="14.00" fill="#000000">Subcomponent Creator</text>
</g>
<!-- 5c71964b&#45;e3cb&#45;459d&#45;af4b&#45;782d8b211ffa&#45;&gt;90d403d6&#45;ce58&#45;4685&#45;b5a0&#45;a73eba0c155e -->
<g id="edge2" class="edge">
<title>5c71964b&#45;e3cb&#45;459d&#45;af4b&#45;782d8b211ffa&#45;&gt;90d403d6&#45;ce58&#45;4685&#45;b5a0&#45;a73eba0c155e</title>
<path fill="none" stroke="#000000" stroke-dasharray="1,5" d="M1224.4,-220.8C1263.9625,-220.8 1303.8082,-220.8 1339.921,-220.8"/>
<polygon fill="#000000" stroke="#000000" points="1340.0044,-224.3001 1350.0043,-220.8 1340.0043,-217.3001 1340.0044,-224.3001"/>
<text text-anchor="middle" x="1287.1991" y="-225" font-family="Times,serif" font-size="14.00" fill="#000000">delegates</text>
</g>
<!-- acd48105&#45;8949&#45;48f0&#45;a091&#45;0ddf20306a54 -->
<g id="node7" class="node">
<title>acd48105&#45;8949&#45;48f0&#45;a091&#45;0ddf20306a54</title>
<g id="a_node7"><a xlink:href="full_org.owntracks.android.ui.welcome.WelcomeActivityModule_BindPermissionFragment.PermissionFragmentSubcomponent.svg" xlink:title="@PerFragment\nWelcomeActivityModule_BindPermissionFragment.PermissionFragmentSubcomponent">
<polygon fill="#7fffd4" stroke="#7fffd4" points="2242.3318,-241.4019 1730.2554,-241.4019 1730.2554,-200.1981 2242.3318,-200.1981 2242.3318,-241.4019"/>
<text text-anchor="middle" x="1986.2936" y="-225" font-family="Times,serif" font-size="14.00" fill="#000000">@PerFragment</text>
<text text-anchor="middle" x="1986.2936" y="-208.2" font-family="Times,serif" font-size="14.00" fill="#000000">WelcomeActivityModule_BindPermissionFragment.PermissionFragmentSubcomponent</text>
</a>
</g>
</g>
<!-- 90d403d6&#45;ce58&#45;4685&#45;b5a0&#45;a73eba0c155e&#45;&gt;acd48105&#45;8949&#45;48f0&#45;a091&#45;0ddf20306a54 -->
<g id="edge3" class="edge">
<title>90d403d6&#45;ce58&#45;4685&#45;b5a0&#45;a73eba0c155e&#45;&gt;acd48105&#45;8949&#45;48f0&#45;a091&#45;0ddf20306a54:w</title>
<path fill="none" stroke="#000000" stroke-dasharray="5,2" d="M1612.4647,-220.8C1647.0603,-220.8 1684.598,-220.8 1719.9073,-220.8"/>
<polygon fill="#000000" stroke="#000000" points="1720.2936,-224.3001 1730.2936,-220.8 1720.2936,-217.3001 1720.2936,-224.3001"/>
<text text-anchor="middle" x="1671.1971" y="-225" font-family="Times,serif" font-size="14.00" fill="#000000">subcomponent</text>
</g>
<!-- c8f54534&#45;693e&#45;47e9&#45;ab04&#45;04bdd9be63b1 -->
<g id="node3" class="node">
<title>c8f54534&#45;693e&#45;47e9&#45;ab04&#45;04bdd9be63b1</title>
<polygon fill="#ff3030" stroke="#ff3030" points="409.6651,-184.8 199.6551,-184.8 199.6551,-148.8 409.6651,-148.8 409.6651,-184.8"/>
<text text-anchor="middle" x="304.6601" y="-162.6" font-family="Times,serif" font-size="14.00" fill="#000000">org.greenrobot.eventbus.EventBus</text>
</g>
<!-- 8e0de711&#45;3198&#45;4f7a&#45;bfea&#45;9f67b881ca7c -->
<g id="node4" class="node">
<title>8e0de711&#45;3198&#45;4f7a&#45;bfea&#45;9f67b881ca7c</title>
<polygon fill="#ff3030" stroke="#ff3030" points="593.4804,-130.8 15.8398,-130.8 15.8398,-94.8 593.4804,-94.8 593.4804,-130.8"/>
<text text-anchor="middle" x="304.6601" y="-108.6" font-family="Times,serif" font-size="14.00" fill="#000000">java.util.Map&lt;java.lang.String,javax.inject.Provider&lt;dagger.android.AndroidInjector.Factory&lt;?&gt;&gt;&gt;</text>
</g>
<!-- c7915749&#45;1324&#45;400e&#45;9ee6&#45;f5f11c7413fc -->
<g id="node5" class="node">
<title>c7915749&#45;1324&#45;400e&#45;9ee6&#45;f5f11c7413fc</title>
<polygon fill="#ff3030" stroke="#ff3030" points="440.8882,-76.8 168.432,-76.8 168.432,-40.8 440.8882,-40.8 440.8882,-76.8"/>
<text text-anchor="middle" x="304.6601" y="-54.6" font-family="Times,serif" font-size="14.00" fill="#000000">androidx.appcompat.app.AppCompatActivity</text>
</g>
<!-- 30e6551c&#45;7f5e&#45;4627&#45;9f5b&#45;cd3d18f43ae7 -->
<g id="node6" class="node">
<title>30e6551c&#45;7f5e&#45;4627&#45;9f5b&#45;cd3d18f43ae7</title>
<polygon fill="#40e0d0" stroke="#40e0d0" points="442.3996,-238.8 178.9206,-238.8 178.9206,-242.8 166.9206,-242.8 166.9206,-202.8 442.3996,-202.8 442.3996,-238.8"/>
<polyline fill="none" stroke="#40e0d0" points="166.9206,-238.8 178.9206,-238.8 "/>
<text text-anchor="middle" x="304.6601" y="-216.6" font-family="Times,serif" font-size="14.00" fill="#000000">Map&lt;Class&lt;?&gt;, AndroidInjector.Factory&lt;?&gt;&gt;</text>
</g>
<!-- 30e6551c&#45;7f5e&#45;4627&#45;9f5b&#45;cd3d18f43ae7&#45;&gt;5c71964b&#45;e3cb&#45;459d&#45;af4b&#45;782d8b211ffa -->
<g id="edge1" class="edge">
<title>30e6551c&#45;7f5e&#45;4627&#45;9f5b&#45;cd3d18f43ae7&#45;&gt;5c71964b&#45;e3cb&#45;459d&#45;af4b&#45;782d8b211ffa</title>
<path fill="none" stroke="#000000" d="M442.3313,-220.8C500.4944,-220.8 568.9574,-220.8 630.8202,-220.8 630.8202,-220.8 630.8202,-220.8 706.8202,-220.8 715.8395,-220.8 725.0237,-220.8 734.3004,-220.8"/>
<polygon fill="#000000" stroke="#000000" points="734.3996,-224.3001 744.3996,-220.8 734.3995,-217.3001 734.3996,-224.3001"/>
</g>
</g>
</svg>
