<svg width="2175px" height="558px"
 viewBox="0.00 0.00 2175.46 557.60" xmlns="http://www.w3.org/2000/svg" xmlns:xlink="http://www.w3.org/1999/xlink">
<g id="graph0" class="graph" transform="scale(1.0 1.0) rotate(0) translate(14.4 543.2)">
<title>org.owntracks.android.injection.modules.AndroidBindingModule_BindRegionsActivity</title>
<polygon fill="#ffffff" stroke="transparent" points="-14.4,14.4 -14.4,-543.2 2161.0578,-543.2 2161.0578,14.4 -14.4,14.4"/>
<text text-anchor="middle" x="138.6613" y="-8.2" font-family="Times,serif" font-size="14.00" fill="#000000">AndroidBindingModule_BindRegionsActivity</text>
<g id="clust2" class="cluster">
<title>cluster_Dependency Graph</title>
<polygon fill="none" stroke="#000000" points="8,-32.8 8,-520.8 1564.4172,-520.8 1564.4172,-32.8 8,-32.8"/>
<text text-anchor="middle" x="70.2234" y="-504.2" font-family="Times,serif" font-size="14.00" fill="#000000">Dependency Graph</text>
</g>
<g id="clust3" class="cluster">
<title>cluster_Map&lt;Class&lt;?&gt;, AndroidInjector.Factory&lt;?&gt;&gt;</title>
<path fill="none" stroke="#000000" d="M171.0404,-410.8C171.0404,-410.8 1188.307,-410.8 1188.307,-410.8 1194.307,-410.8 1200.307,-416.8 1200.307,-422.8 1200.307,-422.8 1200.307,-475.8 1200.307,-475.8 1200.307,-481.8 1194.307,-487.8 1188.307,-487.8 1188.307,-487.8 171.0404,-487.8 171.0404,-487.8 165.0404,-487.8 159.0404,-481.8 159.0404,-475.8 159.0404,-475.8 159.0404,-422.8 159.0404,-422.8 159.0404,-416.8 165.0404,-410.8 171.0404,-410.8"/>
<text text-anchor="middle" x="679.6737" y="-471.2" font-family="Times,serif" font-size="14.00" fill="#000000">Map&lt;Class&lt;?&gt;, AndroidInjector.Factory&lt;?&gt;&gt;</text>
</g>
<g id="clust4" class="cluster">
<title>cluster_Subcomponents</title>
<polygon fill="none" stroke="#000000" points="1666.0722,-407.8 1666.0722,-490.8 2138.6578,-490.8 2138.6578,-407.8 1666.0722,-407.8"/>
<text text-anchor="middle" x="1718.791" y="-474.2" font-family="Times,serif" font-size="14.00" fill="#000000">Subcomponents</text>
</g>
<!-- b5f47445&#45;f924&#45;45af&#45;a7f9&#45;7e133d7ca2f2 -->
<g id="node1" class="node">
<title>b5f47445&#45;f924&#45;45af&#45;a7f9&#45;7e133d7ca2f2</title>
<polygon fill="#40e0d0" stroke="#40e0d0" points="1192.3004,-454.8 744.3268,-454.8 744.3268,-418.8 1192.3004,-418.8 1192.3004,-454.8"/>
<text text-anchor="middle" x="968.3136" y="-432.6" font-family="Times,serif" font-size="14.00" fill="#000000">AndroidBindingModule_BindRegionsActivity.bindAndroidInjectorFactory()</text>
</g>
<!-- e1cf4d2e&#45;bfd5&#45;4f31&#45;8b9a&#45;d81919e90440 -->
<g id="node2" class="node">
<title>e1cf4d2e&#45;bfd5&#45;4f31&#45;8b9a&#45;d81919e90440</title>
<polygon fill="#40e0d0" stroke="#40e0d0" points="1556.4302,-465.4014 1318.3782,-465.4014 1318.3782,-408.1986 1556.4302,-408.1986 1556.4302,-465.4014"/>
<text text-anchor="middle" x="1437.4042" y="-449" font-family="Times,serif" font-size="14.00" fill="#000000">RegionsActivitySubcomponent.Factory</text>
<text text-anchor="middle" x="1437.4042" y="-416.2" font-family="Times,serif" font-size="14.00" fill="#000000">Subcomponent Creator</text>
</g>
<!-- b5f47445&#45;f924&#45;45af&#45;a7f9&#45;7e133d7ca2f2&#45;&gt;e1cf4d2e&#45;bfd5&#45;4f31&#45;8b9a&#45;d81919e90440 -->
<g id="edge2" class="edge">
<title>b5f47445&#45;f924&#45;45af&#45;a7f9&#45;7e133d7ca2f2&#45;&gt;e1cf4d2e&#45;bfd5&#45;4f31&#45;8b9a&#45;d81919e90440</title>
<path fill="none" stroke="#000000" stroke-dasharray="1,5" d="M1192.5547,-436.8C1232.2799,-436.8 1272.4001,-436.8 1308.3451,-436.8"/>
<polygon fill="#000000" stroke="#000000" points="1308.369,-440.3001 1318.3689,-436.8 1308.3689,-433.3001 1308.369,-440.3001"/>
<text text-anchor="middle" x="1255.3491" y="-441" font-family="Times,serif" font-size="14.00" fill="#000000">delegates</text>
</g>
<!-- cab3bbf7&#45;cd08&#45;47e5&#45;943b&#45;9398058736f1 -->
<g id="node11" class="node">
<title>cab3bbf7&#45;cd08&#45;47e5&#45;943b&#45;9398058736f1</title>
<g id="a_node11"><a xlink:href="full_org.owntracks.android.injection.modules.AndroidBindingModule_BindRegionsActivity.RegionsActivitySubcomponent.svg" xlink:title="@PerActivity\nAndroidBindingModule_BindRegionsActivity.RegionsActivitySubcomponent">
<polygon fill="#7fffd4" stroke="#7fffd4" points="2130.4508,-457.4019 1674.2792,-457.4019 1674.2792,-416.1981 2130.4508,-416.1981 2130.4508,-457.4019"/>
<text text-anchor="middle" x="1902.365" y="-441" font-family="Times,serif" font-size="14.00" fill="#000000">@PerActivity</text>
<text text-anchor="middle" x="1902.365" y="-424.2" font-family="Times,serif" font-size="14.00" fill="#000000">AndroidBindingModule_BindRegionsActivity.RegionsActivitySubcomponent</text>
</a>
</g>
</g>
<!-- e1cf4d2e&#45;bfd5&#45;4f31&#45;8b9a&#45;d81919e90440&#45;&gt;cab3bbf7&#45;cd08&#45;47e5&#45;943b&#45;9398058736f1 -->
<g id="edge3" class="edge">
<title>e1cf4d2e&#45;bfd5&#45;4f31&#45;8b9a&#45;d81919e90440&#45;&gt;cab3bbf7&#45;cd08&#45;47e5&#45;943b&#45;9398058736f1:w</title>
<path fill="none" stroke="#000000" stroke-dasharray="5,2" d="M1556.4333,-436.8C1590.7589,-436.8 1628.5154,-436.8 1663.9461,-436.8"/>
<polygon fill="#000000" stroke="#000000" points="1664.365,-440.3001 1674.365,-436.8 1664.365,-433.3001 1664.365,-440.3001"/>
<text text-anchor="middle" x="1615.2447" y="-441" font-family="Times,serif" font-size="14.00" fill="#000000">subcomponent</text>
</g>
<!-- 731d58ba&#45;842c&#45;4ffb&#45;b7d8&#45;66694984129d -->
<g id="node3" class="node">
<title>731d58ba&#45;842c&#45;4ffb&#45;b7d8&#45;66694984129d</title>
<polygon fill="#ff3030" stroke="#ff3030" points="409.6651,-400.8 199.6551,-400.8 199.6551,-364.8 409.6651,-364.8 409.6651,-400.8"/>
<text text-anchor="middle" x="304.6601" y="-378.6" font-family="Times,serif" font-size="14.00" fill="#000000">org.greenrobot.eventbus.EventBus</text>
</g>
<!-- b7bb53d5&#45;e05b&#45;47a0&#45;b699&#45;8ece2d219789 -->
<g id="node4" class="node">
<title>b7bb53d5&#45;e05b&#45;47a0&#45;b699&#45;8ece2d219789</title>
<polygon fill="#ff3030" stroke="#ff3030" points="593.4804,-346.8 15.8398,-346.8 15.8398,-310.8 593.4804,-310.8 593.4804,-346.8"/>
<text text-anchor="middle" x="304.6601" y="-324.6" font-family="Times,serif" font-size="14.00" fill="#000000">java.util.Map&lt;java.lang.String,javax.inject.Provider&lt;dagger.android.AndroidInjector.Factory&lt;?&gt;&gt;&gt;</text>
</g>
<!-- 692b36e6&#45;e694&#45;45bc&#45;ab24&#45;71636d3306fa -->
<g id="node5" class="node">
<title>692b36e6&#45;e694&#45;45bc&#45;ab24&#45;71636d3306fa</title>
<polygon fill="#ff3030" stroke="#ff3030" points="452.9641,-292.8 156.3561,-292.8 156.3561,-256.8 452.9641,-256.8 452.9641,-292.8"/>
<text text-anchor="middle" x="304.6601" y="-270.6" font-family="Times,serif" font-size="14.00" fill="#000000">org.owntracks.android.data.repos.WaypointsRepo</text>
</g>
<!-- 48982164&#45;c268&#45;4e36&#45;9d99&#45;260a9b213f68 -->
<g id="node6" class="node">
<title>48982164&#45;c268&#45;4e36&#45;9d99&#45;260a9b213f68</title>
<polygon fill="#ff3030" stroke="#ff3030" points="539.1721,-238.8 70.1481,-238.8 70.1481,-202.8 539.1721,-202.8 539.1721,-238.8"/>
<text text-anchor="middle" x="304.6601" y="-216.6" font-family="Times,serif" font-size="14.00" fill="#000000">@org.owntracks.android.injection.qualifier.AppContext android.content.Context</text>
</g>
<!-- 098cd3e0&#45;8af0&#45;4e77&#45;b17d&#45;81cadc9b8336 -->
<g id="node7" class="node">
<title>098cd3e0&#45;8af0&#45;4e77&#45;b17d&#45;81cadc9b8336</title>
<polygon fill="#ff3030" stroke="#ff3030" points="446.8007,-184.8 162.5195,-184.8 162.5195,-148.8 446.8007,-148.8 446.8007,-184.8"/>
<text text-anchor="middle" x="304.6601" y="-162.6" font-family="Times,serif" font-size="14.00" fill="#000000">org.owntracks.android.data.repos.ContactsRepo</text>
</g>
<!-- 7911cd8d&#45;7dee&#45;41b1&#45;9a02&#45;ecd2c094ccd5 -->
<g id="node8" class="node">
<title>7911cd8d&#45;7dee&#45;41b1&#45;9a02&#45;ecd2c094ccd5</title>
<polygon fill="#ff3030" stroke="#ff3030" points="463.1069,-130.8 146.2133,-130.8 146.2133,-94.8 463.1069,-94.8 463.1069,-130.8"/>
<text text-anchor="middle" x="304.6601" y="-108.6" font-family="Times,serif" font-size="14.00" fill="#000000">androidx.test.espresso.idling.CountingIdlingResource</text>
</g>
<!-- 25755215&#45;97d7&#45;4f3a&#45;80cc&#45;e20993f738ae -->
<g id="node9" class="node">
<title>25755215&#45;97d7&#45;4f3a&#45;80cc&#45;e20993f738ae</title>
<polygon fill="#ff3030" stroke="#ff3030" points="481.4438,-76.8 127.8764,-76.8 127.8764,-40.8 481.4438,-40.8 481.4438,-76.8"/>
<text text-anchor="middle" x="304.6601" y="-54.6" font-family="Times,serif" font-size="14.00" fill="#000000">org.owntracks.android.support.preferences.PreferencesStore</text>
</g>
<!-- 8dfca055&#45;1585&#45;4385&#45;aee0&#45;f69e7111dc25 -->
<g id="node10" class="node">
<title>8dfca055&#45;1585&#45;4385&#45;aee0&#45;f69e7111dc25</title>
<polygon fill="#40e0d0" stroke="#40e0d0" points="442.3996,-454.8 178.9206,-454.8 178.9206,-458.8 166.9206,-458.8 166.9206,-418.8 442.3996,-418.8 442.3996,-454.8"/>
<polyline fill="none" stroke="#40e0d0" points="166.9206,-454.8 178.9206,-454.8 "/>
<text text-anchor="middle" x="304.6601" y="-432.6" font-family="Times,serif" font-size="14.00" fill="#000000">Map&lt;Class&lt;?&gt;, AndroidInjector.Factory&lt;?&gt;&gt;</text>
</g>
<!-- 8dfca055&#45;1585&#45;4385&#45;aee0&#45;f69e7111dc25&#45;&gt;b5f47445&#45;f924&#45;45af&#45;a7f9&#45;7e133d7ca2f2 -->
<g id="edge1" class="edge">
<title>8dfca055&#45;1585&#45;4385&#45;aee0&#45;f69e7111dc25&#45;&gt;b5f47445&#45;f924&#45;45af&#45;a7f9&#45;7e133d7ca2f2</title>
<path fill="none" stroke="#000000" d="M442.3313,-436.8C500.4944,-436.8 568.9574,-436.8 630.8202,-436.8 630.8202,-436.8 630.8202,-436.8 706.8202,-436.8 715.6436,-436.8 724.6344,-436.8 733.7165,-436.8"/>
<polygon fill="#000000" stroke="#000000" points="734.0051,-440.3001 744.005,-436.8 734.005,-433.3001 734.0051,-440.3001"/>
</g>
</g>
</svg>
