<svg width="2154px" height="450px"
 viewBox="0.00 0.00 2153.68 449.60" xmlns="http://www.w3.org/2000/svg" xmlns:xlink="http://www.w3.org/1999/xlink">
<g id="graph0" class="graph" transform="scale(1.0 1.0) rotate(0) translate(14.4 435.2)">
<title>org.owntracks.android.injection.modules.AndroidBindingModule_BindRegionActivity</title>
<polygon fill="#ffffff" stroke="transparent" points="-14.4,14.4 -14.4,-435.2 2139.2794,-435.2 2139.2794,14.4 -14.4,14.4"/>
<text text-anchor="middle" x="135.939" y="-8.2" font-family="Times,serif" font-size="14.00" fill="#000000">AndroidBindingModule_BindRegionActivity</text>
<g id="clust2" class="cluster">
<title>cluster_Dependency Graph</title>
<polygon fill="none" stroke="#000000" points="8,-32.8 8,-412.8 1553.528,-412.8 1553.528,-32.8 8,-32.8"/>
<text text-anchor="middle" x="70.2234" y="-396.2" font-family="Times,serif" font-size="14.00" fill="#000000">Dependency Graph</text>
</g>
<g id="clust3" class="cluster">
<title>cluster_Map&lt;Class&lt;?&gt;, AndroidInjector.Factory&lt;?&gt;&gt;</title>
<path fill="none" stroke="#000000" d="M171.0404,-302.8C171.0404,-302.8 1182.8624,-302.8 1182.8624,-302.8 1188.8624,-302.8 1194.8624,-308.8 1194.8624,-314.8 1194.8624,-314.8 1194.8624,-367.8 1194.8624,-367.8 1194.8624,-373.8 1188.8624,-379.8 1182.8624,-379.8 1182.8624,-379.8 171.0404,-379.8 171.0404,-379.8 165.0404,-379.8 159.0404,-373.8 159.0404,-367.8 159.0404,-367.8 159.0404,-314.8 159.0404,-314.8 159.0404,-308.8 165.0404,-302.8 171.0404,-302.8"/>
<text text-anchor="middle" x="676.9514" y="-363.2" font-family="Times,serif" font-size="14.00" fill="#000000">Map&lt;Class&lt;?&gt;, AndroidInjector.Factory&lt;?&gt;&gt;</text>
</g>
<g id="clust4" class="cluster">
<title>cluster_Subcomponents</title>
<polygon fill="none" stroke="#000000" points="1655.183,-299.8 1655.183,-382.8 2116.8794,-382.8 2116.8794,-299.8 1655.183,-299.8"/>
<text text-anchor="middle" x="1707.9018" y="-366.2" font-family="Times,serif" font-size="14.00" fill="#000000">Subcomponents</text>
</g>
<!-- 59ede4e3&#45;8e00&#45;408d&#45;8445&#45;d0b398e135b1 -->
<g id="node1" class="node">
<title>59ede4e3&#45;8e00&#45;408d&#45;8445&#45;d0b398e135b1</title>
<polygon fill="#40e0d0" stroke="#40e0d0" points="1186.6337,-346.8 744.5489,-346.8 744.5489,-310.8 1186.6337,-310.8 1186.6337,-346.8"/>
<text text-anchor="middle" x="965.5913" y="-324.6" font-family="Times,serif" font-size="14.00" fill="#000000">AndroidBindingModule_BindRegionActivity.bindAndroidInjectorFactory()</text>
</g>
<!-- 76be678c&#45;1b2b&#45;4066&#45;8af2&#45;3064d5762476 -->
<g id="node2" class="node">
<title>76be678c&#45;1b2b&#45;4066&#45;8af2&#45;3064d5762476</title>
<polygon fill="#40e0d0" stroke="#40e0d0" points="1545.3191,-357.4014 1313.1555,-357.4014 1313.1555,-300.1986 1545.3191,-300.1986 1545.3191,-357.4014"/>
<text text-anchor="middle" x="1429.2373" y="-341" font-family="Times,serif" font-size="14.00" fill="#000000">RegionActivitySubcomponent.Factory</text>
<text text-anchor="middle" x="1429.2373" y="-308.2" font-family="Times,serif" font-size="14.00" fill="#000000">Subcomponent Creator</text>
</g>
<!-- 59ede4e3&#45;8e00&#45;408d&#45;8445&#45;d0b398e135b1&#45;&gt;76be678c&#45;1b2b&#45;4066&#45;8af2&#45;3064d5762476 -->
<g id="edge2" class="edge">
<title>59ede4e3&#45;8e00&#45;408d&#45;8445&#45;d0b398e135b1&#45;&gt;76be678c&#45;1b2b&#45;4066&#45;8af2&#45;3064d5762476</title>
<path fill="none" stroke="#000000" stroke-dasharray="1,5" d="M1186.8904,-328.8C1226.7221,-328.8 1266.9688,-328.8 1302.9142,-328.8"/>
<polygon fill="#000000" stroke="#000000" points="1302.9347,-332.3001 1312.9346,-328.8 1302.9346,-325.3001 1302.9347,-332.3001"/>
<text text-anchor="middle" x="1249.9045" y="-333" font-family="Times,serif" font-size="14.00" fill="#000000">delegates</text>
</g>
<!-- e2b04f1a&#45;c382&#45;4f58&#45;b185&#45;33c00b47550f -->
<g id="node9" class="node">
<title>e2b04f1a&#45;c382&#45;4f58&#45;b185&#45;33c00b47550f</title>
<g id="a_node9"><a xlink:href="full_org.owntracks.android.injection.modules.AndroidBindingModule_BindRegionActivity.RegionActivitySubcomponent.svg" xlink:title="@PerActivity\nAndroidBindingModule_BindRegionActivity.RegionActivitySubcomponent">
<polygon fill="#7fffd4" stroke="#7fffd4" points="2108.7277,-349.4019 1663.3347,-349.4019 1663.3347,-308.1981 2108.7277,-308.1981 2108.7277,-349.4019"/>
<text text-anchor="middle" x="1886.0312" y="-333" font-family="Times,serif" font-size="14.00" fill="#000000">@PerActivity</text>
<text text-anchor="middle" x="1886.0312" y="-316.2" font-family="Times,serif" font-size="14.00" fill="#000000">AndroidBindingModule_BindRegionActivity.RegionActivitySubcomponent</text>
</a>
</g>
</g>
<!-- 76be678c&#45;1b2b&#45;4066&#45;8af2&#45;3064d5762476&#45;&gt;e2b04f1a&#45;c382&#45;4f58&#45;b185&#45;33c00b47550f -->
<g id="edge3" class="edge">
<title>76be678c&#45;1b2b&#45;4066&#45;8af2&#45;3064d5762476&#45;&gt;e2b04f1a&#45;c382&#45;4f58&#45;b185&#45;33c00b47550f:w</title>
<path fill="none" stroke="#000000" stroke-dasharray="5,2" d="M1545.48,-328.8C1579.6286,-328.8 1617.3035,-328.8 1652.6406,-328.8"/>
<polygon fill="#000000" stroke="#000000" points="1653.0312,-332.3001 1663.0312,-328.8 1653.0312,-325.3001 1653.0312,-332.3001"/>
<text text-anchor="middle" x="1604.3555" y="-333" font-family="Times,serif" font-size="14.00" fill="#000000">subcomponent</text>
</g>
<!-- ff04c970&#45;fad5&#45;4e93&#45;92ce&#45;f4c28bfa29f6 -->
<g id="node3" class="node">
<title>ff04c970&#45;fad5&#45;4e93&#45;92ce&#45;f4c28bfa29f6</title>
<polygon fill="#ff3030" stroke="#ff3030" points="409.6651,-292.8 199.6551,-292.8 199.6551,-256.8 409.6651,-256.8 409.6651,-292.8"/>
<text text-anchor="middle" x="304.6601" y="-270.6" font-family="Times,serif" font-size="14.00" fill="#000000">org.greenrobot.eventbus.EventBus</text>
</g>
<!-- 13791d94&#45;4874&#45;462f&#45;a292&#45;194633444376 -->
<g id="node4" class="node">
<title>13791d94&#45;4874&#45;462f&#45;a292&#45;194633444376</title>
<polygon fill="#ff3030" stroke="#ff3030" points="593.4804,-238.8 15.8398,-238.8 15.8398,-202.8 593.4804,-202.8 593.4804,-238.8"/>
<text text-anchor="middle" x="304.6601" y="-216.6" font-family="Times,serif" font-size="14.00" fill="#000000">java.util.Map&lt;java.lang.String,javax.inject.Provider&lt;dagger.android.AndroidInjector.Factory&lt;?&gt;&gt;&gt;</text>
</g>
<!-- ef59071f&#45;31cc&#45;4019&#45;8352&#45;8ec354fee1bb -->
<g id="node5" class="node">
<title>ef59071f&#45;31cc&#45;4019&#45;8352&#45;8ec354fee1bb</title>
<polygon fill="#ff3030" stroke="#ff3030" points="452.9641,-184.8 156.3561,-184.8 156.3561,-148.8 452.9641,-148.8 452.9641,-184.8"/>
<text text-anchor="middle" x="304.6601" y="-162.6" font-family="Times,serif" font-size="14.00" fill="#000000">org.owntracks.android.data.repos.WaypointsRepo</text>
</g>
<!-- 78c51171&#45;e760&#45;411f&#45;9945&#45;fac43095530e -->
<g id="node6" class="node">
<title>78c51171&#45;e760&#45;411f&#45;9945&#45;fac43095530e</title>
<polygon fill="#ff3030" stroke="#ff3030" points="539.1721,-130.8 70.1481,-130.8 70.1481,-94.8 539.1721,-94.8 539.1721,-130.8"/>
<text text-anchor="middle" x="304.6601" y="-108.6" font-family="Times,serif" font-size="14.00" fill="#000000">@org.owntracks.android.injection.qualifier.AppContext android.content.Context</text>
</g>
<!-- 1f41aa01&#45;eb33&#45;466a&#45;8949&#45;319a68564ff1 -->
<g id="node7" class="node">
<title>1f41aa01&#45;eb33&#45;466a&#45;8949&#45;319a68564ff1</title>
<polygon fill="#ff3030" stroke="#ff3030" points="481.4438,-76.8 127.8764,-76.8 127.8764,-40.8 481.4438,-40.8 481.4438,-76.8"/>
<text text-anchor="middle" x="304.6601" y="-54.6" font-family="Times,serif" font-size="14.00" fill="#000000">org.owntracks.android.support.preferences.PreferencesStore</text>
</g>
<!-- 15302dc3&#45;d28f&#45;4512&#45;b8e6&#45;a6a093c5a952 -->
<g id="node8" class="node">
<title>15302dc3&#45;d28f&#45;4512&#45;b8e6&#45;a6a093c5a952</title>
<polygon fill="#40e0d0" stroke="#40e0d0" points="442.3996,-346.8 178.9206,-346.8 178.9206,-350.8 166.9206,-350.8 166.9206,-310.8 442.3996,-310.8 442.3996,-346.8"/>
<polyline fill="none" stroke="#40e0d0" points="166.9206,-346.8 178.9206,-346.8 "/>
<text text-anchor="middle" x="304.6601" y="-324.6" font-family="Times,serif" font-size="14.00" fill="#000000">Map&lt;Class&lt;?&gt;, AndroidInjector.Factory&lt;?&gt;&gt;</text>
</g>
<!-- 15302dc3&#45;d28f&#45;4512&#45;b8e6&#45;a6a093c5a952&#45;&gt;59ede4e3&#45;8e00&#45;408d&#45;8445&#45;d0b398e135b1 -->
<g id="edge1" class="edge">
<title>15302dc3&#45;d28f&#45;4512&#45;b8e6&#45;a6a093c5a952&#45;&gt;59ede4e3&#45;8e00&#45;408d&#45;8445&#45;d0b398e135b1</title>
<path fill="none" stroke="#000000" d="M442.3313,-328.8C500.4944,-328.8 568.9574,-328.8 630.8202,-328.8 630.8202,-328.8 630.8202,-328.8 706.8202,-328.8 715.8106,-328.8 724.9766,-328.8 734.236,-328.8"/>
<polygon fill="#000000" stroke="#000000" points="734.3161,-332.3001 744.3161,-328.8 734.3161,-325.3001 734.3161,-332.3001"/>
</g>
</g>
</svg>
