<svg width="2206px" height="396px"
 viewBox="0.00 0.00 2206.47 395.60" xmlns="http://www.w3.org/2000/svg" xmlns:xlink="http://www.w3.org/1999/xlink">
<g id="graph0" class="graph" transform="scale(1.0 1.0) rotate(0) translate(14.4 381.2)">
<title>org.owntracks.android.injection.modules.AndroidBindingModule_BindWelcomeActivity</title>
<polygon fill="#ffffff" stroke="transparent" points="-14.4,14.4 -14.4,-381.2 2192.0706,-381.2 2192.0706,14.4 -14.4,14.4"/>
<text text-anchor="middle" x="142.5379" y="-8.2" font-family="Times,serif" font-size="14.00" fill="#000000">AndroidBindingModule_BindWelcomeActivity</text>
<g id="clust2" class="cluster">
<title>cluster_Dependency Graph</title>
<polygon fill="none" stroke="#000000" points="8,-32.8 8,-358.8 1579.9236,-358.8 1579.9236,-32.8 8,-32.8"/>
<text text-anchor="middle" x="70.2234" y="-342.2" font-family="Times,serif" font-size="14.00" fill="#000000">Dependency Graph</text>
</g>
<g id="clust3" class="cluster">
<title>cluster_Map&lt;Class&lt;?&gt;, AndroidInjector.Factory&lt;?&gt;&gt;</title>
<path fill="none" stroke="#000000" d="M171.0404,-248.8C171.0404,-248.8 1196.0602,-248.8 1196.0602,-248.8 1202.0602,-248.8 1208.0602,-254.8 1208.0602,-260.8 1208.0602,-260.8 1208.0602,-313.8 1208.0602,-313.8 1208.0602,-319.8 1202.0602,-325.8 1196.0602,-325.8 1196.0602,-325.8 171.0404,-325.8 171.0404,-325.8 165.0404,-325.8 159.0404,-319.8 159.0404,-313.8 159.0404,-313.8 159.0404,-260.8 159.0404,-260.8 159.0404,-254.8 165.0404,-248.8 171.0404,-248.8"/>
<text text-anchor="middle" x="683.5503" y="-309.2" font-family="Times,serif" font-size="14.00" fill="#000000">Map&lt;Class&lt;?&gt;, AndroidInjector.Factory&lt;?&gt;&gt;</text>
</g>
<g id="clust4" class="cluster">
<title>cluster_Subcomponents</title>
<polygon fill="none" stroke="#000000" points="1681.5786,-245.8 1681.5786,-328.8 2169.6706,-328.8 2169.6706,-245.8 1681.5786,-245.8"/>
<text text-anchor="middle" x="1734.2974" y="-312.2" font-family="Times,serif" font-size="14.00" fill="#000000">Subcomponents</text>
</g>
<!-- 56ba000f&#45;a3fe&#45;4792&#45;a1f2&#45;63308c2d0c7e -->
<g id="node1" class="node">
<title>56ba000f&#45;a3fe&#45;4792&#45;a1f2&#45;63308c2d0c7e</title>
<polygon fill="#40e0d0" stroke="#40e0d0" points="1199.9303,-292.8 744.4501,-292.8 744.4501,-256.8 1199.9303,-256.8 1199.9303,-292.8"/>
<text text-anchor="middle" x="972.1902" y="-270.6" font-family="Times,serif" font-size="14.00" fill="#000000">AndroidBindingModule_BindWelcomeActivity.bindAndroidInjectorFactory()</text>
</g>
<!-- 74ba71c6&#45;db2c&#45;4ab4&#45;bcdb&#45;f88817afeca0 -->
<g id="node2" class="node">
<title>74ba71c6&#45;db2c&#45;4ab4&#45;bcdb&#45;f88817afeca0</title>
<polygon fill="#40e0d0" stroke="#40e0d0" points="1571.8133,-303.4014 1326.2547,-303.4014 1326.2547,-246.1986 1571.8133,-246.1986 1571.8133,-303.4014"/>
<text text-anchor="middle" x="1449.034" y="-287" font-family="Times,serif" font-size="14.00" fill="#000000">WelcomeActivitySubcomponent.Factory</text>
<text text-anchor="middle" x="1449.034" y="-254.2" font-family="Times,serif" font-size="14.00" fill="#000000">Subcomponent Creator</text>
</g>
<!-- 56ba000f&#45;a3fe&#45;4792&#45;a1f2&#45;63308c2d0c7e&#45;&gt;74ba71c6&#45;db2c&#45;4ab4&#45;bcdb&#45;f88817afeca0 -->
<g id="edge2" class="edge">
<title>56ba000f&#45;a3fe&#45;4792&#45;a1f2&#45;63308c2d0c7e&#45;&gt;74ba71c6&#45;db2c&#45;4ab4&#45;bcdb&#45;f88817afeca0</title>
<path fill="none" stroke="#000000" stroke-dasharray="1,5" d="M1200.1376,-274.8C1239.8628,-274.8 1279.9765,-274.8 1316.0561,-274.8"/>
<polygon fill="#000000" stroke="#000000" points="1316.1217,-278.3001 1326.1217,-274.8 1316.1217,-271.3001 1316.1217,-278.3001"/>
<text text-anchor="middle" x="1263.1023" y="-279" font-family="Times,serif" font-size="14.00" fill="#000000">delegates</text>
</g>
<!-- bdaa46cd&#45;0182&#45;4938&#45;967a&#45;c7e1e48f33ac -->
<g id="node8" class="node">
<title>bdaa46cd&#45;0182&#45;4938&#45;967a&#45;c7e1e48f33ac</title>
<g id="a_node8"><a xlink:href="full_org.owntracks.android.injection.modules.AndroidBindingModule_BindWelcomeActivity.WelcomeActivitySubcomponent.svg" xlink:title="@PerActivity\nAndroidBindingModule_BindWelcomeActivity.WelcomeActivitySubcomponent">
<polygon fill="#7fffd4" stroke="#7fffd4" points="2161.7166,-295.4019 1689.5326,-295.4019 1689.5326,-254.1981 2161.7166,-254.1981 2161.7166,-295.4019"/>
<text text-anchor="middle" x="1925.6246" y="-279" font-family="Times,serif" font-size="14.00" fill="#000000">@PerActivity</text>
<text text-anchor="middle" x="1925.6246" y="-262.2" font-family="Times,serif" font-size="14.00" fill="#000000">AndroidBindingModule_BindWelcomeActivity.WelcomeActivitySubcomponent</text>
</a>
</g>
</g>
<!-- 74ba71c6&#45;db2c&#45;4ab4&#45;bcdb&#45;f88817afeca0&#45;&gt;bdaa46cd&#45;0182&#45;4938&#45;967a&#45;c7e1e48f33ac -->
<g id="edge3" class="edge">
<title>74ba71c6&#45;db2c&#45;4ab4&#45;bcdb&#45;f88817afeca0&#45;&gt;bdaa46cd&#45;0182&#45;4938&#45;967a&#45;c7e1e48f33ac:w</title>
<path fill="none" stroke="#000000" stroke-dasharray="5,2" d="M1572.0467,-274.8C1606.3825,-274.8 1643.9562,-274.8 1679.246,-274.8"/>
<polygon fill="#000000" stroke="#000000" points="1679.6246,-278.3001 1689.6246,-274.8 1679.6246,-271.3001 1679.6246,-278.3001"/>
<text text-anchor="middle" x="1630.7511" y="-279" font-family="Times,serif" font-size="14.00" fill="#000000">subcomponent</text>
</g>
<!-- cc65d166&#45;f16c&#45;4dde&#45;94e0&#45;5e591a46d3cb -->
<g id="node3" class="node">
<title>cc65d166&#45;f16c&#45;4dde&#45;94e0&#45;5e591a46d3cb</title>
<polygon fill="#ff3030" stroke="#ff3030" points="409.6651,-238.8 199.6551,-238.8 199.6551,-202.8 409.6651,-202.8 409.6651,-238.8"/>
<text text-anchor="middle" x="304.6601" y="-216.6" font-family="Times,serif" font-size="14.00" fill="#000000">org.greenrobot.eventbus.EventBus</text>
</g>
<!-- 6032a7b0&#45;70c2&#45;416f&#45;887d&#45;d63f09f72b1e -->
<g id="node4" class="node">
<title>6032a7b0&#45;70c2&#45;416f&#45;887d&#45;d63f09f72b1e</title>
<polygon fill="#ff3030" stroke="#ff3030" points="593.4804,-184.8 15.8398,-184.8 15.8398,-148.8 593.4804,-148.8 593.4804,-184.8"/>
<text text-anchor="middle" x="304.6601" y="-162.6" font-family="Times,serif" font-size="14.00" fill="#000000">java.util.Map&lt;java.lang.String,javax.inject.Provider&lt;dagger.android.AndroidInjector.Factory&lt;?&gt;&gt;&gt;</text>
</g>
<!-- d89efadb&#45;0758&#45;47c8&#45;a3cc&#45;e614c46bd3a0 -->
<g id="node5" class="node">
<title>d89efadb&#45;0758&#45;47c8&#45;a3cc&#45;e614c46bd3a0</title>
<polygon fill="#ff3030" stroke="#ff3030" points="539.1721,-130.8 70.1481,-130.8 70.1481,-94.8 539.1721,-94.8 539.1721,-130.8"/>
<text text-anchor="middle" x="304.6601" y="-108.6" font-family="Times,serif" font-size="14.00" fill="#000000">@org.owntracks.android.injection.qualifier.AppContext android.content.Context</text>
</g>
<!-- e07061da&#45;7b9e&#45;40e1&#45;8b5f&#45;b838d72eae1b -->
<g id="node6" class="node">
<title>e07061da&#45;7b9e&#45;40e1&#45;8b5f&#45;b838d72eae1b</title>
<polygon fill="#ff3030" stroke="#ff3030" points="481.4438,-76.8 127.8764,-76.8 127.8764,-40.8 481.4438,-40.8 481.4438,-76.8"/>
<text text-anchor="middle" x="304.6601" y="-54.6" font-family="Times,serif" font-size="14.00" fill="#000000">org.owntracks.android.support.preferences.PreferencesStore</text>
</g>
<!-- 4421ef0c&#45;5a1b&#45;4059&#45;aad8&#45;990f78d8fb85 -->
<g id="node7" class="node">
<title>4421ef0c&#45;5a1b&#45;4059&#45;aad8&#45;990f78d8fb85</title>
<polygon fill="#40e0d0" stroke="#40e0d0" points="442.3996,-292.8 178.9206,-292.8 178.9206,-296.8 166.9206,-296.8 166.9206,-256.8 442.3996,-256.8 442.3996,-292.8"/>
<polyline fill="none" stroke="#40e0d0" points="166.9206,-292.8 178.9206,-292.8 "/>
<text text-anchor="middle" x="304.6601" y="-270.6" font-family="Times,serif" font-size="14.00" fill="#000000">Map&lt;Class&lt;?&gt;, AndroidInjector.Factory&lt;?&gt;&gt;</text>
</g>
<!-- 4421ef0c&#45;5a1b&#45;4059&#45;aad8&#45;990f78d8fb85&#45;&gt;56ba000f&#45;a3fe&#45;4792&#45;a1f2&#45;63308c2d0c7e -->
<g id="edge1" class="edge">
<title>4421ef0c&#45;5a1b&#45;4059&#45;aad8&#45;990f78d8fb85&#45;&gt;56ba000f&#45;a3fe&#45;4792&#45;a1f2&#45;63308c2d0c7e</title>
<path fill="none" stroke="#000000" d="M442.3313,-274.8C500.4944,-274.8 568.9574,-274.8 630.8202,-274.8 630.8202,-274.8 630.8202,-274.8 706.8202,-274.8 715.7861,-274.8 724.9224,-274.8 734.1513,-274.8"/>
<polygon fill="#000000" stroke="#000000" points="734.1984,-278.3001 744.1984,-274.8 734.1984,-271.3001 734.1984,-278.3001"/>
</g>
</g>
</svg>
