<svg width="2188px" height="450px"
 viewBox="0.00 0.00 2187.88 449.60" xmlns="http://www.w3.org/2000/svg" xmlns:xlink="http://www.w3.org/1999/xlink">
<g id="graph0" class="graph" transform="scale(1.0 1.0) rotate(0) translate(14.4 435.2)">
<title>org.owntracks.android.injection.modules.AndroidBindingModule_BindContactsActivity</title>
<polygon fill="#ffffff" stroke="transparent" points="-14.4,14.4 -14.4,-435.2 2173.4786,-435.2 2173.4786,14.4 -14.4,14.4"/>
<text text-anchor="middle" x="140.2139" y="-8.2" font-family="Times,serif" font-size="14.00" fill="#000000">AndroidBindingModule_BindContactsActivity</text>
<g id="clust2" class="cluster">
<title>cluster_Dependency Graph</title>
<polygon fill="none" stroke="#000000" points="8,-32.8 8,-412.8 1570.6276,-412.8 1570.6276,-32.8 8,-32.8"/>
<text text-anchor="middle" x="70.2234" y="-396.2" font-family="Times,serif" font-size="14.00" fill="#000000">Dependency Graph</text>
</g>
<g id="clust3" class="cluster">
<title>cluster_Map&lt;Class&lt;?&gt;, AndroidInjector.Factory&lt;?&gt;&gt;</title>
<path fill="none" stroke="#000000" d="M171.0404,-302.8C171.0404,-302.8 1191.4122,-302.8 1191.4122,-302.8 1197.4122,-302.8 1203.4122,-308.8 1203.4122,-314.8 1203.4122,-314.8 1203.4122,-367.8 1203.4122,-367.8 1203.4122,-373.8 1197.4122,-379.8 1191.4122,-379.8 1191.4122,-379.8 171.0404,-379.8 171.0404,-379.8 165.0404,-379.8 159.0404,-373.8 159.0404,-367.8 159.0404,-367.8 159.0404,-314.8 159.0404,-314.8 159.0404,-308.8 165.0404,-302.8 171.0404,-302.8"/>
<text text-anchor="middle" x="681.2263" y="-363.2" font-family="Times,serif" font-size="14.00" fill="#000000">Map&lt;Class&lt;?&gt;, AndroidInjector.Factory&lt;?&gt;&gt;</text>
</g>
<g id="clust4" class="cluster">
<title>cluster_Subcomponents</title>
<polygon fill="none" stroke="#000000" points="1672.2826,-299.8 1672.2826,-382.8 2151.0786,-382.8 2151.0786,-299.8 1672.2826,-299.8"/>
<text text-anchor="middle" x="1725.0014" y="-366.2" font-family="Times,serif" font-size="14.00" fill="#000000">Subcomponents</text>
</g>
<!-- 88e4cedf&#45;b26c&#45;4353&#45;9f1f&#45;aed5df140f32 -->
<g id="node1" class="node">
<title>88e4cedf&#45;b26c&#45;4353&#45;9f1f&#45;aed5df140f32</title>
<polygon fill="#40e0d0" stroke="#40e0d0" points="1195.4582,-346.8 744.2742,-346.8 744.2742,-310.8 1195.4582,-310.8 1195.4582,-346.8"/>
<text text-anchor="middle" x="969.8662" y="-324.6" font-family="Times,serif" font-size="14.00" fill="#000000">AndroidBindingModule_BindContactsActivity.bindAndroidInjectorFactory()</text>
</g>
<!-- e4028657&#45;a7ee&#45;4f8e&#45;8c68&#45;5f3a127e1756 -->
<g id="node2" class="node">
<title>e4028657&#45;a7ee&#45;4f8e&#45;8c68&#45;5f3a127e1756</title>
<polygon fill="#40e0d0" stroke="#40e0d0" points="1562.6932,-357.4014 1321.4308,-357.4014 1321.4308,-300.1986 1562.6932,-300.1986 1562.6932,-357.4014"/>
<text text-anchor="middle" x="1442.062" y="-341" font-family="Times,serif" font-size="14.00" fill="#000000">ContactsActivitySubcomponent.Factory</text>
<text text-anchor="middle" x="1442.062" y="-308.2" font-family="Times,serif" font-size="14.00" fill="#000000">Subcomponent Creator</text>
</g>
<!-- 88e4cedf&#45;b26c&#45;4353&#45;9f1f&#45;aed5df140f32&#45;&gt;e4028657&#45;a7ee&#45;4f8e&#45;8c68&#45;5f3a127e1756 -->
<g id="edge2" class="edge">
<title>88e4cedf&#45;b26c&#45;4353&#45;9f1f&#45;aed5df140f32&#45;&gt;e4028657&#45;a7ee&#45;4f8e&#45;8c68&#45;5f3a127e1756</title>
<path fill="none" stroke="#000000" stroke-dasharray="1,5" d="M1195.5917,-328.8C1235.2548,-328.8 1275.309,-328.8 1311.2653,-328.8"/>
<polygon fill="#000000" stroke="#000000" points="1311.2944,-332.3001 1321.2944,-328.8 1311.2943,-325.3001 1311.2944,-332.3001"/>
<text text-anchor="middle" x="1258.4543" y="-333" font-family="Times,serif" font-size="14.00" fill="#000000">delegates</text>
</g>
<!-- 73bb4d92&#45;726e&#45;42c9&#45;9f34&#45;6969216c8bb4 -->
<g id="node9" class="node">
<title>73bb4d92&#45;726e&#45;42c9&#45;9f34&#45;6969216c8bb4</title>
<g id="a_node9"><a xlink:href="full_org.owntracks.android.injection.modules.AndroidBindingModule_BindContactsActivity.ContactsActivitySubcomponent.svg" xlink:title="@PerActivity\nAndroidBindingModule_BindContactsActivity.ContactsActivitySubcomponent">
<polygon fill="#7fffd4" stroke="#7fffd4" points="2142.9766,-349.4019 1680.3846,-349.4019 1680.3846,-308.1981 2142.9766,-308.1981 2142.9766,-349.4019"/>
<text text-anchor="middle" x="1911.6806" y="-333" font-family="Times,serif" font-size="14.00" fill="#000000">@PerActivity</text>
<text text-anchor="middle" x="1911.6806" y="-316.2" font-family="Times,serif" font-size="14.00" fill="#000000">AndroidBindingModule_BindContactsActivity.ContactsActivitySubcomponent</text>
</a>
</g>
</g>
<!-- e4028657&#45;a7ee&#45;4f8e&#45;8c68&#45;5f3a127e1756&#45;&gt;73bb4d92&#45;726e&#45;42c9&#45;9f34&#45;6969216c8bb4 -->
<g id="edge3" class="edge">
<title>e4028657&#45;a7ee&#45;4f8e&#45;8c68&#45;5f3a127e1756&#45;&gt;73bb4d92&#45;726e&#45;42c9&#45;9f34&#45;6969216c8bb4:w</title>
<path fill="none" stroke="#000000" stroke-dasharray="5,2" d="M1562.841,-328.8C1597.1889,-328.8 1634.8858,-328.8 1670.2738,-328.8"/>
<polygon fill="#000000" stroke="#000000" points="1670.6806,-332.3001 1680.6806,-328.8 1670.6806,-325.3001 1670.6806,-332.3001"/>
<text text-anchor="middle" x="1621.4551" y="-333" font-family="Times,serif" font-size="14.00" fill="#000000">subcomponent</text>
</g>
<!-- a5d9a468&#45;4c17&#45;4711&#45;9aaa&#45;1d6497e7f298 -->
<g id="node3" class="node">
<title>a5d9a468&#45;4c17&#45;4711&#45;9aaa&#45;1d6497e7f298</title>
<polygon fill="#ff3030" stroke="#ff3030" points="409.6651,-292.8 199.6551,-292.8 199.6551,-256.8 409.6651,-256.8 409.6651,-292.8"/>
<text text-anchor="middle" x="304.6601" y="-270.6" font-family="Times,serif" font-size="14.00" fill="#000000">org.greenrobot.eventbus.EventBus</text>
</g>
<!-- 7eb9d213&#45;2bca&#45;4873&#45;9325&#45;2b0197aa9263 -->
<g id="node4" class="node">
<title>7eb9d213&#45;2bca&#45;4873&#45;9325&#45;2b0197aa9263</title>
<polygon fill="#ff3030" stroke="#ff3030" points="593.4804,-238.8 15.8398,-238.8 15.8398,-202.8 593.4804,-202.8 593.4804,-238.8"/>
<text text-anchor="middle" x="304.6601" y="-216.6" font-family="Times,serif" font-size="14.00" fill="#000000">java.util.Map&lt;java.lang.String,javax.inject.Provider&lt;dagger.android.AndroidInjector.Factory&lt;?&gt;&gt;&gt;</text>
</g>
<!-- 0cedff90&#45;ac1d&#45;453c&#45;ba50&#45;92eb3f8d7ba4 -->
<g id="node5" class="node">
<title>0cedff90&#45;ac1d&#45;453c&#45;ba50&#45;92eb3f8d7ba4</title>
<polygon fill="#ff3030" stroke="#ff3030" points="446.8007,-184.8 162.5195,-184.8 162.5195,-148.8 446.8007,-148.8 446.8007,-184.8"/>
<text text-anchor="middle" x="304.6601" y="-162.6" font-family="Times,serif" font-size="14.00" fill="#000000">org.owntracks.android.data.repos.ContactsRepo</text>
</g>
<!-- e8f2a5ee&#45;a17c&#45;4002&#45;b066&#45;2b39ba164f95 -->
<g id="node6" class="node">
<title>e8f2a5ee&#45;a17c&#45;4002&#45;b066&#45;2b39ba164f95</title>
<polygon fill="#ff3030" stroke="#ff3030" points="539.1721,-130.8 70.1481,-130.8 70.1481,-94.8 539.1721,-94.8 539.1721,-130.8"/>
<text text-anchor="middle" x="304.6601" y="-108.6" font-family="Times,serif" font-size="14.00" fill="#000000">@org.owntracks.android.injection.qualifier.AppContext android.content.Context</text>
</g>
<!-- 31ea9f28&#45;5b4d&#45;4c09&#45;ac73&#45;082312f8ade1 -->
<g id="node7" class="node">
<title>31ea9f28&#45;5b4d&#45;4c09&#45;ac73&#45;082312f8ade1</title>
<polygon fill="#ff3030" stroke="#ff3030" points="481.4438,-76.8 127.8764,-76.8 127.8764,-40.8 481.4438,-40.8 481.4438,-76.8"/>
<text text-anchor="middle" x="304.6601" y="-54.6" font-family="Times,serif" font-size="14.00" fill="#000000">org.owntracks.android.support.preferences.PreferencesStore</text>
</g>
<!-- b1e51df1&#45;7bb3&#45;4537&#45;8c30&#45;085d54bf640e -->
<g id="node8" class="node">
<title>b1e51df1&#45;7bb3&#45;4537&#45;8c30&#45;085d54bf640e</title>
<polygon fill="#40e0d0" stroke="#40e0d0" points="442.3996,-346.8 178.9206,-346.8 178.9206,-350.8 166.9206,-350.8 166.9206,-310.8 442.3996,-310.8 442.3996,-346.8"/>
<polyline fill="none" stroke="#40e0d0" points="166.9206,-346.8 178.9206,-346.8 "/>
<text text-anchor="middle" x="304.6601" y="-324.6" font-family="Times,serif" font-size="14.00" fill="#000000">Map&lt;Class&lt;?&gt;, AndroidInjector.Factory&lt;?&gt;&gt;</text>
</g>
<!-- b1e51df1&#45;7bb3&#45;4537&#45;8c30&#45;085d54bf640e&#45;&gt;88e4cedf&#45;b26c&#45;4353&#45;9f1f&#45;aed5df140f32 -->
<g id="edge1" class="edge">
<title>b1e51df1&#45;7bb3&#45;4537&#45;8c30&#45;085d54bf640e&#45;&gt;88e4cedf&#45;b26c&#45;4353&#45;9f1f&#45;aed5df140f32</title>
<path fill="none" stroke="#000000" d="M442.3313,-328.8C500.4944,-328.8 568.9574,-328.8 630.8202,-328.8 630.8202,-328.8 630.8202,-328.8 706.8202,-328.8 715.7914,-328.8 724.9347,-328.8 734.1709,-328.8"/>
<polygon fill="#000000" stroke="#000000" points="734.2259,-332.3001 744.2258,-328.8 734.2258,-325.3001 734.2259,-332.3001"/>
</g>
</g>
</svg>
