<svg width="1745px" height="539px"
 viewBox="0.00 0.00 1745.04 538.60" xmlns="http://www.w3.org/2000/svg" xmlns:xlink="http://www.w3.org/1999/xlink">
<g id="graph0" class="graph" transform="scale(1.0 1.0) rotate(0) translate(14.4 524.2)">
<title>org.owntracks.android.ui.welcome.WelcomeActivityModule → org.owntracks.android.ui.welcome.WelcomeActivityModule_BindIntroFragment.IntroFragmentSubcomponent</title>
<polygon fill="#ffffff" stroke="transparent" points="-14.4,14.4 -14.4,-524.2 1730.6438,-524.2 1730.6438,14.4 -14.4,14.4"/>
<text text-anchor="middle" x="301.5485" y="-8.2" font-family="Times,serif" font-size="14.00" fill="#000000">WelcomeActivityModule → WelcomeActivityModule_BindIntroFragment.IntroFragmentSubcomponent</text>
<g id="clust1" class="cluster">
<title>cluster_Entry Points</title>
<polygon fill="none" stroke="#000000" points="8,-123.8 8,-200.8 164.7876,-200.8 164.7876,-123.8 8,-123.8"/>
<text text-anchor="middle" x="50.8061" y="-184.2" font-family="Times,serif" font-size="14.00" fill="#000000">Entry Points</text>
</g>
<g id="clust2" class="cluster">
<title>cluster_Dependency Graph</title>
<polygon fill="none" stroke="#000000" points="185.7876,-123.8 185.7876,-501.8 1708.2438,-501.8 1708.2438,-123.8 185.7876,-123.8"/>
<text text-anchor="middle" x="248.011" y="-485.2" font-family="Times,serif" font-size="14.00" fill="#000000">Dependency Graph</text>
</g>
<g id="clust3" class="cluster">
<title>cluster_Map&lt;Class&lt;?&gt;, Provider&lt;AndroidInjector.Factory&lt;?&gt;&gt;&gt;</title>
<path fill="none" stroke="#000000" d="M726.1694,-175.8C726.1694,-175.8 1688.2438,-175.8 1688.2438,-175.8 1694.2438,-175.8 1700.2438,-181.8 1700.2438,-187.8 1700.2438,-187.8 1700.2438,-456.8 1700.2438,-456.8 1700.2438,-462.8 1694.2438,-468.8 1688.2438,-468.8 1688.2438,-468.8 726.1694,-468.8 726.1694,-468.8 720.1694,-468.8 714.1694,-462.8 714.1694,-456.8 714.1694,-456.8 714.1694,-187.8 714.1694,-187.8 714.1694,-181.8 720.1694,-175.8 726.1694,-175.8"/>
<text text-anchor="middle" x="1207.2066" y="-452.2" font-family="Times,serif" font-size="14.00" fill="#000000">Map&lt;Class&lt;?&gt;, Provider&lt;AndroidInjector.Factory&lt;?&gt;&gt;&gt;</text>
</g>
<g id="clust5" class="cluster">
<title>cluster_WelcomeActivityModule</title>
<g id="a_clust5"><a xlink:href="full_org.owntracks.android.ui.welcome.WelcomeActivityModule.svg" xlink:title="Inherited from WelcomeActivityModule">
<polygon fill="none" stroke="#000000" stroke-dasharray="5,2" points="449.7354,-32.8 449.7354,-115.8 693.1694,-115.8 693.1694,-32.8 449.7354,-32.8"/>
<text text-anchor="middle" x="571.4524" y="-99.2" font-family="Times,serif" font-size="14.00" fill="#000000">Inherited from WelcomeActivityModule</text>
</a>
</g>
</g>
<!-- e7eb1d3b&#45;59e1&#45;448e&#45;9a74&#45;f92f6a788037 -->
<g id="node1" class="node">
<title>e7eb1d3b&#45;59e1&#45;448e&#45;9a74&#45;f92f6a788037</title>
<polygon fill="#40e0d0" stroke="#40e0d0" stroke-width="2" points="156.6816,-167.8 16.106,-167.8 16.106,-163.8 12.106,-163.8 12.106,-159.8 16.106,-159.8 16.106,-139.8 12.106,-139.8 12.106,-135.8 16.106,-135.8 16.106,-131.8 156.6816,-131.8 156.6816,-167.8"/>
<polyline fill="none" stroke="#40e0d0" stroke-width="2" points="16.106,-163.8 20.106,-163.8 20.106,-159.8 16.106,-159.8 "/>
<polyline fill="none" stroke="#40e0d0" stroke-width="2" points="16.106,-139.8 20.106,-139.8 20.106,-135.8 16.106,-135.8 "/>
<text text-anchor="middle" x="86.3938" y="-145.6" font-family="Times,serif" font-size="14.00" fill="#000000">inject (IntroFragment)</text>
</g>
<!-- 0f5ddbac&#45;492d&#45;4be4&#45;ae94&#45;96cdff927bf7 -->
<g id="node2" class="node">
<title>0f5ddbac&#45;492d&#45;4be4&#45;ae94&#45;96cdff927bf7</title>
<polygon fill="#40e0d0" stroke="#40e0d0" points="420.7093,-289.8 193.8137,-289.8 193.8137,-253.8 420.7093,-253.8 420.7093,-289.8"/>
<text text-anchor="middle" x="307.2615" y="-267.6" font-family="Times,serif" font-size="14.00" fill="#000000">DispatchingAndroidInjector&lt;Object&gt;</text>
</g>
<!-- e7eb1d3b&#45;59e1&#45;448e&#45;9a74&#45;f92f6a788037&#45;&gt;0f5ddbac&#45;492d&#45;4be4&#45;ae94&#45;96cdff927bf7 -->
<g id="edge3" class="edge">
<title>e7eb1d3b&#45;59e1&#45;448e&#45;9a74&#45;f92f6a788037&#45;&gt;0f5ddbac&#45;492d&#45;4be4&#45;ae94&#45;96cdff927bf7</title>
<path fill="none" stroke="#000000" d="M102.5533,-168.0902C120.8866,-187.7669 152.5768,-218.6669 185.7876,-236.8 195.3002,-241.9939 205.6629,-246.4863 216.1939,-250.3546"/>
<polygon fill="#000000" stroke="#000000" points="215.2981,-253.7488 225.8929,-253.734 217.6013,-247.1386 215.2981,-253.7488"/>
</g>
<!-- a626c51a&#45;357b&#45;44e8&#45;8df3&#45;64d7979e3e6a -->
<g id="node3" class="node">
<title>a626c51a&#45;357b&#45;44e8&#45;8df3&#45;64d7979e3e6a</title>
<polygon fill="#40e0d0" stroke="#40e0d0" points="365.8429,-167.8 248.6801,-167.8 248.6801,-131.8 365.8429,-131.8 365.8429,-167.8"/>
<text text-anchor="middle" x="307.2615" y="-145.6" font-family="Times,serif" font-size="14.00" fill="#000000">NoOpViewModel</text>
</g>
<!-- e7eb1d3b&#45;59e1&#45;448e&#45;9a74&#45;f92f6a788037&#45;&gt;a626c51a&#45;357b&#45;44e8&#45;8df3&#45;64d7979e3e6a -->
<g id="edge1" class="edge">
<title>e7eb1d3b&#45;59e1&#45;448e&#45;9a74&#45;f92f6a788037&#45;&gt;a626c51a&#45;357b&#45;44e8&#45;8df3&#45;64d7979e3e6a</title>
<path fill="none" stroke="#000000" d="M156.885,-149.8C182.9648,-149.8 212.4795,-149.8 238.4118,-149.8"/>
<polygon fill="#000000" stroke="#000000" points="238.533,-153.3001 248.533,-149.8 238.5329,-146.3001 238.533,-153.3001"/>
</g>
<!-- 4a334c5e&#45;6455&#45;46c3&#45;a1d3&#45;96c887460ca0 -->
<g id="node12" class="node">
<title>4a334c5e&#45;6455&#45;46c3&#45;a1d3&#45;96c887460ca0</title>
<polygon fill="#7fffd4" stroke="#7fffd4" points="618.3874,-82.4019 524.5174,-82.4019 524.5174,-41.1981 618.3874,-41.1981 618.3874,-82.4019"/>
<text text-anchor="middle" x="571.4524" y="-66" font-family="Times,serif" font-size="14.00" fill="#000000">@PerActivity</text>
<text text-anchor="middle" x="571.4524" y="-49.2" font-family="Times,serif" font-size="14.00" fill="#000000">Navigator</text>
</g>
<!-- e7eb1d3b&#45;59e1&#45;448e&#45;9a74&#45;f92f6a788037&#45;&gt;4a334c5e&#45;6455&#45;46c3&#45;a1d3&#45;96c887460ca0 -->
<g id="edge2" class="edge">
<title>e7eb1d3b&#45;59e1&#45;448e&#45;9a74&#45;f92f6a788037&#45;&gt;4a334c5e&#45;6455&#45;46c3&#45;a1d3&#45;96c887460ca0</title>
<path fill="none" stroke="#000000" d="M140.9612,-131.7909C155.4244,-127.4418 171.1037,-123.1022 185.7876,-119.8 301.0871,-93.8711 438.4406,-76.3375 514.1784,-67.8045"/>
<polygon fill="#000000" stroke="#000000" points="514.8969,-71.2462 524.4477,-66.6602 514.1216,-64.2892 514.8969,-71.2462"/>
</g>
<!-- f78ba439&#45;cd6b&#45;41ec&#45;8422&#45;6f3bead625d7 -->
<g id="node6" class="node">
<title>f78ba439&#45;cd6b&#45;41ec&#45;8422&#45;6f3bead625d7</title>
<polygon fill="#40e0d0" stroke="#40e0d0" points="1061.5259,-303.8 734.0505,-303.8 734.0505,-307.8 722.0505,-307.8 722.0505,-267.8 1061.5259,-267.8 1061.5259,-303.8"/>
<polyline fill="none" stroke="#40e0d0" points="722.0505,-303.8 734.0505,-303.8 "/>
<text text-anchor="middle" x="891.7882" y="-281.6" font-family="Times,serif" font-size="14.00" fill="#000000">Map&lt;Class&lt;?&gt;, Provider&lt;AndroidInjector.Factory&lt;?&gt;&gt;&gt;</text>
</g>
<!-- 0f5ddbac&#45;492d&#45;4be4&#45;ae94&#45;96cdff927bf7&#45;&gt;f78ba439&#45;cd6b&#45;41ec&#45;8422&#45;6f3bead625d7 -->
<g id="edge4" class="edge">
<title>0f5ddbac&#45;492d&#45;4be4&#45;ae94&#45;96cdff927bf7&#45;&gt;f78ba439&#45;cd6b&#45;41ec&#45;8422&#45;6f3bead625d7</title>
<path fill="none" stroke="#000000" d="M421.0043,-274.5243C503.6826,-276.5045 617.2567,-279.2247 712.1375,-281.4972"/>
<polygon fill="#000000" stroke="#000000" points="712.0573,-284.9962 722.1383,-281.7367 712.225,-277.9982 712.0573,-284.9962"/>
</g>
<!-- a626c51a&#45;357b&#45;44e8&#45;8df3&#45;64d7979e3e6a&#45;&gt;4a334c5e&#45;6455&#45;46c3&#45;a1d3&#45;96c887460ca0 -->
<g id="edge5" class="edge">
<title>a626c51a&#45;357b&#45;44e8&#45;8df3&#45;64d7979e3e6a&#45;&gt;4a334c5e&#45;6455&#45;46c3&#45;a1d3&#45;96c887460ca0</title>
<path fill="none" stroke="#000000" d="M361.362,-131.7795C406.0862,-116.8822 469.3948,-95.7946 514.806,-80.6685"/>
<polygon fill="#000000" stroke="#000000" points="516.1172,-83.9209 524.4987,-77.4399 513.905,-77.2796 516.1172,-83.9209"/>
</g>
<!-- d2640cc3&#45;07ba&#45;435f&#45;b13d&#45;cf9cf7b3c45f -->
<g id="node4" class="node">
<title>d2640cc3&#45;07ba&#45;435f&#45;b13d&#45;cf9cf7b3c45f</title>
<polygon fill="#ffff00" stroke="#ffff00" points="357.9657,-227.4019 256.5573,-227.4019 256.5573,-186.1981 357.9657,-186.1981 357.9657,-227.4019"/>
<text text-anchor="middle" x="307.2615" y="-211" font-family="Times,serif" font-size="14.00" fill="#000000">@PerFragment</text>
<text text-anchor="middle" x="307.2615" y="-194.2" font-family="Times,serif" font-size="14.00" fill="#000000">Fragment</text>
</g>
<!-- 04af2ed6&#45;69f3&#45;48b8&#45;9883&#45;af586b8ead8f -->
<g id="node5" class="node">
<title>04af2ed6&#45;69f3&#45;48b8&#45;9883&#45;af586b8ead8f</title>
<polygon fill="#40e0d0" stroke="#40e0d0" points="989.7181,-167.8 833.9335,-167.8 793.8583,-131.8 949.6429,-131.8 989.7181,-167.8"/>
<text text-anchor="middle" x="891.7882" y="-145.6" font-family="Times,serif" font-size="14.00" fill="#000000">IntroFragment</text>
</g>
<!-- d2640cc3&#45;07ba&#45;435f&#45;b13d&#45;cf9cf7b3c45f&#45;&gt;04af2ed6&#45;69f3&#45;48b8&#45;9883&#45;af586b8ead8f -->
<g id="edge11" class="edge">
<title>d2640cc3&#45;07ba&#45;435f&#45;b13d&#45;cf9cf7b3c45f&#45;&gt;04af2ed6&#45;69f3&#45;48b8&#45;9883&#45;af586b8ead8f</title>
<path fill="none" stroke="#000000" stroke-dasharray="1,5" d="M358.1119,-201.8413C459.828,-191.9225 689.0555,-169.5694 811.3555,-157.6434"/>
<polygon fill="#000000" stroke="#000000" points="811.7981,-161.1169 821.4112,-156.6628 811.1187,-154.15 811.7981,-161.1169"/>
<text text-anchor="middle" x="571.4524" y="-197" font-family="Times,serif" font-size="14.00" fill="#000000">delegates</text>
</g>
<!-- b66d1887&#45;8252&#45;48cd&#45;af96&#45;b623243efa8f -->
<g id="node7" class="node">
<title>b66d1887&#45;8252&#45;48cd&#45;af96&#45;b623243efa8f</title>
<polygon fill="#40e0d0" stroke="#40e0d0" points="1692.1622,-219.8 1212.4886,-219.8 1212.4886,-183.8 1692.1622,-183.8 1692.1622,-219.8"/>
<text text-anchor="middle" x="1452.3254" y="-197.6" font-family="Times,serif" font-size="14.00" fill="#000000">WelcomeActivityModule_BindPermissionFragment.bindAndroidInjectorFactory()</text>
</g>
<!-- f78ba439&#45;cd6b&#45;41ec&#45;8422&#45;6f3bead625d7&#45;&gt;b66d1887&#45;8252&#45;48cd&#45;af96&#45;b623243efa8f -->
<g id="edge8" class="edge">
<title>f78ba439&#45;cd6b&#45;41ec&#45;8422&#45;6f3bead625d7&#45;&gt;b66d1887&#45;8252&#45;48cd&#45;af96&#45;b623243efa8f</title>
<path fill="none" stroke="#000000" d="M1053.3524,-267.6928C1056.0848,-266.4662 1058.7724,-265.1698 1061.407,-263.8 1083.3171,-252.4082 1074.2123,-222.8 1098.907,-222.8 1098.907,-222.8 1098.907,-222.8 1174.907,-222.8 1200.9257,-222.8 1228.278,-221.8702 1255.2506,-220.4018"/>
<polygon fill="#000000" stroke="#000000" points="1255.7815,-223.8773 1265.566,-219.8135 1255.3829,-216.8887 1255.7815,-223.8773"/>
</g>
<!-- 64ec0f40&#45;e19c&#45;4d69&#45;852f&#45;000a6991bf0a -->
<g id="node8" class="node">
<title>64ec0f40&#45;e19c&#45;4d69&#45;852f&#45;000a6991bf0a</title>
<polygon fill="#40e0d0" stroke="#40e0d0" points="1674.6552,-273.8 1229.9956,-273.8 1229.9956,-237.8 1674.6552,-237.8 1674.6552,-273.8"/>
<text text-anchor="middle" x="1452.3254" y="-251.6" font-family="Times,serif" font-size="14.00" fill="#000000">WelcomeActivityModule_BindIntroFragment.bindAndroidInjectorFactory()</text>
</g>
<!-- f78ba439&#45;cd6b&#45;41ec&#45;8422&#45;6f3bead625d7&#45;&gt;64ec0f40&#45;e19c&#45;4d69&#45;852f&#45;000a6991bf0a -->
<g id="edge9" class="edge">
<title>f78ba439&#45;cd6b&#45;41ec&#45;8422&#45;6f3bead625d7&#45;&gt;64ec0f40&#45;e19c&#45;4d69&#45;852f&#45;000a6991bf0a</title>
<path fill="none" stroke="#000000" d="M1021.3849,-267.784C1047.0242,-265.4215 1073.7755,-263.8 1098.907,-263.8 1098.907,-263.8 1098.907,-263.8 1174.907,-263.8 1189.392,-263.8 1204.3007,-263.6897 1219.3337,-263.4949"/>
<polygon fill="#000000" stroke="#000000" points="1219.8081,-266.9887 1229.7574,-263.347 1219.7087,-259.9894 1219.8081,-266.9887"/>
</g>
<!-- d78a74bc&#45;5a2f&#45;4cd8&#45;9b37&#45;09d60699e7ee -->
<g id="node9" class="node">
<title>d78a74bc&#45;5a2f&#45;4cd8&#45;9b37&#45;09d60699e7ee</title>
<polygon fill="#40e0d0" stroke="#40e0d0" points="1678.452,-327.8 1226.1988,-327.8 1226.1988,-291.8 1678.452,-291.8 1678.452,-327.8"/>
<text text-anchor="middle" x="1452.3254" y="-305.6" font-family="Times,serif" font-size="14.00" fill="#000000">WelcomeActivityModule_BindFinishFragment.bindAndroidInjectorFactory()</text>
</g>
<!-- f78ba439&#45;cd6b&#45;41ec&#45;8422&#45;6f3bead625d7&#45;&gt;d78a74bc&#45;5a2f&#45;4cd8&#45;9b37&#45;09d60699e7ee -->
<g id="edge10" class="edge">
<title>f78ba439&#45;cd6b&#45;41ec&#45;8422&#45;6f3bead625d7&#45;&gt;d78a74bc&#45;5a2f&#45;4cd8&#45;9b37&#45;09d60699e7ee</title>
<path fill="none" stroke="#000000" d="M1061.544,-300.0866C1074.1801,-300.5393 1086.7393,-300.8 1098.907,-300.8 1098.907,-300.8 1098.907,-300.8 1174.907,-300.8 1188.2849,-300.8 1202.0237,-300.9058 1215.888,-301.0946"/>
<polygon fill="#000000" stroke="#000000" points="1215.9506,-304.5958 1226.0021,-301.2463 1216.0557,-297.5966 1215.9506,-304.5958"/>
</g>
<!-- e1c88e86&#45;9192&#45;409a&#45;8a1e&#45;297900e140c8 -->
<g id="node10" class="node">
<title>e1c88e86&#45;9192&#45;409a&#45;8a1e&#45;297900e140c8</title>
<polygon fill="#40e0d0" stroke="#40e0d0" points="1683.2604,-381.8 1221.3904,-381.8 1221.3904,-345.8 1683.2604,-345.8 1683.2604,-381.8"/>
<text text-anchor="middle" x="1452.3254" y="-359.6" font-family="Times,serif" font-size="14.00" fill="#000000">WelcomeActivityModule_BindVersionFragment.bindAndroidInjectorFactory()</text>
</g>
<!-- f78ba439&#45;cd6b&#45;41ec&#45;8422&#45;6f3bead625d7&#45;&gt;e1c88e86&#45;9192&#45;409a&#45;8a1e&#45;297900e140c8 -->
<g id="edge7" class="edge">
<title>f78ba439&#45;cd6b&#45;41ec&#45;8422&#45;6f3bead625d7&#45;&gt;e1c88e86&#45;9192&#45;409a&#45;8a1e&#45;297900e140c8</title>
<path fill="none" stroke="#000000" d="M924.3921,-303.9289C964.2819,-324.3724 1034.4753,-354.8 1098.907,-354.8 1098.907,-354.8 1098.907,-354.8 1174.907,-354.8 1186.6717,-354.8 1198.7156,-354.8819 1210.8784,-355.03"/>
<polygon fill="#000000" stroke="#000000" points="1211.0728,-358.5328 1221.1196,-355.1696 1211.1683,-351.5335 1211.0728,-358.5328"/>
</g>
<!-- 8831916f&#45;a99d&#45;4838&#45;b864&#45;03dab134b633 -->
<g id="node11" class="node">
<title>8831916f&#45;a99d&#45;4838&#45;b864&#45;03dab134b633</title>
<polygon fill="#40e0d0" stroke="#40e0d0" points="1673.3315,-435.8 1231.3193,-435.8 1231.3193,-399.8 1673.3315,-399.8 1673.3315,-435.8"/>
<text text-anchor="middle" x="1452.3254" y="-413.6" font-family="Times,serif" font-size="14.00" fill="#000000">WelcomeActivityModule_BindPlayFragment.bindAndroidInjectorFactory()</text>
</g>
<!-- f78ba439&#45;cd6b&#45;41ec&#45;8422&#45;6f3bead625d7&#45;&gt;8831916f&#45;a99d&#45;4838&#45;b864&#45;03dab134b633 -->
<g id="edge6" class="edge">
<title>f78ba439&#45;cd6b&#45;41ec&#45;8422&#45;6f3bead625d7&#45;&gt;8831916f&#45;a99d&#45;4838&#45;b864&#45;03dab134b633</title>
<path fill="none" stroke="#000000" d="M908.0729,-303.9491C940.6643,-338.1636 1017.7745,-408.8 1098.907,-408.8 1098.907,-408.8 1098.907,-408.8 1174.907,-408.8 1189.9282,-408.8 1205.4045,-408.9334 1221.0023,-409.1678"/>
<polygon fill="#000000" stroke="#000000" points="1221.2103,-412.6716 1231.2663,-409.336 1221.325,-405.6725 1221.2103,-412.6716"/>
</g>
</g>
</svg>
