<svg width="2095px" height="558px"
 viewBox="0.00 0.00 2094.55 557.60" xmlns="http://www.w3.org/2000/svg" xmlns:xlink="http://www.w3.org/1999/xlink">
<g id="graph0" class="graph" transform="scale(1.0 1.0) rotate(0) translate(14.4 543.2)">
<title>org.owntracks.android.injection.modules.AndroidBindingModule_BindMapActivity</title>
<polygon fill="#ffffff" stroke="transparent" points="-14.4,14.4 -14.4,-543.2 2080.149,-543.2 2080.149,14.4 -14.4,14.4"/>
<text text-anchor="middle" x="128.5477" y="-8.2" font-family="Times,serif" font-size="14.00" fill="#000000">AndroidBindingModule_BindMapActivity</text>
<g id="clust2" class="cluster">
<title>cluster_Dependency Graph</title>
<polygon fill="none" stroke="#000000" points="8,-32.8 8,-520.8 1523.9628,-520.8 1523.9628,-32.8 8,-32.8"/>
<text text-anchor="middle" x="70.2234" y="-504.2" font-family="Times,serif" font-size="14.00" fill="#000000">Dependency Graph</text>
</g>
<g id="clust3" class="cluster">
<title>cluster_Map&lt;Class&lt;?&gt;, AndroidInjector.Factory&lt;?&gt;&gt;</title>
<path fill="none" stroke="#000000" d="M171.0404,-410.8C171.0404,-410.8 1168.0798,-410.8 1168.0798,-410.8 1174.0798,-410.8 1180.0798,-416.8 1180.0798,-422.8 1180.0798,-422.8 1180.0798,-475.8 1180.0798,-475.8 1180.0798,-481.8 1174.0798,-487.8 1168.0798,-487.8 1168.0798,-487.8 171.0404,-487.8 171.0404,-487.8 165.0404,-487.8 159.0404,-481.8 159.0404,-475.8 159.0404,-475.8 159.0404,-422.8 159.0404,-422.8 159.0404,-416.8 165.0404,-410.8 171.0404,-410.8"/>
<text text-anchor="middle" x="669.5601" y="-471.2" font-family="Times,serif" font-size="14.00" fill="#000000">Map&lt;Class&lt;?&gt;, AndroidInjector.Factory&lt;?&gt;&gt;</text>
</g>
<g id="clust4" class="cluster">
<title>cluster_Subcomponents</title>
<polygon fill="none" stroke="#000000" points="1625.6178,-407.8 1625.6178,-490.8 2057.749,-490.8 2057.749,-407.8 1625.6178,-407.8"/>
<text text-anchor="middle" x="1678.3366" y="-474.2" font-family="Times,serif" font-size="14.00" fill="#000000">Subcomponents</text>
</g>
<!-- c922e69f&#45;0009&#45;404b&#45;88af&#45;79e8c7ac3173 -->
<g id="node1" class="node">
<title>c922e69f&#45;0009&#45;404b&#45;88af&#45;79e8c7ac3173</title>
<polygon fill="#40e0d0" stroke="#40e0d0" points="1171.9597,-454.8 744.4403,-454.8 744.4403,-418.8 1171.9597,-418.8 1171.9597,-454.8"/>
<text text-anchor="middle" x="958.2" y="-432.6" font-family="Times,serif" font-size="14.00" fill="#000000">AndroidBindingModule_BindMapActivity.bindAndroidInjectorFactory()</text>
</g>
<!-- a940b318&#45;fdd8&#45;436a&#45;81ac&#45;735c88518063 -->
<g id="node2" class="node">
<title>a940b318&#45;fdd8&#45;436a&#45;81ac&#45;735c88518063</title>
<polygon fill="#40e0d0" stroke="#40e0d0" points="1515.8623,-465.4014 1298.2645,-465.4014 1298.2645,-408.1986 1515.8623,-408.1986 1515.8623,-465.4014"/>
<text text-anchor="middle" x="1407.0634" y="-449" font-family="Times,serif" font-size="14.00" fill="#000000">MapActivitySubcomponent.Factory</text>
<text text-anchor="middle" x="1407.0634" y="-416.2" font-family="Times,serif" font-size="14.00" fill="#000000">Subcomponent Creator</text>
</g>
<!-- c922e69f&#45;0009&#45;404b&#45;88af&#45;79e8c7ac3173&#45;&gt;a940b318&#45;fdd8&#45;436a&#45;81ac&#45;735c88518063 -->
<g id="edge2" class="edge">
<title>c922e69f&#45;0009&#45;404b&#45;88af&#45;79e8c7ac3173&#45;&gt;a940b318&#45;fdd8&#45;436a&#45;81ac&#45;735c88518063</title>
<path fill="none" stroke="#000000" stroke-dasharray="1,5" d="M1172.1149,-436.8C1211.8817,-436.8 1252.0898,-436.8 1287.7304,-436.8"/>
<polygon fill="#000000" stroke="#000000" points="1288.1466,-440.3001 1298.1465,-436.8 1288.1465,-433.3001 1288.1466,-440.3001"/>
<text text-anchor="middle" x="1235.1219" y="-441" font-family="Times,serif" font-size="14.00" fill="#000000">delegates</text>
</g>
<!-- 488d505f&#45;47c4&#45;4715&#45;843d&#45;606c3894dbb3 -->
<g id="node11" class="node">
<title>488d505f&#45;47c4&#45;4715&#45;843d&#45;606c3894dbb3</title>
<g id="a_node11"><a xlink:href="full_org.owntracks.android.injection.modules.AndroidBindingModule_BindMapActivity.MapActivitySubcomponent.svg" xlink:title="@PerActivity\nAndroidBindingModule_BindMapActivity.MapActivitySubcomponent">
<polygon fill="#7fffd4" stroke="#7fffd4" points="2049.8146,-457.4019 1633.5522,-457.4019 1633.5522,-416.1981 2049.8146,-416.1981 2049.8146,-457.4019"/>
<text text-anchor="middle" x="1841.6834" y="-441" font-family="Times,serif" font-size="14.00" fill="#000000">@PerActivity</text>
<text text-anchor="middle" x="1841.6834" y="-424.2" font-family="Times,serif" font-size="14.00" fill="#000000">AndroidBindingModule_BindMapActivity.MapActivitySubcomponent</text>
</a>
</g>
</g>
<!-- a940b318&#45;fdd8&#45;436a&#45;81ac&#45;735c88518063&#45;&gt;488d505f&#45;47c4&#45;4715&#45;843d&#45;606c3894dbb3 -->
<g id="edge3" class="edge">
<title>a940b318&#45;fdd8&#45;436a&#45;81ac&#45;735c88518063&#45;&gt;488d505f&#45;47c4&#45;4715&#45;843d&#45;606c3894dbb3:w</title>
<path fill="none" stroke="#000000" stroke-dasharray="5,2" d="M1515.992,-436.8C1549.9578,-436.8 1587.812,-436.8 1623.2617,-436.8"/>
<polygon fill="#000000" stroke="#000000" points="1623.6834,-440.3001 1633.6834,-436.8 1623.6834,-433.3001 1623.6834,-440.3001"/>
<text text-anchor="middle" x="1574.7903" y="-441" font-family="Times,serif" font-size="14.00" fill="#000000">subcomponent</text>
</g>
<!-- 5b00095d&#45;b27d&#45;4919&#45;b31e&#45;74d5b8ccfb5d -->
<g id="node3" class="node">
<title>5b00095d&#45;b27d&#45;4919&#45;b31e&#45;74d5b8ccfb5d</title>
<polygon fill="#ff3030" stroke="#ff3030" points="409.6651,-400.8 199.6551,-400.8 199.6551,-364.8 409.6651,-364.8 409.6651,-400.8"/>
<text text-anchor="middle" x="304.6601" y="-378.6" font-family="Times,serif" font-size="14.00" fill="#000000">org.greenrobot.eventbus.EventBus</text>
</g>
<!-- 2b7628ae&#45;7fe4&#45;4e91&#45;bf37&#45;4b22c22cd64f -->
<g id="node4" class="node">
<title>2b7628ae&#45;7fe4&#45;4e91&#45;bf37&#45;4b22c22cd64f</title>
<polygon fill="#ff3030" stroke="#ff3030" points="463.1069,-346.8 146.2133,-346.8 146.2133,-310.8 463.1069,-310.8 463.1069,-346.8"/>
<text text-anchor="middle" x="304.6601" y="-324.6" font-family="Times,serif" font-size="14.00" fill="#000000">androidx.test.espresso.idling.CountingIdlingResource</text>
</g>
<!-- 246395ad&#45;f67a&#45;44fa&#45;826a&#45;e111d5f3b65a -->
<g id="node5" class="node">
<title>246395ad&#45;f67a&#45;44fa&#45;826a&#45;e111d5f3b65a</title>
<polygon fill="#ff3030" stroke="#ff3030" points="593.4804,-292.8 15.8398,-292.8 15.8398,-256.8 593.4804,-256.8 593.4804,-292.8"/>
<text text-anchor="middle" x="304.6601" y="-270.6" font-family="Times,serif" font-size="14.00" fill="#000000">java.util.Map&lt;java.lang.String,javax.inject.Provider&lt;dagger.android.AndroidInjector.Factory&lt;?&gt;&gt;&gt;</text>
</g>
<!-- 307777b8&#45;c688&#45;4378&#45;83cc&#45;14ebe4724e74 -->
<g id="node6" class="node">
<title>307777b8&#45;c688&#45;4378&#45;83cc&#45;14ebe4724e74</title>
<polygon fill="#ff3030" stroke="#ff3030" points="446.8007,-238.8 162.5195,-238.8 162.5195,-202.8 446.8007,-202.8 446.8007,-238.8"/>
<text text-anchor="middle" x="304.6601" y="-216.6" font-family="Times,serif" font-size="14.00" fill="#000000">org.owntracks.android.data.repos.ContactsRepo</text>
</g>
<!-- e47417f5&#45;b679&#45;4ad3&#45;800f&#45;95bc54e58f92 -->
<g id="node7" class="node">
<title>e47417f5&#45;b679&#45;4ad3&#45;800f&#45;95bc54e58f92</title>
<polygon fill="#ff3030" stroke="#ff3030" points="452.9641,-184.8 156.3561,-184.8 156.3561,-148.8 452.9641,-148.8 452.9641,-184.8"/>
<text text-anchor="middle" x="304.6601" y="-162.6" font-family="Times,serif" font-size="14.00" fill="#000000">org.owntracks.android.data.repos.WaypointsRepo</text>
</g>
<!-- 6a18c434&#45;935c&#45;4e5b&#45;abf4&#45;2d19fb14320d -->
<g id="node8" class="node">
<title>6a18c434&#45;935c&#45;4e5b&#45;abf4&#45;2d19fb14320d</title>
<polygon fill="#ff3030" stroke="#ff3030" points="539.1721,-130.8 70.1481,-130.8 70.1481,-94.8 539.1721,-94.8 539.1721,-130.8"/>
<text text-anchor="middle" x="304.6601" y="-108.6" font-family="Times,serif" font-size="14.00" fill="#000000">@org.owntracks.android.injection.qualifier.AppContext android.content.Context</text>
</g>
<!-- 6a13d737&#45;f6a5&#45;442f&#45;95ca&#45;940522b69f8b -->
<g id="node9" class="node">
<title>6a13d737&#45;f6a5&#45;442f&#45;95ca&#45;940522b69f8b</title>
<polygon fill="#ff3030" stroke="#ff3030" points="481.4438,-76.8 127.8764,-76.8 127.8764,-40.8 481.4438,-40.8 481.4438,-76.8"/>
<text text-anchor="middle" x="304.6601" y="-54.6" font-family="Times,serif" font-size="14.00" fill="#000000">org.owntracks.android.support.preferences.PreferencesStore</text>
</g>
<!-- e8b87cba&#45;db27&#45;4e20&#45;98d0&#45;55c4b4bf4de3 -->
<g id="node10" class="node">
<title>e8b87cba&#45;db27&#45;4e20&#45;98d0&#45;55c4b4bf4de3</title>
<polygon fill="#40e0d0" stroke="#40e0d0" points="442.3996,-454.8 178.9206,-454.8 178.9206,-458.8 166.9206,-458.8 166.9206,-418.8 442.3996,-418.8 442.3996,-454.8"/>
<polyline fill="none" stroke="#40e0d0" points="166.9206,-454.8 178.9206,-454.8 "/>
<text text-anchor="middle" x="304.6601" y="-432.6" font-family="Times,serif" font-size="14.00" fill="#000000">Map&lt;Class&lt;?&gt;, AndroidInjector.Factory&lt;?&gt;&gt;</text>
</g>
<!-- e8b87cba&#45;db27&#45;4e20&#45;98d0&#45;55c4b4bf4de3&#45;&gt;c922e69f&#45;0009&#45;404b&#45;88af&#45;79e8c7ac3173 -->
<g id="edge1" class="edge">
<title>e8b87cba&#45;db27&#45;4e20&#45;98d0&#45;55c4b4bf4de3&#45;&gt;c922e69f&#45;0009&#45;404b&#45;88af&#45;79e8c7ac3173</title>
<path fill="none" stroke="#000000" d="M442.3313,-436.8C500.4944,-436.8 568.9574,-436.8 630.8202,-436.8 630.8202,-436.8 630.8202,-436.8 706.8202,-436.8 715.7942,-436.8 724.9483,-436.8 734.1958,-436.8"/>
<polygon fill="#000000" stroke="#000000" points="734.2629,-440.3001 744.2629,-436.8 734.2629,-433.3001 734.2629,-440.3001"/>
</g>
</g>
</svg>
