<svg width="898px" height="213px"
 viewBox="0.00 0.00 898.19 212.60" xmlns="http://www.w3.org/2000/svg" xmlns:xlink="http://www.w3.org/1999/xlink">
<g id="graph0" class="graph" transform="scale(1.0 1.0) rotate(0) translate(14.4 198.2)">
<title>org.owntracks.android.injection.modules.SingletonModule</title>
<polygon fill="#ffffff" stroke="transparent" points="-14.4,14.4 -14.4,-198.2 883.7936,-198.2 883.7936,14.4 -14.4,14.4"/>
<text text-anchor="middle" x="56.6094" y="-8.2" font-family="Times,serif" font-size="14.00" fill="#000000">SingletonModule</text>
<g id="clust2" class="cluster">
<title>cluster_Dependency Graph</title>
<polygon fill="none" stroke="#000000" points="8,-32.8 8,-175.8 861.3936,-175.8 861.3936,-32.8 8,-32.8"/>
<text text-anchor="middle" x="70.2234" y="-159.2" font-family="Times,serif" font-size="14.00" fill="#000000">Dependency Graph</text>
</g>
<!-- 8e0e3cf1&#45;eafa&#45;4b53&#45;8dc1&#45;38ffe08e6e3f -->
<g id="node1" class="node">
<title>8e0e3cf1&#45;eafa&#45;4b53&#45;8dc1&#45;38ffe08e6e3f</title>
<polygon fill="#7fffd4" stroke="#7fffd4" points="318.0762,-82.4019 235.9506,-82.4019 235.9506,-41.1981 318.0762,-41.1981 318.0762,-82.4019"/>
<text text-anchor="middle" x="277.0134" y="-66" font-family="Times,serif" font-size="14.00" fill="#000000">@Singleton</text>
<text text-anchor="middle" x="277.0134" y="-49.2" font-family="Times,serif" font-size="14.00" fill="#000000">EventBus</text>
</g>
<!-- 72b9aae0&#45;0231&#45;407e&#45;93be&#45;b8cf0dcb21ed -->
<g id="node2" class="node">
<title>72b9aae0&#45;0231&#45;407e&#45;93be&#45;b8cf0dcb21ed</title>
<polygon fill="#7fffd4" stroke="#7fffd4" points="139.8665,-142.4019 45.7787,-142.4019 45.7787,-101.1981 139.8665,-101.1981 139.8665,-142.4019"/>
<text text-anchor="middle" x="92.8226" y="-126" font-family="Times,serif" font-size="14.00" fill="#000000">@Singleton</text>
<text text-anchor="middle" x="92.8226" y="-109.2" font-family="Times,serif" font-size="14.00" fill="#000000">ContactsRepo</text>
</g>
<!-- 72b9aae0&#45;0231&#45;407e&#45;93be&#45;b8cf0dcb21ed&#45;&gt;8e0e3cf1&#45;eafa&#45;4b53&#45;8dc1&#45;38ffe08e6e3f -->
<g id="edge1" class="edge">
<title>72b9aae0&#45;0231&#45;407e&#45;93be&#45;b8cf0dcb21ed&#45;&gt;8e0e3cf1&#45;eafa&#45;4b53&#45;8dc1&#45;38ffe08e6e3f</title>
<path fill="none" stroke="#000000" d="M140.2563,-106.3485C166.5526,-97.7825 199.2587,-87.1285 226.0923,-78.3875"/>
<polygon fill="#000000" stroke="#000000" points="227.2658,-81.6863 235.6899,-75.2611 225.0976,-75.0306 227.2658,-81.6863"/>
</g>
<!-- 9df40acf&#45;b656&#45;4ec8&#45;a147&#45;1250fb51984c -->
<g id="node3" class="node">
<title>9df40acf&#45;b656&#45;4ec8&#45;a147&#45;1250fb51984c</title>
<polygon fill="#7fffd4" stroke="#7fffd4" points="348.25,-142.4019 205.7768,-142.4019 205.7768,-101.1981 348.25,-101.1981 348.25,-142.4019"/>
<text text-anchor="middle" x="277.0134" y="-126" font-family="Times,serif" font-size="14.00" fill="#000000">@Singleton</text>
<text text-anchor="middle" x="277.0134" y="-109.2" font-family="Times,serif" font-size="14.00" fill="#000000">ContactImageProvider</text>
</g>
<!-- 72b9aae0&#45;0231&#45;407e&#45;93be&#45;b8cf0dcb21ed&#45;&gt;9df40acf&#45;b656&#45;4ec8&#45;a147&#45;1250fb51984c -->
<g id="edge2" class="edge">
<title>72b9aae0&#45;0231&#45;407e&#45;93be&#45;b8cf0dcb21ed&#45;&gt;9df40acf&#45;b656&#45;4ec8&#45;a147&#45;1250fb51984c</title>
<path fill="none" stroke="#000000" d="M140.2563,-121.8C157.1522,-121.8 176.6942,-121.8 195.6246,-121.8"/>
<polygon fill="#000000" stroke="#000000" points="195.7531,-125.3001 205.7531,-121.8 195.753,-118.3001 195.7531,-125.3001"/>
</g>
<!-- dcc66ec6&#45;337d&#45;40d8&#45;a9de&#45;c82c89631937 -->
<g id="node4" class="node">
<title>dcc66ec6&#45;337d&#45;40d8&#45;a9de&#45;c82c89631937</title>
<polygon fill="#ff3030" stroke="#ff3030" points="853.3996,-139.8 384.3756,-139.8 384.3756,-103.8 853.3996,-103.8 853.3996,-139.8"/>
<text text-anchor="middle" x="618.8876" y="-117.6" font-family="Times,serif" font-size="14.00" fill="#000000">@org.owntracks.android.injection.qualifier.AppContext android.content.Context</text>
</g>
<!-- 9df40acf&#45;b656&#45;4ec8&#45;a147&#45;1250fb51984c&#45;&gt;dcc66ec6&#45;337d&#45;40d8&#45;a9de&#45;c82c89631937 -->
<g id="edge3" class="edge">
<title>9df40acf&#45;b656&#45;4ec8&#45;a147&#45;1250fb51984c&#45;&gt;dcc66ec6&#45;337d&#45;40d8&#45;a9de&#45;c82c89631937</title>
<path fill="none" stroke="#000000" stroke-dasharray="5,2" d="M348.2653,-121.8C356.4407,-121.8 365.0838,-121.8 374.0637,-121.8"/>
<polygon fill="#000000" stroke="#000000" points="374.3385,-125.3001 384.3385,-121.8 374.3385,-118.3001 374.3385,-125.3001"/>
<text text-anchor="middle" x="338.6404" y="-109.2" font-family="Times,serif" font-size="14.00" fill="#000000">Missing binding</text>
</g>
<!-- 1881e4b4&#45;85b7&#45;436a&#45;ae6b&#45;6004b656dc18 -->
<g id="node5" class="node">
<title>1881e4b4&#45;85b7&#45;436a&#45;ae6b&#45;6004b656dc18</title>
<polygon fill="#7fffd4" stroke="#7fffd4" points="169.4682,-82.4019 16.177,-82.4019 16.177,-41.1981 169.4682,-41.1981 169.4682,-82.4019"/>
<text text-anchor="middle" x="92.8226" y="-66" font-family="Times,serif" font-size="14.00" fill="#000000">@Singleton</text>
<text text-anchor="middle" x="92.8226" y="-49.2" font-family="Times,serif" font-size="14.00" fill="#000000">CountingIdlingResource</text>
</g>
</g>
</svg>
