<svg width="991px" height="153px"
 viewBox="0.00 0.00 991.43 152.60" xmlns="http://www.w3.org/2000/svg" xmlns:xlink="http://www.w3.org/1999/xlink">
<g id="graph0" class="graph" transform="scale(1.0 1.0) rotate(0) translate(14.4 138.2)">
<title>org.owntracks.android.support.preferences.SharedPreferencesStoreModule</title>
<polygon fill="#ffffff" stroke="transparent" points="-14.4,14.4 -14.4,-138.2 977.0294,-138.2 977.0294,14.4 -14.4,14.4"/>
<text text-anchor="middle" x="96.6263" y="-8.2" font-family="Times,serif" font-size="14.00" fill="#000000">SharedPreferencesStoreModule</text>
<g id="clust2" class="cluster">
<title>cluster_Dependency Graph</title>
<polygon fill="none" stroke="#000000" points="8,-32.8 8,-115.8 954.6294,-115.8 954.6294,-32.8 8,-32.8"/>
<text text-anchor="middle" x="70.2234" y="-99.2" font-family="Times,serif" font-size="14.00" fill="#000000">Dependency Graph</text>
</g>
<!-- 74247d85&#45;16e3&#45;4096&#45;8177&#45;538bed14db18 -->
<g id="node1" class="node">
<title>74247d85&#45;16e3&#45;4096&#45;8177&#45;538bed14db18</title>
<polygon fill="#40e0d0" stroke="#40e0d0" points="126.7457,-79.8 16.0847,-79.8 16.0847,-43.8 126.7457,-43.8 126.7457,-79.8"/>
<text text-anchor="middle" x="71.4152" y="-57.6" font-family="Times,serif" font-size="14.00" fill="#000000">PreferencesStore</text>
</g>
<!-- a5192f96&#45;e0ec&#45;4113&#45;b47d&#45;4c76a4322ea1 -->
<g id="node2" class="node">
<title>a5192f96&#45;e0ec&#45;4113&#45;b47d&#45;4c76a4322ea1</title>
<polygon fill="#7fffd4" stroke="#7fffd4" points="402.4691,-82.4019 253.0629,-82.4019 253.0629,-41.1981 402.4691,-41.1981 402.4691,-82.4019"/>
<text text-anchor="middle" x="327.766" y="-66" font-family="Times,serif" font-size="14.00" fill="#000000">@Singleton</text>
<text text-anchor="middle" x="327.766" y="-49.2" font-family="Times,serif" font-size="14.00" fill="#000000">SharedPreferencesStore</text>
</g>
<!-- 74247d85&#45;16e3&#45;4096&#45;8177&#45;538bed14db18&#45;&gt;a5192f96&#45;e0ec&#45;4113&#45;b47d&#45;4c76a4322ea1 -->
<g id="edge1" class="edge">
<title>74247d85&#45;16e3&#45;4096&#45;8177&#45;538bed14db18&#45;&gt;a5192f96&#45;e0ec&#45;4113&#45;b47d&#45;4c76a4322ea1</title>
<path fill="none" stroke="#000000" stroke-dasharray="1,5" d="M127.0395,-61.8C160.8335,-61.8 204.6602,-61.8 242.7362,-61.8"/>
<polygon fill="#000000" stroke="#000000" points="242.7949,-65.3001 252.7948,-61.8 242.7948,-58.3001 242.7949,-65.3001"/>
<text text-anchor="middle" x="189.8725" y="-66" font-family="Times,serif" font-size="14.00" fill="#000000">delegates</text>
</g>
<!-- 603ca6eb&#45;8466&#45;43ba&#45;9265&#45;cdf4159582ee -->
<g id="node3" class="node">
<title>603ca6eb&#45;8466&#45;43ba&#45;9265&#45;cdf4159582ee</title>
<polygon fill="#ff3030" stroke="#ff3030" points="946.6354,-79.8 477.6114,-79.8 477.6114,-43.8 946.6354,-43.8 946.6354,-79.8"/>
<text text-anchor="middle" x="712.1234" y="-57.6" font-family="Times,serif" font-size="14.00" fill="#000000">@org.owntracks.android.injection.qualifier.AppContext android.content.Context</text>
</g>
<!-- a5192f96&#45;e0ec&#45;4113&#45;b47d&#45;4c76a4322ea1&#45;&gt;603ca6eb&#45;8466&#45;43ba&#45;9265&#45;cdf4159582ee -->
<g id="edge2" class="edge">
<title>a5192f96&#45;e0ec&#45;4113&#45;b47d&#45;4c76a4322ea1&#45;&gt;603ca6eb&#45;8466&#45;43ba&#45;9265&#45;cdf4159582ee</title>
<path fill="none" stroke="#000000" stroke-dasharray="5,2" d="M402.7864,-61.8C422.2846,-61.8 444.3846,-61.8 467.587,-61.8"/>
<polygon fill="#000000" stroke="#000000" points="467.594,-65.3001 477.5939,-61.8 467.5939,-58.3001 467.594,-65.3001"/>
<text text-anchor="middle" x="431.8958" y="-66" font-family="Times,serif" font-size="14.00" fill="#000000">Missing binding</text>
</g>
</g>
</svg>
