<svg width="2250px" height="558px"
 viewBox="0.00 0.00 2250.10 557.60" xmlns="http://www.w3.org/2000/svg" xmlns:xlink="http://www.w3.org/1999/xlink">
<g id="graph0" class="graph" transform="scale(1.0 1.0) rotate(0) translate(14.4 543.2)">
<title>org.owntracks.android.injection.modules.AndroidBindingModule_BindConnectionActivity</title>
<polygon fill="#ffffff" stroke="transparent" points="-14.4,14.4 -14.4,-543.2 2235.7002,-543.2 2235.7002,14.4 -14.4,14.4"/>
<text text-anchor="middle" x="147.9916" y="-8.2" font-family="Times,serif" font-size="14.00" fill="#000000">AndroidBindingModule_BindConnectionActivity</text>
<g id="clust2" class="cluster">
<title>cluster_Dependency Graph</title>
<polygon fill="none" stroke="#000000" points="8,-32.8 8,-520.8 1601.7384,-520.8 1601.7384,-32.8 8,-32.8"/>
<text text-anchor="middle" x="70.2234" y="-504.2" font-family="Times,serif" font-size="14.00" fill="#000000">Dependency Graph</text>
</g>
<g id="clust3" class="cluster">
<title>cluster_Map&lt;Class&lt;?&gt;, AndroidInjector.Factory&lt;?&gt;&gt;</title>
<path fill="none" stroke="#000000" d="M171.0404,-410.8C171.0404,-410.8 1206.9676,-410.8 1206.9676,-410.8 1212.9676,-410.8 1218.9676,-416.8 1218.9676,-422.8 1218.9676,-422.8 1218.9676,-475.8 1218.9676,-475.8 1218.9676,-481.8 1212.9676,-487.8 1206.9676,-487.8 1206.9676,-487.8 171.0404,-487.8 171.0404,-487.8 165.0404,-487.8 159.0404,-481.8 159.0404,-475.8 159.0404,-475.8 159.0404,-422.8 159.0404,-422.8 159.0404,-416.8 165.0404,-410.8 171.0404,-410.8"/>
<text text-anchor="middle" x="689.004" y="-471.2" font-family="Times,serif" font-size="14.00" fill="#000000">Map&lt;Class&lt;?&gt;, AndroidInjector.Factory&lt;?&gt;&gt;</text>
</g>
<g id="clust4" class="cluster">
<title>cluster_Subcomponents</title>
<polygon fill="none" stroke="#000000" points="1703.3934,-407.8 1703.3934,-490.8 2213.3002,-490.8 2213.3002,-407.8 1703.3934,-407.8"/>
<text text-anchor="middle" x="1756.1122" y="-474.2" font-family="Times,serif" font-size="14.00" fill="#000000">Subcomponents</text>
</g>
<!-- dc752bac&#45;3c5b&#45;43d1&#45;b00c&#45;9f1372e29330 -->
<g id="node1" class="node">
<title>dc752bac&#45;3c5b&#45;43d1&#45;b00c&#45;9f1372e29330</title>
<polygon fill="#40e0d0" stroke="#40e0d0" points="1210.7914,-454.8 744.4964,-454.8 744.4964,-418.8 1210.7914,-418.8 1210.7914,-454.8"/>
<text text-anchor="middle" x="977.6439" y="-432.6" font-family="Times,serif" font-size="14.00" fill="#000000">AndroidBindingModule_BindConnectionActivity.bindAndroidInjectorFactory()</text>
</g>
<!-- c32b52eb&#45;fcc0&#45;4bc7&#45;b4eb&#45;f5595d168c28 -->
<g id="node2" class="node">
<title>c32b52eb&#45;fcc0&#45;4bc7&#45;b4eb&#45;f5595d168c28</title>
<polygon fill="#40e0d0" stroke="#40e0d0" points="1593.5819,-465.4014 1337.2083,-465.4014 1337.2083,-408.1986 1593.5819,-408.1986 1593.5819,-465.4014"/>
<text text-anchor="middle" x="1465.3951" y="-449" font-family="Times,serif" font-size="14.00" fill="#000000">ConnectionActivitySubcomponent.Factory</text>
<text text-anchor="middle" x="1465.3951" y="-416.2" font-family="Times,serif" font-size="14.00" fill="#000000">Subcomponent Creator</text>
</g>
<!-- dc752bac&#45;3c5b&#45;43d1&#45;b00c&#45;9f1372e29330&#45;&gt;c32b52eb&#45;fcc0&#45;4bc7&#45;b4eb&#45;f5595d168c28 -->
<g id="edge2" class="edge">
<title>dc752bac&#45;3c5b&#45;43d1&#45;b00c&#45;9f1372e29330&#45;&gt;c32b52eb&#45;fcc0&#45;4bc7&#45;b4eb&#45;f5595d168c28</title>
<path fill="none" stroke="#000000" stroke-dasharray="1,5" d="M1210.8054,-436.8C1250.5438,-436.8 1290.6622,-436.8 1326.9295,-436.8"/>
<polygon fill="#000000" stroke="#000000" points="1327.0531,-440.3001 1337.053,-436.8 1327.053,-433.3001 1327.0531,-440.3001"/>
<text text-anchor="middle" x="1274.0097" y="-441" font-family="Times,serif" font-size="14.00" fill="#000000">delegates</text>
</g>
<!-- 67bfdf3c&#45;d1e2&#45;431b&#45;97b4&#45;75b4c441e421 -->
<g id="node11" class="node">
<title>67bfdf3c&#45;d1e2&#45;431b&#45;97b4&#45;75b4c441e421</title>
<g id="a_node11"><a xlink:href="full_org.owntracks.android.injection.modules.AndroidBindingModule_BindConnectionActivity.ConnectionActivitySubcomponent.svg" xlink:title="@PerActivity\nAndroidBindingModule_BindConnectionActivity.ConnectionActivitySubcomponent">
<polygon fill="#7fffd4" stroke="#7fffd4" points="2205.2536,-457.4019 1711.44,-457.4019 1711.44,-416.1981 2205.2536,-416.1981 2205.2536,-457.4019"/>
<text text-anchor="middle" x="1958.3468" y="-441" font-family="Times,serif" font-size="14.00" fill="#000000">@PerActivity</text>
<text text-anchor="middle" x="1958.3468" y="-424.2" font-family="Times,serif" font-size="14.00" fill="#000000">AndroidBindingModule_BindConnectionActivity.ConnectionActivitySubcomponent</text>
</a>
</g>
</g>
<!-- c32b52eb&#45;fcc0&#45;4bc7&#45;b4eb&#45;f5595d168c28&#45;&gt;67bfdf3c&#45;d1e2&#45;431b&#45;97b4&#45;75b4c441e421 -->
<g id="edge3" class="edge">
<title>c32b52eb&#45;fcc0&#45;4bc7&#45;b4eb&#45;f5595d168c28&#45;&gt;67bfdf3c&#45;d1e2&#45;431b&#45;97b4&#45;75b4c441e421:w</title>
<path fill="none" stroke="#000000" stroke-dasharray="5,2" d="M1593.6834,-436.8C1628.1695,-436.8 1665.6927,-436.8 1700.9705,-436.8"/>
<polygon fill="#000000" stroke="#000000" points="1701.3468,-440.3001 1711.3468,-436.8 1701.3468,-433.3001 1701.3468,-440.3001"/>
<text text-anchor="middle" x="1652.5659" y="-441" font-family="Times,serif" font-size="14.00" fill="#000000">subcomponent</text>
</g>
<!-- 5e907b97&#45;9b35&#45;4180&#45;8c33&#45;d997eb19f77b -->
<g id="node3" class="node">
<title>5e907b97&#45;9b35&#45;4180&#45;8c33&#45;d997eb19f77b</title>
<polygon fill="#ff3030" stroke="#ff3030" points="409.6651,-400.8 199.6551,-400.8 199.6551,-364.8 409.6651,-364.8 409.6651,-400.8"/>
<text text-anchor="middle" x="304.6601" y="-378.6" font-family="Times,serif" font-size="14.00" fill="#000000">org.greenrobot.eventbus.EventBus</text>
</g>
<!-- 0e441b66&#45;df83&#45;4d1c&#45;aef5&#45;d5797bdaf368 -->
<g id="node4" class="node">
<title>0e441b66&#45;df83&#45;4d1c&#45;aef5&#45;d5797bdaf368</title>
<polygon fill="#ff3030" stroke="#ff3030" points="593.4804,-346.8 15.8398,-346.8 15.8398,-310.8 593.4804,-310.8 593.4804,-346.8"/>
<text text-anchor="middle" x="304.6601" y="-324.6" font-family="Times,serif" font-size="14.00" fill="#000000">java.util.Map&lt;java.lang.String,javax.inject.Provider&lt;dagger.android.AndroidInjector.Factory&lt;?&gt;&gt;&gt;</text>
</g>
<!-- 50d57f65&#45;af9e&#45;4f2f&#45;a139&#45;b560853b54dd -->
<g id="node5" class="node">
<title>50d57f65&#45;af9e&#45;4f2f&#45;a139&#45;b560853b54dd</title>
<polygon fill="#ff3030" stroke="#ff3030" points="539.1721,-292.8 70.1481,-292.8 70.1481,-256.8 539.1721,-256.8 539.1721,-292.8"/>
<text text-anchor="middle" x="304.6601" y="-270.6" font-family="Times,serif" font-size="14.00" fill="#000000">@org.owntracks.android.injection.qualifier.AppContext android.content.Context</text>
</g>
<!-- 68a7d246&#45;bc18&#45;49cd&#45;bb1e&#45;7b96c38f2d3c -->
<g id="node6" class="node">
<title>68a7d246&#45;bc18&#45;49cd&#45;bb1e&#45;7b96c38f2d3c</title>
<polygon fill="#ff3030" stroke="#ff3030" points="481.4438,-238.8 127.8764,-238.8 127.8764,-202.8 481.4438,-202.8 481.4438,-238.8"/>
<text text-anchor="middle" x="304.6601" y="-216.6" font-family="Times,serif" font-size="14.00" fill="#000000">org.owntracks.android.support.preferences.PreferencesStore</text>
</g>
<!-- 2e30cd6d&#45;32f5&#45;4604&#45;bb62&#45;f72bfa409295 -->
<g id="node7" class="node">
<title>2e30cd6d&#45;32f5&#45;4604&#45;bb62&#45;f72bfa409295</title>
<polygon fill="#ff3030" stroke="#ff3030" points="446.8007,-184.8 162.5195,-184.8 162.5195,-148.8 446.8007,-148.8 446.8007,-184.8"/>
<text text-anchor="middle" x="304.6601" y="-162.6" font-family="Times,serif" font-size="14.00" fill="#000000">org.owntracks.android.data.repos.ContactsRepo</text>
</g>
<!-- 391a32b1&#45;f0c4&#45;400c&#45;b4e7&#45;880af2561860 -->
<g id="node8" class="node">
<title>391a32b1&#45;f0c4&#45;400c&#45;b4e7&#45;880af2561860</title>
<polygon fill="#ff3030" stroke="#ff3030" points="452.9641,-130.8 156.3561,-130.8 156.3561,-94.8 452.9641,-94.8 452.9641,-130.8"/>
<text text-anchor="middle" x="304.6601" y="-108.6" font-family="Times,serif" font-size="14.00" fill="#000000">org.owntracks.android.data.repos.WaypointsRepo</text>
</g>
<!-- 57048930&#45;5041&#45;4498&#45;9d87&#45;2e3d1ca4ee77 -->
<g id="node9" class="node">
<title>57048930&#45;5041&#45;4498&#45;9d87&#45;2e3d1ca4ee77</title>
<polygon fill="#ff3030" stroke="#ff3030" points="463.1069,-76.8 146.2133,-76.8 146.2133,-40.8 463.1069,-40.8 463.1069,-76.8"/>
<text text-anchor="middle" x="304.6601" y="-54.6" font-family="Times,serif" font-size="14.00" fill="#000000">androidx.test.espresso.idling.CountingIdlingResource</text>
</g>
<!-- 97787e78&#45;fadd&#45;4eb0&#45;9da9&#45;efb34fa38907 -->
<g id="node10" class="node">
<title>97787e78&#45;fadd&#45;4eb0&#45;9da9&#45;efb34fa38907</title>
<polygon fill="#40e0d0" stroke="#40e0d0" points="442.3996,-454.8 178.9206,-454.8 178.9206,-458.8 166.9206,-458.8 166.9206,-418.8 442.3996,-418.8 442.3996,-454.8"/>
<polyline fill="none" stroke="#40e0d0" points="166.9206,-454.8 178.9206,-454.8 "/>
<text text-anchor="middle" x="304.6601" y="-432.6" font-family="Times,serif" font-size="14.00" fill="#000000">Map&lt;Class&lt;?&gt;, AndroidInjector.Factory&lt;?&gt;&gt;</text>
</g>
<!-- 97787e78&#45;fadd&#45;4eb0&#45;9da9&#45;efb34fa38907&#45;&gt;dc752bac&#45;3c5b&#45;43d1&#45;b00c&#45;9f1372e29330 -->
<g id="edge1" class="edge">
<title>97787e78&#45;fadd&#45;4eb0&#45;9da9&#45;efb34fa38907&#45;&gt;dc752bac&#45;3c5b&#45;43d1&#45;b00c&#45;9f1372e29330</title>
<path fill="none" stroke="#000000" d="M442.3313,-436.8C500.4944,-436.8 568.9574,-436.8 630.8202,-436.8 630.8202,-436.8 630.8202,-436.8 706.8202,-436.8 715.7977,-436.8 724.9426,-436.8 734.18,-436.8"/>
<polygon fill="#000000" stroke="#000000" points="734.2363,-440.3001 744.2363,-436.8 734.2362,-433.3001 734.2363,-440.3001"/>
</g>
</g>
</svg>
