<svg width="608px" height="153px"
 viewBox="0.00 0.00 608.11 152.60" xmlns="http://www.w3.org/2000/svg" xmlns:xlink="http://www.w3.org/1999/xlink">
<g id="graph0" class="graph" transform="scale(1.0 1.0) rotate(0) translate(14.4 138.2)">
<title>org.owntracks.android.ui.welcome.play.PlayFragmentModule</title>
<polygon fill="#ffffff" stroke="transparent" points="-14.4,14.4 -14.4,-138.2 593.715,-138.2 593.715,14.4 -14.4,14.4"/>
<text text-anchor="middle" x="69.0456" y="-8.2" font-family="Times,serif" font-size="14.00" fill="#000000">PlayFragmentModule</text>
<g id="clust2" class="cluster">
<title>cluster_Dependency Graph</title>
<polygon fill="none" stroke="#000000" points="8,-32.8 8,-115.8 571.315,-115.8 571.315,-32.8 8,-32.8"/>
<text text-anchor="middle" x="70.2234" y="-99.2" font-family="Times,serif" font-size="14.00" fill="#000000">Dependency Graph</text>
</g>
<!-- 3620660d&#45;b059&#45;4937&#45;9b52&#45;dc476a3470e1 -->
<g id="node1" class="node">
<title>3620660d&#45;b059&#45;4937&#45;9b52&#45;dc476a3470e1</title>
<polygon fill="#7fffd4" stroke="#7fffd4" points="117.3062,-82.4019 15.8978,-82.4019 15.8978,-41.1981 117.3062,-41.1981 117.3062,-82.4019"/>
<text text-anchor="middle" x="66.602" y="-66" font-family="Times,serif" font-size="14.00" fill="#000000">@PerFragment</text>
<text text-anchor="middle" x="66.602" y="-49.2" font-family="Times,serif" font-size="14.00" fill="#000000">Fragment</text>
</g>
<!-- 27d1e168&#45;3599&#45;415e&#45;8468&#45;44d1de11472a -->
<g id="node2" class="node">
<title>27d1e168&#45;3599&#45;415e&#45;8468&#45;44d1de11472a</title>
<polygon fill="#ff3030" stroke="#ff3030" points="563.3284,-79.8 243.2748,-79.8 243.2748,-43.8 563.3284,-43.8 563.3284,-79.8"/>
<text text-anchor="middle" x="403.3016" y="-57.6" font-family="Times,serif" font-size="14.00" fill="#000000">org.owntracks.android.ui.welcome.play.PlayFragment</text>
</g>
<!-- 3620660d&#45;b059&#45;4937&#45;9b52&#45;dc476a3470e1&#45;&gt;27d1e168&#45;3599&#45;415e&#45;8468&#45;44d1de11472a -->
<g id="edge1" class="edge">
<title>3620660d&#45;b059&#45;4937&#45;9b52&#45;dc476a3470e1&#45;&gt;27d1e168&#45;3599&#45;415e&#45;8468&#45;44d1de11472a</title>
<path fill="none" stroke="#000000" stroke-dasharray="5,2" d="M117.3739,-61.8C148.6679,-61.8 190.7884,-61.8 233.0673,-61.8"/>
<polygon fill="#000000" stroke="#000000" points="233.2333,-65.3001 243.2333,-61.8 233.2332,-58.3001 233.2333,-65.3001"/>
<text text-anchor="middle" x="180.2461" y="-66" font-family="Times,serif" font-size="14.00" fill="#000000">delegates</text>
<text text-anchor="middle" x="197.5352" y="-49.2" font-family="Times,serif" font-size="14.00" fill="#000000">Missing binding</text>
</g>
</g>
</svg>
