<svg width="896px" height="449px"
 viewBox="0.00 0.00 895.99 448.60" xmlns="http://www.w3.org/2000/svg" xmlns:xlink="http://www.w3.org/1999/xlink">
<g id="graph0" class="graph" transform="scale(1.0 1.0) rotate(0) translate(14.4 434.2)">
<title>org.owntracks.android.injection.modules.AndroidBindingModule → org.owntracks.android.injection.modules.AndroidBindingModule_BindBackgroundService.BackgroundServiceSubcomponent</title>
<polygon fill="#ffffff" stroke="transparent" points="-14.4,14.4 -14.4,-434.2 881.5882,-434.2 881.5882,14.4 -14.4,14.4"/>
<text text-anchor="middle" x="323.3395" y="-8.2" font-family="Times,serif" font-size="14.00" fill="#000000">AndroidBindingModule → AndroidBindingModule_BindBackgroundService.BackgroundServiceSubcomponent</text>
<g id="clust1" class="cluster">
<title>cluster_Entry Points</title>
<polygon fill="none" stroke="#000000" points="8,-225.8 8,-302.8 194.3262,-302.8 194.3262,-225.8 8,-225.8"/>
<text text-anchor="middle" x="50.8061" y="-286.2" font-family="Times,serif" font-size="14.00" fill="#000000">Entry Points</text>
</g>
<g id="clust4" class="cluster">
<title>cluster_AndroidBindingModule → AndroidBindingModule_BindBackgroundService.BackgroundServiceSubcomponent</title>
<g id="a_clust4"><a xlink:href="full_org.owntracks.android.injection.modules.AndroidBindingModule_BindBackgroundService.BackgroundServiceSubcomponent.svg" xlink:title="Inherited from AndroidBindingModule_BindBackgroundService.BackgroundServiceSubcomponent\n@PerService">
<polygon fill="none" stroke="#ffe4c4" stroke-dasharray="5,2" points="214.3262,-32.8 214.3262,-411.8 859.1882,-411.8 859.1882,-32.8 214.3262,-32.8"/>
<text text-anchor="middle" x="536.7572" y="-395.2" font-family="Times,serif" font-size="14.00" fill="#000000">Inherited from AndroidBindingModule_BindBackgroundService.BackgroundServiceSubcomponent</text>
<text text-anchor="middle" x="536.7572" y="-378.4" font-family="Times,serif" font-size="14.00" fill="#000000">@PerService</text>
</a>
</g>
</g>
<g id="clust2" class="cluster">
<title>cluster_Dependency Graph</title>
<polygon fill="none" stroke="#000000" points="35.5618,-311.8 35.5618,-410.8 166.7644,-410.8 166.7644,-311.8 35.5618,-311.8"/>
<text text-anchor="middle" x="97.7852" y="-394.2" font-family="Times,serif" font-size="14.00" fill="#000000">Dependency Graph</text>
</g>
<!-- 9feb3fc3&#45;32b2&#45;43f2&#45;911c&#45;8734ffbc33d1 -->
<g id="node1" class="node">
<title>9feb3fc3&#45;32b2&#45;43f2&#45;911c&#45;8734ffbc33d1</title>
<polygon fill="#40e0d0" stroke="#40e0d0" stroke-width="2" points="186.4896,-269.8 15.8366,-269.8 15.8366,-265.8 11.8366,-265.8 11.8366,-261.8 15.8366,-261.8 15.8366,-241.8 11.8366,-241.8 11.8366,-237.8 15.8366,-237.8 15.8366,-233.8 186.4896,-233.8 186.4896,-269.8"/>
<polyline fill="none" stroke="#40e0d0" stroke-width="2" points="15.8366,-265.8 19.8366,-265.8 19.8366,-261.8 15.8366,-261.8 "/>
<polyline fill="none" stroke="#40e0d0" stroke-width="2" points="15.8366,-241.8 19.8366,-241.8 19.8366,-237.8 15.8366,-237.8 "/>
<text text-anchor="middle" x="101.1631" y="-247.6" font-family="Times,serif" font-size="14.00" fill="#000000">inject (BackgroundService)</text>
</g>
<!-- d7e878fc&#45;b7d7&#45;45f1&#45;92e8&#45;7e9cc89db2d9 -->
<g id="node2" class="node">
<title>d7e878fc&#45;b7d7&#45;45f1&#45;92e8&#45;7e9cc89db2d9</title>
<polygon fill="#76ee00" stroke="#76ee00" points="850.9702,-252.4019 768.8446,-252.4019 768.8446,-211.1981 850.9702,-211.1981 850.9702,-252.4019"/>
<text text-anchor="middle" x="809.9074" y="-236" font-family="Times,serif" font-size="14.00" fill="#000000">@Singleton</text>
<text text-anchor="middle" x="809.9074" y="-219.2" font-family="Times,serif" font-size="14.00" fill="#000000">Preferences</text>
</g>
<!-- 9feb3fc3&#45;32b2&#45;43f2&#45;911c&#45;8734ffbc33d1&#45;&gt;d7e878fc&#45;b7d7&#45;45f1&#45;92e8&#45;7e9cc89db2d9 -->
<g id="edge5" class="edge">
<title>9feb3fc3&#45;32b2&#45;43f2&#45;911c&#45;8734ffbc33d1&#45;&gt;d7e878fc&#45;b7d7&#45;45f1&#45;92e8&#45;7e9cc89db2d9</title>
<path fill="none" stroke="#000000" d="M143.1456,-269.9912C160.7459,-279.2662 180.3277,-291.9644 194.3262,-307.8 208.8217,-324.1979 197.4134,-338.9086 214.3262,-352.8 330.3159,-448.0688 400.0983,-397.1709 550.0164,-389.8 631.4714,-385.7952 664.5147,-416.6523 732.6266,-371.8 770.9149,-346.5868 791.9629,-295.6506 802.0811,-262.6663"/>
<polygon fill="#000000" stroke="#000000" points="805.564,-263.2226 804.9902,-252.6433 798.8414,-261.2713 805.564,-263.2226"/>
</g>
<!-- 8cc75a8e&#45;acc1&#45;49f4&#45;bfd4&#45;68a77270b5d8 -->
<g id="node3" class="node">
<title>8cc75a8e&#45;acc1&#45;49f4&#45;bfd4&#45;68a77270b5d8</title>
<polygon fill="#76ee00" stroke="#76ee00" points="700.3843,-362.4019 618.2587,-362.4019 618.2587,-321.1981 700.3843,-321.1981 700.3843,-362.4019"/>
<text text-anchor="middle" x="659.3215" y="-346" font-family="Times,serif" font-size="14.00" fill="#000000">@Singleton</text>
<text text-anchor="middle" x="659.3215" y="-329.2" font-family="Times,serif" font-size="14.00" fill="#000000">Scheduler</text>
</g>
<!-- 9feb3fc3&#45;32b2&#45;43f2&#45;911c&#45;8734ffbc33d1&#45;&gt;8cc75a8e&#45;acc1&#45;49f4&#45;bfd4&#45;68a77270b5d8 -->
<g id="edge2" class="edge">
<title>9feb3fc3&#45;32b2&#45;43f2&#45;911c&#45;8734ffbc33d1&#45;&gt;8cc75a8e&#45;acc1&#45;49f4&#45;bfd4&#45;68a77270b5d8</title>
<path fill="none" stroke="#000000" d="M130.4002,-269.9296C179.3387,-298.9923 281.9241,-354.5008 377.726,-371.8 453.0808,-385.407 474.1286,-382.0251 550.0164,-371.8 569.3509,-369.1949 590.1034,-364.1082 608.2758,-358.8528"/>
<polygon fill="#000000" stroke="#000000" points="609.4971,-362.141 618.0807,-355.9304 607.4976,-355.4326 609.4971,-362.141"/>
</g>
<!-- 769b7c4e&#45;c5dd&#45;41f8&#45;9285&#45;04719bc9394d -->
<g id="node4" class="node">
<title>769b7c4e&#45;c5dd&#45;41f8&#45;9285&#45;04719bc9394d</title>
<polygon fill="#76ee00" stroke="#76ee00" points="524.0565,-222.4019 403.6859,-222.4019 403.6859,-181.1981 524.0565,-181.1981 524.0565,-222.4019"/>
<text text-anchor="middle" x="463.8712" y="-206" font-family="Times,serif" font-size="14.00" fill="#000000">@Singleton</text>
<text text-anchor="middle" x="463.8712" y="-189.2" font-family="Times,serif" font-size="14.00" fill="#000000">LocationProcessor</text>
</g>
<!-- 9feb3fc3&#45;32b2&#45;43f2&#45;911c&#45;8734ffbc33d1&#45;&gt;769b7c4e&#45;c5dd&#45;41f8&#45;9285&#45;04719bc9394d -->
<g id="edge1" class="edge">
<title>9feb3fc3&#45;32b2&#45;43f2&#45;911c&#45;8734ffbc33d1&#45;&gt;769b7c4e&#45;c5dd&#45;41f8&#45;9285&#45;04719bc9394d</title>
<path fill="none" stroke="#000000" d="M186.4537,-247.995C232.6297,-245.1106 290.5424,-240.1595 341.726,-231.8 358.75,-229.0196 376.8983,-225.0985 393.856,-221.0054"/>
<polygon fill="#000000" stroke="#000000" points="394.8134,-224.3743 403.6853,-218.583 393.1383,-217.5777 394.8134,-224.3743"/>
</g>
<!-- 241bae12&#45;3de2&#45;450d&#45;86de&#45;d5a315941fa0 -->
<g id="node5" class="node">
<title>241bae12&#45;3de2&#45;450d&#45;86de&#45;d5a315941fa0</title>
<polygon fill="#76ee00" stroke="#76ee00" points="718.4421,-82.4019 600.2009,-82.4019 600.2009,-41.1981 718.4421,-41.1981 718.4421,-82.4019"/>
<text text-anchor="middle" x="659.3215" y="-66" font-family="Times,serif" font-size="14.00" fill="#000000">@Singleton</text>
<text text-anchor="middle" x="659.3215" y="-49.2" font-family="Times,serif" font-size="14.00" fill="#000000">GeocoderProvider</text>
</g>
<!-- 9feb3fc3&#45;32b2&#45;43f2&#45;911c&#45;8734ffbc33d1&#45;&gt;241bae12&#45;3de2&#45;450d&#45;86de&#45;d5a315941fa0 -->
<g id="edge8" class="edge">
<title>9feb3fc3&#45;32b2&#45;43f2&#45;911c&#45;8734ffbc33d1&#45;&gt;241bae12&#45;3de2&#45;450d&#45;86de&#45;d5a315941fa0</title>
<path fill="none" stroke="#000000" d="M109.2013,-233.631C124.5769,-201.142 161.3952,-133.3589 214.3262,-99.8 329.5179,-26.7671 496.5105,-36.159 589.728,-49.1847"/>
<polygon fill="#000000" stroke="#000000" points="589.4947,-52.6875 599.8938,-50.6608 590.5006,-45.7601 589.4947,-52.6875"/>
</g>
<!-- 03e05b20&#45;677f&#45;48ea&#45;bd0a&#45;5350d36b3192 -->
<g id="node6" class="node">
<title>03e05b20&#45;677f&#45;48ea&#45;bd0a&#45;5350d36b3192</title>
<polygon fill="#76ee00" stroke="#76ee00" points="707.1362,-222.4019 611.5068,-222.4019 611.5068,-181.1981 707.1362,-181.1981 707.1362,-222.4019"/>
<text text-anchor="middle" x="659.3215" y="-206" font-family="Times,serif" font-size="14.00" fill="#000000">@Singleton</text>
<text text-anchor="middle" x="659.3215" y="-189.2" font-family="Times,serif" font-size="14.00" fill="#000000">LocationRepo</text>
</g>
<!-- 9feb3fc3&#45;32b2&#45;43f2&#45;911c&#45;8734ffbc33d1&#45;&gt;03e05b20&#45;677f&#45;48ea&#45;bd0a&#45;5350d36b3192 -->
<g id="edge3" class="edge">
<title>9feb3fc3&#45;32b2&#45;43f2&#45;911c&#45;8734ffbc33d1&#45;&gt;03e05b20&#45;677f&#45;48ea&#45;bd0a&#45;5350d36b3192</title>
<path fill="none" stroke="#000000" d="M122.1633,-233.5962C165.9611,-197.0907 271.8086,-116.3369 377.726,-91.8 452.324,-74.5186 483.3821,-54.0723 550.0164,-91.8 577.0782,-107.1221 564.6754,-129.1798 586.0164,-151.8 594.1111,-160.3799 603.9216,-168.3004 613.6973,-175.1884"/>
<polygon fill="#000000" stroke="#000000" points="611.9916,-178.2602 622.2351,-180.9662 615.9149,-172.4629 611.9916,-178.2602"/>
</g>
<!-- 62d3f782&#45;f4e6&#45;4546&#45;8fe0&#45;6d94a966b635 -->
<g id="node7" class="node">
<title>62d3f782&#45;f4e6&#45;4546&#45;8fe0&#45;6d94a966b635</title>
<polygon fill="#76ee00" stroke="#76ee00" points="550.1618,-362.4019 377.5806,-362.4019 377.5806,-321.1981 550.1618,-321.1981 550.1618,-362.4019"/>
<text text-anchor="middle" x="463.8712" y="-346" font-family="Times,serif" font-size="14.00" fill="#000000">@Singleton</text>
<text text-anchor="middle" x="463.8712" y="-329.2" font-family="Times,serif" font-size="14.00" fill="#000000">RunThingsOnOtherThreads</text>
</g>
<!-- 9feb3fc3&#45;32b2&#45;43f2&#45;911c&#45;8734ffbc33d1&#45;&gt;62d3f782&#45;f4e6&#45;4546&#45;8fe0&#45;6d94a966b635 -->
<g id="edge4" class="edge">
<title>9feb3fc3&#45;32b2&#45;43f2&#45;911c&#45;8734ffbc33d1&#45;&gt;62d3f782&#45;f4e6&#45;4546&#45;8fe0&#45;6d94a966b635</title>
<path fill="none" stroke="#000000" d="M165.392,-269.817C181.351,-274.1772 198.437,-278.7467 214.3262,-282.8 264.8678,-295.6932 321.418,-309.1433 367.8899,-319.9397"/>
<polygon fill="#000000" stroke="#000000" points="367.1155,-323.353 377.6477,-322.2021 368.6967,-316.5339 367.1155,-323.353"/>
</g>
<!-- 97961e2c&#45;f6a4&#45;46e1&#45;9a45&#45;5d7bc67e1101 -->
<g id="node8" class="node">
<title>97961e2c&#45;f6a4&#45;46e1&#45;9a45&#45;5d7bc67e1101</title>
<polygon fill="#76ee00" stroke="#76ee00" points="511.9512,-302.4019 415.7912,-302.4019 415.7912,-261.1981 511.9512,-261.1981 511.9512,-302.4019"/>
<text text-anchor="middle" x="463.8712" y="-286" font-family="Times,serif" font-size="14.00" fill="#000000">@Singleton</text>
<text text-anchor="middle" x="463.8712" y="-269.2" font-family="Times,serif" font-size="14.00" fill="#000000">ServiceBridge</text>
</g>
<!-- 9feb3fc3&#45;32b2&#45;43f2&#45;911c&#45;8734ffbc33d1&#45;&gt;97961e2c&#45;f6a4&#45;46e1&#45;9a45&#45;5d7bc67e1101 -->
<g id="edge6" class="edge">
<title>9feb3fc3&#45;32b2&#45;43f2&#45;911c&#45;8734ffbc33d1&#45;&gt;97961e2c&#45;f6a4&#45;46e1&#45;9a45&#45;5d7bc67e1101</title>
<path fill="none" stroke="#000000" d="M186.3903,-262.0192C195.8101,-263.0211 205.2672,-263.9715 214.3262,-264.8 279.6635,-270.7752 354.8019,-275.619 405.413,-278.5855"/>
<polygon fill="#000000" stroke="#000000" points="405.3269,-282.0863 415.5129,-279.1716 405.7325,-275.098 405.3269,-282.0863"/>
</g>
<!-- 08c1e1fe&#45;7c04&#45;46c0&#45;a6ec&#45;c706e425c291 -->
<g id="node9" class="node">
<title>08c1e1fe&#45;7c04&#45;46c0&#45;a6ec&#45;c706e425c291</title>
<polygon fill="#76ee00" stroke="#76ee00" points="341.9266,-222.4019 222.1256,-222.4019 222.1256,-181.1981 341.9266,-181.1981 341.9266,-222.4019"/>
<text text-anchor="middle" x="282.0261" y="-206" font-family="Times,serif" font-size="14.00" fill="#000000">@Singleton</text>
<text text-anchor="middle" x="282.0261" y="-189.2" font-family="Times,serif" font-size="14.00" fill="#000000">MessageProcessor</text>
</g>
<!-- 9feb3fc3&#45;32b2&#45;43f2&#45;911c&#45;8734ffbc33d1&#45;&gt;08c1e1fe&#45;7c04&#45;46c0&#45;a6ec&#45;c706e425c291 -->
<g id="edge7" class="edge">
<title>9feb3fc3&#45;32b2&#45;43f2&#45;911c&#45;8734ffbc33d1&#45;&gt;08c1e1fe&#45;7c04&#45;46c0&#45;a6ec&#45;c706e425c291</title>
<path fill="none" stroke="#000000" d="M166.4588,-233.7489C181.3992,-229.6185 197.3339,-225.2134 212.4468,-221.0353"/>
<polygon fill="#000000" stroke="#000000" points="213.535,-224.3659 222.2408,-218.3278 211.6697,-217.619 213.535,-224.3659"/>
</g>
<!-- 8cc75a8e&#45;acc1&#45;49f4&#45;bfd4&#45;68a77270b5d8&#45;&gt;d7e878fc&#45;b7d7&#45;45f1&#45;92e8&#45;7e9cc89db2d9 -->
<g id="edge10" class="edge">
<title>8cc75a8e&#45;acc1&#45;49f4&#45;bfd4&#45;68a77270b5d8&#45;&gt;d7e878fc&#45;b7d7&#45;45f1&#45;92e8&#45;7e9cc89db2d9</title>
<path fill="none" stroke="#000000" d="M700.578,-324.9782C711.4,-319.8056 722.787,-313.6469 732.6266,-306.8 751.8373,-293.4322 770.7387,-275.2048 785.04,-260.0667"/>
<polygon fill="#000000" stroke="#000000" points="787.8463,-262.1877 792.0767,-252.4741 782.7121,-257.4295 787.8463,-262.1877"/>
</g>
<!-- 769b7c4e&#45;c5dd&#45;41f8&#45;9285&#45;04719bc9394d&#45;&gt;d7e878fc&#45;b7d7&#45;45f1&#45;92e8&#45;7e9cc89db2d9 -->
<g id="edge9" class="edge">
<title>769b7c4e&#45;c5dd&#45;41f8&#45;9285&#45;04719bc9394d&#45;&gt;d7e878fc&#45;b7d7&#45;45f1&#45;92e8&#45;7e9cc89db2d9</title>
<path fill="none" stroke="#000000" d="M523.9909,-220.6786C533.2505,-225.1079 542.2882,-230.4401 550.0164,-236.8 572.575,-255.3645 560.3164,-277.906 586.0164,-291.8 643.3362,-322.7884 670.9843,-312.9201 732.6266,-291.8 751.5664,-285.3108 769.4482,-272.0779 783.2312,-259.6869"/>
<polygon fill="#000000" stroke="#000000" points="785.9473,-261.9382 790.8498,-252.5458 781.1601,-256.8309 785.9473,-261.9382"/>
</g>
<!-- 769b7c4e&#45;c5dd&#45;41f8&#45;9285&#45;04719bc9394d&#45;&gt;03e05b20&#45;677f&#45;48ea&#45;bd0a&#45;5350d36b3192 -->
<g id="edge16" class="edge">
<title>769b7c4e&#45;c5dd&#45;41f8&#45;9285&#45;04719bc9394d&#45;&gt;03e05b20&#45;677f&#45;48ea&#45;bd0a&#45;5350d36b3192</title>
<path fill="none" stroke="#000000" d="M524.1075,-201.8C548.6434,-201.8 576.8954,-201.8 601.2094,-201.8"/>
<polygon fill="#000000" stroke="#000000" points="601.3663,-205.3001 611.3663,-201.8 601.3662,-198.3001 601.3663,-205.3001"/>
</g>
<!-- 769b7c4e&#45;c5dd&#45;41f8&#45;9285&#45;04719bc9394d&#45;&gt;08c1e1fe&#45;7c04&#45;46c0&#45;a6ec&#45;c706e425c291 -->
<g id="edge17" class="edge">
<title>769b7c4e&#45;c5dd&#45;41f8&#45;9285&#45;04719bc9394d&#45;&gt;08c1e1fe&#45;7c04&#45;46c0&#45;a6ec&#45;c706e425c291</title>
<path fill="none" stroke="#000000" d="M403.7297,-208.1937C387.2489,-208.5894 369.2382,-208.6555 352.2463,-208.392"/>
<polygon fill="#000000" stroke="#000000" points="351.8883,-204.8843 341.8209,-208.1854 351.7495,-211.8829 351.8883,-204.8843"/>
</g>
<!-- ab55cacf&#45;40d8&#45;4a8d&#45;9823&#45;caf8955b9581 -->
<g id="node10" class="node">
<title>ab55cacf&#45;40d8&#45;4a8d&#45;9823&#45;caf8955b9581</title>
<polygon fill="#76ee00" stroke="#76ee00" points="732.4322,-282.4019 586.2108,-282.4019 586.2108,-241.1981 732.4322,-241.1981 732.4322,-282.4019"/>
<text text-anchor="middle" x="659.3215" y="-266" font-family="Times,serif" font-size="14.00" fill="#000000">@Singleton</text>
<text text-anchor="middle" x="659.3215" y="-249.2" font-family="Times,serif" font-size="14.00" fill="#000000">DeviceMetricsProvider</text>
</g>
<!-- 769b7c4e&#45;c5dd&#45;41f8&#45;9285&#45;04719bc9394d&#45;&gt;ab55cacf&#45;40d8&#45;4a8d&#45;9823&#45;caf8955b9581 -->
<g id="edge18" class="edge">
<title>769b7c4e&#45;c5dd&#45;41f8&#45;9285&#45;04719bc9394d&#45;&gt;ab55cacf&#45;40d8&#45;4a8d&#45;9823&#45;caf8955b9581</title>
<path fill="none" stroke="#000000" d="M524.1075,-220.2916C542.5305,-225.9471 563.0485,-232.2458 582.4215,-238.193"/>
<polygon fill="#000000" stroke="#000000" points="581.5401,-241.5836 592.127,-241.1724 583.5944,-234.8918 581.5401,-241.5836"/>
</g>
<!-- 241bae12&#45;3de2&#45;450d&#45;86de&#45;d5a315941fa0&#45;&gt;d7e878fc&#45;b7d7&#45;45f1&#45;92e8&#45;7e9cc89db2d9 -->
<g id="edge13" class="edge">
<title>241bae12&#45;3de2&#45;450d&#45;86de&#45;d5a315941fa0&#45;&gt;d7e878fc&#45;b7d7&#45;45f1&#45;92e8&#45;7e9cc89db2d9</title>
<path fill="none" stroke="#000000" d="M718.6778,-81.8051C723.6733,-84.7334 728.4157,-88.051 732.6266,-91.8 766.3056,-121.7847 788.3573,-170.0768 799.9786,-201.3756"/>
<polygon fill="#000000" stroke="#000000" points="796.721,-202.6605 803.3867,-210.8957 803.3114,-200.3011 796.721,-202.6605"/>
</g>
<!-- 08c1e1fe&#45;7c04&#45;46c0&#45;a6ec&#45;c706e425c291&#45;&gt;d7e878fc&#45;b7d7&#45;45f1&#45;92e8&#45;7e9cc89db2d9 -->
<g id="edge11" class="edge">
<title>08c1e1fe&#45;7c04&#45;46c0&#45;a6ec&#45;c706e425c291&#45;&gt;d7e878fc&#45;b7d7&#45;45f1&#45;92e8&#45;7e9cc89db2d9</title>
<path fill="none" stroke="#000000" d="M338.0299,-181.1318C350.8969,-177.2597 364.6454,-173.8022 377.726,-171.8 455.6848,-159.867 658.0175,-146.2371 732.6266,-171.8 751.5664,-178.2892 769.4482,-191.5221 783.2312,-203.9131"/>
<polygon fill="#000000" stroke="#000000" points="781.1601,-206.7691 790.8498,-211.0542 785.9473,-201.6618 781.1601,-206.7691"/>
</g>
<!-- 08c1e1fe&#45;7c04&#45;46c0&#45;a6ec&#45;c706e425c291&#45;&gt;8cc75a8e&#45;acc1&#45;49f4&#45;bfd4&#45;68a77270b5d8 -->
<g id="edge14" class="edge">
<title>08c1e1fe&#45;7c04&#45;46c0&#45;a6ec&#45;c706e425c291&#45;&gt;8cc75a8e&#45;acc1&#45;49f4&#45;bfd4&#45;68a77270b5d8</title>
<path fill="none" stroke="#000000" d="M341.8063,-222.4337C353.6062,-225.9674 365.975,-229.2994 377.726,-231.8 453.1254,-247.8449 484.2642,-211.5612 550.0164,-251.8 574.6193,-266.8564 564.3243,-286.7881 586.0164,-305.8 592.9072,-311.8394 600.9904,-317.1238 609.2249,-321.6494"/>
<polygon fill="#000000" stroke="#000000" points="607.6783,-324.7898 618.1704,-326.2623 610.8866,-318.5683 607.6783,-324.7898"/>
</g>
<!-- 08c1e1fe&#45;7c04&#45;46c0&#45;a6ec&#45;c706e425c291&#45;&gt;769b7c4e&#45;c5dd&#45;41f8&#45;9285&#45;04719bc9394d -->
<g id="edge15" class="edge">
<title>08c1e1fe&#45;7c04&#45;46c0&#45;a6ec&#45;c706e425c291&#45;&gt;769b7c4e&#45;c5dd&#45;41f8&#45;9285&#45;04719bc9394d</title>
<path fill="none" stroke="#000000" d="M341.8209,-195.4146C358.2801,-195.0143 376.2871,-194.9436 393.2932,-195.2025"/>
<polygon fill="#000000" stroke="#000000" points="393.6633,-198.7103 403.7297,-195.4063 393.8,-191.7116 393.6633,-198.7103"/>
</g>
<!-- 08c1e1fe&#45;7c04&#45;46c0&#45;a6ec&#45;c706e425c291&#45;&gt;62d3f782&#45;f4e6&#45;4546&#45;8fe0&#45;6d94a966b635 -->
<g id="edge19" class="edge">
<title>08c1e1fe&#45;7c04&#45;46c0&#45;a6ec&#45;c706e425c291&#45;&gt;62d3f782&#45;f4e6&#45;4546&#45;8fe0&#45;6d94a966b635</title>
<path fill="none" stroke="#000000" d="M295.1045,-222.5356C311.5801,-247.0877 342.0881,-287.6816 377.726,-311.8 380.1237,-313.4227 382.6182,-314.9666 385.1836,-316.4347"/>
<polygon fill="#000000" stroke="#000000" points="383.6598,-319.5877 394.1406,-321.1385 386.9145,-313.3903 383.6598,-319.5877"/>
</g>
<!-- 08c1e1fe&#45;7c04&#45;46c0&#45;a6ec&#45;c706e425c291&#45;&gt;97961e2c&#45;f6a4&#45;46e1&#45;9a45&#45;5d7bc67e1101 -->
<g id="edge20" class="edge">
<title>08c1e1fe&#45;7c04&#45;46c0&#45;a6ec&#45;c706e425c291&#45;&gt;97961e2c&#45;f6a4&#45;46e1&#45;9a45&#45;5d7bc67e1101</title>
<path fill="none" stroke="#000000" d="M324.6776,-222.4538C341.1615,-230.2784 360.2352,-239.1411 377.726,-246.8 386.8203,-250.7822 396.5167,-254.871 406.0011,-258.7854"/>
<polygon fill="#000000" stroke="#000000" points="404.8044,-262.0774 415.3847,-262.6313 407.459,-255.6003 404.8044,-262.0774"/>
</g>
<!-- ca5f9b24&#45;9435&#45;4d20&#45;bfed&#45;1430495acfe9 -->
<g id="node11" class="node">
<title>ca5f9b24&#45;9435&#45;4d20&#45;bfed&#45;1430495acfe9</title>
<polygon fill="#76ee00" stroke="#76ee00" points="504.934,-142.4019 422.8084,-142.4019 422.8084,-101.1981 504.934,-101.1981 504.934,-142.4019"/>
<text text-anchor="middle" x="463.8712" y="-126" font-family="Times,serif" font-size="14.00" fill="#000000">@Singleton</text>
<text text-anchor="middle" x="463.8712" y="-109.2" font-family="Times,serif" font-size="14.00" fill="#000000">Parser</text>
</g>
<!-- 08c1e1fe&#45;7c04&#45;46c0&#45;a6ec&#45;c706e425c291&#45;&gt;ca5f9b24&#45;9435&#45;4d20&#45;bfed&#45;1430495acfe9 -->
<g id="edge21" class="edge">
<title>08c1e1fe&#45;7c04&#45;46c0&#45;a6ec&#45;c706e425c291&#45;&gt;ca5f9b24&#45;9435&#45;4d20&#45;bfed&#45;1430495acfe9</title>
<path fill="none" stroke="#000000" d="M324.6776,-181.1462C341.1615,-173.3216 360.2352,-164.4589 377.726,-156.8 389.0477,-151.8425 401.3025,-146.7197 412.9198,-141.974"/>
<polygon fill="#000000" stroke="#000000" points="414.5442,-145.092 422.4938,-138.0881 411.9116,-138.6059 414.5442,-145.092"/>
</g>
<!-- dd865d82&#45;617f&#45;40d0&#45;9c1e&#45;8beefab6d6d3 -->
<g id="node12" class="node">
<title>dd865d82&#45;617f&#45;40d0&#45;9c1e&#45;8beefab6d6d3</title>
<polygon fill="#76ee00" stroke="#76ee00" points="722.7402,-142.4019 595.9028,-142.4019 595.9028,-101.1981 722.7402,-101.1981 722.7402,-142.4019"/>
<text text-anchor="middle" x="659.3215" y="-126" font-family="Times,serif" font-size="14.00" fill="#000000">@Singleton</text>
<text text-anchor="middle" x="659.3215" y="-109.2" font-family="Times,serif" font-size="14.00" fill="#000000">EncryptionProvider</text>
</g>
<!-- ca5f9b24&#45;9435&#45;4d20&#45;bfed&#45;1430495acfe9&#45;&gt;dd865d82&#45;617f&#45;40d0&#45;9c1e&#45;8beefab6d6d3 -->
<g id="edge22" class="edge">
<title>ca5f9b24&#45;9435&#45;4d20&#45;bfed&#45;1430495acfe9&#45;&gt;dd865d82&#45;617f&#45;40d0&#45;9c1e&#45;8beefab6d6d3</title>
<path fill="none" stroke="#000000" d="M505.3212,-121.8C528.6713,-121.8 558.5236,-121.8 585.7178,-121.8"/>
<polygon fill="#000000" stroke="#000000" points="585.991,-125.3001 595.9909,-121.8 585.9909,-118.3001 585.991,-125.3001"/>
</g>
<!-- dd865d82&#45;617f&#45;40d0&#45;9c1e&#45;8beefab6d6d3&#45;&gt;d7e878fc&#45;b7d7&#45;45f1&#45;92e8&#45;7e9cc89db2d9 -->
<g id="edge12" class="edge">
<title>dd865d82&#45;617f&#45;40d0&#45;9c1e&#45;8beefab6d6d3&#45;&gt;d7e878fc&#45;b7d7&#45;45f1&#45;92e8&#45;7e9cc89db2d9</title>
<path fill="none" stroke="#000000" d="M708.2834,-142.4329C716.673,-146.7307 725.1022,-151.5642 732.6266,-156.8 751.8373,-170.1678 770.7387,-188.3952 785.04,-203.5333"/>
<polygon fill="#000000" stroke="#000000" points="782.7121,-206.1705 792.0767,-211.1259 787.8463,-201.4123 782.7121,-206.1705"/>
</g>
<!-- e7870db2&#45;9f58&#45;4515&#45;a346&#45;88f326b7d55b -->
<g id="node13" class="node">
<title>e7870db2&#45;9f58&#45;4515&#45;a346&#45;88f326b7d55b</title>
<polygon fill="#ffe4c4" stroke="#ffe4c4" points="158.8659,-378.2014 43.4603,-378.2014 43.4603,-319.3986 158.8659,-319.3986 158.8659,-378.2014"/>
<text text-anchor="middle" x="101.1631" y="-361.4" font-family="Times,serif" font-size="14.00" fill="#000000">@ServiceContext</text>
<text text-anchor="middle" x="101.1631" y="-344.6" font-family="Times,serif" font-size="14.00" fill="#000000">@PerService</text>
<text text-anchor="middle" x="101.1631" y="-327.8" font-family="Times,serif" font-size="14.00" fill="#000000">Context</text>
</g>
</g>
</svg>
