<svg width="1764px" height="958px"
 viewBox="0.00 0.00 1764.31 957.60" xmlns="http://www.w3.org/2000/svg" xmlns:xlink="http://www.w3.org/1999/xlink">
<g id="graph0" class="graph" transform="scale(1.0 1.0) rotate(0) translate(14.4 943.2)">
<title>org.owntracks.android.injection.modules.AndroidBindingModule → org.owntracks.android.injection.modules.AndroidBindingModule_BindLogViewerActivity.LogViewerActivitySubcomponent</title>
<polygon fill="#ffffff" stroke="transparent" points="-14.4,14.4 -14.4,-943.2 1749.9112,-943.2 1749.9112,14.4 -14.4,14.4"/>
<text text-anchor="middle" x="322.5653" y="-8.2" font-family="Times,serif" font-size="14.00" fill="#000000">AndroidBindingModule → AndroidBindingModule_BindLogViewerActivity.LogViewerActivitySubcomponent</text>
<g id="clust2" class="cluster">
<title>cluster_Dependency Graph</title>
<polygon fill="none" stroke="#000000" points="214.552,-44.8 214.552,-920.8 1727.5112,-920.8 1727.5112,-44.8 214.552,-44.8"/>
<text text-anchor="middle" x="276.7754" y="-904.2" font-family="Times,serif" font-size="14.00" fill="#000000">Dependency Graph</text>
</g>
<g id="clust3" class="cluster">
<title>cluster_Map&lt;Class&lt;?&gt;, Provider&lt;AndroidInjector.Factory&lt;?&gt;&gt;&gt;</title>
<path fill="none" stroke="#000000" d="M528.4998,-162.8C528.4998,-162.8 1707.5112,-162.8 1707.5112,-162.8 1713.5112,-162.8 1719.5112,-168.8 1719.5112,-174.8 1719.5112,-174.8 1719.5112,-875.8 1719.5112,-875.8 1719.5112,-881.8 1713.5112,-887.8 1707.5112,-887.8 1707.5112,-887.8 528.4998,-887.8 528.4998,-887.8 522.4998,-887.8 516.4998,-881.8 516.4998,-875.8 516.4998,-875.8 516.4998,-174.8 516.4998,-174.8 516.4998,-168.8 522.4998,-162.8 528.4998,-162.8"/>
<text text-anchor="middle" x="1118.0055" y="-871.2" font-family="Times,serif" font-size="14.00" fill="#000000">Map&lt;Class&lt;?&gt;, Provider&lt;AndroidInjector.Factory&lt;?&gt;&gt;&gt;</text>
</g>
<g id="clust1" class="cluster">
<title>cluster_Entry Points</title>
<polygon fill="none" stroke="#000000" points="8,-67.8 8,-144.8 193.552,-144.8 193.552,-67.8 8,-67.8"/>
<text text-anchor="middle" x="50.8061" y="-128.2" font-family="Times,serif" font-size="14.00" fill="#000000">Entry Points</text>
</g>
<!-- c93bb74e&#45;a683&#45;4c9b&#45;a738&#45;7b73a38b1a76 -->
<g id="node1" class="node">
<title>c93bb74e&#45;a683&#45;4c9b&#45;a738&#45;7b73a38b1a76</title>
<polygon fill="#40e0d0" stroke="#40e0d0" stroke-width="2" points="185.3286,-111.8 16.2234,-111.8 16.2234,-107.8 12.2234,-107.8 12.2234,-103.8 16.2234,-103.8 16.2234,-83.8 12.2234,-83.8 12.2234,-79.8 16.2234,-79.8 16.2234,-75.8 185.3286,-75.8 185.3286,-111.8"/>
<polyline fill="none" stroke="#40e0d0" stroke-width="2" points="16.2234,-107.8 20.2234,-107.8 20.2234,-103.8 16.2234,-103.8 "/>
<polyline fill="none" stroke="#40e0d0" stroke-width="2" points="16.2234,-83.8 20.2234,-83.8 20.2234,-79.8 16.2234,-79.8 "/>
<text text-anchor="middle" x="100.776" y="-89.6" font-family="Times,serif" font-size="14.00" fill="#000000">inject (LogViewerActivity)</text>
</g>
<!-- ab055c03&#45;70d4&#45;4e3b&#45;bdea&#45;9937ff14a0bf -->
<g id="node2" class="node">
<title>ab055c03&#45;70d4&#45;4e3b&#45;bdea&#45;9937ff14a0bf</title>
<polygon fill="#40e0d0" stroke="#40e0d0" points="449.4737,-340.8 222.5781,-340.8 222.5781,-304.8 449.4737,-304.8 449.4737,-340.8"/>
<text text-anchor="middle" x="336.0259" y="-318.6" font-family="Times,serif" font-size="14.00" fill="#000000">DispatchingAndroidInjector&lt;Object&gt;</text>
</g>
<!-- c93bb74e&#45;a683&#45;4c9b&#45;a738&#45;7b73a38b1a76&#45;&gt;ab055c03&#45;70d4&#45;4e3b&#45;bdea&#45;9937ff14a0bf -->
<g id="edge2" class="edge">
<title>c93bb74e&#45;a683&#45;4c9b&#45;a738&#45;7b73a38b1a76&#45;&gt;ab055c03&#45;70d4&#45;4e3b&#45;bdea&#45;9937ff14a0bf</title>
<path fill="none" stroke="#000000" d="M119.6298,-112.1529C161.545,-152.9546 262.5143,-251.2414 310.2259,-297.6854"/>
<polygon fill="#000000" stroke="#000000" points="307.8019,-300.2102 317.4088,-304.6775 312.6845,-295.1943 307.8019,-300.2102"/>
</g>
<!-- 42231a11&#45;dd5f&#45;422a&#45;80bc&#45;849c21306e3a -->
<g id="node3" class="node">
<title>42231a11&#45;dd5f&#45;422a&#45;80bc&#45;849c21306e3a</title>
<polygon fill="#40e0d0" stroke="#40e0d0" points="394.6073,-147.8 277.4445,-147.8 277.4445,-111.8 394.6073,-111.8 394.6073,-147.8"/>
<text text-anchor="middle" x="336.0259" y="-125.6" font-family="Times,serif" font-size="14.00" fill="#000000">NoOpViewModel</text>
</g>
<!-- c93bb74e&#45;a683&#45;4c9b&#45;a738&#45;7b73a38b1a76&#45;&gt;42231a11&#45;dd5f&#45;422a&#45;80bc&#45;849c21306e3a -->
<g id="edge3" class="edge">
<title>c93bb74e&#45;a683&#45;4c9b&#45;a738&#45;7b73a38b1a76&#45;&gt;42231a11&#45;dd5f&#45;422a&#45;80bc&#45;849c21306e3a</title>
<path fill="none" stroke="#000000" d="M185.3742,-106.746C212.2371,-110.8568 241.6009,-115.3503 267.2117,-119.2694"/>
<polygon fill="#000000" stroke="#000000" points="266.7833,-122.7445 277.1976,-120.7976 267.8422,-115.8251 266.7833,-122.7445"/>
</g>
<!-- cacafea5&#45;a9cf&#45;4a3e&#45;8532&#45;9105ee6e2013 -->
<g id="node4" class="node">
<title>cacafea5&#45;a9cf&#45;4a3e&#45;8532&#45;9105ee6e2013</title>
<polygon fill="#7fffd4" stroke="#7fffd4" points="747.2913,-94.4019 640.9459,-94.4019 640.9459,-53.1981 747.2913,-53.1981 747.2913,-94.4019"/>
<text text-anchor="middle" x="694.1186" y="-78" font-family="Times,serif" font-size="14.00" fill="#000000">@PerActivity</text>
<text text-anchor="middle" x="694.1186" y="-61.2" font-family="Times,serif" font-size="14.00" fill="#000000">DrawerProvider</text>
</g>
<!-- c93bb74e&#45;a683&#45;4c9b&#45;a738&#45;7b73a38b1a76&#45;&gt;cacafea5&#45;a9cf&#45;4a3e&#45;8532&#45;9105ee6e2013 -->
<g id="edge1" class="edge">
<title>c93bb74e&#45;a683&#45;4c9b&#45;a738&#45;7b73a38b1a76&#45;&gt;cacafea5&#45;a9cf&#45;4a3e&#45;8532&#45;9105ee6e2013</title>
<path fill="none" stroke="#000000" d="M185.4722,-90.9451C305.8244,-86.8884 523.6021,-79.5477 630.8956,-75.9311"/>
<polygon fill="#000000" stroke="#000000" points="631.0505,-79.4279 640.9269,-75.5929 630.8147,-72.4319 631.0505,-79.4279"/>
</g>
<!-- e9e431c6&#45;f044&#45;4cf7&#45;8c31&#45;44a4de2b8ca1 -->
<g id="node5" class="node">
<title>e9e431c6&#45;f044&#45;4cf7&#45;8c31&#45;44a4de2b8ca1</title>
<polygon fill="#76ee00" stroke="#76ee00" points="1494.3905,-94.4019 1412.2649,-94.4019 1412.2649,-53.1981 1494.3905,-53.1981 1494.3905,-94.4019"/>
<text text-anchor="middle" x="1453.3277" y="-78" font-family="Times,serif" font-size="14.00" fill="#000000">@Singleton</text>
<text text-anchor="middle" x="1453.3277" y="-61.2" font-family="Times,serif" font-size="14.00" fill="#000000">Preferences</text>
</g>
<!-- c93bb74e&#45;a683&#45;4c9b&#45;a738&#45;7b73a38b1a76&#45;&gt;e9e431c6&#45;f044&#45;4cf7&#45;8c31&#45;44a4de2b8ca1 -->
<g id="edge4" class="edge">
<title>c93bb74e&#45;a683&#45;4c9b&#45;a738&#45;7b73a38b1a76&#45;&gt;e9e431c6&#45;f044&#45;4cf7&#45;8c31&#45;44a4de2b8ca1</title>
<path fill="none" stroke="#000000" d="M138.088,-75.6711C183.6712,-55.2276 263.6696,-24.8 336.0259,-24.8 336.0259,-24.8 336.0259,-24.8 1132.1021,-24.8 1228.2914,-24.8 1338.849,-46.5373 1401.9637,-61.0557"/>
<polygon fill="#000000" stroke="#000000" points="1401.5191,-64.5459 1412.0527,-63.4084 1403.1088,-57.7288 1401.5191,-64.5459"/>
</g>
<!-- 298dfff1&#45;0f68&#45;41f3&#45;9b92&#45;17d67d7b578b -->
<g id="node10" class="node">
<title>298dfff1&#45;0f68&#45;41f3&#45;9b92&#45;17d67d7b578b</title>
<polygon fill="#40e0d0" stroke="#40e0d0" points="863.8563,-502.8 536.3809,-502.8 536.3809,-506.8 524.3809,-506.8 524.3809,-466.8 863.8563,-466.8 863.8563,-502.8"/>
<polyline fill="none" stroke="#40e0d0" points="524.3809,-502.8 536.3809,-502.8 "/>
<text text-anchor="middle" x="694.1186" y="-480.6" font-family="Times,serif" font-size="14.00" fill="#000000">Map&lt;Class&lt;?&gt;, Provider&lt;AndroidInjector.Factory&lt;?&gt;&gt;&gt;</text>
</g>
<!-- ab055c03&#45;70d4&#45;4e3b&#45;bdea&#45;9937ff14a0bf&#45;&gt;298dfff1&#45;0f68&#45;41f3&#45;9b92&#45;17d67d7b578b -->
<g id="edge5" class="edge">
<title>ab055c03&#45;70d4&#45;4e3b&#45;bdea&#45;9937ff14a0bf&#45;&gt;298dfff1&#45;0f68&#45;41f3&#45;9b92&#45;17d67d7b578b</title>
<path fill="none" stroke="#000000" d="M352.876,-341.1648C382.5608,-372.1848 447.5902,-434.3534 516.4998,-462.8 516.7062,-462.8852 516.9129,-462.9701 517.1198,-463.0547"/>
<polygon fill="#000000" stroke="#000000" points="515.9906,-466.3699 526.5815,-466.6604 518.4834,-459.8288 515.9906,-466.3699"/>
</g>
<!-- 8d9a207f&#45;a291&#45;410f&#45;9c12&#45;16385d61d7f8 -->
<g id="node6" class="node">
<title>8d9a207f&#45;a291&#45;410f&#45;9c12&#45;16385d61d7f8</title>
<polygon fill="#7fffd4" stroke="#7fffd4" points="741.0536,-154.4019 647.1836,-154.4019 647.1836,-113.1981 741.0536,-113.1981 741.0536,-154.4019"/>
<text text-anchor="middle" x="694.1186" y="-138" font-family="Times,serif" font-size="14.00" fill="#000000">@PerActivity</text>
<text text-anchor="middle" x="694.1186" y="-121.2" font-family="Times,serif" font-size="14.00" fill="#000000">Navigator</text>
</g>
<!-- 42231a11&#45;dd5f&#45;422a&#45;80bc&#45;849c21306e3a&#45;&gt;8d9a207f&#45;a291&#45;410f&#45;9c12&#45;16385d61d7f8 -->
<g id="edge6" class="edge">
<title>42231a11&#45;dd5f&#45;422a&#45;80bc&#45;849c21306e3a&#45;&gt;8d9a207f&#45;a291&#45;410f&#45;9c12&#45;16385d61d7f8</title>
<path fill="none" stroke="#000000" d="M394.7566,-130.456C461.8064,-131.205 570.7535,-132.422 637.0859,-133.1629"/>
<polygon fill="#000000" stroke="#000000" points="637.3146,-136.6656 647.3531,-133.2776 637.3928,-129.666 637.3146,-136.6656"/>
</g>
<!-- e78b172b&#45;6df4&#45;4d01&#45;b222&#45;7e2de01b24e7 -->
<g id="node7" class="node">
<title>e78b172b&#45;6df4&#45;4d01&#45;b222&#45;7e2de01b24e7</title>
<polygon fill="#7fffd4" stroke="#7fffd4" points="1069.2217,-154.4019 938.5757,-154.4019 938.5757,-113.1981 1069.2217,-113.1981 1069.2217,-154.4019"/>
<text text-anchor="middle" x="1003.8987" y="-138" font-family="Times,serif" font-size="14.00" fill="#000000">@PerActivity</text>
<text text-anchor="middle" x="1003.8987" y="-121.2" font-family="Times,serif" font-size="14.00" fill="#000000">AppCompatActivity</text>
</g>
<!-- cacafea5&#45;a9cf&#45;4a3e&#45;8532&#45;9105ee6e2013&#45;&gt;e78b172b&#45;6df4&#45;4d01&#45;b222&#45;7e2de01b24e7 -->
<g id="edge8" class="edge">
<title>cacafea5&#45;a9cf&#45;4a3e&#45;8532&#45;9105ee6e2013&#45;&gt;e78b172b&#45;6df4&#45;4d01&#45;b222&#45;7e2de01b24e7</title>
<path fill="none" stroke="#000000" d="M747.3059,-82.7042C780.7774,-88.4322 824.849,-96.2017 863.7374,-103.8 884.8212,-107.9195 907.624,-112.6722 928.5888,-117.1625"/>
<polygon fill="#000000" stroke="#000000" points="927.8846,-120.591 938.3971,-119.2726 929.3569,-113.7476 927.8846,-120.591"/>
</g>
<!-- f5d5b08c&#45;4412&#45;4ec0&#45;a9b3&#45;1a343ba03cbf -->
<g id="node9" class="node">
<title>f5d5b08c&#45;4412&#45;4ec0&#45;a9b3&#45;1a343ba03cbf</title>
<polygon fill="#76ee00" stroke="#76ee00" points="1044.9615,-94.4019 962.8359,-94.4019 962.8359,-53.1981 1044.9615,-53.1981 1044.9615,-94.4019"/>
<text text-anchor="middle" x="1003.8987" y="-78" font-family="Times,serif" font-size="14.00" fill="#000000">@Singleton</text>
<text text-anchor="middle" x="1003.8987" y="-61.2" font-family="Times,serif" font-size="14.00" fill="#000000">Scheduler</text>
</g>
<!-- cacafea5&#45;a9cf&#45;4a3e&#45;8532&#45;9105ee6e2013&#45;&gt;f5d5b08c&#45;4412&#45;4ec0&#45;a9b3&#45;1a343ba03cbf -->
<g id="edge7" class="edge">
<title>cacafea5&#45;a9cf&#45;4a3e&#45;8532&#45;9105ee6e2013&#45;&gt;f5d5b08c&#45;4412&#45;4ec0&#45;a9b3&#45;1a343ba03cbf</title>
<path fill="none" stroke="#000000" d="M747.3717,-73.8C804.859,-73.8 895.7893,-73.8 952.532,-73.8"/>
<polygon fill="#000000" stroke="#000000" points="952.7136,-77.3001 962.7135,-73.8 952.7135,-70.3001 952.7136,-77.3001"/>
</g>
<!-- 8d9a207f&#45;a291&#45;410f&#45;9c12&#45;16385d61d7f8&#45;&gt;e78b172b&#45;6df4&#45;4d01&#45;b222&#45;7e2de01b24e7 -->
<g id="edge23" class="edge">
<title>8d9a207f&#45;a291&#45;410f&#45;9c12&#45;16385d61d7f8&#45;&gt;e78b172b&#45;6df4&#45;4d01&#45;b222&#45;7e2de01b24e7</title>
<path fill="none" stroke="#000000" d="M741.1675,-133.8C790.8252,-133.8 869.8409,-133.8 928.2643,-133.8"/>
<polygon fill="#000000" stroke="#000000" points="928.5543,-137.3001 938.5542,-133.8 928.5542,-130.3001 928.5543,-137.3001"/>
</g>
<!-- 0f04343f&#45;6b4e&#45;447c&#45;86b2&#45;b81f9d9bfc92 -->
<g id="node8" class="node">
<title>0f04343f&#45;6b4e&#45;447c&#45;86b2&#45;b81f9d9bfc92</title>
<polygon fill="#40e0d0" stroke="#40e0d0" points="1580.4395,-151.8 1378.2331,-151.8 1326.2159,-115.8 1528.4223,-115.8 1580.4395,-151.8"/>
<text text-anchor="middle" x="1453.3277" y="-129.6" font-family="Times,serif" font-size="14.00" fill="#000000">LogViewerActivity</text>
</g>
<!-- e78b172b&#45;6df4&#45;4d01&#45;b222&#45;7e2de01b24e7&#45;&gt;0f04343f&#45;6b4e&#45;447c&#45;86b2&#45;b81f9d9bfc92 -->
<g id="edge24" class="edge">
<title>e78b172b&#45;6df4&#45;4d01&#45;b222&#45;7e2de01b24e7&#45;&gt;0f04343f&#45;6b4e&#45;447c&#45;86b2&#45;b81f9d9bfc92</title>
<path fill="none" stroke="#000000" stroke-dasharray="1,5" d="M1069.2495,-133.8C1140.6748,-133.8 1256.3552,-133.8 1342.1208,-133.8"/>
<polygon fill="#000000" stroke="#000000" points="1342.1629,-137.3001 1352.1629,-133.8 1342.1629,-130.3001 1342.1629,-137.3001"/>
<text text-anchor="middle" x="1132.1021" y="-138" font-family="Times,serif" font-size="14.00" fill="#000000">delegates</text>
</g>
<!-- f5d5b08c&#45;4412&#45;4ec0&#45;a9b3&#45;1a343ba03cbf&#45;&gt;e9e431c6&#45;f044&#45;4cf7&#45;8c31&#45;44a4de2b8ca1 -->
<g id="edge9" class="edge">
<title>f5d5b08c&#45;4412&#45;4ec0&#45;a9b3&#45;1a343ba03cbf&#45;&gt;e9e431c6&#45;f044&#45;4cf7&#45;8c31&#45;44a4de2b8ca1</title>
<path fill="none" stroke="#000000" d="M1044.974,-73.8C1127.2035,-73.8 1311.8597,-73.8 1401.9425,-73.8"/>
<polygon fill="#000000" stroke="#000000" points="1402.1857,-77.3001 1412.1857,-73.8 1402.1857,-70.3001 1402.1857,-77.3001"/>
</g>
<!-- 716ef239&#45;a200&#45;4c74&#45;ada2&#45;058bd9b067c5 -->
<g id="node11" class="node">
<title>716ef239&#45;a200&#45;4c74&#45;ada2&#45;058bd9b067c5</title>
<polygon fill="#40e0d0" stroke="#40e0d0" points="1671.9225,-206.8 1234.7329,-206.8 1234.7329,-170.8 1671.9225,-170.8 1671.9225,-206.8"/>
<text text-anchor="middle" x="1453.3277" y="-184.6" font-family="Times,serif" font-size="14.00" fill="#000000">AndroidBindingModule_BindEditorActivity.bindAndroidInjectorFactory()</text>
</g>
<!-- 298dfff1&#45;0f68&#45;41f3&#45;9b92&#45;17d67d7b578b&#45;&gt;716ef239&#45;a200&#45;4c74&#45;ada2&#45;058bd9b067c5 -->
<g id="edge14" class="edge">
<title>298dfff1&#45;0f68&#45;41f3&#45;9b92&#45;17d67d7b578b&#45;&gt;716ef239&#45;a200&#45;4c74&#45;ada2&#45;058bd9b067c5</title>
<path fill="none" stroke="#000000" d="M859.5705,-466.7752C860.9983,-465.5047 862.3883,-464.1803 863.7374,-462.8 899.1682,-426.5494 850.5477,-237.8 901.2374,-237.8 901.2374,-237.8 901.2374,-237.8 1132.1021,-237.8 1152.2438,-237.8 1158.8673,-241.2641 1177.1442,-232.8 1187.1294,-228.1759 1185.1444,-220.3924 1195.1442,-215.8 1204.688,-211.4171 1214.6335,-207.6083 1224.8286,-204.3056"/>
<polygon fill="#000000" stroke="#000000" points="1226.1371,-207.5655 1234.6748,-201.2919 1224.0883,-200.872 1226.1371,-207.5655"/>
</g>
<!-- 1f00f4a7&#45;df71&#45;4838&#45;ae9f&#45;1e01719fb3ad -->
<g id="node12" class="node">
<title>1f00f4a7&#45;df71&#45;4838&#45;ae9f&#45;1e01719fb3ad</title>
<polygon fill="#40e0d0" stroke="#40e0d0" points="1681.0678,-260.8 1225.5876,-260.8 1225.5876,-224.8 1681.0678,-224.8 1681.0678,-260.8"/>
<text text-anchor="middle" x="1453.3277" y="-238.6" font-family="Times,serif" font-size="14.00" fill="#000000">AndroidBindingModule_BindWelcomeActivity.bindAndroidInjectorFactory()</text>
</g>
<!-- 298dfff1&#45;0f68&#45;41f3&#45;9b92&#45;17d67d7b578b&#45;&gt;1f00f4a7&#45;df71&#45;4838&#45;ae9f&#45;1e01719fb3ad -->
<g id="edge10" class="edge">
<title>298dfff1&#45;0f68&#45;41f3&#45;9b92&#45;17d67d7b578b&#45;&gt;1f00f4a7&#45;df71&#45;4838&#45;ae9f&#45;1e01719fb3ad</title>
<path fill="none" stroke="#000000" d="M859.5188,-466.724C860.963,-465.4697 862.3702,-464.1624 863.7374,-462.8 893.9144,-432.7305 858.6366,-274.8 901.2374,-274.8 901.2374,-274.8 901.2374,-274.8 1132.1021,-274.8 1139.9311,-274.8 1202.1394,-268.7019 1269.7578,-261.8298"/>
<polygon fill="#000000" stroke="#000000" points="1270.1736,-265.3056 1279.7677,-260.8109 1269.4647,-258.3416 1270.1736,-265.3056"/>
</g>
<!-- 9b8cc54b&#45;9dc8&#45;4814&#45;9e46&#45;22a82fdd3f76 -->
<g id="node13" class="node">
<title>9b8cc54b&#45;9dc8&#45;4814&#45;9e46&#45;22a82fdd3f76</title>
<polygon fill="#40e0d0" stroke="#40e0d0" points="1686.4752,-314.8 1220.1802,-314.8 1220.1802,-278.8 1686.4752,-278.8 1686.4752,-314.8"/>
<text text-anchor="middle" x="1453.3277" y="-292.6" font-family="Times,serif" font-size="14.00" fill="#000000">AndroidBindingModule_BindConnectionActivity.bindAndroidInjectorFactory()</text>
</g>
<!-- 298dfff1&#45;0f68&#45;41f3&#45;9b92&#45;17d67d7b578b&#45;&gt;9b8cc54b&#45;9dc8&#45;4814&#45;9e46&#45;22a82fdd3f76 -->
<g id="edge18" class="edge">
<title>298dfff1&#45;0f68&#45;41f3&#45;9b92&#45;17d67d7b578b&#45;&gt;9b8cc54b&#45;9dc8&#45;4814&#45;9e46&#45;22a82fdd3f76</title>
<path fill="none" stroke="#000000" d="M858.9234,-466.7325C860.5671,-465.4786 862.1729,-464.1685 863.7374,-462.8 910.9311,-421.5197 838.5373,-326.8 901.2374,-326.8 901.2374,-326.8 901.2374,-326.8 1132.1021,-326.8 1161.4826,-326.8 1220.7289,-321.7618 1280.4286,-315.8148"/>
<polygon fill="#000000" stroke="#000000" points="1280.7979,-319.2954 1290.3982,-314.8139 1280.0986,-312.3304 1280.7979,-319.2954"/>
</g>
<!-- 5f61fc96&#45;f983&#45;4dd3&#45;bbeb&#45;554050c8d2ea -->
<g id="node14" class="node">
<title>5f61fc96&#45;f983&#45;4dd3&#45;bbeb&#45;554050c8d2ea</title>
<polygon fill="#40e0d0" stroke="#40e0d0" points="1671.6512,-368.8 1235.0042,-368.8 1235.0042,-332.8 1671.6512,-332.8 1671.6512,-368.8"/>
<text text-anchor="middle" x="1453.3277" y="-346.6" font-family="Times,serif" font-size="14.00" fill="#000000">AndroidBindingModule_BindStatusActivity.bindAndroidInjectorFactory()</text>
</g>
<!-- 298dfff1&#45;0f68&#45;41f3&#45;9b92&#45;17d67d7b578b&#45;&gt;5f61fc96&#45;f983&#45;4dd3&#45;bbeb&#45;554050c8d2ea -->
<g id="edge15" class="edge">
<title>298dfff1&#45;0f68&#45;41f3&#45;9b92&#45;17d67d7b578b&#45;&gt;5f61fc96&#45;f983&#45;4dd3&#45;bbeb&#45;554050c8d2ea</title>
<path fill="none" stroke="#000000" d="M857.7895,-466.7239C859.8134,-465.4784 861.7976,-464.1713 863.7374,-462.8 893.8446,-441.5159 864.3666,-388.8 901.2374,-388.8 901.2374,-388.8 901.2374,-388.8 1132.1021,-388.8 1160.5441,-388.8 1166.9744,-381.7259 1195.1442,-377.8 1214.8994,-375.0468 1235.5406,-372.4386 1256.1709,-370.0075"/>
<polygon fill="#000000" stroke="#000000" points="1256.7659,-373.462 1266.2938,-368.8285 1255.956,-366.509 1256.7659,-373.462"/>
</g>
<!-- 120c8e75&#45;304f&#45;4285&#45;83da&#45;979262ad0c55 -->
<g id="node15" class="node">
<title>120c8e75&#45;304f&#45;4285&#45;83da&#45;979262ad0c55</title>
<polygon fill="#40e0d0" stroke="#40e0d0" points="1677.3145,-422.8 1229.3409,-422.8 1229.3409,-386.8 1677.3145,-386.8 1677.3145,-422.8"/>
<text text-anchor="middle" x="1453.3277" y="-400.6" font-family="Times,serif" font-size="14.00" fill="#000000">AndroidBindingModule_BindRegionsActivity.bindAndroidInjectorFactory()</text>
</g>
<!-- 298dfff1&#45;0f68&#45;41f3&#45;9b92&#45;17d67d7b578b&#45;&gt;120c8e75&#45;304f&#45;4285&#45;83da&#45;979262ad0c55 -->
<g id="edge16" class="edge">
<title>298dfff1&#45;0f68&#45;41f3&#45;9b92&#45;17d67d7b578b&#45;&gt;120c8e75&#45;304f&#45;4285&#45;83da&#45;979262ad0c55</title>
<path fill="none" stroke="#000000" d="M854.229,-466.785C857.4534,-465.5358 860.6268,-464.209 863.7374,-462.8 883.9605,-453.6396 879.0363,-429.8 901.2374,-429.8 901.2374,-429.8 901.2374,-429.8 1132.1021,-429.8 1178.6131,-429.8 1228.7983,-427.1626 1275.3643,-423.6011"/>
<polygon fill="#000000" stroke="#000000" points="1275.8572,-427.0733 1285.5533,-422.8029 1275.3105,-420.0947 1275.8572,-427.0733"/>
</g>
<!-- f8a3e4ad&#45;f5b1&#45;40b2&#45;850a&#45;4314b970fc0e -->
<g id="node16" class="node">
<title>f8a3e4ad&#45;f5b1&#45;40b2&#45;850a&#45;4314b970fc0e</title>
<polygon fill="#40e0d0" stroke="#40e0d0" points="1711.6948,-476.8 1194.9606,-476.8 1194.9606,-440.8 1711.6948,-440.8 1711.6948,-476.8"/>
<text text-anchor="middle" x="1453.3277" y="-454.6" font-family="Times,serif" font-size="14.00" fill="#000000">AndroidBindingModule_BindBackgroundServiceReceiver.bindAndroidInjectorFactory()</text>
</g>
<!-- 298dfff1&#45;0f68&#45;41f3&#45;9b92&#45;17d67d7b578b&#45;&gt;f8a3e4ad&#45;f5b1&#45;40b2&#45;850a&#45;4314b970fc0e -->
<g id="edge21" class="edge">
<title>298dfff1&#45;0f68&#45;41f3&#45;9b92&#45;17d67d7b578b&#45;&gt;f8a3e4ad&#45;f5b1&#45;40b2&#45;850a&#45;4314b970fc0e</title>
<path fill="none" stroke="#000000" d="M863.8428,-467.6561C876.4863,-467.1129 889.0558,-466.8 901.2374,-466.8 901.2374,-466.8 901.2374,-466.8 1132.1021,-466.8 1149.1233,-466.8 1166.6502,-466.6864 1184.3205,-466.4862"/>
<polygon fill="#000000" stroke="#000000" points="1184.782,-469.9809 1194.7383,-466.3585 1184.6962,-462.9814 1184.782,-469.9809"/>
</g>
<!-- 1384f72d&#45;a540&#45;4b45&#45;9db1&#45;c29bf64627c4 -->
<g id="node17" class="node">
<title>1384f72d&#45;a540&#45;4b45&#45;9db1&#45;c29bf64627c4</title>
<polygon fill="#40e0d0" stroke="#40e0d0" points="1686.4487,-530.8 1220.2067,-530.8 1220.2067,-494.8 1686.4487,-494.8 1686.4487,-530.8"/>
<text text-anchor="middle" x="1453.3277" y="-508.6" font-family="Times,serif" font-size="14.00" fill="#000000">AndroidBindingModule_BindBackgroundService.bindAndroidInjectorFactory()</text>
</g>
<!-- 298dfff1&#45;0f68&#45;41f3&#45;9b92&#45;17d67d7b578b&#45;&gt;1384f72d&#45;a540&#45;4b45&#45;9db1&#45;c29bf64627c4 -->
<g id="edge11" class="edge">
<title>298dfff1&#45;0f68&#45;41f3&#45;9b92&#45;17d67d7b578b&#45;&gt;1384f72d&#45;a540&#45;4b45&#45;9db1&#45;c29bf64627c4</title>
<path fill="none" stroke="#000000" d="M861.8633,-502.8052C875.1723,-503.4346 888.4187,-503.8 901.2374,-503.8 901.2374,-503.8 901.2374,-503.8 1132.1021,-503.8 1157.3319,-503.8 1183.672,-504.0809 1209.9428,-504.5433"/>
<polygon fill="#000000" stroke="#000000" points="1209.9425,-508.0438 1220.0055,-504.7293 1210.0719,-501.045 1209.9425,-508.0438"/>
</g>
<!-- 309c4f7c&#45;911e&#45;401c&#45;8cb4&#45;015a7e9fbd74 -->
<g id="node18" class="node">
<title>309c4f7c&#45;911e&#45;401c&#45;8cb4&#45;015a7e9fbd74</title>
<polygon fill="#40e0d0" stroke="#40e0d0" points="1674.3701,-584.8 1232.2853,-584.8 1232.2853,-548.8 1674.3701,-548.8 1674.3701,-584.8"/>
<text text-anchor="middle" x="1453.3277" y="-562.6" font-family="Times,serif" font-size="14.00" fill="#000000">AndroidBindingModule_BindRegionActivity.bindAndroidInjectorFactory()</text>
</g>
<!-- 298dfff1&#45;0f68&#45;41f3&#45;9b92&#45;17d67d7b578b&#45;&gt;309c4f7c&#45;911e&#45;401c&#45;8cb4&#45;015a7e9fbd74 -->
<g id="edge20" class="edge">
<title>298dfff1&#45;0f68&#45;41f3&#45;9b92&#45;17d67d7b578b&#45;&gt;309c4f7c&#45;911e&#45;401c&#45;8cb4&#45;015a7e9fbd74</title>
<path fill="none" stroke="#000000" d="M729.7514,-502.9686C770.222,-521.8898 838.7622,-548.8 901.2374,-548.8 901.2374,-548.8 901.2374,-548.8 1132.1021,-548.8 1161.2082,-548.8 1191.7746,-549.5458 1222.0008,-550.7338"/>
<polygon fill="#000000" stroke="#000000" points="1222.1009,-554.2407 1232.2358,-551.1532 1222.3875,-547.2466 1222.1009,-554.2407"/>
</g>
<!-- 83dddd37&#45;6a97&#45;4ef7&#45;896b&#45;cb292fe5e2f2 -->
<g id="node19" class="node">
<title>83dddd37&#45;6a97&#45;4ef7&#45;896b&#45;cb292fe5e2f2</title>
<polygon fill="#40e0d0" stroke="#40e0d0" points="1667.0874,-638.8 1239.568,-638.8 1239.568,-602.8 1667.0874,-602.8 1667.0874,-638.8"/>
<text text-anchor="middle" x="1453.3277" y="-616.6" font-family="Times,serif" font-size="14.00" fill="#000000">AndroidBindingModule_BindMapActivity.bindAndroidInjectorFactory()</text>
</g>
<!-- 298dfff1&#45;0f68&#45;41f3&#45;9b92&#45;17d67d7b578b&#45;&gt;83dddd37&#45;6a97&#45;4ef7&#45;896b&#45;cb292fe5e2f2 -->
<g id="edge13" class="edge">
<title>298dfff1&#45;0f68&#45;41f3&#45;9b92&#45;17d67d7b578b&#45;&gt;83dddd37&#45;6a97&#45;4ef7&#45;896b&#45;cb292fe5e2f2</title>
<path fill="none" stroke="#000000" d="M711.9683,-502.8636C745.7314,-535.0085 822.6361,-598.8 901.2374,-598.8 901.2374,-598.8 901.2374,-598.8 1132.1021,-598.8 1167.6132,-598.8 1205.2811,-600.1548 1241.8485,-602.1919"/>
<polygon fill="#000000" stroke="#000000" points="1241.9457,-605.7032 1252.1305,-602.784 1242.3483,-598.7148 1241.9457,-605.7032"/>
</g>
<!-- 43d29c3a&#45;e833&#45;420d&#45;9817&#45;9c2d7021d8e3 -->
<g id="node20" class="node">
<title>43d29c3a&#45;e833&#45;420d&#45;9817&#45;9c2d7021d8e3</title>
<polygon fill="#40e0d0" stroke="#40e0d0" points="1687.2103,-692.8 1219.4451,-692.8 1219.4451,-656.8 1687.2103,-656.8 1687.2103,-692.8"/>
<text text-anchor="middle" x="1453.3277" y="-670.6" font-family="Times,serif" font-size="14.00" fill="#000000">AndroidBindingModule_BindPreferencesActivity.bindAndroidInjectorFactory()</text>
</g>
<!-- 298dfff1&#45;0f68&#45;41f3&#45;9b92&#45;17d67d7b578b&#45;&gt;43d29c3a&#45;e833&#45;420d&#45;9817&#45;9c2d7021d8e3 -->
<g id="edge17" class="edge">
<title>298dfff1&#45;0f68&#45;41f3&#45;9b92&#45;17d67d7b578b&#45;&gt;43d29c3a&#45;e833&#45;420d&#45;9817&#45;9c2d7021d8e3</title>
<path fill="none" stroke="#000000" d="M704.8463,-502.8809C731.8957,-545.9045 807.4606,-650.8 901.2374,-650.8 901.2374,-650.8 901.2374,-650.8 1132.1021,-650.8 1175.4239,-650.8 1221.941,-652.9976 1265.7528,-656.0628"/>
<polygon fill="#000000" stroke="#000000" points="1265.7139,-659.569 1275.9389,-656.7943 1266.2153,-652.5869 1265.7139,-659.569"/>
</g>
<!-- 3b55c62d&#45;98ca&#45;444f&#45;81e6&#45;b15cfa94fc99 -->
<g id="node21" class="node">
<title>3b55c62d&#45;98ca&#45;444f&#45;81e6&#45;b15cfa94fc99</title>
<polygon fill="#40e0d0" stroke="#40e0d0" points="1668.6953,-746.8 1237.9601,-746.8 1237.9601,-710.8 1668.6953,-710.8 1668.6953,-746.8"/>
<text text-anchor="middle" x="1453.3277" y="-724.6" font-family="Times,serif" font-size="14.00" fill="#000000">AndroidBindingModule_BindLoadActivity.bindAndroidInjectorFactory()</text>
</g>
<!-- 298dfff1&#45;0f68&#45;41f3&#45;9b92&#45;17d67d7b578b&#45;&gt;3b55c62d&#45;98ca&#45;444f&#45;81e6&#45;b15cfa94fc99 -->
<g id="edge19" class="edge">
<title>298dfff1&#45;0f68&#45;41f3&#45;9b92&#45;17d67d7b578b&#45;&gt;3b55c62d&#45;98ca&#45;444f&#45;81e6&#45;b15cfa94fc99</title>
<path fill="none" stroke="#000000" d="M700.9817,-503.0951C722.0425,-555.7296 791.0799,-703.8 901.2374,-703.8 901.2374,-703.8 901.2374,-703.8 1132.1021,-703.8 1178.6131,-703.8 1228.7983,-706.4374 1275.3643,-709.9989"/>
<polygon fill="#000000" stroke="#000000" points="1275.3105,-713.5053 1285.5533,-710.7971 1275.8572,-706.5267 1275.3105,-713.5053"/>
</g>
<!-- 26ba4a8e&#45;a90d&#45;4491&#45;97aa&#45;ce2d9825d4a0 -->
<g id="node22" class="node">
<title>26ba4a8e&#45;a90d&#45;4491&#45;97aa&#45;ce2d9825d4a0</title>
<polygon fill="#40e0d0" stroke="#40e0d0" points="1678.9197,-800.8 1227.7357,-800.8 1227.7357,-764.8 1678.9197,-764.8 1678.9197,-800.8"/>
<text text-anchor="middle" x="1453.3277" y="-778.6" font-family="Times,serif" font-size="14.00" fill="#000000">AndroidBindingModule_BindContactsActivity.bindAndroidInjectorFactory()</text>
</g>
<!-- 298dfff1&#45;0f68&#45;41f3&#45;9b92&#45;17d67d7b578b&#45;&gt;26ba4a8e&#45;a90d&#45;4491&#45;97aa&#45;ce2d9825d4a0 -->
<g id="edge12" class="edge">
<title>298dfff1&#45;0f68&#45;41f3&#45;9b92&#45;17d67d7b578b&#45;&gt;26ba4a8e&#45;a90d&#45;4491&#45;97aa&#45;ce2d9825d4a0</title>
<path fill="none" stroke="#000000" d="M698.7168,-502.9458C715.0299,-562.5909 775.9885,-748.8 901.2374,-748.8 901.2374,-748.8 901.2374,-748.8 1132.1021,-748.8 1160.293,-748.8 1167.1157,-752.7784 1195.1442,-755.8 1219.2742,-758.4014 1244.677,-761.103 1269.7495,-763.7477"/>
<polygon fill="#000000" stroke="#000000" points="1269.4011,-767.2303 1279.7128,-764.7975 1270.1347,-760.2688 1269.4011,-767.2303"/>
</g>
<!-- a754caa2&#45;bea7&#45;46bc&#45;abad&#45;0f0d0d40e3b8 -->
<g id="node23" class="node">
<title>a754caa2&#45;bea7&#45;46bc&#45;abad&#45;0f0d0d40e3b8</title>
<polygon fill="#40e0d0" stroke="#40e0d0" points="1686.1743,-854.8 1220.4811,-854.8 1220.4811,-818.8 1686.1743,-818.8 1686.1743,-854.8"/>
<text text-anchor="middle" x="1453.3277" y="-832.6" font-family="Times,serif" font-size="14.00" fill="#000000">AndroidBindingModule_BindLogViewerActivity.bindAndroidInjectorFactory()</text>
</g>
<!-- 298dfff1&#45;0f68&#45;41f3&#45;9b92&#45;17d67d7b578b&#45;&gt;a754caa2&#45;bea7&#45;46bc&#45;abad&#45;0f0d0d40e3b8 -->
<g id="edge22" class="edge">
<title>298dfff1&#45;0f68&#45;41f3&#45;9b92&#45;17d67d7b578b&#45;&gt;a754caa2&#45;bea7&#45;46bc&#45;abad&#45;0f0d0d40e3b8</title>
<path fill="none" stroke="#000000" d="M696.4157,-503.233C706.2628,-573.2525 751.4719,-818.8 901.2374,-818.8 901.2374,-818.8 901.2374,-818.8 1132.1021,-818.8 1157.3616,-818.8 1183.7209,-819.3617 1210.0032,-820.2867"/>
<polygon fill="#000000" stroke="#000000" points="1209.9475,-823.7869 1220.0699,-820.6585 1210.2059,-816.7917 1209.9475,-823.7869"/>
</g>
</g>
</svg>
