<svg width="2311px" height="342px"
 viewBox="0.00 0.00 2311.03 341.60" xmlns="http://www.w3.org/2000/svg" xmlns:xlink="http://www.w3.org/1999/xlink">
<g id="graph0" class="graph" transform="scale(1.0 1.0) rotate(0) translate(14.4 327.2)">
<title>org.owntracks.android.ui.preferences.PreferencesActivityModule_BindAdvancedPreferencesFragment</title>
<polygon fill="#ffffff" stroke="transparent" points="-14.4,14.4 -14.4,-327.2 2296.6296,-327.2 2296.6296,14.4 -14.4,14.4"/>
<text text-anchor="middle" x="190.3143" y="-8.2" font-family="Times,serif" font-size="14.00" fill="#000000">PreferencesActivityModule_BindAdvancedPreferencesFragment</text>
<g id="clust4" class="cluster">
<title>cluster_Subcomponents</title>
<polygon fill="none" stroke="#000000" points="1679.704,-191.8 1679.704,-274.8 2274.2296,-274.8 2274.2296,-191.8 1679.704,-191.8"/>
<text text-anchor="middle" x="1732.4228" y="-258.2" font-family="Times,serif" font-size="14.00" fill="#000000">Subcomponents</text>
</g>
<g id="clust2" class="cluster">
<title>cluster_Dependency Graph</title>
<polygon fill="none" stroke="#000000" points="8,-32.8 8,-304.8 1578.049,-304.8 1578.049,-32.8 8,-32.8"/>
<text text-anchor="middle" x="70.2234" y="-288.2" font-family="Times,serif" font-size="14.00" fill="#000000">Dependency Graph</text>
</g>
<g id="clust3" class="cluster">
<title>cluster_Map&lt;Class&lt;?&gt;, AndroidInjector.Factory&lt;?&gt;&gt;</title>
<path fill="none" stroke="#000000" d="M116.8863,-194.8C116.8863,-194.8 1183.3048,-194.8 1183.3048,-194.8 1189.3048,-194.8 1195.3048,-200.8 1195.3048,-206.8 1195.3048,-206.8 1195.3048,-259.8 1195.3048,-259.8 1195.3048,-265.8 1189.3048,-271.8 1183.3048,-271.8 1183.3048,-271.8 116.8863,-271.8 116.8863,-271.8 110.8863,-271.8 104.8863,-265.8 104.8863,-259.8 104.8863,-259.8 104.8863,-206.8 104.8863,-206.8 104.8863,-200.8 110.8863,-194.8 116.8863,-194.8"/>
<text text-anchor="middle" x="650.0955" y="-255.2" font-family="Times,serif" font-size="14.00" fill="#000000">Map&lt;Class&lt;?&gt;, AndroidInjector.Factory&lt;?&gt;&gt;</text>
</g>
<!-- 17a8c014&#45;7e20&#45;42e6&#45;8b86&#45;d76f522fabcc -->
<g id="node1" class="node">
<title>17a8c014&#45;7e20&#45;42e6&#45;8b86&#45;d76f522fabcc</title>
<polygon fill="#40e0d0" stroke="#40e0d0" points="1187.4513,-238.8 635.8655,-238.8 635.8655,-202.8 1187.4513,-202.8 1187.4513,-238.8"/>
<text text-anchor="middle" x="911.6584" y="-216.6" font-family="Times,serif" font-size="14.00" fill="#000000">PreferencesActivityModule_BindAdvancedPreferencesFragment.bindAndroidInjectorFactory()</text>
</g>
<!-- 00263910&#45;5129&#45;4666&#45;9eeb&#45;e10b2f6ba466 -->
<g id="node2" class="node">
<title>00263910&#45;5129&#45;4666&#45;9eeb&#45;e10b2f6ba466</title>
<polygon fill="#40e0d0" stroke="#40e0d0" points="1569.8792,-249.4014 1313.5588,-249.4014 1313.5588,-192.1986 1569.8792,-192.1986 1569.8792,-249.4014"/>
<text text-anchor="middle" x="1441.719" y="-233" font-family="Times,serif" font-size="14.00" fill="#000000">AdvancedFragmentSubcomponent.Factory</text>
<text text-anchor="middle" x="1441.719" y="-200.2" font-family="Times,serif" font-size="14.00" fill="#000000">Subcomponent Creator</text>
</g>
<!-- 17a8c014&#45;7e20&#45;42e6&#45;8b86&#45;d76f522fabcc&#45;&gt;00263910&#45;5129&#45;4666&#45;9eeb&#45;e10b2f6ba466 -->
<g id="edge2" class="edge">
<title>17a8c014&#45;7e20&#45;42e6&#45;8b86&#45;d76f522fabcc&#45;&gt;00263910&#45;5129&#45;4666&#45;9eeb&#45;e10b2f6ba466</title>
<path fill="none" stroke="#000000" stroke-dasharray="1,5" d="M1187.5564,-220.8C1227.7951,-220.8 1267.6992,-220.8 1303.5501,-220.8"/>
<polygon fill="#000000" stroke="#000000" points="1303.5514,-224.3001 1313.5514,-220.8 1303.5513,-217.3001 1303.5514,-224.3001"/>
<text text-anchor="middle" x="1250.3469" y="-225" font-family="Times,serif" font-size="14.00" fill="#000000">delegates</text>
</g>
<!-- 7ad11beb&#45;34f9&#45;4f7b&#45;a3b4&#45;903968220017 -->
<g id="node7" class="node">
<title>7ad11beb&#45;34f9&#45;4f7b&#45;a3b4&#45;903968220017</title>
<g id="a_node7"><a xlink:href="full_org.owntracks.android.ui.preferences.PreferencesActivityModule_BindAdvancedPreferencesFragment.AdvancedFragmentSubcomponent.svg" xlink:title="@PerFragment\nPreferencesActivityModule_BindAdvancedPreferencesFragment.AdvancedFragmentSubcomponent">
<polygon fill="#7fffd4" stroke="#7fffd4" points="2265.9926,-241.4019 1687.941,-241.4019 1687.941,-200.1981 2265.9926,-200.1981 2265.9926,-241.4019"/>
<text text-anchor="middle" x="1976.9668" y="-225" font-family="Times,serif" font-size="14.00" fill="#000000">@PerFragment</text>
<text text-anchor="middle" x="1976.9668" y="-208.2" font-family="Times,serif" font-size="14.00" fill="#000000">PreferencesActivityModule_BindAdvancedPreferencesFragment.AdvancedFragmentSubcomponent</text>
</a>
</g>
</g>
<!-- 00263910&#45;5129&#45;4666&#45;9eeb&#45;e10b2f6ba466&#45;&gt;7ad11beb&#45;34f9&#45;4f7b&#45;a3b4&#45;903968220017 -->
<g id="edge3" class="edge">
<title>00263910&#45;5129&#45;4666&#45;9eeb&#45;e10b2f6ba466&#45;&gt;7ad11beb&#45;34f9&#45;4f7b&#45;a3b4&#45;903968220017:w</title>
<path fill="none" stroke="#000000" stroke-dasharray="5,2" d="M1570.1618,-220.8C1604.6893,-220.8 1642.2578,-220.8 1677.578,-220.8"/>
<polygon fill="#000000" stroke="#000000" points="1677.9668,-224.3001 1687.9668,-220.8 1677.9668,-217.3001 1677.9668,-224.3001"/>
<text text-anchor="middle" x="1628.8765" y="-225" font-family="Times,serif" font-size="14.00" fill="#000000">subcomponent</text>
</g>
<!-- 675a5f12&#45;ac88&#45;442b&#45;a44b&#45;8fd899e597e0 -->
<g id="node3" class="node">
<title>675a5f12&#45;ac88&#45;442b&#45;a44b&#45;8fd899e597e0</title>
<polygon fill="#ff3030" stroke="#ff3030" points="485.018,-184.8 15.994,-184.8 15.994,-148.8 485.018,-148.8 485.018,-184.8"/>
<text text-anchor="middle" x="250.506" y="-162.6" font-family="Times,serif" font-size="14.00" fill="#000000">@org.owntracks.android.injection.qualifier.AppContext android.content.Context</text>
</g>
<!-- 6dc200b4&#45;b093&#45;4c6d&#45;b6a5&#45;1d8624f5e1ad -->
<g id="node4" class="node">
<title>6dc200b4&#45;b093&#45;4c6d&#45;b6a5&#45;1d8624f5e1ad</title>
<polygon fill="#ff3030" stroke="#ff3030" points="355.511,-130.8 145.501,-130.8 145.501,-94.8 355.511,-94.8 355.511,-130.8"/>
<text text-anchor="middle" x="250.506" y="-108.6" font-family="Times,serif" font-size="14.00" fill="#000000">org.greenrobot.eventbus.EventBus</text>
</g>
<!-- 8b72e15f&#45;e98e&#45;4b46&#45;8c5d&#45;2ce934b469d3 -->
<g id="node5" class="node">
<title>8b72e15f&#45;e98e&#45;4b46&#45;8c5d&#45;2ce934b469d3</title>
<polygon fill="#ff3030" stroke="#ff3030" points="427.2897,-76.8 73.7223,-76.8 73.7223,-40.8 427.2897,-40.8 427.2897,-76.8"/>
<text text-anchor="middle" x="250.506" y="-54.6" font-family="Times,serif" font-size="14.00" fill="#000000">org.owntracks.android.support.preferences.PreferencesStore</text>
</g>
<!-- 5dc512aa&#45;c556&#45;49fb&#45;92a9&#45;b92b6e3b1b5e -->
<g id="node6" class="node">
<title>5dc512aa&#45;c556&#45;49fb&#45;92a9&#45;b92b6e3b1b5e</title>
<polygon fill="#40e0d0" stroke="#40e0d0" points="388.2455,-238.8 124.7665,-238.8 124.7665,-242.8 112.7665,-242.8 112.7665,-202.8 388.2455,-202.8 388.2455,-238.8"/>
<polyline fill="none" stroke="#40e0d0" points="112.7665,-238.8 124.7665,-238.8 "/>
<text text-anchor="middle" x="250.506" y="-216.6" font-family="Times,serif" font-size="14.00" fill="#000000">Map&lt;Class&lt;?&gt;, AndroidInjector.Factory&lt;?&gt;&gt;</text>
</g>
<!-- 5dc512aa&#45;c556&#45;49fb&#45;92a9&#45;b92b6e3b1b5e&#45;&gt;17a8c014&#45;7e20&#45;42e6&#45;8b86&#45;d76f522fabcc -->
<g id="edge1" class="edge">
<title>5dc512aa&#45;c556&#45;49fb&#45;92a9&#45;b92b6e3b1b5e&#45;&gt;17a8c014&#45;7e20&#45;42e6&#45;8b86&#45;d76f522fabcc</title>
<path fill="none" stroke="#000000" d="M388.1844,-220.8C431.2031,-220.8 478.8305,-220.8 522.512,-220.8 522.512,-220.8 522.512,-220.8 598.512,-220.8 607.4951,-220.8 616.6231,-220.8 625.84,-220.8"/>
<polygon fill="#000000" stroke="#000000" points="625.8735,-224.3001 635.8734,-220.8 625.8734,-217.3001 625.8735,-224.3001"/>
</g>
</g>
</svg>
