<svg width="2362px" height="1232px"
 viewBox="0.00 0.00 2361.85 1231.60" xmlns="http://www.w3.org/2000/svg" xmlns:xlink="http://www.w3.org/1999/xlink">
<g id="graph0" class="graph" transform="scale(1.0 1.0) rotate(0) translate(14.4 1217.2)">
<title>org.owntracks.android.injection.modules.AndroidBindingModule → org.owntracks.android.injection.modules.AndroidBindingModule_BindConnectionActivity.ConnectionActivitySubcomponent</title>
<polygon fill="#ffffff" stroke="transparent" points="-14.4,14.4 -14.4,-1217.2 2347.4455,-1217.2 2347.4455,14.4 -14.4,14.4"/>
<text text-anchor="middle" x="323.3661" y="-8.2" font-family="Times,serif" font-size="14.00" fill="#000000">AndroidBindingModule → AndroidBindingModule_BindConnectionActivity.ConnectionActivitySubcomponent</text>
<g id="clust2" class="cluster">
<title>cluster_Dependency Graph</title>
<polygon fill="none" stroke="#000000" points="215.3528,-44.8 215.3528,-1194.8 2325.0455,-1194.8 2325.0455,-44.8 215.3528,-44.8"/>
<text text-anchor="middle" x="277.5762" y="-1178.2" font-family="Times,serif" font-size="14.00" fill="#000000">Dependency Graph</text>
</g>
<g id="clust3" class="cluster">
<title>cluster_Map&lt;Class&lt;?&gt;, Provider&lt;AndroidInjector.Factory&lt;?&gt;&gt;&gt;</title>
<path fill="none" stroke="#000000" d="M529.5519,-436.8C529.5519,-436.8 1725.9072,-436.8 1725.9072,-436.8 1731.9072,-436.8 1737.9072,-442.8 1737.9072,-448.8 1737.9072,-448.8 1737.9072,-1149.8 1737.9072,-1149.8 1737.9072,-1155.8 1731.9072,-1161.8 1725.9072,-1161.8 1725.9072,-1161.8 529.5519,-1161.8 529.5519,-1161.8 523.5519,-1161.8 517.5519,-1155.8 517.5519,-1149.8 517.5519,-1149.8 517.5519,-448.8 517.5519,-448.8 517.5519,-442.8 523.5519,-436.8 529.5519,-436.8"/>
<text text-anchor="middle" x="1127.7295" y="-1145.2" font-family="Times,serif" font-size="14.00" fill="#000000">Map&lt;Class&lt;?&gt;, Provider&lt;AndroidInjector.Factory&lt;?&gt;&gt;&gt;</text>
</g>
<g id="clust1" class="cluster">
<title>cluster_Entry Points</title>
<polygon fill="none" stroke="#000000" points="8,-137.8 8,-214.8 194.3528,-214.8 194.3528,-137.8 8,-137.8"/>
<text text-anchor="middle" x="50.8061" y="-198.2" font-family="Times,serif" font-size="14.00" fill="#000000">Entry Points</text>
</g>
<!-- 2c21b231&#45;e152&#45;4415&#45;8201&#45;d6e386a0ffcd -->
<g id="node1" class="node">
<title>2c21b231&#45;e152&#45;4415&#45;8201&#45;d6e386a0ffcd</title>
<polygon fill="#40e0d0" stroke="#40e0d0" stroke-width="2" points="186.5296,-181.8 15.8232,-181.8 15.8232,-177.8 11.8232,-177.8 11.8232,-173.8 15.8232,-173.8 15.8232,-153.8 11.8232,-153.8 11.8232,-149.8 15.8232,-149.8 15.8232,-145.8 186.5296,-145.8 186.5296,-181.8"/>
<polyline fill="none" stroke="#40e0d0" stroke-width="2" points="15.8232,-177.8 19.8232,-177.8 19.8232,-173.8 15.8232,-173.8 "/>
<polyline fill="none" stroke="#40e0d0" stroke-width="2" points="15.8232,-153.8 19.8232,-153.8 19.8232,-149.8 15.8232,-149.8 "/>
<text text-anchor="middle" x="101.1764" y="-159.6" font-family="Times,serif" font-size="14.00" fill="#000000">inject (ConnectionActivity)</text>
</g>
<!-- 51460647&#45;366b&#45;4857&#45;96be&#45;c3fc10014c99 -->
<g id="node2" class="node">
<title>51460647&#45;366b&#45;4857&#45;96be&#45;c3fc10014c99</title>
<polygon fill="#40e0d0" stroke="#40e0d0" points="450.2745,-373.8 223.3789,-373.8 223.3789,-337.8 450.2745,-337.8 450.2745,-373.8"/>
<text text-anchor="middle" x="336.8267" y="-351.6" font-family="Times,serif" font-size="14.00" fill="#000000">DispatchingAndroidInjector&lt;Object&gt;</text>
</g>
<!-- 2c21b231&#45;e152&#45;4415&#45;8201&#45;d6e386a0ffcd&#45;&gt;51460647&#45;366b&#45;4857&#45;96be&#45;c3fc10014c99 -->
<g id="edge6" class="edge">
<title>2c21b231&#45;e152&#45;4415&#45;8201&#45;d6e386a0ffcd&#45;&gt;51460647&#45;366b&#45;4857&#45;96be&#45;c3fc10014c99</title>
<path fill="none" stroke="#000000" d="M119.9879,-182.1422C142.1565,-203.4691 180.4079,-239.3755 215.3528,-267.8 243.5444,-290.7313 277.096,-314.811 301.7871,-331.9732"/>
<polygon fill="#000000" stroke="#000000" points="299.9124,-334.9321 310.1279,-337.742 303.8943,-329.175 299.9124,-334.9321"/>
</g>
<!-- 98c24717&#45;b1ef&#45;4023&#45;8cea&#45;b67082e4a349 -->
<g id="node3" class="node">
<title>98c24717&#45;b1ef&#45;4023&#45;8cea&#45;b67082e4a349</title>
<polygon fill="#40e0d0" stroke="#40e0d0" points="864.911,-88.8 525.4304,-88.8 525.4304,-52.8 864.911,-52.8 864.911,-88.8"/>
<text text-anchor="middle" x="695.1707" y="-66.6" font-family="Times,serif" font-size="14.00" fill="#000000">ConnectionMvvm.ViewModel&lt;ConnectionMvvm.View&gt;</text>
</g>
<!-- 2c21b231&#45;e152&#45;4415&#45;8201&#45;d6e386a0ffcd&#45;&gt;98c24717&#45;b1ef&#45;4023&#45;8cea&#45;b67082e4a349 -->
<g id="edge1" class="edge">
<title>2c21b231&#45;e152&#45;4415&#45;8201&#45;d6e386a0ffcd&#45;&gt;98c24717&#45;b1ef&#45;4023&#45;8cea&#45;b67082e4a349</title>
<path fill="none" stroke="#000000" d="M176.2237,-145.7544C189.2316,-142.9007 202.655,-140.1279 215.3528,-137.8 320.2197,-118.5744 438.8734,-101.9615 531.9513,-90.0875"/>
<polygon fill="#000000" stroke="#000000" points="532.5428,-93.5406 542.0221,-88.8085 531.6608,-86.5964 532.5428,-93.5406"/>
</g>
<!-- 04239c61&#45;c082&#45;4eba&#45;b6bf&#45;d24c6f30e0e9 -->
<g id="node4" class="node">
<title>04239c61&#45;c082&#45;4eba&#45;b6bf&#45;d24c6f30e0e9</title>
<polygon fill="#7fffd4" stroke="#7fffd4" points="748.3434,-148.4019 641.998,-148.4019 641.998,-107.1981 748.3434,-107.1981 748.3434,-148.4019"/>
<text text-anchor="middle" x="695.1707" y="-132" font-family="Times,serif" font-size="14.00" fill="#000000">@PerActivity</text>
<text text-anchor="middle" x="695.1707" y="-115.2" font-family="Times,serif" font-size="14.00" fill="#000000">DrawerProvider</text>
</g>
<!-- 2c21b231&#45;e152&#45;4415&#45;8201&#45;d6e386a0ffcd&#45;&gt;04239c61&#45;c082&#45;4eba&#45;b6bf&#45;d24c6f30e0e9 -->
<g id="edge3" class="edge">
<title>2c21b231&#45;e152&#45;4415&#45;8201&#45;d6e386a0ffcd&#45;&gt;04239c61&#45;c082&#45;4eba&#45;b6bf&#45;d24c6f30e0e9</title>
<path fill="none" stroke="#000000" d="M186.5974,-158.6229C307.2667,-151.3096 524.8565,-138.1222 632.0277,-131.6269"/>
<polygon fill="#000000" stroke="#000000" points="632.2775,-135.1183 642.0474,-131.0196 631.854,-128.1311 632.2775,-135.1183"/>
</g>
<!-- 58dab377&#45;0ec2&#45;4e82&#45;9019&#45;47c1c86020f3 -->
<g id="node5" class="node">
<title>58dab377&#45;0ec2&#45;4e82&#45;9019&#45;47c1c86020f3</title>
<polygon fill="#76ee00" stroke="#76ee00" points="1512.7865,-194.4019 1430.6609,-194.4019 1430.6609,-153.1981 1512.7865,-153.1981 1512.7865,-194.4019"/>
<text text-anchor="middle" x="1471.7237" y="-178" font-family="Times,serif" font-size="14.00" fill="#000000">@Singleton</text>
<text text-anchor="middle" x="1471.7237" y="-161.2" font-family="Times,serif" font-size="14.00" fill="#000000">Preferences</text>
</g>
<!-- 2c21b231&#45;e152&#45;4415&#45;8201&#45;d6e386a0ffcd&#45;&gt;58dab377&#45;0ec2&#45;4e82&#45;9019&#45;47c1c86020f3 -->
<g id="edge2" class="edge">
<title>2c21b231&#45;e152&#45;4415&#45;8201&#45;d6e386a0ffcd&#45;&gt;58dab377&#45;0ec2&#45;4e82&#45;9019&#45;47c1c86020f3</title>
<path fill="none" stroke="#000000" d="M117.5011,-145.6282C153.2444,-107.9506 242.7798,-24.8 336.8267,-24.8 336.8267,-24.8 336.8267,-24.8 1176.0402,-24.8 1214.9062,-24.8 1183.7185,-78.8755 1213.5402,-103.8 1272.5822,-153.1464 1363.3486,-167.9394 1420.0423,-172.2354"/>
<polygon fill="#000000" stroke="#000000" points="1420.0035,-175.7407 1430.2163,-172.9214 1420.4745,-168.7565 1420.0035,-175.7407"/>
</g>
<!-- 4b75774e&#45;54af&#45;47a4&#45;8054&#45;7f432c439038 -->
<g id="node6" class="node">
<title>4b75774e&#45;54af&#45;47a4&#45;8054&#45;7f432c439038</title>
<polygon fill="#76ee00" stroke="#76ee00" points="781.4613,-428.4019 608.8801,-428.4019 608.8801,-387.1981 781.4613,-387.1981 781.4613,-428.4019"/>
<text text-anchor="middle" x="695.1707" y="-412" font-family="Times,serif" font-size="14.00" fill="#000000">@Singleton</text>
<text text-anchor="middle" x="695.1707" y="-395.2" font-family="Times,serif" font-size="14.00" fill="#000000">RunThingsOnOtherThreads</text>
</g>
<!-- 2c21b231&#45;e152&#45;4415&#45;8201&#45;d6e386a0ffcd&#45;&gt;4b75774e&#45;54af&#45;47a4&#45;8054&#45;7f432c439038 -->
<g id="edge4" class="edge">
<title>2c21b231&#45;e152&#45;4415&#45;8201&#45;d6e386a0ffcd&#45;&gt;4b75774e&#45;54af&#45;47a4&#45;8054&#45;7f432c439038</title>
<path fill="none" stroke="#000000" d="M104.4155,-182.0231C113.238,-225.6097 142.1254,-335.7463 215.3528,-382.8 276.5708,-422.1368 477.2093,-419.4675 598.7971,-413.7775"/>
<polygon fill="#000000" stroke="#000000" points="599.0398,-417.27 608.8592,-413.2913 598.7019,-410.2781 599.0398,-417.27"/>
</g>
<!-- 53c63ff2&#45;a282&#45;4571&#45;a493&#45;ac2e48c4ad6a -->
<g id="node7" class="node">
<title>53c63ff2&#45;a282&#45;4571&#45;a493&#45;ac2e48c4ad6a</title>
<polygon fill="#76ee00" stroke="#76ee00" points="396.7272,-258.4019 276.9262,-258.4019 276.9262,-217.1981 396.7272,-217.1981 396.7272,-258.4019"/>
<text text-anchor="middle" x="336.8267" y="-242" font-family="Times,serif" font-size="14.00" fill="#000000">@Singleton</text>
<text text-anchor="middle" x="336.8267" y="-225.2" font-family="Times,serif" font-size="14.00" fill="#000000">MessageProcessor</text>
</g>
<!-- 2c21b231&#45;e152&#45;4415&#45;8201&#45;d6e386a0ffcd&#45;&gt;53c63ff2&#45;a282&#45;4571&#45;a493&#45;ac2e48c4ad6a -->
<g id="edge5" class="edge">
<title>2c21b231&#45;e152&#45;4415&#45;8201&#45;d6e386a0ffcd&#45;&gt;53c63ff2&#45;a282&#45;4571&#45;a493&#45;ac2e48c4ad6a</title>
<path fill="none" stroke="#000000" d="M158.5216,-181.8078C191.2727,-192.0924 232.5772,-205.0631 267.1828,-215.9301"/>
<polygon fill="#000000" stroke="#000000" points="266.1638,-219.2786 276.753,-218.9354 268.261,-212.6001 266.1638,-219.2786"/>
</g>
<!-- 9769a20d&#45;8c67&#45;4f0c&#45;a589&#45;4356b415a55e -->
<g id="node19" class="node">
<title>9769a20d&#45;8c67&#45;4f0c&#45;a589&#45;4356b415a55e</title>
<polygon fill="#40e0d0" stroke="#40e0d0" points="864.9084,-770.8 537.433,-770.8 537.433,-774.8 525.433,-774.8 525.433,-734.8 864.9084,-734.8 864.9084,-770.8"/>
<polyline fill="none" stroke="#40e0d0" points="525.433,-770.8 537.433,-770.8 "/>
<text text-anchor="middle" x="695.1707" y="-748.6" font-family="Times,serif" font-size="14.00" fill="#000000">Map&lt;Class&lt;?&gt;, Provider&lt;AndroidInjector.Factory&lt;?&gt;&gt;&gt;</text>
</g>
<!-- 51460647&#45;366b&#45;4857&#45;96be&#45;c3fc10014c99&#45;&gt;9769a20d&#45;8c67&#45;4f0c&#45;a589&#45;4356b415a55e -->
<g id="edge7" class="edge">
<title>51460647&#45;366b&#45;4857&#45;96be&#45;c3fc10014c99&#45;&gt;9769a20d&#45;8c67&#45;4f0c&#45;a589&#45;4356b415a55e</title>
<path fill="none" stroke="#000000" d="M448.0357,-373.8414C455.9644,-378.378 463.2154,-383.9555 469.3006,-390.8 570.7098,-504.8641 408.6765,-623.8392 517.5519,-730.8 517.7043,-730.9497 517.8571,-731.0988 518.0104,-731.2472"/>
<polygon fill="#000000" stroke="#000000" points="515.3628,-733.5833 525.207,-737.5 519.9539,-728.2992 515.3628,-733.5833"/>
</g>
<!-- 90e2755e&#45;7c2a&#45;4b7c&#45;bf50&#45;059bbd05ff9e -->
<g id="node8" class="node">
<title>90e2755e&#45;7c2a&#45;4b7c&#45;bf50&#45;059bbd05ff9e</title>
<polygon fill="#7fffd4" stroke="#7fffd4" points="1138.7484,-94.4019 990.9168,-94.4019 990.9168,-53.1981 1138.7484,-53.1981 1138.7484,-94.4019"/>
<text text-anchor="middle" x="1064.8326" y="-78" font-family="Times,serif" font-size="14.00" fill="#000000">@PerActivity</text>
<text text-anchor="middle" x="1064.8326" y="-61.2" font-family="Times,serif" font-size="14.00" fill="#000000">ConnectionViewModel</text>
</g>
<!-- 98c24717&#45;b1ef&#45;4023&#45;8cea&#45;b67082e4a349&#45;&gt;90e2755e&#45;7c2a&#45;4b7c&#45;bf50&#45;059bbd05ff9e -->
<g id="edge8" class="edge">
<title>98c24717&#45;b1ef&#45;4023&#45;8cea&#45;b67082e4a349&#45;&gt;90e2755e&#45;7c2a&#45;4b7c&#45;bf50&#45;059bbd05ff9e</title>
<path fill="none" stroke="#000000" stroke-dasharray="1,5" d="M865.1248,-72.1793C905.1695,-72.5043 946.1517,-72.8368 980.487,-73.1155"/>
<polygon fill="#000000" stroke="#000000" points="980.8928,-76.6188 990.9209,-73.2002 980.9497,-69.619 980.8928,-76.6188"/>
<text text-anchor="middle" x="928.0829" y="-78" font-family="Times,serif" font-size="14.00" fill="#000000">delegates</text>
</g>
<!-- fb1e1a9d&#45;91c6&#45;4592&#45;aa22&#45;9c4b114c9d55 -->
<g id="node10" class="node">
<title>fb1e1a9d&#45;91c6&#45;4592&#45;aa22&#45;9c4b114c9d55</title>
<polygon fill="#7fffd4" stroke="#7fffd4" points="1935.3915,-104.4019 1804.7455,-104.4019 1804.7455,-63.1981 1935.3915,-63.1981 1935.3915,-104.4019"/>
<text text-anchor="middle" x="1870.0685" y="-88" font-family="Times,serif" font-size="14.00" fill="#000000">@PerActivity</text>
<text text-anchor="middle" x="1870.0685" y="-71.2" font-family="Times,serif" font-size="14.00" fill="#000000">AppCompatActivity</text>
</g>
<!-- 04239c61&#45;c082&#45;4eba&#45;b6bf&#45;d24c6f30e0e9&#45;&gt;fb1e1a9d&#45;91c6&#45;4592&#45;aa22&#45;9c4b114c9d55 -->
<g id="edge10" class="edge">
<title>04239c61&#45;c082&#45;4eba&#45;b6bf&#45;d24c6f30e0e9&#45;&gt;fb1e1a9d&#45;91c6&#45;4592&#45;aa22&#45;9c4b114c9d55</title>
<path fill="none" stroke="#000000" d="M748.3063,-122.7852C795.4791,-118.7681 866.3065,-113.8 928.0829,-113.8 928.0829,-113.8 928.0829,-113.8 1767.4072,-113.8 1781.602,-113.8 1796.4736,-111.1249 1810.3521,-107.3723"/>
<polygon fill="#000000" stroke="#000000" points="1811.6445,-110.6409 1820.2584,-104.4723 1809.6778,-103.9229 1811.6445,-110.6409"/>
</g>
<!-- 4da2d585&#45;2ccc&#45;49b1&#45;9272&#45;5e7446982f42 -->
<g id="node12" class="node">
<title>4da2d585&#45;2ccc&#45;49b1&#45;9272&#45;5e7446982f42</title>
<polygon fill="#76ee00" stroke="#76ee00" points="1105.8954,-174.4019 1023.7698,-174.4019 1023.7698,-133.1981 1105.8954,-133.1981 1105.8954,-174.4019"/>
<text text-anchor="middle" x="1064.8326" y="-158" font-family="Times,serif" font-size="14.00" fill="#000000">@Singleton</text>
<text text-anchor="middle" x="1064.8326" y="-141.2" font-family="Times,serif" font-size="14.00" fill="#000000">Scheduler</text>
</g>
<!-- 04239c61&#45;c082&#45;4eba&#45;b6bf&#45;d24c6f30e0e9&#45;&gt;4da2d585&#45;2ccc&#45;49b1&#45;9272&#45;5e7446982f42 -->
<g id="edge9" class="edge">
<title>04239c61&#45;c082&#45;4eba&#45;b6bf&#45;d24c6f30e0e9&#45;&gt;4da2d585&#45;2ccc&#45;49b1&#45;9272&#45;5e7446982f42</title>
<path fill="none" stroke="#000000" d="M748.5279,-131.5529C819.2749,-136.5288 943.3044,-145.2524 1013.1821,-150.1672"/>
<polygon fill="#000000" stroke="#000000" points="1013.28,-153.6826 1023.5009,-150.893 1013.7711,-146.6999 1013.28,-153.6826"/>
</g>
<!-- 53c63ff2&#45;a282&#45;4571&#45;a493&#45;ac2e48c4ad6a&#45;&gt;58dab377&#45;0ec2&#45;4e82&#45;9019&#45;47c1c86020f3 -->
<g id="edge12" class="edge">
<title>53c63ff2&#45;a282&#45;4571&#45;a493&#45;ac2e48c4ad6a&#45;&gt;58dab377&#45;0ec2&#45;4e82&#45;9019&#45;47c1c86020f3</title>
<path fill="none" stroke="#000000" d="M396.6779,-238.58C525.4722,-240.4732 820.865,-246.0463 865.0408,-257.8 926.1649,-274.0631 929.7042,-308.6964 991.125,-323.8 1054.7475,-339.445 1074.4824,-337.5547 1138.5402,-323.8 1249.6766,-299.9365 1368.47,-235.9898 1429.7522,-199.764"/>
<polygon fill="#000000" stroke="#000000" points="1431.5706,-202.7547 1438.3687,-194.6284 1427.9868,-196.7417 1431.5706,-202.7547"/>
</g>
<!-- 53c63ff2&#45;a282&#45;4571&#45;a493&#45;ac2e48c4ad6a&#45;&gt;4b75774e&#45;54af&#45;47a4&#45;8054&#45;7f432c439038 -->
<g id="edge16" class="edge">
<title>53c63ff2&#45;a282&#45;4571&#45;a493&#45;ac2e48c4ad6a&#45;&gt;4b75774e&#45;54af&#45;47a4&#45;8054&#45;7f432c439038</title>
<path fill="none" stroke="#000000" d="M366.3227,-258.615C400.9965,-283.4616 459.8316,-326.8133 507.3006,-367.8 512.1181,-371.9597 511.8776,-374.9166 517.5519,-377.8 542.3826,-390.418 571.4342,-397.8875 598.7643,-402.2635"/>
<polygon fill="#000000" stroke="#000000" points="598.3399,-405.7387 608.7444,-403.7395 599.3641,-398.814 598.3399,-405.7387"/>
</g>
<!-- 53c63ff2&#45;a282&#45;4571&#45;a493&#45;ac2e48c4ad6a&#45;&gt;4da2d585&#45;2ccc&#45;49b1&#45;9272&#45;5e7446982f42 -->
<g id="edge18" class="edge">
<title>53c63ff2&#45;a282&#45;4571&#45;a493&#45;ac2e48c4ad6a&#45;&gt;4da2d585&#45;2ccc&#45;49b1&#45;9272&#45;5e7446982f42</title>
<path fill="none" stroke="#000000" d="M362.9493,-217.1763C391.7855,-196.528 440.4193,-167.8 487.8006,-167.8 487.8006,-167.8 487.8006,-167.8 928.0829,-167.8 956.3997,-167.8 987.8441,-164.7925 1013.4339,-161.5654"/>
<polygon fill="#000000" stroke="#000000" points="1014.1935,-164.9959 1023.6541,-160.2264 1013.2841,-158.0552 1014.1935,-164.9959"/>
</g>
<!-- 1517bf30&#45;3d64&#45;4778&#45;a778&#45;5bb9cc89dfba -->
<g id="node13" class="node">
<title>1517bf30&#45;3d64&#45;4778&#45;a778&#45;5bb9cc89dfba</title>
<polygon fill="#76ee00" stroke="#76ee00" points="736.2335,-308.4019 654.1079,-308.4019 654.1079,-267.1981 736.2335,-267.1981 736.2335,-308.4019"/>
<text text-anchor="middle" x="695.1707" y="-292" font-family="Times,serif" font-size="14.00" fill="#000000">@Singleton</text>
<text text-anchor="middle" x="695.1707" y="-275.2" font-family="Times,serif" font-size="14.00" fill="#000000">Parser</text>
</g>
<!-- 53c63ff2&#45;a282&#45;4571&#45;a493&#45;ac2e48c4ad6a&#45;&gt;1517bf30&#45;3d64&#45;4778&#45;a778&#45;5bb9cc89dfba -->
<g id="edge20" class="edge">
<title>53c63ff2&#45;a282&#45;4571&#45;a493&#45;ac2e48c4ad6a&#45;&gt;1517bf30&#45;3d64&#45;4778&#45;a778&#45;5bb9cc89dfba</title>
<path fill="none" stroke="#000000" d="M396.8054,-246.1689C466.0248,-255.8271 578.6811,-271.5461 643.9566,-280.6541"/>
<polygon fill="#000000" stroke="#000000" points="643.6244,-284.1415 654.0122,-282.0571 644.5918,-277.2087 643.6244,-284.1415"/>
</g>
<!-- d82f6355&#45;832c&#45;4948&#45;9a64&#45;fe6a09a1ab7b -->
<g id="node14" class="node">
<title>d82f6355&#45;832c&#45;4948&#45;9a64&#45;fe6a09a1ab7b</title>
<polygon fill="#76ee00" stroke="#76ee00" points="743.2507,-368.4019 647.0907,-368.4019 647.0907,-327.1981 743.2507,-327.1981 743.2507,-368.4019"/>
<text text-anchor="middle" x="695.1707" y="-352" font-family="Times,serif" font-size="14.00" fill="#000000">@Singleton</text>
<text text-anchor="middle" x="695.1707" y="-335.2" font-family="Times,serif" font-size="14.00" fill="#000000">ServiceBridge</text>
</g>
<!-- 53c63ff2&#45;a282&#45;4571&#45;a493&#45;ac2e48c4ad6a&#45;&gt;d82f6355&#45;832c&#45;4948&#45;9a64&#45;fe6a09a1ab7b -->
<g id="edge21" class="edge">
<title>53c63ff2&#45;a282&#45;4571&#45;a493&#45;ac2e48c4ad6a&#45;&gt;d82f6355&#45;832c&#45;4948&#45;9a64&#45;fe6a09a1ab7b</title>
<path fill="none" stroke="#000000" d="M375.935,-258.5349C411.8264,-276.7272 466.9478,-302.5873 517.5519,-317.8 556.5316,-329.5182 601.7868,-337.0755 636.861,-341.6739"/>
<polygon fill="#000000" stroke="#000000" points="636.5736,-345.1654 646.9343,-342.9503 637.4537,-338.2209 636.5736,-345.1654"/>
</g>
<!-- cbc5139d&#45;7aad&#45;42e2&#45;bb68&#45;5d0046019862 -->
<g id="node15" class="node">
<title>cbc5139d&#45;7aad&#45;42e2&#45;bb68&#45;5d0046019862</title>
<polygon fill="#76ee00" stroke="#76ee00" points="755.356,-228.4019 634.9854,-228.4019 634.9854,-187.1981 755.356,-187.1981 755.356,-228.4019"/>
<text text-anchor="middle" x="695.1707" y="-212" font-family="Times,serif" font-size="14.00" fill="#000000">@Singleton</text>
<text text-anchor="middle" x="695.1707" y="-195.2" font-family="Times,serif" font-size="14.00" fill="#000000">LocationProcessor</text>
</g>
<!-- 53c63ff2&#45;a282&#45;4571&#45;a493&#45;ac2e48c4ad6a&#45;&gt;cbc5139d&#45;7aad&#45;42e2&#45;bb68&#45;5d0046019862 -->
<g id="edge19" class="edge">
<title>53c63ff2&#45;a282&#45;4571&#45;a493&#45;ac2e48c4ad6a&#45;&gt;cbc5139d&#45;7aad&#45;42e2&#45;bb68&#45;5d0046019862</title>
<path fill="none" stroke="#000000" d="M396.8054,-227.5869C459.5946,-220.3601 558.1253,-212.0094 624.6112,-208.2097"/>
<polygon fill="#000000" stroke="#000000" points="625.2031,-211.6826 634.9963,-207.6398 624.8195,-204.6931 625.2031,-211.6826"/>
</g>
<!-- 90e2755e&#45;7c2a&#45;4b7c&#45;bf50&#45;059bbd05ff9e&#45;&gt;58dab377&#45;0ec2&#45;4e82&#45;9019&#45;47c1c86020f3 -->
<g id="edge15" class="edge">
<title>90e2755e&#45;7c2a&#45;4b7c&#45;bf50&#45;059bbd05ff9e&#45;&gt;58dab377&#45;0ec2&#45;4e82&#45;9019&#45;47c1c86020f3</title>
<path fill="none" stroke="#000000" d="M1138.9896,-92.0253C1220.5906,-112.08 1349.5741,-143.7798 1420.6012,-161.2358"/>
<polygon fill="#000000" stroke="#000000" points="1420.1012,-164.717 1430.6475,-163.7049 1421.7719,-157.9193 1420.1012,-164.717"/>
</g>
<!-- a32edcd8&#45;9b8c&#45;4c0e&#45;8cfb&#45;c68433a95333 -->
<g id="node9" class="node">
<title>a32edcd8&#45;9b8c&#45;4c0e&#45;8cfb&#45;c68433a95333</title>
<polygon fill="#7fffd4" stroke="#7fffd4" points="1518.6587,-94.4019 1424.7887,-94.4019 1424.7887,-53.1981 1518.6587,-53.1981 1518.6587,-94.4019"/>
<text text-anchor="middle" x="1471.7237" y="-78" font-family="Times,serif" font-size="14.00" fill="#000000">@PerActivity</text>
<text text-anchor="middle" x="1471.7237" y="-61.2" font-family="Times,serif" font-size="14.00" fill="#000000">Navigator</text>
</g>
<!-- 90e2755e&#45;7c2a&#45;4b7c&#45;bf50&#45;059bbd05ff9e&#45;&gt;a32edcd8&#45;9b8c&#45;4c0e&#45;8cfb&#45;c68433a95333 -->
<g id="edge35" class="edge">
<title>90e2755e&#45;7c2a&#45;4b7c&#45;bf50&#45;059bbd05ff9e&#45;&gt;a32edcd8&#45;9b8c&#45;4c0e&#45;8cfb&#45;c68433a95333</title>
<path fill="none" stroke="#000000" d="M1138.9896,-73.8C1218.2966,-73.8 1342.3595,-73.8 1414.4759,-73.8"/>
<polygon fill="#000000" stroke="#000000" points="1414.7276,-77.3001 1424.7276,-73.8 1414.7276,-70.3001 1414.7276,-77.3001"/>
</g>
<!-- a32edcd8&#45;9b8c&#45;4c0e&#45;8cfb&#45;c68433a95333&#45;&gt;fb1e1a9d&#45;91c6&#45;4592&#45;aa22&#45;9c4b114c9d55 -->
<g id="edge36" class="edge">
<title>a32edcd8&#45;9b8c&#45;4c0e&#45;8cfb&#45;c68433a95333&#45;&gt;fb1e1a9d&#45;91c6&#45;4592&#45;aa22&#45;9c4b114c9d55</title>
<path fill="none" stroke="#000000" d="M1518.5903,-74.9765C1586.535,-76.6822 1713.1355,-79.8604 1794.407,-81.9006"/>
<polygon fill="#000000" stroke="#000000" points="1794.4933,-85.4038 1804.578,-82.1559 1794.669,-78.406 1794.4933,-85.4038"/>
</g>
<!-- 3692daf4&#45;2f89&#45;4660&#45;bafe&#45;956a0b7d6c33 -->
<g id="node11" class="node">
<title>3692daf4&#45;2f89&#45;4660&#45;bafe&#45;956a0b7d6c33</title>
<polygon fill="#40e0d0" stroke="#40e0d0" points="2316.9114,-101.8 2113.7189,-101.8 2061.4481,-65.8 2264.6406,-65.8 2316.9114,-101.8"/>
<text text-anchor="middle" x="2189.1798" y="-79.6" font-family="Times,serif" font-size="14.00" fill="#000000">ConnectionActivity</text>
</g>
<!-- fb1e1a9d&#45;91c6&#45;4592&#45;aa22&#45;9c4b114c9d55&#45;&gt;3692daf4&#45;2f89&#45;4660&#45;bafe&#45;956a0b7d6c33 -->
<g id="edge37" class="edge">
<title>fb1e1a9d&#45;91c6&#45;4592&#45;aa22&#45;9c4b114c9d55&#45;&gt;3692daf4&#45;2f89&#45;4660&#45;bafe&#45;956a0b7d6c33</title>
<path fill="none" stroke="#000000" stroke-dasharray="1,5" d="M1935.4155,-83.8C1976.2719,-83.8 2029.9682,-83.8 2077.4418,-83.8"/>
<polygon fill="#000000" stroke="#000000" points="2077.4708,-87.3001 2087.4708,-83.8 2077.4708,-80.3001 2077.4708,-87.3001"/>
<text text-anchor="middle" x="1998.2719" y="-88" font-family="Times,serif" font-size="14.00" fill="#000000">delegates</text>
</g>
<!-- 4da2d585&#45;2ccc&#45;49b1&#45;9272&#45;5e7446982f42&#45;&gt;58dab377&#45;0ec2&#45;4e82&#45;9019&#45;47c1c86020f3 -->
<g id="edge13" class="edge">
<title>4da2d585&#45;2ccc&#45;49b1&#45;9272&#45;5e7446982f42&#45;&gt;58dab377&#45;0ec2&#45;4e82&#45;9019&#45;47c1c86020f3</title>
<path fill="none" stroke="#000000" d="M1106.0867,-155.8278C1180.8747,-159.5038 1338.6424,-167.2586 1420.3116,-171.2729"/>
<polygon fill="#000000" stroke="#000000" points="1420.2006,-174.7716 1430.3604,-171.7669 1420.5444,-167.78 1420.2006,-174.7716"/>
</g>
<!-- c28e5e01&#45;2d97&#45;4761&#45;b4f0&#45;17c20a126b4d -->
<g id="node16" class="node">
<title>c28e5e01&#45;2d97&#45;4761&#45;b4f0&#45;17c20a126b4d</title>
<polygon fill="#76ee00" stroke="#76ee00" points="1128.2513,-394.4019 1001.4139,-394.4019 1001.4139,-353.1981 1128.2513,-353.1981 1128.2513,-394.4019"/>
<text text-anchor="middle" x="1064.8326" y="-378" font-family="Times,serif" font-size="14.00" fill="#000000">@Singleton</text>
<text text-anchor="middle" x="1064.8326" y="-361.2" font-family="Times,serif" font-size="14.00" fill="#000000">EncryptionProvider</text>
</g>
<!-- 1517bf30&#45;3d64&#45;4778&#45;a778&#45;5bb9cc89dfba&#45;&gt;c28e5e01&#45;2d97&#45;4761&#45;b4f0&#45;17c20a126b4d -->
<g id="edge38" class="edge">
<title>1517bf30&#45;3d64&#45;4778&#45;a778&#45;5bb9cc89dfba&#45;&gt;c28e5e01&#45;2d97&#45;4761&#45;b4f0&#45;17c20a126b4d</title>
<path fill="none" stroke="#000000" d="M736.2425,-293.8917C770.7881,-299.2926 821.3879,-307.853 865.0408,-317.8 907.277,-327.4242 953.9186,-340.3635 991.5069,-351.3797"/>
<polygon fill="#000000" stroke="#000000" points="990.7757,-354.8129 1001.3573,-354.2831 992.7549,-348.0985 990.7757,-354.8129"/>
</g>
<!-- cbc5139d&#45;7aad&#45;42e2&#45;bb68&#45;5d0046019862&#45;&gt;58dab377&#45;0ec2&#45;4e82&#45;9019&#45;47c1c86020f3 -->
<g id="edge11" class="edge">
<title>cbc5139d&#45;7aad&#45;42e2&#45;bb68&#45;5d0046019862&#45;&gt;58dab377&#45;0ec2&#45;4e82&#45;9019&#45;47c1c86020f3</title>
<path fill="none" stroke="#000000" d="M755.434,-202.1863C802.4239,-198.2914 869.3447,-193.8 928.0829,-193.8 928.0829,-193.8 928.0829,-193.8 1176.0402,-193.8 1261.9507,-193.8 1361.5824,-185.2915 1420.4879,-179.3738"/>
<polygon fill="#000000" stroke="#000000" points="1421.0525,-182.8345 1430.646,-178.3383 1420.3426,-175.8706 1421.0525,-182.8345"/>
</g>
<!-- cbc5139d&#45;7aad&#45;42e2&#45;bb68&#45;5d0046019862&#45;&gt;53c63ff2&#45;a282&#45;4571&#45;a493&#45;ac2e48c4ad6a -->
<g id="edge17" class="edge">
<title>cbc5139d&#45;7aad&#45;42e2&#45;bb68&#45;5d0046019862&#45;&gt;53c63ff2&#45;a282&#45;4571&#45;a493&#45;ac2e48c4ad6a</title>
<path fill="none" stroke="#000000" d="M634.9963,-218.0356C572.133,-225.2647 473.5986,-233.6119 407.1792,-237.4021"/>
<polygon fill="#000000" stroke="#000000" points="406.599,-233.9286 396.8054,-237.9704 406.9819,-240.9181 406.599,-233.9286"/>
</g>
<!-- 25a65966&#45;39ff&#45;41f4&#45;bd6b&#45;acbf2acfd4de -->
<g id="node17" class="node">
<title>25a65966&#45;39ff&#45;41f4&#45;bd6b&#45;acbf2acfd4de</title>
<polygon fill="#76ee00" stroke="#76ee00" points="1112.6473,-254.4019 1017.0179,-254.4019 1017.0179,-213.1981 1112.6473,-213.1981 1112.6473,-254.4019"/>
<text text-anchor="middle" x="1064.8326" y="-238" font-family="Times,serif" font-size="14.00" fill="#000000">@Singleton</text>
<text text-anchor="middle" x="1064.8326" y="-221.2" font-family="Times,serif" font-size="14.00" fill="#000000">LocationRepo</text>
</g>
<!-- cbc5139d&#45;7aad&#45;42e2&#45;bb68&#45;5d0046019862&#45;&gt;25a65966&#45;39ff&#45;41f4&#45;bd6b&#45;acbf2acfd4de -->
<g id="edge40" class="edge">
<title>cbc5139d&#45;7aad&#45;42e2&#45;bb68&#45;5d0046019862&#45;&gt;25a65966&#45;39ff&#45;41f4&#45;bd6b&#45;acbf2acfd4de</title>
<path fill="none" stroke="#000000" d="M755.386,-212.0352C824.857,-216.9214 938.2921,-224.8998 1006.8182,-229.7196"/>
<polygon fill="#000000" stroke="#000000" points="1006.7834,-233.2257 1017.0044,-230.436 1007.2746,-226.2429 1006.7834,-233.2257"/>
</g>
<!-- aee48481&#45;516d&#45;431f&#45;9da0&#45;c753fb96bd27 -->
<g id="node18" class="node">
<title>aee48481&#45;516d&#45;431f&#45;9da0&#45;c753fb96bd27</title>
<polygon fill="#76ee00" stroke="#76ee00" points="1137.9433,-314.4019 991.7219,-314.4019 991.7219,-273.1981 1137.9433,-273.1981 1137.9433,-314.4019"/>
<text text-anchor="middle" x="1064.8326" y="-298" font-family="Times,serif" font-size="14.00" fill="#000000">@Singleton</text>
<text text-anchor="middle" x="1064.8326" y="-281.2" font-family="Times,serif" font-size="14.00" fill="#000000">DeviceMetricsProvider</text>
</g>
<!-- cbc5139d&#45;7aad&#45;42e2&#45;bb68&#45;5d0046019862&#45;&gt;aee48481&#45;516d&#45;431f&#45;9da0&#45;c753fb96bd27 -->
<g id="edge39" class="edge">
<title>cbc5139d&#45;7aad&#45;42e2&#45;bb68&#45;5d0046019862&#45;&gt;aee48481&#45;516d&#45;431f&#45;9da0&#45;c753fb96bd27</title>
<path fill="none" stroke="#000000" d="M755.461,-219.5093C787.9963,-226.0075 828.8043,-234.4467 865.0408,-242.8 903.463,-251.6571 945.8076,-262.3336 981.5867,-271.6243"/>
<polygon fill="#000000" stroke="#000000" points="980.9361,-275.0715 991.4955,-274.2053 982.7006,-268.2976 980.9361,-275.0715"/>
</g>
<!-- c28e5e01&#45;2d97&#45;4761&#45;b4f0&#45;17c20a126b4d&#45;&gt;58dab377&#45;0ec2&#45;4e82&#45;9019&#45;47c1c86020f3 -->
<g id="edge14" class="edge">
<title>c28e5e01&#45;2d97&#45;4761&#45;b4f0&#45;17c20a126b4d&#45;&gt;58dab377&#45;0ec2&#45;4e82&#45;9019&#45;47c1c86020f3</title>
<path fill="none" stroke="#000000" d="M1128.1787,-360.5915C1149.9658,-355.0713 1174.2282,-347.8126 1195.5402,-338.8 1286.4777,-300.3435 1383.5164,-236.3219 1434.8694,-200.3784"/>
<polygon fill="#000000" stroke="#000000" points="1437.152,-203.0518 1443.3132,-194.4326 1433.1218,-197.3284 1437.152,-203.0518"/>
</g>
<!-- 0a6b21b1&#45;27cf&#45;4cbd&#45;aa15&#45;073b340fc884 -->
<g id="node20" class="node">
<title>0a6b21b1&#45;27cf&#45;4cbd&#45;aa15&#45;073b340fc884</title>
<polygon fill="#40e0d0" stroke="#40e0d0" points="1690.3185,-966.8 1253.1289,-966.8 1253.1289,-930.8 1690.3185,-930.8 1690.3185,-966.8"/>
<text text-anchor="middle" x="1471.7237" y="-944.6" font-family="Times,serif" font-size="14.00" fill="#000000">AndroidBindingModule_BindEditorActivity.bindAndroidInjectorFactory()</text>
</g>
<!-- 9769a20d&#45;8c67&#45;4f0c&#45;a589&#45;4356b415a55e&#45;&gt;0a6b21b1&#45;27cf&#45;4cbd&#45;aa15&#45;073b340fc884 -->
<g id="edge28" class="edge">
<title>9769a20d&#45;8c67&#45;4f0c&#45;a589&#45;4356b415a55e&#45;&gt;0a6b21b1&#45;27cf&#45;4cbd&#45;aa15&#45;073b340fc884</title>
<path fill="none" stroke="#000000" d="M712.5986,-770.8759C749.0083,-806.5964 837.3186,-882.8 928.0829,-882.8 928.0829,-882.8 928.0829,-882.8 1176.0402,-882.8 1200.0865,-882.8 1191.9362,-911.2412 1213.5402,-921.8 1223.1504,-926.4969 1233.1979,-930.555 1243.519,-934.0523"/>
<polygon fill="#000000" stroke="#000000" points="1242.4787,-937.3942 1253.0697,-937.1087 1244.6123,-930.7273 1242.4787,-937.3942"/>
</g>
<!-- 6d554218&#45;ac2c&#45;429f&#45;a69c&#45;387940dad8be -->
<g id="node21" class="node">
<title>6d554218&#45;ac2c&#45;429f&#45;a69c&#45;387940dad8be</title>
<polygon fill="#40e0d0" stroke="#40e0d0" points="1699.4638,-1020.8 1243.9836,-1020.8 1243.9836,-984.8 1699.4638,-984.8 1699.4638,-1020.8"/>
<text text-anchor="middle" x="1471.7237" y="-998.6" font-family="Times,serif" font-size="14.00" fill="#000000">AndroidBindingModule_BindWelcomeActivity.bindAndroidInjectorFactory()</text>
</g>
<!-- 9769a20d&#45;8c67&#45;4f0c&#45;a589&#45;4356b415a55e&#45;&gt;6d554218&#45;ac2c&#45;429f&#45;a69c&#45;387940dad8be -->
<g id="edge31" class="edge">
<title>9769a20d&#45;8c67&#45;4f0c&#45;a589&#45;4356b415a55e&#45;&gt;6d554218&#45;ac2c&#45;429f&#45;a69c&#45;387940dad8be</title>
<path fill="none" stroke="#000000" d="M702.4869,-770.8498C726.1165,-825.878 806.0182,-987.8 928.0829,-987.8 928.0829,-987.8 928.0829,-987.8 1176.0402,-987.8 1194.752,-987.8 1214.1213,-988.1033 1233.5828,-988.6237"/>
<polygon fill="#000000" stroke="#000000" points="1233.6692,-992.1275 1243.7653,-988.9152 1233.8695,-985.1304 1233.6692,-992.1275"/>
</g>
<!-- 9d57d5b8&#45;3789&#45;40f9&#45;9d6b&#45;9a87dcfa8ef7 -->
<g id="node22" class="node">
<title>9d57d5b8&#45;3789&#45;40f9&#45;9d6b&#45;9a87dcfa8ef7</title>
<polygon fill="#40e0d0" stroke="#40e0d0" points="1704.8712,-1074.8 1238.5762,-1074.8 1238.5762,-1038.8 1704.8712,-1038.8 1704.8712,-1074.8"/>
<text text-anchor="middle" x="1471.7237" y="-1052.6" font-family="Times,serif" font-size="14.00" fill="#000000">AndroidBindingModule_BindConnectionActivity.bindAndroidInjectorFactory()</text>
</g>
<!-- 9769a20d&#45;8c67&#45;4f0c&#45;a589&#45;4356b415a55e&#45;&gt;9d57d5b8&#45;3789&#45;40f9&#45;9d6b&#45;9a87dcfa8ef7 -->
<g id="edge34" class="edge">
<title>9769a20d&#45;8c67&#45;4f0c&#45;a589&#45;4356b415a55e&#45;&gt;9d57d5b8&#45;3789&#45;40f9&#45;9d6b&#45;9a87dcfa8ef7</title>
<path fill="none" stroke="#000000" d="M701.3222,-771.0124C722.5086,-829.9663 798.3688,-1011.8 928.0829,-1011.8 928.0829,-1011.8 928.0829,-1011.8 1176.0402,-1011.8 1194.5274,-1011.8 1195.7519,-1024.7646 1213.5402,-1029.8 1222.2977,-1032.279 1231.2802,-1034.535 1240.3978,-1036.5876"/>
<polygon fill="#000000" stroke="#000000" points="1239.8264,-1040.0448 1250.34,-1038.736 1241.3049,-1033.2027 1239.8264,-1040.0448"/>
</g>
<!-- a6c8abfb&#45;2113&#45;4120&#45;a4ba&#45;8005c0d5728c -->
<g id="node23" class="node">
<title>a6c8abfb&#45;2113&#45;4120&#45;a4ba&#45;8005c0d5728c</title>
<polygon fill="#40e0d0" stroke="#40e0d0" points="1695.7105,-1128.8 1247.7369,-1128.8 1247.7369,-1092.8 1695.7105,-1092.8 1695.7105,-1128.8"/>
<text text-anchor="middle" x="1471.7237" y="-1106.6" font-family="Times,serif" font-size="14.00" fill="#000000">AndroidBindingModule_BindRegionsActivity.bindAndroidInjectorFactory()</text>
</g>
<!-- 9769a20d&#45;8c67&#45;4f0c&#45;a589&#45;4356b415a55e&#45;&gt;a6c8abfb&#45;2113&#45;4120&#45;a4ba&#45;8005c0d5728c -->
<g id="edge27" class="edge">
<title>9769a20d&#45;8c67&#45;4f0c&#45;a589&#45;4356b415a55e&#45;&gt;a6c8abfb&#45;2113&#45;4120&#45;a4ba&#45;8005c0d5728c</title>
<path fill="none" stroke="#000000" d="M697.906,-770.8926C709.9596,-843.2346 765.1776,-1107.8 928.0829,-1107.8 928.0829,-1107.8 928.0829,-1107.8 1176.0402,-1107.8 1196.0033,-1107.8 1216.7242,-1107.8692 1237.512,-1107.9866"/>
<polygon fill="#000000" stroke="#000000" points="1237.6983,-1111.4877 1247.7192,-1108.0481 1237.7405,-1104.4879 1237.6983,-1111.4877"/>
</g>
<!-- 69ab6033&#45;802a&#45;44ad&#45;bce6&#45;0e00293a0476 -->
<g id="node24" class="node">
<title>69ab6033&#45;802a&#45;44ad&#45;bce6&#45;0e00293a0476</title>
<polygon fill="#40e0d0" stroke="#40e0d0" points="1690.0472,-480.8 1253.4002,-480.8 1253.4002,-444.8 1690.0472,-444.8 1690.0472,-480.8"/>
<text text-anchor="middle" x="1471.7237" y="-458.6" font-family="Times,serif" font-size="14.00" fill="#000000">AndroidBindingModule_BindStatusActivity.bindAndroidInjectorFactory()</text>
</g>
<!-- 9769a20d&#45;8c67&#45;4f0c&#45;a589&#45;4356b415a55e&#45;&gt;69ab6033&#45;802a&#45;44ad&#45;bce6&#45;0e00293a0476 -->
<g id="edge32" class="edge">
<title>9769a20d&#45;8c67&#45;4f0c&#45;a589&#45;4356b415a55e&#45;&gt;69ab6033&#45;802a&#45;44ad&#45;bce6&#45;0e00293a0476</title>
<path fill="none" stroke="#000000" d="M860.6712,-734.5787C862.1632,-733.3703 863.6207,-732.1114 865.0408,-730.8 879.6419,-717.3168 895.6893,-574.6321 902.0408,-555.8 910.6843,-530.1722 901.0367,-500.8 928.0829,-500.8 928.0829,-500.8 928.0829,-500.8 1176.0402,-500.8 1193.4091,-500.8 1196.5637,-493.4712 1213.5402,-489.8 1226.0892,-487.0862 1239.0425,-484.6421 1252.1548,-482.4412"/>
<polygon fill="#000000" stroke="#000000" points="1252.9007,-485.8659 1262.2087,-480.8051 1251.7764,-478.9568 1252.9007,-485.8659"/>
</g>
<!-- 32ab3f5e&#45;1acf&#45;4464&#45;86cc&#45;fd5c215924a9 -->
<g id="node25" class="node">
<title>32ab3f5e&#45;1acf&#45;4464&#45;86cc&#45;fd5c215924a9</title>
<polygon fill="#40e0d0" stroke="#40e0d0" points="1730.0908,-534.8 1213.3566,-534.8 1213.3566,-498.8 1730.0908,-498.8 1730.0908,-534.8"/>
<text text-anchor="middle" x="1471.7237" y="-512.6" font-family="Times,serif" font-size="14.00" fill="#000000">AndroidBindingModule_BindBackgroundServiceReceiver.bindAndroidInjectorFactory()</text>
</g>
<!-- 9769a20d&#45;8c67&#45;4f0c&#45;a589&#45;4356b415a55e&#45;&gt;32ab3f5e&#45;1acf&#45;4464&#45;86cc&#45;fd5c215924a9 -->
<g id="edge23" class="edge">
<title>9769a20d&#45;8c67&#45;4f0c&#45;a589&#45;4356b415a55e&#45;&gt;32ab3f5e&#45;1acf&#45;4464&#45;86cc&#45;fd5c215924a9</title>
<path fill="none" stroke="#000000" d="M860.2204,-734.7389C861.8663,-733.483 863.4742,-732.1707 865.0408,-730.8 895.5206,-704.1308 887.5828,-559.8 928.0829,-559.8 928.0829,-559.8 928.0829,-559.8 1176.0402,-559.8 1194.1605,-559.8 1196.0001,-548.3487 1213.5402,-543.8 1223.458,-541.228 1233.6505,-538.8999 1243.9907,-536.7926"/>
<polygon fill="#000000" stroke="#000000" points="1244.8066,-540.1994 1253.9455,-534.8392 1243.4587,-533.3304 1244.8066,-540.1994"/>
</g>
<!-- a45895e9&#45;b28f&#45;4ca9&#45;9178&#45;4e90521a30f4 -->
<g id="node26" class="node">
<title>a45895e9&#45;b28f&#45;4ca9&#45;9178&#45;4e90521a30f4</title>
<polygon fill="#40e0d0" stroke="#40e0d0" points="1704.8447,-588.8 1238.6027,-588.8 1238.6027,-552.8 1704.8447,-552.8 1704.8447,-588.8"/>
<text text-anchor="middle" x="1471.7237" y="-566.6" font-family="Times,serif" font-size="14.00" fill="#000000">AndroidBindingModule_BindBackgroundService.bindAndroidInjectorFactory()</text>
</g>
<!-- 9769a20d&#45;8c67&#45;4f0c&#45;a589&#45;4356b415a55e&#45;&gt;a45895e9&#45;b28f&#45;4ca9&#45;9178&#45;4e90521a30f4 -->
<g id="edge22" class="edge">
<title>9769a20d&#45;8c67&#45;4f0c&#45;a589&#45;4356b415a55e&#45;&gt;a45895e9&#45;b28f&#45;4ca9&#45;9178&#45;4e90521a30f4</title>
<path fill="none" stroke="#000000" d="M859.6186,-734.7046C861.4656,-733.4624 863.2744,-732.1616 865.0408,-730.8 891.1047,-710.7089 895.1743,-596.8 928.0829,-596.8 928.0829,-596.8 928.0829,-596.8 1176.0402,-596.8 1221.1941,-596.8 1270.0782,-593.754 1314.8489,-589.7472"/>
<polygon fill="#000000" stroke="#000000" points="1315.2944,-593.2211 1324.933,-588.8224 1314.6552,-586.2503 1315.2944,-593.2211"/>
</g>
<!-- 59d88316&#45;48ba&#45;4454&#45;8f52&#45;0970112454ea -->
<g id="node27" class="node">
<title>59d88316&#45;48ba&#45;4454&#45;8f52&#45;0970112454ea</title>
<polygon fill="#40e0d0" stroke="#40e0d0" points="1692.7661,-642.8 1250.6813,-642.8 1250.6813,-606.8 1692.7661,-606.8 1692.7661,-642.8"/>
<text text-anchor="middle" x="1471.7237" y="-620.6" font-family="Times,serif" font-size="14.00" fill="#000000">AndroidBindingModule_BindRegionActivity.bindAndroidInjectorFactory()</text>
</g>
<!-- 9769a20d&#45;8c67&#45;4f0c&#45;a589&#45;4356b415a55e&#45;&gt;59d88316&#45;48ba&#45;4454&#45;8f52&#45;0970112454ea -->
<g id="edge24" class="edge">
<title>9769a20d&#45;8c67&#45;4f0c&#45;a589&#45;4356b415a55e&#45;&gt;59d88316&#45;48ba&#45;4454&#45;8f52&#45;0970112454ea</title>
<path fill="none" stroke="#000000" d="M858.0004,-734.6986C860.3912,-733.4659 862.7401,-732.1674 865.0408,-730.8 906.0887,-706.4026 880.3319,-643.8 928.0829,-643.8 928.0829,-643.8 928.0829,-643.8 1176.0402,-643.8 1197.0059,-643.8 1218.7907,-643.3184 1240.6023,-642.5085"/>
<polygon fill="#000000" stroke="#000000" points="1240.7684,-646.0048 1250.6229,-642.1139 1240.4928,-639.0102 1240.7684,-646.0048"/>
</g>
<!-- c5d63f7d&#45;c4b5&#45;4e2b&#45;bc68&#45;18225f1bd28e -->
<g id="node28" class="node">
<title>c5d63f7d&#45;c4b5&#45;4e2b&#45;bc68&#45;18225f1bd28e</title>
<polygon fill="#40e0d0" stroke="#40e0d0" points="1685.4834,-696.8 1257.964,-696.8 1257.964,-660.8 1685.4834,-660.8 1685.4834,-696.8"/>
<text text-anchor="middle" x="1471.7237" y="-674.6" font-family="Times,serif" font-size="14.00" fill="#000000">AndroidBindingModule_BindMapActivity.bindAndroidInjectorFactory()</text>
</g>
<!-- 9769a20d&#45;8c67&#45;4f0c&#45;a589&#45;4356b415a55e&#45;&gt;c5d63f7d&#45;c4b5&#45;4e2b&#45;bc68&#45;18225f1bd28e -->
<g id="edge29" class="edge">
<title>9769a20d&#45;8c67&#45;4f0c&#45;a589&#45;4356b415a55e&#45;&gt;c5d63f7d&#45;c4b5&#45;4e2b&#45;bc68&#45;18225f1bd28e</title>
<path fill="none" stroke="#000000" d="M851.609,-734.703C856.1586,-733.4856 860.6449,-732.1864 865.0408,-730.8 895.2016,-721.2876 896.4576,-697.8 928.0829,-697.8 928.0829,-697.8 928.0829,-697.8 1176.0402,-697.8 1199.3237,-697.8 1223.6174,-697.206 1247.8361,-696.2281"/>
<polygon fill="#000000" stroke="#000000" points="1247.9973,-699.7245 1257.8394,-695.8026 1247.6997,-692.7308 1247.9973,-699.7245"/>
</g>
<!-- d00c3f71&#45;fec4&#45;435c&#45;8e0b&#45;948b92c931bc -->
<g id="node29" class="node">
<title>d00c3f71&#45;fec4&#45;435c&#45;8e0b&#45;948b92c931bc</title>
<polygon fill="#40e0d0" stroke="#40e0d0" points="1687.0913,-750.8 1256.3561,-750.8 1256.3561,-714.8 1687.0913,-714.8 1687.0913,-750.8"/>
<text text-anchor="middle" x="1471.7237" y="-728.6" font-family="Times,serif" font-size="14.00" fill="#000000">AndroidBindingModule_BindLoadActivity.bindAndroidInjectorFactory()</text>
</g>
<!-- 9769a20d&#45;8c67&#45;4f0c&#45;a589&#45;4356b415a55e&#45;&gt;d00c3f71&#45;fec4&#45;435c&#45;8e0b&#45;948b92c931bc -->
<g id="edge26" class="edge">
<title>9769a20d&#45;8c67&#45;4f0c&#45;a589&#45;4356b415a55e&#45;&gt;d00c3f71&#45;fec4&#45;435c&#45;8e0b&#45;948b92c931bc</title>
<path fill="none" stroke="#000000" d="M864.8752,-736.625C886.1376,-735.5004 907.6018,-734.8 928.0829,-734.8 928.0829,-734.8 928.0829,-734.8 1176.0402,-734.8 1198.7239,-734.8 1222.3863,-734.7404 1246.0136,-734.6418"/>
<polygon fill="#000000" stroke="#000000" points="1246.15,-738.1413 1256.1345,-734.5972 1246.1191,-731.1414 1246.15,-738.1413"/>
</g>
<!-- acf6aac9&#45;d674&#45;4fda&#45;b5cf&#45;54c8b8302718 -->
<g id="node30" class="node">
<title>acf6aac9&#45;d674&#45;4fda&#45;b5cf&#45;54c8b8302718</title>
<polygon fill="#40e0d0" stroke="#40e0d0" points="1705.6063,-804.8 1237.8411,-804.8 1237.8411,-768.8 1705.6063,-768.8 1705.6063,-804.8"/>
<text text-anchor="middle" x="1471.7237" y="-782.6" font-family="Times,serif" font-size="14.00" fill="#000000">AndroidBindingModule_BindPreferencesActivity.bindAndroidInjectorFactory()</text>
</g>
<!-- 9769a20d&#45;8c67&#45;4f0c&#45;a589&#45;4356b415a55e&#45;&gt;acf6aac9&#45;d674&#45;4fda&#45;b5cf&#45;54c8b8302718 -->
<g id="edge33" class="edge">
<title>9769a20d&#45;8c67&#45;4f0c&#45;a589&#45;4356b415a55e&#45;&gt;acf6aac9&#45;d674&#45;4fda&#45;b5cf&#45;54c8b8302718</title>
<path fill="none" stroke="#000000" d="M864.8618,-769.8736C886.1264,-771.0606 907.5948,-771.8 928.0829,-771.8 928.0829,-771.8 928.0829,-771.8 1176.0402,-771.8 1192.7974,-771.8 1210.0819,-772.0433 1227.4877,-772.4678"/>
<polygon fill="#000000" stroke="#000000" points="1227.6581,-775.9735 1237.7469,-772.7383 1227.8427,-768.9759 1227.6581,-775.9735"/>
</g>
<!-- 31977075&#45;b4ea&#45;450e&#45;bcc4&#45;8966676714d2 -->
<g id="node31" class="node">
<title>31977075&#45;b4ea&#45;450e&#45;bcc4&#45;8966676714d2</title>
<polygon fill="#40e0d0" stroke="#40e0d0" points="1704.5703,-858.8 1238.8771,-858.8 1238.8771,-822.8 1704.5703,-822.8 1704.5703,-858.8"/>
<text text-anchor="middle" x="1471.7237" y="-836.6" font-family="Times,serif" font-size="14.00" fill="#000000">AndroidBindingModule_BindLogViewerActivity.bindAndroidInjectorFactory()</text>
</g>
<!-- 9769a20d&#45;8c67&#45;4f0c&#45;a589&#45;4356b415a55e&#45;&gt;31977075&#45;b4ea&#45;450e&#45;bcc4&#45;8966676714d2 -->
<g id="edge25" class="edge">
<title>9769a20d&#45;8c67&#45;4f0c&#45;a589&#45;4356b415a55e&#45;&gt;31977075&#45;b4ea&#45;450e&#45;bcc4&#45;8966676714d2</title>
<path fill="none" stroke="#000000" d="M735.4796,-770.9686C781.2041,-789.8898 858.4709,-816.8 928.0829,-816.8 928.0829,-816.8 928.0829,-816.8 1176.0402,-816.8 1215.6853,-816.8 1258.2226,-818.9699 1298.3284,-822.0049"/>
<polygon fill="#000000" stroke="#000000" points="1298.2277,-825.5075 1308.4692,-822.7943 1298.771,-818.5286 1298.2277,-825.5075"/>
</g>
<!-- 12fdccf2&#45;cd91&#45;4e17&#45;8183&#45;71d6eac223d0 -->
<g id="node32" class="node">
<title>12fdccf2&#45;cd91&#45;4e17&#45;8183&#45;71d6eac223d0</title>
<polygon fill="#40e0d0" stroke="#40e0d0" points="1697.3157,-912.8 1246.1317,-912.8 1246.1317,-876.8 1697.3157,-876.8 1697.3157,-912.8"/>
<text text-anchor="middle" x="1471.7237" y="-890.6" font-family="Times,serif" font-size="14.00" fill="#000000">AndroidBindingModule_BindContactsActivity.bindAndroidInjectorFactory()</text>
</g>
<!-- 9769a20d&#45;8c67&#45;4f0c&#45;a589&#45;4356b415a55e&#45;&gt;12fdccf2&#45;cd91&#45;4e17&#45;8183&#45;71d6eac223d0 -->
<g id="edge30" class="edge">
<title>9769a20d&#45;8c67&#45;4f0c&#45;a589&#45;4356b415a55e&#45;&gt;12fdccf2&#45;cd91&#45;4e17&#45;8183&#45;71d6eac223d0</title>
<path fill="none" stroke="#000000" d="M718.8482,-770.8568C759.3755,-799.908 845.6639,-853.8 928.0829,-853.8 928.0829,-853.8 928.0829,-853.8 1176.0402,-853.8 1193.8305,-853.8 1196.2215,-863.7312 1213.5402,-867.8 1224.8513,-870.4574 1236.5027,-872.8534 1248.3111,-875.0137"/>
<polygon fill="#000000" stroke="#000000" points="1247.8064,-878.4787 1258.2631,-876.7735 1249.0253,-871.5856 1247.8064,-878.4787"/>
</g>
</g>
</svg>
