<svg width="2652px" height="1248px"
 viewBox="0.00 0.00 2652.45 1247.60" xmlns="http://www.w3.org/2000/svg" xmlns:xlink="http://www.w3.org/1999/xlink">
<g id="graph0" class="graph" transform="scale(1.0 1.0) rotate(0) translate(14.4 1233.2)">
<title>org.owntracks.android.injection.modules.AndroidBindingModule → org.owntracks.android.injection.modules.AndroidBindingModule_BindRegionsActivity.RegionsActivitySubcomponent</title>
<polygon fill="#ffffff" stroke="transparent" points="-14.4,14.4 -14.4,-1233.2 2638.0459,-1233.2 2638.0459,14.4 -14.4,14.4"/>
<text text-anchor="middle" x="304.7055" y="-8.2" font-family="Times,serif" font-size="14.00" fill="#000000">AndroidBindingModule → AndroidBindingModule_BindRegionsActivity.RegionsActivitySubcomponent</text>
<g id="clust7" class="cluster">
<title>cluster_AndroidBindingModule</title>
<g id="a_clust7"><a xlink:href="full_org.owntracks.android.injection.modules.AndroidBindingModule.svg" xlink:title="Inherited from AndroidBindingModule">
<polygon fill="none" stroke="#000000" stroke-dasharray="5,2" points="1001.433,-120.8 1001.433,-845.8 1533.8,-845.8 1533.8,-120.8 1001.433,-120.8"/>
<text text-anchor="middle" x="1267.6165" y="-829.2" font-family="Times,serif" font-size="14.00" fill="#000000">Inherited from AndroidBindingModule</text>
</a>
</g>
</g>
<g id="clust1" class="cluster">
<title>cluster_Entry Points</title>
<polygon fill="none" stroke="#000000" points="8,-74.8 8,-151.8 175.6922,-151.8 175.6922,-74.8 8,-74.8"/>
<text text-anchor="middle" x="50.8061" y="-135.2" font-family="Times,serif" font-size="14.00" fill="#000000">Entry Points</text>
</g>
<g id="clust2" class="cluster">
<title>cluster_Dependency Graph</title>
<polygon fill="none" stroke="#000000" points="196.6922,-853.8 196.6922,-1210.8 2615.6459,-1210.8 2615.6459,-853.8 196.6922,-853.8"/>
<text text-anchor="middle" x="258.9156" y="-1194.2" font-family="Times,serif" font-size="14.00" fill="#000000">Dependency Graph</text>
</g>
<g id="clust3" class="cluster">
<title>cluster_Map&lt;Class&lt;?&gt;, Provider&lt;AndroidInjector.Factory&lt;?&gt;&gt;&gt;</title>
<path fill="none" stroke="#000000" d="M637.1954,-861.8C637.1954,-861.8 968.433,-861.8 968.433,-861.8 974.433,-861.8 980.433,-867.8 980.433,-873.8 980.433,-873.8 980.433,-926.8 980.433,-926.8 980.433,-932.8 974.433,-938.8 968.433,-938.8 968.433,-938.8 637.1954,-938.8 637.1954,-938.8 631.1954,-938.8 625.1954,-932.8 625.1954,-926.8 625.1954,-926.8 625.1954,-873.8 625.1954,-873.8 625.1954,-867.8 631.1954,-861.8 637.1954,-861.8"/>
<text text-anchor="middle" x="802.8142" y="-922.2" font-family="Times,serif" font-size="14.00" fill="#000000">Map&lt;Class&lt;?&gt;, Provider&lt;AndroidInjector.Factory&lt;?&gt;&gt;&gt;</text>
</g>
<!-- e969a360&#45;bf68&#45;48e2&#45;80ef&#45;e9c0a2a68d1f -->
<g id="node1" class="node">
<title>e969a360&#45;bf68&#45;48e2&#45;80ef&#45;e9c0a2a68d1f</title>
<polygon fill="#40e0d0" stroke="#40e0d0" stroke-width="2" points="167.5386,-118.8 16.1536,-118.8 16.1536,-114.8 12.1536,-114.8 12.1536,-110.8 16.1536,-110.8 16.1536,-90.8 12.1536,-90.8 12.1536,-86.8 16.1536,-86.8 16.1536,-82.8 167.5386,-82.8 167.5386,-118.8"/>
<polyline fill="none" stroke="#40e0d0" stroke-width="2" points="16.1536,-114.8 20.1536,-114.8 20.1536,-110.8 16.1536,-110.8 "/>
<polyline fill="none" stroke="#40e0d0" stroke-width="2" points="16.1536,-90.8 20.1536,-90.8 20.1536,-86.8 16.1536,-86.8 "/>
<text text-anchor="middle" x="91.8461" y="-96.6" font-family="Times,serif" font-size="14.00" fill="#000000">inject (RegionsActivity)</text>
</g>
<!-- 048eb774&#45;52ca&#45;403a&#45;921c&#45;92d0d94cf2d9 -->
<g id="node2" class="node">
<title>048eb774&#45;52ca&#45;403a&#45;921c&#45;92d0d94cf2d9</title>
<polygon fill="#40e0d0" stroke="#40e0d0" points="469.3495,-901.8 242.4539,-901.8 242.4539,-865.8 469.3495,-865.8 469.3495,-901.8"/>
<text text-anchor="middle" x="355.9017" y="-879.6" font-family="Times,serif" font-size="14.00" fill="#000000">DispatchingAndroidInjector&lt;Object&gt;</text>
</g>
<!-- e969a360&#45;bf68&#45;48e2&#45;80ef&#45;e9c0a2a68d1f&#45;&gt;048eb774&#45;52ca&#45;403a&#45;921c&#45;92d0d94cf2d9 -->
<g id="edge3" class="edge">
<title>e969a360&#45;bf68&#45;48e2&#45;80ef&#45;e9c0a2a68d1f&#45;&gt;048eb774&#45;52ca&#45;403a&#45;921c&#45;92d0d94cf2d9</title>
<path fill="none" stroke="#000000" d="M97.9845,-119.0022C132.706,-221.9613 304.4272,-731.1634 346.557,-856.0902"/>
<polygon fill="#000000" stroke="#000000" points="343.2848,-857.3403 349.7969,-865.6975 349.9178,-855.1034 343.2848,-857.3403"/>
</g>
<!-- ebbf2d8c&#45;eb37&#45;4043&#45;b579&#45;fe04da38b978 -->
<g id="node3" class="node">
<title>ebbf2d8c&#45;eb37&#45;4043&#45;b579&#45;fe04da38b978</title>
<polygon fill="#40e0d0" stroke="#40e0d0" points="507.321,-970.8 204.4824,-970.8 204.4824,-934.8 507.321,-934.8 507.321,-970.8"/>
<text text-anchor="middle" x="355.9017" y="-948.6" font-family="Times,serif" font-size="14.00" fill="#000000">RegionsMvvm.ViewModel&lt;RegionsMvvm.View&gt;</text>
</g>
<!-- e969a360&#45;bf68&#45;48e2&#45;80ef&#45;e9c0a2a68d1f&#45;&gt;ebbf2d8c&#45;eb37&#45;4043&#45;b579&#45;fe04da38b978 -->
<g id="edge4" class="edge">
<title>e969a360&#45;bf68&#45;48e2&#45;80ef&#45;e9c0a2a68d1f&#45;&gt;ebbf2d8c&#45;eb37&#45;4043&#45;b579&#45;fe04da38b978</title>
<path fill="none" stroke="#000000" d="M92.9828,-118.8241C100.3154,-232.6445 142.3547,-848.9459 196.6922,-910.8 203.3426,-918.3704 211.1802,-924.6522 219.7518,-929.8569"/>
<polygon fill="#000000" stroke="#000000" points="218.1046,-932.9455 228.5515,-934.7104 221.4854,-926.816 218.1046,-932.9455"/>
</g>
<!-- 5e50fcf6&#45;d7a2&#45;4583&#45;94c7&#45;82bd576aa3a9 -->
<g id="node4" class="node">
<title>5e50fcf6&#45;d7a2&#45;4583&#45;94c7&#45;82bd576aa3a9</title>
<polygon fill="#7fffd4" stroke="#7fffd4" points="1676.0653,-963.4019 1569.7199,-963.4019 1569.7199,-922.1981 1676.0653,-922.1981 1676.0653,-963.4019"/>
<text text-anchor="middle" x="1622.8926" y="-947" font-family="Times,serif" font-size="14.00" fill="#000000">@PerActivity</text>
<text text-anchor="middle" x="1622.8926" y="-930.2" font-family="Times,serif" font-size="14.00" fill="#000000">DrawerProvider</text>
</g>
<!-- e969a360&#45;bf68&#45;48e2&#45;80ef&#45;e9c0a2a68d1f&#45;&gt;5e50fcf6&#45;d7a2&#45;4583&#45;94c7&#45;82bd576aa3a9 -->
<g id="edge1" class="edge">
<title>e969a360&#45;bf68&#45;48e2&#45;80ef&#45;e9c0a2a68d1f&#45;&gt;5e50fcf6&#45;d7a2&#45;4583&#45;94c7&#45;82bd576aa3a9</title>
<path fill="none" stroke="#000000" d="M167.8235,-100.8C220.5892,-100.8 292.5238,-100.8 355.9017,-100.8 355.9017,-100.8 355.9017,-100.8 1267.6165,-100.8 1326.8752,-100.8 1492.3956,-74.4059 1533.8,-116.8 1595.6377,-180.1159 1514.8852,-838.3891 1562.8,-912.8 1563.1452,-913.3361 1563.5031,-913.8631 1563.873,-914.3809"/>
<polygon fill="#000000" stroke="#000000" points="1561.4851,-916.9573 1570.8026,-922.0006 1566.6638,-912.2476 1561.4851,-916.9573"/>
</g>
<!-- c913fb15&#45;95db&#45;4ba5&#45;9418&#45;246141b0dfbd -->
<g id="node5" class="node">
<title>c913fb15&#45;95db&#45;4ba5&#45;9418&#45;246141b0dfbd</title>
<polygon fill="#76ee00" stroke="#76ee00" points="2607.4278,-1017.4019 2525.3023,-1017.4019 2525.3023,-976.1981 2607.4278,-976.1981 2607.4278,-1017.4019"/>
<text text-anchor="middle" x="2566.3651" y="-1001" font-family="Times,serif" font-size="14.00" fill="#000000">@Singleton</text>
<text text-anchor="middle" x="2566.3651" y="-984.2" font-family="Times,serif" font-size="14.00" fill="#000000">Preferences</text>
</g>
<!-- e969a360&#45;bf68&#45;48e2&#45;80ef&#45;e9c0a2a68d1f&#45;&gt;c913fb15&#45;95db&#45;4ba5&#45;9418&#45;246141b0dfbd -->
<g id="edge5" class="edge">
<title>e969a360&#45;bf68&#45;48e2&#45;80ef&#45;e9c0a2a68d1f&#45;&gt;c913fb15&#45;95db&#45;4ba5&#45;9418&#45;246141b0dfbd</title>
<path fill="none" stroke="#000000" d="M129.3507,-82.7891C179.6799,-60.3148 272.4197,-24.8 355.9017,-24.8 355.9017,-24.8 355.9017,-24.8 2487.5843,-24.8 2535.9415,-24.8 2560.7378,-799.1866 2565.5072,-965.5602"/>
<polygon fill="#000000" stroke="#000000" points="2562.0224,-966.1519 2565.8042,-976.0487 2569.0196,-965.9536 2562.0224,-966.1519"/>
</g>
<!-- c121b7a3&#45;aa3e&#45;4067&#45;9869&#45;3dd1018e58a0 -->
<g id="node6" class="node">
<title>c121b7a3&#45;aa3e&#45;4067&#45;9869&#45;3dd1018e58a0</title>
<polygon fill="#7fffd4" stroke="#7fffd4" points="1669.8276,-903.4019 1575.9576,-903.4019 1575.9576,-862.1981 1669.8276,-862.1981 1669.8276,-903.4019"/>
<text text-anchor="middle" x="1622.8926" y="-887" font-family="Times,serif" font-size="14.00" fill="#000000">@PerActivity</text>
<text text-anchor="middle" x="1622.8926" y="-870.2" font-family="Times,serif" font-size="14.00" fill="#000000">Navigator</text>
</g>
<!-- e969a360&#45;bf68&#45;48e2&#45;80ef&#45;e9c0a2a68d1f&#45;&gt;c121b7a3&#45;aa3e&#45;4067&#45;9869&#45;3dd1018e58a0 -->
<g id="edge2" class="edge">
<title>e969a360&#45;bf68&#45;48e2&#45;80ef&#45;e9c0a2a68d1f&#45;&gt;c121b7a3&#45;aa3e&#45;4067&#45;9869&#45;3dd1018e58a0</title>
<path fill="none" stroke="#000000" d="M167.6945,-84.022C220.2485,-73.8424 291.9867,-62.8 355.9017,-62.8 355.9017,-62.8 355.9017,-62.8 1267.6165,-62.8 1391.2701,-62.8 1456.8657,.1355 1544.8,-86.8 1600.1978,-141.5685 1618.4801,-711.9561 1622.1491,-851.9193"/>
<polygon fill="#000000" stroke="#000000" points="1618.6514,-852.0581 1622.4065,-861.9652 1625.6491,-851.8788 1618.6514,-852.0581"/>
</g>
<!-- f2116976&#45;caa9&#45;49cf&#45;a010&#45;817850f0f27f -->
<g id="node19" class="node">
<title>f2116976&#45;caa9&#45;49cf&#45;a010&#45;817850f0f27f</title>
<polygon fill="#40e0d0" stroke="#40e0d0" points="972.5519,-905.8 645.0765,-905.8 645.0765,-909.8 633.0765,-909.8 633.0765,-869.8 972.5519,-869.8 972.5519,-905.8"/>
<polyline fill="none" stroke="#40e0d0" points="633.0765,-905.8 645.0765,-905.8 "/>
<text text-anchor="middle" x="802.8142" y="-883.6" font-family="Times,serif" font-size="14.00" fill="#000000">Map&lt;Class&lt;?&gt;, Provider&lt;AndroidInjector.Factory&lt;?&gt;&gt;&gt;</text>
</g>
<!-- 048eb774&#45;52ca&#45;403a&#45;921c&#45;92d0d94cf2d9&#45;&gt;f2116976&#45;caa9&#45;49cf&#45;a010&#45;817850f0f27f -->
<g id="edge6" class="edge">
<title>048eb774&#45;52ca&#45;403a&#45;921c&#45;92d0d94cf2d9&#45;&gt;f2116976&#45;caa9&#45;49cf&#45;a010&#45;817850f0f27f</title>
<path fill="none" stroke="#000000" d="M469.5435,-884.8171C516.0925,-885.2338 571.1027,-885.7261 622.8716,-886.1895"/>
<polygon fill="#000000" stroke="#000000" points="623.1477,-889.692 633.1787,-886.2817 623.2104,-882.6923 623.1477,-889.692"/>
</g>
<!-- 2668dff9&#45;10b3&#45;418b&#45;9296&#45;74210e0f5dd3 -->
<g id="node7" class="node">
<title>2668dff9&#45;10b3&#45;418b&#45;9296&#45;74210e0f5dd3</title>
<polygon fill="#7fffd4" stroke="#7fffd4" points="867.069,-988.4019 738.5594,-988.4019 738.5594,-947.1981 867.069,-947.1981 867.069,-988.4019"/>
<text text-anchor="middle" x="802.8142" y="-972" font-family="Times,serif" font-size="14.00" fill="#000000">@PerActivity</text>
<text text-anchor="middle" x="802.8142" y="-955.2" font-family="Times,serif" font-size="14.00" fill="#000000">RegionsViewModel</text>
</g>
<!-- ebbf2d8c&#45;eb37&#45;4043&#45;b579&#45;fe04da38b978&#45;&gt;2668dff9&#45;10b3&#45;418b&#45;9296&#45;74210e0f5dd3 -->
<g id="edge7" class="edge">
<title>ebbf2d8c&#45;eb37&#45;4043&#45;b579&#45;fe04da38b978&#45;&gt;2668dff9&#45;10b3&#45;418b&#45;9296&#45;74210e0f5dd3</title>
<path fill="none" stroke="#000000" stroke-dasharray="1,5" d="M507.2059,-957.8783C581.653,-960.377 668.0694,-963.2775 728.1636,-965.2945"/>
<polygon fill="#000000" stroke="#000000" points="728.2097,-968.7979 738.3215,-965.6354 728.4445,-961.8018 728.2097,-968.7979"/>
<text text-anchor="middle" x="570.1533" y="-965" font-family="Times,serif" font-size="14.00" fill="#000000">delegates</text>
</g>
<!-- e9c2653c&#45;1532&#45;49fa&#45;b2da&#45;da6d82d3dae0 -->
<g id="node13" class="node">
<title>e9c2653c&#45;1532&#45;49fa&#45;b2da&#45;da6d82d3dae0</title>
<polygon fill="#76ee00" stroke="#76ee00" points="2180.7357,-957.4019 2098.6102,-957.4019 2098.6102,-916.1981 2180.7357,-916.1981 2180.7357,-957.4019"/>
<text text-anchor="middle" x="2139.6729" y="-941" font-family="Times,serif" font-size="14.00" fill="#000000">@Singleton</text>
<text text-anchor="middle" x="2139.6729" y="-924.2" font-family="Times,serif" font-size="14.00" fill="#000000">Scheduler</text>
</g>
<!-- 5e50fcf6&#45;d7a2&#45;4583&#45;94c7&#45;82bd576aa3a9&#45;&gt;e9c2653c&#45;1532&#45;49fa&#45;b2da&#45;da6d82d3dae0 -->
<g id="edge9" class="edge">
<title>5e50fcf6&#45;d7a2&#45;4583&#45;94c7&#45;82bd576aa3a9&#45;&gt;e9c2653c&#45;1532&#45;49fa&#45;b2da&#45;da6d82d3dae0</title>
<path fill="none" stroke="#000000" d="M1676.0662,-940.5726C1690.4773,-940.1307 1706.0767,-939.8 1720.4852,-939.8 1720.4852,-939.8 1720.4852,-939.8 1967.6375,-939.8 2008.1091,-939.8 2053.9282,-938.9597 2088.0989,-938.1686"/>
<polygon fill="#000000" stroke="#000000" points="2088.3969,-941.6626 2098.3108,-937.9256 2088.2303,-934.6646 2088.3969,-941.6626"/>
</g>
<!-- 3eda2017&#45;60fc&#45;41bf&#45;8588&#45;3e245fa9df86 -->
<g id="node17" class="node">
<title>3eda2017&#45;60fc&#45;41bf&#45;8588&#45;3e245fa9df86</title>
<polygon fill="#7fffd4" stroke="#7fffd4" points="1896.6133,-903.4019 1765.9673,-903.4019 1765.9673,-862.1981 1896.6133,-862.1981 1896.6133,-903.4019"/>
<text text-anchor="middle" x="1831.2903" y="-887" font-family="Times,serif" font-size="14.00" fill="#000000">@PerActivity</text>
<text text-anchor="middle" x="1831.2903" y="-870.2" font-family="Times,serif" font-size="14.00" fill="#000000">AppCompatActivity</text>
</g>
<!-- 5e50fcf6&#45;d7a2&#45;4583&#45;94c7&#45;82bd576aa3a9&#45;&gt;3eda2017&#45;60fc&#45;41bf&#45;8588&#45;3e245fa9df86 -->
<g id="edge8" class="edge">
<title>5e50fcf6&#45;d7a2&#45;4583&#45;94c7&#45;82bd576aa3a9&#45;&gt;3eda2017&#45;60fc&#45;41bf&#45;8588&#45;3e245fa9df86</title>
<path fill="none" stroke="#000000" d="M1676.0194,-927.5042C1700.3996,-920.4849 1729.7358,-912.0387 1756.3127,-904.3869"/>
<polygon fill="#000000" stroke="#000000" points="1757.3238,-907.738 1765.965,-901.6079 1755.387,-901.0113 1757.3238,-907.738"/>
</g>
<!-- c121b7a3&#45;aa3e&#45;4067&#45;9869&#45;3dd1018e58a0&#45;&gt;3eda2017&#45;60fc&#45;41bf&#45;8588&#45;3e245fa9df86 -->
<g id="edge15" class="edge">
<title>c121b7a3&#45;aa3e&#45;4067&#45;9869&#45;3dd1018e58a0&#45;&gt;3eda2017&#45;60fc&#45;41bf&#45;8588&#45;3e245fa9df86</title>
<path fill="none" stroke="#000000" d="M1669.6611,-882.8C1695.1026,-882.8 1727.187,-882.8 1756.0509,-882.8"/>
<polygon fill="#000000" stroke="#000000" points="1756.11,-886.3001 1766.11,-882.8 1756.11,-879.3001 1756.11,-886.3001"/>
</g>
<!-- 2668dff9&#45;10b3&#45;418b&#45;9296&#45;74210e0f5dd3&#45;&gt;c121b7a3&#45;aa3e&#45;4067&#45;9869&#45;3dd1018e58a0 -->
<g id="edge14" class="edge">
<title>2668dff9&#45;10b3&#45;418b&#45;9296&#45;74210e0f5dd3&#45;&gt;c121b7a3&#45;aa3e&#45;4067&#45;9869&#45;3dd1018e58a0</title>
<path fill="none" stroke="#000000" d="M867.1644,-961.1302C1022.7725,-945.0016 1417.4928,-904.0894 1565.5888,-888.7395"/>
<polygon fill="#000000" stroke="#000000" points="1566.233,-892.1915 1575.8188,-887.6791 1565.5112,-885.2288 1566.233,-892.1915"/>
</g>
<!-- 3306be4e&#45;178f&#45;4b3b&#45;9db9&#45;7ba85deed63c -->
<g id="node8" class="node">
<title>3306be4e&#45;178f&#45;4b3b&#45;9db9&#45;7ba85deed63c</title>
<polygon fill="#76ee00" stroke="#76ee00" points="1683.0779,-1067.4019 1562.7073,-1067.4019 1562.7073,-1026.1981 1683.0779,-1026.1981 1683.0779,-1067.4019"/>
<text text-anchor="middle" x="1622.8926" y="-1051" font-family="Times,serif" font-size="14.00" fill="#000000">@Singleton</text>
<text text-anchor="middle" x="1622.8926" y="-1034.2" font-family="Times,serif" font-size="14.00" fill="#000000">LocationProcessor</text>
</g>
<!-- 2668dff9&#45;10b3&#45;418b&#45;9296&#45;74210e0f5dd3&#45;&gt;3306be4e&#45;178f&#45;4b3b&#45;9db9&#45;7ba85deed63c -->
<g id="edge29" class="edge">
<title>2668dff9&#45;10b3&#45;418b&#45;9296&#45;74210e0f5dd3&#45;&gt;3306be4e&#45;178f&#45;4b3b&#45;9db9&#45;7ba85deed63c</title>
<path fill="none" stroke="#000000" d="M867.1644,-973.999C1018.4653,-988.5742 1395.8242,-1024.926 1552.7343,-1040.0415"/>
<polygon fill="#000000" stroke="#000000" points="1552.4566,-1043.5309 1562.7461,-1041.006 1553.1278,-1036.5631 1552.4566,-1043.5309"/>
</g>
<!-- 3306be4e&#45;178f&#45;4b3b&#45;9db9&#45;7ba85deed63c&#45;&gt;c913fb15&#45;95db&#45;4ba5&#45;9418&#45;246141b0dfbd -->
<g id="edge10" class="edge">
<title>3306be4e&#45;178f&#45;4b3b&#45;9db9&#45;7ba85deed63c&#45;&gt;c913fb15&#45;95db&#45;4ba5&#45;9418&#45;246141b0dfbd</title>
<path fill="none" stroke="#000000" d="M1683.1343,-1046.9354C1753.6154,-1047.8139 1865.6367,-1051.6577 1904.5954,-1066.8 1971.2597,-1092.7107 1963.6513,-1141.8458 2030.6796,-1166.8 2129.268,-1203.5039 2161.9672,-1176.8 2267.1663,-1176.8 2267.1663,-1176.8 2267.1663,-1176.8 2487.5843,-1176.8 2519.8168,-1176.8 2547.3922,-1078.7096 2559.6213,-1027.3505"/>
<polygon fill="#000000" stroke="#000000" points="2563.068,-1027.9815 2561.9269,-1017.4483 2556.2503,-1026.3941 2563.068,-1027.9815"/>
</g>
<!-- bae0ed7f&#45;fbe1&#45;4f0b&#45;9a05&#45;de7b4af28403 -->
<g id="node9" class="node">
<title>bae0ed7f&#45;fbe1&#45;4f0b&#45;9a05&#45;de7b4af28403</title>
<polygon fill="#76ee00" stroke="#76ee00" points="1891.1908,-1037.4019 1771.3898,-1037.4019 1771.3898,-996.1981 1891.1908,-996.1981 1891.1908,-1037.4019"/>
<text text-anchor="middle" x="1831.2903" y="-1021" font-family="Times,serif" font-size="14.00" fill="#000000">@Singleton</text>
<text text-anchor="middle" x="1831.2903" y="-1004.2" font-family="Times,serif" font-size="14.00" fill="#000000">MessageProcessor</text>
</g>
<!-- 3306be4e&#45;178f&#45;4b3b&#45;9db9&#45;7ba85deed63c&#45;&gt;bae0ed7f&#45;fbe1&#45;4f0b&#45;9a05&#45;de7b4af28403 -->
<g id="edge31" class="edge">
<title>3306be4e&#45;178f&#45;4b3b&#45;9db9&#45;7ba85deed63c&#45;&gt;bae0ed7f&#45;fbe1&#45;4f0b&#45;9a05&#45;de7b4af28403</title>
<path fill="none" stroke="#000000" d="M1683.1698,-1031.9368C1707.6843,-1027.7399 1736.1689,-1023.5647 1761.5718,-1020.4262"/>
<polygon fill="#000000" stroke="#000000" points="1761.997,-1023.9003 1771.5086,-1019.2335 1761.1628,-1016.9502 1761.997,-1023.9003"/>
</g>
<!-- 0f29930c&#45;2722&#45;47ef&#45;b51c&#45;dc74e0099ad6 -->
<g id="node10" class="node">
<title>0f29930c&#45;2722&#45;47ef&#45;b51c&#45;dc74e0099ad6</title>
<polygon fill="#76ee00" stroke="#76ee00" points="1879.105,-1117.4019 1783.4756,-1117.4019 1783.4756,-1076.1981 1879.105,-1076.1981 1879.105,-1117.4019"/>
<text text-anchor="middle" x="1831.2903" y="-1101" font-family="Times,serif" font-size="14.00" fill="#000000">@Singleton</text>
<text text-anchor="middle" x="1831.2903" y="-1084.2" font-family="Times,serif" font-size="14.00" fill="#000000">LocationRepo</text>
</g>
<!-- 3306be4e&#45;178f&#45;4b3b&#45;9db9&#45;7ba85deed63c&#45;&gt;0f29930c&#45;2722&#45;47ef&#45;b51c&#45;dc74e0099ad6 -->
<g id="edge32" class="edge">
<title>3306be4e&#45;178f&#45;4b3b&#45;9db9&#45;7ba85deed63c&#45;&gt;0f29930c&#45;2722&#45;47ef&#45;b51c&#45;dc74e0099ad6</title>
<path fill="none" stroke="#000000" d="M1683.1698,-1061.2621C1711.5414,-1068.0691 1745.2305,-1076.152 1773.3061,-1082.8881"/>
<polygon fill="#000000" stroke="#000000" points="1772.8348,-1086.3743 1783.3755,-1085.304 1774.468,-1079.5675 1772.8348,-1086.3743"/>
</g>
<!-- f5cdb6bc&#45;98fe&#45;45b3&#45;9017&#45;86a7400f72bc -->
<g id="node11" class="node">
<title>f5cdb6bc&#45;98fe&#45;45b3&#45;9017&#45;86a7400f72bc</title>
<polygon fill="#76ee00" stroke="#76ee00" points="1904.401,-1177.4019 1758.1796,-1177.4019 1758.1796,-1136.1981 1904.401,-1136.1981 1904.401,-1177.4019"/>
<text text-anchor="middle" x="1831.2903" y="-1161" font-family="Times,serif" font-size="14.00" fill="#000000">@Singleton</text>
<text text-anchor="middle" x="1831.2903" y="-1144.2" font-family="Times,serif" font-size="14.00" fill="#000000">DeviceMetricsProvider</text>
</g>
<!-- 3306be4e&#45;178f&#45;4b3b&#45;9db9&#45;7ba85deed63c&#45;&gt;f5cdb6bc&#45;98fe&#45;45b3&#45;9017&#45;86a7400f72bc -->
<g id="edge33" class="edge">
<title>3306be4e&#45;178f&#45;4b3b&#45;9db9&#45;7ba85deed63c&#45;&gt;f5cdb6bc&#45;98fe&#45;45b3&#45;9017&#45;86a7400f72bc</title>
<path fill="none" stroke="#000000" d="M1654.9072,-1067.5653C1681.8232,-1084.5797 1721.6213,-1108.7131 1757.9852,-1126.8 1761.4865,-1128.5415 1765.1145,-1130.2663 1768.7978,-1131.9565"/>
<polygon fill="#000000" stroke="#000000" points="1767.4686,-1135.1961 1778.0268,-1136.077 1770.3224,-1128.8042 1767.4686,-1135.1961"/>
</g>
<!-- bae0ed7f&#45;fbe1&#45;4f0b&#45;9a05&#45;de7b4af28403&#45;&gt;c913fb15&#45;95db&#45;4ba5&#45;9418&#45;246141b0dfbd -->
<g id="edge12" class="edge">
<title>bae0ed7f&#45;fbe1&#45;4f0b&#45;9a05&#45;de7b4af28403&#45;&gt;c913fb15&#45;95db&#45;4ba5&#45;9418&#45;246141b0dfbd</title>
<path fill="none" stroke="#000000" d="M1891.0836,-1029.4096C1914.8037,-1033.4033 1942.3969,-1036.8 1967.6375,-1036.8 1967.6375,-1036.8 1967.6375,-1036.8 2487.5843,-1036.8 2503.1632,-1036.8 2518.7805,-1030.5043 2531.9537,-1022.9082"/>
<polygon fill="#000000" stroke="#000000" points="2534.006,-1025.7536 2540.6526,-1017.503 2530.3115,-1019.8079 2534.006,-1025.7536"/>
</g>
<!-- bae0ed7f&#45;fbe1&#45;4f0b&#45;9a05&#45;de7b4af28403&#45;&gt;3306be4e&#45;178f&#45;4b3b&#45;9db9&#45;7ba85deed63c -->
<g id="edge30" class="edge">
<title>bae0ed7f&#45;fbe1&#45;4f0b&#45;9a05&#45;de7b4af28403&#45;&gt;3306be4e&#45;178f&#45;4b3b&#45;9db9&#45;7ba85deed63c</title>
<path fill="none" stroke="#000000" d="M1771.5086,-1031.5783C1747.048,-1035.7754 1718.5698,-1039.9577 1693.1256,-1043.1102"/>
<polygon fill="#000000" stroke="#000000" points="1692.6798,-1039.6385 1683.1698,-1044.3087 1693.5165,-1046.5883 1692.6798,-1039.6385"/>
</g>
<!-- d89bd431&#45;4798&#45;40f9&#45;9802&#45;364794eb2996 -->
<g id="node12" class="node">
<title>d89bd431&#45;4798&#45;40f9&#45;9802&#45;364794eb2996</title>
<polygon fill="#76ee00" stroke="#76ee00" points="2180.7357,-1017.4019 2098.6102,-1017.4019 2098.6102,-976.1981 2180.7357,-976.1981 2180.7357,-1017.4019"/>
<text text-anchor="middle" x="2139.6729" y="-1001" font-family="Times,serif" font-size="14.00" fill="#000000">@Singleton</text>
<text text-anchor="middle" x="2139.6729" y="-984.2" font-family="Times,serif" font-size="14.00" fill="#000000">Parser</text>
</g>
<!-- bae0ed7f&#45;fbe1&#45;4f0b&#45;9a05&#45;de7b4af28403&#45;&gt;d89bd431&#45;4798&#45;40f9&#45;9802&#45;364794eb2996 -->
<g id="edge35" class="edge">
<title>bae0ed7f&#45;fbe1&#45;4f0b&#45;9a05&#45;de7b4af28403&#45;&gt;d89bd431&#45;4798&#45;40f9&#45;9802&#45;364794eb2996</title>
<path fill="none" stroke="#000000" d="M1891.1152,-1012.9201C1948.3786,-1009.2063 2033.8562,-1003.6627 2088.1688,-1000.1403"/>
<polygon fill="#000000" stroke="#000000" points="2088.5132,-1003.6254 2098.2657,-999.4854 2088.0601,-996.6401 2088.5132,-1003.6254"/>
</g>
<!-- bae0ed7f&#45;fbe1&#45;4f0b&#45;9a05&#45;de7b4af28403&#45;&gt;e9c2653c&#45;1532&#45;49fa&#45;b2da&#45;da6d82d3dae0 -->
<g id="edge34" class="edge">
<title>bae0ed7f&#45;fbe1&#45;4f0b&#45;9a05&#45;de7b4af28403&#45;&gt;e9c2653c&#45;1532&#45;49fa&#45;b2da&#45;da6d82d3dae0</title>
<path fill="none" stroke="#000000" d="M1891.1152,-1001.2803C1948.4977,-986.3943 2034.2118,-964.1585 2088.5071,-950.0733"/>
<polygon fill="#000000" stroke="#000000" points="2089.465,-953.4408 2098.2657,-947.5418 2087.7072,-946.6651 2089.465,-953.4408"/>
</g>
<!-- 24188ca5&#45;1ed3&#45;4c79&#45;8e83&#45;350860869051 -->
<g id="node14" class="node">
<title>24188ca5&#45;1ed3&#45;4c79&#45;8e83&#45;350860869051</title>
<polygon fill="#76ee00" stroke="#76ee00" points="2187.753,-1097.4019 2091.5929,-1097.4019 2091.5929,-1056.1981 2187.753,-1056.1981 2187.753,-1097.4019"/>
<text text-anchor="middle" x="2139.6729" y="-1081" font-family="Times,serif" font-size="14.00" fill="#000000">@Singleton</text>
<text text-anchor="middle" x="2139.6729" y="-1064.2" font-family="Times,serif" font-size="14.00" fill="#000000">ServiceBridge</text>
</g>
<!-- bae0ed7f&#45;fbe1&#45;4f0b&#45;9a05&#45;de7b4af28403&#45;&gt;24188ca5&#45;1ed3&#45;4c79&#45;8e83&#45;350860869051 -->
<g id="edge36" class="edge">
<title>bae0ed7f&#45;fbe1&#45;4f0b&#45;9a05&#45;de7b4af28403&#45;&gt;24188ca5&#45;1ed3&#45;4c79&#45;8e83&#45;350860869051</title>
<path fill="none" stroke="#000000" d="M1891.4742,-1034.2613C1901.8084,-1036.9772 1912.4765,-1039.6056 1922.5954,-1041.8 1976.0688,-1053.3964 2037.7142,-1062.9793 2081.6171,-1069.168"/>
<polygon fill="#000000" stroke="#000000" points="2081.1538,-1072.6372 2091.5414,-1070.5518 2082.1205,-1065.7043 2081.1538,-1072.6372"/>
</g>
<!-- 1238cf58&#45;f7d6&#45;4a9d&#45;b475&#45;65219f99a48c -->
<g id="node15" class="node">
<title>1238cf58&#45;f7d6&#45;4a9d&#45;b475&#45;65219f99a48c</title>
<polygon fill="#76ee00" stroke="#76ee00" points="2225.9636,-1157.4019 2053.3823,-1157.4019 2053.3823,-1116.1981 2225.9636,-1116.1981 2225.9636,-1157.4019"/>
<text text-anchor="middle" x="2139.6729" y="-1141" font-family="Times,serif" font-size="14.00" fill="#000000">@Singleton</text>
<text text-anchor="middle" x="2139.6729" y="-1124.2" font-family="Times,serif" font-size="14.00" fill="#000000">RunThingsOnOtherThreads</text>
</g>
<!-- bae0ed7f&#45;fbe1&#45;4f0b&#45;9a05&#45;de7b4af28403&#45;&gt;1238cf58&#45;f7d6&#45;4a9d&#45;b475&#45;65219f99a48c -->
<g id="edge37" class="edge">
<title>bae0ed7f&#45;fbe1&#45;4f0b&#45;9a05&#45;de7b4af28403&#45;&gt;1238cf58&#45;f7d6&#45;4a9d&#45;b475&#45;65219f99a48c</title>
<path fill="none" stroke="#000000" d="M1875.1365,-1037.5544C1924.1788,-1060.5958 2000.6709,-1095.9717 2030.6796,-1106.8 2036.6766,-1108.9639 2042.9066,-1111.0617 2049.2139,-1113.0754"/>
<polygon fill="#000000" stroke="#000000" points="2048.5785,-1116.5429 2059.1667,-1116.1677 2050.6555,-1109.8582 2048.5785,-1116.5429"/>
</g>
<!-- 3f597a3b&#45;33a7&#45;49ed&#45;9779&#45;780295a1ebec -->
<g id="node16" class="node">
<title>3f597a3b&#45;33a7&#45;49ed&#45;9779&#45;780295a1ebec</title>
<polygon fill="#76ee00" stroke="#76ee00" points="2450.294,-1017.4019 2323.4566,-1017.4019 2323.4566,-976.1981 2450.294,-976.1981 2450.294,-1017.4019"/>
<text text-anchor="middle" x="2386.8753" y="-1001" font-family="Times,serif" font-size="14.00" fill="#000000">@Singleton</text>
<text text-anchor="middle" x="2386.8753" y="-984.2" font-family="Times,serif" font-size="14.00" fill="#000000">EncryptionProvider</text>
</g>
<!-- d89bd431&#45;4798&#45;40f9&#45;9802&#45;364794eb2996&#45;&gt;3f597a3b&#45;33a7&#45;49ed&#45;9779&#45;780295a1ebec -->
<g id="edge38" class="edge">
<title>d89bd431&#45;4798&#45;40f9&#45;9802&#45;364794eb2996&#45;&gt;3f597a3b&#45;33a7&#45;49ed&#45;9779&#45;780295a1ebec</title>
<path fill="none" stroke="#000000" d="M2180.7709,-996.8C2216.7406,-996.8 2269.8662,-996.8 2313.1713,-996.8"/>
<polygon fill="#000000" stroke="#000000" points="2313.3833,-1000.3001 2323.3832,-996.8 2313.3832,-993.3001 2313.3833,-1000.3001"/>
</g>
<!-- e9c2653c&#45;1532&#45;49fa&#45;b2da&#45;da6d82d3dae0&#45;&gt;c913fb15&#45;95db&#45;4ba5&#45;9418&#45;246141b0dfbd -->
<g id="edge13" class="edge">
<title>e9c2653c&#45;1532&#45;49fa&#45;b2da&#45;da6d82d3dae0&#45;&gt;c913fb15&#45;95db&#45;4ba5&#45;9418&#45;246141b0dfbd</title>
<path fill="none" stroke="#000000" d="M2180.9811,-941.128C2210.3001,-943.8306 2250.6049,-946.8 2286.1663,-946.8 2286.1663,-946.8 2286.1663,-946.8 2487.5843,-946.8 2506.9488,-946.8 2525.4063,-957.7021 2539.5816,-969.3248"/>
<polygon fill="#000000" stroke="#000000" points="2537.5775,-972.222 2547.4075,-976.1744 2542.1878,-966.9546 2537.5775,-972.222"/>
</g>
<!-- 3f597a3b&#45;33a7&#45;49ed&#45;9779&#45;780295a1ebec&#45;&gt;c913fb15&#45;95db&#45;4ba5&#45;9418&#45;246141b0dfbd -->
<g id="edge11" class="edge">
<title>3f597a3b&#45;33a7&#45;49ed&#45;9779&#45;780295a1ebec&#45;&gt;c913fb15&#45;95db&#45;4ba5&#45;9418&#45;246141b0dfbd</title>
<path fill="none" stroke="#000000" d="M2450.1567,-996.8C2471.3859,-996.8 2494.7848,-996.8 2514.9879,-996.8"/>
<polygon fill="#000000" stroke="#000000" points="2515.2331,-1000.3001 2525.2331,-996.8 2515.2331,-993.3001 2515.2331,-1000.3001"/>
</g>
<!-- 581d7000&#45;089a&#45;456d&#45;aed1&#45;84fd5050ef5d -->
<g id="node18" class="node">
<title>581d7000&#45;089a&#45;456d&#45;aed1&#45;84fd5050ef5d</title>
<polygon fill="#40e0d0" stroke="#40e0d0" points="2248.6596,-897.8 2075.2862,-897.8 2030.6863,-861.8 2204.0597,-861.8 2248.6596,-897.8"/>
<text text-anchor="middle" x="2139.6729" y="-875.6" font-family="Times,serif" font-size="14.00" fill="#000000">RegionsActivity</text>
</g>
<!-- 3eda2017&#45;60fc&#45;41bf&#45;8588&#45;3e245fa9df86&#45;&gt;581d7000&#45;089a&#45;456d&#45;aed1&#45;84fd5050ef5d -->
<g id="edge39" class="edge">
<title>3eda2017&#45;60fc&#45;41bf&#45;8588&#45;3e245fa9df86&#45;&gt;581d7000&#45;089a&#45;456d&#45;aed1&#45;84fd5050ef5d</title>
<path fill="none" stroke="#000000" stroke-dasharray="1,5" d="M1896.6903,-882.1638C1939.4413,-881.7479 1996.0065,-881.1976 2043.8028,-880.7326"/>
<polygon fill="#000000" stroke="#000000" points="2043.8954,-884.232 2053.8608,-880.6348 2043.8272,-877.2323 2043.8954,-884.232"/>
<text text-anchor="middle" x="1967.6375" y="-885" font-family="Times,serif" font-size="14.00" fill="#000000">delegates</text>
</g>
<!-- be915703&#45;bef3&#45;4702&#45;a2e6&#45;37cb2d01ad05 -->
<g id="node20" class="node">
<title>be915703&#45;bef3&#45;4702&#45;a2e6&#45;37cb2d01ad05</title>
<polygon fill="#40e0d0" stroke="#40e0d0" points="1486.2113,-164.8 1049.0217,-164.8 1049.0217,-128.8 1486.2113,-128.8 1486.2113,-164.8"/>
<text text-anchor="middle" x="1267.6165" y="-142.6" font-family="Times,serif" font-size="14.00" fill="#000000">AndroidBindingModule_BindEditorActivity.bindAndroidInjectorFactory()</text>
</g>
<!-- f2116976&#45;caa9&#45;49cf&#45;a010&#45;817850f0f27f&#45;&gt;be915703&#45;bef3&#45;4702&#45;a2e6&#45;37cb2d01ad05 -->
<g id="edge27" class="edge">
<title>f2116976&#45;caa9&#45;49cf&#45;a010&#45;817850f0f27f&#45;&gt;be915703&#45;bef3&#45;4702&#45;a2e6&#45;37cb2d01ad05</title>
<path fill="none" stroke="#000000" d="M805.1292,-869.49C818.433,-767.3288 888.5362,-268.9463 1001.433,-173.8 1012.9042,-164.1324 1025.7177,-156.4743 1039.3521,-150.4727"/>
<polygon fill="#000000" stroke="#000000" points="1040.9747,-153.5911 1048.9161,-146.578 1038.3346,-147.108 1040.9747,-153.5911"/>
</g>
<!-- 8f756422&#45;72e8&#45;40c7&#45;a8e5&#45;f8249ea85eea -->
<g id="node21" class="node">
<title>8f756422&#45;72e8&#45;40c7&#45;a8e5&#45;f8249ea85eea</title>
<polygon fill="#40e0d0" stroke="#40e0d0" points="1495.3566,-812.8 1039.8764,-812.8 1039.8764,-776.8 1495.3566,-776.8 1495.3566,-812.8"/>
<text text-anchor="middle" x="1267.6165" y="-790.6" font-family="Times,serif" font-size="14.00" fill="#000000">AndroidBindingModule_BindWelcomeActivity.bindAndroidInjectorFactory()</text>
</g>
<!-- f2116976&#45;caa9&#45;49cf&#45;a010&#45;817850f0f27f&#45;&gt;8f756422&#45;72e8&#45;40c7&#45;a8e5&#45;f8249ea85eea -->
<g id="edge25" class="edge">
<title>f2116976&#45;caa9&#45;49cf&#45;a010&#45;817850f0f27f&#45;&gt;8f756422&#45;72e8&#45;40c7&#45;a8e5&#45;f8249ea85eea</title>
<path fill="none" stroke="#000000" d="M892.9839,-869.7584C971.5932,-854.0298 1085.4789,-831.243 1167.0219,-814.9275"/>
<polygon fill="#000000" stroke="#000000" points="1168.1829,-818.2646 1177.3018,-812.8706 1166.8095,-811.4007 1168.1829,-818.2646"/>
</g>
<!-- 9a9ba751&#45;6d3f&#45;4147&#45;b86a&#45;047da54b3a60 -->
<g id="node22" class="node">
<title>9a9ba751&#45;6d3f&#45;4147&#45;b86a&#45;047da54b3a60</title>
<polygon fill="#40e0d0" stroke="#40e0d0" points="1500.764,-758.8 1034.469,-758.8 1034.469,-722.8 1500.764,-722.8 1500.764,-758.8"/>
<text text-anchor="middle" x="1267.6165" y="-736.6" font-family="Times,serif" font-size="14.00" fill="#000000">AndroidBindingModule_BindConnectionActivity.bindAndroidInjectorFactory()</text>
</g>
<!-- f2116976&#45;caa9&#45;49cf&#45;a010&#45;817850f0f27f&#45;&gt;9a9ba751&#45;6d3f&#45;4147&#45;b86a&#45;047da54b3a60 -->
<g id="edge20" class="edge">
<title>f2116976&#45;caa9&#45;49cf&#45;a010&#45;817850f0f27f&#45;&gt;9a9ba751&#45;6d3f&#45;4147&#45;b86a&#45;047da54b3a60</title>
<path fill="none" stroke="#000000" d="M824.996,-869.7883C860.0566,-842.4378 931.5031,-791.1515 1001.433,-767.8 1009.0287,-765.2636 1016.8086,-762.9463 1024.7134,-760.8303"/>
<polygon fill="#000000" stroke="#000000" points="1025.5935,-764.2179 1034.4134,-758.3477 1023.8578,-757.4365 1025.5935,-764.2179"/>
</g>
<!-- c4049dc1&#45;8220&#45;48c5&#45;b8cc&#45;59d70326bd1e -->
<g id="node23" class="node">
<title>c4049dc1&#45;8220&#45;48c5&#45;b8cc&#45;59d70326bd1e</title>
<polygon fill="#40e0d0" stroke="#40e0d0" points="1485.94,-704.8 1049.293,-704.8 1049.293,-668.8 1485.94,-668.8 1485.94,-704.8"/>
<text text-anchor="middle" x="1267.6165" y="-682.6" font-family="Times,serif" font-size="14.00" fill="#000000">AndroidBindingModule_BindStatusActivity.bindAndroidInjectorFactory()</text>
</g>
<!-- f2116976&#45;caa9&#45;49cf&#45;a010&#45;817850f0f27f&#45;&gt;c4049dc1&#45;8220&#45;48c5&#45;b8cc&#45;59d70326bd1e -->
<g id="edge22" class="edge">
<title>f2116976&#45;caa9&#45;49cf&#45;a010&#45;817850f0f27f&#45;&gt;c4049dc1&#45;8220&#45;48c5&#45;b8cc&#45;59d70326bd1e</title>
<path fill="none" stroke="#000000" d="M816.6277,-869.7934C846.0125,-833.0178 918.8266,-749.7285 1001.433,-713.8 1013.5676,-708.5222 1026.2978,-704.0847 1039.3408,-700.3659"/>
<polygon fill="#000000" stroke="#000000" points="1040.6279,-703.6439 1049.3712,-697.6601 1038.8047,-696.8854 1040.6279,-703.6439"/>
</g>
<!-- e05514b5&#45;fd15&#45;4cec&#45;bc91&#45;2d26dc4bd65a -->
<g id="node24" class="node">
<title>e05514b5&#45;fd15&#45;4cec&#45;bc91&#45;2d26dc4bd65a</title>
<polygon fill="#40e0d0" stroke="#40e0d0" points="1491.6033,-650.8 1043.6297,-650.8 1043.6297,-614.8 1491.6033,-614.8 1491.6033,-650.8"/>
<text text-anchor="middle" x="1267.6165" y="-628.6" font-family="Times,serif" font-size="14.00" fill="#000000">AndroidBindingModule_BindRegionsActivity.bindAndroidInjectorFactory()</text>
</g>
<!-- f2116976&#45;caa9&#45;49cf&#45;a010&#45;817850f0f27f&#45;&gt;e05514b5&#45;fd15&#45;4cec&#45;bc91&#45;2d26dc4bd65a -->
<g id="edge24" class="edge">
<title>f2116976&#45;caa9&#45;49cf&#45;a010&#45;817850f0f27f&#45;&gt;e05514b5&#45;fd15&#45;4cec&#45;bc91&#45;2d26dc4bd65a</title>
<path fill="none" stroke="#000000" d="M812.2975,-869.4933C836.6705,-824.5808 906.325,-709.0274 1001.433,-659.8 1011.8264,-654.4204 1022.7523,-649.8382 1034.0053,-645.9486"/>
<polygon fill="#000000" stroke="#000000" points="1035.1085,-649.2703 1043.5302,-642.8418 1032.9378,-642.6154 1035.1085,-649.2703"/>
</g>
<!-- e07a1dc6&#45;5919&#45;4682&#45;b1b6&#45;833267a82c55 -->
<g id="node25" class="node">
<title>e07a1dc6&#45;5919&#45;4682&#45;b1b6&#45;833267a82c55</title>
<polygon fill="#40e0d0" stroke="#40e0d0" points="1525.9836,-596.8 1009.2494,-596.8 1009.2494,-560.8 1525.9836,-560.8 1525.9836,-596.8"/>
<text text-anchor="middle" x="1267.6165" y="-574.6" font-family="Times,serif" font-size="14.00" fill="#000000">AndroidBindingModule_BindBackgroundServiceReceiver.bindAndroidInjectorFactory()</text>
</g>
<!-- f2116976&#45;caa9&#45;49cf&#45;a010&#45;817850f0f27f&#45;&gt;e07a1dc6&#45;5919&#45;4682&#45;b1b6&#45;833267a82c55 -->
<g id="edge17" class="edge">
<title>f2116976&#45;caa9&#45;49cf&#45;a010&#45;817850f0f27f&#45;&gt;e07a1dc6&#45;5919&#45;4682&#45;b1b6&#45;833267a82c55</title>
<path fill="none" stroke="#000000" d="M809.3735,-869.5358C829.0729,-817.6645 893.1349,-669.1275 1001.433,-605.8 1004.0174,-604.2888 1006.6404,-602.8365 1009.2984,-601.4412"/>
<polygon fill="#000000" stroke="#000000" points="1011.0491,-604.4803 1018.4653,-596.9139 1007.9493,-598.204 1011.0491,-604.4803"/>
</g>
<!-- 7bd90e79&#45;93b9&#45;4b26&#45;9f6e&#45;671c48189b32 -->
<g id="node26" class="node">
<title>7bd90e79&#45;93b9&#45;4b26&#45;9f6e&#45;671c48189b32</title>
<polygon fill="#40e0d0" stroke="#40e0d0" points="1500.7375,-542.8 1034.4955,-542.8 1034.4955,-506.8 1500.7375,-506.8 1500.7375,-542.8"/>
<text text-anchor="middle" x="1267.6165" y="-520.6" font-family="Times,serif" font-size="14.00" fill="#000000">AndroidBindingModule_BindBackgroundService.bindAndroidInjectorFactory()</text>
</g>
<!-- f2116976&#45;caa9&#45;49cf&#45;a010&#45;817850f0f27f&#45;&gt;7bd90e79&#45;93b9&#45;4b26&#45;9f6e&#45;671c48189b32 -->
<g id="edge18" class="edge">
<title>f2116976&#45;caa9&#45;49cf&#45;a010&#45;817850f0f27f&#45;&gt;7bd90e79&#45;93b9&#45;4b26&#45;9f6e&#45;671c48189b32</title>
<path fill="none" stroke="#000000" d="M812.3439,-869.5667C847.6057,-802.4152 970.2498,-571.7438 1001.433,-551.8 1008.9672,-546.9814 1016.8738,-542.7348 1025.0542,-539.0016"/>
<polygon fill="#000000" stroke="#000000" points="1026.5846,-542.1537 1034.4011,-535.0016 1023.8306,-535.7182 1026.5846,-542.1537"/>
</g>
<!-- 4dce6afb&#45;929b&#45;45c0&#45;89a1&#45;c1db605c3a10 -->
<g id="node27" class="node">
<title>4dce6afb&#45;929b&#45;45c0&#45;89a1&#45;c1db605c3a10</title>
<polygon fill="#40e0d0" stroke="#40e0d0" points="1488.6589,-488.8 1046.5741,-488.8 1046.5741,-452.8 1488.6589,-452.8 1488.6589,-488.8"/>
<text text-anchor="middle" x="1267.6165" y="-466.6" font-family="Times,serif" font-size="14.00" fill="#000000">AndroidBindingModule_BindRegionActivity.bindAndroidInjectorFactory()</text>
</g>
<!-- f2116976&#45;caa9&#45;49cf&#45;a010&#45;817850f0f27f&#45;&gt;4dce6afb&#45;929b&#45;45c0&#45;89a1&#45;c1db605c3a10 -->
<g id="edge28" class="edge">
<title>f2116976&#45;caa9&#45;49cf&#45;a010&#45;817850f0f27f&#45;&gt;4dce6afb&#45;929b&#45;45c0&#45;89a1&#45;c1db605c3a10</title>
<path fill="none" stroke="#000000" d="M809.4015,-869.6334C835.3521,-799.1063 932.47,-545.0227 1001.433,-497.8 1012.4276,-490.2714 1024.3007,-484.0911 1036.7173,-479.0513"/>
<polygon fill="#000000" stroke="#000000" points="1038.2013,-482.232 1046.3128,-475.4163 1035.7214,-475.686 1038.2013,-482.232"/>
</g>
<!-- 2ebb0ac6&#45;baed&#45;4b41&#45;803a&#45;ab2573825f5f -->
<g id="node28" class="node">
<title>2ebb0ac6&#45;baed&#45;4b41&#45;803a&#45;ab2573825f5f</title>
<polygon fill="#40e0d0" stroke="#40e0d0" points="1481.3762,-434.8 1053.8568,-434.8 1053.8568,-398.8 1481.3762,-398.8 1481.3762,-434.8"/>
<text text-anchor="middle" x="1267.6165" y="-412.6" font-family="Times,serif" font-size="14.00" fill="#000000">AndroidBindingModule_BindMapActivity.bindAndroidInjectorFactory()</text>
</g>
<!-- f2116976&#45;caa9&#45;49cf&#45;a010&#45;817850f0f27f&#45;&gt;2ebb0ac6&#45;baed&#45;4b41&#45;803a&#45;ab2573825f5f -->
<g id="edge23" class="edge">
<title>f2116976&#45;caa9&#45;49cf&#45;a010&#45;817850f0f27f&#45;&gt;2ebb0ac6&#45;baed&#45;4b41&#45;803a&#45;ab2573825f5f</title>
<path fill="none" stroke="#000000" d="M804.6675,-869.4433C812.746,-800.0358 851.5261,-552.0974 1001.433,-443.8 1014.5288,-434.3392 1028.9796,-426.9507 1044.1755,-421.2462"/>
<polygon fill="#000000" stroke="#000000" points="1045.4422,-424.5112 1053.7279,-417.9084 1043.1331,-417.903 1045.4422,-424.5112"/>
</g>
<!-- 3a15a3d6&#45;c5fb&#45;4a89&#45;aeee&#45;7ed04fb30523 -->
<g id="node29" class="node">
<title>3a15a3d6&#45;c5fb&#45;4a89&#45;aeee&#45;7ed04fb30523</title>
<polygon fill="#40e0d0" stroke="#40e0d0" points="1482.9841,-380.8 1052.2489,-380.8 1052.2489,-344.8 1482.9841,-344.8 1482.9841,-380.8"/>
<text text-anchor="middle" x="1267.6165" y="-358.6" font-family="Times,serif" font-size="14.00" fill="#000000">AndroidBindingModule_BindLoadActivity.bindAndroidInjectorFactory()</text>
</g>
<!-- f2116976&#45;caa9&#45;49cf&#45;a010&#45;817850f0f27f&#45;&gt;3a15a3d6&#45;c5fb&#45;4a89&#45;aeee&#45;7ed04fb30523 -->
<g id="edge16" class="edge">
<title>f2116976&#45;caa9&#45;49cf&#45;a010&#45;817850f0f27f&#45;&gt;3a15a3d6&#45;c5fb&#45;4a89&#45;aeee&#45;7ed04fb30523</title>
<path fill="none" stroke="#000000" d="M803.7111,-869.6177C808.4388,-795.4431 837.0127,-513.808 1001.433,-389.8 1013.9816,-380.3357 1027.8635,-372.9016 1042.5069,-367.1264"/>
<polygon fill="#000000" stroke="#000000" points="1044.0457,-370.2903 1052.2333,-363.5662 1041.6396,-363.7168 1044.0457,-370.2903"/>
</g>
<!-- 5d5365d5&#45;0a26&#45;43e1&#45;9e94&#45;e282321179fe -->
<g id="node30" class="node">
<title>5d5365d5&#45;0a26&#45;43e1&#45;9e94&#45;e282321179fe</title>
<polygon fill="#40e0d0" stroke="#40e0d0" points="1501.4991,-326.8 1033.7339,-326.8 1033.7339,-290.8 1501.4991,-290.8 1501.4991,-326.8"/>
<text text-anchor="middle" x="1267.6165" y="-304.6" font-family="Times,serif" font-size="14.00" fill="#000000">AndroidBindingModule_BindPreferencesActivity.bindAndroidInjectorFactory()</text>
</g>
<!-- f2116976&#45;caa9&#45;49cf&#45;a010&#45;817850f0f27f&#45;&gt;5d5365d5&#45;0a26&#45;43e1&#45;9e94&#45;e282321179fe -->
<g id="edge19" class="edge">
<title>f2116976&#45;caa9&#45;49cf&#45;a010&#45;817850f0f27f&#45;&gt;5d5365d5&#45;0a26&#45;43e1&#45;9e94&#45;e282321179fe</title>
<path fill="none" stroke="#000000" d="M806.6215,-869.7542C825.3825,-782.6128 910.7435,-406.6574 1001.433,-335.8 1008.7577,-330.0771 1016.5638,-325.0839 1024.7313,-320.7413"/>
<polygon fill="#000000" stroke="#000000" points="1026.3248,-323.8579 1033.7301,-316.2808 1023.216,-317.5861 1026.3248,-323.8579"/>
</g>
<!-- 1fcd1e63&#45;1479&#45;4b58&#45;bcb9&#45;d4890ed059e3 -->
<g id="node31" class="node">
<title>1fcd1e63&#45;1479&#45;4b58&#45;bcb9&#45;d4890ed059e3</title>
<polygon fill="#40e0d0" stroke="#40e0d0" points="1500.4631,-272.8 1034.7699,-272.8 1034.7699,-236.8 1500.4631,-236.8 1500.4631,-272.8"/>
<text text-anchor="middle" x="1267.6165" y="-250.6" font-family="Times,serif" font-size="14.00" fill="#000000">AndroidBindingModule_BindLogViewerActivity.bindAndroidInjectorFactory()</text>
</g>
<!-- f2116976&#45;caa9&#45;49cf&#45;a010&#45;817850f0f27f&#45;&gt;1fcd1e63&#45;1479&#45;4b58&#45;bcb9&#45;d4890ed059e3 -->
<g id="edge21" class="edge">
<title>f2116976&#45;caa9&#45;49cf&#45;a010&#45;817850f0f27f&#45;&gt;1fcd1e63&#45;1479&#45;4b58&#45;bcb9&#45;d4890ed059e3</title>
<path fill="none" stroke="#000000" d="M806.0583,-869.5715C822.9069,-777.0437 903.4233,-360.6654 1001.433,-281.8 1009.0206,-275.6945 1017.1508,-270.408 1025.6838,-265.8473"/>
<polygon fill="#000000" stroke="#000000" points="1027.3222,-268.9415 1034.7162,-261.3534 1024.204,-262.6744 1027.3222,-268.9415"/>
</g>
<!-- 287a8c42&#45;0fa7&#45;4412&#45;a349&#45;ed684b5bc9bc -->
<g id="node32" class="node">
<title>287a8c42&#45;0fa7&#45;4412&#45;a349&#45;ed684b5bc9bc</title>
<polygon fill="#40e0d0" stroke="#40e0d0" points="1493.2085,-218.8 1042.0245,-218.8 1042.0245,-182.8 1493.2085,-182.8 1493.2085,-218.8"/>
<text text-anchor="middle" x="1267.6165" y="-196.6" font-family="Times,serif" font-size="14.00" fill="#000000">AndroidBindingModule_BindContactsActivity.bindAndroidInjectorFactory()</text>
</g>
<!-- f2116976&#45;caa9&#45;49cf&#45;a010&#45;817850f0f27f&#45;&gt;287a8c42&#45;0fa7&#45;4412&#45;a349&#45;ed684b5bc9bc -->
<g id="edge26" class="edge">
<title>f2116976&#45;caa9&#45;49cf&#45;a010&#45;817850f0f27f&#45;&gt;287a8c42&#45;0fa7&#45;4412&#45;a349&#45;ed684b5bc9bc</title>
<path fill="none" stroke="#000000" d="M805.5469,-869.5999C820.5376,-772.3103 895.9765,-314.7988 1001.433,-227.8 1010.9505,-219.9484 1021.3586,-213.4354 1032.3702,-208.0679"/>
<polygon fill="#000000" stroke="#000000" points="1034.0856,-211.1334 1041.7555,-203.8243 1031.2016,-204.7551 1034.0856,-211.1334"/>
</g>
</g>
</svg>
