<svg width="1023px" height="169px"
 viewBox="0.00 0.00 1022.87 168.60" xmlns="http://www.w3.org/2000/svg" xmlns:xlink="http://www.w3.org/1999/xlink">
<g id="graph0" class="graph" transform="scale(1.0 1.0) rotate(0) translate(14.4 154.2)">
<title>org.owntracks.android.injection.modules.AndroidBindingModule → org.owntracks.android.injection.modules.AndroidBindingModule_BindBackgroundServiceReceiver.StartBackgroundServiceReceiverSubcomponent</title>
<polygon fill="#ffffff" stroke="transparent" points="-14.4,14.4 -14.4,-154.2 1008.473,-154.2 1008.473,14.4 -14.4,14.4"/>
<text text-anchor="middle" x="386.3052" y="-8.2" font-family="Times,serif" font-size="14.00" fill="#000000">AndroidBindingModule → AndroidBindingModule_BindBackgroundServiceReceiver.StartBackgroundServiceReceiverSubcomponent</text>
<g id="clust4" class="cluster">
<title>cluster_AndroidBindingModule → AndroidBindingModule_BindBackgroundServiceReceiver.StartBackgroundServiceReceiverSubcomponent</title>
<g id="a_clust4"><a xlink:href="full_org.owntracks.android.injection.modules.AndroidBindingModule_BindBackgroundServiceReceiver.StartBackgroundServiceReceiverSubcomponent.svg" xlink:title="Inherited from AndroidBindingModule_BindBackgroundServiceReceiver.StartBackgroundServiceReceiverSubcomponent\n@PerReceiver">
<polygon fill="none" stroke="#ffff00" stroke-dasharray="5,2" points="290.5114,-32.8 290.5114,-131.8 994.073,-131.8 994.073,-32.8 290.5114,-32.8"/>
<text text-anchor="middle" x="642.2922" y="-115.2" font-family="Times,serif" font-size="14.00" fill="#000000">Inherited from AndroidBindingModule_BindBackgroundServiceReceiver.StartBackgroundServiceReceiverSubcomponent</text>
<text text-anchor="middle" x="642.2922" y="-98.4" font-family="Times,serif" font-size="14.00" fill="#000000">@PerReceiver</text>
</a>
</g>
</g>
<g id="clust1" class="cluster">
<title>cluster_Entry Points</title>
<polygon fill="none" stroke="#000000" points="8,-35.8 8,-112.8 270.5114,-112.8 270.5114,-35.8 8,-35.8"/>
<text text-anchor="middle" x="50.8061" y="-96.2" font-family="Times,serif" font-size="14.00" fill="#000000">Entry Points</text>
</g>
<!-- a17a0d50&#45;a1a3&#45;48ce&#45;9fb5&#45;8e68bd7d4b76 -->
<g id="node1" class="node">
<title>a17a0d50&#45;a1a3&#45;48ce&#45;9fb5&#45;8e68bd7d4b76</title>
<polygon fill="#40e0d0" stroke="#40e0d0" stroke-width="2" points="262.2676,-79.8 16.2438,-79.8 16.2438,-75.8 12.2438,-75.8 12.2438,-71.8 16.2438,-71.8 16.2438,-51.8 12.2438,-51.8 12.2438,-47.8 16.2438,-47.8 16.2438,-43.8 262.2676,-43.8 262.2676,-79.8"/>
<polyline fill="none" stroke="#40e0d0" stroke-width="2" points="16.2438,-75.8 20.2438,-75.8 20.2438,-71.8 16.2438,-71.8 "/>
<polyline fill="none" stroke="#40e0d0" stroke-width="2" points="16.2438,-51.8 20.2438,-51.8 20.2438,-47.8 16.2438,-47.8 "/>
<text text-anchor="middle" x="139.2557" y="-57.6" font-family="Times,serif" font-size="14.00" fill="#000000">inject (StartBackgroundServiceReceiver)</text>
</g>
<!-- ed2de7a8&#45;8b80&#45;4883&#45;9366&#45;d773f3a06430 -->
<g id="node2" class="node">
<title>ed2de7a8&#45;8b80&#45;4883&#45;9366&#45;d773f3a06430</title>
<polygon fill="#76ee00" stroke="#76ee00" points="682.855,-82.4019 600.7294,-82.4019 600.7294,-41.1981 682.855,-41.1981 682.855,-82.4019"/>
<text text-anchor="middle" x="641.7922" y="-66" font-family="Times,serif" font-size="14.00" fill="#000000">@Singleton</text>
<text text-anchor="middle" x="641.7922" y="-49.2" font-family="Times,serif" font-size="14.00" fill="#000000">Preferences</text>
</g>
<!-- a17a0d50&#45;a1a3&#45;48ce&#45;9fb5&#45;8e68bd7d4b76&#45;&gt;ed2de7a8&#45;8b80&#45;4883&#45;9366&#45;d773f3a06430 -->
<g id="edge1" class="edge">
<title>a17a0d50&#45;a1a3&#45;48ce&#45;9fb5&#45;8e68bd7d4b76&#45;&gt;ed2de7a8&#45;8b80&#45;4883&#45;9366&#45;d773f3a06430</title>
<path fill="none" stroke="#000000" d="M262.5116,-61.8C367.7006,-61.8 513.7294,-61.8 590.2761,-61.8"/>
<polygon fill="#000000" stroke="#000000" points="590.6046,-65.3001 600.6046,-61.8 590.6046,-58.3001 590.6046,-65.3001"/>
</g>
</g>
</svg>
