<svg width="2138px" height="288px"
 viewBox="0.00 0.00 2138.04 287.60" xmlns="http://www.w3.org/2000/svg" xmlns:xlink="http://www.w3.org/1999/xlink">
<g id="graph0" class="graph" transform="scale(1.0 1.0) rotate(0) translate(14.4 273.2)">
<title>org.owntracks.android.ui.welcome.WelcomeActivityModule_BindPlayFragment</title>
<polygon fill="#ffffff" stroke="transparent" points="-14.4,14.4 -14.4,-273.2 2123.6386,-273.2 2123.6386,14.4 -14.4,14.4"/>
<text text-anchor="middle" x="135.9208" y="-8.2" font-family="Times,serif" font-size="14.00" fill="#000000">WelcomeActivityModule_BindPlayFragment</text>
<g id="clust2" class="cluster">
<title>cluster_Dependency Graph</title>
<polygon fill="none" stroke="#000000" points="8,-32.8 8,-250.8 1545.7076,-250.8 1545.7076,-32.8 8,-32.8"/>
<text text-anchor="middle" x="70.2234" y="-234.2" font-family="Times,serif" font-size="14.00" fill="#000000">Dependency Graph</text>
</g>
<g id="clust3" class="cluster">
<title>cluster_Map&lt;Class&lt;?&gt;, AndroidInjector.Factory&lt;?&gt;&gt;</title>
<path fill="none" stroke="#000000" d="M171.0404,-140.8C171.0404,-140.8 1182.826,-140.8 1182.826,-140.8 1188.826,-140.8 1194.826,-146.8 1194.826,-152.8 1194.826,-152.8 1194.826,-205.8 1194.826,-205.8 1194.826,-211.8 1188.826,-217.8 1182.826,-217.8 1182.826,-217.8 171.0404,-217.8 171.0404,-217.8 165.0404,-217.8 159.0404,-211.8 159.0404,-205.8 159.0404,-205.8 159.0404,-152.8 159.0404,-152.8 159.0404,-146.8 165.0404,-140.8 171.0404,-140.8"/>
<text text-anchor="middle" x="676.9332" y="-201.2" font-family="Times,serif" font-size="14.00" fill="#000000">Map&lt;Class&lt;?&gt;, AndroidInjector.Factory&lt;?&gt;&gt;</text>
</g>
<g id="clust4" class="cluster">
<title>cluster_Subcomponents</title>
<polygon fill="none" stroke="#000000" points="1647.3626,-137.8 1647.3626,-220.8 2101.2386,-220.8 2101.2386,-137.8 1647.3626,-137.8"/>
<text text-anchor="middle" x="1700.0814" y="-204.2" font-family="Times,serif" font-size="14.00" fill="#000000">Subcomponents</text>
</g>
<!-- fb0bae31&#45;4086&#45;49f2&#45;a7c5&#45;87c3a29f7888 -->
<g id="node1" class="node">
<title>fb0bae31&#45;4086&#45;49f2&#45;a7c5&#45;87c3a29f7888</title>
<polygon fill="#40e0d0" stroke="#40e0d0" points="1186.5792,-184.8 744.567,-184.8 744.567,-148.8 1186.5792,-148.8 1186.5792,-184.8"/>
<text text-anchor="middle" x="965.5731" y="-162.6" font-family="Times,serif" font-size="14.00" fill="#000000">WelcomeActivityModule_BindPlayFragment.bindAndroidInjectorFactory()</text>
</g>
<!-- 8f4b6929&#45;c0a2&#45;4949&#45;b993&#45;cb5a63efbcd6 -->
<g id="node2" class="node">
<title>8f4b6929&#45;c0a2&#45;4949&#45;b993&#45;cb5a63efbcd6</title>
<polygon fill="#40e0d0" stroke="#40e0d0" points="1537.6064,-195.4014 1313.0114,-195.4014 1313.0114,-138.1986 1537.6064,-138.1986 1537.6064,-195.4014"/>
<text text-anchor="middle" x="1425.3089" y="-179" font-family="Times,serif" font-size="14.00" fill="#000000">PlayFragmentSubcomponent.Factory</text>
<text text-anchor="middle" x="1425.3089" y="-146.2" font-family="Times,serif" font-size="14.00" fill="#000000">Subcomponent Creator</text>
</g>
<!-- fb0bae31&#45;4086&#45;49f2&#45;a7c5&#45;87c3a29f7888&#45;&gt;8f4b6929&#45;c0a2&#45;4949&#45;b993&#45;cb5a63efbcd6 -->
<g id="edge2" class="edge">
<title>fb0bae31&#45;4086&#45;49f2&#45;a7c5&#45;87c3a29f7888&#45;&gt;8f4b6929&#45;c0a2&#45;4949&#45;b993&#45;cb5a63efbcd6</title>
<path fill="none" stroke="#000000" stroke-dasharray="1,5" d="M1186.6881,-166.8C1226.4675,-166.8 1266.5968,-166.8 1302.3018,-166.8"/>
<polygon fill="#000000" stroke="#000000" points="1302.7415,-170.3001 1312.7414,-166.8 1302.7414,-163.3001 1302.7415,-170.3001"/>
<text text-anchor="middle" x="1249.8681" y="-171" font-family="Times,serif" font-size="14.00" fill="#000000">delegates</text>
</g>
<!-- 71526924&#45;2529&#45;47f4&#45;9227&#45;a5914d855a12 -->
<g id="node6" class="node">
<title>71526924&#45;2529&#45;47f4&#45;9227&#45;a5914d855a12</title>
<g id="a_node6"><a xlink:href="full_org.owntracks.android.ui.welcome.WelcomeActivityModule_BindPlayFragment.PlayFragmentSubcomponent.svg" xlink:title="@PerFragment\nWelcomeActivityModule_BindPlayFragment.PlayFragmentSubcomponent">
<polygon fill="#7fffd4" stroke="#7fffd4" points="2093.1766,-187.4019 1655.4246,-187.4019 1655.4246,-146.1981 2093.1766,-146.1981 2093.1766,-187.4019"/>
<text text-anchor="middle" x="1874.3006" y="-171" font-family="Times,serif" font-size="14.00" fill="#000000">@PerFragment</text>
<text text-anchor="middle" x="1874.3006" y="-154.2" font-family="Times,serif" font-size="14.00" fill="#000000">WelcomeActivityModule_BindPlayFragment.PlayFragmentSubcomponent</text>
</a>
</g>
</g>
<!-- 8f4b6929&#45;c0a2&#45;4949&#45;b993&#45;cb5a63efbcd6&#45;&gt;71526924&#45;2529&#45;47f4&#45;9227&#45;a5914d855a12 -->
<g id="edge3" class="edge">
<title>8f4b6929&#45;c0a2&#45;4949&#45;b993&#45;cb5a63efbcd6&#45;&gt;71526924&#45;2529&#45;47f4&#45;9227&#45;a5914d855a12:w</title>
<path fill="none" stroke="#000000" stroke-dasharray="5,2" d="M1537.6095,-166.8C1571.6799,-166.8 1609.4714,-166.8 1644.8878,-166.8"/>
<polygon fill="#000000" stroke="#000000" points="1645.3006,-170.3001 1655.3006,-166.8 1645.3006,-163.3001 1645.3006,-170.3001"/>
<text text-anchor="middle" x="1596.5351" y="-171" font-family="Times,serif" font-size="14.00" fill="#000000">subcomponent</text>
</g>
<!-- 9c58f026&#45;7f70&#45;459c&#45;8d39&#45;0969c70415c5 -->
<g id="node3" class="node">
<title>9c58f026&#45;7f70&#45;459c&#45;8d39&#45;0969c70415c5</title>
<polygon fill="#ff3030" stroke="#ff3030" points="593.4804,-130.8 15.8398,-130.8 15.8398,-94.8 593.4804,-94.8 593.4804,-130.8"/>
<text text-anchor="middle" x="304.6601" y="-108.6" font-family="Times,serif" font-size="14.00" fill="#000000">java.util.Map&lt;java.lang.String,javax.inject.Provider&lt;dagger.android.AndroidInjector.Factory&lt;?&gt;&gt;&gt;</text>
</g>
<!-- 8cc19945&#45;eaad&#45;4e8a&#45;99a3&#45;ff84fa5e9d76 -->
<g id="node4" class="node">
<title>8cc19945&#45;eaad&#45;4e8a&#45;99a3&#45;ff84fa5e9d76</title>
<polygon fill="#ff3030" stroke="#ff3030" points="440.8882,-76.8 168.432,-76.8 168.432,-40.8 440.8882,-40.8 440.8882,-76.8"/>
<text text-anchor="middle" x="304.6601" y="-54.6" font-family="Times,serif" font-size="14.00" fill="#000000">androidx.appcompat.app.AppCompatActivity</text>
</g>
<!-- 2f9f2b12&#45;ce68&#45;4fd4&#45;b404&#45;a4e54fbb4c8a -->
<g id="node5" class="node">
<title>2f9f2b12&#45;ce68&#45;4fd4&#45;b404&#45;a4e54fbb4c8a</title>
<polygon fill="#40e0d0" stroke="#40e0d0" points="442.3996,-184.8 178.9206,-184.8 178.9206,-188.8 166.9206,-188.8 166.9206,-148.8 442.3996,-148.8 442.3996,-184.8"/>
<polyline fill="none" stroke="#40e0d0" points="166.9206,-184.8 178.9206,-184.8 "/>
<text text-anchor="middle" x="304.6601" y="-162.6" font-family="Times,serif" font-size="14.00" fill="#000000">Map&lt;Class&lt;?&gt;, AndroidInjector.Factory&lt;?&gt;&gt;</text>
</g>
<!-- 2f9f2b12&#45;ce68&#45;4fd4&#45;b404&#45;a4e54fbb4c8a&#45;&gt;fb0bae31&#45;4086&#45;49f2&#45;a7c5&#45;87c3a29f7888 -->
<g id="edge1" class="edge">
<title>2f9f2b12&#45;ce68&#45;4fd4&#45;b404&#45;a4e54fbb4c8a&#45;&gt;fb0bae31&#45;4086&#45;49f2&#45;a7c5&#45;87c3a29f7888</title>
<path fill="none" stroke="#000000" d="M442.3313,-166.8C500.4944,-166.8 568.9574,-166.8 630.8202,-166.8 630.8202,-166.8 630.8202,-166.8 706.8202,-166.8 715.8099,-166.8 724.9754,-166.8 734.2341,-166.8"/>
<polygon fill="#000000" stroke="#000000" points="734.3135,-170.3001 744.3135,-166.8 734.3134,-163.3001 734.3135,-170.3001"/>
</g>
</g>
</svg>
