<svg width="630px" height="763px"
 viewBox="0.00 0.00 629.59 762.60" xmlns="http://www.w3.org/2000/svg" xmlns:xlink="http://www.w3.org/1999/xlink">
<g id="graph0" class="graph" transform="scale(1.0 1.0) rotate(0) translate(14.4 748.2)">
<title>org.owntracks.android.injection.components.AppComponent → org.owntracks.android.injection.modules.AndroidBindingModule_BindBackgroundService.BackgroundServiceSubcomponent</title>
<polygon fill="#ffffff" stroke="transparent" points="-14.4,14.4 -14.4,-748.2 615.1926,-748.2 615.1926,14.4 -14.4,14.4"/>
<text text-anchor="middle" x="300.3963" y="-8.2" font-family="Times,serif" font-size="14.00" fill="#000000">AppComponent → AndroidBindingModule_BindBackgroundService.BackgroundServiceSubcomponent</text>
<g id="clust1" class="cluster">
<title>cluster_Entry Points</title>
<polygon fill="none" stroke="#000000" points="103.088,-335.8 103.088,-412.8 289.4142,-412.8 289.4142,-335.8 103.088,-335.8"/>
<text text-anchor="middle" x="145.8941" y="-396.2" font-family="Times,serif" font-size="14.00" fill="#000000">Entry Points</text>
</g>
<g id="clust4" class="cluster">
<title>cluster_AppComponent</title>
<g id="a_clust4"><a xlink:href="org.owntracks.android.injection.components.AppComponent.svg" xlink:title="Inherited from AppComponent\n@Singleton">
<polygon fill="none" stroke="#7fffd4" stroke-dasharray="5,2" points="309.4142,-32.8 309.4142,-725.8 498.7046,-725.8 498.7046,-32.8 309.4142,-32.8"/>
<text text-anchor="middle" x="404.0594" y="-709.2" font-family="Times,serif" font-size="14.00" fill="#000000">Inherited from AppComponent</text>
<text text-anchor="middle" x="404.0594" y="-692.4" font-family="Times,serif" font-size="14.00" fill="#000000">@Singleton</text>
</a>
</g>
</g>
<!-- 3b25dc60&#45;c408&#45;4142&#45;a2ab&#45;55af2114a554 -->
<g id="node1" class="node">
<title>3b25dc60&#45;c408&#45;4142&#45;a2ab&#45;55af2114a554</title>
<polygon fill="#40e0d0" stroke="#40e0d0" stroke-width="2" points="281.5776,-379.8 110.9246,-379.8 110.9246,-375.8 106.9246,-375.8 106.9246,-371.8 110.9246,-371.8 110.9246,-351.8 106.9246,-351.8 106.9246,-347.8 110.9246,-347.8 110.9246,-343.8 281.5776,-343.8 281.5776,-379.8"/>
<polyline fill="none" stroke="#40e0d0" stroke-width="2" points="110.9246,-375.8 114.9246,-375.8 114.9246,-371.8 110.9246,-371.8 "/>
<polyline fill="none" stroke="#40e0d0" stroke-width="2" points="110.9246,-351.8 114.9246,-351.8 114.9246,-347.8 110.9246,-347.8 "/>
<text text-anchor="middle" x="196.2511" y="-357.6" font-family="Times,serif" font-size="14.00" fill="#000000">inject (BackgroundService)</text>
</g>
<!-- 85ea97e1&#45;7418&#45;4f4c&#45;b6f5&#45;ca0cf0c59de1 -->
<g id="node2" class="node">
<title>85ea97e1&#45;7418&#45;4f4c&#45;b6f5&#45;ca0cf0c59de1</title>
<polygon fill="#7fffd4" stroke="#7fffd4" points="450.6033,-676.4019 356.5155,-676.4019 356.5155,-635.1981 450.6033,-635.1981 450.6033,-676.4019"/>
<text text-anchor="middle" x="403.5594" y="-660" font-family="Times,serif" font-size="14.00" fill="#000000">@Singleton</text>
<text text-anchor="middle" x="403.5594" y="-643.2" font-family="Times,serif" font-size="14.00" fill="#000000">ContactsRepo</text>
</g>
<!-- 3b25dc60&#45;c408&#45;4142&#45;a2ab&#45;55af2114a554&#45;&gt;85ea97e1&#45;7418&#45;4f4c&#45;b6f5&#45;ca0cf0c59de1 -->
<g id="edge5" class="edge">
<title>3b25dc60&#45;c408&#45;4142&#45;a2ab&#45;55af2114a554&#45;&gt;85ea97e1&#45;7418&#45;4f4c&#45;b6f5&#45;ca0cf0c59de1</title>
<path fill="none" stroke="#000000" d="M198.7563,-379.8303C206.299,-427.2553 233.174,-556.5817 309.4142,-625.8 319.8388,-635.2644 333.2565,-641.7438 346.6764,-646.1794"/>
<polygon fill="#000000" stroke="#000000" points="345.8235,-649.577 356.4058,-649.0614 347.8117,-642.8653 345.8235,-649.577"/>
</g>
<!-- 6d958753&#45;8ee0&#45;46a5&#45;83c1&#45;dbca15bf1279 -->
<g id="node3" class="node">
<title>6d958753&#45;8ee0&#45;46a5&#45;83c1&#45;dbca15bf1279</title>
<polygon fill="#40e0d0" stroke="#40e0d0" points="456.7658,-616.8 350.353,-616.8 350.353,-580.8 456.7658,-580.8 456.7658,-616.8"/>
<text text-anchor="middle" x="403.5594" y="-594.6" font-family="Times,serif" font-size="14.00" fill="#000000">WaypointsRepo</text>
</g>
<!-- 3b25dc60&#45;c408&#45;4142&#45;a2ab&#45;55af2114a554&#45;&gt;6d958753&#45;8ee0&#45;46a5&#45;83c1&#45;dbca15bf1279 -->
<g id="edge7" class="edge">
<title>3b25dc60&#45;c408&#45;4142&#45;a2ab&#45;55af2114a554&#45;&gt;6d958753&#45;8ee0&#45;46a5&#45;83c1&#45;dbca15bf1279</title>
<path fill="none" stroke="#000000" d="M200.8658,-380.0927C212.1198,-420.8987 244.8997,-519.8516 309.4142,-571.8 318.4282,-579.0583 329.3039,-584.3656 340.4142,-588.2463"/>
<polygon fill="#000000" stroke="#000000" points="339.6085,-591.6613 350.1973,-591.3025 341.6959,-584.9798 339.6085,-591.6613"/>
</g>
<!-- 551571b6&#45;dee7&#45;4f44&#45;80de&#45;c8f787ec9b6d -->
<g id="node4" class="node">
<title>551571b6&#45;dee7&#45;4f44&#45;80de&#45;c8f787ec9b6d</title>
<polygon fill="#7fffd4" stroke="#7fffd4" points="463.4599,-562.4019 343.6589,-562.4019 343.6589,-521.1981 463.4599,-521.1981 463.4599,-562.4019"/>
<text text-anchor="middle" x="403.5594" y="-546" font-family="Times,serif" font-size="14.00" fill="#000000">@Singleton</text>
<text text-anchor="middle" x="403.5594" y="-529.2" font-family="Times,serif" font-size="14.00" fill="#000000">MessageProcessor</text>
</g>
<!-- 3b25dc60&#45;c408&#45;4142&#45;a2ab&#45;55af2114a554&#45;&gt;551571b6&#45;dee7&#45;4f44&#45;80de&#45;c8f787ec9b6d -->
<g id="edge8" class="edge">
<title>3b25dc60&#45;c408&#45;4142&#45;a2ab&#45;55af2114a554&#45;&gt;551571b6&#45;dee7&#45;4f44&#45;80de&#45;c8f787ec9b6d</title>
<path fill="none" stroke="#000000" d="M205.1105,-379.9205C221.4021,-411.3825 259.1093,-476.1537 309.4142,-511.8 316.9177,-517.117 325.4071,-521.5228 334.1405,-525.1657"/>
<polygon fill="#000000" stroke="#000000" points="333.0877,-528.5105 343.6778,-528.8263 335.5961,-521.9753 333.0877,-528.5105"/>
</g>
<!-- c6fb4690&#45;d9a1&#45;4169&#45;9368&#45;c0a70e365f66 -->
<g id="node5" class="node">
<title>c6fb4690&#45;d9a1&#45;4169&#45;9368&#45;c0a70e365f66</title>
<polygon fill="#7fffd4" stroke="#7fffd4" points="444.6222,-502.4019 362.4966,-502.4019 362.4966,-461.1981 444.6222,-461.1981 444.6222,-502.4019"/>
<text text-anchor="middle" x="403.5594" y="-486" font-family="Times,serif" font-size="14.00" fill="#000000">@Singleton</text>
<text text-anchor="middle" x="403.5594" y="-469.2" font-family="Times,serif" font-size="14.00" fill="#000000">Scheduler</text>
</g>
<!-- 3b25dc60&#45;c408&#45;4142&#45;a2ab&#45;55af2114a554&#45;&gt;c6fb4690&#45;d9a1&#45;4169&#45;9368&#45;c0a70e365f66 -->
<g id="edge9" class="edge">
<title>3b25dc60&#45;c408&#45;4142&#45;a2ab&#45;55af2114a554&#45;&gt;c6fb4690&#45;d9a1&#45;4169&#45;9368&#45;c0a70e365f66</title>
<path fill="none" stroke="#000000" d="M214.7451,-380.0757C235.9834,-400.1641 272.6512,-432.1826 309.4142,-451.8 322.8177,-458.9523 338.2146,-464.7464 352.6216,-469.266"/>
<polygon fill="#000000" stroke="#000000" points="351.8172,-472.6786 362.4009,-472.1923 353.824,-465.9724 351.8172,-472.6786"/>
</g>
<!-- 9166ab6b&#45;cd95&#45;46a4&#45;a8df&#45;a64bbedb449a -->
<g id="node6" class="node">
<title>9166ab6b&#45;cd95&#45;46a4&#45;a8df&#45;a64bbedb449a</title>
<polygon fill="#7fffd4" stroke="#7fffd4" points="462.68,-442.4019 344.4388,-442.4019 344.4388,-401.1981 462.68,-401.1981 462.68,-442.4019"/>
<text text-anchor="middle" x="403.5594" y="-426" font-family="Times,serif" font-size="14.00" fill="#000000">@Singleton</text>
<text text-anchor="middle" x="403.5594" y="-409.2" font-family="Times,serif" font-size="14.00" fill="#000000">GeocoderProvider</text>
</g>
<!-- 3b25dc60&#45;c408&#45;4142&#45;a2ab&#45;55af2114a554&#45;&gt;9166ab6b&#45;cd95&#45;46a4&#45;a8df&#45;a64bbedb449a -->
<g id="edge4" class="edge">
<title>3b25dc60&#45;c408&#45;4142&#45;a2ab&#45;55af2114a554&#45;&gt;9166ab6b&#45;cd95&#45;46a4&#45;a8df&#45;a64bbedb449a</title>
<path fill="none" stroke="#000000" d="M258.4504,-379.802C282.4563,-386.7499 310.014,-394.7257 334.6207,-401.8475"/>
<polygon fill="#000000" stroke="#000000" points="333.6697,-405.2158 344.2486,-404.634 335.6159,-398.4918 333.6697,-405.2158"/>
</g>
<!-- d27a4c22&#45;0339&#45;474b&#45;bb43&#45;d5e5860ddd2e -->
<g id="node7" class="node">
<title>d27a4c22&#45;0339&#45;474b&#45;bb43&#45;d5e5860ddd2e</title>
<polygon fill="#7fffd4" stroke="#7fffd4" points="451.3741,-382.4019 355.7447,-382.4019 355.7447,-341.1981 451.3741,-341.1981 451.3741,-382.4019"/>
<text text-anchor="middle" x="403.5594" y="-366" font-family="Times,serif" font-size="14.00" fill="#000000">@Singleton</text>
<text text-anchor="middle" x="403.5594" y="-349.2" font-family="Times,serif" font-size="14.00" fill="#000000">LocationRepo</text>
</g>
<!-- 3b25dc60&#45;c408&#45;4142&#45;a2ab&#45;55af2114a554&#45;&gt;d27a4c22&#45;0339&#45;474b&#45;bb43&#45;d5e5860ddd2e -->
<g id="edge6" class="edge">
<title>3b25dc60&#45;c408&#45;4142&#45;a2ab&#45;55af2114a554&#45;&gt;d27a4c22&#45;0339&#45;474b&#45;bb43&#45;d5e5860ddd2e</title>
<path fill="none" stroke="#000000" d="M281.4688,-361.8C303.0564,-361.8 325.7464,-361.8 345.6292,-361.8"/>
<polygon fill="#000000" stroke="#000000" points="345.7501,-365.3001 355.7501,-361.8 345.7501,-358.3001 345.7501,-365.3001"/>
</g>
<!-- 510efb27&#45;c65c&#45;453a&#45;8a0e&#45;41c87eea4b90 -->
<g id="node8" class="node">
<title>510efb27&#45;c65c&#45;453a&#45;8a0e&#45;41c87eea4b90</title>
<polygon fill="#7fffd4" stroke="#7fffd4" points="463.7447,-322.4019 343.3741,-322.4019 343.3741,-281.1981 463.7447,-281.1981 463.7447,-322.4019"/>
<text text-anchor="middle" x="403.5594" y="-306" font-family="Times,serif" font-size="14.00" fill="#000000">@Singleton</text>
<text text-anchor="middle" x="403.5594" y="-289.2" font-family="Times,serif" font-size="14.00" fill="#000000">LocationProcessor</text>
</g>
<!-- 3b25dc60&#45;c408&#45;4142&#45;a2ab&#45;55af2114a554&#45;&gt;510efb27&#45;c65c&#45;453a&#45;8a0e&#45;41c87eea4b90 -->
<g id="edge10" class="edge">
<title>3b25dc60&#45;c408&#45;4142&#45;a2ab&#45;55af2114a554&#45;&gt;510efb27&#45;c65c&#45;453a&#45;8a0e&#45;41c87eea4b90</title>
<path fill="none" stroke="#000000" d="M258.4504,-343.798C282.0357,-336.9719 309.0492,-329.1535 333.3243,-322.1277"/>
<polygon fill="#000000" stroke="#000000" points="334.5533,-325.4158 343.186,-319.2735 332.6071,-318.6917 334.5533,-325.4158"/>
</g>
<!-- 12e57e42&#45;2bfc&#45;4894&#45;b72e&#45;24700e7fc386 -->
<g id="node9" class="node">
<title>12e57e42&#45;2bfc&#45;4894&#45;b72e&#45;24700e7fc386</title>
<polygon fill="#7fffd4" stroke="#7fffd4" points="489.85,-262.4019 317.2688,-262.4019 317.2688,-221.1981 489.85,-221.1981 489.85,-262.4019"/>
<text text-anchor="middle" x="403.5594" y="-246" font-family="Times,serif" font-size="14.00" fill="#000000">@Singleton</text>
<text text-anchor="middle" x="403.5594" y="-229.2" font-family="Times,serif" font-size="14.00" fill="#000000">RunThingsOnOtherThreads</text>
</g>
<!-- 3b25dc60&#45;c408&#45;4142&#45;a2ab&#45;55af2114a554&#45;&gt;12e57e42&#45;2bfc&#45;4894&#45;b72e&#45;24700e7fc386 -->
<g id="edge1" class="edge">
<title>3b25dc60&#45;c408&#45;4142&#45;a2ab&#45;55af2114a554&#45;&gt;12e57e42&#45;2bfc&#45;4894&#45;b72e&#45;24700e7fc386</title>
<path fill="none" stroke="#000000" d="M214.7451,-343.5243C235.9834,-323.4359 272.6512,-291.4174 309.4142,-271.8 312.8904,-269.945 316.5007,-268.1814 320.193,-266.5077"/>
<polygon fill="#000000" stroke="#000000" points="321.6866,-269.6758 329.5104,-262.5317 318.9391,-263.2375 321.6866,-269.6758"/>
</g>
<!-- c849d814&#45;a44c&#45;4040&#45;a242&#45;099476ad49e6 -->
<g id="node10" class="node">
<title>c849d814&#45;a44c&#45;4040&#45;a242&#45;099476ad49e6</title>
<polygon fill="#7fffd4" stroke="#7fffd4" points="444.6222,-202.4019 362.4966,-202.4019 362.4966,-161.1981 444.6222,-161.1981 444.6222,-202.4019"/>
<text text-anchor="middle" x="403.5594" y="-186" font-family="Times,serif" font-size="14.00" fill="#000000">@Singleton</text>
<text text-anchor="middle" x="403.5594" y="-169.2" font-family="Times,serif" font-size="14.00" fill="#000000">EventBus</text>
</g>
<!-- 3b25dc60&#45;c408&#45;4142&#45;a2ab&#45;55af2114a554&#45;&gt;c849d814&#45;a44c&#45;4040&#45;a242&#45;099476ad49e6 -->
<g id="edge3" class="edge">
<title>3b25dc60&#45;c408&#45;4142&#45;a2ab&#45;55af2114a554&#45;&gt;c849d814&#45;a44c&#45;4040&#45;a242&#45;099476ad49e6</title>
<path fill="none" stroke="#000000" d="M205.1105,-343.6795C221.4021,-312.2175 259.1093,-247.4463 309.4142,-211.8 322.0374,-202.8551 337.451,-196.4894 352.1221,-191.9957"/>
<polygon fill="#000000" stroke="#000000" points="353.4436,-195.2595 362.117,-189.175 351.5423,-188.5226 353.4436,-195.2595"/>
</g>
<!-- 16961125&#45;ad67&#45;4eb3&#45;aedc&#45;a5d315d1516d -->
<g id="node11" class="node">
<title>16961125&#45;ad67&#45;4eb3&#45;aedc&#45;a5d315d1516d</title>
<polygon fill="#7fffd4" stroke="#7fffd4" points="451.6394,-142.4019 355.4794,-142.4019 355.4794,-101.1981 451.6394,-101.1981 451.6394,-142.4019"/>
<text text-anchor="middle" x="403.5594" y="-126" font-family="Times,serif" font-size="14.00" fill="#000000">@Singleton</text>
<text text-anchor="middle" x="403.5594" y="-109.2" font-family="Times,serif" font-size="14.00" fill="#000000">ServiceBridge</text>
</g>
<!-- 3b25dc60&#45;c408&#45;4142&#45;a2ab&#45;55af2114a554&#45;&gt;16961125&#45;ad67&#45;4eb3&#45;aedc&#45;a5d315d1516d -->
<g id="edge2" class="edge">
<title>3b25dc60&#45;c408&#45;4142&#45;a2ab&#45;55af2114a554&#45;&gt;16961125&#45;ad67&#45;4eb3&#45;aedc&#45;a5d315d1516d</title>
<path fill="none" stroke="#000000" d="M200.9756,-343.6417C212.4545,-303.1107 245.6647,-204.6844 309.4142,-151.8 319.83,-143.1594 332.7668,-136.9953 345.6818,-132.6019"/>
<polygon fill="#000000" stroke="#000000" points="346.984,-135.8632 355.5115,-129.5757 344.9243,-129.1731 346.984,-135.8632"/>
</g>
<!-- cac1e97b&#45;e402&#45;4fb7&#45;aa7e&#45;492447cf757a -->
<g id="node12" class="node">
<title>cac1e97b&#45;e402&#45;4fb7&#45;aa7e&#45;492447cf757a</title>
<polygon fill="#7fffd4" stroke="#7fffd4" points="444.6222,-82.4019 362.4966,-82.4019 362.4966,-41.1981 444.6222,-41.1981 444.6222,-82.4019"/>
<text text-anchor="middle" x="403.5594" y="-66" font-family="Times,serif" font-size="14.00" fill="#000000">@Singleton</text>
<text text-anchor="middle" x="403.5594" y="-49.2" font-family="Times,serif" font-size="14.00" fill="#000000">Preferences</text>
</g>
<!-- 3b25dc60&#45;c408&#45;4142&#45;a2ab&#45;55af2114a554&#45;&gt;cac1e97b&#45;e402&#45;4fb7&#45;aa7e&#45;492447cf757a -->
<g id="edge11" class="edge">
<title>3b25dc60&#45;c408&#45;4142&#45;a2ab&#45;55af2114a554&#45;&gt;cac1e97b&#45;e402&#45;4fb7&#45;aa7e&#45;492447cf757a</title>
<path fill="none" stroke="#000000" d="M198.5718,-343.7186C205.716,-295.5253 231.8057,-162.8343 309.4142,-91.8 321.2478,-80.9688 336.9987,-74.0476 352.2258,-69.625"/>
<polygon fill="#000000" stroke="#000000" points="353.3079,-72.9603 362.1102,-67.0636 351.5519,-66.1841 353.3079,-72.9603"/>
</g>
</g>
</svg>
