<svg width="1233px" height="169px"
 viewBox="0.00 0.00 1232.94 168.60" xmlns="http://www.w3.org/2000/svg" xmlns:xlink="http://www.w3.org/1999/xlink">
<g id="graph0" class="graph" transform="scale(1.0 1.0) rotate(0) translate(14.4 154.2)">
<title>org.owntracks.android.injection.components.AppComponent → org.owntracks.android.injection.modules.AndroidBindingModule_BindPreferencesActivity.PreferencesActivitySubcomponent → org.owntracks.android.ui.preferences.PreferencesActivityModule_BindNotificationPreferencesFragment.NotificationFragmentSubcomponent</title>
<polygon fill="#ffffff" stroke="transparent" points="-14.4,14.4 -14.4,-154.2 1218.5394,-154.2 1218.5394,14.4 -14.4,14.4"/>
<text text-anchor="middle" x="602.0697" y="-8.2" font-family="Times,serif" font-size="14.00" fill="#000000">AppComponent → AndroidBindingModule_BindPreferencesActivity.PreferencesActivitySubcomponent → PreferencesActivityModule_BindNotificationPreferencesFragment.NotificationFragmentSubcomponent</text>
<g id="clust1" class="cluster">
<title>cluster_Entry Points</title>
<polygon fill="none" stroke="#000000" points="402.6763,-35.8 402.6763,-112.8 599.9015,-112.8 599.9015,-35.8 402.6763,-35.8"/>
<text text-anchor="middle" x="445.4824" y="-96.2" font-family="Times,serif" font-size="14.00" fill="#000000">Entry Points</text>
</g>
<g id="clust4" class="cluster">
<title>cluster_AppComponent</title>
<g id="a_clust4"><a xlink:href="org.owntracks.android.injection.components.AppComponent.svg" xlink:title="Inherited from AppComponent\n@Singleton">
<polygon fill="none" stroke="#7fffd4" stroke-dasharray="5,2" points="619.9015,-32.8 619.9015,-131.8 809.4631,-131.8 809.4631,-32.8 619.9015,-32.8"/>
<text text-anchor="middle" x="714.6823" y="-115.2" font-family="Times,serif" font-size="14.00" fill="#000000">Inherited from AppComponent</text>
<text text-anchor="middle" x="714.6823" y="-98.4" font-family="Times,serif" font-size="14.00" fill="#000000">@Singleton</text>
</a>
</g>
</g>
<!-- 60d0ba45&#45;1b57&#45;4747&#45;bcde&#45;9c4a492e3647 -->
<g id="node1" class="node">
<title>60d0ba45&#45;1b57&#45;4747&#45;bcde&#45;9c4a492e3647</title>
<polygon fill="#40e0d0" stroke="#40e0d0" stroke-width="2" points="592.0142,-79.8 410.5636,-79.8 410.5636,-75.8 406.5636,-75.8 406.5636,-71.8 410.5636,-71.8 410.5636,-51.8 406.5636,-51.8 406.5636,-47.8 410.5636,-47.8 410.5636,-43.8 592.0142,-43.8 592.0142,-79.8"/>
<polyline fill="none" stroke="#40e0d0" stroke-width="2" points="410.5636,-75.8 414.5636,-75.8 414.5636,-71.8 410.5636,-71.8 "/>
<polyline fill="none" stroke="#40e0d0" stroke-width="2" points="410.5636,-51.8 414.5636,-51.8 414.5636,-47.8 410.5636,-47.8 "/>
<text text-anchor="middle" x="501.2889" y="-57.6" font-family="Times,serif" font-size="14.00" fill="#000000">inject (NotificationFragment)</text>
</g>
<!-- 3d11930c&#45;6476&#45;44d3&#45;b5d5&#45;9f77a89299dc -->
<g id="node2" class="node">
<title>3d11930c&#45;6476&#45;44d3&#45;b5d5&#45;9f77a89299dc</title>
<polygon fill="#7fffd4" stroke="#7fffd4" points="755.2451,-82.4019 673.1195,-82.4019 673.1195,-41.1981 755.2451,-41.1981 755.2451,-82.4019"/>
<text text-anchor="middle" x="714.1823" y="-66" font-family="Times,serif" font-size="14.00" fill="#000000">@Singleton</text>
<text text-anchor="middle" x="714.1823" y="-49.2" font-family="Times,serif" font-size="14.00" fill="#000000">Preferences</text>
</g>
<!-- 60d0ba45&#45;1b57&#45;4747&#45;bcde&#45;9c4a492e3647&#45;&gt;3d11930c&#45;6476&#45;44d3&#45;b5d5&#45;9f77a89299dc -->
<g id="edge1" class="edge">
<title>60d0ba45&#45;1b57&#45;4747&#45;bcde&#45;9c4a492e3647&#45;&gt;3d11930c&#45;6476&#45;44d3&#45;b5d5&#45;9f77a89299dc</title>
<path fill="none" stroke="#000000" d="M592.1924,-61.8C616.3759,-61.8 641.6532,-61.8 662.8859,-61.8"/>
<polygon fill="#000000" stroke="#000000" points="662.9618,-65.3001 672.9618,-61.8 662.9618,-58.3001 662.9618,-65.3001"/>
</g>
</g>
</svg>
