<svg width="1763px" height="624px"
 viewBox="0.00 0.00 1763.26 623.60" xmlns="http://www.w3.org/2000/svg" xmlns:xlink="http://www.w3.org/1999/xlink">
<g id="graph0" class="graph" transform="scale(1.0 1.0) rotate(0) translate(14.4 609.2)">
<title>org.owntracks.android.injection.components.AppComponent → org.owntracks.android.injection.modules.AndroidBindingModule_BindRegionsActivity.RegionsActivitySubcomponent</title>
<polygon fill="#ffffff" stroke="transparent" points="-14.4,14.4 -14.4,-609.2 1748.8639,-609.2 1748.8639,14.4 -14.4,14.4"/>
<text text-anchor="middle" x="281.7623" y="-8.2" font-family="Times,serif" font-size="14.00" fill="#000000">AppComponent → AndroidBindingModule_BindRegionsActivity.RegionsActivitySubcomponent</text>
<g id="clust4" class="cluster">
<title>cluster_AppComponent → AndroidBindingModule_BindRegionsActivity.RegionsActivitySubcomponent</title>
<g id="a_clust4"><a xlink:href="org.owntracks.android.injection.modules.AndroidBindingModule_BindRegionsActivity.RegionsActivitySubcomponent.svg" xlink:title="Inherited from AndroidBindingModule_BindRegionsActivity.RegionsActivitySubcomponent\n@PerActivity">
<polygon fill="none" stroke="#ffe4c4" stroke-dasharray="5,2" points="196.6922,-427.8 196.6922,-586.8 1726.4639,-586.8 1726.4639,-427.8 196.6922,-427.8"/>
<text text-anchor="middle" x="961.578" y="-570.2" font-family="Times,serif" font-size="14.00" fill="#000000">Inherited from AndroidBindingModule_BindRegionsActivity.RegionsActivitySubcomponent</text>
<text text-anchor="middle" x="961.578" y="-553.4" font-family="Times,serif" font-size="14.00" fill="#000000">@PerActivity</text>
</a>
</g>
</g>
<g id="clust1" class="cluster">
<title>cluster_Entry Points</title>
<polygon fill="none" stroke="#000000" points="8,-251.8 8,-328.8 175.6922,-328.8 175.6922,-251.8 8,-251.8"/>
<text text-anchor="middle" x="50.8061" y="-312.2" font-family="Times,serif" font-size="14.00" fill="#000000">Entry Points</text>
</g>
<g id="clust5" class="cluster">
<title>cluster_AppComponent</title>
<g id="a_clust5"><a xlink:href="org.owntracks.android.injection.components.AppComponent.svg" xlink:title="Inherited from AppComponent\n@Singleton">
<polygon fill="none" stroke="#7fffd4" stroke-dasharray="5,2" points="972.1226,-32.8 972.1226,-419.8 1215.0704,-419.8 1215.0704,-32.8 972.1226,-32.8"/>
<text text-anchor="middle" x="1093.5965" y="-403.2" font-family="Times,serif" font-size="14.00" fill="#000000">Inherited from AppComponent</text>
<text text-anchor="middle" x="1093.5965" y="-386.4" font-family="Times,serif" font-size="14.00" fill="#000000">@Singleton</text>
</a>
</g>
</g>
<!-- 634e5043&#45;7241&#45;4fe1&#45;81f4&#45;1a75354c67ba -->
<g id="node1" class="node">
<title>634e5043&#45;7241&#45;4fe1&#45;81f4&#45;1a75354c67ba</title>
<polygon fill="#40e0d0" stroke="#40e0d0" stroke-width="2" points="167.5386,-295.8 16.1536,-295.8 16.1536,-291.8 12.1536,-291.8 12.1536,-287.8 16.1536,-287.8 16.1536,-267.8 12.1536,-267.8 12.1536,-263.8 16.1536,-263.8 16.1536,-259.8 167.5386,-259.8 167.5386,-295.8"/>
<polyline fill="none" stroke="#40e0d0" stroke-width="2" points="16.1536,-291.8 20.1536,-291.8 20.1536,-287.8 16.1536,-287.8 "/>
<polyline fill="none" stroke="#40e0d0" stroke-width="2" points="16.1536,-267.8 20.1536,-267.8 20.1536,-263.8 16.1536,-263.8 "/>
<text text-anchor="middle" x="91.8461" y="-273.6" font-family="Times,serif" font-size="14.00" fill="#000000">inject (RegionsActivity)</text>
</g>
<!-- 4ac98346&#45;123c&#45;484e&#45;8d9e&#45;76c6154c30c0 -->
<g id="node2" class="node">
<title>4ac98346&#45;123c&#45;484e&#45;8d9e&#45;76c6154c30c0</title>
<polygon fill="#40e0d0" stroke="#40e0d0" points="507.321,-472.8 204.4824,-472.8 204.4824,-436.8 507.321,-436.8 507.321,-472.8"/>
<text text-anchor="middle" x="355.9017" y="-450.6" font-family="Times,serif" font-size="14.00" fill="#000000">RegionsMvvm.ViewModel&lt;RegionsMvvm.View&gt;</text>
</g>
<!-- 634e5043&#45;7241&#45;4fe1&#45;81f4&#45;1a75354c67ba&#45;&gt;4ac98346&#45;123c&#45;484e&#45;8d9e&#45;76c6154c30c0 -->
<g id="edge3" class="edge">
<title>634e5043&#45;7241&#45;4fe1&#45;81f4&#45;1a75354c67ba&#45;&gt;4ac98346&#45;123c&#45;484e&#45;8d9e&#45;76c6154c30c0</title>
<path fill="none" stroke="#000000" d="M99.8466,-296.2618C113.2846,-325.0417 143.1562,-380.3478 185.6922,-409.8 199.9768,-419.6907 216.3098,-427.4078 233.0772,-433.4288"/>
<polygon fill="#000000" stroke="#000000" points="232.3934,-436.8923 242.9877,-436.7815 234.6367,-430.2614 232.3934,-436.8923"/>
</g>
<!-- 6b641230&#45;9cda&#45;423b&#45;926e&#45;9d1395d6a642 -->
<g id="node3" class="node">
<title>6b641230&#45;9cda&#45;423b&#45;926e&#45;9d1395d6a642</title>
<polygon fill="#ffe4c4" stroke="#ffe4c4" points="943.209,-477.4019 836.8636,-477.4019 836.8636,-436.1981 943.209,-436.1981 943.209,-477.4019"/>
<text text-anchor="middle" x="890.0363" y="-461" font-family="Times,serif" font-size="14.00" fill="#000000">@PerActivity</text>
<text text-anchor="middle" x="890.0363" y="-444.2" font-family="Times,serif" font-size="14.00" fill="#000000">DrawerProvider</text>
</g>
<!-- 634e5043&#45;7241&#45;4fe1&#45;81f4&#45;1a75354c67ba&#45;&gt;6b641230&#45;9cda&#45;423b&#45;926e&#45;9d1395d6a642 -->
<g id="edge5" class="edge">
<title>634e5043&#45;7241&#45;4fe1&#45;81f4&#45;1a75354c67ba&#45;&gt;6b641230&#45;9cda&#45;423b&#45;926e&#45;9d1395d6a642</title>
<path fill="none" stroke="#000000" d="M132.0803,-295.9686C183.0684,-317.298 274.1731,-349.8 355.9017,-349.8 355.9017,-349.8 355.9017,-349.8 799.45,-349.8 840.0362,-349.8 866.1833,-395.1979 879.4816,-426.8523"/>
<polygon fill="#000000" stroke="#000000" points="876.2421,-428.1777 883.198,-436.1693 882.744,-425.5842 876.2421,-428.1777"/>
</g>
<!-- 0152385f&#45;29bd&#45;4360&#45;8571&#45;fa93cd352082 -->
<g id="node4" class="node">
<title>0152385f&#45;29bd&#45;4360&#45;8571&#45;fa93cd352082</title>
<polygon fill="#ffe4c4" stroke="#ffe4c4" points="936.9713,-537.4019 843.1013,-537.4019 843.1013,-496.1981 936.9713,-496.1981 936.9713,-537.4019"/>
<text text-anchor="middle" x="890.0363" y="-521" font-family="Times,serif" font-size="14.00" fill="#000000">@PerActivity</text>
<text text-anchor="middle" x="890.0363" y="-504.2" font-family="Times,serif" font-size="14.00" fill="#000000">Navigator</text>
</g>
<!-- 634e5043&#45;7241&#45;4fe1&#45;81f4&#45;1a75354c67ba&#45;&gt;0152385f&#45;29bd&#45;4360&#45;8571&#45;fa93cd352082 -->
<g id="edge6" class="edge">
<title>634e5043&#45;7241&#45;4fe1&#45;81f4&#45;1a75354c67ba&#45;&gt;0152385f&#45;29bd&#45;4360&#45;8571&#45;fa93cd352082</title>
<path fill="none" stroke="#000000" d="M114.3356,-296.0574C134.7678,-311.8829 166.2778,-334.4387 196.6922,-348.8 263.4073,-380.3021 282.123,-395.8 355.9017,-395.8 355.9017,-395.8 355.9017,-395.8 799.45,-395.8 843.1939,-395.8 807.986,-454.0186 836.95,-486.8 837.7977,-487.7594 838.6838,-488.6952 839.6027,-489.6073"/>
<polygon fill="#000000" stroke="#000000" points="837.3354,-492.2737 847.1998,-496.1395 841.8992,-486.9659 837.3354,-492.2737"/>
</g>
<!-- af3bdaed&#45;69de&#45;4ab5&#45;8daa&#45;13fe50dba9d0 -->
<g id="node8" class="node">
<title>af3bdaed&#45;69de&#45;4ab5&#45;8daa&#45;13fe50dba9d0</title>
<polygon fill="#40e0d0" stroke="#40e0d0" points="1207.0443,-196.8 980.1487,-196.8 980.1487,-160.8 1207.0443,-160.8 1207.0443,-196.8"/>
<text text-anchor="middle" x="1093.5965" y="-174.6" font-family="Times,serif" font-size="14.00" fill="#000000">DispatchingAndroidInjector&lt;Object&gt;</text>
</g>
<!-- 634e5043&#45;7241&#45;4fe1&#45;81f4&#45;1a75354c67ba&#45;&gt;af3bdaed&#45;69de&#45;4ab5&#45;8daa&#45;13fe50dba9d0 -->
<g id="edge1" class="edge">
<title>634e5043&#45;7241&#45;4fe1&#45;81f4&#45;1a75354c67ba&#45;&gt;af3bdaed&#45;69de&#45;4ab5&#45;8daa&#45;13fe50dba9d0</title>
<path fill="none" stroke="#000000" d="M128.442,-259.7092C178.5128,-236.6672 271.7716,-199.8 355.9017,-199.8 355.9017,-199.8 355.9017,-199.8 890.0363,-199.8 915.9477,-199.8 943.6169,-198.0956 969.9393,-195.6578"/>
<polygon fill="#000000" stroke="#000000" points="970.3384,-199.1357 979.9552,-194.6897 969.6648,-192.1681 970.3384,-199.1357"/>
</g>
<!-- 05802cd9&#45;2169&#45;450b&#45;b9e8&#45;4e92415fe721 -->
<g id="node9" class="node">
<title>05802cd9&#45;2169&#45;450b&#45;b9e8&#45;4e92415fe721</title>
<polygon fill="#7fffd4" stroke="#7fffd4" points="1134.6593,-142.4019 1052.5337,-142.4019 1052.5337,-101.1981 1134.6593,-101.1981 1134.6593,-142.4019"/>
<text text-anchor="middle" x="1093.5965" y="-126" font-family="Times,serif" font-size="14.00" fill="#000000">@Singleton</text>
<text text-anchor="middle" x="1093.5965" y="-109.2" font-family="Times,serif" font-size="14.00" fill="#000000">EventBus</text>
</g>
<!-- 634e5043&#45;7241&#45;4fe1&#45;81f4&#45;1a75354c67ba&#45;&gt;05802cd9&#45;2169&#45;450b&#45;b9e8&#45;4e92415fe721 -->
<g id="edge2" class="edge">
<title>634e5043&#45;7241&#45;4fe1&#45;81f4&#45;1a75354c67ba&#45;&gt;05802cd9&#45;2169&#45;450b&#45;b9e8&#45;4e92415fe721</title>
<path fill="none" stroke="#000000" d="M110.3504,-259.5645C130.1545,-241.0063 163.2598,-212.6432 196.6922,-195.8 262.2542,-162.7699 282.4894,-151.8 355.9017,-151.8 355.9017,-151.8 355.9017,-151.8 890.0363,-151.8 942.397,-151.8 1001.5319,-141.9649 1042.5178,-133.5572"/>
<polygon fill="#000000" stroke="#000000" points="1043.463,-136.9353 1052.5318,-131.4573 1042.0263,-130.0843 1043.463,-136.9353"/>
</g>
<!-- 3c8131c6&#45;3661&#45;4a55&#45;8e6c&#45;d90150804995 -->
<g id="node10" class="node">
<title>3c8131c6&#45;3661&#45;4a55&#45;8e6c&#45;d90150804995</title>
<polygon fill="#7fffd4" stroke="#7fffd4" points="1134.6593,-82.4019 1052.5337,-82.4019 1052.5337,-41.1981 1134.6593,-41.1981 1134.6593,-82.4019"/>
<text text-anchor="middle" x="1093.5965" y="-66" font-family="Times,serif" font-size="14.00" fill="#000000">@Singleton</text>
<text text-anchor="middle" x="1093.5965" y="-49.2" font-family="Times,serif" font-size="14.00" fill="#000000">Preferences</text>
</g>
<!-- 634e5043&#45;7241&#45;4fe1&#45;81f4&#45;1a75354c67ba&#45;&gt;3c8131c6&#45;3661&#45;4a55&#45;8e6c&#45;d90150804995 -->
<g id="edge4" class="edge">
<title>634e5043&#45;7241&#45;4fe1&#45;81f4&#45;1a75354c67ba&#45;&gt;3c8131c6&#45;3661&#45;4a55&#45;8e6c&#45;d90150804995</title>
<path fill="none" stroke="#000000" d="M102.4306,-259.3622C119.1775,-231.6559 154.2755,-179.1941 196.6922,-147.8 257.9915,-102.4301 279.6388,-83.8 355.9017,-83.8 355.9017,-83.8 355.9017,-83.8 890.0363,-83.8 942.1391,-83.8 1001.3115,-76.5876 1042.3765,-70.422"/>
<polygon fill="#000000" stroke="#000000" points="1043.0579,-73.8585 1052.4113,-68.882 1041.9961,-66.9395 1043.0579,-73.8585"/>
</g>
<!-- b441787b&#45;32d3&#45;4f66&#45;abb1&#45;58720b90d62a -->
<g id="node5" class="node">
<title>b441787b&#45;32d3&#45;4f66&#45;abb1&#45;58720b90d62a</title>
<polygon fill="#ffe4c4" stroke="#ffe4c4" points="761.8275,-477.4019 633.3179,-477.4019 633.3179,-436.1981 761.8275,-436.1981 761.8275,-477.4019"/>
<text text-anchor="middle" x="697.5727" y="-461" font-family="Times,serif" font-size="14.00" fill="#000000">@PerActivity</text>
<text text-anchor="middle" x="697.5727" y="-444.2" font-family="Times,serif" font-size="14.00" fill="#000000">RegionsViewModel</text>
</g>
<!-- 4ac98346&#45;123c&#45;484e&#45;8d9e&#45;76c6154c30c0&#45;&gt;b441787b&#45;32d3&#45;4f66&#45;abb1&#45;58720b90d62a -->
<g id="edge7" class="edge">
<title>4ac98346&#45;123c&#45;484e&#45;8d9e&#45;76c6154c30c0&#45;&gt;b441787b&#45;32d3&#45;4f66&#45;abb1&#45;58720b90d62a</title>
<path fill="none" stroke="#000000" stroke-dasharray="1,5" d="M507.2557,-455.686C547.373,-455.9208 588.9424,-456.1641 622.9588,-456.3632"/>
<polygon fill="#000000" stroke="#000000" points="623.2428,-459.8649 633.2631,-456.4236 623.2838,-452.865 623.2428,-459.8649"/>
<text text-anchor="middle" x="570.1533" y="-460" font-family="Times,serif" font-size="14.00" fill="#000000">delegates</text>
</g>
<!-- a7a7ea06&#45;8336&#45;4b8a&#45;886d&#45;bb646888a56a -->
<g id="node6" class="node">
<title>a7a7ea06&#45;8336&#45;4b8a&#45;886d&#45;bb646888a56a</title>
<polygon fill="#ffe4c4" stroke="#ffe4c4" points="1374.5547,-507.4019 1243.9087,-507.4019 1243.9087,-466.1981 1374.5547,-466.1981 1374.5547,-507.4019"/>
<text text-anchor="middle" x="1309.2317" y="-491" font-family="Times,serif" font-size="14.00" fill="#000000">@PerActivity</text>
<text text-anchor="middle" x="1309.2317" y="-474.2" font-family="Times,serif" font-size="14.00" fill="#000000">AppCompatActivity</text>
</g>
<!-- 6b641230&#45;9cda&#45;423b&#45;926e&#45;9d1395d6a642&#45;&gt;a7a7ea06&#45;8336&#45;4b8a&#45;886d&#45;bb646888a56a -->
<g id="edge9" class="edge">
<title>6b641230&#45;9cda&#45;423b&#45;926e&#45;9d1395d6a642&#45;&gt;a7a7ea06&#45;8336&#45;4b8a&#45;886d&#45;bb646888a56a</title>
<path fill="none" stroke="#000000" d="M943.1277,-460.5995C1016.6207,-465.8591 1149.7579,-475.3871 1233.6208,-481.3889"/>
<polygon fill="#000000" stroke="#000000" points="1233.625,-484.898 1243.8493,-482.1209 1234.1247,-477.9159 1233.625,-484.898"/>
</g>
<!-- 0497af69&#45;8954&#45;478a&#45;abe5&#45;8c6d4cfdfd1d -->
<g id="node11" class="node">
<title>0497af69&#45;8954&#45;478a&#45;abe5&#45;8c6d4cfdfd1d</title>
<polygon fill="#7fffd4" stroke="#7fffd4" points="1134.6593,-370.4019 1052.5337,-370.4019 1052.5337,-329.1981 1134.6593,-329.1981 1134.6593,-370.4019"/>
<text text-anchor="middle" x="1093.5965" y="-354" font-family="Times,serif" font-size="14.00" fill="#000000">@Singleton</text>
<text text-anchor="middle" x="1093.5965" y="-337.2" font-family="Times,serif" font-size="14.00" fill="#000000">Scheduler</text>
</g>
<!-- 6b641230&#45;9cda&#45;423b&#45;926e&#45;9d1395d6a642&#45;&gt;0497af69&#45;8954&#45;478a&#45;abe5&#45;8c6d4cfdfd1d -->
<g id="edge8" class="edge">
<title>6b641230&#45;9cda&#45;423b&#45;926e&#45;9d1395d6a642&#45;&gt;0497af69&#45;8954&#45;478a&#45;abe5&#45;8c6d4cfdfd1d</title>
<path fill="none" stroke="#000000" d="M929.2848,-436.1693C962.2677,-418.8321 1009.5548,-393.9759 1044.9395,-375.3762"/>
<polygon fill="#000000" stroke="#000000" points="1046.8986,-378.3005 1054.1218,-370.5496 1043.6416,-372.1044 1046.8986,-378.3005"/>
</g>
<!-- 0152385f&#45;29bd&#45;4360&#45;8571&#45;fa93cd352082&#45;&gt;a7a7ea06&#45;8336&#45;4b8a&#45;886d&#45;bb646888a56a -->
<g id="edge11" class="edge">
<title>0152385f&#45;29bd&#45;4360&#45;8571&#45;fa93cd352082&#45;&gt;a7a7ea06&#45;8336&#45;4b8a&#45;886d&#45;bb646888a56a</title>
<path fill="none" stroke="#000000" d="M936.9031,-513.4459C1008.9346,-508.291 1147.5498,-498.3709 1233.824,-492.1966"/>
<polygon fill="#000000" stroke="#000000" points="1234.0937,-495.6863 1243.8183,-491.4814 1233.5939,-488.7042 1234.0937,-495.6863"/>
</g>
<!-- b441787b&#45;32d3&#45;4f66&#45;abb1&#45;58720b90d62a&#45;&gt;0152385f&#45;29bd&#45;4360&#45;8571&#45;fa93cd352082 -->
<g id="edge10" class="edge">
<title>b441787b&#45;32d3&#45;4f66&#45;abb1&#45;58720b90d62a&#45;&gt;0152385f&#45;29bd&#45;4360&#45;8571&#45;fa93cd352082</title>
<path fill="none" stroke="#000000" d="M761.9279,-476.8625C785.0595,-484.0738 810.9613,-492.1486 833.389,-499.1404"/>
<polygon fill="#000000" stroke="#000000" points="832.5087,-502.532 843.0972,-502.1669 834.5921,-495.8492 832.5087,-502.532"/>
</g>
<!-- ea80ff7d&#45;bb48&#45;42f4&#45;b4aa&#45;68e2c51f7546 -->
<g id="node12" class="node">
<title>ea80ff7d&#45;bb48&#45;42f4&#45;b4aa&#45;68e2c51f7546</title>
<polygon fill="#40e0d0" stroke="#40e0d0" points="1146.8029,-310.8 1040.3901,-310.8 1040.3901,-274.8 1146.8029,-274.8 1146.8029,-310.8"/>
<text text-anchor="middle" x="1093.5965" y="-288.6" font-family="Times,serif" font-size="14.00" fill="#000000">WaypointsRepo</text>
</g>
<!-- b441787b&#45;32d3&#45;4f66&#45;abb1&#45;58720b90d62a&#45;&gt;ea80ff7d&#45;bb48&#45;42f4&#45;b4aa&#45;68e2c51f7546 -->
<g id="edge12" class="edge">
<title>b441787b&#45;32d3&#45;4f66&#45;abb1&#45;58720b90d62a&#45;&gt;ea80ff7d&#45;bb48&#45;42f4&#45;b4aa&#45;68e2c51f7546</title>
<path fill="none" stroke="#000000" d="M711.5381,-436.1475C731.5639,-408.3427 771.221,-359.617 817.95,-335.8 884.9149,-301.6691 971.9821,-293.1167 1030.1736,-291.6739"/>
<polygon fill="#000000" stroke="#000000" points="1030.3986,-295.1704 1040.3324,-291.4869 1030.2697,-288.1716 1030.3986,-295.1704"/>
</g>
<!-- c2bcd2ec&#45;09d4&#45;44fa&#45;af13&#45;ca4b6b7f0ed1 -->
<g id="node13" class="node">
<title>c2bcd2ec&#45;09d4&#45;44fa&#45;af13&#45;ca4b6b7f0ed1</title>
<polygon fill="#7fffd4" stroke="#7fffd4" points="1153.7818,-256.4019 1033.4112,-256.4019 1033.4112,-215.1981 1153.7818,-215.1981 1153.7818,-256.4019"/>
<text text-anchor="middle" x="1093.5965" y="-240" font-family="Times,serif" font-size="14.00" fill="#000000">@Singleton</text>
<text text-anchor="middle" x="1093.5965" y="-223.2" font-family="Times,serif" font-size="14.00" fill="#000000">LocationProcessor</text>
</g>
<!-- b441787b&#45;32d3&#45;4f66&#45;abb1&#45;58720b90d62a&#45;&gt;c2bcd2ec&#45;09d4&#45;44fa&#45;af13&#45;ca4b6b7f0ed1 -->
<g id="edge13" class="edge">
<title>b441787b&#45;32d3&#45;4f66&#45;abb1&#45;58720b90d62a&#45;&gt;c2bcd2ec&#45;09d4&#45;44fa&#45;af13&#45;ca4b6b7f0ed1</title>
<path fill="none" stroke="#000000" d="M709.057,-435.9514C729.674,-400.664 776.5098,-329.6166 836.95,-294.8 894.4509,-261.6766 969.2503,-247.1473 1023.2484,-240.7752"/>
<polygon fill="#000000" stroke="#000000" points="1023.8684,-244.2279 1033.4194,-239.642 1023.0933,-237.2709 1023.8684,-244.2279"/>
</g>
<!-- a57270ff&#45;af91&#45;493f&#45;8317&#45;a56e9cf93b23 -->
<g id="node7" class="node">
<title>a57270ff&#45;af91&#45;493f&#45;8317&#45;a56e9cf93b23</title>
<polygon fill="#40e0d0" stroke="#40e0d0" points="1718.4572,-504.8 1545.0838,-504.8 1500.4839,-468.8 1673.8573,-468.8 1718.4572,-504.8"/>
<text text-anchor="middle" x="1609.4705" y="-482.6" font-family="Times,serif" font-size="14.00" fill="#000000">RegionsActivity</text>
</g>
<!-- a7a7ea06&#45;8336&#45;4b8a&#45;886d&#45;bb646888a56a&#45;&gt;a57270ff&#45;af91&#45;493f&#45;8317&#45;a56e9cf93b23 -->
<g id="edge14" class="edge">
<title>a7a7ea06&#45;8336&#45;4b8a&#45;886d&#45;bb646888a56a&#45;&gt;a57270ff&#45;af91&#45;493f&#45;8317&#45;a56e9cf93b23</title>
<path fill="none" stroke="#000000" stroke-dasharray="1,5" d="M1374.7494,-486.8C1415.0928,-486.8 1467.5398,-486.8 1512.6221,-486.8"/>
<polygon fill="#000000" stroke="#000000" points="1512.716,-490.3001 1522.716,-486.8 1512.716,-483.3001 1512.716,-490.3001"/>
<text text-anchor="middle" x="1437.4351" y="-491" font-family="Times,serif" font-size="14.00" fill="#000000">delegates</text>
</g>
</g>
</svg>
