<svg width="1067px" height="231px"
 viewBox="0.00 0.00 1067.45 230.60" xmlns="http://www.w3.org/2000/svg" xmlns:xlink="http://www.w3.org/1999/xlink">
<g id="graph0" class="graph" transform="scale(1.0 1.0) rotate(0) translate(14.4 216.2)">
<title>org.owntracks.android.injection.components.AppComponent → org.owntracks.android.injection.modules.AndroidBindingModule_BindWelcomeActivity.WelcomeActivitySubcomponent → org.owntracks.android.ui.welcome.WelcomeActivityModule_BindFinishFragment.FinishFragmentSubcomponent</title>
<polygon fill="#ffffff" stroke="transparent" points="-14.4,14.4 -14.4,-216.2 1053.0482,-216.2 1053.0482,14.4 -14.4,14.4"/>
<text text-anchor="middle" x="519.3241" y="-8.2" font-family="Times,serif" font-size="14.00" fill="#000000">AppComponent → AndroidBindingModule_BindWelcomeActivity.WelcomeActivitySubcomponent → WelcomeActivityModule_BindFinishFragment.FinishFragmentSubcomponent</text>
<g id="clust2" class="cluster">
<title>cluster_Dependency Graph</title>
<polygon fill="none" stroke="#000000" points="261.1016,-116.8 261.1016,-193.8 394.183,-193.8 394.183,-116.8 261.1016,-116.8"/>
<text text-anchor="middle" x="323.325" y="-177.2" font-family="Times,serif" font-size="14.00" fill="#000000">Dependency Graph</text>
</g>
<g id="clust1" class="cluster">
<title>cluster_Entry Points</title>
<polygon fill="none" stroke="#000000" points="76.5174,-70.8 76.5174,-147.8 241.1016,-147.8 241.1016,-70.8 76.5174,-70.8"/>
<text text-anchor="middle" x="119.3235" y="-131.2" font-family="Times,serif" font-size="14.00" fill="#000000">Entry Points</text>
</g>
<g id="clust5" class="cluster">
<title>cluster_AppComponent → AndroidBindingModule_BindWelcomeActivity.WelcomeActivitySubcomponent</title>
<g id="a_clust5"><a xlink:href="org.owntracks.android.injection.modules.AndroidBindingModule_BindWelcomeActivity.WelcomeActivitySubcomponent.svg" xlink:title="Inherited from AndroidBindingModule_BindWelcomeActivity.WelcomeActivitySubcomponent\n@PerActivity">
<polygon fill="none" stroke="#ffe4c4" stroke-dasharray="5,2" points="414.183,-32.8 414.183,-185.8 970.1308,-185.8 970.1308,-32.8 414.183,-32.8"/>
<text text-anchor="middle" x="692.1569" y="-169.2" font-family="Times,serif" font-size="14.00" fill="#000000">Inherited from AndroidBindingModule_BindWelcomeActivity.WelcomeActivitySubcomponent</text>
<text text-anchor="middle" x="692.1569" y="-152.4" font-family="Times,serif" font-size="14.00" fill="#000000">@PerActivity</text>
</a>
</g>
</g>
<!-- cae89f45&#45;b3f6&#45;42bf&#45;8efc&#45;967ddca5c27d -->
<g id="node1" class="node">
<title>cae89f45&#45;b3f6&#45;42bf&#45;8efc&#45;967ddca5c27d</title>
<polygon fill="#40e0d0" stroke="#40e0d0" stroke-width="2" points="232.8943,-114.8 84.7247,-114.8 84.7247,-110.8 80.7247,-110.8 80.7247,-106.8 84.7247,-106.8 84.7247,-86.8 80.7247,-86.8 80.7247,-82.8 84.7247,-82.8 84.7247,-78.8 232.8943,-78.8 232.8943,-114.8"/>
<polyline fill="none" stroke="#40e0d0" stroke-width="2" points="84.7247,-110.8 88.7247,-110.8 88.7247,-106.8 84.7247,-106.8 "/>
<polyline fill="none" stroke="#40e0d0" stroke-width="2" points="84.7247,-86.8 88.7247,-86.8 88.7247,-82.8 84.7247,-82.8 "/>
<text text-anchor="middle" x="158.8095" y="-92.6" font-family="Times,serif" font-size="14.00" fill="#000000">inject (FinishFragment)</text>
</g>
<!-- dda7c840&#45;d3ae&#45;428d&#45;8b08&#45;4c44e39edfb4 -->
<g id="node2" class="node">
<title>dda7c840&#45;d3ae&#45;428d&#45;8b08&#45;4c44e39edfb4</title>
<polygon fill="#40e0d0" stroke="#40e0d0" points="386.2237,-160.8 269.0609,-160.8 269.0609,-124.8 386.2237,-124.8 386.2237,-160.8"/>
<text text-anchor="middle" x="327.6423" y="-138.6" font-family="Times,serif" font-size="14.00" fill="#000000">NoOpViewModel</text>
</g>
<!-- cae89f45&#45;b3f6&#45;42bf&#45;8efc&#45;967ddca5c27d&#45;&gt;dda7c840&#45;d3ae&#45;428d&#45;8b08&#45;4c44e39edfb4 -->
<g id="edge2" class="edge">
<title>cae89f45&#45;b3f6&#45;42bf&#45;8efc&#45;967ddca5c27d&#45;&gt;dda7c840&#45;d3ae&#45;428d&#45;8b08&#45;4c44e39edfb4</title>
<path fill="none" stroke="#000000" d="M225.0521,-114.8484C236.27,-117.9048 247.9374,-121.0837 259.2101,-124.155"/>
<polygon fill="#000000" stroke="#000000" points="258.4252,-127.5687 268.9935,-126.8206 260.2653,-120.8149 258.4252,-127.5687"/>
</g>
<!-- 69ca124d&#45;0071&#45;4ac7&#45;b709&#45;41b58b8d31d2 -->
<g id="node3" class="node">
<title>69ca124d&#45;0071&#45;4ac7&#45;b709&#45;41b58b8d31d2</title>
<polygon fill="#40e0d0" stroke="#40e0d0" points="805.1047,-76.8 578.2091,-76.8 578.2091,-40.8 805.1047,-40.8 805.1047,-76.8"/>
<text text-anchor="middle" x="691.6569" y="-54.6" font-family="Times,serif" font-size="14.00" fill="#000000">DispatchingAndroidInjector&lt;Object&gt;</text>
</g>
<!-- cae89f45&#45;b3f6&#45;42bf&#45;8efc&#45;967ddca5c27d&#45;&gt;69ca124d&#45;0071&#45;4ac7&#45;b709&#45;41b58b8d31d2 -->
<g id="edge3" class="edge">
<title>cae89f45&#45;b3f6&#45;42bf&#45;8efc&#45;967ddca5c27d&#45;&gt;69ca124d&#45;0071&#45;4ac7&#45;b709&#45;41b58b8d31d2</title>
<path fill="none" stroke="#000000" d="M232.8996,-91.5163C319.5209,-85.3389 464.2226,-75.0195 567.9614,-67.6213"/>
<polygon fill="#000000" stroke="#000000" points="568.4593,-71.0948 578.1849,-66.8923 567.9613,-64.1126 568.4593,-71.0948"/>
</g>
<!-- 9bac6c9e&#45;5393&#45;430c&#45;a064&#45;abf51e635f42 -->
<g id="node4" class="node">
<title>9bac6c9e&#45;5393&#45;430c&#45;a064&#45;abf51e635f42</title>
<polygon fill="#ffe4c4" stroke="#ffe4c4" points="738.5919,-136.4019 644.7219,-136.4019 644.7219,-95.1981 738.5919,-95.1981 738.5919,-136.4019"/>
<text text-anchor="middle" x="691.6569" y="-120" font-family="Times,serif" font-size="14.00" fill="#000000">@PerActivity</text>
<text text-anchor="middle" x="691.6569" y="-103.2" font-family="Times,serif" font-size="14.00" fill="#000000">Navigator</text>
</g>
<!-- cae89f45&#45;b3f6&#45;42bf&#45;8efc&#45;967ddca5c27d&#45;&gt;9bac6c9e&#45;5393&#45;430c&#45;a064&#45;abf51e635f42 -->
<g id="edge1" class="edge">
<title>cae89f45&#45;b3f6&#45;42bf&#45;8efc&#45;967ddca5c27d&#45;&gt;9bac6c9e&#45;5393&#45;430c&#45;a064&#45;abf51e635f42</title>
<path fill="none" stroke="#000000" d="M232.8996,-99.4419C340.5035,-103.2788 537.7341,-110.3115 634.7302,-113.7701"/>
<polygon fill="#000000" stroke="#000000" points="634.8062,-117.275 644.9246,-114.1336 635.0557,-110.2794 634.8062,-117.275"/>
</g>
<!-- dda7c840&#45;d3ae&#45;428d&#45;8b08&#45;4c44e39edfb4&#45;&gt;9bac6c9e&#45;5393&#45;430c&#45;a064&#45;abf51e635f42 -->
<g id="edge4" class="edge">
<title>dda7c840&#45;d3ae&#45;428d&#45;8b08&#45;4c44e39edfb4&#45;&gt;9bac6c9e&#45;5393&#45;430c&#45;a064&#45;abf51e635f42</title>
<path fill="none" stroke="#000000" d="M386.5321,-138.432C454.9553,-133.3568 567.0806,-125.0402 634.6777,-120.0263"/>
<polygon fill="#000000" stroke="#000000" points="635.0103,-123.5114 644.7239,-119.2812 634.4924,-116.5305 635.0103,-123.5114"/>
</g>
</g>
</svg>
