<svg width="1122px" height="390px"
 viewBox="0.00 0.00 1121.87 389.60" xmlns="http://www.w3.org/2000/svg" xmlns:xlink="http://www.w3.org/1999/xlink">
<g id="graph0" class="graph" transform="scale(1.0 1.0) rotate(0) translate(14.4 375.2)">
<title>org.owntracks.android.injection.components.AppComponent → org.owntracks.android.injection.modules.AndroidBindingModule_BindWelcomeActivity.WelcomeActivitySubcomponent → org.owntracks.android.ui.welcome.WelcomeActivityModule_BindPermissionFragment.PermissionFragmentSubcomponent</title>
<polygon fill="#ffffff" stroke="transparent" points="-14.4,14.4 -14.4,-375.2 1107.469,-375.2 1107.469,14.4 -14.4,14.4"/>
<text text-anchor="middle" x="546.5345" y="-8.2" font-family="Times,serif" font-size="14.00" fill="#000000">AppComponent → AndroidBindingModule_BindWelcomeActivity.WelcomeActivitySubcomponent → WelcomeActivityModule_BindPermissionFragment.PermissionFragmentSubcomponent</text>
<g id="clust4" class="cluster">
<title>cluster_AppComponent → AndroidBindingModule_BindWelcomeActivity.WelcomeActivitySubcomponent</title>
<g id="a_clust4"><a xlink:href="org.owntracks.android.injection.modules.AndroidBindingModule_BindWelcomeActivity.WelcomeActivitySubcomponent.svg" xlink:title="Inherited from AndroidBindingModule_BindWelcomeActivity.WelcomeActivitySubcomponent\n@PerActivity">
<polygon fill="none" stroke="#ffe4c4" stroke-dasharray="5,2" points="378.4579,-139.8 378.4579,-352.8 934.4057,-352.8 934.4057,-139.8 378.4579,-139.8"/>
<text text-anchor="middle" x="656.4318" y="-336.2" font-family="Times,serif" font-size="14.00" fill="#000000">Inherited from AndroidBindingModule_BindWelcomeActivity.WelcomeActivitySubcomponent</text>
<text text-anchor="middle" x="656.4318" y="-319.4" font-family="Times,serif" font-size="14.00" fill="#000000">@PerActivity</text>
</a>
</g>
</g>
<g id="clust1" class="cluster">
<title>cluster_Entry Points</title>
<polygon fill="none" stroke="#000000" points="166.6633,-170.8 166.6633,-247.8 358.4579,-247.8 358.4579,-170.8 166.6633,-170.8"/>
<text text-anchor="middle" x="209.4694" y="-231.2" font-family="Times,serif" font-size="14.00" fill="#000000">Entry Points</text>
</g>
<g id="clust5" class="cluster">
<title>cluster_AppComponent</title>
<g id="a_clust5"><a xlink:href="org.owntracks.android.injection.components.AppComponent.svg" xlink:title="Inherited from AppComponent\n@Singleton">
<polygon fill="none" stroke="#7fffd4" stroke-dasharray="5,2" points="561.651,-32.8 561.651,-131.8 751.2126,-131.8 751.2126,-32.8 561.651,-32.8"/>
<text text-anchor="middle" x="656.4318" y="-115.2" font-family="Times,serif" font-size="14.00" fill="#000000">Inherited from AppComponent</text>
<text text-anchor="middle" x="656.4318" y="-98.4" font-family="Times,serif" font-size="14.00" fill="#000000">@Singleton</text>
</a>
</g>
</g>
<!-- 84627d66&#45;fb57&#45;4797&#45;ba57&#45;fb8ff90b4d56 -->
<g id="node1" class="node">
<title>84627d66&#45;fb57&#45;4797&#45;ba57&#45;fb8ff90b4d56</title>
<polygon fill="#40e0d0" stroke="#40e0d0" stroke-width="2" points="350.3553,-214.8 174.7659,-214.8 174.7659,-210.8 170.7659,-210.8 170.7659,-206.8 174.7659,-206.8 174.7659,-186.8 170.7659,-186.8 170.7659,-182.8 174.7659,-182.8 174.7659,-178.8 350.3553,-178.8 350.3553,-214.8"/>
<polyline fill="none" stroke="#40e0d0" stroke-width="2" points="174.7659,-210.8 178.7659,-210.8 178.7659,-206.8 174.7659,-206.8 "/>
<polyline fill="none" stroke="#40e0d0" stroke-width="2" points="174.7659,-186.8 178.7659,-186.8 178.7659,-182.8 174.7659,-182.8 "/>
<text text-anchor="middle" x="262.5606" y="-192.6" font-family="Times,serif" font-size="14.00" fill="#000000">inject (PermissionFragment)</text>
</g>
<!-- 70287c29&#45;be1c&#45;4af1&#45;9dc0&#45;27a07de59697 -->
<g id="node2" class="node">
<title>70287c29&#45;be1c&#45;4af1&#45;9dc0&#45;27a07de59697</title>
<polygon fill="#ffe4c4" stroke="#ffe4c4" points="755.1726,-303.4019 556.691,-303.4019 556.691,-262.1981 755.1726,-262.1981 755.1726,-303.4019"/>
<text text-anchor="middle" x="655.9318" y="-287" font-family="Times,serif" font-size="14.00" fill="#000000">@PerActivity</text>
<text text-anchor="middle" x="655.9318" y="-270.2" font-family="Times,serif" font-size="14.00" fill="#000000">PermissionFragmentViewModel</text>
</g>
<!-- 84627d66&#45;fb57&#45;4797&#45;ba57&#45;fb8ff90b4d56&#45;&gt;70287c29&#45;be1c&#45;4af1&#45;9dc0&#45;27a07de59697 -->
<g id="edge1" class="edge">
<title>84627d66&#45;fb57&#45;4797&#45;ba57&#45;fb8ff90b4d56&#45;&gt;70287c29&#45;be1c&#45;4af1&#45;9dc0&#45;27a07de59697</title>
<path fill="none" stroke="#000000" d="M292.8915,-215.0274C315.6292,-227.7895 347.9517,-244.064 378.4579,-252.8 432.4991,-268.2756 494.5458,-275.8859 546.2431,-279.5814"/>
<polygon fill="#000000" stroke="#000000" points="546.2262,-283.0881 556.4392,-280.2695 546.6976,-276.104 546.2262,-283.0881"/>
</g>
<!-- 5dd685c4&#45;8c35&#45;45cc&#45;a21d&#45;de5d513bf514 -->
<g id="node3" class="node">
<title>5dd685c4&#45;8c35&#45;45cc&#45;a21d&#45;de5d513bf514</title>
<polygon fill="#40e0d0" stroke="#40e0d0" points="769.3796,-243.8 542.484,-243.8 542.484,-207.8 769.3796,-207.8 769.3796,-243.8"/>
<text text-anchor="middle" x="655.9318" y="-221.6" font-family="Times,serif" font-size="14.00" fill="#000000">DispatchingAndroidInjector&lt;Object&gt;</text>
</g>
<!-- 84627d66&#45;fb57&#45;4797&#45;ba57&#45;fb8ff90b4d56&#45;&gt;5dd685c4&#45;8c35&#45;45cc&#45;a21d&#45;de5d513bf514 -->
<g id="edge4" class="edge">
<title>84627d66&#45;fb57&#45;4797&#45;ba57&#45;fb8ff90b4d56&#45;&gt;5dd685c4&#45;8c35&#45;45cc&#45;a21d&#45;de5d513bf514</title>
<path fill="none" stroke="#000000" d="M350.8408,-203.3082C404.2671,-207.2468 473.2125,-212.3296 532.0418,-216.6666"/>
<polygon fill="#000000" stroke="#000000" points="531.915,-220.1667 542.1453,-217.4115 532.4298,-213.1856 531.915,-220.1667"/>
</g>
<!-- 5d54f1c2&#45;7679&#45;4ddd&#45;8f44&#45;bb6fbb1be13f -->
<g id="node4" class="node">
<title>5d54f1c2&#45;7679&#45;4ddd&#45;8f44&#45;bb6fbb1be13f</title>
<polygon fill="#ffe4c4" stroke="#ffe4c4" points="702.8668,-189.4019 608.9968,-189.4019 608.9968,-148.1981 702.8668,-148.1981 702.8668,-189.4019"/>
<text text-anchor="middle" x="655.9318" y="-173" font-family="Times,serif" font-size="14.00" fill="#000000">@PerActivity</text>
<text text-anchor="middle" x="655.9318" y="-156.2" font-family="Times,serif" font-size="14.00" fill="#000000">Navigator</text>
</g>
<!-- 84627d66&#45;fb57&#45;4797&#45;ba57&#45;fb8ff90b4d56&#45;&gt;5d54f1c2&#45;7679&#45;4ddd&#45;8f44&#45;bb6fbb1be13f -->
<g id="edge2" class="edge">
<title>84627d66&#45;fb57&#45;4797&#45;ba57&#45;fb8ff90b4d56&#45;&gt;5d54f1c2&#45;7679&#45;4ddd&#45;8f44&#45;bb6fbb1be13f</title>
<path fill="none" stroke="#000000" d="M350.8408,-190.5163C426.7422,-185.1136 533.9662,-177.4815 599.007,-172.8519"/>
<polygon fill="#000000" stroke="#000000" points="599.346,-176.3367 609.0722,-172.1354 598.8489,-169.3544 599.346,-176.3367"/>
</g>
<!-- 9a978414&#45;1230&#45;4456&#45;86c4&#45;4b86202c5489 -->
<g id="node5" class="node">
<title>9a978414&#45;1230&#45;4456&#45;86c4&#45;4b86202c5489</title>
<polygon fill="#7fffd4" stroke="#7fffd4" points="696.9946,-82.4019 614.869,-82.4019 614.869,-41.1981 696.9946,-41.1981 696.9946,-82.4019"/>
<text text-anchor="middle" x="655.9318" y="-66" font-family="Times,serif" font-size="14.00" fill="#000000">@Singleton</text>
<text text-anchor="middle" x="655.9318" y="-49.2" font-family="Times,serif" font-size="14.00" fill="#000000">EventBus</text>
</g>
<!-- 84627d66&#45;fb57&#45;4797&#45;ba57&#45;fb8ff90b4d56&#45;&gt;9a978414&#45;1230&#45;4456&#45;86c4&#45;4b86202c5489 -->
<g id="edge3" class="edge">
<title>84627d66&#45;fb57&#45;4797&#45;ba57&#45;fb8ff90b4d56&#45;&gt;9a978414&#45;1230&#45;4456&#45;86c4&#45;4b86202c5489</title>
<path fill="none" stroke="#000000" d="M292.6677,-178.5548C315.5592,-165.2821 348.1733,-147.6355 378.4579,-135.8 454.9596,-105.9026 547.9114,-83.8389 604.4582,-71.9082"/>
<polygon fill="#000000" stroke="#000000" points="605.5052,-75.2652 614.5808,-69.7987 604.0771,-68.4124 605.5052,-75.2652"/>
</g>
</g>
</svg>
