<svg width="1047px" height="237px"
 viewBox="0.00 0.00 1047.21 236.60" xmlns="http://www.w3.org/2000/svg" xmlns:xlink="http://www.w3.org/1999/xlink">
<g id="graph0" class="graph" transform="scale(1.0 1.0) rotate(0) translate(14.4 222.2)">
<title>org.owntracks.android.injection.components.AppComponent → org.owntracks.android.injection.modules.AndroidBindingModule_BindWelcomeActivity.WelcomeActivitySubcomponent → org.owntracks.android.ui.welcome.WelcomeActivityModule_BindPlayFragment.PlayFragmentSubcomponent</title>
<polygon fill="#ffffff" stroke="transparent" points="-14.4,14.4 -14.4,-222.2 1032.807,-222.2 1032.807,14.4 -14.4,14.4"/>
<text text-anchor="middle" x="509.2035" y="-8.2" font-family="Times,serif" font-size="14.00" fill="#000000">AppComponent → AndroidBindingModule_BindWelcomeActivity.WelcomeActivitySubcomponent → WelcomeActivityModule_BindPlayFragment.PlayFragmentSubcomponent</text>
<g id="clust4" class="cluster">
<title>cluster_AppComponent → AndroidBindingModule_BindWelcomeActivity.WelcomeActivitySubcomponent</title>
<g id="a_clust4"><a xlink:href="org.owntracks.android.injection.modules.AndroidBindingModule_BindWelcomeActivity.WelcomeActivitySubcomponent.svg" xlink:title="Inherited from AndroidBindingModule_BindWelcomeActivity.WelcomeActivitySubcomponent\n@PerActivity">
<polygon fill="none" stroke="#ffe4c4" stroke-dasharray="5,2" points="421.1662,-32.8 421.1662,-185.8 977.114,-185.8 977.114,-32.8 421.1662,-32.8"/>
<text text-anchor="middle" x="699.1401" y="-169.2" font-family="Times,serif" font-size="14.00" fill="#000000">Inherited from AndroidBindingModule_BindWelcomeActivity.WelcomeActivitySubcomponent</text>
<text text-anchor="middle" x="699.1401" y="-152.4" font-family="Times,serif" font-size="14.00" fill="#000000">@PerActivity</text>
</a>
</g>
</g>
<g id="clust2" class="cluster">
<title>cluster_Dependency Graph</title>
<polygon fill="none" stroke="#000000" points="223.7566,-116.8 223.7566,-199.8 401.1662,-199.8 401.1662,-116.8 223.7566,-116.8"/>
<text text-anchor="middle" x="285.98" y="-183.2" font-family="Times,serif" font-size="14.00" fill="#000000">Dependency Graph</text>
</g>
<g id="clust1" class="cluster">
<title>cluster_Entry Points</title>
<polygon fill="none" stroke="#000000" points="49.293,-70.8 49.293,-147.8 203.7566,-147.8 203.7566,-70.8 49.293,-70.8"/>
<text text-anchor="middle" x="92.0991" y="-131.2" font-family="Times,serif" font-size="14.00" fill="#000000">Entry Points</text>
</g>
<!-- d98502b5&#45;1eb7&#45;4473&#45;9cc3&#45;7f46234082a8 -->
<g id="node1" class="node">
<title>d98502b5&#45;1eb7&#45;4473&#45;9cc3&#45;7f46234082a8</title>
<polygon fill="#40e0d0" stroke="#40e0d0" stroke-width="2" points="195.9892,-114.8 57.0604,-114.8 57.0604,-110.8 53.0604,-110.8 53.0604,-106.8 57.0604,-106.8 57.0604,-86.8 53.0604,-86.8 53.0604,-82.8 57.0604,-82.8 57.0604,-78.8 195.9892,-78.8 195.9892,-114.8"/>
<polyline fill="none" stroke="#40e0d0" stroke-width="2" points="57.0604,-110.8 61.0604,-110.8 61.0604,-106.8 57.0604,-106.8 "/>
<polyline fill="none" stroke="#40e0d0" stroke-width="2" points="57.0604,-86.8 61.0604,-86.8 61.0604,-82.8 57.0604,-82.8 "/>
<text text-anchor="middle" x="126.5248" y="-92.6" font-family="Times,serif" font-size="14.00" fill="#000000">inject (PlayFragment)</text>
</g>
<!-- 74168ee3&#45;68df&#45;4e0d&#45;bd77&#45;1263ddd16238 -->
<g id="node2" class="node">
<title>74168ee3&#45;68df&#45;4e0d&#45;bd77&#45;1263ddd16238</title>
<polygon fill="#ff7f50" stroke="#ff7f50" points="393.3715,-166.4019 231.5513,-166.4019 231.5513,-125.1981 393.3715,-125.1981 393.3715,-166.4019"/>
<text text-anchor="middle" x="312.4614" y="-150" font-family="Times,serif" font-size="14.00" fill="#000000">@PerFragment</text>
<text text-anchor="middle" x="312.4614" y="-133.2" font-family="Times,serif" font-size="14.00" fill="#000000">PlayFragmentViewModel</text>
</g>
<!-- d98502b5&#45;1eb7&#45;4473&#45;9cc3&#45;7f46234082a8&#45;&gt;74168ee3&#45;68df&#45;4e0d&#45;bd77&#45;1263ddd16238 -->
<g id="edge2" class="edge">
<title>d98502b5&#45;1eb7&#45;4473&#45;9cc3&#45;7f46234082a8&#45;&gt;74168ee3&#45;68df&#45;4e0d&#45;bd77&#45;1263ddd16238</title>
<path fill="none" stroke="#000000" d="M194.9686,-114.837C204.5209,-117.3544 214.4452,-119.9697 224.2974,-122.5661"/>
<polygon fill="#000000" stroke="#000000" points="223.5473,-125.9878 234.1091,-125.1518 225.3312,-119.2189 223.5473,-125.9878"/>
</g>
<!-- c9fdfc2c&#45;9650&#45;422f&#45;ad22&#45;985d52803b33 -->
<g id="node3" class="node">
<title>c9fdfc2c&#45;9650&#45;422f&#45;ad22&#45;985d52803b33</title>
<polygon fill="#40e0d0" stroke="#40e0d0" points="812.0879,-76.8 585.1923,-76.8 585.1923,-40.8 812.0879,-40.8 812.0879,-76.8"/>
<text text-anchor="middle" x="698.6401" y="-54.6" font-family="Times,serif" font-size="14.00" fill="#000000">DispatchingAndroidInjector&lt;Object&gt;</text>
</g>
<!-- d98502b5&#45;1eb7&#45;4473&#45;9cc3&#45;7f46234082a8&#45;&gt;c9fdfc2c&#45;9650&#45;422f&#45;ad22&#45;985d52803b33 -->
<g id="edge3" class="edge">
<title>d98502b5&#45;1eb7&#45;4473&#45;9cc3&#45;7f46234082a8&#45;&gt;c9fdfc2c&#45;9650&#45;422f&#45;ad22&#45;985d52803b33</title>
<path fill="none" stroke="#000000" d="M195.8201,-92.1974C289.768,-85.9574 459.111,-74.7096 575.1028,-67.0054"/>
<polygon fill="#000000" stroke="#000000" points="575.3596,-70.4961 585.1057,-66.341 574.8957,-63.5115 575.3596,-70.4961"/>
</g>
<!-- b44a8064&#45;91f1&#45;4deb&#45;97b3&#45;f722c9afccbe -->
<g id="node4" class="node">
<title>b44a8064&#45;91f1&#45;4deb&#45;97b3&#45;f722c9afccbe</title>
<polygon fill="#ffe4c4" stroke="#ffe4c4" points="745.5751,-136.4019 651.7051,-136.4019 651.7051,-95.1981 745.5751,-95.1981 745.5751,-136.4019"/>
<text text-anchor="middle" x="698.6401" y="-120" font-family="Times,serif" font-size="14.00" fill="#000000">@PerActivity</text>
<text text-anchor="middle" x="698.6401" y="-103.2" font-family="Times,serif" font-size="14.00" fill="#000000">Navigator</text>
</g>
<!-- d98502b5&#45;1eb7&#45;4473&#45;9cc3&#45;7f46234082a8&#45;&gt;b44a8064&#45;91f1&#45;4deb&#45;97b3&#45;f722c9afccbe -->
<g id="edge1" class="edge">
<title>d98502b5&#45;1eb7&#45;4473&#45;9cc3&#45;7f46234082a8&#45;&gt;b44a8064&#45;91f1&#45;4deb&#45;97b3&#45;f722c9afccbe</title>
<path fill="none" stroke="#000000" d="M195.8201,-99.1013C310.1198,-102.8972 536.0178,-110.3993 641.6643,-113.9078"/>
<polygon fill="#000000" stroke="#000000" points="641.699,-117.4108 651.8096,-114.2448 641.9314,-110.4147 641.699,-117.4108"/>
</g>
<!-- 74168ee3&#45;68df&#45;4e0d&#45;bd77&#45;1263ddd16238&#45;&gt;b44a8064&#45;91f1&#45;4deb&#45;97b3&#45;f722c9afccbe -->
<g id="edge4" class="edge">
<title>74168ee3&#45;68df&#45;4e0d&#45;bd77&#45;1263ddd16238&#45;&gt;b44a8064&#45;91f1&#45;4deb&#45;97b3&#45;f722c9afccbe</title>
<path fill="none" stroke="#000000" d="M393.4171,-139.511C467.736,-133.7376 575.9715,-125.3294 641.5939,-120.2316"/>
<polygon fill="#000000" stroke="#000000" points="642.0495,-123.7068 651.7484,-119.4427 641.5073,-116.7279 642.0495,-123.7068"/>
</g>
</g>
</svg>
