<svg width="1086px" height="231px"
 viewBox="0.00 0.00 1086.07 230.60" xmlns="http://www.w3.org/2000/svg" xmlns:xlink="http://www.w3.org/1999/xlink">
<g id="graph0" class="graph" transform="scale(1.0 1.0) rotate(0) translate(14.4 216.2)">
<title>org.owntracks.android.injection.components.AppComponent → org.owntracks.android.injection.modules.AndroidBindingModule_BindWelcomeActivity.WelcomeActivitySubcomponent → org.owntracks.android.ui.welcome.WelcomeActivityModule_BindVersionFragment.VersionFragmentSubcomponent</title>
<polygon fill="#ffffff" stroke="transparent" points="-14.4,14.4 -14.4,-216.2 1071.6654,-216.2 1071.6654,14.4 -14.4,14.4"/>
<text text-anchor="middle" x="528.6327" y="-8.2" font-family="Times,serif" font-size="14.00" fill="#000000">AppComponent → AndroidBindingModule_BindWelcomeActivity.WelcomeActivitySubcomponent → WelcomeActivityModule_BindVersionFragment.VersionFragmentSubcomponent</text>
<g id="clust4" class="cluster">
<title>cluster_AppComponent → AndroidBindingModule_BindWelcomeActivity.WelcomeActivitySubcomponent</title>
<g id="a_clust4"><a xlink:href="org.owntracks.android.injection.modules.AndroidBindingModule_BindWelcomeActivity.WelcomeActivitySubcomponent.svg" xlink:title="Inherited from AndroidBindingModule_BindWelcomeActivity.WelcomeActivitySubcomponent\n@PerActivity">
<polygon fill="none" stroke="#ffe4c4" stroke-dasharray="5,2" points="428.1459,-32.8 428.1459,-185.8 984.0937,-185.8 984.0937,-32.8 428.1459,-32.8"/>
<text text-anchor="middle" x="706.1198" y="-169.2" font-family="Times,serif" font-size="14.00" fill="#000000">Inherited from AndroidBindingModule_BindWelcomeActivity.WelcomeActivitySubcomponent</text>
<text text-anchor="middle" x="706.1198" y="-152.4" font-family="Times,serif" font-size="14.00" fill="#000000">@PerActivity</text>
</a>
</g>
</g>
<g id="clust1" class="cluster">
<title>cluster_Entry Points</title>
<polygon fill="none" stroke="#000000" points="81.1717,-70.8 81.1717,-147.8 255.0645,-147.8 255.0645,-70.8 81.1717,-70.8"/>
<text text-anchor="middle" x="123.9778" y="-131.2" font-family="Times,serif" font-size="14.00" fill="#000000">Entry Points</text>
</g>
<g id="clust2" class="cluster">
<title>cluster_Dependency Graph</title>
<polygon fill="none" stroke="#000000" points="275.0645,-116.8 275.0645,-193.8 408.1459,-193.8 408.1459,-116.8 275.0645,-116.8"/>
<text text-anchor="middle" x="337.2879" y="-177.2" font-family="Times,serif" font-size="14.00" fill="#000000">Dependency Graph</text>
</g>
<!-- ddd47294&#45;a43c&#45;44a2&#45;befb&#45;5b1a1281d191 -->
<g id="node1" class="node">
<title>ddd47294&#45;a43c&#45;44a2&#45;befb&#45;5b1a1281d191</title>
<polygon fill="#40e0d0" stroke="#40e0d0" stroke-width="2" points="247.0109,-114.8 89.2253,-114.8 89.2253,-110.8 85.2253,-110.8 85.2253,-106.8 89.2253,-106.8 89.2253,-86.8 85.2253,-86.8 85.2253,-82.8 89.2253,-82.8 89.2253,-78.8 247.0109,-78.8 247.0109,-114.8"/>
<polyline fill="none" stroke="#40e0d0" stroke-width="2" points="89.2253,-110.8 93.2253,-110.8 93.2253,-106.8 89.2253,-106.8 "/>
<polyline fill="none" stroke="#40e0d0" stroke-width="2" points="89.2253,-86.8 93.2253,-86.8 93.2253,-82.8 89.2253,-82.8 "/>
<text text-anchor="middle" x="168.1181" y="-92.6" font-family="Times,serif" font-size="14.00" fill="#000000">inject (VersionFragment)</text>
</g>
<!-- f3b34e33&#45;6f56&#45;4d33&#45;9907&#45;17badd56e885 -->
<g id="node2" class="node">
<title>f3b34e33&#45;6f56&#45;4d33&#45;9907&#45;17badd56e885</title>
<polygon fill="#40e0d0" stroke="#40e0d0" points="400.1866,-160.8 283.0238,-160.8 283.0238,-124.8 400.1866,-124.8 400.1866,-160.8"/>
<text text-anchor="middle" x="341.6052" y="-138.6" font-family="Times,serif" font-size="14.00" fill="#000000">NoOpViewModel</text>
</g>
<!-- ddd47294&#45;a43c&#45;44a2&#45;befb&#45;5b1a1281d191&#45;&gt;f3b34e33&#45;6f56&#45;4d33&#45;9907&#45;17badd56e885 -->
<g id="edge3" class="edge">
<title>ddd47294&#45;a43c&#45;44a2&#45;befb&#45;5b1a1281d191&#45;&gt;f3b34e33&#45;6f56&#45;4d33&#45;9907&#45;17badd56e885</title>
<path fill="none" stroke="#000000" d="M236.1869,-114.8484C248.3963,-118.0857 261.1239,-121.4604 273.3389,-124.6992"/>
<polygon fill="#000000" stroke="#000000" points="272.4425,-128.0824 283.0055,-127.2623 274.2366,-121.3162 272.4425,-128.0824"/>
</g>
<!-- cbe3afb5&#45;bbc8&#45;4d49&#45;9ea7&#45;2dcb2d49e2e9 -->
<g id="node3" class="node">
<title>cbe3afb5&#45;bbc8&#45;4d49&#45;9ea7&#45;2dcb2d49e2e9</title>
<polygon fill="#40e0d0" stroke="#40e0d0" points="819.0676,-76.8 592.172,-76.8 592.172,-40.8 819.0676,-40.8 819.0676,-76.8"/>
<text text-anchor="middle" x="705.6198" y="-54.6" font-family="Times,serif" font-size="14.00" fill="#000000">DispatchingAndroidInjector&lt;Object&gt;</text>
</g>
<!-- ddd47294&#45;a43c&#45;44a2&#45;befb&#45;5b1a1281d191&#45;&gt;cbe3afb5&#45;bbc8&#45;4d49&#45;9ea7&#45;2dcb2d49e2e9 -->
<g id="edge2" class="edge">
<title>ddd47294&#45;a43c&#45;44a2&#45;befb&#45;5b1a1281d191&#45;&gt;cbe3afb5&#45;bbc8&#45;4d49&#45;9ea7&#45;2dcb2d49e2e9</title>
<path fill="none" stroke="#000000" d="M247.1395,-91.2134C335.2498,-84.9842 478.891,-74.8291 581.922,-67.5451"/>
<polygon fill="#000000" stroke="#000000" points="582.3478,-71.0238 592.0761,-66.8273 581.8541,-64.0413 582.3478,-71.0238"/>
</g>
<!-- 3e699ac1&#45;9a5a&#45;48fc&#45;bc16&#45;ed1c7299bc87 -->
<g id="node4" class="node">
<title>3e699ac1&#45;9a5a&#45;48fc&#45;bc16&#45;ed1c7299bc87</title>
<polygon fill="#ffe4c4" stroke="#ffe4c4" points="752.5548,-136.4019 658.6848,-136.4019 658.6848,-95.1981 752.5548,-95.1981 752.5548,-136.4019"/>
<text text-anchor="middle" x="705.6198" y="-120" font-family="Times,serif" font-size="14.00" fill="#000000">@PerActivity</text>
<text text-anchor="middle" x="705.6198" y="-103.2" font-family="Times,serif" font-size="14.00" fill="#000000">Navigator</text>
</g>
<!-- ddd47294&#45;a43c&#45;44a2&#45;befb&#45;5b1a1281d191&#45;&gt;3e699ac1&#45;9a5a&#45;48fc&#45;bc16&#45;ed1c7299bc87 -->
<g id="edge1" class="edge">
<title>ddd47294&#45;a43c&#45;44a2&#45;befb&#45;5b1a1281d191&#45;&gt;3e699ac1&#45;9a5a&#45;48fc&#45;bc16&#45;ed1c7299bc87</title>
<path fill="none" stroke="#000000" d="M247.1395,-99.5933C356.6624,-103.4648 551.9861,-110.3692 648.4629,-113.7796"/>
<polygon fill="#000000" stroke="#000000" points="648.4889,-117.2826 658.6063,-114.1381 648.7362,-110.287 648.4889,-117.2826"/>
</g>
<!-- f3b34e33&#45;6f56&#45;4d33&#45;9907&#45;17badd56e885&#45;&gt;3e699ac1&#45;9a5a&#45;48fc&#45;bc16&#45;ed1c7299bc87 -->
<g id="edge4" class="edge">
<title>f3b34e33&#45;6f56&#45;4d33&#45;9907&#45;17badd56e885&#45;&gt;3e699ac1&#45;9a5a&#45;48fc&#45;bc16&#45;ed1c7299bc87</title>
<path fill="none" stroke="#000000" d="M400.495,-138.432C468.9182,-133.3568 581.0435,-125.0402 648.6406,-120.0263"/>
<polygon fill="#000000" stroke="#000000" points="648.9732,-123.5114 658.6868,-119.2812 648.4553,-116.5305 648.9732,-123.5114"/>
</g>
</g>
</svg>
