<svg width="1163px" height="169px"
 viewBox="0.00 0.00 1162.92 168.60" xmlns="http://www.w3.org/2000/svg" xmlns:xlink="http://www.w3.org/1999/xlink">
<g id="graph0" class="graph" transform="scale(1.0 1.0) rotate(0) translate(14.4 154.2)">
<title>org.owntracks.android.injection.components.AppComponent → org.owntracks.android.injection.modules.AndroidBindingModule_BindPreferencesActivity.PreferencesActivitySubcomponent → org.owntracks.android.ui.preferences.PreferencesActivityModule_BindPreferencesFragment.PreferencesFragmentSubcomponent</title>
<polygon fill="#ffffff" stroke="transparent" points="-14.4,14.4 -14.4,-154.2 1148.5226,-154.2 1148.5226,14.4 -14.4,14.4"/>
<text text-anchor="middle" x="567.0613" y="-8.2" font-family="Times,serif" font-size="14.00" fill="#000000">AppComponent → AndroidBindingModule_BindPreferencesActivity.PreferencesActivitySubcomponent → PreferencesActivityModule_BindPreferencesFragment.PreferencesFragmentSubcomponent</text>
<g id="clust1" class="cluster">
<title>cluster_Entry Points</title>
<polygon fill="none" stroke="#000000" points="368.8516,-35.8 368.8516,-112.8 563.7094,-112.8 563.7094,-35.8 368.8516,-35.8"/>
<text text-anchor="middle" x="411.6577" y="-96.2" font-family="Times,serif" font-size="14.00" fill="#000000">Entry Points</text>
</g>
<g id="clust4" class="cluster">
<title>cluster_AppComponent</title>
<g id="a_clust4"><a xlink:href="org.owntracks.android.injection.components.AppComponent.svg" xlink:title="Inherited from AppComponent\n@Singleton">
<polygon fill="none" stroke="#7fffd4" stroke-dasharray="5,2" points="583.7094,-32.8 583.7094,-131.8 773.271,-131.8 773.271,-32.8 583.7094,-32.8"/>
<text text-anchor="middle" x="678.4902" y="-115.2" font-family="Times,serif" font-size="14.00" fill="#000000">Inherited from AppComponent</text>
<text text-anchor="middle" x="678.4902" y="-98.4" font-family="Times,serif" font-size="14.00" fill="#000000">@Singleton</text>
</a>
</g>
</g>
<!-- 0903c851&#45;0787&#45;4bf2&#45;9bbd&#45;930ef506c337 -->
<g id="node1" class="node">
<title>0903c851&#45;0787&#45;4bf2&#45;9bbd&#45;930ef506c337</title>
<polygon fill="#40e0d0" stroke="#40e0d0" stroke-width="2" points="555.6384,-79.8 376.9226,-79.8 376.9226,-75.8 372.9226,-75.8 372.9226,-71.8 376.9226,-71.8 376.9226,-51.8 372.9226,-51.8 372.9226,-47.8 376.9226,-47.8 376.9226,-43.8 555.6384,-43.8 555.6384,-79.8"/>
<polyline fill="none" stroke="#40e0d0" stroke-width="2" points="376.9226,-75.8 380.9226,-75.8 380.9226,-71.8 376.9226,-71.8 "/>
<polyline fill="none" stroke="#40e0d0" stroke-width="2" points="376.9226,-51.8 380.9226,-51.8 380.9226,-47.8 376.9226,-47.8 "/>
<text text-anchor="middle" x="466.2805" y="-57.6" font-family="Times,serif" font-size="14.00" fill="#000000">inject (PreferencesFragment)</text>
</g>
<!-- 7e8a10bf&#45;b7ed&#45;4a14&#45;b13d&#45;c42a7532f40b -->
<g id="node2" class="node">
<title>7e8a10bf&#45;b7ed&#45;4a14&#45;b13d&#45;c42a7532f40b</title>
<polygon fill="#7fffd4" stroke="#7fffd4" points="719.053,-82.4019 636.9274,-82.4019 636.9274,-41.1981 719.053,-41.1981 719.053,-82.4019"/>
<text text-anchor="middle" x="677.9902" y="-66" font-family="Times,serif" font-size="14.00" fill="#000000">@Singleton</text>
<text text-anchor="middle" x="677.9902" y="-49.2" font-family="Times,serif" font-size="14.00" fill="#000000">Preferences</text>
</g>
<!-- 0903c851&#45;0787&#45;4bf2&#45;9bbd&#45;930ef506c337&#45;&gt;7e8a10bf&#45;b7ed&#45;4a14&#45;b13d&#45;c42a7532f40b -->
<g id="edge1" class="edge">
<title>0903c851&#45;0787&#45;4bf2&#45;9bbd&#45;930ef506c337&#45;&gt;7e8a10bf&#45;b7ed&#45;4a14&#45;b13d&#45;c42a7532f40b</title>
<path fill="none" stroke="#000000" d="M555.7576,-61.8C580.0032,-61.8 605.4236,-61.8 626.7637,-61.8"/>
<polygon fill="#000000" stroke="#000000" points="626.889,-65.3001 636.889,-61.8 626.8889,-58.3001 626.889,-65.3001"/>
</g>
</g>
</svg>
