<svg width="1693px" height="570px"
 viewBox="0.00 0.00 1693.02 569.60" xmlns="http://www.w3.org/2000/svg" xmlns:xlink="http://www.w3.org/1999/xlink">
<g id="graph0" class="graph" transform="scale(1.0 1.0) rotate(0) translate(14.4 555.2)">
<title>org.owntracks.android.injection.components.AppComponent → org.owntracks.android.injection.modules.AndroidBindingModule_BindStatusActivity.StatusActivitySubcomponent</title>
<polygon fill="#ffffff" stroke="transparent" points="-14.4,14.4 -14.4,-555.2 1678.6187,-555.2 1678.6187,14.4 -14.4,14.4"/>
<text text-anchor="middle" x="270.0989" y="-8.2" font-family="Times,serif" font-size="14.00" fill="#000000">AppComponent → AndroidBindingModule_BindStatusActivity.StatusActivitySubcomponent</text>
<g id="clust2" class="cluster">
<title>cluster_Dependency Graph</title>
<polygon fill="none" stroke="#000000" points="185.0288,-389.8 185.0288,-532.8 1656.2187,-532.8 1656.2187,-389.8 185.0288,-389.8"/>
<text text-anchor="middle" x="247.2522" y="-516.2" font-family="Times,serif" font-size="14.00" fill="#000000">Dependency Graph</text>
</g>
<g id="clust5" class="cluster">
<title>cluster_AppComponent</title>
<g id="a_clust5"><a xlink:href="org.owntracks.android.injection.components.AppComponent.svg" xlink:title="Inherited from AppComponent\n@Singleton">
<polygon fill="none" stroke="#7fffd4" stroke-dasharray="5,2" points="925.469,-32.8 925.469,-381.8 1168.4168,-381.8 1168.4168,-32.8 925.469,-32.8"/>
<text text-anchor="middle" x="1046.9429" y="-365.2" font-family="Times,serif" font-size="14.00" fill="#000000">Inherited from AppComponent</text>
<text text-anchor="middle" x="1046.9429" y="-348.4" font-family="Times,serif" font-size="14.00" fill="#000000">@Singleton</text>
</a>
</g>
</g>
<g id="clust1" class="cluster">
<title>cluster_Entry Points</title>
<polygon fill="none" stroke="#000000" points="8,-152.8 8,-229.8 164.0288,-229.8 164.0288,-152.8 8,-152.8"/>
<text text-anchor="middle" x="50.8061" y="-213.2" font-family="Times,serif" font-size="14.00" fill="#000000">Entry Points</text>
</g>
<!-- fbc70850&#45;e6a6&#45;42d2&#45;8e54&#45;2f69f55f11bd -->
<g id="node1" class="node">
<title>fbc70850&#45;e6a6&#45;42d2&#45;8e54&#45;2f69f55f11bd</title>
<polygon fill="#40e0d0" stroke="#40e0d0" stroke-width="2" points="156.0432,-196.8 15.9856,-196.8 15.9856,-192.8 11.9856,-192.8 11.9856,-188.8 15.9856,-188.8 15.9856,-168.8 11.9856,-168.8 11.9856,-164.8 15.9856,-164.8 15.9856,-160.8 156.0432,-160.8 156.0432,-196.8"/>
<polyline fill="none" stroke="#40e0d0" stroke-width="2" points="15.9856,-192.8 19.9856,-192.8 19.9856,-188.8 15.9856,-188.8 "/>
<polyline fill="none" stroke="#40e0d0" stroke-width="2" points="15.9856,-168.8 19.9856,-168.8 19.9856,-164.8 15.9856,-164.8 "/>
<text text-anchor="middle" x="86.0144" y="-174.6" font-family="Times,serif" font-size="14.00" fill="#000000">inject (StatusActivity)</text>
</g>
<!-- 4c118d94&#45;c076&#45;4d39&#45;b8df&#45;e93f47b29400 -->
<g id="node2" class="node">
<title>4c118d94&#45;c076&#45;4d39&#45;b8df&#45;e93f47b29400</title>
<polygon fill="#40e0d0" stroke="#40e0d0" points="472.1671,-434.8 192.9827,-434.8 192.9827,-398.8 472.1671,-398.8 472.1671,-434.8"/>
<text text-anchor="middle" x="332.5749" y="-412.6" font-family="Times,serif" font-size="14.00" fill="#000000">StatusMvvm.ViewModel&lt;StatusMvvm.View&gt;</text>
</g>
<!-- fbc70850&#45;e6a6&#45;42d2&#45;8e54&#45;2f69f55f11bd&#45;&gt;4c118d94&#45;c076&#45;4d39&#45;b8df&#45;e93f47b29400 -->
<g id="edge1" class="edge">
<title>fbc70850&#45;e6a6&#45;42d2&#45;8e54&#45;2f69f55f11bd&#45;&gt;4c118d94&#45;c076&#45;4d39&#45;b8df&#45;e93f47b29400</title>
<path fill="none" stroke="#000000" d="M99.0219,-196.9253C115.3658,-219.1616 144.826,-257.5094 174.0288,-286.8 214.2261,-327.118 266.0837,-367.8023 299.3399,-392.6567"/>
<polygon fill="#000000" stroke="#000000" points="297.2606,-395.4722 307.3756,-398.6247 301.4343,-389.8525 297.2606,-395.4722"/>
</g>
<!-- 6a999a3a&#45;37ab&#45;4fbb&#45;98b5&#45;510b387738c1 -->
<g id="node3" class="node">
<title>6a999a3a&#45;37ab&#45;4fbb&#45;98b5&#45;510b387738c1</title>
<polygon fill="#ffe4c4" stroke="#ffe4c4" points="896.5554,-439.4019 790.21,-439.4019 790.21,-398.1981 896.5554,-398.1981 896.5554,-439.4019"/>
<text text-anchor="middle" x="843.3827" y="-423" font-family="Times,serif" font-size="14.00" fill="#000000">@PerActivity</text>
<text text-anchor="middle" x="843.3827" y="-406.2" font-family="Times,serif" font-size="14.00" fill="#000000">DrawerProvider</text>
</g>
<!-- fbc70850&#45;e6a6&#45;42d2&#45;8e54&#45;2f69f55f11bd&#45;&gt;6a999a3a&#45;37ab&#45;4fbb&#45;98b5&#45;510b387738c1 -->
<g id="edge2" class="edge">
<title>fbc70850&#45;e6a6&#45;42d2&#45;8e54&#45;2f69f55f11bd&#45;&gt;6a999a3a&#45;37ab&#45;4fbb&#45;98b5&#45;510b387738c1</title>
<path fill="none" stroke="#000000" d="M113.5508,-196.9241C157.787,-224.2395 248.2827,-272.8 332.5749,-272.8 332.5749,-272.8 332.5749,-272.8 752.7964,-272.8 806.6714,-272.8 829.6164,-345.4689 838.4583,-388.2707"/>
<polygon fill="#000000" stroke="#000000" points="835.0407,-389.0329 840.3672,-398.1914 841.9146,-387.7102 835.0407,-389.0329"/>
</g>
<!-- 4d951c4a&#45;1209&#45;4dc8&#45;adaf&#45;b171fa76af59 -->
<g id="node8" class="node">
<title>4d951c4a&#45;1209&#45;4dc8&#45;adaf&#45;b171fa76af59</title>
<polygon fill="#40e0d0" stroke="#40e0d0" points="1160.3907,-196.8 933.4951,-196.8 933.4951,-160.8 1160.3907,-160.8 1160.3907,-196.8"/>
<text text-anchor="middle" x="1046.9429" y="-174.6" font-family="Times,serif" font-size="14.00" fill="#000000">DispatchingAndroidInjector&lt;Object&gt;</text>
</g>
<!-- fbc70850&#45;e6a6&#45;42d2&#45;8e54&#45;2f69f55f11bd&#45;&gt;4d951c4a&#45;1209&#45;4dc8&#45;adaf&#45;b171fa76af59 -->
<g id="edge5" class="edge">
<title>fbc70850&#45;e6a6&#45;42d2&#45;8e54&#45;2f69f55f11bd&#45;&gt;4d951c4a&#45;1209&#45;4dc8&#45;adaf&#45;b171fa76af59</title>
<path fill="none" stroke="#000000" d="M156.1576,-178.8C205.4986,-178.8 273.0751,-178.8 332.5749,-178.8 332.5749,-178.8 332.5749,-178.8 843.3827,-178.8 869.2357,-178.8 896.9355,-178.8 923.3157,-178.8"/>
<polygon fill="#000000" stroke="#000000" points="923.355,-182.3001 933.3549,-178.8 923.3549,-175.3001 923.355,-182.3001"/>
</g>
<!-- 233b7926&#45;0625&#45;421c&#45;94b5&#45;8355edd1d90c -->
<g id="node9" class="node">
<title>233b7926&#45;0625&#45;421c&#45;94b5&#45;8355edd1d90c</title>
<polygon fill="#7fffd4" stroke="#7fffd4" points="1088.0057,-142.4019 1005.8801,-142.4019 1005.8801,-101.1981 1088.0057,-101.1981 1088.0057,-142.4019"/>
<text text-anchor="middle" x="1046.9429" y="-126" font-family="Times,serif" font-size="14.00" fill="#000000">@Singleton</text>
<text text-anchor="middle" x="1046.9429" y="-109.2" font-family="Times,serif" font-size="14.00" fill="#000000">EventBus</text>
</g>
<!-- fbc70850&#45;e6a6&#45;42d2&#45;8e54&#45;2f69f55f11bd&#45;&gt;233b7926&#45;0625&#45;421c&#45;94b5&#45;8355edd1d90c -->
<g id="edge4" class="edge">
<title>fbc70850&#45;e6a6&#45;42d2&#45;8e54&#45;2f69f55f11bd&#45;&gt;233b7926&#45;0625&#45;421c&#45;94b5&#45;8355edd1d90c</title>
<path fill="none" stroke="#000000" d="M146.2008,-160.763C195.7513,-147.5087 268.0818,-131.8 332.5749,-131.8 332.5749,-131.8 332.5749,-131.8 843.3827,-131.8 895.2463,-131.8 954.4534,-128.5216 995.5918,-125.7191"/>
<polygon fill="#000000" stroke="#000000" points="995.9132,-129.2053 1005.6459,-125.0191 995.427,-122.2222 995.9132,-129.2053"/>
</g>
<!-- a81fac18&#45;c4a8&#45;4a7d&#45;9155&#45;ecd495f287b7 -->
<g id="node10" class="node">
<title>a81fac18&#45;c4a8&#45;4a7d&#45;9155&#45;ecd495f287b7</title>
<polygon fill="#7fffd4" stroke="#7fffd4" points="1088.0057,-82.4019 1005.8801,-82.4019 1005.8801,-41.1981 1088.0057,-41.1981 1088.0057,-82.4019"/>
<text text-anchor="middle" x="1046.9429" y="-66" font-family="Times,serif" font-size="14.00" fill="#000000">@Singleton</text>
<text text-anchor="middle" x="1046.9429" y="-49.2" font-family="Times,serif" font-size="14.00" fill="#000000">Preferences</text>
</g>
<!-- fbc70850&#45;e6a6&#45;42d2&#45;8e54&#45;2f69f55f11bd&#45;&gt;a81fac18&#45;c4a8&#45;4a7d&#45;9155&#45;ecd495f287b7 -->
<g id="edge3" class="edge">
<title>fbc70850&#45;e6a6&#45;42d2&#45;8e54&#45;2f69f55f11bd&#45;&gt;a81fac18&#45;c4a8&#45;4a7d&#45;9155&#45;ecd495f287b7</title>
<path fill="none" stroke="#000000" d="M111.2421,-160.7432C154.3839,-131.692 246.0727,-77.8 332.5749,-77.8 332.5749,-77.8 332.5749,-77.8 843.3827,-77.8 895.3436,-77.8 954.5366,-72.5546 995.6451,-68.0705"/>
<polygon fill="#000000" stroke="#000000" points="996.1408,-71.537 1005.6914,-66.9506 995.3651,-64.5801 996.1408,-71.537"/>
</g>
<!-- ffbcc08e&#45;6773&#45;4686&#45;ac46&#45;0ce3fc6c02b3 -->
<g id="node4" class="node">
<title>ffbcc08e&#45;6773&#45;4686&#45;ac46&#45;0ce3fc6c02b3</title>
<polygon fill="#ffe4c4" stroke="#ffe4c4" points="715.342,-439.4019 598.1596,-439.4019 598.1596,-398.1981 715.342,-398.1981 715.342,-439.4019"/>
<text text-anchor="middle" x="656.7508" y="-423" font-family="Times,serif" font-size="14.00" fill="#000000">@PerActivity</text>
<text text-anchor="middle" x="656.7508" y="-406.2" font-family="Times,serif" font-size="14.00" fill="#000000">StatusViewModel</text>
</g>
<!-- 4c118d94&#45;c076&#45;4d39&#45;b8df&#45;e93f47b29400&#45;&gt;ffbcc08e&#45;6773&#45;4686&#45;ac46&#45;0ce3fc6c02b3 -->
<g id="edge6" class="edge">
<title>4c118d94&#45;c076&#45;4d39&#45;b8df&#45;e93f47b29400&#45;&gt;ffbcc08e&#45;6773&#45;4686&#45;ac46&#45;0ce3fc6c02b3</title>
<path fill="none" stroke="#000000" stroke-dasharray="1,5" d="M472.4068,-417.6627C512.3183,-417.9089 554.065,-418.1665 587.7183,-418.3741"/>
<polygon fill="#000000" stroke="#000000" points="587.8701,-421.875 597.8916,-418.4369 587.9134,-414.8751 587.8701,-421.875"/>
<text text-anchor="middle" x="535.1631" y="-422" font-family="Times,serif" font-size="14.00" fill="#000000">delegates</text>
</g>
<!-- 3f3e64d5&#45;1dd9&#45;464f&#45;8e38&#45;477d6a2f6e2a -->
<g id="node6" class="node">
<title>3f3e64d5&#45;1dd9&#45;464f&#45;8e38&#45;477d6a2f6e2a</title>
<polygon fill="#ffe4c4" stroke="#ffe4c4" points="1327.9011,-469.4019 1197.2551,-469.4019 1197.2551,-428.1981 1327.9011,-428.1981 1327.9011,-469.4019"/>
<text text-anchor="middle" x="1262.5781" y="-453" font-family="Times,serif" font-size="14.00" fill="#000000">@PerActivity</text>
<text text-anchor="middle" x="1262.5781" y="-436.2" font-family="Times,serif" font-size="14.00" fill="#000000">AppCompatActivity</text>
</g>
<!-- 6a999a3a&#45;37ab&#45;4fbb&#45;98b5&#45;510b387738c1&#45;&gt;3f3e64d5&#45;1dd9&#45;464f&#45;8e38&#45;477d6a2f6e2a -->
<g id="edge7" class="edge">
<title>6a999a3a&#45;37ab&#45;4fbb&#45;98b5&#45;510b387738c1&#45;&gt;3f3e64d5&#45;1dd9&#45;464f&#45;8e38&#45;477d6a2f6e2a</title>
<path fill="none" stroke="#000000" d="M896.4741,-422.5995C969.9671,-427.8591 1103.1043,-437.3871 1186.9672,-443.3889"/>
<polygon fill="#000000" stroke="#000000" points="1186.9714,-446.898 1197.1957,-444.1209 1187.4711,-439.9159 1186.9714,-446.898"/>
</g>
<!-- c4e33f5e&#45;6b76&#45;4e9a&#45;85a6&#45;3b58ce88a3a6 -->
<g id="node11" class="node">
<title>c4e33f5e&#45;6b76&#45;4e9a&#45;85a6&#45;3b58ce88a3a6</title>
<polygon fill="#7fffd4" stroke="#7fffd4" points="1088.0057,-332.4019 1005.8801,-332.4019 1005.8801,-291.1981 1088.0057,-291.1981 1088.0057,-332.4019"/>
<text text-anchor="middle" x="1046.9429" y="-316" font-family="Times,serif" font-size="14.00" fill="#000000">@Singleton</text>
<text text-anchor="middle" x="1046.9429" y="-299.2" font-family="Times,serif" font-size="14.00" fill="#000000">Scheduler</text>
</g>
<!-- 6a999a3a&#45;37ab&#45;4fbb&#45;98b5&#45;510b387738c1&#45;&gt;c4e33f5e&#45;6b76&#45;4e9a&#45;85a6&#45;3b58ce88a3a6 -->
<g id="edge8" class="edge">
<title>6a999a3a&#45;37ab&#45;4fbb&#45;98b5&#45;510b387738c1&#45;&gt;c4e33f5e&#45;6b76&#45;4e9a&#45;85a6&#45;3b58ce88a3a6</title>
<path fill="none" stroke="#000000" d="M882.6312,-398.1693C915.6141,-380.8321 962.9012,-355.9759 998.2859,-337.3762"/>
<polygon fill="#000000" stroke="#000000" points="1000.245,-340.3005 1007.4682,-332.5496 996.988,-334.1044 1000.245,-340.3005"/>
</g>
<!-- 056bfee0&#45;2ef6&#45;42f1&#45;93e5&#45;f118f6ea3d3c -->
<g id="node5" class="node">
<title>056bfee0&#45;2ef6&#45;42f1&#45;93e5&#45;f118f6ea3d3c</title>
<polygon fill="#ffe4c4" stroke="#ffe4c4" points="890.3177,-499.4019 796.4477,-499.4019 796.4477,-458.1981 890.3177,-458.1981 890.3177,-499.4019"/>
<text text-anchor="middle" x="843.3827" y="-483" font-family="Times,serif" font-size="14.00" fill="#000000">@PerActivity</text>
<text text-anchor="middle" x="843.3827" y="-466.2" font-family="Times,serif" font-size="14.00" fill="#000000">Navigator</text>
</g>
<!-- ffbcc08e&#45;6773&#45;4686&#45;ac46&#45;0ce3fc6c02b3&#45;&gt;056bfee0&#45;2ef6&#45;42f1&#45;93e5&#45;f118f6ea3d3c -->
<g id="edge9" class="edge">
<title>ffbcc08e&#45;6773&#45;4686&#45;ac46&#45;0ce3fc6c02b3&#45;&gt;056bfee0&#45;2ef6&#45;42f1&#45;93e5&#45;f118f6ea3d3c</title>
<path fill="none" stroke="#000000" d="M715.5461,-437.702C738.2561,-445.003 764.1413,-453.3248 786.6519,-460.5617"/>
<polygon fill="#000000" stroke="#000000" points="785.8111,-463.9678 796.4024,-463.6964 787.9536,-457.3037 785.8111,-463.9678"/>
</g>
<!-- 5ce679c8&#45;2f53&#45;4ff0&#45;94a9&#45;4dbf11bb805d -->
<g id="node12" class="node">
<title>5ce679c8&#45;2f53&#45;4ff0&#45;94a9&#45;4dbf11bb805d</title>
<polygon fill="#7fffd4" stroke="#7fffd4" points="1095.7751,-273.2014 998.1107,-273.2014 998.1107,-214.3986 1095.7751,-214.3986 1095.7751,-273.2014"/>
<text text-anchor="middle" x="1046.9429" y="-256.4" font-family="Times,serif" font-size="14.00" fill="#000000">@AppContext</text>
<text text-anchor="middle" x="1046.9429" y="-239.6" font-family="Times,serif" font-size="14.00" fill="#000000">@Singleton</text>
<text text-anchor="middle" x="1046.9429" y="-222.8" font-family="Times,serif" font-size="14.00" fill="#000000">Context</text>
</g>
<!-- ffbcc08e&#45;6773&#45;4686&#45;ac46&#45;0ce3fc6c02b3&#45;&gt;5ce679c8&#45;2f53&#45;4ff0&#45;94a9&#45;4dbf11bb805d -->
<g id="edge10" class="edge">
<title>ffbcc08e&#45;6773&#45;4686&#45;ac46&#45;0ce3fc6c02b3&#45;&gt;5ce679c8&#45;2f53&#45;4ff0&#45;94a9&#45;4dbf11bb805d</title>
<path fill="none" stroke="#000000" d="M692.7791,-397.9581C743.5023,-369.1937 839.4055,-316.9085 925.469,-281.8 945.6014,-273.5872 968.2038,-266.0738 988.403,-259.9355"/>
<polygon fill="#000000" stroke="#000000" points="989.5258,-263.253 998.1046,-257.0356 987.521,-256.5462 989.5258,-263.253"/>
</g>
<!-- 056bfee0&#45;2ef6&#45;42f1&#45;93e5&#45;f118f6ea3d3c&#45;&gt;3f3e64d5&#45;1dd9&#45;464f&#45;8e38&#45;477d6a2f6e2a -->
<g id="edge11" class="edge">
<title>056bfee0&#45;2ef6&#45;42f1&#45;93e5&#45;f118f6ea3d3c&#45;&gt;3f3e64d5&#45;1dd9&#45;464f&#45;8e38&#45;477d6a2f6e2a</title>
<path fill="none" stroke="#000000" d="M890.2495,-475.4459C962.281,-470.291 1100.8962,-460.3709 1187.1704,-454.1966"/>
<polygon fill="#000000" stroke="#000000" points="1187.4401,-457.6863 1197.1647,-453.4814 1186.9403,-450.7042 1187.4401,-457.6863"/>
</g>
<!-- a55d28aa&#45;0ff4&#45;4904&#45;8727&#45;56bce9f61c83 -->
<g id="node7" class="node">
<title>a55d28aa&#45;0ff4&#45;4904&#45;8727&#45;56bce9f61c83</title>
<polygon fill="#40e0d0" stroke="#40e0d0" points="1648.4166,-466.8 1493.4822,-466.8 1453.6257,-430.8 1608.5601,-430.8 1648.4166,-466.8"/>
<text text-anchor="middle" x="1551.0211" y="-444.6" font-family="Times,serif" font-size="14.00" fill="#000000">StatusActivity</text>
</g>
<!-- 3f3e64d5&#45;1dd9&#45;464f&#45;8e38&#45;477d6a2f6e2a&#45;&gt;a55d28aa&#45;0ff4&#45;4904&#45;8727&#45;56bce9f61c83 -->
<g id="edge12" class="edge">
<title>3f3e64d5&#45;1dd9&#45;464f&#45;8e38&#45;477d6a2f6e2a&#45;&gt;a55d28aa&#45;0ff4&#45;4904&#45;8727&#45;56bce9f61c83</title>
<path fill="none" stroke="#000000" stroke-dasharray="1,5" d="M1328.0303,-448.8C1368.1235,-448.8 1419.9324,-448.8 1463.5194,-448.8"/>
<polygon fill="#000000" stroke="#000000" points="1463.5459,-452.3001 1473.5459,-448.8 1463.5459,-445.3001 1463.5459,-452.3001"/>
<text text-anchor="middle" x="1390.7815" y="-453" font-family="Times,serif" font-size="14.00" fill="#000000">delegates</text>
</g>
</g>
</svg>
