<svg width="756px" height="169px"
 viewBox="0.00 0.00 755.52 168.60" xmlns="http://www.w3.org/2000/svg" xmlns:xlink="http://www.w3.org/1999/xlink">
<g id="graph0" class="graph" transform="scale(1.0 1.0) rotate(0) translate(14.4 154.2)">
<title>org.owntracks.android.injection.components.AppComponent → org.owntracks.android.injection.modules.AndroidBindingModule_BindBackgroundServiceReceiver.StartBackgroundServiceReceiverSubcomponent</title>
<polygon fill="#ffffff" stroke="transparent" points="-14.4,14.4 -14.4,-154.2 741.124,-154.2 741.124,14.4 -14.4,14.4"/>
<text text-anchor="middle" x="363.362" y="-8.2" font-family="Times,serif" font-size="14.00" fill="#000000">AppComponent → AndroidBindingModule_BindBackgroundServiceReceiver.StartBackgroundServiceReceiverSubcomponent</text>
<g id="clust1" class="cluster">
<title>cluster_Entry Points</title>
<polygon fill="none" stroke="#000000" points="131.3255,-35.8 131.3255,-112.8 393.8369,-112.8 393.8369,-35.8 131.3255,-35.8"/>
<text text-anchor="middle" x="174.1316" y="-96.2" font-family="Times,serif" font-size="14.00" fill="#000000">Entry Points</text>
</g>
<g id="clust4" class="cluster">
<title>cluster_AppComponent</title>
<g id="a_clust4"><a xlink:href="org.owntracks.android.injection.components.AppComponent.svg" xlink:title="Inherited from AppComponent\n@Singleton">
<polygon fill="none" stroke="#7fffd4" stroke-dasharray="5,2" points="413.8369,-32.8 413.8369,-131.8 603.3985,-131.8 603.3985,-32.8 413.8369,-32.8"/>
<text text-anchor="middle" x="508.6177" y="-115.2" font-family="Times,serif" font-size="14.00" fill="#000000">Inherited from AppComponent</text>
<text text-anchor="middle" x="508.6177" y="-98.4" font-family="Times,serif" font-size="14.00" fill="#000000">@Singleton</text>
</a>
</g>
</g>
<!-- b175662b&#45;018c&#45;46ca&#45;b746&#45;b91e0b73ee38 -->
<g id="node1" class="node">
<title>b175662b&#45;018c&#45;46ca&#45;b746&#45;b91e0b73ee38</title>
<polygon fill="#40e0d0" stroke="#40e0d0" stroke-width="2" points="385.5931,-79.8 139.5693,-79.8 139.5693,-75.8 135.5693,-75.8 135.5693,-71.8 139.5693,-71.8 139.5693,-51.8 135.5693,-51.8 135.5693,-47.8 139.5693,-47.8 139.5693,-43.8 385.5931,-43.8 385.5931,-79.8"/>
<polyline fill="none" stroke="#40e0d0" stroke-width="2" points="139.5693,-75.8 143.5693,-75.8 143.5693,-71.8 139.5693,-71.8 "/>
<polyline fill="none" stroke="#40e0d0" stroke-width="2" points="139.5693,-51.8 143.5693,-51.8 143.5693,-47.8 139.5693,-47.8 "/>
<text text-anchor="middle" x="262.5812" y="-57.6" font-family="Times,serif" font-size="14.00" fill="#000000">inject (StartBackgroundServiceReceiver)</text>
</g>
<!-- 94be8e65&#45;fd19&#45;4074&#45;b422&#45;b40c61019f08 -->
<g id="node2" class="node">
<title>94be8e65&#45;fd19&#45;4074&#45;b422&#45;b40c61019f08</title>
<polygon fill="#7fffd4" stroke="#7fffd4" points="549.1805,-82.4019 467.0549,-82.4019 467.0549,-41.1981 549.1805,-41.1981 549.1805,-82.4019"/>
<text text-anchor="middle" x="508.1177" y="-66" font-family="Times,serif" font-size="14.00" fill="#000000">@Singleton</text>
<text text-anchor="middle" x="508.1177" y="-49.2" font-family="Times,serif" font-size="14.00" fill="#000000">Preferences</text>
</g>
<!-- b175662b&#45;018c&#45;46ca&#45;b746&#45;b91e0b73ee38&#45;&gt;94be8e65&#45;fd19&#45;4074&#45;b422&#45;b40c61019f08 -->
<g id="edge1" class="edge">
<title>b175662b&#45;018c&#45;46ca&#45;b746&#45;b91e0b73ee38&#45;&gt;94be8e65&#45;fd19&#45;4074&#45;b422&#45;b40c61019f08</title>
<path fill="none" stroke="#000000" d="M385.7091,-61.8C410.7879,-61.8 435.8466,-61.8 456.6992,-61.8"/>
<polygon fill="#000000" stroke="#000000" points="456.888,-65.3001 466.888,-61.8 456.8879,-58.3001 456.888,-65.3001"/>
</g>
</g>
</svg>
