<svg width="1211px" height="169px"
 viewBox="0.00 0.00 1211.14 168.60" xmlns="http://www.w3.org/2000/svg" xmlns:xlink="http://www.w3.org/1999/xlink">
<g id="graph0" class="graph" transform="scale(1.0 1.0) rotate(0) translate(14.4 154.2)">
<title>org.owntracks.android.injection.components.AppComponent → org.owntracks.android.injection.modules.AndroidBindingModule_BindPreferencesActivity.PreferencesActivitySubcomponent → org.owntracks.android.ui.preferences.PreferencesActivityModule_BindAdvancedPreferencesFragment.AdvancedFragmentSubcomponent</title>
<polygon fill="#ffffff" stroke="transparent" points="-14.4,14.4 -14.4,-154.2 1196.7414,-154.2 1196.7414,14.4 -14.4,14.4"/>
<text text-anchor="middle" x="591.1707" y="-8.2" font-family="Times,serif" font-size="14.00" fill="#000000">AppComponent → AndroidBindingModule_BindPreferencesActivity.PreferencesActivitySubcomponent → PreferencesActivityModule_BindAdvancedPreferencesFragment.AdvancedFragmentSubcomponent</text>
<g id="clust1" class="cluster">
<title>cluster_Entry Points</title>
<polygon fill="none" stroke="#000000" points="397.2268,-35.8 397.2268,-112.8 583.553,-112.8 583.553,-35.8 397.2268,-35.8"/>
<text text-anchor="middle" x="440.0329" y="-96.2" font-family="Times,serif" font-size="14.00" fill="#000000">Entry Points</text>
</g>
<g id="clust4" class="cluster">
<title>cluster_AppComponent</title>
<g id="a_clust4"><a xlink:href="org.owntracks.android.injection.components.AppComponent.svg" xlink:title="Inherited from AppComponent\n@Singleton">
<polygon fill="none" stroke="#7fffd4" stroke-dasharray="5,2" points="603.553,-32.8 603.553,-131.8 793.1146,-131.8 793.1146,-32.8 603.553,-32.8"/>
<text text-anchor="middle" x="698.3338" y="-115.2" font-family="Times,serif" font-size="14.00" fill="#000000">Inherited from AppComponent</text>
<text text-anchor="middle" x="698.3338" y="-98.4" font-family="Times,serif" font-size="14.00" fill="#000000">@Singleton</text>
</a>
</g>
</g>
<!-- a4817087&#45;87a5&#45;41bf&#45;8f5e&#45;77f7a7230866 -->
<g id="node1" class="node">
<title>a4817087&#45;87a5&#45;41bf&#45;8f5e&#45;77f7a7230866</title>
<polygon fill="#40e0d0" stroke="#40e0d0" stroke-width="2" points="575.7164,-79.8 405.0634,-79.8 405.0634,-75.8 401.0634,-75.8 401.0634,-71.8 405.0634,-71.8 405.0634,-51.8 401.0634,-51.8 401.0634,-47.8 405.0634,-47.8 405.0634,-43.8 575.7164,-43.8 575.7164,-79.8"/>
<polyline fill="none" stroke="#40e0d0" stroke-width="2" points="405.0634,-75.8 409.0634,-75.8 409.0634,-71.8 405.0634,-71.8 "/>
<polyline fill="none" stroke="#40e0d0" stroke-width="2" points="405.0634,-51.8 409.0634,-51.8 409.0634,-47.8 405.0634,-47.8 "/>
<text text-anchor="middle" x="490.3899" y="-57.6" font-family="Times,serif" font-size="14.00" fill="#000000">inject (AdvancedFragment)</text>
</g>
<!-- 7e624789&#45;e043&#45;40ab&#45;a830&#45;cdc47ce93a06 -->
<g id="node2" class="node">
<title>7e624789&#45;e043&#45;40ab&#45;a830&#45;cdc47ce93a06</title>
<polygon fill="#7fffd4" stroke="#7fffd4" points="738.8966,-82.4019 656.771,-82.4019 656.771,-41.1981 738.8966,-41.1981 738.8966,-82.4019"/>
<text text-anchor="middle" x="697.8338" y="-66" font-family="Times,serif" font-size="14.00" fill="#000000">@Singleton</text>
<text text-anchor="middle" x="697.8338" y="-49.2" font-family="Times,serif" font-size="14.00" fill="#000000">Preferences</text>
</g>
<!-- a4817087&#45;87a5&#45;41bf&#45;8f5e&#45;77f7a7230866&#45;&gt;7e624789&#45;e043&#45;40ab&#45;a830&#45;cdc47ce93a06 -->
<g id="edge1" class="edge">
<title>a4817087&#45;87a5&#45;41bf&#45;8f5e&#45;77f7a7230866&#45;&gt;7e624789&#45;e043&#45;40ab&#45;a830&#45;cdc47ce93a06</title>
<path fill="none" stroke="#000000" d="M575.6633,-61.8C599.672,-61.8 625.0434,-61.8 646.4064,-61.8"/>
<polygon fill="#000000" stroke="#000000" points="646.5482,-65.3001 656.5482,-61.8 646.5482,-58.3001 646.5482,-65.3001"/>
</g>
</g>
</svg>
