<svg width="1638px" height="1050px"
 viewBox="0.00 0.00 1637.67 1049.60" xmlns="http://www.w3.org/2000/svg" xmlns:xlink="http://www.w3.org/1999/xlink">
<g id="graph0" class="graph" transform="scale(1.0 1.0) rotate(0) translate(14.4 1035.2)">
<title>org.owntracks.android.injection.components.AppComponent → org.owntracks.android.injection.modules.AndroidBindingModule_BindMapActivity.MapActivitySubcomponent</title>
<polygon fill="#ffffff" stroke="transparent" points="-14.4,14.4 -14.4,-1035.2 1623.2673,-1035.2 1623.2673,14.4 -14.4,14.4"/>
<text text-anchor="middle" x="261.5351" y="-8.2" font-family="Times,serif" font-size="14.00" fill="#000000">AppComponent → AndroidBindingModule_BindMapActivity.MapActivitySubcomponent</text>
<g id="clust4" class="cluster">
<title>cluster_AppComponent → AndroidBindingModule_BindMapActivity.MapActivitySubcomponent</title>
<g id="a_clust4"><a xlink:href="org.owntracks.android.injection.modules.AndroidBindingModule_BindMapActivity.MapActivitySubcomponent.svg" xlink:title="Inherited from AndroidBindingModule_BindMapActivity.MapActivitySubcomponent\n@PerActivity">
<polygon fill="none" stroke="#ffe4c4" stroke-dasharray="5,2" points="8,-793.8 8,-1012.8 1600.8673,-1012.8 1600.8673,-793.8 8,-793.8"/>
<text text-anchor="middle" x="804.4336" y="-996.2" font-family="Times,serif" font-size="14.00" fill="#000000">Inherited from AndroidBindingModule_BindMapActivity.MapActivitySubcomponent</text>
<text text-anchor="middle" x="804.4336" y="-979.4" font-family="Times,serif" font-size="14.00" fill="#000000">@PerActivity</text>
</a>
</g>
</g>
<g id="clust1" class="cluster">
<title>cluster_Entry Points</title>
<polygon fill="none" stroke="#000000" points="541.5762,-436.8 541.5762,-513.8 689.0412,-513.8 689.0412,-436.8 541.5762,-436.8"/>
<text text-anchor="middle" x="584.3823" y="-497.2" font-family="Times,serif" font-size="14.00" fill="#000000">Entry Points</text>
</g>
<g id="clust5" class="cluster">
<title>cluster_AppComponent</title>
<g id="a_clust5"><a xlink:href="org.owntracks.android.injection.components.AppComponent.svg" xlink:title="Inherited from AppComponent\n@Singleton">
<polygon fill="none" stroke="#7fffd4" stroke-dasharray="5,2" points="887.4396,-32.8 887.4396,-785.8 1130.3874,-785.8 1130.3874,-32.8 887.4396,-32.8"/>
<text text-anchor="middle" x="1008.9135" y="-769.2" font-family="Times,serif" font-size="14.00" fill="#000000">Inherited from AppComponent</text>
<text text-anchor="middle" x="1008.9135" y="-752.4" font-family="Times,serif" font-size="14.00" fill="#000000">@Singleton</text>
</a>
</g>
</g>
<!-- 9f5cf3fc&#45;bdad&#45;4876&#45;9240&#45;c9b828520b48 -->
<g id="node1" class="node">
<title>9f5cf3fc&#45;bdad&#45;4876&#45;9240&#45;c9b828520b48</title>
<polygon fill="#40e0d0" stroke="#40e0d0" stroke-width="2" points="681.2745,-480.8 549.3429,-480.8 549.3429,-476.8 545.3429,-476.8 545.3429,-472.8 549.3429,-472.8 549.3429,-452.8 545.3429,-452.8 545.3429,-448.8 549.3429,-448.8 549.3429,-444.8 681.2745,-444.8 681.2745,-480.8"/>
<polyline fill="none" stroke="#40e0d0" stroke-width="2" points="549.3429,-476.8 553.3429,-476.8 553.3429,-472.8 549.3429,-472.8 "/>
<polyline fill="none" stroke="#40e0d0" stroke-width="2" points="549.3429,-452.8 553.3429,-452.8 553.3429,-448.8 549.3429,-448.8 "/>
<text text-anchor="middle" x="615.3087" y="-458.6" font-family="Times,serif" font-size="14.00" fill="#000000">inject (MapActivity)</text>
</g>
<!-- 6817c28b&#45;2081&#45;4018&#45;9e88&#45;76407951d69c -->
<g id="node2" class="node">
<title>6817c28b&#45;2081&#45;4018&#45;9e88&#45;76407951d69c</title>
<polygon fill="#40e0d0" stroke="#40e0d0" points="277.9469,-838.8 16.0177,-838.8 16.0177,-802.8 277.9469,-802.8 277.9469,-838.8"/>
<text text-anchor="middle" x="146.9823" y="-816.6" font-family="Times,serif" font-size="14.00" fill="#000000">MapMvvm.ViewModel&lt;MapMvvm.View&gt;</text>
</g>
<!-- 9f5cf3fc&#45;bdad&#45;4876&#45;9240&#45;c9b828520b48&#45;&gt;6817c28b&#45;2081&#45;4018&#45;9e88&#45;76407951d69c -->
<g id="edge2" class="edge">
<title>9f5cf3fc&#45;bdad&#45;4876&#45;9240&#45;c9b828520b48&#45;&gt;6817c28b&#45;2081&#45;4018&#45;9e88&#45;76407951d69c</title>
<path fill="none" stroke="#000000" d="M591.4885,-481.0087C513.731,-540.4485 267.2647,-728.8532 178.8977,-796.4031"/>
<polygon fill="#000000" stroke="#000000" points="176.6696,-793.7008 170.8505,-802.5545 180.9208,-799.2621 176.6696,-793.7008"/>
</g>
<!-- 0f4d5c3f&#45;71c2&#45;47e4&#45;8542&#45;ae7675f09f29 -->
<g id="node3" class="node">
<title>0f4d5c3f&#45;71c2&#45;47e4&#45;8542&#45;ae7675f09f29</title>
<polygon fill="#ffe4c4" stroke="#ffe4c4" points="841.4131,-903.4019 735.0677,-903.4019 735.0677,-862.1981 841.4131,-862.1981 841.4131,-903.4019"/>
<text text-anchor="middle" x="788.2404" y="-887" font-family="Times,serif" font-size="14.00" fill="#000000">@PerActivity</text>
<text text-anchor="middle" x="788.2404" y="-870.2" font-family="Times,serif" font-size="14.00" fill="#000000">DrawerProvider</text>
</g>
<!-- 9f5cf3fc&#45;bdad&#45;4876&#45;9240&#45;c9b828520b48&#45;&gt;0f4d5c3f&#45;71c2&#45;47e4&#45;8542&#45;ae7675f09f29 -->
<g id="edge5" class="edge">
<title>9f5cf3fc&#45;bdad&#45;4876&#45;9240&#45;c9b828520b48&#45;&gt;0f4d5c3f&#45;71c2&#45;47e4&#45;8542&#45;ae7675f09f29</title>
<path fill="none" stroke="#000000" d="M620.498,-481.087C634.0988,-529.1997 671.686,-663.3497 700.0412,-775.8 708.6343,-809.8781 695.4463,-825.881 718.0412,-852.8 720.6041,-855.8534 723.5338,-858.6034 726.7088,-861.0792"/>
<polygon fill="#000000" stroke="#000000" points="724.7867,-864.0044 735.0368,-866.6851 728.6956,-858.1975 724.7867,-864.0044"/>
</g>
<!-- 1fe1b0dd&#45;6d30&#45;45c2&#45;9893&#45;7ec33ca4452e -->
<g id="node4" class="node">
<title>1fe1b0dd&#45;6d30&#45;45c2&#45;9893&#45;7ec33ca4452e</title>
<polygon fill="#ffe4c4" stroke="#ffe4c4" points="835.1754,-963.4019 741.3054,-963.4019 741.3054,-922.1981 835.1754,-922.1981 835.1754,-963.4019"/>
<text text-anchor="middle" x="788.2404" y="-947" font-family="Times,serif" font-size="14.00" fill="#000000">@PerActivity</text>
<text text-anchor="middle" x="788.2404" y="-930.2" font-family="Times,serif" font-size="14.00" fill="#000000">Navigator</text>
</g>
<!-- 9f5cf3fc&#45;bdad&#45;4876&#45;9240&#45;c9b828520b48&#45;&gt;1fe1b0dd&#45;6d30&#45;45c2&#45;9893&#45;7ec33ca4452e -->
<g id="edge13" class="edge">
<title>9f5cf3fc&#45;bdad&#45;4876&#45;9240&#45;c9b828520b48&#45;&gt;1fe1b0dd&#45;6d30&#45;45c2&#45;9893&#45;7ec33ca4452e</title>
<path fill="none" stroke="#000000" d="M619.3837,-480.9027C638.2455,-564.662 716.2356,-910.6374 718.0412,-912.8 722.1106,-917.6738 727.1152,-921.7741 732.5626,-925.2196"/>
<polygon fill="#000000" stroke="#000000" points="730.971,-928.3389 741.4164,-930.1123 734.3567,-922.2122 730.971,-928.3389"/>
</g>
<!-- dc316944&#45;0ad4&#45;49f2&#45;ba6d&#45;7044cc5f3eba -->
<g id="node5" class="node">
<title>dc316944&#45;0ad4&#45;49f2&#45;ba6d&#45;7044cc5f3eba</title>
<polygon fill="#ffe4c4" stroke="#ffe4c4" points="858.6394,-843.4019 717.8414,-843.4019 717.8414,-802.1981 858.6394,-802.1981 858.6394,-843.4019"/>
<text text-anchor="middle" x="788.2404" y="-827" font-family="Times,serif" font-size="14.00" fill="#000000">@PerActivity</text>
<text text-anchor="middle" x="788.2404" y="-810.2" font-family="Times,serif" font-size="14.00" fill="#000000">RequirementsChecker</text>
</g>
<!-- 9f5cf3fc&#45;bdad&#45;4876&#45;9240&#45;c9b828520b48&#45;&gt;dc316944&#45;0ad4&#45;49f2&#45;ba6d&#45;7044cc5f3eba -->
<g id="edge7" class="edge">
<title>9f5cf3fc&#45;bdad&#45;4876&#45;9240&#45;c9b828520b48&#45;&gt;dc316944&#45;0ad4&#45;49f2&#45;ba6d&#45;7044cc5f3eba</title>
<path fill="none" stroke="#000000" d="M624.1222,-481.1474C652.1173,-539.4261 739.2063,-720.7234 773.8321,-792.8056"/>
<polygon fill="#000000" stroke="#000000" points="770.6837,-794.3347 778.1686,-801.8332 776.9935,-791.3037 770.6837,-794.3347"/>
</g>
<!-- c688db9b&#45;0add&#45;4d4d&#45;84f9&#45;1a8707afcdc4 -->
<g id="node9" class="node">
<title>c688db9b&#45;0add&#45;4d4d&#45;84f9&#45;1a8707afcdc4</title>
<polygon fill="#7fffd4" stroke="#7fffd4" points="1085.5591,-616.4019 932.2679,-616.4019 932.2679,-575.1981 1085.5591,-575.1981 1085.5591,-616.4019"/>
<text text-anchor="middle" x="1008.9135" y="-600" font-family="Times,serif" font-size="14.00" fill="#000000">@Singleton</text>
<text text-anchor="middle" x="1008.9135" y="-583.2" font-family="Times,serif" font-size="14.00" fill="#000000">CountingIdlingResource</text>
</g>
<!-- 9f5cf3fc&#45;bdad&#45;4876&#45;9240&#45;c9b828520b48&#45;&gt;c688db9b&#45;0add&#45;4d4d&#45;84f9&#45;1a8707afcdc4 -->
<g id="edge3" class="edge">
<title>9f5cf3fc&#45;bdad&#45;4876&#45;9240&#45;c9b828520b48&#45;&gt;c688db9b&#45;0add&#45;4d4d&#45;84f9&#45;1a8707afcdc4</title>
<path fill="none" stroke="#000000" d="M623.2844,-480.9288C635.5115,-506.2686 661.4852,-551.4521 699.0412,-571.8 767.2667,-608.7646 856.624,-611.7733 921.8427,-607.3106"/>
<polygon fill="#000000" stroke="#000000" points="922.3885,-610.7794 932.0957,-606.5343 921.8599,-603.7994 922.3885,-610.7794"/>
</g>
<!-- 1791a035&#45;4f9e&#45;4386&#45;8e67&#45;4ee2de8b7a04 -->
<g id="node10" class="node">
<title>1791a035&#45;4f9e&#45;4386&#45;8e67&#45;4ee2de8b7a04</title>
<polygon fill="#40e0d0" stroke="#40e0d0" points="1122.3613,-556.8 895.4657,-556.8 895.4657,-520.8 1122.3613,-520.8 1122.3613,-556.8"/>
<text text-anchor="middle" x="1008.9135" y="-534.6" font-family="Times,serif" font-size="14.00" fill="#000000">DispatchingAndroidInjector&lt;Object&gt;</text>
</g>
<!-- 9f5cf3fc&#45;bdad&#45;4876&#45;9240&#45;c9b828520b48&#45;&gt;1791a035&#45;4f9e&#45;4386&#45;8e67&#45;4ee2de8b7a04 -->
<g id="edge4" class="edge">
<title>9f5cf3fc&#45;bdad&#45;4876&#45;9240&#45;c9b828520b48&#45;&gt;1791a035&#45;4f9e&#45;4386&#45;8e67&#45;4ee2de8b7a04</title>
<path fill="none" stroke="#000000" d="M681.1228,-476.9757C687.1801,-478.272 693.2238,-479.5624 699.0412,-480.8 763.9432,-494.6077 836.87,-508.3454 895.6649,-518.9827"/>
<polygon fill="#000000" stroke="#000000" points="895.2603,-522.4661 905.7228,-520.7971 896.503,-515.5773 895.2603,-522.4661"/>
</g>
<!-- 7060165e&#45;593e&#45;4c93&#45;bdb1&#45;98150d17b696 -->
<g id="node11" class="node">
<title>7060165e&#45;593e&#45;4c93&#45;bdb1&#45;98150d17b696</title>
<polygon fill="#7fffd4" stroke="#7fffd4" points="1068.0341,-502.4019 949.7929,-502.4019 949.7929,-461.1981 1068.0341,-461.1981 1068.0341,-502.4019"/>
<text text-anchor="middle" x="1008.9135" y="-486" font-family="Times,serif" font-size="14.00" fill="#000000">@Singleton</text>
<text text-anchor="middle" x="1008.9135" y="-469.2" font-family="Times,serif" font-size="14.00" fill="#000000">GeocoderProvider</text>
</g>
<!-- 9f5cf3fc&#45;bdad&#45;4876&#45;9240&#45;c9b828520b48&#45;&gt;7060165e&#45;593e&#45;4c93&#45;bdb1&#45;98150d17b696 -->
<g id="edge10" class="edge">
<title>9f5cf3fc&#45;bdad&#45;4876&#45;9240&#45;c9b828520b48&#45;&gt;7060165e&#45;593e&#45;4c93&#45;bdb1&#45;98150d17b696</title>
<path fill="none" stroke="#000000" d="M681.1893,-465.9802C752.7773,-469.4359 866.6636,-474.9333 939.5785,-478.4531"/>
<polygon fill="#000000" stroke="#000000" points="939.4294,-481.9499 949.5866,-478.9362 939.767,-474.958 939.4294,-481.9499"/>
</g>
<!-- b29c1d27&#45;cdad&#45;4ce2&#45;ac54&#45;c5a8ab5c5625 -->
<g id="node12" class="node">
<title>b29c1d27&#45;cdad&#45;4ce2&#45;ac54&#45;c5a8ab5c5625</title>
<polygon fill="#7fffd4" stroke="#7fffd4" points="1056.7282,-442.4019 961.0988,-442.4019 961.0988,-401.1981 1056.7282,-401.1981 1056.7282,-442.4019"/>
<text text-anchor="middle" x="1008.9135" y="-426" font-family="Times,serif" font-size="14.00" fill="#000000">@Singleton</text>
<text text-anchor="middle" x="1008.9135" y="-409.2" font-family="Times,serif" font-size="14.00" fill="#000000">LocationRepo</text>
</g>
<!-- 9f5cf3fc&#45;bdad&#45;4876&#45;9240&#45;c9b828520b48&#45;&gt;b29c1d27&#45;cdad&#45;4ce2&#45;ac54&#45;c5a8ab5c5625 -->
<g id="edge8" class="edge">
<title>9f5cf3fc&#45;bdad&#45;4876&#45;9240&#45;c9b828520b48&#45;&gt;b29c1d27&#45;cdad&#45;4ce2&#45;ac54&#45;c5a8ab5c5625</title>
<path fill="none" stroke="#000000" d="M681.1893,-455.9375C756.5941,-448.083 878.9277,-435.34 950.8791,-427.8452"/>
<polygon fill="#000000" stroke="#000000" points="951.5342,-431.296 961.1177,-426.7787 950.8089,-424.3336 951.5342,-431.296"/>
</g>
<!-- 7f4a69b3&#45;cad5&#45;4bd5&#45;a51d&#45;d70049493cfa -->
<g id="node13" class="node">
<title>7f4a69b3&#45;cad5&#45;4bd5&#45;a51d&#45;d70049493cfa</title>
<polygon fill="#7fffd4" stroke="#7fffd4" points="1095.2041,-382.4019 922.6229,-382.4019 922.6229,-341.1981 1095.2041,-341.1981 1095.2041,-382.4019"/>
<text text-anchor="middle" x="1008.9135" y="-366" font-family="Times,serif" font-size="14.00" fill="#000000">@Singleton</text>
<text text-anchor="middle" x="1008.9135" y="-349.2" font-family="Times,serif" font-size="14.00" fill="#000000">RunThingsOnOtherThreads</text>
</g>
<!-- 9f5cf3fc&#45;bdad&#45;4876&#45;9240&#45;c9b828520b48&#45;&gt;7f4a69b3&#45;cad5&#45;4bd5&#45;a51d&#45;d70049493cfa -->
<g id="edge6" class="edge">
<title>9f5cf3fc&#45;bdad&#45;4876&#45;9240&#45;c9b828520b48&#45;&gt;7f4a69b3&#45;cad5&#45;4bd5&#45;a51d&#45;d70049493cfa</title>
<path fill="none" stroke="#000000" d="M675.4804,-444.74C689.4213,-440.6917 704.2217,-436.5024 718.0412,-432.8 782.6966,-415.478 855.9023,-397.6182 912.6982,-384.1443"/>
<polygon fill="#000000" stroke="#000000" points="913.8208,-387.4753 922.7456,-381.7658 912.2083,-380.6636 913.8208,-387.4753"/>
</g>
<!-- 3b70041e&#45;6722&#45;4a34&#45;9ae9&#45;4a53950eefa4 -->
<g id="node14" class="node">
<title>3b70041e&#45;6722&#45;4a34&#45;9ae9&#45;4a53950eefa4</title>
<polygon fill="#7fffd4" stroke="#7fffd4" points="1080.1501,-322.4019 937.6769,-322.4019 937.6769,-281.1981 1080.1501,-281.1981 1080.1501,-322.4019"/>
<text text-anchor="middle" x="1008.9135" y="-306" font-family="Times,serif" font-size="14.00" fill="#000000">@Singleton</text>
<text text-anchor="middle" x="1008.9135" y="-289.2" font-family="Times,serif" font-size="14.00" fill="#000000">ContactImageProvider</text>
</g>
<!-- 9f5cf3fc&#45;bdad&#45;4876&#45;9240&#45;c9b828520b48&#45;&gt;3b70041e&#45;6722&#45;4a34&#45;9ae9&#45;4a53950eefa4 -->
<g id="edge12" class="edge">
<title>9f5cf3fc&#45;bdad&#45;4876&#45;9240&#45;c9b828520b48&#45;&gt;3b70041e&#45;6722&#45;4a34&#45;9ae9&#45;4a53950eefa4</title>
<path fill="none" stroke="#000000" d="M637.7593,-444.5666C657.8023,-429.0276 688.476,-407.0153 718.0412,-392.8 784.8369,-360.6839 815.7367,-384.8591 877.4396,-343.8 883.2194,-339.954 881.5542,-335.4824 887.4396,-331.8 899.634,-324.1702 913.6474,-318.4803 927.723,-314.2372"/>
<polygon fill="#000000" stroke="#000000" points="928.7626,-317.5809 937.4559,-311.5248 926.8834,-310.8379 928.7626,-317.5809"/>
</g>
<!-- 05936459&#45;1df6&#45;4ed5&#45;8d57&#45;c8395dfe7219 -->
<g id="node15" class="node">
<title>05936459&#45;1df6&#45;4ed5&#45;8d57&#45;c8395dfe7219</title>
<polygon fill="#7fffd4" stroke="#7fffd4" points="1049.9763,-262.4019 967.8507,-262.4019 967.8507,-221.1981 1049.9763,-221.1981 1049.9763,-262.4019"/>
<text text-anchor="middle" x="1008.9135" y="-246" font-family="Times,serif" font-size="14.00" fill="#000000">@Singleton</text>
<text text-anchor="middle" x="1008.9135" y="-229.2" font-family="Times,serif" font-size="14.00" fill="#000000">EventBus</text>
</g>
<!-- 9f5cf3fc&#45;bdad&#45;4876&#45;9240&#45;c9b828520b48&#45;&gt;05936459&#45;1df6&#45;4ed5&#45;8d57&#45;c8395dfe7219 -->
<g id="edge9" class="edge">
<title>9f5cf3fc&#45;bdad&#45;4876&#45;9240&#45;c9b828520b48&#45;&gt;05936459&#45;1df6&#45;4ed5&#45;8d57&#45;c8395dfe7219</title>
<path fill="none" stroke="#000000" d="M624.0363,-444.6497C640.1533,-418.1425 676.735,-370.2086 718.0412,-341.8 780.8062,-298.633 818.8977,-327.541 877.4396,-278.8 883.8841,-273.4344 880.6497,-267.7212 887.4396,-262.8 907.7407,-248.0863 934.4284,-240.542 957.6171,-237.518"/>
<polygon fill="#000000" stroke="#000000" points="958.0703,-240.9898 967.6498,-236.464 957.3388,-234.0281 958.0703,-240.9898"/>
</g>
<!-- 9f5cf3fc&#45;bdad&#45;4876&#45;9240&#45;c9b828520b48&#45;&gt;05936459&#45;1df6&#45;4ed5&#45;8d57&#45;c8395dfe7219 -->
<g id="edge11" class="edge">
<title>9f5cf3fc&#45;bdad&#45;4876&#45;9240&#45;c9b828520b48&#45;&gt;05936459&#45;1df6&#45;4ed5&#45;8d57&#45;c8395dfe7219</title>
<path fill="none" stroke="#000000" d="M632.7905,-444.6829C651.4304,-421.9649 683.0396,-383.8726 718.0412,-359.8 780.8062,-316.633 818.8977,-345.541 877.4396,-296.8 883.8841,-291.4344 880.6497,-285.7212 887.4396,-280.8 907.7407,-266.0863 934.4284,-258.542 957.6171,-253.8684"/>
<polygon fill="#000000" stroke="#000000" points="958.4758,-257.2681 967.6498,-251.9682 957.1731,-250.3903 958.4758,-257.2681"/>
</g>
<!-- 53bdb5f7&#45;6d60&#45;4e34&#45;bd1f&#45;51636c7f7b97 -->
<g id="node16" class="node">
<title>53bdb5f7&#45;6d60&#45;4e34&#45;bd1f&#45;51636c7f7b97</title>
<polygon fill="#7fffd4" stroke="#7fffd4" points="1049.9763,-676.4019 967.8507,-676.4019 967.8507,-635.1981 1049.9763,-635.1981 1049.9763,-676.4019"/>
<text text-anchor="middle" x="1008.9135" y="-660" font-family="Times,serif" font-size="14.00" fill="#000000">@Singleton</text>
<text text-anchor="middle" x="1008.9135" y="-643.2" font-family="Times,serif" font-size="14.00" fill="#000000">Preferences</text>
</g>
<!-- 9f5cf3fc&#45;bdad&#45;4876&#45;9240&#45;c9b828520b48&#45;&gt;53bdb5f7&#45;6d60&#45;4e34&#45;bd1f&#45;51636c7f7b97 -->
<g id="edge1" class="edge">
<title>9f5cf3fc&#45;bdad&#45;4876&#45;9240&#45;c9b828520b48&#45;&gt;53bdb5f7&#45;6d60&#45;4e34&#45;bd1f&#45;51636c7f7b97</title>
<path fill="none" stroke="#000000" d="M639.8593,-480.9754C686.0277,-514.3411 789.9324,-585.6172 887.4396,-625.8 909.8202,-635.0231 935.7331,-641.901 957.8626,-646.7279"/>
<polygon fill="#000000" stroke="#000000" points="957.2317,-650.1717 967.7377,-648.8024 958.6709,-643.3212 957.2317,-650.1717"/>
</g>
<!-- c34ebdf2&#45;9d7a&#45;42c8&#45;8e75&#45;58ff366112d7 -->
<g id="node6" class="node">
<title>c34ebdf2&#45;9d7a&#45;42c8&#45;8e75&#45;58ff366112d7</title>
<polygon fill="#ffe4c4" stroke="#ffe4c4" points="512.3409,-843.4019 404.2841,-843.4019 404.2841,-802.1981 512.3409,-802.1981 512.3409,-843.4019"/>
<text text-anchor="middle" x="458.3125" y="-827" font-family="Times,serif" font-size="14.00" fill="#000000">@PerActivity</text>
<text text-anchor="middle" x="458.3125" y="-810.2" font-family="Times,serif" font-size="14.00" fill="#000000">MapViewModel</text>
</g>
<!-- 6817c28b&#45;2081&#45;4018&#45;9e88&#45;76407951d69c&#45;&gt;c34ebdf2&#45;9d7a&#45;42c8&#45;8e75&#45;58ff366112d7 -->
<g id="edge14" class="edge">
<title>6817c28b&#45;2081&#45;4018&#45;9e88&#45;76407951d69c&#45;&gt;c34ebdf2&#45;9d7a&#45;42c8&#45;8e75&#45;58ff366112d7</title>
<path fill="none" stroke="#000000" stroke-dasharray="1,5" d="M278.112,-821.6424C318.1719,-821.8997 360.4555,-822.1714 393.9886,-822.3868"/>
<polygon fill="#000000" stroke="#000000" points="394.0801,-825.8873 404.1024,-822.4518 394.1251,-818.8875 394.0801,-825.8873"/>
<text text-anchor="middle" x="341.0067" y="-826" font-family="Times,serif" font-size="14.00" fill="#000000">delegates</text>
</g>
<!-- a7070bb0&#45;bc1f&#45;475a&#45;97e4&#45;9c282c1f2367 -->
<g id="node7" class="node">
<title>a7070bb0&#45;bc1f&#45;475a&#45;97e4&#45;9c282c1f2367</title>
<polygon fill="#ffe4c4" stroke="#ffe4c4" points="1289.8717,-903.4019 1159.2257,-903.4019 1159.2257,-862.1981 1289.8717,-862.1981 1289.8717,-903.4019"/>
<text text-anchor="middle" x="1224.5487" y="-887" font-family="Times,serif" font-size="14.00" fill="#000000">@PerActivity</text>
<text text-anchor="middle" x="1224.5487" y="-870.2" font-family="Times,serif" font-size="14.00" fill="#000000">AppCompatActivity</text>
</g>
<!-- 0f4d5c3f&#45;71c2&#45;47e4&#45;8542&#45;ae7675f09f29&#45;&gt;a7070bb0&#45;bc1f&#45;475a&#45;97e4&#45;9c282c1f2367 -->
<g id="edge15" class="edge">
<title>0f4d5c3f&#45;71c2&#45;47e4&#45;8542&#45;ae7675f09f29&#45;&gt;a7070bb0&#45;bc1f&#45;475a&#45;97e4&#45;9c282c1f2367</title>
<path fill="none" stroke="#000000" d="M841.7404,-882.8C918.7882,-882.8 1061.347,-882.8 1149.0739,-882.8"/>
<polygon fill="#000000" stroke="#000000" points="1149.229,-886.3001 1159.2289,-882.8 1149.2289,-879.3001 1149.229,-886.3001"/>
</g>
<!-- 4c46eadc&#45;69e6&#45;4555&#45;8c08&#45;4ceed3c7cc13 -->
<g id="node17" class="node">
<title>4c46eadc&#45;69e6&#45;4555&#45;8c08&#45;4ceed3c7cc13</title>
<polygon fill="#7fffd4" stroke="#7fffd4" points="1049.9763,-736.4019 967.8507,-736.4019 967.8507,-695.1981 1049.9763,-695.1981 1049.9763,-736.4019"/>
<text text-anchor="middle" x="1008.9135" y="-720" font-family="Times,serif" font-size="14.00" fill="#000000">@Singleton</text>
<text text-anchor="middle" x="1008.9135" y="-703.2" font-family="Times,serif" font-size="14.00" fill="#000000">Scheduler</text>
</g>
<!-- 0f4d5c3f&#45;71c2&#45;47e4&#45;8542&#45;ae7675f09f29&#45;&gt;4c46eadc&#45;69e6&#45;4555&#45;8c08&#45;4ceed3c7cc13 -->
<g id="edge16" class="edge">
<title>0f4d5c3f&#45;71c2&#45;47e4&#45;8542&#45;ae7675f09f29&#45;&gt;4c46eadc&#45;69e6&#45;4555&#45;8c08&#45;4ceed3c7cc13</title>
<path fill="none" stroke="#000000" d="M841.5163,-865.1656C847.6702,-861.6969 853.4997,-857.6057 858.4396,-852.8 880.5335,-831.3062 866.9409,-812.8201 887.4396,-789.8 907.0254,-767.8051 934.7267,-750.2431 958.731,-737.7573"/>
<polygon fill="#000000" stroke="#000000" points="960.3721,-740.8497 967.7252,-733.2219 957.2203,-734.5993 960.3721,-740.8497"/>
</g>
<!-- 1fe1b0dd&#45;6d30&#45;45c2&#45;9893&#45;7ec33ca4452e&#45;&gt;a7070bb0&#45;bc1f&#45;475a&#45;97e4&#45;9c282c1f2367 -->
<g id="edge18" class="edge">
<title>1fe1b0dd&#45;6d30&#45;45c2&#45;9893&#45;7ec33ca4452e&#45;&gt;a7070bb0&#45;bc1f&#45;475a&#45;97e4&#45;9c282c1f2367</title>
<path fill="none" stroke="#000000" d="M835.3476,-936.3219C910.6693,-925.9639 1058.8952,-905.5802 1149.1063,-893.1746"/>
<polygon fill="#000000" stroke="#000000" points="1149.8405,-896.6067 1159.2704,-891.7769 1148.8868,-889.672 1149.8405,-896.6067"/>
</g>
<!-- dc316944&#45;0ad4&#45;49f2&#45;ba6d&#45;7044cc5f3eba&#45;&gt;a7070bb0&#45;bc1f&#45;475a&#45;97e4&#45;9c282c1f2367 -->
<g id="edge19" class="edge">
<title>dc316944&#45;0ad4&#45;49f2&#45;ba6d&#45;7044cc5f3eba&#45;&gt;a7070bb0&#45;bc1f&#45;475a&#45;97e4&#45;9c282c1f2367</title>
<path fill="none" stroke="#000000" d="M858.8258,-832.5067C938.3892,-843.4481 1067.2525,-861.169 1148.8557,-872.3909"/>
<polygon fill="#000000" stroke="#000000" points="1148.6757,-875.899 1159.0593,-873.7941 1149.6294,-868.9643 1148.6757,-875.899"/>
</g>
<!-- dc316944&#45;0ad4&#45;49f2&#45;ba6d&#45;7044cc5f3eba&#45;&gt;53bdb5f7&#45;6d60&#45;4e34&#45;bd1f&#45;51636c7f7b97 -->
<g id="edge20" class="edge">
<title>dc316944&#45;0ad4&#45;49f2&#45;ba6d&#45;7044cc5f3eba&#45;&gt;53bdb5f7&#45;6d60&#45;4e34&#45;bd1f&#45;51636c7f7b97</title>
<path fill="none" stroke="#000000" d="M797.446,-802.0631C812.0264,-771.6925 843.3664,-715.5082 887.4396,-685.8 908.1515,-671.8389 934.764,-664.367 957.7981,-660.3715"/>
<polygon fill="#000000" stroke="#000000" points="958.4179,-663.8172 967.7582,-658.8163 957.3379,-656.901 958.4179,-663.8172"/>
</g>
<!-- c34ebdf2&#45;9d7a&#45;42c8&#45;8e75&#45;58ff366112d7&#45;&gt;1fe1b0dd&#45;6d30&#45;45c2&#45;9893&#45;7ec33ca4452e -->
<g id="edge17" class="edge">
<title>c34ebdf2&#45;9d7a&#45;42c8&#45;8e75&#45;58ff366112d7&#45;&gt;1fe1b0dd&#45;6d30&#45;45c2&#45;9893&#45;7ec33ca4452e</title>
<path fill="none" stroke="#000000" d="M512.4239,-842.4812C572.8986,-864.4768 670.3659,-899.9272 731.7793,-922.2642"/>
<polygon fill="#000000" stroke="#000000" points="730.721,-925.6035 741.315,-925.7325 733.1137,-919.0252 730.721,-925.6035"/>
</g>
<!-- 8185df49&#45;c400&#45;469d&#45;9269&#45;18439a104100 -->
<g id="node18" class="node">
<title>8185df49&#45;c400&#45;469d&#45;9269&#45;18439a104100</title>
<polygon fill="#7fffd4" stroke="#7fffd4" points="1055.9574,-142.4019 961.8696,-142.4019 961.8696,-101.1981 1055.9574,-101.1981 1055.9574,-142.4019"/>
<text text-anchor="middle" x="1008.9135" y="-126" font-family="Times,serif" font-size="14.00" fill="#000000">@Singleton</text>
<text text-anchor="middle" x="1008.9135" y="-109.2" font-family="Times,serif" font-size="14.00" fill="#000000">ContactsRepo</text>
</g>
<!-- c34ebdf2&#45;9d7a&#45;42c8&#45;8e75&#45;58ff366112d7&#45;&gt;8185df49&#45;c400&#45;469d&#45;9269&#45;18439a104100 -->
<g id="edge23" class="edge">
<title>c34ebdf2&#45;9d7a&#45;42c8&#45;8e75&#45;58ff366112d7&#45;&gt;8185df49&#45;c400&#45;469d&#45;9269&#45;18439a104100</title>
<path fill="none" stroke="#000000" d="M458.9477,-802.1146C462.0239,-714.3868 477.9413,-373.8212 541.5762,-291.8 642.1165,-162.2103 850.7994,-131.3365 951.7538,-124.0311"/>
<polygon fill="#000000" stroke="#000000" points="952.0223,-127.5211 961.7653,-123.3588 951.5532,-120.5368 952.0223,-127.5211"/>
</g>
<!-- 70749136&#45;1715&#45;4e4d&#45;928a&#45;d9774347d978 -->
<g id="node19" class="node">
<title>70749136&#45;1715&#45;4e4d&#45;928a&#45;d9774347d978</title>
<polygon fill="#7fffd4" stroke="#7fffd4" points="1068.814,-82.4019 949.013,-82.4019 949.013,-41.1981 1068.814,-41.1981 1068.814,-82.4019"/>
<text text-anchor="middle" x="1008.9135" y="-66" font-family="Times,serif" font-size="14.00" fill="#000000">@Singleton</text>
<text text-anchor="middle" x="1008.9135" y="-49.2" font-family="Times,serif" font-size="14.00" fill="#000000">MessageProcessor</text>
</g>
<!-- c34ebdf2&#45;9d7a&#45;42c8&#45;8e75&#45;58ff366112d7&#45;&gt;70749136&#45;1715&#45;4e4d&#45;928a&#45;d9774347d978 -->
<g id="edge22" class="edge">
<title>c34ebdf2&#45;9d7a&#45;42c8&#45;8e75&#45;58ff366112d7&#45;&gt;70749136&#45;1715&#45;4e4d&#45;928a&#45;d9774347d978</title>
<path fill="none" stroke="#000000" d="M459.6419,-802.1204C466.5539,-697.338 499.6801,-228.1153 541.5762,-179.8 641.1884,-64.9255 834.8262,-53.6743 938.8367,-56.8199"/>
<polygon fill="#000000" stroke="#000000" points="938.8041,-60.3209 948.9223,-57.1788 939.0531,-53.3253 938.8041,-60.3209"/>
</g>
<!-- 2c6424ad&#45;d284&#45;4792&#45;ae16&#45;fd595dc135d7 -->
<g id="node20" class="node">
<title>2c6424ad&#45;d284&#45;4792&#45;ae16&#45;fd595dc135d7</title>
<polygon fill="#7fffd4" stroke="#7fffd4" points="1069.0988,-202.4019 948.7282,-202.4019 948.7282,-161.1981 1069.0988,-161.1981 1069.0988,-202.4019"/>
<text text-anchor="middle" x="1008.9135" y="-186" font-family="Times,serif" font-size="14.00" fill="#000000">@Singleton</text>
<text text-anchor="middle" x="1008.9135" y="-169.2" font-family="Times,serif" font-size="14.00" fill="#000000">LocationProcessor</text>
</g>
<!-- c34ebdf2&#45;9d7a&#45;42c8&#45;8e75&#45;58ff366112d7&#45;&gt;2c6424ad&#45;d284&#45;4792&#45;ae16&#45;fd595dc135d7 -->
<g id="edge21" class="edge">
<title>c34ebdf2&#45;9d7a&#45;42c8&#45;8e75&#45;58ff366112d7&#45;&gt;2c6424ad&#45;d284&#45;4792&#45;ae16&#45;fd595dc135d7</title>
<path fill="none" stroke="#000000" d="M460.8479,-801.8392C469.8077,-730.1936 501.602,-495.9907 541.5762,-432.8 631.7235,-290.2966 831.9771,-223.2401 938.7262,-196.6038"/>
<polygon fill="#000000" stroke="#000000" points="939.8754,-199.926 948.758,-194.1511 938.2129,-193.1263 939.8754,-199.926"/>
</g>
<!-- ec822c33&#45;d519&#45;4b48&#45;87c1&#45;10b7c3293fc8 -->
<g id="node8" class="node">
<title>ec822c33&#45;d519&#45;4b48&#45;87c1&#45;10b7c3293fc8</title>
<polygon fill="#40e0d0" stroke="#40e0d0" points="1592.9038,-900.8 1452.0039,-900.8 1415.7577,-864.8 1556.6576,-864.8 1592.9038,-900.8"/>
<text text-anchor="middle" x="1504.3307" y="-878.6" font-family="Times,serif" font-size="14.00" fill="#000000">MapActivity</text>
</g>
<!-- a7070bb0&#45;bc1f&#45;475a&#45;97e4&#45;9c282c1f2367&#45;&gt;ec822c33&#45;d519&#45;4b48&#45;87c1&#45;10b7c3293fc8 -->
<g id="edge24" class="edge">
<title>a7070bb0&#45;bc1f&#45;475a&#45;97e4&#45;9c282c1f2367&#45;&gt;ec822c33&#45;d519&#45;4b48&#45;87c1&#45;10b7c3293fc8</title>
<path fill="none" stroke="#000000" stroke-dasharray="1,5" d="M1289.7921,-882.8C1329.7051,-882.8 1381.0837,-882.8 1423.5544,-882.8"/>
<polygon fill="#000000" stroke="#000000" points="1423.5866,-886.3001 1433.5866,-882.8 1423.5865,-879.3001 1423.5866,-886.3001"/>
<text text-anchor="middle" x="1352.7521" y="-887" font-family="Times,serif" font-size="14.00" fill="#000000">delegates</text>
</g>
</g>
</svg>
