<svg width="1210px" height="169px"
 viewBox="0.00 0.00 1209.63 168.60" xmlns="http://www.w3.org/2000/svg" xmlns:xlink="http://www.w3.org/1999/xlink">
<g id="graph0" class="graph" transform="scale(1.0 1.0) rotate(0) translate(14.4 154.2)">
<title>org.owntracks.android.injection.components.AppComponent → org.owntracks.android.injection.modules.AndroidBindingModule_BindPreferencesActivity.PreferencesActivitySubcomponent → org.owntracks.android.ui.preferences.PreferencesActivityModule_BindReportingPreferencesFragment.ReportingFragmentSubcomponent</title>
<polygon fill="#ffffff" stroke="transparent" points="-14.4,14.4 -14.4,-154.2 1195.2266,-154.2 1195.2266,14.4 -14.4,14.4"/>
<text text-anchor="middle" x="590.4133" y="-8.2" font-family="Times,serif" font-size="14.00" fill="#000000">AppComponent → AndroidBindingModule_BindPreferencesActivity.PreferencesActivitySubcomponent → PreferencesActivityModule_BindReportingPreferencesFragment.ReportingFragmentSubcomponent</text>
<g id="clust1" class="cluster">
<title>cluster_Entry Points</title>
<polygon fill="none" stroke="#000000" points="396.8481,-35.8 396.8481,-112.8 582.4169,-112.8 582.4169,-35.8 396.8481,-35.8"/>
<text text-anchor="middle" x="439.6542" y="-96.2" font-family="Times,serif" font-size="14.00" fill="#000000">Entry Points</text>
</g>
<g id="clust4" class="cluster">
<title>cluster_AppComponent</title>
<g id="a_clust4"><a xlink:href="org.owntracks.android.injection.components.AppComponent.svg" xlink:title="Inherited from AppComponent\n@Singleton">
<polygon fill="none" stroke="#7fffd4" stroke-dasharray="5,2" points="602.4169,-32.8 602.4169,-131.8 791.9785,-131.8 791.9785,-32.8 602.4169,-32.8"/>
<text text-anchor="middle" x="697.1977" y="-115.2" font-family="Times,serif" font-size="14.00" fill="#000000">Inherited from AppComponent</text>
<text text-anchor="middle" x="697.1977" y="-98.4" font-family="Times,serif" font-size="14.00" fill="#000000">@Singleton</text>
</a>
</g>
</g>
<!-- 4d3c49c5&#45;a141&#45;4387&#45;b983&#45;748ed62f4c38 -->
<g id="node1" class="node">
<title>4d3c49c5&#45;a141&#45;4387&#45;b983&#45;748ed62f4c38</title>
<polygon fill="#40e0d0" stroke="#40e0d0" stroke-width="2" points="574.2018,-79.8 405.0632,-79.8 405.0632,-75.8 401.0632,-75.8 401.0632,-71.8 405.0632,-71.8 405.0632,-51.8 401.0632,-51.8 401.0632,-47.8 405.0632,-47.8 405.0632,-43.8 574.2018,-43.8 574.2018,-79.8"/>
<polyline fill="none" stroke="#40e0d0" stroke-width="2" points="405.0632,-75.8 409.0632,-75.8 409.0632,-71.8 405.0632,-71.8 "/>
<polyline fill="none" stroke="#40e0d0" stroke-width="2" points="405.0632,-51.8 409.0632,-51.8 409.0632,-47.8 405.0632,-47.8 "/>
<text text-anchor="middle" x="489.6325" y="-57.6" font-family="Times,serif" font-size="14.00" fill="#000000">inject (ReportingFragment)</text>
</g>
<!-- 276b27ea&#45;bff8&#45;4b25&#45;a308&#45;66d55394ca79 -->
<g id="node2" class="node">
<title>276b27ea&#45;bff8&#45;4b25&#45;a308&#45;66d55394ca79</title>
<polygon fill="#7fffd4" stroke="#7fffd4" points="737.7605,-82.4019 655.6349,-82.4019 655.6349,-41.1981 737.7605,-41.1981 737.7605,-82.4019"/>
<text text-anchor="middle" x="696.6977" y="-66" font-family="Times,serif" font-size="14.00" fill="#000000">@Singleton</text>
<text text-anchor="middle" x="696.6977" y="-49.2" font-family="Times,serif" font-size="14.00" fill="#000000">Preferences</text>
</g>
<!-- 4d3c49c5&#45;a141&#45;4387&#45;b983&#45;748ed62f4c38&#45;&gt;276b27ea&#45;bff8&#45;4b25&#45;a308&#45;66d55394ca79 -->
<g id="edge1" class="edge">
<title>4d3c49c5&#45;a141&#45;4387&#45;b983&#45;748ed62f4c38&#45;&gt;276b27ea&#45;bff8&#45;4b25&#45;a308&#45;66d55394ca79</title>
<path fill="none" stroke="#000000" d="M574.4513,-61.8C598.4466,-61.8 623.8292,-61.8 645.2097,-61.8"/>
<polygon fill="#000000" stroke="#000000" points="645.3606,-65.3001 655.3605,-61.8 645.3605,-58.3001 645.3606,-65.3001"/>
</g>
</g>
</svg>
